<?xml version="1.0" encoding="UTF-8" standalone="no"?>
<!-- Generator: Adobe Illustrator 23.1.1, SVG Export Plug-In . SVG Version: 6.00 Build 0)  -->

<svg
   version="1.1"
   id="Layer_1"
   x="0px"
   y="0px"
   width="65.5px"
   height="76.1px"
   viewBox="0 0 65.5 76.1"
   enable-background="new 0 0 65.5 76.1"
   xml:space="preserve"
   sodipodi:docname="arc.svg"
   inkscape:version="1.2.2 (b0a8486541, 2022-12-01)"
   xmlns:inkscape="http://www.inkscape.org/namespaces/inkscape"
   xmlns:sodipodi="http://sodipodi.sourceforge.net/DTD/sodipodi-0.dtd"
   xmlns="http://www.w3.org/2000/svg"
   xmlns:svg="http://www.w3.org/2000/svg"><defs
   id="defs439" /><sodipodi:namedview
   id="namedview437"
   pagecolor="#ffffff"
   bordercolor="#000000"
   borderopacity="0.25"
   inkscape:showpageshadow="2"
   inkscape:pageopacity="0.0"
   inkscape:pagecheckerboard="0"
   inkscape:deskcolor="#d1d1d1"
   showgrid="false"
   inkscape:zoom="10.762155"
   inkscape:cx="32.707203"
   inkscape:cy="38.142917"
   inkscape:window-width="1920"
   inkscape:window-height="1019"
   inkscape:window-x="0"
   inkscape:window-y="37"
   inkscape:window-maximized="1"
   inkscape:current-layer="g432" />
<g
   transform="matrix(1 0 0 1 0 0)"
   id="g434">
	<g
   transform="matrix( 1 0 0 1 0 0)"
   id="g432">
		<path
   fill="none"
   stroke="#00A500"
   stroke-width="1.89"
   stroke-miterlimit="10"
   d="M0.9,8.5c0-4.1,3.4-7.6,7.6-7.6h11.3v1.2    c0,1.4,1.2,2.5,2.5,2.5h11.3c1.3,0,2.5-1.2,2.5-2.5V0.9h11.3c3.3,0,6.1,2.1,7.1,5h4.2c3.1,0,5.7,2.5,5.7,5.7v1.3h-3.2v-1.3    c0-1.4-1.2-2.5-2.5-2.5h-1.3c-1.4,0-2.5,1.2-2.5,2.5v13.2c0,1.4,1.2,2.5,2.5,2.5h1.3c1.3,0,2.5-1.2,2.5-2.5v-1.3h3.2v1.3    c0,3.1-2.5,5.7-5.7,5.7h-3.8v11.3h3.8c3.1,0,5.7,2.5,5.7,5.7v1.3h-3.2v-1.3c0-1.3-1.2-2.5-2.5-2.5h-1.3c-1.4,0-2.5,1.2-2.5,2.5    v13.2c0,1.4,1.2,2.5,2.5,2.5h1.3c1.3,0,2.5-1.2,2.5-2.5v-1.3h3.2v1.3c0,3.2-2.5,5.7-5.7,5.7h-4.2c-1.1,3-3.9,5-7.1,5h-12v1.2    c0,1.3-1.2,2.5-2.5,2.5H23c-1.4,0-2.5-1.2-2.5-2.5v-1.2h-12c-4.1,0-7.6-3.4-7.6-7.6C0.9,63.8,0.9,8.5,0.9,8.5z"
   id="path417" />
		
			<linearGradient
   id="SVGID_1_"
   gradientUnits="userSpaceOnUse"
   x1="15.532"
   y1="-448.5405"
   x2="35.332"
   y2="-491.7405"
   gradientTransform="matrix(1 0 0 -1 0 -448)">
			<stop
   offset="0"
   style="stop-color:#A1FF72"
   id="stop419" />
			<stop
   offset="1"
   style="stop-color:#00F200"
   id="stop421" />
		</linearGradient>
		<path
   fill="url(#SVGID_1_)"
   d="M0.9,8.5c0-4.1,3.4-7.6,7.6-7.6h11.3v1.2c0,1.4,1.2,2.5,2.5,2.5h11.3c1.3,0,2.5-1.2,2.5-2.5V0.9    h11.3c3.3,0,6.1,2.1,7.1,5h4.2c3.1,0,5.7,2.5,5.7,5.7v1.3h-3.2v-1.3c0-1.4-1.2-2.5-2.5-2.5h-1.3c-1.4,0-2.5,1.2-2.5,2.5v13.2    c0,1.4,1.2,2.5,2.5,2.5h1.3c1.3,0,2.5-1.2,2.5-2.5v-1.3h3.2v1.3c0,3.1-2.5,5.7-5.7,5.7h-3.8v11.3h3.8c3.1,0,5.7,2.5,5.7,5.7v1.3    h-3.2v-1.3c0-1.3-1.2-2.5-2.5-2.5h-1.3c-1.4,0-2.5,1.2-2.5,2.5v13.2c0,1.4,1.2,2.5,2.5,2.5h1.3c1.3,0,2.5-1.2,2.5-2.5v-1.3h3.2    v1.3c0,3.2-2.5,5.7-5.7,5.7h-4.2c-1.1,3-3.9,5-7.1,5h-12v1.2c0,1.3-1.2,2.5-2.5,2.5H23c-1.4,0-2.5-1.2-2.5-2.5v-1.2h-12    c-4.1,0-7.6-3.4-7.6-7.6C0.9,63.8,0.9,8.5,0.9,8.5z"
   id="path424" />
		<text
   transform="translate(19.787,39.1945)"
   fill="#128c12"
   font-family="Verdana"
   font-size="11.7px"
   id="text426">дуга</text>
		<text
   transform="translate(30.6097,20.5392)"
   fill="#128c12"
   font-family="Verdana"
   font-size="8.1px"
   id="text428">кут</text>
		<text
   transform="translate(27.9007,56.4264)"
   fill="#128c12"
   font-family="Verdana"
   font-size="8.1px"
   id="text430">радіус</text>
	</g>
</g>
</svg>
