<?xml version="1.0" encoding="utf-8"?>
<!-- Generator: Adobe Illustrator 23.1.1, SVG Export Plug-In . SVG Version: 6.00 Build 0)  -->
<svg version="1.1" id="Layer_1" xmlns="http://www.w3.org/2000/svg" xmlns:xlink="http://www.w3.org/1999/xlink" x="0px" y="0px"
	 width="49.8px" height="21.4px" viewBox="0 0 49.8 21.4" enable-background="new 0 0 49.8 21.4" xml:space="preserve">
<g transform="matrix(1 0 0 1 0 0)">
	<g transform="matrix( 1 0 0 1 0 0)">
		<path fill="none" stroke="#BFAF00" stroke-width="1.89" stroke-miterlimit="10" d="M0.9,3.5C0.9,2.1,2,1,3.4,1h42.8
			c1.4,0,2.5,1.1,2.5,2.5V18c0,1.4-1.1,2.5-2.5,2.5H3.5C2.1,20.5,1,19.4,1,18V3.5H0.9z"/>
		
			<linearGradient id="SVGID_1_" gradientUnits="userSpaceOnUse" x1="19.3654" y1="588.0636" x2="39.1654" y2="631.2636" gradientTransform="matrix(1 0 0 1 0 -589.28)">
			<stop  offset="0" style="stop-color:#FFFF72"/>
			<stop  offset="1" style="stop-color:#FFF600"/>
		</linearGradient>
		<path fill="url(#SVGID_1_)" d="M0.9,3.5C0.9,2.1,2,1,3.4,1h42.8c1.4,0,2.5,1.1,2.5,2.5V18c0,1.4-1.1,2.5-2.5,2.5H3.5
			C2.1,20.5,1,19.4,1,18V3.5H0.9z"/>
		<text x="25.2px" y="10.8px" alignment-baseline="middle" text-anchor="middle" fill="#8c7a15" font-family="Verdana" font-size="11.7px">i</text>
	</g>
</g>
</svg>
