<?xml version="1.0" encoding="UTF-8" standalone="no"?>
<!-- Generator: Adobe Illustrator 23.1.1, SVG Export Plug-In . SVG Version: 6.00 Build 0)  -->

<svg
   version="1.1"
   id="Layer_1"
   x="0px"
   y="0px"
   width="56.1px"
   height="40.2px"
   viewBox="0 0 56.1 40.2"
   enable-background="new 0 0 56.1 40.2"
   xml:space="preserve"
   sodipodi:docname="clean.svg"
   inkscape:version="1.2.2 (b0a8486541, 2022-12-01)"
   xmlns:inkscape="http://www.inkscape.org/namespaces/inkscape"
   xmlns:sodipodi="http://sodipodi.sourceforge.net/DTD/sodipodi-0.dtd"
   xmlns="http://www.w3.org/2000/svg"
   xmlns:svg="http://www.w3.org/2000/svg"><defs
   id="defs472" /><sodipodi:namedview
   id="namedview470"
   pagecolor="#ffffff"
   bordercolor="#000000"
   borderopacity="0.25"
   inkscape:showpageshadow="2"
   inkscape:pageopacity="0.0"
   inkscape:pagecheckerboard="0"
   inkscape:deskcolor="#d1d1d1"
   showgrid="false"
   inkscape:zoom="20.373134"
   inkscape:cx="28.027107"
   inkscape:cy="20.1"
   inkscape:window-width="1920"
   inkscape:window-height="1019"
   inkscape:window-x="0"
   inkscape:window-y="37"
   inkscape:window-maximized="1"
   inkscape:current-layer="g465" />
<g
   transform="matrix(1 0 0 1 0 0)"
   id="g467">
	<g
   transform="matrix( 1 0 0 1 0 0)"
   id="g465">
		<path
   fill="none"
   stroke="#00A500"
   stroke-width="1.89"
   stroke-miterlimit="10"
   d="M0.9,8.5c0-4.1,3.4-7.6,7.6-7.6h11.3v1.2    c0,1.4,1.2,2.5,2.5,2.5h11.3c1.3,0,2.5-1.2,2.5-2.5V0.9h11.3c4.1,0,7.6,3.4,7.6,7.6V28c0,4.1-3.4,7.6-7.6,7.6h-12v1.2    c0,1.3-1.2,2.5-2.5,2.5H23c-1.4,0-2.5-1.2-2.5-2.5v-1.2h-12c-4.1,0-7.6-3.4-7.6-7.6C0.9,28,0.9,8.5,0.9,8.5z"
   id="path454" />
		
			<linearGradient
   id="SVGID_1_"
   gradientUnits="userSpaceOnUse"
   x1="19.0865"
   y1="592.2813"
   x2="38.8865"
   y2="635.4814"
   gradientTransform="matrix(1 0 0 1 0 -593.37)">
			<stop
   offset="0"
   style="stop-color:#A1FF72"
   id="stop456" />
			<stop
   offset="1"
   style="stop-color:#00F200"
   id="stop458" />
		</linearGradient>
		<path
   fill="url(#SVGID_1_)"
   d="M0.9,8.5c0-4.1,3.4-7.6,7.6-7.6h11.3v1.2c0,1.4,1.2,2.5,2.5,2.5h11.3c1.3,0,2.5-1.2,2.5-2.5V0.9    h11.3c4.1,0,7.6,3.4,7.6,7.6V28c0,4.1-3.4,7.6-7.6,7.6h-12v1.2c0,1.3-1.2,2.5-2.5,2.5H23c-1.4,0-2.5-1.2-2.5-2.5v-1.2h-12    c-4.1,0-7.6-3.4-7.6-7.6C0.9,28,0.9,8.5,0.9,8.5z"
   id="path461" />
		<text
   fill="#128c12"
   font-family="Verdana"
   font-size="10.6356px"
   id="text463"
   x="2.9547606"
   y="23.062651"
   transform="scale(1.0404333,0.96113806)"
   style="stroke-width:0.909029">очистити</text>
	</g>
</g>
</svg>
