<?xml version="1.0" encoding="utf-8"?>
<!-- Generator: Adobe Illustrator 23.1.1, SVG Export Plug-In . SVG Version: 6.00 Build 0)  -->
<svg version="1.1" id="Layer_1" xmlns="http://www.w3.org/2000/svg" xmlns:xlink="http://www.w3.org/1999/xlink" x="0px" y="0px"
	 width="64.9px" height="21.4px" viewBox="0 0 64.9 21.4" enable-background="new 0 0 64.9 21.4" xml:space="preserve">
<g transform="matrix(1 0 0 1 0 0)">
	<g transform="matrix( 1 0 0 1 0 0)">
		<path fill="none" stroke="#BFAF00" stroke-width="1.89" stroke-miterlimit="10" d="M0.9,4.7c0-1.2,1-2.2,2.2-2.2h0.6
			C5,2.5,6,3.5,6,4.7v1.6h5V3.5C11,2.1,12.1,1,13.5,1h47.9c1.4,0,2.5,1.1,2.5,2.5V18c0,1.4-1.1,2.5-2.5,2.5H13.5
			c-1.4,0-2.5-1.1-2.5-2.5v-2.8H6v1.6C6,18,5,19,3.8,19H3.2C2,19,1,18,1,16.8V4.7H0.9z"/>
		
			<linearGradient id="SVGID_1_" gradientUnits="userSpaceOnUse" x1="25.8907" y1="585.0728" x2="45.6907" y2="628.2727" gradientTransform="matrix(1 0 0 1 0 -589.28)">
			<stop  offset="0" style="stop-color:#FFFF72"/>
			<stop  offset="1" style="stop-color:#FFF600"/>
		</linearGradient>
		<path fill="url(#SVGID_1_)" d="M0.9,4.7c0-1.2,1-2.2,2.2-2.2h0.6C5,2.5,6,3.5,6,4.7v1.6h5V3.5C11,2.1,12.1,1,13.5,1h47.9
			c1.4,0,2.5,1.1,2.5,2.5V18c0,1.4-1.1,2.5-2.5,2.5H13.5c-1.4,0-2.5-1.1-2.5-2.5v-2.8H6v1.6C6,18,5,19,3.8,19H3.2C2,19,1,18,1,16.8
			V4.7H0.9z"/>
		<text x="36.9px" y="10.8px" alignment-baseline="middle" text-anchor="middle" fill="#8c7a15" font-family="Verdana" font-size="11.7px">i</text>
	</g>
</g>
</svg>
