<?xml version="1.0" encoding="utf-8"?>
<!-- Generator: Adobe Illustrator 23.1.1, SVG Export Plug-In . SVG Version: 6.00 Build 0)  -->
<svg version="1.1" id="Layer_1" xmlns="http://www.w3.org/2000/svg" xmlns:xlink="http://www.w3.org/1999/xlink" x="0px" y="0px"
	 width="81.7px" height="53.9px" viewBox="0 0 81.7 53.9" enable-background="new 0 0 81.7 53.9" xml:space="preserve">
<g>
	<path fill="none" stroke="#BFAF00" stroke-width="2.7" stroke-miterlimit="10" d="M4.9,37.7c0-18.1,17.8-32.8,35.9-32.8
		s35.9,14.7,35.9,32.8c0,4.2-3.4,7.6-7.6,7.6H48.4v1.1c0,1.4-1.1,2.5-2.5,2.5H35.8c-1.4,0-2.5-1.1-2.5-2.5v-1.1H12.5
		C8.3,45.3,4.9,41.9,4.9,37.7z"/>
	
		<linearGradient id="SVGID_1_" gradientUnits="userSpaceOnUse" x1="-90.6067" y1="-427.0023" x2="-70.8064" y2="-470.2031" gradientTransform="matrix(1 0 0 -1 116 -425.1411)">
		<stop  offset="0" style="stop-color:#FFFF72"/>
		<stop  offset="1" style="stop-color:#FFF600"/>
	</linearGradient>
	<path fill="url(#SVGID_1_)" d="M4.9,37.7c0-18.1,17.8-32.8,35.9-32.8s35.9,14.7,35.9,32.8c0,4.2-3.4,7.6-7.6,7.6H48.4v1.1
		c0,1.4-1.1,2.5-2.5,2.5H35.8c-1.4,0-2.5-1.1-2.5-2.5v-1.1H12.5C8.3,45.3,4.9,41.9,4.9,37.7z"/>
	<path opacity="0.55" fill="#D855BF" enable-background="new    " d="M40.9,4.9c18.1,0,35.9,14.7,35.9,32.8c0,4.2-3.4,7.6-7.6,7.6
		H48.4v1.1c0,1.4-1.1,2.5-2.5,2.5H35.8c-1.4,0-2.5-1.1-2.5-2.5v-1.1H12.5c-4.2,0-7.6-3.4-7.6-7.6C4.9,19.6,22.8,4.9,40.9,4.9
		 M40.9,3.6c-9.1,0-18.5,3.6-25.6,9.9C7.7,20.2,3.6,28.7,3.6,37.7c0,4.9,4,8.9,8.9,8.9H32c0.1,2,1.8,3.7,3.9,3.7H46
		c2.1,0,3.8-1.6,3.9-3.7h19.4c4.9,0,8.9-4,8.9-8.9c0-9-4.1-17.6-11.6-24.2C59.3,7.2,50,3.6,40.9,3.6L40.9,3.6z"/>
	<path opacity="0.75" fill="#00C8F8" enable-background="new    " d="M40.9,4.9c18.1,0,35.9,14.7,35.9,32.8c0,4.2-3.4,7.6-7.6,7.6
		H48.4v1.1c0,1.4-1.1,2.5-2.5,2.5H35.8c-1.4,0-2.5-1.1-2.5-2.5v-1.1H12.5c-4.2,0-7.6-3.4-7.6-7.6C4.9,19.6,22.8,4.9,40.9,4.9
		 M40.9,0c-10,0-20.2,3.9-28,10.8C4.6,18.1,0,27.7,0,37.7c0,6.9,5.6,12.5,12.5,12.5h16.9c1.3,2.2,3.7,3.7,6.4,3.7h10.1
		c2.7,0,5.1-1.5,6.4-3.7h16.9c6.9,0,12.5-5.6,12.5-12.5c0-10-4.6-19.6-12.8-26.9C61.1,3.9,50.9,0,40.9,0L40.9,0z"/>
		<text x="39.6px" y="30.6px" alignment-baseline="middle" text-anchor="middle" fill="#8c7a15" font-family="Verdana" font-size="11.7px">i</text>	
</g>
</svg>
