<?xml version="1.0" encoding="UTF-8" standalone="no"?>
<!-- Generator: Adobe Illustrator 23.1.1, SVG Export Plug-In . SVG Version: 6.00 Build 0)  -->

<svg
   version="1.1"
   id="Layer_1"
   x="0px"
   y="0px"
   width="125.4px"
   height="83.7px"
   viewBox="0 0 125.4 83.7"
   enable-background="new 0 0 125.4 83.7"
   xml:space="preserve"
   sodipodi:docname="if.svg"
   inkscape:version="1.2.2 (b0a8486541, 2022-12-01)"
   xmlns:inkscape="http://www.inkscape.org/namespaces/inkscape"
   xmlns:sodipodi="http://sodipodi.sourceforge.net/DTD/sodipodi-0.dtd"
   xmlns="http://www.w3.org/2000/svg"
   xmlns:svg="http://www.w3.org/2000/svg"><defs
   id="defs2805" /><sodipodi:namedview
   id="namedview2803"
   pagecolor="#ffffff"
   bordercolor="#000000"
   borderopacity="0.25"
   inkscape:showpageshadow="2"
   inkscape:pageopacity="0.0"
   inkscape:pagecheckerboard="0"
   inkscape:deskcolor="#d1d1d1"
   showgrid="false"
   inkscape:zoom="9.7849466"
   inkscape:cx="62.749448"
   inkscape:cy="41.952196"
   inkscape:window-width="1920"
   inkscape:window-height="1019"
   inkscape:window-x="0"
   inkscape:window-y="37"
   inkscape:window-maximized="1"
   inkscape:current-layer="g2798" />
<g
   transform="matrix(1 0 0 1 0 0)"
   id="g2800">
	<g
   transform="matrix( 1 0 0 1 0 0)"
   id="g2798">
		<path
   fill="none"
   stroke="#CC7E02"
   stroke-width="1.89"
   stroke-miterlimit="10"
   d="M0.9,8.5c0-4.2,3.4-7.6,7.6-7.6h11.3V2    c0,1.4,1.1,2.5,2.5,2.5h11.3c1.4,0,2.5-1.1,2.5-2.5V0.9h11.3c3.3,0,6.1,2.1,7.1,5h13C68.9,5.9,70,7,70,8.4    c-8.4,0-15.1,6.8-15.1,15.1S61.7,38.6,70,38.6h51.7c1.4,0,2.5,1.1,2.5,2.5v6.3H120c-1-3-3.8-5-7.1-5h-12v1.1    c0,1.4-1.1,2.5-2.5,2.5h-9.9c-1.4,0-2.5-1.1-2.5-2.5v-1.1H73.4c-4.2,0-7.6,3.4-7.6,7.6v21.4c0,4.2-3.4,7.6-7.6,7.6H35.6v1.1    c0,1.4-1.1,2.5-2.5,2.5H23c-1.4,0-2.5-1.1-2.5-2.5V79h-12c-4.2,0-7.6-3.4-7.6-7.6L0.9,8.5z"
   id="path2787" />
		
			<linearGradient
   id="SVGID_1_"
   gradientUnits="userSpaceOnUse"
   x1="33.0779"
   y1="518.6947"
   x2="52.8779"
   y2="561.8947"
   gradientTransform="matrix(1 0 0 1 0 -526.196)">
			<stop
   offset="0"
   style="stop-color:#FFDF60"
   id="stop2789" />
			<stop
   offset="1"
   style="stop-color:#FFBB00"
   id="stop2791" />
		</linearGradient>
		<path
   fill="url(#SVGID_1_)"
   d="M0.9,8.5c0-4.2,3.4-7.6,7.6-7.6h11.3V2c0,1.4,1.1,2.5,2.5,2.5h11.3c1.4,0,2.5-1.1,2.5-2.5V0.9h11.3    c3.3,0,6.1,2.1,7.1,5h13C68.9,5.9,70,7,70,8.4c-8.4,0-15.1,6.8-15.1,15.1S61.7,38.6,70,38.6h51.7c1.4,0,2.5,1.1,2.5,2.5v6.3H120    c-1-3-3.8-5-7.1-5h-12v1.1c0,1.4-1.1,2.5-2.5,2.5h-9.9c-1.4,0-2.5-1.1-2.5-2.5v-1.1H73.4c-4.2,0-7.6,3.4-7.6,7.6v21.4    c0,4.2-3.4,7.6-7.6,7.6H35.6v1.1c0,1.4-1.1,2.5-2.5,2.5H23c-1.4,0-2.5-1.1-2.5-2.5V79h-12c-4.2,0-7.6-3.4-7.6-7.6L0.9,8.5z"
   id="path2794" />
		<text
   fill="#8b6010"
   font-family="Verdana"
   font-size="11.7px"
   id="text2796"
   x="16.2831"
   y="22.0949">якщо</text>
	</g>
</g>
</svg>
