<?xml version="1.0" encoding="utf-8"?>
<!-- Generator: Adobe Illustrator 23.1.1, SVG Export Plug-In . SVG Version: 6.00 Build 0)  -->
<svg version="1.1" id="Layer_1" xmlns="http://www.w3.org/2000/svg" xmlns:xlink="http://www.w3.org/1999/xlink" x="0px" y="0px"
	 width="168.2px" height="29.6px" viewBox="0 0 168.2 29.6" enable-background="new 0 0 168.2 29.6" xml:space="preserve">
<g transform="matrix(1 0 0 1 0 0)">
	<g transform="matrix( 1 0 0 1 0 0)">
		<path fill="none" stroke="#CC66B9" stroke-width="1.89" stroke-miterlimit="10" d="M0.9,14.8c0-7.7,6.2-13.9,13.9-13.9h138.6
			c7.7,0,13.9,6.2,13.9,13.9s-6.2,13.9-13.9,13.9H14.8C7.2,28.7,0.9,22.5,0.9,14.8z M11,6.9c-1.2,0-2.2,1-2.2,2.2v12
			c0,1.2,1,2.2,2.2,2.2h0.6c1.2,0,2.2-1,2.2-2.2v-1.6h5v2.8c0,1.4,1.1,2.5,2.5,2.5h47.9c1.4,0,2.5-1.1,2.5-2.5V7.9
			c0-1.4-1.1-2.5-2.5-2.5H21.4c-1.4,0-2.5,1.1-2.5,2.5v2.8h-5V9.1c0-1.2-1-2.2-2.2-2.2C11.7,6.9,11,6.9,11,6.9z M94.8,6.9
			c-1.2,0-2.2,1-2.2,2.2v12c0,1.2,1,2.2,2.2,2.2h0.6c1.2,0,2.2-1,2.2-2.2v-1.6h5v2.8c0,1.4,1.1,2.5,2.5,2.5H153
			c1.4,0,2.5-1.1,2.5-2.5V7.9c0-1.4-1.1-2.5-2.5-2.5h-47.9c-1.4,0-2.5,1.1-2.5,2.5v2.8h-5V9.1c0-1.2-1-2.2-2.2-2.2
			C95.4,6.9,94.8,6.9,94.8,6.9z"/>
		
			<linearGradient id="SVGID_1_" gradientUnits="userSpaceOnUse" x1="4.2818" y1="566.6031" x2="85.2818" y2="595.4032" gradientTransform="matrix(1 0 0 1 0 -580.19)">
			<stop  offset="0" style="stop-color:#FCC4F9"/>
			<stop  offset="1" style="stop-color:#F991F3"/>
		</linearGradient>
		<path fill="url(#SVGID_1_)" d="M0.9,14.8c0-7.7,6.2-13.9,13.9-13.9h138.6c7.7,0,13.9,6.2,13.9,13.9s-6.2,13.9-13.9,13.9H14.8
			C7.2,28.7,0.9,22.5,0.9,14.8z M11,6.9c-1.2,0-2.2,1-2.2,2.2v12c0,1.2,1,2.2,2.2,2.2h0.6c1.2,0,2.2-1,2.2-2.2v-1.6h5v2.8
			c0,1.4,1.1,2.5,2.5,2.5h47.9c1.4,0,2.5-1.1,2.5-2.5V7.9c0-1.4-1.1-2.5-2.5-2.5H21.4c-1.4,0-2.5,1.1-2.5,2.5v2.8h-5V9.1
			c0-1.2-1-2.2-2.2-2.2C11.7,6.9,11,6.9,11,6.9z M94.8,6.9c-1.2,0-2.2,1-2.2,2.2v12c0,1.2,1,2.2,2.2,2.2h0.6c1.2,0,2.2-1,2.2-2.2
			v-1.6h5v2.8c0,1.4,1.1,2.5,2.5,2.5H153c1.4,0,2.5-1.1,2.5-2.5V7.9c0-1.4-1.1-2.5-2.5-2.5h-47.9c-1.4,0-2.5,1.1-2.5,2.5v2.8h-5V9.1
			c0-1.2-1-2.2-2.2-2.2C95.4,6.9,94.8,6.9,94.8,6.9z"/>
		<text transform="matrix(1 0 0 1 77.4028 20.2946)" fill="#8C2A6E" font-family="'Verdana'" font-size="14.4px">&lt;</text>
	</g>
</g>
</svg>
