<?xml version="1.0" encoding="UTF-8" standalone="no"?>
<!-- Generator: Adobe Illustrator 23.1.1, SVG Export Plug-In . SVG Version: 6.00 Build 0)  -->

<svg
   version="1.1"
   id="Layer_1"
   x="0px"
   y="0px"
   width="56.1px"
   height="40.2px"
   viewBox="0 0 56.1 40.2"
   enable-background="new 0 0 56.1 40.2"
   xml:space="preserve"
   sodipodi:docname="pendown.svg"
   inkscape:version="1.2.2 (b0a8486541, 2022-12-01)"
   xmlns:inkscape="http://www.inkscape.org/namespaces/inkscape"
   xmlns:sodipodi="http://sodipodi.sourceforge.net/DTD/sodipodi-0.dtd"
   xmlns="http://www.w3.org/2000/svg"
   xmlns:svg="http://www.w3.org/2000/svg"><defs
   id="defs813" /><sodipodi:namedview
   id="namedview811"
   pagecolor="#ffffff"
   bordercolor="#000000"
   borderopacity="0.25"
   inkscape:showpageshadow="2"
   inkscape:pageopacity="0.0"
   inkscape:pagecheckerboard="0"
   inkscape:deskcolor="#d1d1d1"
   showgrid="false"
   inkscape:zoom="20.373134"
   inkscape:cx="32.542858"
   inkscape:cy="20.1"
   inkscape:window-width="1920"
   inkscape:window-height="1019"
   inkscape:window-x="0"
   inkscape:window-y="37"
   inkscape:window-maximized="1"
   inkscape:current-layer="g806" />
<g
   transform="matrix(1 0 0 1 0 0)"
   id="g808">
	<g
   transform="matrix( 1 0 0 1 0 0)"
   id="g806">
		<path
   fill="none"
   stroke="#04A2B2"
   stroke-width="1.89"
   stroke-miterlimit="10"
   d="M0.9,8.5c0-4.2,3.4-7.6,7.6-7.6h11.3V2    c0,1.4,1.1,2.5,2.5,2.5h11.3c1.4,0,2.5-1.1,2.5-2.5V0.9h11.3c4.2,0,7.6,3.4,7.6,7.6V28c0,4.2-3.4,7.6-7.6,7.6h-12v1.1    c0,1.4-1.1,2.5-2.5,2.5H23c-1.4,0-2.5-1.1-2.5-2.5v-1.1h-12c-4.2,0-7.6-3.4-7.6-7.6C0.9,28,0.9,8.5,0.9,8.5z"
   id="path787" />
		
			<linearGradient
   id="SVGID_1_"
   gradientUnits="userSpaceOnUse"
   x1="19.0865"
   y1="568.2774"
   x2="38.8865"
   y2="611.4774"
   gradientTransform="matrix(1 0 0 1 0 -569.366)">
			<stop
   offset="0"
   style="stop-color:#8EFFFF"
   id="stop789" />
			<stop
   offset="1"
   style="stop-color:#00F0FF"
   id="stop791" />
		</linearGradient>
		<path
   fill="url(#SVGID_1_)"
   d="M0.9,8.5c0-4.2,3.4-7.6,7.6-7.6h11.3V2c0,1.4,1.1,2.5,2.5,2.5h11.3c1.4,0,2.5-1.1,2.5-2.5V0.9h11.3    c4.2,0,7.6,3.4,7.6,7.6V28c0,4.2-3.4,7.6-7.6,7.6h-12v1.1c0,1.4-1.1,2.5-2.5,2.5H23c-1.4,0-2.5-1.1-2.5-2.5v-1.1h-12    c-4.2,0-7.6-3.4-7.6-7.6C0.9,28,0.9,8.5,0.9,8.5z"
   id="path794" />
		<text
   transform="matrix(1 0 0 1 17.1132 17.5948)"
   font-family="'ArialMT'"
   font-size="10.8px"
   id="text796"> </text>
		<text
   fill="#007e8c"
   font-family="Verdana"
   font-size="11.1053px"
   id="text798"
   x="1.167778"
   y="20.497091"
   transform="scale(0.94916784,1.0535544)"
   style="stroke-width:0.949168">малювати</text>
		<text
   transform="matrix(1 0 0 1 38.7768 17.5948)"
   font-family="'ArialMT'"
   font-size="10.8px"
   id="text800"> </text>
		
		<text
   transform="matrix(1 0 0 1 43.6293 29.2945)"
   font-family="'ArialMT'"
   font-size="10.8px"
   id="text804"> </text>
	</g>
</g>
</svg>
