<?xml version="1.0" encoding="UTF-8" standalone="no"?>
<!-- Generator: Adobe Illustrator 23.1.1, SVG Export Plug-In . SVG Version: 6.00 Build 0)  -->

<svg
   version="1.1"
   id="Layer_1"
   x="0px"
   y="0px"
   width="161.9px"
   height="39.1px"
   viewBox="0 0 161.9 39.1"
   enable-background="new 0 0 161.9 39.1"
   xml:space="preserve"
   sodipodi:docname="random.svg"
   inkscape:version="1.2.2 (b0a8486541, 2022-12-01)"
   xmlns:inkscape="http://www.inkscape.org/namespaces/inkscape"
   xmlns:sodipodi="http://sodipodi.sourceforge.net/DTD/sodipodi-0.dtd"
   xmlns="http://www.w3.org/2000/svg"
   xmlns:svg="http://www.w3.org/2000/svg"><defs
   id="defs2966" /><sodipodi:namedview
   id="namedview2964"
   pagecolor="#ffffff"
   bordercolor="#000000"
   borderopacity="0.25"
   inkscape:showpageshadow="2"
   inkscape:pageopacity="0.0"
   inkscape:pagecheckerboard="0"
   inkscape:deskcolor="#d1d1d1"
   showgrid="false"
   inkscape:zoom="10.846202"
   inkscape:cx="80.949997"
   inkscape:cy="19.592112"
   inkscape:window-width="1920"
   inkscape:window-height="1019"
   inkscape:window-x="0"
   inkscape:window-y="37"
   inkscape:window-maximized="1"
   inkscape:current-layer="g2959" />
<g
   transform="matrix(1 0 0 1 0 0)"
   id="g2961">
	<g
   transform="matrix( 1 0 0 1 0 0)"
   id="g2959">
		<path
   fill="none"
   stroke="#CC66B9"
   stroke-width="1.89"
   stroke-miterlimit="10"
   d="M0.9,17.3c0-1.2,1-2.2,2.2-2.2h0.6    c1.2,0,2.2,1,2.2,2.2v1.6h5v-2.8v-5.7c0-5.2,4.2-9.4,9.5-9.4h122.2c5.2,0,9.4,4.2,9.4,9.4v3.2h6.3c1.4,0,2.5,1.1,2.5,2.5v14.5    c0,1.4-1.1,2.5-2.5,2.5H152v2.5c0,1.4-1.1,2.5-2.5,2.5h-136c-1.4,0-2.5-1.1-2.5-2.5v-5v-2.8H6v1.6c0,1.2-1,2.2-2.2,2.2H3.2    c-1.2,0-2.2-1-2.2-2.2V17.3H0.9z M18,14.8c-1.2,0-2.2,1-2.2,2.2v12c0,1.2,1,2.2,2.2,2.2h0.6c1.2,0,2.2-1,2.2-2.2v-1.6h5v2.8    c0,1.4,1.1,2.5,2.5,2.5h47.9c1.4,0,2.5-1.1,2.5-2.5V15.8c0-1.4-1.1-2.5-2.5-2.5H28.4c-1.4,0-2.5,1.1-2.5,2.5v2.8h-5V17    c0-1.2-1-2.2-2.2-2.2H18z M87.3,14.8c-1.2,0-2.2,1-2.2,2.2v12c0,1.2,1,2.2,2.2,2.2h0.6c1.2,0,2.2-1,2.2-2.2v-1.6h5v2.8    c0,1.4,1.1,2.5,2.5,2.5h47.9c1.4,0,2.5-1.1,2.5-2.5V15.8c0-1.4-1.1-2.5-2.5-2.5H97.6c-1.4,0-2.5,1.1-2.5,2.5v2.8h-5V17    c0-1.2-1-2.2-2.2-2.2H87.3z"
   id="path2948" />
		
			<linearGradient
   id="SVGID_1_"
   gradientUnits="userSpaceOnUse"
   x1="2.168"
   y1="563.5985"
   x2="83.168"
   y2="592.3985"
   gradientTransform="matrix(1 0 0 1 0 -571.24)">
			<stop
   offset="0"
   style="stop-color:#FCC4F9"
   id="stop2950" />
			<stop
   offset="1"
   style="stop-color:#F991F3"
   id="stop2952" />
		</linearGradient>
		<path
   fill="url(#SVGID_1_)"
   d="M0.9,17.3c0-1.2,1-2.2,2.2-2.2h0.6c1.2,0,2.2,1,2.2,2.2v1.6h5v-2.8v-5.7c0-5.2,4.2-9.4,9.5-9.4    h122.2c5.2,0,9.4,4.2,9.4,9.4v3.2h6.3c1.4,0,2.5,1.1,2.5,2.5v14.5c0,1.4-1.1,2.5-2.5,2.5H152v2.5c0,1.4-1.1,2.5-2.5,2.5h-136    c-1.4,0-2.5-1.1-2.5-2.5v-5v-2.8H6v1.6c0,1.2-1,2.2-2.2,2.2H3.2c-1.2,0-2.2-1-2.2-2.2V17.3H0.9z M18,14.8c-1.2,0-2.2,1-2.2,2.2v12    c0,1.2,1,2.2,2.2,2.2h0.6c1.2,0,2.2-1,2.2-2.2v-1.6h5v2.8c0,1.4,1.1,2.5,2.5,2.5h47.9c1.4,0,2.5-1.1,2.5-2.5V15.8    c0-1.4-1.1-2.5-2.5-2.5H28.4c-1.4,0-2.5,1.1-2.5,2.5v2.8h-5V17c0-1.2-1-2.2-2.2-2.2H18z M87.3,14.8c-1.2,0-2.2,1-2.2,2.2v12    c0,1.2,1,2.2,2.2,2.2h0.6c1.2,0,2.2-1,2.2-2.2v-1.6h5v2.8c0,1.4,1.1,2.5,2.5,2.5h47.9c1.4,0,2.5-1.1,2.5-2.5V15.8    c0-1.4-1.1-2.5-2.5-2.5H97.6c-1.4,0-2.5,1.1-2.5,2.5v2.8h-5V17c0-1.2-1-2.2-2.2-2.2H87.3z"
   id="path2955" />
		<text
   fill="#8c2a6e"
   font-family="Verdana"
   font-size="9px"
   id="text2957"
   x="43.541302"
   y="10.3946">випадкове число</text>
	</g>
</g>
</svg>
