<?xml version="1.0" encoding="UTF-8" standalone="no"?>
<!-- Generator: Adobe Illustrator 23.1.1, SVG Export Plug-In . SVG Version: 6.00 Build 0)  -->

<svg
   version="1.1"
   id="Layer_1"
   x="0px"
   y="0px"
   width="125.4px"
   height="80.5px"
   viewBox="0 0 125.4 80.5"
   enable-background="new 0 0 125.4 80.5"
   xml:space="preserve"
   sodipodi:docname="repeat.svg"
   inkscape:version="1.2.2 (b0a8486541, 2022-12-01)"
   xmlns:inkscape="http://www.inkscape.org/namespaces/inkscape"
   xmlns:sodipodi="http://sodipodi.sourceforge.net/DTD/sodipodi-0.dtd"
   xmlns="http://www.w3.org/2000/svg"
   xmlns:svg="http://www.w3.org/2000/svg"><defs
   id="defs878" /><sodipodi:namedview
   id="namedview876"
   pagecolor="#ffffff"
   bordercolor="#000000"
   borderopacity="0.25"
   inkscape:showpageshadow="2"
   inkscape:pageopacity="0.0"
   inkscape:pagecheckerboard="0"
   inkscape:deskcolor="#d1d1d1"
   showgrid="false"
   inkscape:zoom="10.173913"
   inkscape:cx="62.709402"
   inkscape:cy="40.348291"
   inkscape:window-width="1920"
   inkscape:window-height="1019"
   inkscape:window-x="0"
   inkscape:window-y="37"
   inkscape:window-maximized="1"
   inkscape:current-layer="g871" />
<g
   transform="matrix(1 0 0 1 0 0)"
   id="g873">
	<g
   transform="matrix( 1 0 0 1 0 0)"
   id="g871">
		<path
   fill="none"
   stroke="#CC7E02"
   stroke-width="1.89"
   stroke-miterlimit="10"
   d="M0.9,8.5c0-4.2,3.4-7.6,7.6-7.6h11.3V2    c0,1.4,1.1,2.5,2.5,2.5h11.3c1.4,0,2.5-1.1,2.5-2.5V0.9h11.3c3.3,0,6.1,2.1,7.1,5h4.2c3.1,0,5.7,2.5,5.7,5.7v1.3h-3.1v-1.3    c0-1.4-1.1-2.5-2.5-2.5h-1.3c-1.4,0-2.5,1.1-2.5,2.5v13.2c0,1.4,1.1,2.5,2.5,2.5h1.3c1.4,0,2.5-1.1,2.5-2.5v-1.3h3.1v7.6    c0,2.1,1.7,3.8,3.8,3.8h53.5c1.4,0,2.5,1.1,2.5,2.5v6.3H120c-1-3-3.8-5-7.1-5h-12v1.1c0,1.4-1.1,2.5-2.5,2.5h-9.9    c-1.4,0-2.5-1.1-2.5-2.5v-1.1H73.4c-4.2,0-7.6,3.4-7.6,7.6v22.1c0,4.2-3.4,7.6-7.6,7.6H35.6v1c0,1.4-1.1,2.5-2.5,2.5H23    c-1.4,0-2.5-1.1-2.5-2.5v-1.1h-12c-4.2,0-7.6-3.4-7.6-7.6L0.9,8.5z"
   id="path860" />
		
			<linearGradient
   id="SVGID_1_"
   gradientUnits="userSpaceOnUse"
   x1="34.3658"
   y1="521.7545"
   x2="54.1657"
   y2="564.9545"
   gradientTransform="matrix(1 0 0 1 0 -529.846)">
			<stop
   offset="0"
   style="stop-color:#FFDF60"
   id="stop862" />
			<stop
   offset="1"
   style="stop-color:#FFBB00"
   id="stop864" />
		</linearGradient>
		<path
   fill="url(#SVGID_1_)"
   d="M0.9,8.5c0-4.2,3.4-7.6,7.6-7.6h11.3V2c0,1.4,1.1,2.5,2.5,2.5h11.3c1.4,0,2.5-1.1,2.5-2.5V0.9h11.3    c3.3,0,6.1,2.1,7.1,5h4.2c3.1,0,5.7,2.5,5.7,5.7v1.3h-3.1v-1.3c0-1.4-1.1-2.5-2.5-2.5h-1.3c-1.4,0-2.5,1.1-2.5,2.5v13.2    c0,1.4,1.1,2.5,2.5,2.5h1.3c1.4,0,2.5-1.1,2.5-2.5v-1.3h3.1v7.6c0,2.1,1.7,3.8,3.8,3.8h53.5c1.4,0,2.5,1.1,2.5,2.5v6.3H120    c-1-3-3.8-5-7.1-5h-12v1.1c0,1.4-1.1,2.5-2.5,2.5h-9.9c-1.4,0-2.5-1.1-2.5-2.5v-1.1H73.4c-4.2,0-7.6,3.4-7.6,7.6v22.1    c0,4.2-3.4,7.6-7.6,7.6H35.6v1c0,1.4-1.1,2.5-2.5,2.5H23c-1.4,0-2.5-1.1-2.5-2.5v-1.1h-12c-4.2,0-7.6-3.4-7.6-7.6L0.9,8.5z"
   id="path867" />
		<text
   fill="#8b6010"
   font-family="Verdana"
   font-size="10.8939px"
   id="text869"
   x="1.2416513"
   y="20.57242"
   transform="scale(0.93110624,1.0739913)"
   style="stroke-width:0.931106">повторити</text>
	</g>
</g>
</svg>
