<?xml version="1.0" encoding="UTF-8" standalone="no"?>
<!-- Generator: Adobe Illustrator 23.1.1, SVG Export Plug-In . SVG Version: 6.00 Build 0)  -->

<svg
   version="1.1"
   id="Layer_1"
   x="0px"
   y="0px"
   width="65.5px"
   height="40.2px"
   viewBox="0 0 65.5 40.2"
   enable-background="new 0 0 65.5 40.2"
   xml:space="preserve"
   sodipodi:docname="setglobal.svg"
   inkscape:version="1.2.2 (b0a8486541, 2022-12-01)"
   xmlns:inkscape="http://www.inkscape.org/namespaces/inkscape"
   xmlns:sodipodi="http://sodipodi.sourceforge.net/DTD/sodipodi-0.dtd"
   xmlns="http://www.w3.org/2000/svg"
   xmlns:svg="http://www.w3.org/2000/svg"><defs
   id="defs1086" /><sodipodi:namedview
   id="namedview1084"
   pagecolor="#ffffff"
   bordercolor="#000000"
   borderopacity="0.25"
   inkscape:showpageshadow="2"
   inkscape:pageopacity="0.0"
   inkscape:pagecheckerboard="0"
   inkscape:deskcolor="#d1d1d1"
   showgrid="false"
   inkscape:zoom="20.373134"
   inkscape:cx="29.548718"
   inkscape:cy="20.296337"
   inkscape:window-width="1920"
   inkscape:window-height="1019"
   inkscape:window-x="0"
   inkscape:window-y="37"
   inkscape:window-maximized="1"
   inkscape:current-layer="g1079" />
<g
   transform="matrix(1 0 0 1 0 0)"
   id="g1081">
	<g
   transform="matrix( 1 0 0 1 0 0)"
   id="g1079">
		<path
   fill="none"
   stroke="#BFAF00"
   stroke-width="1.89"
   stroke-miterlimit="10"
   d="M0.9,8.5c0-4.2,3.4-7.6,7.6-7.6h11.3V2    c0,1.4,1.1,2.5,2.5,2.5h11.3c1.4,0,2.5-1.1,2.5-2.5V0.9h11.3c3.3,0,6.1,2.1,7.1,5h4.2c3.1,0,5.7,2.5,5.7,5.7v1.3h-3.1v-1.3    c0-1.4-1.1-2.5-2.5-2.5h-1.3c-1.4,0-2.5,1.1-2.5,2.5v13.2c0,1.4,1.1,2.5,2.5,2.5h1.3c1.4,0,2.5-1.1,2.5-2.5v-1.3h3.1v1.3    c0,3.1-2.5,5.7-5.7,5.7h-4.2c-1,2.9-3.8,5-7.1,5h-12v1.1c0,1.4-1.1,2.5-2.5,2.5H23c-1.4,0-2.5-1.1-2.5-2.5v-1.1h-12    c-4.2,0-7.6-3.4-7.6-7.6L0.9,8.5z"
   id="path1066" />
		
			<linearGradient
   id="SVGID_1_"
   gradientUnits="userSpaceOnUse"
   x1="22.3244"
   y1="566.7933"
   x2="42.1244"
   y2="609.9933"
   gradientTransform="matrix(1 0 0 1 0 -569.366)">
			<stop
   offset="0"
   style="stop-color:#FFFF72"
   id="stop1068" />
			<stop
   offset="1"
   style="stop-color:#FFF600"
   id="stop1070" />
		</linearGradient>
		<path
   fill="url(#SVGID_1_)"
   d="M0.9,8.5c0-4.2,3.4-7.6,7.6-7.6h11.3V2c0,1.4,1.1,2.5,2.5,2.5h11.3c1.4,0,2.5-1.1,2.5-2.5V0.9h11.3    c3.3,0,6.1,2.1,7.1,5h4.2c3.1,0,5.7,2.5,5.7,5.7v1.3h-3.1v-1.3c0-1.4-1.1-2.5-2.5-2.5h-1.3c-1.4,0-2.5,1.1-2.5,2.5v13.2    c0,1.4,1.1,2.5,2.5,2.5h1.3c1.4,0,2.5-1.1,2.5-2.5v-1.3h3.1v1.3c0,3.1-2.5,5.7-5.7,5.7h-4.2c-1,2.9-3.8,5-7.1,5h-12v1.1    c0,1.4-1.1,2.5-2.5,2.5H23c-1.4,0-2.5-1.1-2.5-2.5v-1.1h-12c-4.2,0-7.6-3.4-7.6-7.6L0.9,8.5z"
   id="path1073" />
	<text
   x="2.2395124"
   y="14.010102"
   alignment-baseline="middle"
   text-anchor="middle"
   fill="#8c7a15"
   font-family="Verdana"
   font-size="11.4195px"
   id="text1075"
   transform="scale(0.9760133,1.0245762)"
   style="text-align:start;text-anchor:start;fill:#8c7a15;fill-opacity:1;stroke-width:0.976012"><tspan
     sodipodi:role="line"
     id="tspan2708"
     x="2.2395124"
     y="14.010102">зберегти</tspan><tspan
     sodipodi:role="line"
     id="tspan2710"
     x="2.2395124"
     y="28.284477"> у </tspan></text>
	<text
   x="33.475071"
   y="28.149008"
   alignment-baseline="middle"
   text-anchor="middle"
   fill="#8c7a15"
   font-family="Verdana"
   font-size="11.7px"
   id="text1077">i</text>
	<text
   xml:space="preserve"
   style="fill:#00ffff"
   x="17.036186"
   y="20.042656"
   id="text1145"><tspan
     sodipodi:role="line"
     id="tspan1143" /></text></g>
</g>
</svg>
