<?xml version="1.0" encoding="UTF-8" standalone="no"?>
<!-- Generator: Adobe Illustrator 23.1.1, SVG Export Plug-In . SVG Version: 6.00 Build 0)  -->

<svg
   version="1.1"
   id="Layer_1"
   x="0px"
   y="0px"
   width="65.5px"
   height="40.2px"
   viewBox="0 0 65.5 40.2"
   enable-background="new 0 0 65.5 40.2"
   xml:space="preserve"
   sodipodi:docname="seth.svg"
   inkscape:version="1.2.2 (b0a8486541, 2022-12-01)"
   xmlns:inkscape="http://www.inkscape.org/namespaces/inkscape"
   xmlns:sodipodi="http://sodipodi.sourceforge.net/DTD/sodipodi-0.dtd"
   xmlns="http://www.w3.org/2000/svg"
   xmlns:svg="http://www.w3.org/2000/svg"><defs
   id="defs2882" /><sodipodi:namedview
   id="namedview2880"
   pagecolor="#ffffff"
   bordercolor="#000000"
   borderopacity="0.25"
   inkscape:showpageshadow="2"
   inkscape:pageopacity="0.0"
   inkscape:pagecheckerboard="0"
   inkscape:deskcolor="#d1d1d1"
   showgrid="false"
   inkscape:zoom="20.373134"
   inkscape:cx="43.390477"
   inkscape:cy="20.1"
   inkscape:window-width="1920"
   inkscape:window-height="1019"
   inkscape:window-x="0"
   inkscape:window-y="37"
   inkscape:window-maximized="1"
   inkscape:current-layer="g2875" />
<g
   transform="matrix(1 0 0 1 0 0)"
   id="g2877">
	<g
   transform="matrix( 1 0 0 1 0 0)"
   id="g2875">
		<path
   fill="none"
   stroke="#00A500"
   stroke-width="1.89"
   stroke-miterlimit="10"
   d="M0.9,8.5c0-4.2,3.4-7.6,7.6-7.6h11.3V2    c0,1.4,1.1,2.5,2.5,2.5h11.3c1.4,0,2.5-1.1,2.5-2.5V0.9h11.3c3.3,0,6.1,2.1,7.1,5h4.2c3.1,0,5.7,2.5,5.7,5.7v1.3h-3.1v-1.3    c0-1.4-1.1-2.5-2.5-2.5h-1.3c-1.4,0-2.5,1.1-2.5,2.5v13.2c0,1.4,1.1,2.5,2.5,2.5h1.3c1.4,0,2.5-1.1,2.5-2.5v-1.3h3.1v1.3    c0,3.1-2.5,5.7-5.7,5.7h-4.2c-1,2.9-3.8,5-7.1,5h-12v1.1c0,1.4-1.1,2.5-2.5,2.5H23c-1.4,0-2.5-1.1-2.5-2.5v-1.1h-12    c-4.2,0-7.6-3.4-7.6-7.6L0.9,8.5z"
   id="path2856" />
		
			<linearGradient
   id="SVGID_1_"
   gradientUnits="userSpaceOnUse"
   x1="22.3244"
   y1="566.7933"
   x2="42.1244"
   y2="609.9933"
   gradientTransform="matrix(1 0 0 1 0 -569.366)">
			<stop
   offset="0"
   style="stop-color:#A1FF72"
   id="stop2858" />
			<stop
   offset="1"
   style="stop-color:#00F200"
   id="stop2860" />
		</linearGradient>
		<path
   fill="url(#SVGID_1_)"
   d="M0.9,8.5c0-4.2,3.4-7.6,7.6-7.6h11.3V2c0,1.4,1.1,2.5,2.5,2.5h11.3c1.4,0,2.5-1.1,2.5-2.5V0.9h11.3    c3.3,0,6.1,2.1,7.1,5h4.2c3.1,0,5.7,2.5,5.7,5.7v1.3h-3.1v-1.3c0-1.4-1.1-2.5-2.5-2.5h-1.3c-1.4,0-2.5,1.1-2.5,2.5v13.2    c0,1.4,1.1,2.5,2.5,2.5h1.3c1.4,0,2.5-1.1,2.5-2.5v-1.3h3.1v1.3c0,3.1-2.5,5.7-5.7,5.7h-4.2c-1,2.9-3.8,5-7.1,5h-12v1.1    c0,1.4-1.1,2.5-2.5,2.5H23c-1.4,0-2.5-1.1-2.5-2.5v-1.1h-12c-4.2,0-7.6-3.4-7.6-7.6L0.9,8.5z"
   id="path2863" />
		<text
   transform="matrix(1 0 0 1 19.1071 17.5948)"
   font-family="'ArialMT'"
   font-size="10.8px"
   id="text2865"> </text>
		<text
   fill="#128c12"
   font-family="Verdana"
   font-size="10.3421px"
   id="text2867"
   x="1.5138938"
   y="15.552729"
   transform="scale(0.88393885,1.1313)"
   style="stroke-width:0.883939">встановити</text>
		<text
   transform="matrix(1 0 0 1 36.7829 17.5948)"
   font-family="'ArialMT'"
   font-size="10.8px"
   id="text2869"> </text>
		<text
   fill="#128c12"
   font-family="Verdana"
   font-size="11.7px"
   id="text2871"
   x="6.1072168"
   y="29.224253">напрям</text>
		<text
   transform="matrix(1 0 0 1 51.2419 29.2945)"
   font-family="'ArialMT'"
   font-size="10.8px"
   id="text2873"> </text>
	</g>
</g>
</svg>
