<?xml version="1.0" encoding="UTF-8" standalone="no"?>
<!-- Generator: Adobe Illustrator 23.1.1, SVG Export Plug-In . SVG Version: 6.00 Build 0)  -->

<svg
   version="1.1"
   id="Layer_1"
   x="0px"
   y="0px"
   width="56.1px"
   height="37.8px"
   viewBox="0 0 56.1 37.8"
   enable-background="new 0 0 56.1 37.8"
   xml:space="preserve"
   sodipodi:docname="stop.svg"
   inkscape:version="1.2.2 (b0a8486541, 2022-12-01)"
   xmlns:inkscape="http://www.inkscape.org/namespaces/inkscape"
   xmlns:sodipodi="http://sodipodi.sourceforge.net/DTD/sodipodi-0.dtd"
   xmlns="http://www.w3.org/2000/svg"
   xmlns:svg="http://www.w3.org/2000/svg"><defs
   id="defs700" /><sodipodi:namedview
   id="namedview698"
   pagecolor="#ffffff"
   bordercolor="#000000"
   borderopacity="0.25"
   inkscape:showpageshadow="2"
   inkscape:pageopacity="0.0"
   inkscape:pagecheckerboard="0"
   inkscape:deskcolor="#d1d1d1"
   showgrid="false"
   inkscape:zoom="21.666667"
   inkscape:cx="36.276922"
   inkscape:cy="18.946153"
   inkscape:window-width="1920"
   inkscape:window-height="1019"
   inkscape:window-x="0"
   inkscape:window-y="37"
   inkscape:window-maximized="1"
   inkscape:current-layer="g693" />
<g
   transform="matrix(1 0 0 1 0 0)"
   id="g695">
	<g
   transform="matrix( 1 0 0 1 0 0)"
   id="g693">
		<path
   fill="none"
   stroke="#CC7E02"
   stroke-width="1.89"
   stroke-miterlimit="10"
   d="M0.9,8.5c0-4.2,3.4-7.6,7.6-7.6h11.3V2    c0,1.4,1.1,2.5,2.5,2.5h11.3c1.4,0,2.5-1.1,2.5-2.5V0.9h11.3c4.2,0,7.6,3.4,7.6,7.6v1.3c0,15-12.1,27.1-27.1,27.1    s-27-12.2-27-27.1V8.5z"
   id="path682" />
		
			<linearGradient
   id="SVGID_1_"
   gradientUnits="userSpaceOnUse"
   x1="21.7214"
   y1="570.8038"
   x2="41.5214"
   y2="614.0037"
   gradientTransform="matrix(1 0 0 1 0 -573.1)">
			<stop
   offset="0"
   style="stop-color:#FFDF60"
   id="stop684" />
			<stop
   offset="1"
   style="stop-color:#FFBB00"
   id="stop686" />
		</linearGradient>
		<path
   fill="url(#SVGID_1_)"
   d="M0.9,8.5c0-4.2,3.4-7.6,7.6-7.6h11.3V2c0,1.4,1.1,2.5,2.5,2.5h11.3c1.4,0,2.5-1.1,2.5-2.5V0.9h11.3    c4.2,0,7.6,3.4,7.6,7.6v1.3c0,15-12.1,27.1-27.1,27.1s-27-12.2-27-27.1V8.5z"
   id="path689" />
		<text
   fill="#8b6010"
   font-family="Verdana"
   font-size="11.7px"
   id="text691"
   x="13.3964"
   y="22.0945">стоп</text>
	</g>
</g>
</svg>
