<?xml version="1.0" encoding="UTF-8" standalone="no"?>
<!-- Generator: Adobe Illustrator 23.0.0, SVG Export Plug-In . SVG Version: 6.00 Build 0)  -->

<svg
   version="1.1"
   id="Layer_1"
   x="0px"
   y="0px"
   viewBox="0 0 96.4 96.4"
   style="enable-background:new 0 0 96.4 96.4;"
   xml:space="preserve"
   sodipodi:docname="svg.svg"
   inkscape:version="1.2.2 (b0a8486541, 2022-12-01)"
   xmlns:inkscape="http://www.inkscape.org/namespaces/inkscape"
   xmlns:sodipodi="http://sodipodi.sourceforge.net/DTD/sodipodi-0.dtd"
   xmlns="http://www.w3.org/2000/svg"
   xmlns:svg="http://www.w3.org/2000/svg"
   xmlns:rdf="http://www.w3.org/1999/02/22-rdf-syntax-ns#"
   xmlns:cc="http://creativecommons.org/ns#"
   xmlns:dc="http://purl.org/dc/elements/1.1/"><defs
   id="defs23">
	

	
</defs><sodipodi:namedview
   id="namedview21"
   pagecolor="#ffffff"
   bordercolor="#000000"
   borderopacity="0.25"
   inkscape:showpageshadow="2"
   inkscape:pageopacity="0.0"
   inkscape:pagecheckerboard="0"
   inkscape:deskcolor="#d1d1d1"
   showgrid="false"
   inkscape:zoom="3.0037367"
   inkscape:cx="48.273205"
   inkscape:cy="48.439664"
   inkscape:window-width="2560"
   inkscape:window-height="1019"
   inkscape:window-x="0"
   inkscape:window-y="37"
   inkscape:window-maximized="1"
   inkscape:current-layer="Layer_1" />
<style
   type="text/css"
   id="style2">
	.st0{fill-rule:evenodd;clip-rule:evenodd;fill:#BFBFBF;}
	.st1{fill-rule:evenodd;clip-rule:evenodd;fill:#FFFFFF;}
</style>
<title
   id="title4">tool-8 copy 4</title>
<path
   class="st0"
   d="m 85.2,84.3 c 0,2.1 -1.7,3.8 -3.8,3.8 H 11 C 8.9,88.1 7.2,86.4 7.2,84.3 V 13.9 c 0,-2.1 1.7,-3.8 3.8,-3.8 h 70.4 c 2.1,0 3.8,1.7 3.8,3.8 z M 81.4,4.1 H 11 c -5.4,0 -9.8,4.4 -9.8,9.8 v 70.4 c 0,5.4 4.4,9.8 9.8,9.8 h 70.4 c 5.4,0 9.8,-4.4 9.8,-9.8 V 13.9 c 0,-5.4 -4.4,-9.8 -9.8,-9.8 z"
   id="path6"
   sodipodi:nodetypes="ssssssssssssssssss" />
<desc
   id="desc10">Created with Sketch.</desc>
<path
   class="st1"
   d="m 88.2,83.6 c 0,2.1 -1.7,3.8 -3.8,3.8 H 14 c -2.1,0 -3.8,-1.7 -3.8,-3.8 V 13.3 c 0,-2.1 1.7,-3.8 3.8,-3.8 h 70.4 c 2.1,0 3.8,1.7 3.8,3.8 z M 84.4,3.5 H 14 c -5.4,0 -9.8,4.4 -9.8,9.8 v 70.4 c 0,5.4 4.4,9.8 9.8,9.8 h 70.4 c 5.4,0 9.8,-4.4 9.8,-9.8 V 13.3 c 0,-5.5 -4.4,-9.8 -9.8,-9.8 z"
   id="path12"
   sodipodi:nodetypes="ssssssssssssssssss" />


<g
   id="g264"
   transform="matrix(0.26573588,0,0,0.28272231,-1.6839902,-18.599026)"
   style="fill:#ffffff">
	<path
   style="fill:#ffffff"
   d="M 114.759,158.897 H 88.276 c -4.866,0 -8.828,-3.957 -8.828,-8.828 0,-4.871 3.961,-8.828 8.828,-8.828 h 35.31 c 4.875,0 8.828,-3.948 8.828,-8.828 0,-4.879 -3.953,-8.828 -8.828,-8.828 h -35.31 c -14.603,0 -26.483,11.88 -26.483,26.483 0,14.603 11.88,26.483 26.483,26.483 h 26.483 c 4.866,0 8.828,3.957 8.828,8.828 0,4.871 -3.961,8.828 -8.828,8.828 H 70.621 c -4.875,0 -8.828,3.948 -8.828,8.828 0,4.88 3.953,8.828 8.828,8.828 h 44.138 c 14.603,0 26.483,-11.88 26.483,-26.483 0,-14.603 -11.88,-26.483 -26.483,-26.483 z"
   id="path258" />
	<path
   style="fill:#ffffff"
   d="m 308.966,158.897 h -26.483 c -4.875,0 -8.828,3.948 -8.828,8.828 0,4.88 3.953,8.828 8.828,8.828 h 17.655 c 0,9.732 -7.918,17.655 -17.655,17.655 h -8.828 c -9.737,0 -17.655,-7.923 -17.655,-17.655 v -17.655 c 0,-9.732 7.918,-17.655 17.655,-17.655 h 8.828 c 5.017,0 9.815,2.146 13.155,5.888 3.258,3.629 8.832,3.948 12.466,0.69 3.634,-3.25 3.948,-8.828 0.698,-12.466 -6.69,-7.474 -16.285,-11.767 -26.319,-11.767 h -8.828 c -19.47,0 -35.31,15.837 -35.31,35.31 v 17.655 c 0,19.474 15.84,35.31 35.31,35.31 h 8.828 c 19.47,0 35.31,-15.837 35.31,-35.31 v -8.828 c 0,-4.88 -3.952,-8.828 -8.827,-8.828 z"
   id="path260" />
	<path
   style="fill:#ffffff"
   d="m 222.831,123.853 c -4.707,-1.19 -9.522,1.681 -10.707,6.422 L 197.68,188.05 c -0.905,3.62 -4.151,6.155 -7.887,6.155 -3.736,0 -6.983,-2.535 -7.887,-6.155 l -14.444,-57.775 c -1.185,-4.742 -5.983,-7.612 -10.707,-6.422 -4.728,1.181 -7.604,5.974 -6.422,10.698 l 14.444,57.775 c 2.874,11.501 13.163,19.535 25.016,19.535 11.853,0 22.142,-8.034 25.017,-19.534 l 14.444,-57.775 c 1.181,-4.725 -1.693,-9.517 -6.423,-10.699 z"
   id="path262" />
</g><g
   id="g4130"
   transform="matrix(0.28012099,0,0,0.25046659,-36.818846,-27.861718)"
   style="fill:#ffffff">
	
	<path
   style="fill:#ffffff"
   d="m 406.069,335.448 c 0,-14.603 -11.88,-26.483 -26.483,-26.483 -11.509,0 -21.321,7.38 -24.964,17.655 h -28.001 v -8.828 c 0,-4.879 -3.953,-8.828 -8.828,-8.828 h -35.31 c -4.875,0 -8.828,3.948 -8.828,8.828 v 8.828 h -28.001 c -3.644,-10.275 -13.455,-17.655 -24.964,-17.655 -14.603,0 -26.483,11.88 -26.483,26.483 0,14.603 11.88,26.483 26.483,26.483 3.77,0 7.357,-0.798 10.606,-2.223 -6.788,8.447 -12.052,18.157 -15.374,28.706 h -12.887 c -4.875,0 -8.828,3.948 -8.828,8.828 v 35.31 c 0,4.879 3.953,8.828 8.828,8.828 h 35.31 c 4.875,0 8.828,-3.948 8.828,-8.828 v -35.31 c 0,-4.879 -3.953,-8.828 -8.828,-8.828 h -3.676 c 7.172,-17.662 21.329,-31.819 38.986,-38.989 v 3.679 c 0,4.879 3.953,8.828 8.828,8.828 h 35.31 c 4.875,0 8.828,-3.948 8.828,-8.828 v -3.678 c 17.657,7.171 31.812,21.327 38.983,38.988 h -3.677 c -4.875,0 -8.828,3.948 -8.828,8.828 v 35.31 c 0,4.879 3.953,8.828 8.828,8.828 h 35.31 c 4.875,0 8.828,-3.948 8.828,-8.828 v -35.31 c 0,-4.879 -3.953,-8.828 -8.828,-8.828 h -12.886 c -3.321,-10.549 -8.585,-20.26 -15.373,-28.707 3.25,1.427 6.837,2.225 10.607,2.225 14.604,-0.001 26.484,-11.881 26.484,-26.484 z m -176.552,88.276 h -17.655 v -17.655 h 17.655 z m 158.892,0 h -17.655 v -17.655 h 17.655 z m -33.083,-77.672 c -0.751,-0.604 -1.511,-1.197 -2.282,-1.777 h 1.577 c 0.215,0.603 0.45,1.196 0.705,1.777 z m -109.672,-1.776 h 1.576 c -0.77,0.579 -1.529,1.172 -2.28,1.775 0.256,-0.581 0.49,-1.173 0.704,-1.775 z m -24.964,0 c -4.866,0 -8.828,-3.957 -8.828,-8.828 0,-4.871 3.961,-8.828 8.828,-8.828 4.867,0 8.828,3.957 8.828,8.828 -0.001,4.871 -3.962,8.828 -8.828,8.828 z m 88.276,0 H 291.31 v -17.655 h 17.655 v 17.655 z m 61.793,-8.828 c 0,-4.871 3.961,-8.828 8.828,-8.828 4.867,0 8.828,3.957 8.828,8.828 0,4.871 -3.961,8.828 -8.828,8.828 -4.867,0 -8.828,-3.957 -8.828,-8.828 z"
   id="path4128" />
</g><metadata
   id="metadata4264"><rdf:RDF><cc:Work
       rdf:about=""><dc:title>tool-8 copy 4</dc:title></cc:Work></rdf:RDF></metadata></svg>
