<?xml version="1.0" encoding="UTF-8" standalone="no"?>
<!-- Generator: Adobe Illustrator 23.1.1, SVG Export Plug-In . SVG Version: 6.00 Build 0)  -->

<svg
   version="1.1"
   id="Layer_1"
   x="0px"
   y="0px"
   width="40px"
   height="42px"
   viewBox="0 0 40 42"
   style="enable-background:new 0 0 40 42;"
   xml:space="preserve"
   sodipodi:docname="OpenGreen.svg"
   inkscape:version="1.2.2 (b0a8486541, 2022-12-01)"
   xmlns:inkscape="http://www.inkscape.org/namespaces/inkscape"
   xmlns:sodipodi="http://sodipodi.sourceforge.net/DTD/sodipodi-0.dtd"
   xmlns="http://www.w3.org/2000/svg"
   xmlns:svg="http://www.w3.org/2000/svg"><defs
   id="defs278" /><sodipodi:namedview
   id="namedview276"
   pagecolor="#ffffff"
   bordercolor="#000000"
   borderopacity="0.25"
   inkscape:showpageshadow="2"
   inkscape:pageopacity="0.0"
   inkscape:pagecheckerboard="0"
   inkscape:deskcolor="#d1d1d1"
   showgrid="false"
   inkscape:zoom="19.5"
   inkscape:cx="20"
   inkscape:cy="21.051282"
   inkscape:window-width="1920"
   inkscape:window-height="1019"
   inkscape:window-x="0"
   inkscape:window-y="37"
   inkscape:window-maximized="1"
   inkscape:current-layer="Layer_1" />
<style
   type="text/css"
   id="style265">
	.st0{fill:#49AD49;}
	.st1{fill:#66F766;}
	.st2{opacity:0.5;fill:#4DB94D;enable-background:new    ;}
</style>
<g
   id="g273">
	<path
   class="st0"
   d="M4.7,2.1c-2.5,0-4.5,2-4.5,4.5v30.6c0,2.5,2,4.5,4.5,4.5h35.1V2.1H4.7z"
   id="path267" />
	<path
   class="st1"
   d="M4.7,0.3c-2.5,0-4.5,2-4.5,4.5v30.6c0,2.5,2,4.5,4.5,4.5h35.1V0.3H4.7z"
   id="path269" />
	<rect
   x="38.9"
   y="0.3"
   class="st2"
   width="0.9"
   height="39.6"
   id="rect271" />
</g>
<g
   id="g18"
   transform="matrix(0.41793689,0,0,0.40674397,-10.189787,-0.35835609)">
	<path
   fill="#8ac24d"
   d="m 65,16.4 v 0 c 3.5,1.9 5.8,5.6 5.8,10.2 0,2.1 -0.2,2.4 -1.4,4.8 0,0 -0.7,1.5 -1.7,2 v 0 0 c 0,0 -1.3,1.5 0.9,2.9 1.7,1.1 -5.3,3.4 -8.3,3.7 -3,-0.3 -10.3,-2.7 -8.6,-3.7 2.2,-1.4 0.6,-2.9 0.6,-2.9 v 0 C 51.3,33 50.5,30.7 50.5,30.7 50,29.2 49.4,28.1 49.4,26 c 0,-4.6 2.4,-7.9 5.9,-9.7 v 0 c 0,-0.6 3.1,-2 5,-2 1.8,0 4.6,1.6 4.7,2.1 z M 47.6,43.9 c 0,0 -3.2,-5.7 -7,-4.7 -3.9,1.1 -4.3,3.7 -4.3,6 0,3.2 3.3,5 3.3,5 2,-3.5 8,-6.3 8,-6.3 z m 32.8,6.3 c 0,0 3.3,-1.9 3.3,-5 0,-2.2 -0.4,-4.9 -4.3,-6 -3.8,-1 -7,4.7 -7,4.7 0,0 6,2.8 8,6.3 z M 39.7,67.5 c 0,0 -4.7,3.8 -4.3,6.3 0.6,3.6 4.3,3.3 6.5,3.3 4.5,-0.1 3.1,-2.3 3.1,-2.3 0,0 -3,-3.9 -5.3,-7.3 z m 35.4,7.2 c 0,0 -1.4,2.2 3.1,2.3 2.2,0 5.9,0.3 6.5,-3.3 0.4,-2.5 -4.3,-6.3 -4.3,-6.3 -2.4,3.5 -5.3,7.3 -5.3,7.3 z M 54.9,83 c 0,0 3.6,6.6 11.1,7.6 0.6,0.1 1.2,-0.9 0.9,-1.3 C 64.4,85.5 64.6,83 64.6,83 l -4.5,-1.7 z"
   id="path2" />
	<path
   fill="#a3d165"
   d="m 52.9,32.5 c -0.9,-0.2 -1.2,-0.8 -1.6,-1.6 -1.7,-4 -1.7,-5.4 -1.5,-5.9 2,-2.5 3.6,-0.4 6,-3.8 1.8,-2.4 -0.3,-3.7 0,-3.9 0.5,-0.3 -0.2,-1 0,-1.1 1.6,-1.1 4.1,-1.5 4.1,-1.5 0,0 2.5,0.3 4.1,1.5 0.2,0.1 -0.5,0.8 0,1.1 0.3,0.2 -1.7,1.4 0,3.9 2.5,3.4 4,1.3 6,3.8 0.3,0.5 0.2,2 -1.5,5.9 -0.4,0.8 -0.7,1.4 -1.6,1.6 -2.3,0 -4.1,1.5 -7.1,1.5 -2.7,0 -4.5,-1.5 -6.9,-1.5 z m 7.2,6.4 c 3,0.1 8.7,-1.1 7.2,-2.4 -1.9,-1.6 0,-3 -0.3,-3 -2.3,0 -2.9,1.6 -6.9,1.6 -4,0 -4.5,-1.6 -6.9,-1.6 -0.3,-0.1 1.6,1.4 -0.3,3 -1.5,1.4 4.2,2.6 7.2,2.4 z M 44.9,46.1 C 46,44.9 47,44.3 47,44.3 c 0,0 -3.8,-5.5 -6.4,-4.3 -0.8,0.4 -1.2,0.7 -1.8,1.1 z M 81.1,41.2 C 80.7,40.8 80.2,40.5 79.4,40.1 77,38.8 73,44.2 73,44.2 c 0,0 1,0.6 2.1,1.8 z M 40.3,69.5 c -1,-1 0,0.5 -0.8,-0.8 0,0 -4.4,3.3 -3.1,5.2 0.1,0.2 0.5,0.7 1,0.1 z m 42.4,4.6 c 0.5,0.6 0.9,0 1,-0.1 1.3,-1.9 -3.1,-5.2 -3.1,-5.2 -0.9,1.3 0.2,-0.3 -0.8,0.8 z m -23.8,12 c 1.4,1.6 5.4,3.8 6,3.5 0.4,-0.2 -2.7,-1.6 -4.3,-3.3 -1.9,-1.9 -2.2,-4.2 -2.2,-4.2 l -1.8,0.4 c 0,0 1.1,2.3 2.3,3.6 z"
   id="path4" />
	<g
   id="shell_1_">
		<path
   fill="#528918"
   d="m 60.3,82.7 c 1,0 3.1,1.1 4.9,0.7 3.9,-0.9 7.3,-2.9 10.2,-5.5 1.4,-1.3 0,-3.1 1.7,-5.2 2.4,-3 4,-2.4 4.7,-4.2 1.2,-3.1 1.9,-6.4 1.9,-9.9 C 83.7,55.2 83,51.9 81.8,49 81.1,47.3 78.3,46.6 77.3,45.2 76.2,43.6 77,41.2 75.6,39.8 75.4,39.6 75.4,39.6 75.4,39.6 75.2,39.4 75,39.1 74.8,39 c -0.2,-0.1 -1.5,-1.5 -2.3,-2 -4.3,-3 -9.2,1.1 -12.2,1.1 -4,0 -8.4,-4 -12.6,-1.1 -0.8,0.6 -2.5,1.9 -2.7,2 -0.2,0.1 -0.4,0.4 -0.6,0.6 0,0 0,0 -0.2,0.2 -1.4,1.4 -0.7,3.8 -1.8,5.4 -1,1.5 -3.8,2.2 -4.5,3.8 -1.2,3 -1.9,6.2 -1.9,9.6 0,3.5 0.7,6.9 1.9,9.9 0.7,1.8 2.4,1.2 4.8,4.2 1.7,2.1 0.4,3.9 1.8,5.2 2.9,2.6 6.6,4.6 10.5,5.5 1.8,0.4 3.3,-0.7 5.3,-0.7 z"
   id="path6" />
		<path
   fill="#63a51e"
   d="m 60.3,70.5 h -4 c -1.1,0 -2.4,-0.8 -2.9,-1.7 l -4.2,-7.6 c -0.5,-0.9 -0.5,-2.3 0,-3.2 l 4.2,-7.7 c 0.5,-0.9 1.8,-1.8 2.9,-1.8 h 4 3.1 c 1.1,0 2.4,0.9 2.9,1.8 l 4.2,7.6 c 0.5,0.9 0.5,2.4 0,3.3 l -4.2,7.7 c -0.5,0.9 -1.8,1.7 -2.9,1.7 l -3.1,-0.1 m 0,-25 h 3.1 c 1.1,0 2.6,-0.3 3.3,-1.1 l 3.6,-3.8 c 0.7,-0.8 1.1,-1.6 0.8,-1.7 0,0 0.1,0 -0.1,-0.2 -3.3,-2.1 -5.7,1.6 -10.7,1.6 -6,0 -7.8,-3.7 -11.1,-1.6 -0.2,0.2 -0.4,0.1 -0.4,0.1 -0.3,0.2 0.1,0.9 0.8,1.7 l 3.5,4 c 0.7,0.8 2.1,1.1 3.2,1.1 z M 65,81 c 1.9,-0.5 3.4,-1.4 3.4,-1.4 1,-0.5 1.2,-1.5 0.6,-2.4 l -2.6,-3.4 c -0.6,-0.8 -2,-1.4 -3.1,-1.4 h -3 -3.9 c -1.1,0 -2.5,0.5 -3.1,1.4 l -2.6,3.3 c -0.6,0.8 -0.3,1.9 0.7,2.4 0,0 1.8,0.9 3.8,1.4 1.7,0.5 3.2,-0.2 5.2,-0.2 0.9,0.2 2.9,0.8 4.6,0.3 z m 4.2,-34.9 c -0.7,0.8 -0.8,2.2 -0.4,3.1 l 3.9,7.6 c 0.5,0.9 1.8,1.7 2.9,1.7 h 3.6 c 1.1,0 1.9,-0.9 1.8,-1.9 0,0 -0.5,-4.5 -1.6,-7.2 -0.6,-1.4 -3.3,-1.9 -4.1,-3.1 -0.9,-1.4 0,-3.7 -1.2,-4.8 C 74,41.3 74,41.3 74,41.3 73.8,41.1 73.1,41.6 72.4,42.4 Z M 47.3,42.3 c -0.7,-0.8 -1.4,-1.3 -1.6,-1.1 0,0 0,0 -0.2,0.2 -1.2,1.2 -0.3,3.4 -1.2,4.9 -0.8,1.3 -3.5,1.7 -4.1,3.1 -1.1,2.7 -1.6,7.2 -1.6,7.2 -0.1,1 0.7,1.9 1.8,1.9 H 44 c 1.1,0 2.4,-0.8 2.9,-1.7 l 3.9,-7.6 c 0.5,-0.9 0.3,-2.3 -0.4,-3.1 z M 47,62.8 c -0.5,-0.9 -1.8,-1.3 -2.9,-1.3 h -3.5 c -1.1,0 -1.9,0.5 -1.7,1.5 0,0 0.5,2.8 1.5,5 0.6,1.5 2.5,1.3 4,3.2 1.3,1.6 0.4,3.7 1.6,4.9 0.4,0.4 0.4,0.4 0.4,0.4 0.4,0.4 1.3,0 1.9,-0.8 l 2.3,-3.1 c 0.6,-0.8 0.7,-2.2 0.2,-3.1 z m 21.8,6.7 c -0.5,0.9 -0.4,2.1 0.2,3 l 2.3,3.1 c 0.6,0.8 1.5,1.2 1.9,0.8 0,0 0,0 0.4,-0.3 1.3,-1.2 0.4,-3.2 1.6,-4.8 1.4,-1.8 3.4,-1.6 4,-3.1 0.9,-2.2 1.5,-5.1 1.5,-5.1 0.2,-1 -0.6,-1.5 -1.7,-1.5 h -3.5 c -1.1,0 -2.4,0.5 -2.9,1.3 z"
   id="path8" />
		<path
   opacity="0.15"
   fill="#ffffff"
   enable-background="new    "
   d="m 56.3,70.5 c -0.6,0 -1.4,-0.3 -1.9,-0.7 -0.1,-0.1 -0.1,-0.2 -0.2,-0.2 L 50,61.9 C 49.5,61 49.5,59.6 50,58.7 L 54.2,51 c 0.5,-0.9 1.8,-1.8 2.9,-1.8 h 4 3.1 c 0.6,0 1.3,0.3 1.9,0.7 0.1,0.1 0.2,0.2 0.2,0.3 l 4.2,7.6 c 0.5,0.9 0.5,2.4 0,3.3 l -4.2,7.7 c -0.5,0.9 -1.8,1.7 -2.9,1.7 h -3.1 v 0 c 0,0 -4,0 -4,0 z m 4,-25 h 3.1 c 1.1,0 2.6,-0.3 3.3,-1.1 l 3.6,-3.8 c 0.5,-0.6 0.8,-1.2 0.9,-1.5 -3,-1.4 -5.4,1.9 -10,1.9 -6,0 -7.8,-3.7 -11.1,-1.6 -0.2,0.2 -0.4,0.1 -0.4,0.1 -0.3,0.2 0.1,0.9 0.8,1.7 l 3.2,3.6 c 0.8,0.5 1.9,0.7 2.7,0.7 0,0 3.9,0 3.9,0 z m 0,35.4 c 1,0 3,0.7 4.7,0.2 1.9,-0.5 3.4,-1.4 3.4,-1.4 1,-0.5 1.2,-1.5 0.6,-2.4 L 66.6,74 C 65.9,73.5 65,73.3 64.2,73.3 h -3 -3.9 c -1.1,0 -2.5,0.5 -3.1,1.4 L 51.6,78 c -0.4,0.5 -0.4,1.1 -0.1,1.7 0.1,0 1.9,0.9 3.7,1.4 1.7,0.4 3.1,-0.2 5.1,-0.2 z M 79.4,49.4 c 0,-0.1 -0.1,-0.2 -0.2,-0.3 -1,-0.7 -2.5,-1.2 -3.1,-2.1 v 0 c -0.3,-0.2 -0.6,-0.4 -0.8,-0.7 -0.8,-1.2 -0.2,-3.1 -0.8,-4.3 -0.3,0.1 -0.9,0.5 -1.4,1.1 L 70,46.9 c -0.7,0.8 -0.8,2.2 -0.4,3.1 l 3.9,7.6 c 0.1,0.1 0.1,0.2 0.2,0.3 0.6,0.4 1.2,0.7 1.9,0.7 h 3.6 c 1.1,0 1.9,-0.9 1.8,-1.9 0,-0.1 -0.5,-4.6 -1.6,-7.3 z M 50.5,46.1 47.3,42.4 c 0,0 0,-0.1 -0.1,-0.1 -0.3,-0.3 -0.6,-0.4 -0.7,-0.3 0,0 0,0 -0.2,0.2 -1.2,1.2 -0.3,3.4 -1.2,4.9 -0.8,1.3 -3.5,1.7 -4.1,3.1 -1.1,2.7 -1.6,7.2 -1.6,7.2 0,0.3 0,0.7 0.2,1 0.2,0.1 0.5,0.2 0.8,0.2 H 44 c 1.1,0 2.4,-0.8 2.9,-1.7 l 3.9,-7.6 c 0.6,-1.1 0.4,-2.4 -0.3,-3.2 z M 47,62.8 v 0 c -0.6,-0.4 -1.4,-0.6 -2.1,-0.6 h -3.5 c -1.1,0 -1.9,0.5 -1.7,1.5 0,0 0.5,2.8 1.5,5 0,0.1 0.1,0.2 0.2,0.3 0.8,0.5 1.9,0.9 2.9,2 0.3,0.2 0.6,0.5 0.9,0.9 1.2,1.5 0.5,3.4 1.4,4.6 0.5,0.2 1.2,-0.2 1.7,-0.9 l 2.3,-3.1 c 0.6,-0.8 0.7,-2.2 0.2,-3.1 z m 33.7,-0.4 c -0.3,-0.1 -0.5,-0.1 -0.9,-0.1 h -3.5 c -1.1,0 -2.4,0.5 -2.9,1.3 l -3.9,6.6 c -0.5,0.9 -0.4,2.1 0.2,3 l 2.3,3.1 c 0.4,0.3 0.9,0.3 1.1,0.1 0,0 0,0 0.4,-0.3 1.3,-1.2 0.4,-3.2 1.6,-4.8 1.4,-1.8 3.4,-1.6 4,-3.1 0.9,-2.2 1.5,-5.1 1.5,-5.1 0.2,-0.3 0.2,-0.5 0.1,-0.7 z"
   id="path10" />
	</g>
	<g
   id="eyes_1_">
		<path
   fill="#ffffff"
   d="m 64.7,17.2 c 0,0 -1,1.9 0.6,3.7 1.6,1.8 3.5,0.7 3.5,0.7 0,0 -1.4,-2.9 -4.1,-4.4 z m -9.2,0 c 0,0 1,1.9 -0.6,3.7 -1.6,1.8 -3.5,0.7 -3.5,0.7 0,0 1.4,-2.9 4.1,-4.4 z"
   id="path13" />
		<path
   fill="#406813"
   d="m 54.7,20.2 c 0.6,-0.7 0.4,-1.8 0.1,-2.6 -1.1,0.7 -1.9,1.7 -2.5,2.5 0.7,0.4 1.7,0.9 2.4,0.1 z m 10.8,0 c -0.6,-0.7 -0.4,-1.8 -0.1,-2.6 1.1,0.7 1.9,1.7 2.5,2.5 -0.7,0.4 -1.7,0.9 -2.4,0.1 z"
   id="path15" />
	</g>
</g></svg>
