<?xml version="1.0" encoding="UTF-8" standalone="no"?>
<!-- Generator: Adobe Illustrator 23.1.1, SVG Export Plug-In . SVG Version: 6.00 Build 0)  -->

<svg
   version="1.1"
   id="Layer_1"
   x="0px"
   y="0px"
   width="40px"
   height="42px"
   viewBox="0 0 40 42"
   style="enable-background:new 0 0 40 42;"
   xml:space="preserve"
   sodipodi:docname="OpenCyan.svg"
   inkscape:version="1.2.2 (b0a8486541, 2022-12-01)"
   xmlns:inkscape="http://www.inkscape.org/namespaces/inkscape"
   xmlns:sodipodi="http://sodipodi.sourceforge.net/DTD/sodipodi-0.dtd"
   xmlns="http://www.w3.org/2000/svg"
   xmlns:svg="http://www.w3.org/2000/svg"><defs
   id="defs1064" /><sodipodi:namedview
   id="namedview1062"
   pagecolor="#ffffff"
   bordercolor="#000000"
   borderopacity="0.25"
   inkscape:showpageshadow="2"
   inkscape:pageopacity="0.0"
   inkscape:pagecheckerboard="0"
   inkscape:deskcolor="#d1d1d1"
   showgrid="false"
   inkscape:zoom="19.5"
   inkscape:cx="20"
   inkscape:cy="21.051282"
   inkscape:window-width="1920"
   inkscape:window-height="1019"
   inkscape:window-x="0"
   inkscape:window-y="37"
   inkscape:window-maximized="1"
   inkscape:current-layer="Layer_1" />
<style
   type="text/css"
   id="style1051">
	.st0{fill:#6ABCC4;}
	.st1{fill:#86EFFF;}
	.st2{opacity:0.1;fill:#223C40;enable-background:new    ;}
</style>
<g
   id="g1059">
	<path
   class="st0"
   d="M4.7,2.1c-2.5,0-4.5,2-4.5,4.5v30.6c0,2.5,2,4.5,4.5,4.5h35.1V2.1H4.7z"
   id="path1053" />
	<path
   class="st1"
   d="M4.7,0.3c-2.5,0-4.5,2-4.5,4.5v30.6c0,2.5,2,4.5,4.5,4.5h35.1V0.3H4.7z"
   id="path1055" />
	<rect
   x="38.9"
   y="0.3"
   class="st2"
   width="0.9"
   height="39.6"
   id="rect1057" />
</g>
<path
   class="st0"
   d="m 4.7345201,2.1334695 c -2.5,0 -4.50000001,2 -4.50000001,4.5 V 37.23347 c 0,2.5 2.00000001,4.5 4.50000001,4.5 H 26.434519 V 2.1334695 Z"
   id="path931"
   style="fill:#6abcc4" /><path
   class="st1"
   d="m 4.7345201,0.33346951 c -2.5,0 -4.50000001,1.99999999 -4.50000001,4.49999999 V 35.43347 c 0,2.5 2.00000001,4.5 4.50000001,4.5 H 26.434519 V 0.33346951 Z"
   id="path933"
   style="fill:#86efff" /><g
   id="g1028"
   transform="matrix(1,0,0,0.95745822,-13.56548,1.3828375)"><path
     d="m 35.890859,12.89159 c 0,0 -10.891749,0.944196 -11.586958,5.800284 -0.695216,4.856081 4.804735,5.508978 4.495749,7.667234 -0.30898,2.158263 -10.783603,3.19419 -12.529372,3.366845 l 0.185396,1.710422 c 0,0 12.977404,-0.48556 13.59537,-4.802082 0.617965,-4.316519 -5.036473,-3.890287 -4.495755,-7.667239 0.540721,-3.776952 10.52096,-4.365043 10.52096,-4.365043 z"
     stroke-linejoin="round"
     stroke-width="1.44545"
     id="path689"
     style="fill:#ff0000" /><rect
     x="-14.807576"
     y="-35.352573"
     transform="matrix(-0.71076595,0.70342858,-0.71076595,-0.70342858,0,0)"
     style="fill:#ffffff;stroke-width:0.0455615"
     width="1.2407304"
     height="4.2185383"
     id="rect528" /><path
     style="fill:#f2484b;stroke-width:0.0455607"
     d="M 37.680762,10.873414 36.269731,9.4769552 c -0.210855,-0.208632 -0.492736,-0.323578 -0.79372,-0.323578 -0.301027,0 -0.582866,0.114947 -0.79372,0.323578 l -1.499235,1.4837568 2.998471,2.967558 1.499235,-1.483756 c 0.437637,-0.433173 0.437637,-1.137971 0,-1.5711 z"
     id="path530" /><polygon
     style="fill:#f2ebd9"
     points="124.672,447.013 64.976,387.318 40.264,447.334 64.656,471.726 "
     id="polygon532"
     transform="matrix(0.0457977,0,0,0.04532493,15.308536,8.4123602)" /><path
     style="fill:#ff9d49;stroke-width:0.0455607"
     d="m 33.006689,14.626408 -1.851966,1.832851 c -0.07304,0.07229 -0.16881,0.10846 -0.264572,0.10846 -0.09572,0 -0.191524,-0.0361 -0.264571,-0.10846 l -0.52915,0.523683 c 0.146139,0.144636 0.146139,0.379097 0,0.52364 l -9.651452,9.55191 1.234658,1.221914 12.561716,-12.432081 z"
     id="path534" /><path
     style="fill:#ffcc75;stroke-width:0.0455607"
     d="m 30.62558,15.935618 1.851967,-1.832849 -1.234664,-1.221915 -12.561761,12.432082 1.234664,1.221917 9.651452,-9.551819 c 0.14614,-0.144635 0.383049,-0.144635 0.529099,0 l 0.529149,-0.523682 c -0.146001,-0.144636 -0.146001,-0.379097 9.4e-5,-0.523734 z"
     id="path536" /><polygon
     style="fill:#185f8d"
     points="48.288,478.465 33.525,463.701 23.19,488.799 "
     id="polygon538"
     transform="matrix(0.0457977,0,0,0.04532493,15.308536,8.4123602)" /><path
     style="fill:#082947;stroke-width:0.0455607"
     d="M 38.208997,10.450366 36.797973,9.0539082 c -0.352188,-0.348549 -0.821981,-0.540501 -1.322869,-0.540501 -0.500889,0 -0.97068,0.191952 -1.322869,0.540501 L 17.886589,25.151687 c -0.0089,0.0088 -0.01715,0.01785 -0.02507,0.02744 -0.0064,0.0078 -0.01226,0.01587 -0.01794,0.02396 -0.0013,0.0019 -0.0024,0.0038 -0.0037,0.005 -0.01455,0.02147 -0.02649,0.04412 -0.0359,0.06753 l -2.467947,5.931718 c -0.05751,0.1382 -0.02537,0.297107 0.08142,0.402848 0.07158,0.07084 0.167256,0.108462 0.264663,0.108462 0.04797,0 0.09631,-0.0092 0.142388,-0.02789 l 5.993635,-2.442469 c 0.01244,-0.005 0.0247,-0.01058 0.0367,-0.01693 0.01114,-0.0061 0.02142,-0.01201 0.03144,-0.01862 0.0024,-0.0011 0.0042,-0.0031 0.0063,-0.0044 0.0079,-0.0055 0.01565,-0.0109 0.02315,-0.01699 0.0096,-0.0078 0.01894,-0.01605 0.02773,-0.02477 L 38.209262,13.068803 c 0.729425,-0.721941 0.729425,-1.896534 0,-2.61838 z m -19.94027,19.443533 -1.117097,-1.105564 1.131753,-2.720222 2.733892,2.705671 z m 2.175344,-2.734814 9.651452,-9.551816 c 0.146139,-0.144637 0.146139,-0.379098 0,-0.523642 -0.146143,-0.144635 -0.383052,-0.144635 -0.529098,0 l -9.651503,9.551819 -1.234657,-1.221917 12.561711,-12.432082 1.234664,1.221915 -1.851967,1.832849 c -0.146144,0.144637 -0.146144,0.379098 0,0.523641 0.07304,0.07229 0.168809,0.10846 0.264571,0.10846 0.09572,0 0.191524,-0.0361 0.264572,-0.10846 l 1.851966,-1.832851 1.234663,1.221917 -12.561716,12.432081 z m 11.327005,-14.701272 0.88193,-0.872826 2.998464,2.967517 -0.881925,0.872818 z m -14.928079,17.072355 0.676109,0.669135 -1.14943,0.468382 z M 36.18062,14.028821 33.182149,11.061305 34.681384,9.5775482 c 0.21081,-0.208632 0.492693,-0.323578 0.79372,-0.323578 0.300984,0 0.582865,0.114947 0.79372,0.323578 l 1.411031,1.3964588 c 0.437594,0.433129 0.437594,1.137884 0,1.571057 z"
     id="path540" /><path
     style="fill:#ff0000;stroke-width:0.0284826"
     d="m 16.618239,30.010713 c 0.117988,-0.28441 0.219933,-0.522923 0.22655,-0.530024 0.0067,-0.007 0.154419,0.128023 0.328458,0.300262 l 0.316438,0.313172 -0.530745,0.216854 c -0.291903,0.119265 -0.536248,0.216847 -0.542982,0.216847 -0.0068,0 0.0843,-0.2327 0.202281,-0.517111 z"
     id="path719" /></g></svg>
