<?xml version="1.0" encoding="UTF-8" standalone="no"?>
<!-- Generator: Adobe Illustrator 23.1.1, SVG Export Plug-In . SVG Version: 6.00 Build 0)  -->

<svg
   version="1.1"
   id="Layer_1"
   x="0px"
   y="0px"
   width="40px"
   height="42px"
   viewBox="0 0 40 42"
   style="enable-background:new 0 0 40 42;"
   xml:space="preserve"
   sodipodi:docname="OpenPink.svg"
   inkscape:version="1.2.2 (b0a8486541, 2022-12-01)"
   xmlns:inkscape="http://www.inkscape.org/namespaces/inkscape"
   xmlns:sodipodi="http://sodipodi.sourceforge.net/DTD/sodipodi-0.dtd"
   xmlns="http://www.w3.org/2000/svg"
   xmlns:svg="http://www.w3.org/2000/svg"><defs
   id="defs1682" /><sodipodi:namedview
   id="namedview1680"
   pagecolor="#ffffff"
   bordercolor="#000000"
   borderopacity="0.25"
   inkscape:showpageshadow="2"
   inkscape:pageopacity="0.0"
   inkscape:pagecheckerboard="0"
   inkscape:deskcolor="#d1d1d1"
   showgrid="false"
   inkscape:zoom="19.5"
   inkscape:cx="20"
   inkscape:cy="21.051282"
   inkscape:window-width="1920"
   inkscape:window-height="1019"
   inkscape:window-x="0"
   inkscape:window-y="37"
   inkscape:window-maximized="1"
   inkscape:current-layer="Layer_1" />
<style
   type="text/css"
   id="style1669">
	.st0{fill:#AF77AE;}
	.st1{fill:#FBA9F6;}
	.st2{opacity:0.1;fill:#562659;enable-background:new    ;}
</style>
<g
   id="g1677">
	<path
   class="st0"
   d="M4.7,2.1c-2.5,0-4.5,2-4.5,4.5v30.6c0,2.5,2,4.5,4.5,4.5h35.1V2.1H4.7z"
   id="path1671" />
	<path
   class="st1"
   d="M4.7,0.3c-2.5,0-4.5,2-4.5,4.5v30.6c0,2.5,2,4.5,4.5,4.5h35.1V0.3H4.7z"
   id="path1673" />
	<rect
   x="38.9"
   y="0.3"
   class="st2"
   width="0.9"
   height="39.6"
   id="rect1675" />
</g>
<g
   id="g1176"
   transform="matrix(0.04323514,0,0,0.0412461,2.3689022,9.3888027)">
	<g
   id="g1174">
		<path
   d="M 413.538,0 H 98.462 C 44.17,0 0,44.17 0,98.462 V 413.539 C 0,467.83 44.17,512 98.462,512 H 413.539 C 467.83,512 512,467.83 512,413.538 V 98.462 C 512,44.17 467.83,0 413.538,0 Z M 236.308,472.615 H 98.462 c -32.575,0 -59.077,-26.502 -59.077,-59.077 V 275.692 h 196.923 z m 0,-236.307 H 39.385 V 98.462 c 0,-32.575 26.502,-59.077 59.077,-59.077 h 137.846 z m 236.307,177.23 c 0,32.575 -26.502,59.077 -59.077,59.077 H 275.692 V 275.692 h 196.923 z m 0,-177.23 H 275.692 V 39.385 h 137.846 c 32.575,0 59.077,26.502 59.077,59.077 z"
   id="path1172" />
	</g>
</g><g
   id="g1182"
   transform="matrix(0.04323514,0,0,0.0412461,2.3689022,9.3888027)">
	<g
   id="g1180">
		<rect
   x="321.64099"
   y="315.077"
   width="105.026"
   height="39.384998"
   id="rect1178" />
	</g>
</g><g
   id="g1188"
   transform="matrix(0.04323514,0,0,0.0412461,2.3689022,9.3888027)">
	<g
   id="g1186">
		<rect
   x="321.64099"
   y="118.154"
   width="105.026"
   height="39.384998"
   id="rect1184" />
	</g>
</g><g
   id="g1194"
   transform="matrix(0.04323514,0,0,0.0412461,2.3689022,9.3888027)">
	<g
   id="g1192">
		<rect
   x="321.64099"
   y="393.84601"
   width="105.026"
   height="39.384998"
   id="rect1190" />
	</g>
</g><g
   id="g1200"
   transform="matrix(0.04323514,0,0,0.0412461,2.3689022,9.3888027)">
	<g
   id="g1198">
		<polygon
   points="112.385,427.462 137.846,402.003 163.307,427.462 191.155,399.615 165.695,374.154 191.155,348.693 163.307,320.845 137.846,346.305 112.385,320.845 84.538,348.693 109.997,374.154 84.538,399.615 "
   id="polygon1196" />
	</g>
</g><g
   id="g1206"
   transform="matrix(0.04323514,0,0,0.0412461,2.3689022,9.3888027)">
	<g
   id="g1204">
		<polygon
   points="118.154,196.729 157.538,196.729 157.538,160.723 193.545,160.723 193.545,121.339 157.538,121.339 157.538,85.333 118.154,85.333 118.154,121.339 82.148,121.339 82.148,160.723 118.154,160.723 "
   id="polygon1202" />
	</g>
</g><path
   style="fill:#ff0000;stroke-width:0.0263996"
   d="m 4.0779642,16.125161 0.0091,-2.997522 0.0702,-0.245255 c 0.255865,-0.89403 0.920378,-1.536182 1.846945,-1.784797 l 0.216228,-0.05801 3.182615,-0.0074 3.1826138,-0.0074 v 4.048978 4.048972 H 8.3272242 4.0687832 Z m 5.102135,0.651075 v -0.747767 h 0.783833 0.7838268 V 15.203338 14.378216 H 9.9639322 9.1800992 v -0.734877 -0.734876 h -0.851396 -0.851403 v 0.734876 0.734877 h -0.783827 -0.783827 v 0.825122 0.825131 h 0.783827 0.783827 v 0.747767 0.747767 h 0.851403 0.851396 z"
   id="path1213" /><path
   style="fill:#00ff00;stroke-width:0.0263996"
   d="m 14.288503,15.073704 v -4.048978 l 3.182608,0.0074 3.182616,0.0074 0.216227,0.05801 c 0.896972,0.240671 1.582937,0.884573 1.824079,1.712218 0.0303,0.103903 0.06695,0.316543 0.08153,0.472546 0.01529,0.163509 0.02658,1.460368 0.02671,3.061979 l 2.16e-4,2.778347 h -4.257005 -4.257001 z m 6.540912,7.13e-4 v -0.825123 h -2.283918 -2.283911 v 0.825123 0.825123 h 2.283911 2.283918 z"
   id="path1215" /><path
   style="fill:#ffff00;stroke-width:0.0263996"
   d="m 6.1891622,28.831301 c -0.269013,-0.04658 -0.444912,-0.104756 -0.71197,-0.235517 -0.652212,-0.319348 -1.118556,-0.87545 -1.31657,-1.569968 l -0.07351,-0.257858 -0.0091,-2.997513 -0.0091,-2.997523 h 4.258441 4.2584418 v 4.048267 4.048259 l -3.1015328,-0.0022 c -2.417562,-0.0015 -3.144194,-0.0097 -3.295009,-0.03582 z m 2.693696,-2.321118 0.554479,0.52851 0.6076708,-0.58015 0.607676,-0.58015 -0.553599,-0.528599 -0.5536008,-0.528605 0.5536008,-0.528607 0.553599,-0.528606 -0.607751,-0.580223 -0.6077518,-0.580225 -0.55408,0.528592 -0.55408,0.528591 -0.554473,-0.528516 -0.55448,-0.528518 -0.607677,0.58015 -0.60767,0.580149 0.5536,0.528606 0.5536,0.528607 -0.5536,0.528605 -0.5536,0.528599 0.607752,0.580225 0.607751,0.580223 0.554081,-0.528592 0.55408,-0.528583 z"
   id="path1286" /><path
   style="fill:#00ffff;stroke-width:0.0263996"
   d="m 14.288503,24.821901 v -4.048979 h 4.256994 4.257002 l -2.57e-4,2.778346 c -1.35e-4,1.601618 -0.01145,2.898479 -0.02671,3.061986 -0.01454,0.155995 -0.05126,0.368644 -0.08153,0.472547 -0.241141,0.827644 -0.927115,1.471546 -1.82408,1.712218 l -0.216227,0.05801 -3.182616,0.0074 -3.182601,0.0074 z m 6.540912,1.623743 v -0.825123 h -2.283918 -2.283911 v 0.825123 0.825131 h 2.283911 2.283918 z m 0,-3.248919 v -0.825123 h -2.283918 -2.283911 v 0.825123 0.825124 h 2.283911 2.283918 z"
   id="path1357" /><path
   style="fill:#484537;stroke-width:0.0512821"
   d="m 5.8533742,30.408875 c -1.739708,-0.317124 -3.107217,-1.660074 -3.39592,-3.334934 -0.07093,-0.411477 -0.07867,-1.28401 -0.06532,-7.358974 l 0.01515,-6.892147 0.117829,-0.383212 c 0.154502,-0.502487 0.458362,-1.079387 0.773511,-1.468566 0.631126,-0.779381 1.674242,-1.3593613 2.71071,-1.5071753 0.278248,-0.03968 2.563443,-0.05141 7.6782018,-0.03941 8.233653,0.01931 7.508525,-0.01902 8.461538,0.447276 0.871844,0.4265773 1.520567,1.0578423 1.916428,1.8648533 0.422783,0.861896 0.391264,0.198099 0.391264,8.240085 v 7.153846 l -0.169702,0.48718 c -0.47723,1.370032 -1.505969,2.319207 -2.958503,2.729691 l -0.410256,0.115938 -7.333333,0.0091 c -6.1316328,0.0076 -7.3985968,-0.0028 -7.7315988,-0.06352 z M 12.636255,24.82282 V 20.745897 H 8.3368082 4.0373622 l 0.01817,2.730769 c 0.02525,3.79388 0.01052,3.54367 0.23532,3.998518 0.315169,0.637702 0.945237,1.153199 1.627451,1.331519 0.295773,0.07731 0.693047,0.08746 3.525641,0.09008 l 3.1923078,0.003 z m 8.274649,3.995682 c 0.841744,-0.217026 1.485437,-0.793199 1.793784,-1.605623 0.106197,-0.279803 0.109545,-0.370159 0.125151,-3.377239 l 0.01603,-3.089743 h -4.284296 -4.284297 v 4.076923 4.076923 h 3.159265 c 2.71607,0 3.203467,-0.0114 3.474359,-0.08124 z M 12.636255,15.07923 V 11.002307 H 9.4419012 c -3.514861,0 -3.500562,-0.0011 -4.099704,0.31823 -0.427334,0.227766 -0.821757,0.641796 -1.048543,1.100665 -0.227521,0.460359 -0.21309,0.219734 -0.238613,3.978541 l -0.01872,2.75641 h 4.299965 4.2999658 z m 10.205128,1.163265 c 0,-1.87125 -0.01988,-3.022524 -0.05558,-3.217949 -0.171109,-0.936807 -0.897388,-1.69048 -1.874219,-1.944912 -0.249081,-0.06488 -0.807044,-0.07733 -3.465592,-0.07733 h -3.168713 v 4.076923 4.076923 h 4.282052 4.282051 z"
   id="path1637" /></svg>
