<?xml version="1.0" encoding="utf-8"?>
<!-- Generator: Adobe Illustrator 19.0.1, SVG Export Plug-In . SVG Version: 6.00 Build 0)  -->
<svg version="1.1" id="Layer_1" xmlns="http://www.w3.org/2000/svg" xmlns:xlink="http://www.w3.org/1999/xlink" x="0px" y="0px"
	 width="90px" height="91px" viewBox="-260 351 90 91" style="enable-background:new -260 351 90 91;" xml:space="preserve">
<style type="text/css">
	.st0{fill:#FAFAFA;stroke:#E4CBA9;stroke-miterlimit:10;}
	.st1{fill:none;stroke:#ED2224;stroke-width:4;stroke-linecap:round;stroke-miterlimit:10;}
	.st2{fill:#8BC24C;}
	.st3{fill:#A3CF66;}
	.st4{fill:#64A644;}
	.st5{opacity:0.15;}
	.st6{fill:#FFFFFF;}
	.st7{fill:#538A3E;}
	.st8{fill:#426932;}
</style>
<g>
	<path class="st0" d="M-170.5,433.5c0,4.4-3.6,8-8,8h-73c-4.4,0-8-3.6-8-8v-74c0-4.4,3.6-8,8-8h73c4.4,0,8,3.6,8,8V433.5z"/>
	<path class="st1" d="M-242.2,388.6c0-16.6,13.4-30,30-30s30,13.4,30,30s-13.4,30-30,30"/>
	<g id="Layer_3_2_">
		<g>
			<path class="st2" d="M-245.1,414.5L-245.1,414.5c1.3-2.6,4.1-4.3,7.4-4.3c1.5,0,1.7,0.2,3.5,1c0,0,1.1,0.5,1.4,1.2l0,0l0,0
				c0,0,1.1,1,2.1-0.6c0.8-1.2,2.5,3.9,2.7,6.1c-0.2,2.2-1.9,7.5-2.7,6.3c-1-1.6-2.1-0.4-2.1-0.4l0,0c-0.3,0.7-2,1.3-2,1.3
				c-1.1,0.4-1.9,0.8-3.4,0.8c-3.3,0-5.8-1.7-7.1-4.3l0,0c-0.4,0-1.5-2.3-1.5-3.6C-246.6,416.6-245.5,414.5-245.1,414.5
				L-245.1,414.5z M-225,427.2c0,0-4.2,2.3-3.4,5.1c0.8,2.8,2.7,3.1,4.3,3.1c2.3,0,3.7-2.4,3.7-2.4C-223,431.6-225,427.2-225,427.2z
				 M-220.4,403.2c0,0-1.4-2.4-3.7-2.4c-1.6,0-3.6,0.3-4.3,3.1c-0.8,2.8,3.4,5.1,3.4,5.1S-223,404.7-220.4,403.2z M-207.8,433
				c0,0,2.7,3.5,4.6,3.1c2.6-0.5,2.4-3.1,2.4-4.7c-0.1-3.3-1.7-2.2-1.7-2.2S-205.3,431.3-207.8,433z M-202.5,407.1
				c0,0,1.6,1,1.7-2.2c0-1.6,0.2-4.3-2.4-4.7c-1.8-0.3-4.6,3.1-4.6,3.1C-205.3,405-202.5,407.1-202.5,407.1z M-196.5,421.8
				c0,0,4.8-2.6,5.6-8.1c0.1-0.5-0.6-0.9-1-0.7c-2.8,1.8-4.6,1.6-4.6,1.6l-1.2,3.3L-196.5,421.8z"/>
			<path class="st3" d="M-233.3,423.3c-0.1,0.6-0.6,0.9-1.2,1.2c-2.9,1.2-4,1.3-4.3,1.1c-1.8-1.5-0.3-2.6-2.8-4.4
				c-1.8-1.3-2.7,0.2-2.8,0c-0.2-0.3-0.7,0.1-0.8,0c-0.8-1.2-1.1-3-1.1-3s0.2-1.8,1.1-3c0.1-0.1,0.6,0.3,0.8,0c0.2-0.2,1,1.3,2.8,0
				c2.5-1.8,0.9-2.9,2.8-4.4c0.4-0.2,1.4-0.2,4.3,1.1c0.6,0.3,1,0.5,1.2,1.2c0,1.7,1.1,3,1.1,5.2
				C-232.2,420.3-233.3,421.6-233.3,423.3z M-228.6,418.1c0.1-2.2-0.8-6.3-1.7-5.2c-1.2,1.4-2.2,0-2.2,0.2c0,1.7,1.2,2.1,1.2,5
				s-1.2,3.3-1.2,5c-0.1,0.2,1-1.1,2.2,0.2C-229.4,424.4-228.5,420.3-228.6,418.1z M-223.4,429.1c-0.9-0.8-1.3-1.5-1.3-1.5
				s-4,2.8-3.1,4.7c0.3,0.6,0.5,0.9,0.8,1.3L-223.4,429.1z M-227,402.7c-0.3,0.3-0.5,0.6-0.8,1.2c-0.9,1.8,3.1,4.7,3.1,4.7
				s0.5-0.7,1.3-1.5L-227,402.7z M-206.3,432.5c-0.8,0.7,0.4,0-0.6,0.6c0,0,2.4,3.2,3.8,2.3c0.1-0.1,0.5-0.4,0.1-0.7L-206.3,432.5z
				 M-203,401.6c0.4-0.4,0-0.6-0.1-0.7c-1.4-0.9-3.8,2.3-3.8,2.3c0.9,0.6-0.2-0.1,0.6,0.6L-203,401.6z M-194.2,418.9
				c1.2-1,2.7-3.9,2.5-4.4c-0.1-0.3-1.1,2-2.4,3.2c-1.4,1.4-3.1,1.6-3.1,1.6l0.3,1.3C-196.8,420.6-195.1,419.8-194.2,418.9z"/>
			<g id="shell">
				<g>
					<path class="st4" d="M-205.6,417.9v2.9c0,0.8-0.6,1.8-1.2,2.1l-5.6,3.1c-0.6,0.4-1.7,0.4-2.4,0l-5.6-3.1
						c-0.6-0.4-1.3-1.3-1.3-2.1v-2.9v-2.3c0-0.8,0.6-1.8,1.3-2.1l5.5-3.1c0.6-0.4,1.7-0.4,2.4,0l5.6,3.1c0.6,0.4,1.2,1.3,1.2,2.1
						L-205.6,417.9"/>
					<path class="st4" d="M-223.8,417.9v2.9c0,0.8-0.2,1.9-0.8,2.4l-2.9,2.6c-0.6,0.5-1.1,0.7-1.2,0.6c0,0,0-0.1-0.1-0.3
						c-1.6-2.4,1.2-3.7,1.2-8.1c0-3.6-2.7-5.4-1.1-7.8c0.1-0.2,0.1-0.1,0.1-0.1c0.1-0.2,0.7,0.1,1.3,0.6l2.8,2.6
						c0.6,0.5,0.8,1.6,0.8,2.4L-223.8,417.9L-223.8,417.9z"/>
					<path class="st4" d="M-198,417.9c0,1.5,0.5,2.5,0.1,3.8c-0.4,1.4-1,2.7-1,2.7c-0.4,0.7-1.1,0.9-1.8,0.5l-2.4-1.9
						c-0.6-0.4-1-1.5-1-2.3v-2.9v-2.2c0-0.8,0.4-1.8,1-2.3l2.5-1.9c0.6-0.4,1.4-0.2,1.7,0.4c0,0,0.7,1.1,1,2.5
						C-197.5,415.7-198,417.2-198,417.9z"/>
					<path class="st4" d="M-226.1,409.1c-0.6-0.5-0.9-1-0.8-1.2c0,0,0,0,0.1-0.1c0.9-0.9,2.5-0.2,3.5-0.9c0.9-0.6,1.2-2.6,2.3-3
						c2-0.8,5.3-1.1,5.3-1.1c0.7-0.1,1.4,0.5,1.4,1.3v2.6c0,0.8-0.6,1.7-1.3,2.1l-5.5,2.9c-0.7,0.3-1.7,0.2-2.3-0.3L-226.1,409.1z"
						/>
					<path class="st4" d="M-223.4,425c0.6-0.5,1.6-0.6,2.2-0.3l5.6,2.9c0.7,0.3,1.3,1.3,1.3,2.1v2.6c0,0.8-0.7,1.4-1.4,1.3
						c0,0-3.2-0.3-5.2-1.1c-1-0.4-1.4-2.4-2.3-3c-1-0.7-2.7,0-3.5-0.9c-0.1-0.1-0.1-0.1-0.1-0.1c-0.1-0.1,0.2-0.7,0.8-1.2
						L-223.4,425z"/>
					<path class="st4" d="M-206.4,424.8c0.6-0.4,1.7-0.3,2.3,0.1l2.3,1.7c0.6,0.4,0.9,1.1,0.6,1.4c0,0,0,0-0.3,0.3
						c-0.9,0.9-2.4,0.3-3.6,1.2c-1.3,1-1.2,2.5-2.3,2.9c-1.6,0.7-3.6,1.1-3.6,1.1c-0.7,0.1-1.1-0.4-1.1-1.2v-2.5
						c0-0.8,0.3-1.8,1-2.1L-206.4,424.8z"/>
					<path class="st4" d="M-211.2,408.9c-0.6-0.4-1-1.3-1-2.1v-2.5c0-0.8,0.4-1.4,1.1-1.2c0,0,2.1,0.4,3.7,1.1
						c1.1,0.5,0.9,1.9,2.3,2.9c1.2,0.9,2.7,0.3,3.5,1.2c0.3,0.3,0.2,0.3,0.2,0.3c0.3,0.3,0,1-0.6,1.4l-2.3,1.7
						c-0.6,0.4-1.5,0.5-2.2,0.1L-211.2,408.9z"/>
				</g>
				<g class="st5">
					<path class="st6" d="M-205,417.3v2.9c0,0.8-0.6,1.8-1.2,2.1l-5.6,3.1c-0.6,0.4-1.7,0.4-2.4,0l-5.6-3.1
						c-0.6-0.4-1.3-1.3-1.3-2.1v-2.9V415c0-0.8,0.6-1.8,1.3-2.1l5.5-3.1c0.6-0.4,1.7-0.4,2.4,0l5.6,3.1c0.6,0.4,1.2,1.3,1.2,2.1
						L-205,417.3"/>
					<path class="st6" d="M-223.3,417.3v2.9c0,0.8-0.2,1.9-0.8,2.4l-2.9,2.6c-0.6,0.5-1.1,0.7-1.2,0.6c0,0,0-0.1-0.1-0.3
						c-1.6-2.4,1.2-3.7,1.2-8.1c0-3.6-2.7-5.4-1.1-7.8c0.1-0.2,0.1-0.1,0.1-0.1c0.1-0.2,0.7,0.1,1.3,0.6l2.8,2.6
						c0.6,0.5,0.8,1.6,0.8,2.4L-223.3,417.3L-223.3,417.3z"/>
					<path class="st6" d="M-197.5,417.3c0,1.5,0.5,2.5,0.1,3.8c-0.4,1.4-1,2.7-1,2.7c-0.4,0.7-1.1,0.9-1.8,0.5l-2.4-1.9
						c-0.6-0.4-1-1.5-1-2.3v-2.8v-2.2c0-0.8,0.4-1.8,1-2.3l2.5-1.9c0.6-0.4,1.4-0.2,1.7,0.4c0,0,0.7,1.1,1,2.5
						C-197,415.2-197.5,416.6-197.5,417.3z"/>
					<path class="st6" d="M-225.6,408.5c-0.6-0.5-0.9-1-0.8-1.2c0,0,0,0,0.1-0.1c0.9-0.9,2.5-0.2,3.5-0.9c0.9-0.6,1.2-2.6,2.3-3
						c2-0.8,5.3-1.1,5.3-1.1c0.7-0.1,1.4,0.5,1.4,1.3v2.6c0,0.8-0.6,1.7-1.3,2.1l-5.5,2.9c-0.7,0.3-1.7,0.2-2.3-0.3L-225.6,408.5z"
						/>
					<path class="st6" d="M-222.9,424.5c0.6-0.5,1.6-0.6,2.2-0.3l5.6,2.9c0.7,0.3,1.3,1.3,1.3,2.1v2.6c0,0.8-0.7,1.4-1.4,1.3
						c0,0-3.2-0.3-5.2-1.1c-1-0.4-1.4-2.4-2.3-3c-1-0.7-2.7,0-3.5-0.9c-0.1-0.1-0.1-0.1-0.1-0.1c-0.1-0.1,0.2-0.7,0.8-1.2
						L-222.9,424.5z"/>
					<path class="st6" d="M-205.9,424.2c0.6-0.4,1.7-0.3,2.3,0.1l2.3,1.7c0.6,0.4,0.9,1.1,0.6,1.4c0,0,0,0-0.3,0.3
						c-0.9,0.9-2.4,0.3-3.6,1.2c-1.3,1-1.2,2.5-2.3,2.9c-1.6,0.7-3.6,1.1-3.6,1.1c-0.7,0.1-1.1-0.4-1.1-1.2v-2.5
						c0-0.8,0.3-1.8,1-2.1L-205.9,424.2z"/>
					<path class="st6" d="M-210.6,408.3c-0.6-0.4-1-1.3-1-2.1v-2.5c0-0.8,0.4-1.4,1.1-1.2c0,0,2.1,0.4,3.7,1.1
						c1.1,0.5,0.9,1.9,2.3,2.9c1.2,0.9,2.7,0.3,3.5,1.2c0.3,0.3,0.2,0.3,0.2,0.3c0.3,0.3,0,1-0.6,1.4l-2.3,1.7
						c-0.6,0.4-1.5,0.5-2.2,0.1L-210.6,408.3z"/>
				</g>
				<path class="st7" d="M-196.7,417.9c0-0.7,0.8-2.2,0.5-3.5c-0.7-2.8-2.1-5.3-4-7.4c-0.9-1-2.3,0-3.8-1.3
					c-2.2-1.8-1.7-2.9-3.1-3.5c-2.2-0.9-4.7-1.4-7.2-1.4s-4.9,0.5-7,1.4c-1.2,0.5-1.7,2.6-2.8,3.3c-1.2,0.8-2.9,0.3-3.9,1.3
					c-0.1,0.1-0.1,0.1-0.1,0.1c-0.1,0.1-0.4,0.3-0.4,0.4c-0.1,0.1-1.1,1.1-1.5,1.7c-2.2,3.1,0.8,6.7,0.8,8.9c0,2.9-2.9,6.1-0.8,9.2
					c0.4,0.6,1.4,1.9,1.5,2s0.3,0.3,0.4,0.5c0,0,0,0,0.1,0.1c1,1,2.7,0.5,3.9,1.3c1.1,0.7,1.6,2.8,2.8,3.3c2.2,0.9,4.5,1.4,7,1.4
					c2.6,0,5-0.5,7.2-1.4c1.3-0.5,0.9-1.7,3.1-3.5c1.5-1.2,2.9-0.3,3.8-1.3c1.9-2.1,3.3-4.8,4-7.7
					C-195.9,420.5-196.7,419.4-196.7,417.9z M-205.6,417.9v2.9c0,0.8-0.6,1.8-1.2,2.1l-5.6,3.1c-0.6,0.4-1.7,0.4-2.4,0l-5.6-3.1
					c-0.6-0.4-1.3-1.3-1.3-2.1v-2.9v-2.3c0-0.8,0.6-1.8,1.3-2.1l5.5-3.1c0.6-0.4,1.7-0.4,2.4,0l5.6,3.1c0.6,0.4,1.2,1.3,1.2,2.1
					L-205.6,417.9 M-223.8,417.9v2.9c0,0.8-0.2,1.9-0.8,2.4l-2.9,2.6c-0.6,0.5-1.1,0.7-1.2,0.6c0,0,0-0.1-0.1-0.3
					c-1.6-2.4,1.2-3.7,1.2-8.1c0-3.6-2.7-5.4-1.1-7.8c0.1-0.2,0.1-0.1,0.1-0.1c0.1-0.2,0.7,0.1,1.3,0.6l2.8,2.6
					c0.6,0.5,0.8,1.6,0.8,2.4L-223.8,417.9L-223.8,417.9z M-198,417.9c0,1.5,0.5,2.5,0.1,3.8c-0.4,1.4-1,2.7-1,2.7
					c-0.4,0.7-1.1,0.9-1.8,0.5l-2.4-1.9c-0.6-0.4-1-1.5-1-2.3v-2.9v-2.2c0-0.8,0.4-1.8,1-2.3l2.5-1.9c0.6-0.4,1.4-0.2,1.7,0.4
					c0,0,0.7,1.1,1,2.5C-197.5,415.7-198,417.2-198,417.9z M-226.1,409.1c-0.6-0.5-0.9-1-0.8-1.2c0,0,0,0,0.1-0.1
					c0.9-0.9,2.5-0.2,3.5-0.9c0.9-0.6,1.2-2.6,2.3-3c2-0.8,5.3-1.1,5.3-1.1c0.7-0.1,1.4,0.5,1.4,1.3v2.6c0,0.8-0.6,1.7-1.3,2.1
					l-5.5,2.9c-0.7,0.3-1.7,0.2-2.3-0.3L-226.1,409.1z M-223.4,425c0.6-0.5,1.6-0.6,2.2-0.3l5.6,2.9c0.7,0.3,1.3,1.3,1.3,2.1v2.6
					c0,0.8-0.7,1.4-1.4,1.3c0,0-3.2-0.3-5.2-1.1c-1-0.4-1.4-2.4-2.3-3c-1-0.7-2.7,0-3.5-0.9c-0.1-0.1-0.1-0.1-0.1-0.1
					c-0.1-0.1,0.2-0.7,0.8-1.2L-223.4,425z M-206.4,424.8c0.6-0.4,1.7-0.3,2.3,0.1l2.3,1.7c0.6,0.4,0.9,1.1,0.6,1.4c0,0,0,0-0.3,0.3
					c-0.9,0.9-2.4,0.3-3.6,1.2c-1.3,1-1.2,2.5-2.3,2.9c-1.6,0.7-3.6,1.1-3.6,1.1c-0.7,0.1-1.1-0.4-1.1-1.2v-2.5c0-0.8,0.3-1.8,1-2.1
					L-206.4,424.8z M-211.2,408.9c-0.6-0.4-1-1.3-1-2.1v-2.5c0-0.8,0.4-1.4,1.1-1.2c0,0,2.1,0.4,3.7,1.1c1.1,0.5,0.9,1.9,2.3,2.9
					c1.2,0.9,2.7,0.3,3.5,1.2c0.3,0.3,0.2,0.3,0.2,0.3c0.3,0.3,0,1-0.6,1.4l-2.3,1.7c-0.6,0.4-1.5,0.5-2.2,0.1L-211.2,408.9z"/>
			</g>
			<g id="eyes">
				<path id="eye_6_" class="st6" d="M-244.4,414.7c0,0,1.4,0.8,2.7-0.4c1.3-1.2,0.5-2.6,0.5-2.6S-243.4,412.7-244.4,414.7z"/>
				<path id="eye_7_" class="st6" d="M-244.4,421.4c0,0,1.4-0.8,2.7,0.4c1.3,1.2,0.5,2.6,0.5,2.6S-243.4,423.4-244.4,421.4z"/>
				<path class="st8" d="M-242.3,422c-0.5-0.5-1.3-0.3-1.9,0c0.5,0.8,1.2,1.4,1.8,1.8C-242,423.2-241.7,422.5-242.3,422z"/>
				<path class="st8" d="M-242.3,414.1c-0.5,0.5-1.3,0.3-1.9,0c0.5-0.8,1.2-1.4,1.8-1.8C-242,412.9-241.7,413.6-242.3,414.1z"/>
			</g>
		</g>
	</g>
</g>
</svg>
