<?xml version="1.0" encoding="utf-8"?>
<!-- Generator: Adobe Illustrator 15.0.0, SVG Export Plug-In . SVG Version: 6.00 Build 0)  -->
<!DOCTYPE svg PUBLIC "-//W3C//DTD SVG 1.1//EN" "http://www.w3.org/Graphics/SVG/1.1/DTD/svg11.dtd">
<svg version="1.1" id="Layer_1" xmlns="http://www.w3.org/2000/svg" xmlns:xlink="http://www.w3.org/1999/xlink" x="0px" y="0px"
	 width="358.473px" height="235.681px" viewBox="0 0 358.473 235.681" enable-background="new 0 0 358.473 235.681"
	 xml:space="preserve">
<g>
	<g>
		<path fill="#D6D6D8" d="M160,230.691l-1.588-0.005c-0.829-0.005-1.496-0.68-1.492-1.509c0.004-0.825,0.675-1.491,1.5-1.491
			c0.002,0,0.005,0,0.008,0l1.571,0.005c2.1,0,4.242-0.024,6.367-0.072c0.848,0.028,1.515,0.639,1.533,1.467
			c0.019,0.828-0.638,1.515-1.466,1.533C164.288,230.667,162.123,230.691,160,230.691z M150.446,230.519
			c-0.019,0-0.038,0-0.056-0.001c-2.703-0.1-5.4-0.245-8.018-0.434c-0.826-0.06-1.448-0.777-1.389-1.604s0.778-1.453,1.604-1.389
			c2.583,0.186,5.246,0.329,7.914,0.428c0.828,0.03,1.474,0.727,1.444,1.555C151.914,229.883,151.249,230.519,150.446,230.519z
			 M174.376,230.339c-0.796,0-1.459-0.625-1.497-1.429c-0.04-0.827,0.599-1.53,1.427-1.569c1.182-0.057,2.375-0.12,3.581-0.189
			c1.448-0.084,2.897-0.179,4.348-0.286c0.839-0.067,1.545,0.561,1.606,1.386c0.061,0.826-0.56,1.546-1.386,1.606
			c-1.467,0.107-2.932,0.204-4.395,0.288c-1.215,0.071-2.419,0.135-3.611,0.191C174.424,230.338,174.4,230.339,174.376,230.339z
			 M134.537,229.365c-0.055,0-0.111-0.003-0.167-0.009c-2.705-0.301-5.387-0.656-7.972-1.056c-0.818-0.127-1.379-0.894-1.253-1.712
			c0.126-0.819,0.892-1.375,1.712-1.253c2.542,0.394,5.182,0.743,7.844,1.038c0.823,0.092,1.417,0.833,1.325,1.656
			C135.941,228.798,135.291,229.365,134.537,229.365z M190.308,229.166c-0.761,0-1.413-0.576-1.491-1.35
			c-0.083-0.824,0.518-1.56,1.342-1.643c2.617-0.264,5.278-0.567,7.912-0.903c0.824-0.096,1.573,0.477,1.678,1.299
			c0.104,0.821-0.477,1.572-1.299,1.678c-2.659,0.339-5.348,0.646-7.99,0.911C190.409,229.164,190.358,229.166,190.308,229.166z
			 M206.177,227.142c-0.728,0-1.366-0.53-1.48-1.271c-0.126-0.819,0.436-1.585,1.254-1.711c2.589-0.398,5.228-0.841,7.843-1.313
			c0.81-0.141,1.595,0.394,1.743,1.21c0.146,0.815-0.395,1.596-1.21,1.742c-2.64,0.478-5.305,0.924-7.919,1.326
			C206.331,227.136,206.253,227.142,206.177,227.142z M118.777,226.911c-0.1,0-0.201-0.01-0.302-0.03
			c-2.661-0.544-5.301-1.155-7.848-1.819c-0.802-0.208-1.282-1.027-1.074-1.829c0.208-0.801,1.027-1.283,1.83-1.073
			c2.496,0.649,5.084,1.249,7.693,1.782c0.812,0.166,1.335,0.958,1.169,1.771C120.101,226.422,119.475,226.911,118.777,226.911z
			 M221.897,224.3c-0.695,0-1.319-0.486-1.467-1.195c-0.168-0.811,0.353-1.605,1.164-1.773c2.581-0.536,5.188-1.112,7.751-1.713
			c0.809-0.19,1.613,0.311,1.803,1.117s-0.311,1.614-1.117,1.803c-2.588,0.607-5.221,1.189-7.827,1.73
			C222.101,224.29,221.999,224.3,221.897,224.3z M103.346,222.883c-0.153,0-0.308-0.023-0.461-0.072
			c-2.565-0.828-5.123-1.74-7.6-2.711c-0.771-0.302-1.151-1.173-0.849-1.943c0.302-0.771,1.171-1.153,1.944-0.85
			c2.42,0.948,4.919,1.84,7.426,2.648c0.789,0.255,1.222,1.1,0.967,1.889C104.568,222.479,103.979,222.883,103.346,222.883z
			 M237.422,220.656c-0.665,0-1.273-0.445-1.45-1.119c-0.21-0.802,0.27-1.621,1.07-1.832c2.546-0.668,5.116-1.379,7.639-2.112
			c0.795-0.233,1.628,0.227,1.859,1.021c0.231,0.796-0.227,1.628-1.021,1.859c-2.548,0.741-5.144,1.459-7.715,2.134
			C237.676,220.641,237.548,220.656,237.422,220.656z M88.504,217.054c-0.213,0-0.43-0.045-0.636-0.142
			c-2.415-1.133-4.836-2.364-7.195-3.662c-0.726-0.399-0.99-1.312-0.591-2.037c0.399-0.727,1.31-0.991,2.038-0.592
			c2.303,1.267,4.665,2.47,7.022,3.574c0.75,0.352,1.073,1.245,0.721,1.995C89.608,216.734,89.068,217.054,88.504,217.054z
			 M252.738,216.198c-0.635,0-1.224-0.405-1.428-1.041c-0.254-0.789,0.181-1.634,0.969-1.887c2.528-0.812,5.062-1.664,7.529-2.533
			c0.785-0.272,1.638,0.136,1.913,0.917s-0.136,1.638-0.917,1.913c-2.493,0.878-5.054,1.739-7.607,2.559
			C253.043,216.176,252.889,216.198,252.738,216.198z M267.798,210.891c-0.602,0-1.17-0.365-1.399-0.961
			c-0.298-0.772,0.087-1.641,0.86-1.938c2.476-0.954,4.952-1.952,7.363-2.968c0.769-0.322,1.643,0.038,1.965,0.801
			c0.321,0.764-0.037,1.643-0.801,1.965c-2.438,1.026-4.945,2.036-7.449,3.001C268.161,210.858,267.978,210.891,267.798,210.891z
			 M74.533,209.369c-0.275,0-0.553-0.075-0.803-0.234c-2.207-1.401-4.453-2.922-6.676-4.52c-0.673-0.482-0.827-1.42-0.343-2.093
			s1.421-0.826,2.093-0.343c2.177,1.563,4.376,3.052,6.535,4.423c0.699,0.444,0.906,1.372,0.462,2.071
			C75.515,209.123,75.029,209.369,74.533,209.369z M282.514,204.69c-0.567,0-1.11-0.323-1.363-0.873
			c-0.347-0.753-0.018-1.644,0.735-1.989c2.425-1.116,4.83-2.272,7.149-3.438c0.738-0.37,1.641-0.073,2.014,0.668
			c0.371,0.74,0.072,1.642-0.668,2.014c-2.349,1.18-4.785,2.351-7.241,3.48C282.937,204.646,282.724,204.69,282.514,204.69z
			 M61.569,200.078c-0.327,0-0.657-0.106-0.933-0.326c-1.226-0.975-2.432-1.959-3.623-2.951c-0.84-0.699-1.705-1.459-2.569-2.257
			c-0.609-0.562-0.647-1.511-0.085-2.12c0.563-0.608,1.511-0.645,2.12-0.085c0.828,0.764,1.654,1.489,2.455,2.157
			c1.173,0.977,2.362,1.947,3.57,2.908c0.648,0.516,0.756,1.459,0.24,2.107C62.448,199.884,62.01,200.078,61.569,200.078z
			 M296.777,197.518c-0.529,0-1.042-0.28-1.315-0.777c-0.399-0.726-0.134-1.638,0.592-2.037c2.336-1.284,4.646-2.614,6.867-3.953
			c0.706-0.429,1.63-0.202,2.059,0.51c0.428,0.709,0.2,1.631-0.51,2.059c-2.255,1.36-4.601,2.711-6.971,4.014
			C297.269,197.458,297.022,197.518,296.777,197.518z M49.834,189.276c-0.405,0-0.808-0.163-1.104-0.484
			c-1.727-1.875-3.506-3.926-5.289-6.096c-0.526-0.64-0.433-1.585,0.207-2.111c0.639-0.527,1.585-0.434,2.111,0.207
			c1.747,2.126,3.489,4.135,5.178,5.969c0.561,0.609,0.522,1.558-0.087,2.119C50.562,189.146,50.198,189.276,49.834,189.276z
			 M310.442,189.265c-0.485,0-0.962-0.235-1.25-0.67c-0.459-0.69-0.271-1.621,0.419-2.079c2.224-1.478,4.404-3.003,6.482-4.533
			c0.667-0.491,1.606-0.35,2.098,0.318c0.491,0.667,0.349,1.606-0.318,2.098c-2.117,1.559-4.338,3.111-6.602,4.615
			C311.016,189.184,310.727,189.265,310.442,189.265z M323.285,179.79c-0.434,0-0.863-0.187-1.159-0.547
			c-0.526-0.641-0.435-1.586,0.205-2.111c2.06-1.694,4.059-3.44,5.943-5.189c0.604-0.563,1.556-0.531,2.119,0.078
			c0.564,0.606,0.529,1.556-0.078,2.119c-1.928,1.791-3.973,3.577-6.078,5.309C323.958,179.678,323.62,179.79,323.285,179.79z
			 M39.673,176.96c-0.456,0-0.906-0.207-1.201-0.6c-1.568-2.09-3.15-4.285-4.702-6.524c-0.472-0.681-0.302-1.615,0.378-2.088
			c0.682-0.47,1.616-0.302,2.087,0.379c1.53,2.209,3.09,4.373,4.635,6.433c0.497,0.663,0.363,1.603-0.299,2.101
			C40.303,176.862,39.987,176.96,39.673,176.96z M334.956,168.921c-0.368,0-0.737-0.135-1.026-0.406
			c-0.604-0.567-0.634-1.517-0.067-2.12c1.83-1.949,3.568-3.943,5.165-5.929c0.521-0.646,1.465-0.747,2.109-0.229
			c0.646,0.52,0.747,1.464,0.229,2.109c-1.646,2.044-3.434,4.097-5.315,6.101C335.753,168.762,335.355,168.921,334.956,168.921z
			 M30.576,163.836c-0.494,0-0.977-0.243-1.264-0.689c-1.444-2.249-2.866-4.548-4.226-6.833c-0.424-0.712-0.19-1.633,0.522-2.057
			c0.712-0.422,1.632-0.188,2.056,0.521c1.343,2.257,2.747,4.526,4.172,6.747c0.448,0.697,0.245,1.625-0.452,2.072
			C31.134,163.759,30.854,163.836,30.576,163.836z M344.923,156.485c-0.287,0-0.577-0.082-0.834-0.254
			c-0.688-0.461-0.872-1.393-0.411-2.081c1.477-2.206,2.833-4.46,4.03-6.7c0.391-0.731,1.303-1.006,2.03-0.616
			c0.73,0.391,1.007,1.3,0.616,2.03c-1.244,2.327-2.652,4.668-4.185,6.956C345.881,156.252,345.407,156.485,344.923,156.485z
			 M22.41,150.111c-0.53,0-1.043-0.281-1.316-0.778c-1.3-2.368-2.56-4.763-3.741-7.117c-0.372-0.74-0.073-1.642,0.667-2.014
			c0.739-0.369,1.642-0.072,2.013,0.668c1.166,2.321,2.407,4.683,3.69,7.02c0.398,0.726,0.133,1.638-0.593,2.036
			C22.902,150.052,22.654,150.111,22.41,150.111z M352.401,142.441c-0.186,0-0.374-0.034-0.557-0.107
			c-0.77-0.307-1.144-1.18-0.836-1.949c0.973-2.434,1.797-4.918,2.45-7.383c0.213-0.8,1.032-1.278,1.835-1.065
			c0.801,0.213,1.277,1.034,1.065,1.835c-0.685,2.581-1.548,5.181-2.565,7.727C353.559,142.085,352.996,142.441,352.401,142.441z
			 M15.257,135.835c-0.572,0-1.118-0.328-1.368-0.883c-1.134-2.512-2.19-5.009-3.141-7.421c-0.304-0.771,0.075-1.642,0.846-1.945
			c0.77-0.304,1.642,0.075,1.945,0.846c0.933,2.367,1.971,4.818,3.084,7.286c0.341,0.755,0.005,1.644-0.75,1.984
			C15.673,135.793,15.463,135.835,15.257,135.835z M356.456,127.084c-0.065,0-0.131-0.004-0.197-0.013
			c-0.822-0.108-1.4-0.862-1.292-1.683c0.336-2.554,0.507-5.158,0.507-7.74c0-0.829,0.672-1.5,1.5-1.5s1.5,0.671,1.5,1.5
			c0,2.712-0.179,5.448-0.532,8.131C357.841,126.535,357.197,127.084,356.456,127.084z M9.429,120.973
			c-0.631,0-1.219-0.402-1.425-1.035c-0.542-1.659-1.039-3.305-1.477-4.891c-0.263-0.953-0.52-1.907-0.77-2.861
			c-0.21-0.801,0.27-1.621,1.071-1.832c0.802-0.208,1.621,0.27,1.832,1.071c0.247,0.942,0.5,1.884,0.759,2.824
			c0.425,1.541,0.909,3.142,1.437,4.757c0.257,0.787-0.172,1.634-0.96,1.892C9.741,120.949,9.584,120.973,9.429,120.973z
			 M356.898,111.174c-0.814,0-1.482-0.652-1.499-1.47c-0.057-2.818-0.146-5.415-0.275-7.937c-0.042-0.827,0.595-1.532,1.422-1.574
			c0.825-0.035,1.532,0.595,1.574,1.422c0.13,2.553,0.222,5.179,0.279,8.029c0.017,0.828-0.642,1.513-1.47,1.53
			C356.919,111.174,356.909,111.174,356.898,111.174z M5.326,105.549c-0.688,0-1.308-0.476-1.463-1.175
			c-0.592-2.665-1.123-5.319-1.579-7.89c-0.145-0.815,0.399-1.594,1.215-1.739c0.819-0.142,1.595,0.399,1.739,1.215
			c0.448,2.528,0.971,5.14,1.554,7.763c0.18,0.809-0.331,1.61-1.139,1.79C5.543,105.537,5.434,105.549,5.326,105.549z
			 M356.057,95.227c-0.767,0-1.42-0.584-1.492-1.363c-0.249-2.713-0.56-5.354-0.922-7.848c-0.119-0.82,0.449-1.581,1.269-1.7
			c0.815-0.119,1.581,0.449,1.7,1.269c0.37,2.546,0.687,5.239,0.941,8.005c0.075,0.825-0.532,1.555-1.356,1.631
			C356.15,95.225,356.103,95.227,356.057,95.227z M2.556,89.833c-0.745,0-1.39-0.554-1.486-1.312
			c-0.345-2.726-0.61-5.427-0.787-8.029c-0.056-0.827,0.568-1.542,1.395-1.599c0.827-0.059,1.542,0.568,1.599,1.395
			c0.173,2.544,0.433,5.188,0.771,7.856c0.104,0.822-0.478,1.573-1.3,1.677C2.683,89.829,2.619,89.833,2.556,89.833z
			 M353.736,79.445c-0.693,0-1.315-0.484-1.466-1.189c-0.558-2.632-1.202-5.197-1.915-7.624c-0.233-0.795,0.222-1.628,1.017-1.862
			c0.796-0.231,1.629,0.22,1.862,1.016c0.734,2.5,1.397,5.141,1.972,7.848c0.171,0.811-0.347,1.606-1.157,1.778
			C353.944,79.434,353.839,79.445,353.736,79.445z M1.5,73.912c-0.829,0-1.5-0.668-1.5-1.497v-0.006
			c0-2.762,0.106-5.482,0.317-8.087c0.067-0.826,0.793-1.45,1.616-1.375c0.826,0.067,1.441,0.79,1.375,1.616
			C3.104,67.087,3,69.727,3,72.409C3,73.237,2.329,73.912,1.5,73.912z M349.21,64.164c-0.598,0-1.162-0.36-1.396-0.95
			c-0.973-2.463-2.061-4.859-3.233-7.121c-0.381-0.735-0.094-1.641,0.642-2.022c0.735-0.383,1.64-0.095,2.022,0.641
			c1.219,2.352,2.35,4.842,3.36,7.4c0.304,0.771-0.074,1.642-0.845,1.946C349.581,64.129,349.394,64.164,349.21,64.164z
			 M2.825,58.028c-0.088,0-0.176-0.008-0.265-0.024c-0.816-0.146-1.359-0.924-1.213-1.74c0.487-2.735,1.116-5.402,1.869-7.929
			c0.236-0.793,1.069-1.245,1.866-1.009c0.794,0.236,1.246,1.072,1.009,1.866c-0.721,2.418-1.323,4.975-1.791,7.599
			C4.17,57.517,3.538,58.028,2.825,58.028z M341.86,50.035c-0.483,0-0.958-0.233-1.247-0.666c-1.448-2.163-3.031-4.255-4.703-6.219
			c-0.537-0.631-0.462-1.578,0.169-2.115c0.631-0.536,1.579-0.459,2.114,0.169c1.748,2.052,3.4,4.237,4.912,6.496
			c0.461,0.688,0.276,1.62-0.411,2.081C342.437,49.953,342.147,50.035,341.86,50.035z M7.416,42.784
			c-0.205,0-0.413-0.042-0.612-0.131c-0.756-0.339-1.095-1.226-0.756-1.982c1.129-2.522,2.435-4.95,3.88-7.215
			c0.446-0.699,1.372-0.904,2.071-0.458c0.699,0.446,0.903,1.373,0.458,2.071c-1.366,2.142-2.602,4.439-3.671,6.828
			C8.537,42.453,7.989,42.784,7.416,42.784z M331.544,37.919c-0.367,0-0.734-0.133-1.023-0.403c-1.872-1.747-3.889-3.43-5.992-5.002
			c-0.664-0.496-0.8-1.436-0.304-2.1c0.495-0.664,1.437-0.8,2.099-0.304c2.191,1.637,4.292,3.391,6.244,5.212
			c0.605,0.565,0.639,1.514,0.073,2.12C332.346,37.759,331.946,37.919,331.544,37.919z M16.039,29.449
			c-0.368,0-0.736-0.134-1.026-0.406c-0.604-0.567-0.634-1.516-0.068-2.121c1.805-1.923,3.874-3.761,6.151-5.461
			c0.664-0.494,1.604-0.359,2.1,0.305c0.496,0.664,0.359,1.604-0.305,2.1c-2.136,1.595-4.073,3.313-5.757,5.109
			C16.838,29.29,16.439,29.449,16.039,29.449z M318.807,28.37c-0.264,0-0.531-0.069-0.773-0.215
			c-1.832-1.104-3.763-2.17-5.736-3.167c-0.376-0.189-0.757-0.377-1.146-0.564c-0.747-0.358-1.062-1.255-0.703-2.001
			c0.359-0.746,1.257-1.061,2.002-0.703c0.406,0.195,0.807,0.392,1.198,0.59c2.041,1.031,4.037,2.133,5.934,3.275
			c0.709,0.428,0.938,1.35,0.511,2.059C319.811,28.111,319.315,28.37,318.807,28.37z M304.443,21.477
			c-0.174,0-0.35-0.03-0.522-0.094c-2.309-0.857-4.827-1.701-7.485-2.507c-0.793-0.241-1.24-1.079-1-1.871
			c0.24-0.793,1.078-1.24,1.871-1c2.716,0.825,5.293,1.688,7.659,2.566c0.776,0.288,1.172,1.152,0.884,1.928
			C305.625,21.103,305.052,21.477,304.443,21.477z M28.708,19.866c-0.529,0-1.042-0.28-1.315-0.776
			c-0.4-0.726-0.136-1.638,0.589-2.038c2.262-1.248,4.727-2.436,7.326-3.532c0.763-0.32,1.644,0.036,1.965,0.799
			c0.322,0.764-0.036,1.643-0.799,1.965c-2.503,1.055-4.873,2.197-7.043,3.395C29.201,19.806,28.952,19.866,28.708,19.866z
			 M289.176,16.798c-0.123,0-0.248-0.015-0.373-0.047c-2.458-0.628-5.057-1.245-7.723-1.833c-0.81-0.178-1.32-0.979-1.143-1.788
			c0.179-0.808,0.977-1.323,1.787-1.142c2.699,0.594,5.331,1.219,7.822,1.856c0.802,0.205,1.286,1.022,1.081,1.825
			C290.456,16.347,289.845,16.798,289.176,16.798z M43.368,13.616c-0.63,0-1.217-0.4-1.425-1.032
			c-0.259-0.787,0.169-1.635,0.956-1.894c2.447-0.805,5.055-1.569,7.752-2.27c0.8-0.212,1.621,0.272,1.829,1.075
			c0.208,0.802-0.272,1.621-1.075,1.829c-2.635,0.685-5.182,1.43-7.569,2.216C43.682,13.591,43.523,13.616,43.368,13.616z
			 M273.581,13.345c-0.094,0-0.189-0.009-0.285-0.027c-2.52-0.484-5.153-0.958-7.829-1.41c-0.816-0.138-1.367-0.912-1.229-1.729
			c0.138-0.817,0.907-1.367,1.729-1.229c2.697,0.455,5.354,0.934,7.896,1.421c0.813,0.156,1.346,0.942,1.189,1.756
			C274.914,12.845,274.286,13.345,273.581,13.345z M257.828,10.677c-0.074,0-0.148-0.005-0.224-0.017
			c-2.558-0.382-5.211-0.754-7.885-1.107c-0.821-0.108-1.399-0.862-1.291-1.684s0.868-1.397,1.684-1.291
			c2.69,0.355,5.36,0.73,7.936,1.115c0.819,0.122,1.384,0.885,1.262,1.705C259.198,10.143,258.558,10.677,257.828,10.677z
			 M58.804,9.569c-0.697,0-1.321-0.488-1.468-1.198c-0.167-0.811,0.355-1.604,1.167-1.772c2.521-0.52,5.184-1.01,7.913-1.457
			c0.821-0.129,1.589,0.421,1.723,1.238c0.134,0.817-0.421,1.589-1.238,1.723c-2.689,0.44-5.311,0.922-7.792,1.434
			C59.006,9.559,58.904,9.569,58.804,9.569z M241.99,8.581c-0.059,0-0.117-0.003-0.176-0.01c-2.634-0.308-5.279-0.598-7.927-0.871
			c-0.824-0.085-1.423-0.822-1.338-1.646c0.086-0.825,0.822-1.426,1.646-1.338c2.661,0.275,5.318,0.566,7.966,0.876
			c0.823,0.096,1.412,0.841,1.316,1.664C243.388,8.019,242.74,8.581,241.99,8.581z M74.558,6.975c-0.743,0-1.389-0.552-1.486-1.309
			c-0.105-0.822,0.475-1.573,1.296-1.679c2.568-0.331,5.252-0.636,7.977-0.908c0.827-0.072,1.56,0.52,1.642,1.344
			c0.082,0.824-0.52,1.559-1.344,1.642c-2.696,0.269-5.352,0.571-7.892,0.898C74.686,6.971,74.622,6.975,74.558,6.975z
			 M226.094,6.938c-0.046,0-0.091-0.002-0.137-0.006c-2.653-0.24-5.301-0.463-7.935-0.67c-0.826-0.065-1.443-0.787-1.378-1.613
			c0.064-0.827,0.798-1.437,1.612-1.378c2.646,0.208,5.305,0.432,7.97,0.673c0.825,0.075,1.434,0.804,1.359,1.629
			C227.516,6.353,226.862,6.938,226.094,6.938z M210.173,5.687c-0.033,0-0.067-0.001-0.102-0.003
			c-2.679-0.18-5.334-0.342-7.958-0.489c-0.827-0.046-1.46-0.754-1.414-1.581c0.047-0.827,0.768-1.451,1.582-1.414
			c2.634,0.147,5.301,0.311,7.991,0.491c0.826,0.055,1.451,0.771,1.396,1.597C211.616,5.08,210.957,5.687,210.173,5.687z
			 M90.447,5.376c-0.777,0-1.435-0.599-1.494-1.386c-0.063-0.826,0.556-1.547,1.382-1.609c2.577-0.196,5.268-0.372,7.996-0.524
			c0.826-0.034,1.535,0.586,1.581,1.414c0.046,0.827-0.587,1.535-1.414,1.581c-2.708,0.151-5.378,0.326-7.935,0.52
			C90.524,5.375,90.485,5.376,90.447,5.376z M194.22,4.795c-0.022,0-0.045,0-0.067-0.001c-2.706-0.121-5.365-0.224-7.967-0.31
			c-0.828-0.027-1.477-0.721-1.449-1.549c0.027-0.829,0.732-1.472,1.549-1.449c2.613,0.086,5.283,0.19,8,0.311
			c0.827,0.037,1.468,0.738,1.432,1.565C195.682,4.167,195.018,4.795,194.22,4.795z M106.389,4.479
			c-0.802,0-1.466-0.634-1.498-1.442c-0.032-0.828,0.613-1.525,1.441-1.557c2.671-0.104,5.342-0.187,8.006-0.253
			c0.843-0.038,1.516,0.634,1.537,1.462s-0.634,1.516-1.462,1.537c-2.649,0.066-5.306,0.148-7.964,0.252
			C106.429,4.478,106.409,4.479,106.389,4.479z M178.25,4.269c-0.01,0-0.021,0-0.032,0c-2.746-0.057-5.406-0.093-7.968-0.109
			c-0.828-0.005-1.496-0.681-1.49-1.51c0.005-0.825,0.676-1.49,1.5-1.49c0.003,0,0.006,0,0.01,0c2.575,0.017,5.25,0.053,8.011,0.11
			c0.828,0.017,1.486,0.703,1.468,1.531C179.732,3.618,179.064,4.269,178.25,4.269z M162.276,4.138c-0.002,0-0.004,0-0.006,0
			c-2.592-0.011-5.257-0.028-7.986-0.048c-0.829-0.006-1.495-0.682-1.489-1.511s0.675-1.494,1.511-1.489
			c2.726,0.02,5.388,0.037,7.977,0.048c0.828,0.003,1.497,0.678,1.494,1.506C163.772,3.471,163.102,4.138,162.276,4.138z
			 M122.36,4.075c-0.819,0-1.488-0.659-1.5-1.48c-0.011-0.829,0.652-1.509,1.48-1.52c2.685-0.036,5.354-0.058,8-0.069
			c0.002,0,0.005,0,0.007,0c0.826,0,1.496,0.667,1.5,1.493c0.004,0.829-0.665,1.503-1.493,1.507
			c-2.637,0.012-5.297,0.034-7.973,0.069C122.374,4.075,122.367,4.075,122.36,4.075z M146.313,4.035c-0.003,0-0.006,0-0.009,0
			c-2.617-0.016-5.279-0.029-7.977-0.035c-0.828-0.002-1.499-0.675-1.497-1.503c0.002-0.827,0.673-1.497,1.5-1.497
			c0.001,0,0.002,0,0.003,0c2.701,0.006,5.367,0.019,7.988,0.035c0.828,0.005,1.496,0.681,1.491,1.509
			C147.808,3.37,147.137,4.035,146.313,4.035z"/>
		<path fill="#D6D6D8" d="M318.723,235.659c-0.245,0.043-0.503,0.023-0.751-0.063c-0.566-0.199-13.986-4.965-23.552-11.867
			c-9.912-7.149-24.092-14.337-24.234-14.41c-0.739-0.374-1.036-1.275-0.664-2.015c0.374-0.739,1.279-1.036,2.018-0.663
			c0.143,0.072,14.526,7.362,24.637,14.656c9.217,6.65,22.656,11.422,22.79,11.471c0.781,0.274,1.19,1.131,0.917,1.912
			C319.696,235.21,319.242,235.57,318.723,235.659z"/>
	</g>
	<g>
		<path fill="#6ED2E6" d="M160,229.691l-1.588-0.005c-0.829-0.005-1.496-0.68-1.492-1.509c0.004-0.825,0.675-1.491,1.5-1.491
			c0.002,0,0.005,0,0.008,0l1.571,0.005c2.1,0,4.242-0.024,6.367-0.072c0.848,0.028,1.515,0.639,1.533,1.467
			c0.019,0.828-0.638,1.515-1.466,1.533C164.288,229.667,162.123,229.691,160,229.691z M150.446,229.519
			c-0.019,0-0.038,0-0.056-0.001c-2.703-0.1-5.4-0.245-8.018-0.434c-0.826-0.06-1.448-0.777-1.389-1.604s0.778-1.453,1.604-1.389
			c2.583,0.186,5.246,0.329,7.914,0.428c0.828,0.03,1.474,0.727,1.444,1.555C151.914,228.883,151.249,229.519,150.446,229.519z
			 M174.376,229.339c-0.796,0-1.459-0.625-1.497-1.429c-0.04-0.827,0.599-1.53,1.427-1.569c1.182-0.057,2.375-0.12,3.581-0.189
			c1.448-0.084,2.897-0.179,4.348-0.286c0.839-0.067,1.545,0.561,1.606,1.386c0.061,0.826-0.56,1.546-1.386,1.606
			c-1.467,0.107-2.932,0.204-4.395,0.288c-1.215,0.071-2.419,0.135-3.611,0.191C174.424,229.338,174.4,229.339,174.376,229.339z
			 M134.537,228.365c-0.055,0-0.111-0.003-0.167-0.009c-2.705-0.301-5.387-0.656-7.972-1.056c-0.818-0.127-1.379-0.894-1.253-1.712
			c0.126-0.819,0.892-1.375,1.712-1.253c2.542,0.394,5.182,0.743,7.844,1.038c0.823,0.092,1.417,0.833,1.325,1.656
			C135.941,227.798,135.291,228.365,134.537,228.365z M190.308,228.166c-0.761,0-1.413-0.576-1.491-1.35
			c-0.083-0.824,0.518-1.56,1.342-1.643c2.617-0.264,5.278-0.567,7.912-0.903c0.824-0.096,1.573,0.477,1.678,1.299
			c0.104,0.821-0.477,1.572-1.299,1.678c-2.659,0.339-5.348,0.646-7.99,0.911C190.409,228.164,190.358,228.166,190.308,228.166z
			 M206.177,226.142c-0.728,0-1.366-0.53-1.48-1.271c-0.126-0.819,0.436-1.585,1.254-1.711c2.589-0.398,5.228-0.841,7.843-1.313
			c0.81-0.141,1.595,0.394,1.743,1.21c0.146,0.815-0.395,1.596-1.21,1.742c-2.64,0.478-5.305,0.924-7.919,1.326
			C206.331,226.136,206.253,226.142,206.177,226.142z M118.777,225.911c-0.1,0-0.201-0.01-0.302-0.03
			c-2.661-0.544-5.301-1.155-7.848-1.819c-0.802-0.208-1.282-1.027-1.074-1.829c0.208-0.801,1.027-1.283,1.83-1.073
			c2.496,0.649,5.084,1.249,7.693,1.782c0.812,0.166,1.335,0.958,1.169,1.771C120.101,225.422,119.475,225.911,118.777,225.911z
			 M221.897,223.3c-0.695,0-1.319-0.486-1.467-1.195c-0.168-0.811,0.353-1.605,1.164-1.773c2.581-0.536,5.188-1.112,7.751-1.713
			c0.809-0.19,1.613,0.311,1.803,1.117s-0.311,1.614-1.117,1.803c-2.588,0.607-5.221,1.189-7.827,1.73
			C222.101,223.29,221.999,223.3,221.897,223.3z M103.346,221.883c-0.153,0-0.308-0.023-0.461-0.072
			c-2.565-0.828-5.123-1.74-7.6-2.711c-0.771-0.302-1.151-1.173-0.849-1.943c0.302-0.771,1.171-1.153,1.944-0.85
			c2.42,0.948,4.919,1.84,7.426,2.648c0.789,0.255,1.222,1.1,0.967,1.889C104.568,221.479,103.979,221.883,103.346,221.883z
			 M237.422,219.656c-0.665,0-1.273-0.445-1.45-1.119c-0.21-0.802,0.27-1.621,1.07-1.832c2.546-0.668,5.116-1.379,7.639-2.112
			c0.795-0.233,1.628,0.227,1.859,1.021c0.231,0.796-0.227,1.628-1.021,1.859c-2.548,0.741-5.144,1.459-7.715,2.134
			C237.676,219.641,237.548,219.656,237.422,219.656z M88.504,216.054c-0.213,0-0.43-0.045-0.636-0.142
			c-2.415-1.133-4.836-2.364-7.195-3.662c-0.726-0.399-0.99-1.312-0.591-2.037c0.399-0.727,1.31-0.991,2.038-0.592
			c2.303,1.267,4.665,2.47,7.022,3.574c0.75,0.352,1.073,1.245,0.721,1.995C89.608,215.734,89.068,216.054,88.504,216.054z
			 M252.738,215.198c-0.635,0-1.224-0.405-1.428-1.041c-0.254-0.789,0.181-1.634,0.969-1.887c2.528-0.812,5.062-1.664,7.529-2.533
			c0.785-0.272,1.638,0.136,1.913,0.917s-0.136,1.638-0.917,1.913c-2.493,0.878-5.054,1.739-7.607,2.559
			C253.043,215.176,252.889,215.198,252.738,215.198z M267.798,209.891c-0.602,0-1.17-0.365-1.399-0.961
			c-0.298-0.772,0.087-1.641,0.86-1.938c2.476-0.954,4.952-1.952,7.363-2.968c0.769-0.322,1.643,0.038,1.965,0.801
			c0.321,0.764-0.037,1.643-0.801,1.965c-2.438,1.026-4.945,2.036-7.449,3.001C268.161,209.858,267.978,209.891,267.798,209.891z
			 M74.533,208.369c-0.275,0-0.553-0.075-0.803-0.234c-2.207-1.401-4.453-2.922-6.676-4.52c-0.673-0.482-0.827-1.42-0.343-2.093
			s1.421-0.826,2.093-0.343c2.177,1.563,4.376,3.052,6.535,4.423c0.699,0.444,0.906,1.372,0.462,2.071
			C75.515,208.123,75.029,208.369,74.533,208.369z M282.514,203.69c-0.567,0-1.11-0.323-1.363-0.873
			c-0.347-0.753-0.018-1.644,0.735-1.989c2.425-1.116,4.83-2.272,7.149-3.438c0.738-0.37,1.641-0.073,2.014,0.668
			c0.371,0.74,0.072,1.642-0.668,2.014c-2.349,1.18-4.785,2.351-7.241,3.48C282.937,203.646,282.724,203.69,282.514,203.69z
			 M61.569,199.078c-0.327,0-0.657-0.106-0.933-0.326c-1.226-0.975-2.432-1.959-3.623-2.951c-0.84-0.699-1.705-1.459-2.569-2.257
			c-0.609-0.562-0.647-1.511-0.085-2.12c0.563-0.608,1.511-0.645,2.12-0.085c0.828,0.764,1.654,1.489,2.455,2.157
			c1.173,0.977,2.362,1.947,3.57,2.908c0.648,0.516,0.756,1.459,0.24,2.107C62.448,198.884,62.01,199.078,61.569,199.078z
			 M296.777,196.518c-0.529,0-1.042-0.28-1.315-0.777c-0.399-0.726-0.134-1.638,0.592-2.037c2.336-1.284,4.646-2.614,6.867-3.953
			c0.706-0.429,1.63-0.202,2.059,0.51c0.428,0.709,0.2,1.631-0.51,2.059c-2.255,1.36-4.601,2.711-6.971,4.014
			C297.269,196.458,297.022,196.518,296.777,196.518z M49.834,188.276c-0.405,0-0.808-0.163-1.104-0.484
			c-1.727-1.875-3.506-3.926-5.289-6.096c-0.526-0.64-0.433-1.585,0.207-2.111c0.639-0.527,1.585-0.434,2.111,0.207
			c1.747,2.126,3.489,4.135,5.178,5.969c0.561,0.609,0.522,1.558-0.087,2.119C50.562,188.146,50.198,188.276,49.834,188.276z
			 M310.442,188.265c-0.485,0-0.962-0.235-1.25-0.67c-0.459-0.69-0.271-1.621,0.419-2.079c2.224-1.478,4.404-3.003,6.482-4.533
			c0.667-0.491,1.606-0.35,2.098,0.318c0.491,0.667,0.349,1.606-0.318,2.098c-2.117,1.559-4.338,3.111-6.602,4.615
			C311.016,188.184,310.727,188.265,310.442,188.265z M323.285,178.79c-0.434,0-0.863-0.187-1.159-0.547
			c-0.526-0.641-0.435-1.586,0.205-2.111c2.06-1.694,4.059-3.44,5.943-5.189c0.604-0.563,1.556-0.531,2.119,0.078
			c0.564,0.606,0.529,1.556-0.078,2.119c-1.928,1.791-3.973,3.577-6.078,5.309C323.958,178.678,323.62,178.79,323.285,178.79z
			 M39.673,175.96c-0.456,0-0.906-0.207-1.201-0.6c-1.568-2.09-3.15-4.285-4.702-6.524c-0.472-0.681-0.302-1.615,0.378-2.088
			c0.682-0.47,1.616-0.302,2.087,0.379c1.53,2.209,3.09,4.373,4.635,6.433c0.497,0.663,0.363,1.603-0.299,2.101
			C40.303,175.862,39.987,175.96,39.673,175.96z M334.956,167.921c-0.368,0-0.737-0.135-1.026-0.406
			c-0.604-0.567-0.634-1.517-0.067-2.12c1.83-1.949,3.568-3.943,5.165-5.929c0.521-0.646,1.465-0.747,2.109-0.229
			c0.646,0.52,0.747,1.464,0.229,2.109c-1.646,2.044-3.434,4.097-5.315,6.101C335.753,167.762,335.355,167.921,334.956,167.921z
			 M30.576,162.836c-0.494,0-0.977-0.243-1.264-0.689c-1.444-2.249-2.866-4.548-4.226-6.833c-0.424-0.712-0.19-1.633,0.522-2.057
			c0.712-0.422,1.632-0.188,2.056,0.521c1.343,2.257,2.747,4.526,4.172,6.747c0.448,0.697,0.245,1.625-0.452,2.072
			C31.134,162.759,30.854,162.836,30.576,162.836z M344.923,155.485c-0.287,0-0.577-0.082-0.834-0.254
			c-0.688-0.461-0.872-1.393-0.411-2.081c1.477-2.206,2.833-4.46,4.03-6.7c0.391-0.731,1.303-1.006,2.03-0.616
			c0.73,0.391,1.007,1.3,0.616,2.03c-1.244,2.327-2.652,4.668-4.185,6.956C345.881,155.252,345.407,155.485,344.923,155.485z
			 M22.41,149.111c-0.53,0-1.043-0.281-1.316-0.778c-1.3-2.368-2.56-4.763-3.741-7.117c-0.372-0.74-0.073-1.642,0.667-2.014
			c0.739-0.369,1.642-0.072,2.013,0.668c1.166,2.321,2.407,4.683,3.69,7.02c0.398,0.726,0.133,1.638-0.593,2.036
			C22.902,149.052,22.654,149.111,22.41,149.111z M352.401,141.441c-0.186,0-0.374-0.034-0.557-0.107
			c-0.77-0.307-1.144-1.18-0.836-1.949c0.973-2.434,1.797-4.918,2.45-7.383c0.213-0.8,1.032-1.278,1.835-1.065
			c0.801,0.213,1.277,1.034,1.065,1.835c-0.685,2.581-1.548,5.181-2.565,7.727C353.559,141.085,352.996,141.441,352.401,141.441z
			 M15.257,134.835c-0.572,0-1.118-0.328-1.368-0.883c-1.134-2.512-2.19-5.009-3.141-7.421c-0.304-0.771,0.075-1.642,0.846-1.945
			c0.77-0.304,1.642,0.075,1.945,0.846c0.933,2.367,1.971,4.818,3.084,7.286c0.341,0.755,0.005,1.644-0.75,1.984
			C15.673,134.793,15.463,134.835,15.257,134.835z M356.456,126.084c-0.065,0-0.131-0.004-0.197-0.013
			c-0.822-0.108-1.4-0.862-1.292-1.683c0.336-2.554,0.507-5.158,0.507-7.74c0-0.829,0.672-1.5,1.5-1.5s1.5,0.671,1.5,1.5
			c0,2.712-0.179,5.448-0.532,8.131C357.841,125.535,357.197,126.084,356.456,126.084z M9.429,119.973
			c-0.631,0-1.219-0.402-1.425-1.035c-0.542-1.659-1.039-3.305-1.477-4.891c-0.263-0.953-0.52-1.907-0.77-2.861
			c-0.21-0.801,0.27-1.621,1.071-1.832c0.802-0.208,1.621,0.27,1.832,1.071c0.247,0.942,0.5,1.884,0.759,2.824
			c0.425,1.541,0.909,3.142,1.437,4.757c0.257,0.787-0.172,1.634-0.96,1.892C9.741,119.949,9.584,119.973,9.429,119.973z
			 M356.898,110.174c-0.814,0-1.482-0.652-1.499-1.47c-0.057-2.818-0.146-5.415-0.275-7.937c-0.042-0.827,0.595-1.532,1.422-1.574
			c0.825-0.035,1.532,0.595,1.574,1.422c0.13,2.553,0.222,5.179,0.279,8.029c0.017,0.828-0.642,1.513-1.47,1.53
			C356.919,110.174,356.909,110.174,356.898,110.174z M5.326,104.549c-0.688,0-1.308-0.476-1.463-1.175
			c-0.592-2.665-1.123-5.319-1.579-7.89c-0.145-0.815,0.399-1.594,1.215-1.739c0.819-0.142,1.595,0.399,1.739,1.215
			c0.448,2.528,0.971,5.14,1.554,7.763c0.18,0.809-0.331,1.61-1.139,1.79C5.543,104.537,5.434,104.549,5.326,104.549z
			 M356.057,94.227c-0.767,0-1.42-0.584-1.492-1.363c-0.249-2.713-0.56-5.354-0.922-7.848c-0.119-0.82,0.449-1.581,1.269-1.7
			c0.815-0.119,1.581,0.449,1.7,1.269c0.37,2.546,0.687,5.239,0.941,8.005c0.075,0.825-0.532,1.555-1.356,1.631
			C356.15,94.225,356.103,94.227,356.057,94.227z M2.556,88.833c-0.745,0-1.39-0.554-1.486-1.312
			c-0.345-2.726-0.61-5.427-0.787-8.029c-0.056-0.827,0.568-1.542,1.395-1.599c0.827-0.059,1.542,0.568,1.599,1.395
			c0.173,2.544,0.433,5.188,0.771,7.856c0.104,0.822-0.478,1.573-1.3,1.677C2.683,88.829,2.619,88.833,2.556,88.833z
			 M353.736,78.445c-0.693,0-1.315-0.484-1.466-1.189c-0.558-2.632-1.202-5.197-1.915-7.624c-0.233-0.795,0.222-1.628,1.017-1.862
			c0.796-0.231,1.629,0.22,1.862,1.016c0.734,2.5,1.397,5.141,1.972,7.848c0.171,0.811-0.347,1.606-1.157,1.778
			C353.944,78.434,353.839,78.445,353.736,78.445z M1.5,72.912c-0.829,0-1.5-0.668-1.5-1.497v-0.006
			c0-2.762,0.106-5.482,0.317-8.087c0.067-0.826,0.793-1.45,1.616-1.375c0.826,0.067,1.441,0.79,1.375,1.616
			C3.104,66.087,3,68.727,3,71.409C3,72.237,2.329,72.912,1.5,72.912z M349.21,63.164c-0.598,0-1.162-0.36-1.396-0.95
			c-0.973-2.463-2.061-4.859-3.233-7.121c-0.381-0.735-0.094-1.641,0.642-2.022c0.735-0.383,1.64-0.095,2.022,0.641
			c1.219,2.352,2.35,4.842,3.36,7.4c0.304,0.771-0.074,1.642-0.845,1.946C349.581,63.129,349.394,63.164,349.21,63.164z
			 M2.825,57.028c-0.088,0-0.176-0.008-0.265-0.024c-0.816-0.146-1.359-0.924-1.213-1.74c0.487-2.735,1.116-5.402,1.869-7.929
			c0.236-0.793,1.069-1.245,1.866-1.009c0.794,0.236,1.246,1.072,1.009,1.866c-0.721,2.418-1.323,4.975-1.791,7.599
			C4.17,56.517,3.538,57.028,2.825,57.028z M341.86,49.035c-0.483,0-0.958-0.233-1.247-0.666c-1.448-2.163-3.031-4.255-4.703-6.219
			c-0.537-0.631-0.462-1.578,0.169-2.115c0.631-0.536,1.579-0.459,2.114,0.169c1.748,2.052,3.4,4.237,4.912,6.496
			c0.461,0.688,0.276,1.62-0.411,2.081C342.437,48.953,342.147,49.035,341.86,49.035z M7.416,41.784
			c-0.205,0-0.413-0.042-0.612-0.131c-0.756-0.339-1.095-1.226-0.756-1.982c1.129-2.522,2.435-4.95,3.88-7.215
			c0.446-0.699,1.372-0.904,2.071-0.458c0.699,0.446,0.903,1.373,0.458,2.071c-1.366,2.142-2.602,4.439-3.671,6.828
			C8.537,41.453,7.989,41.784,7.416,41.784z M331.544,36.919c-0.367,0-0.734-0.133-1.023-0.403c-1.872-1.747-3.889-3.43-5.992-5.002
			c-0.664-0.496-0.8-1.436-0.304-2.1c0.495-0.664,1.437-0.8,2.099-0.304c2.191,1.637,4.292,3.391,6.244,5.212
			c0.605,0.565,0.639,1.514,0.073,2.12C332.346,36.759,331.946,36.919,331.544,36.919z M16.039,28.449
			c-0.368,0-0.736-0.134-1.026-0.406c-0.604-0.567-0.634-1.516-0.068-2.121c1.805-1.923,3.874-3.761,6.151-5.461
			c0.664-0.494,1.604-0.359,2.1,0.305c0.496,0.664,0.359,1.604-0.305,2.1c-2.136,1.595-4.073,3.313-5.757,5.109
			C16.838,28.29,16.439,28.449,16.039,28.449z M318.807,27.37c-0.264,0-0.531-0.069-0.773-0.215
			c-1.832-1.104-3.763-2.17-5.736-3.167c-0.376-0.189-0.757-0.377-1.146-0.564c-0.747-0.358-1.062-1.255-0.703-2.001
			c0.359-0.746,1.257-1.061,2.002-0.703c0.406,0.195,0.807,0.392,1.198,0.59c2.041,1.031,4.037,2.133,5.934,3.275
			c0.709,0.428,0.938,1.35,0.511,2.059C319.811,27.111,319.315,27.37,318.807,27.37z M304.443,20.477
			c-0.174,0-0.35-0.03-0.522-0.094c-2.309-0.857-4.827-1.701-7.485-2.507c-0.793-0.241-1.24-1.079-1-1.871
			c0.24-0.793,1.078-1.24,1.871-1c2.716,0.825,5.293,1.688,7.659,2.566c0.776,0.288,1.172,1.152,0.884,1.928
			C305.625,20.103,305.052,20.477,304.443,20.477z M28.708,18.866c-0.529,0-1.042-0.28-1.315-0.776
			c-0.4-0.726-0.136-1.638,0.589-2.038c2.262-1.248,4.727-2.436,7.326-3.532c0.763-0.32,1.644,0.036,1.965,0.799
			c0.322,0.764-0.036,1.643-0.799,1.965c-2.503,1.055-4.873,2.197-7.043,3.395C29.201,18.806,28.952,18.866,28.708,18.866z
			 M289.176,15.798c-0.123,0-0.248-0.015-0.373-0.047c-2.458-0.628-5.057-1.245-7.723-1.833c-0.81-0.178-1.32-0.979-1.143-1.788
			c0.179-0.808,0.977-1.323,1.787-1.142c2.699,0.594,5.331,1.219,7.822,1.856c0.802,0.205,1.286,1.022,1.081,1.825
			C290.456,15.347,289.845,15.798,289.176,15.798z M43.368,12.616c-0.63,0-1.217-0.4-1.425-1.032
			c-0.259-0.787,0.169-1.635,0.956-1.894c2.447-0.805,5.055-1.569,7.752-2.27c0.8-0.212,1.621,0.272,1.829,1.075
			c0.208,0.802-0.272,1.621-1.075,1.829c-2.635,0.685-5.182,1.43-7.569,2.216C43.682,12.591,43.523,12.616,43.368,12.616z
			 M273.581,12.345c-0.094,0-0.189-0.009-0.285-0.027c-2.52-0.484-5.153-0.958-7.829-1.41c-0.816-0.138-1.367-0.912-1.229-1.729
			c0.138-0.817,0.907-1.367,1.729-1.229c2.697,0.455,5.354,0.934,7.896,1.421c0.813,0.156,1.346,0.942,1.189,1.756
			C274.914,11.845,274.286,12.345,273.581,12.345z M257.828,9.677c-0.074,0-0.148-0.005-0.224-0.017
			c-2.558-0.382-5.211-0.754-7.885-1.107c-0.821-0.108-1.399-0.862-1.291-1.684s0.868-1.397,1.684-1.291
			c2.69,0.355,5.36,0.73,7.936,1.115c0.819,0.122,1.384,0.885,1.262,1.705C259.198,9.143,258.558,9.677,257.828,9.677z
			 M58.804,8.569c-0.697,0-1.321-0.488-1.468-1.198c-0.167-0.811,0.355-1.604,1.167-1.772c2.521-0.52,5.184-1.01,7.913-1.457
			c0.821-0.129,1.589,0.421,1.723,1.238c0.134,0.817-0.421,1.589-1.238,1.723c-2.689,0.44-5.311,0.922-7.792,1.434
			C59.006,8.559,58.904,8.569,58.804,8.569z M241.99,7.581c-0.059,0-0.117-0.003-0.176-0.01c-2.634-0.308-5.279-0.598-7.927-0.871
			c-0.824-0.085-1.423-0.822-1.338-1.646c0.086-0.825,0.822-1.426,1.646-1.338c2.661,0.275,5.318,0.566,7.966,0.876
			c0.823,0.096,1.412,0.841,1.316,1.664C243.388,7.019,242.74,7.581,241.99,7.581z M74.558,5.975c-0.743,0-1.389-0.552-1.486-1.309
			c-0.105-0.822,0.475-1.573,1.296-1.679c2.568-0.331,5.252-0.636,7.977-0.908c0.827-0.072,1.56,0.52,1.642,1.344
			c0.082,0.824-0.52,1.559-1.344,1.642c-2.696,0.269-5.352,0.571-7.892,0.898C74.686,5.971,74.622,5.975,74.558,5.975z
			 M226.094,5.938c-0.046,0-0.091-0.002-0.137-0.006c-2.653-0.24-5.301-0.463-7.935-0.67c-0.826-0.065-1.443-0.787-1.378-1.613
			c0.064-0.827,0.798-1.437,1.612-1.378c2.646,0.208,5.305,0.432,7.97,0.673c0.825,0.075,1.434,0.804,1.359,1.629
			C227.516,5.353,226.862,5.938,226.094,5.938z M210.173,4.687c-0.033,0-0.067-0.001-0.102-0.003
			c-2.679-0.18-5.334-0.342-7.958-0.489c-0.827-0.046-1.46-0.754-1.414-1.581c0.047-0.827,0.768-1.451,1.582-1.414
			c2.634,0.147,5.301,0.311,7.991,0.491c0.826,0.055,1.451,0.771,1.396,1.597C211.616,4.08,210.957,4.687,210.173,4.687z
			 M90.447,4.376c-0.777,0-1.435-0.599-1.494-1.386c-0.063-0.826,0.556-1.547,1.382-1.609c2.577-0.196,5.268-0.372,7.996-0.524
			c0.826-0.034,1.535,0.586,1.581,1.414c0.046,0.827-0.587,1.535-1.414,1.581c-2.708,0.151-5.378,0.326-7.935,0.52
			C90.524,4.375,90.485,4.376,90.447,4.376z M194.22,3.795c-0.022,0-0.045,0-0.067-0.001c-2.706-0.121-5.365-0.224-7.967-0.31
			c-0.828-0.027-1.477-0.721-1.449-1.549c0.027-0.829,0.732-1.472,1.549-1.449c2.613,0.086,5.283,0.19,8,0.311
			c0.827,0.037,1.468,0.738,1.432,1.565C195.682,3.167,195.018,3.795,194.22,3.795z M106.389,3.479
			c-0.802,0-1.466-0.634-1.498-1.442c-0.032-0.828,0.613-1.525,1.441-1.557c2.671-0.104,5.342-0.187,8.006-0.253
			c0.843-0.038,1.516,0.634,1.537,1.462s-0.634,1.516-1.462,1.537c-2.649,0.066-5.306,0.148-7.964,0.252
			C106.429,3.478,106.409,3.479,106.389,3.479z M178.25,3.269c-0.01,0-0.021,0-0.032,0c-2.746-0.057-5.406-0.093-7.968-0.109
			c-0.828-0.005-1.496-0.681-1.49-1.51c0.005-0.825,0.676-1.49,1.5-1.49c0.003,0,0.006,0,0.01,0c2.575,0.017,5.25,0.053,8.011,0.11
			c0.828,0.017,1.486,0.703,1.468,1.531C179.732,2.618,179.064,3.269,178.25,3.269z M162.276,3.138c-0.002,0-0.004,0-0.006,0
			c-2.592-0.011-5.257-0.028-7.986-0.048c-0.829-0.006-1.495-0.682-1.489-1.511s0.675-1.494,1.511-1.489
			c2.726,0.02,5.388,0.037,7.977,0.048c0.828,0.003,1.497,0.678,1.494,1.506C163.772,2.471,163.102,3.138,162.276,3.138z
			 M122.36,3.075c-0.819,0-1.488-0.659-1.5-1.48c-0.011-0.829,0.652-1.509,1.48-1.52c2.685-0.036,5.354-0.058,8-0.069
			c0.002,0,0.005,0,0.007,0c0.826,0,1.496,0.667,1.5,1.493c0.004,0.829-0.665,1.503-1.493,1.507
			c-2.637,0.012-5.297,0.034-7.973,0.069C122.374,3.075,122.367,3.075,122.36,3.075z M146.313,3.035c-0.003,0-0.006,0-0.009,0
			c-2.617-0.016-5.279-0.029-7.977-0.035c-0.828-0.002-1.499-0.675-1.497-1.503c0.002-0.827,0.673-1.497,1.5-1.497
			c0.001,0,0.002,0,0.003,0c2.701,0.006,5.367,0.019,7.988,0.035c0.828,0.005,1.496,0.681,1.491,1.509
			C147.808,2.37,147.137,3.035,146.313,3.035z"/>
		<path fill="#69D2E7" d="M318.723,234.659c-0.245,0.043-0.503,0.023-0.751-0.063c-0.566-0.199-13.986-4.965-23.552-11.867
			c-9.912-7.149-24.092-14.337-24.234-14.41c-0.739-0.374-1.036-1.275-0.664-2.015c0.374-0.739,1.279-1.036,2.018-0.663
			c0.143,0.072,14.526,7.362,24.637,14.656c9.217,6.65,22.656,11.422,22.79,11.471c0.781,0.274,1.19,1.131,0.917,1.912
			C319.696,234.21,319.242,234.57,318.723,234.659z"/>
	</g>
</g>
</svg>
