<?xml version="1.0" encoding="utf-8"?>
<!-- Generator: Adobe Illustrator 19.0.1, SVG Export Plug-In . SVG Version: 6.00 Build 0)  -->
<svg version="1.1" id="Layer_1" xmlns="http://www.w3.org/2000/svg" xmlns:xlink="http://www.w3.org/1999/xlink" x="0px" y="0px"
	 width="120.6px" height="100.5px" viewBox="-247.6 345.5 120.6 100.5" style="enable-background:new -247.6 345.5 120.6 100.5;"
	 xml:space="preserve">
<style type="text/css">
	.st0{fill:#FAFAFA;stroke:#E4CBA9;stroke-linecap:round;stroke-linejoin:round;stroke-miterlimit:10;}
	.st1{fill:none;stroke:#ED2224;stroke-width:4;stroke-linecap:round;stroke-linejoin:round;stroke-miterlimit:10;}
	.st2{fill:#8BC24C;}
	.st3{fill:#A3CF66;}
	.st4{fill:#64A644;}
	.st5{opacity:0.15;}
	.st6{fill:#FFFFFF;}
	.st7{fill:#538A3E;}
	.st8{fill:#426932;}
</style>
<g>
	<path class="st0" d="M-136,347c4.4,0,8,3.6,8,8v82c0,4.4-3.6,8-8,8h-102c-4.4,0-8-3.6-8-8v-82c0-4.4,3.6-8,8-8H-136L-136,347z"/>
	<line class="st1" x1="-190" y1="351.8" x2="-180.4" y2="427.6"/>
	<line class="st1" x1="-163" y1="356.7" x2="-205.6" y2="437.4"/>
	<line class="st1" x1="-167.2" y1="382.5" x2="-210" y2="419.1"/>
	<line class="st1" x1="-165.8" y1="374.2" x2="-213" y2="432.5"/>
	<line class="st1" x1="-144.4" y1="375" x2="-224.2" y2="419.1"/>
	<line class="st1" x1="-139.2" y1="390.2" x2="-229.4" y2="403.9"/>
	<line class="st1" x1="-213" y1="396.3" x2="-155.5" y2="402.5"/>
	<line class="st1" x1="-142" y1="414.3" x2="-205.6" y2="391.2"/>
	<line class="st1" x1="-147" y1="423.3" x2="-221.5" y2="370.8"/>
	<line class="st1" x1="-205.3" y1="356.6" x2="-163.2" y2="437.5"/>
	<line class="st1" x1="-171.4" y1="426.7" x2="-191" y2="370.8"/>
	<line class="st1" x1="-178.5" y1="369.4" x2="-192.4" y2="426.7"/>
	<line class="st1" x1="-158.4" y1="391.2" x2="-215.9" y2="404.7"/>
	<g id="Layer_3_2_">
		<g>
			<path class="st2" d="M-178.8,368.6L-178.8,368.6c2.6,1.3,4.3,4,4.4,7.4c0,1.5-0.1,1.7-1,3.5c0,0-0.5,1.1-1.2,1.5l0,0l0,0
				c0,0-0.9,1.1,0.7,2.1c1.3,0.8-3.8,2.6-6,2.8c-2.2-0.2-7.5-1.8-6.3-2.6c1.6-1,0.4-2.1,0.4-2.1l0,0c-0.7-0.3-1.3-1.9-1.3-1.9
				c-0.4-1.1-0.8-1.9-0.8-3.4c0-3.3,1.6-5.8,4.2-7.1l0,0c0-0.4,2.3-1.5,3.6-1.5C-180.9,367.1-178.8,368.2-178.8,368.6L-178.8,368.6z
				 M-191.2,388.9c0,0-2.4-4.1-5.2-3.3c-2.8,0.8-3.1,2.8-3.1,4.4c0,2.3,2.5,3.6,2.5,3.6C-195.5,391-191.2,388.9-191.2,388.9z
				 M-167.2,393.1c0,0,2.4-1.4,2.3-3.7c0-1.6-0.3-3.6-3.2-4.3c-2.8-0.7-5.1,3.5-5.1,3.5S-168.7,390.6-167.2,393.1z M-196.7,406.2
				c0,0-3.4,2.8-3.1,4.6c0.5,2.6,3.2,2.4,4.8,2.3c3.3-0.1,2.2-1.7,2.2-1.7S-195,408.6-196.7,406.2z M-170.8,411.1c0,0-1,1.7,2.3,1.7
				c1.6,0,4.3,0.2,4.7-2.5c0.3-1.8-3.2-4.5-3.2-4.5C-168.7,408.2-170.8,411.1-170.8,411.1z M-185.4,417.3c0,0,2.7,4.8,8.2,5.4
				c0.5,0.1,0.9-0.6,0.6-1c-1.9-2.8-1.7-4.6-1.7-4.6l-3.3-1.2L-185.4,417.3z"/>
			<path class="st3" d="M-187.4,380.5c-0.6-0.1-0.9-0.6-1.2-1.2c-1.3-2.9-1.3-4-1.1-4.3c1.5-1.9,2.6-0.3,4.3-2.8
				c1.3-1.8-0.3-2.7,0-2.8c0.3-0.2-0.1-0.7,0-0.8c1.2-0.9,3-1.1,3-1.1s1.8,0.2,3,1c0.1,0.1-0.3,0.6,0,0.8c0.2,0.2-1.3,1.1,0.1,2.8
				c1.8,2.4,2.9,0.9,4.4,2.7c0.2,0.4,0.2,1.4-1,4.4c-0.3,0.6-0.5,1-1.2,1.2c-1.7,0-3,1.1-5.2,1.1
				C-184.4,381.6-185.7,380.5-187.4,380.5z M-182.1,385.1c2.2,0.1,6.3-0.9,5.2-1.8c-1.4-1.1,0-2.2-0.2-2.2c-1.7,0-2.1,1.2-5,1.2
				c-2.9,0-3.3-1.1-5-1.1c-0.2-0.1,1.2,1-0.2,2.2C-188.5,384.5-184.3,385.3-182.1,385.1z M-193.1,390.5c0.8-0.9,1.5-1.3,1.5-1.3
				s-2.8-4-4.7-3.1c-0.6,0.3-0.9,0.5-1.3,0.8L-193.1,390.5z M-166.8,386.5c-0.3-0.3-0.6-0.5-1.2-0.8c-1.8-0.9-4.6,3.1-4.6,3.1
				s0.7,0.4,1.5,1.3L-166.8,386.5z M-196.3,407.6c-0.8-0.8,0,0.4-0.6-0.6c0,0-3.1,2.5-2.2,3.8c0.1,0.1,0.4,0.5,0.7,0.1L-196.3,407.6
				z M-165.3,410.5c0.4,0.4,0.6,0,0.7-0.1c0.9-1.4-2.3-3.8-2.3-3.8c-0.6,0.9,0.1-0.2-0.6,0.6L-165.3,410.5z M-182.5,419.6
				c1.1,1.2,4,2.7,4.4,2.5c0.3-0.1-2-1.1-3.2-2.3c-1.4-1.4-1.6-3.1-1.6-3.1l-1.3,0.3C-184.2,417-183.4,418.6-182.5,419.6z"/>
			<g id="shell">
				<g>
					<path class="st4" d="M-181.6,408.2h-2.9c-0.8,0-1.8-0.5-2.1-1.2l-3.1-5.5c-0.4-0.6-0.4-1.7,0-2.4l3-5.7
						c0.3-0.7,1.3-1.3,2.1-1.3h2.9h2.3c0.8,0,1.8,0.6,2.1,1.3l3.1,5.5c0.4,0.6,0.4,1.7,0,2.4l-3,5.7c-0.3,0.7-1.3,1.2-2.1,1.3
						L-181.6,408.2"/>
					<path class="st4" d="M-181.9,389.9h-2.9c-0.8,0-1.9-0.2-2.4-0.8l-2.6-2.9c-0.5-0.6-0.8-1.1-0.6-1.2c0,0,0.1,0,0.3-0.1
						c2.4-1.6,3.7,1.1,8.1,1c3.6-0.1,5.3-2.8,7.8-1.2c0.2,0.1,0.1,0.1,0.1,0.1c0.2,0.1-0.1,0.7-0.6,1.3l-2.6,2.8
						c-0.5,0.6-1.6,0.8-2.4,0.8L-181.9,389.9L-181.9,389.9z"/>
					<path class="st4" d="M-181.5,415.7c-1.5,0-2.5,0.5-3.8,0.2c-1.4-0.4-2.8-1-2.8-1c-0.7-0.4-0.9-1.1-0.5-1.7l1.8-2.5
						c0.4-0.6,1.4-1,2.2-1h2.9h2.2c0.8,0,1.8,0.4,2.3,1l1.9,2.5c0.5,0.6,0.3,1.4-0.4,1.7c0,0-1.1,0.7-2.5,1.1
						C-179.3,416.2-180.8,415.7-181.5,415.7z"/>
					<path class="st4" d="M-173.1,387.5c0.5-0.6,1-0.9,1.1-0.8c0,0,0,0,0.1,0.1c0.9,0.8,0.2,2.5,0.9,3.5c0.6,0.9,2.6,1.2,3,2.2
						c0.8,2,1.2,5.2,1.2,5.2c0.1,0.7-0.5,1.4-1.3,1.4h-2.6c-0.8,0-1.7-0.6-2.1-1.2l-2.9-5.5c-0.4-0.6-0.2-1.7,0.2-2.3L-173.1,387.5z
						"/>
					<path class="st4" d="M-189,390.5c0.5,0.6,0.6,1.6,0.3,2.2l-2.8,5.6c-0.3,0.7-1.3,1.3-2.1,1.3h-2.6c-0.8,0-1.4-0.7-1.3-1.4
						c0,0,0.3-3.2,1.1-5.2c0.4-1,2.4-1.4,2.9-2.3c0.7-1.1,0-2.7,0.8-3.6c0.1-0.1,0.1-0.1,0.1-0.1c0.1-0.1,0.7,0.2,1.2,0.8
						L-189,390.5z"/>
					<path class="st4" d="M-188.5,407.4c0.4,0.6,0.3,1.7-0.1,2.3l-1.7,2.3c-0.4,0.6-1.1,0.9-1.4,0.6c0,0,0,0-0.3-0.3
						c-0.9-0.8-0.3-2.4-1.2-3.5c-1.1-1.3-2.5-1.2-2.9-2.3c-0.7-1.6-1.1-3.6-1.1-3.6c-0.1-0.7,0.4-1.1,1.2-1.1h2.5
						c0.8,0,1.8,0.3,2.1,0.9L-188.5,407.4z"/>
					<path class="st4" d="M-172.7,402.4c0.4-0.6,1.3-1,2.1-1h2.5c0.8,0,1.4,0.4,1.2,1.1c0,0-0.4,2.1-1,3.7c-0.4,1.1-1.8,1-2.9,2.3
						c-0.9,1.2-0.2,2.7-1.1,3.5c-0.3,0.3-0.3,0.3-0.3,0.3c-0.3,0.3-1,0-1.4-0.6l-1.7-2.3c-0.5-0.6-0.5-1.5-0.2-2.2L-172.7,402.4z"/>
				</g>
				<g class="st5">
					<path class="st6" d="M-181.1,408.7h-2.9c-0.8,0-1.8-0.5-2.1-1.2l-3.1-5.5c-0.4-0.6-0.4-1.7,0-2.4l3-5.7
						c0.3-0.7,1.3-1.3,2.1-1.3h2.9h2.3c0.8,0,1.8,0.6,2.1,1.3l3.1,5.5c0.4,0.6,0.4,1.7,0,2.4l-3,5.7c-0.3,0.7-1.3,1.2-2.1,1.3
						L-181.1,408.7"/>
					<path class="st6" d="M-181.3,390.5h-2.9c-0.8,0-1.9-0.2-2.4-0.8l-2.6-2.9c-0.5-0.6-0.8-1.1-0.6-1.2c0,0,0.1,0,0.3-0.1
						c2.4-1.6,3.7,1.1,8.1,1c3.6-0.1,5.3-2.8,7.8-1.2c0.2,0.1,0.1,0.1,0.1,0.1c0.2,0.1-0.1,0.7-0.6,1.3l-2.6,2.8
						c-0.5,0.6-1.6,0.8-2.4,0.8L-181.3,390.5L-181.3,390.5z"/>
					<path class="st6" d="M-180.9,416.2c-1.5,0-2.5,0.5-3.8,0.2c-1.4-0.4-2.8-1-2.8-1c-0.7-0.4-0.9-1.1-0.5-1.7l1.8-2.5
						c0.4-0.6,1.4-1,2.2-1h2.9h2.2c0.8,0,1.8,0.4,2.3,1l1.9,2.5c0.5,0.6,0.3,1.4-0.4,1.7c0,0-1.1,0.7-2.5,1.1
						C-178.8,416.7-180.2,416.2-180.9,416.2z"/>
					<path class="st6" d="M-172.6,388c0.5-0.6,1-0.9,1.1-0.8c0,0,0,0,0.1,0.1c0.9,0.8,0.2,2.5,0.9,3.5c0.6,0.9,2.6,1.2,3,2.2
						c0.8,2,1.2,5.2,1.2,5.2c0.1,0.7-0.5,1.4-1.3,1.4h-2.6c-0.8,0-1.7-0.6-2.1-1.2l-2.8-5.3c-0.4-0.6-0.2-1.7,0.2-2.3L-172.6,388z"
						/>
					<path class="st6" d="M-188.4,391c0.5,0.6,0.6,1.6,0.3,2.2l-2.8,5.6c-0.3,0.7-1.3,1.3-2.1,1.3h-2.6c-0.8,0-1.4-0.7-1.3-1.4
						c0,0,0.3-3.2,1.1-5.2c0.4-1,2.4-1.4,2.9-2.3c0.7-1.1,0-2.7,0.8-3.6c0.1-0.1,0.1-0.1,0.1-0.1c0.1-0.1,0.7,0.2,1.2,0.8
						L-188.4,391z"/>
					<path class="st6" d="M-187.9,407.9c0.4,0.6,0.3,1.7-0.1,2.3l-1.7,2.3c-0.4,0.6-1.1,0.9-1.4,0.6c0,0,0,0-0.3-0.3
						c-0.9-0.8-0.3-2.4-1.2-3.5c-1.1-1.3-2.5-1.2-2.9-2.3c-0.7-1.6-1.1-3.6-1.1-3.6c-0.1-0.7,0.4-1.1,1.2-1.1h2.5
						c0.8,0,1.8,0.3,2.1,0.9L-187.9,407.9z"/>
					<path class="st6" d="M-172.1,403c0.4-0.6,1.3-1,2.1-1h2.5c0.8,0,1.4,0.4,1.2,1.1c0,0-0.4,2.1-1,3.8c-0.4,1.1-1.8,1-2.9,2.3
						c-0.9,1.2-0.2,2.7-1.1,3.5c-0.3,0.3-0.3,0.3-0.3,0.3c-0.3,0.3-1,0-1.4-0.6l-1.7-2.3c-0.5-0.6-0.5-1.5-0.2-2.2L-172.1,403z"/>
				</g>
				<path class="st7" d="M-181.5,417.1c0.7,0,2.3,0.8,3.6,0.4c2.8-0.7,5.3-2.2,7.4-4.1c1-0.9,0-2.3,1.2-3.8c1.7-2.2,2.9-1.8,3.4-3.1
					c0.9-2.2,1.3-4.7,1.3-7.3c0-2.5-0.6-4.9-1.5-7c-0.5-1.2-2.6-1.7-3.3-2.8c-0.8-1.2-0.3-2.9-1.3-3.9c-0.1-0.1-0.1-0.1-0.1-0.1
					c-0.1-0.1-0.3-0.3-0.4-0.4c-0.1-0.1-1.1-1.1-1.7-1.5c-3.1-2.1-6.7,0.9-8.9,0.9c-2.9,0-6.2-2.9-9.2-0.6c-0.6,0.4-1.8,1.4-1.9,1.5
					c-0.1,0.1-0.3,0.3-0.5,0.4c0,0,0,0-0.1,0.1c-1,1-0.4,2.7-1.2,4c-0.7,1.1-2.8,1.6-3.2,2.9c-0.8,2.2-1.3,4.5-1.3,7
					c0,2.6,0.6,5,1.5,7.2c0.6,1.3,1.7,0.9,3.5,3c1.3,1.5,0.3,2.9,1.4,3.8c2.2,1.9,4.9,3.3,7.7,3.9
					C-184.1,417.9-183,417.1-181.5,417.1z M-181.6,408.2h-2.9c-0.8,0-1.8-0.5-2.1-1.2l-3.1-5.5c-0.4-0.6-0.4-1.7,0-2.4l3-5.7
					c0.3-0.7,1.3-1.3,2.1-1.3h2.9h2.3c0.8,0,1.8,0.6,2.1,1.3l3.1,5.5c0.4,0.6,0.4,1.7,0,2.4l-3,5.7c-0.3,0.7-1.3,1.2-2.1,1.3
					L-181.6,408.2 M-181.9,389.9h-2.9c-0.8,0-1.9-0.2-2.4-0.8l-2.6-2.9c-0.5-0.6-0.8-1.1-0.6-1.2c0,0,0.1,0,0.3-0.1
					c2.4-1.6,3.7,1.1,8.1,1c3.6-0.1,5.3-2.8,7.8-1.2c0.2,0.1,0.1,0.1,0.1,0.1c0.2,0.1-0.1,0.7-0.6,1.3l-2.6,2.8
					c-0.5,0.6-1.6,0.8-2.4,0.8L-181.9,389.9L-181.9,389.9z M-181.5,415.7c-1.5,0-2.5,0.5-3.8,0.2c-1.4-0.4-2.8-1-2.8-1
					c-0.7-0.4-0.9-1.1-0.5-1.7l1.8-2.5c0.4-0.6,1.4-1,2.2-1h2.9h2.2c0.8,0,1.8,0.4,2.3,1l1.9,2.5c0.5,0.6,0.3,1.4-0.4,1.7
					c0,0-1.1,0.7-2.5,1.1C-179.3,416.2-180.8,415.7-181.5,415.7z M-173.1,387.5c0.5-0.6,1-0.9,1.1-0.8c0,0,0,0,0.1,0.1
					c0.9,0.8,0.2,2.5,0.9,3.5c0.6,0.9,2.6,1.2,3,2.2c0.8,2,1.2,5.2,1.2,5.2c0.1,0.7-0.5,1.4-1.3,1.4h-2.6c-0.8,0-1.7-0.6-2.1-1.2
					l-2.9-5.5c-0.4-0.6-0.2-1.7,0.2-2.3L-173.1,387.5z M-189,390.5c0.5,0.6,0.6,1.6,0.3,2.2l-2.8,5.6c-0.3,0.7-1.3,1.3-2.1,1.3h-2.6
					c-0.8,0-1.4-0.7-1.3-1.4c0,0,0.3-3.2,1.1-5.2c0.4-1,2.4-1.4,2.9-2.3c0.7-1.1,0-2.7,0.8-3.6c0.1-0.1,0.1-0.1,0.1-0.1
					c0.1-0.1,0.7,0.2,1.2,0.8L-189,390.5z M-188.5,407.4c0.4,0.6,0.3,1.7-0.1,2.3l-1.7,2.3c-0.4,0.6-1.1,0.9-1.4,0.6
					c0,0,0,0-0.3-0.3c-0.9-0.8-0.3-2.4-1.2-3.5c-1.1-1.3-2.5-1.2-2.9-2.3c-0.7-1.6-1.1-3.6-1.1-3.6c-0.1-0.7,0.4-1.1,1.2-1.1h2.5
					c0.8,0,1.8,0.3,2.1,0.9L-188.5,407.4z M-172.7,402.4c0.4-0.6,1.3-1,2.1-1h2.5c0.8,0,1.4,0.4,1.2,1.1c0,0-0.4,2.1-1,3.7
					c-0.4,1.1-1.8,1-2.9,2.3c-0.9,1.2-0.2,2.7-1.1,3.5c-0.3,0.3-0.3,0.3-0.3,0.3c-0.3,0.3-1,0-1.4-0.6l-1.7-2.3
					c-0.5-0.6-0.5-1.5-0.2-2.2L-172.7,402.4z"/>
			</g>
			<g id="eyes">
				<path id="eye_6_" class="st6" d="M-179,369.3c0,0-0.7,1.4,0.5,2.7s2.6,0.5,2.6,0.5S-177,370.3-179,369.3z"/>
				<path id="eye_7_" class="st6" d="M-185.7,369.4c0,0,0.8,1.4-0.4,2.7c-1.2,1.3-2.6,0.5-2.6,0.5S-187.7,370.5-185.7,369.4z"/>
				<path class="st8" d="M-186.2,371.6c0.5-0.5,0.3-1.3,0-1.9c-0.8,0.6-1.4,1.2-1.8,1.8C-187.5,371.8-186.7,372.1-186.2,371.6z"/>
				<path class="st8" d="M-178.4,371.4c-0.5-0.5-0.3-1.3-0.1-1.9c0.8,0.5,1.4,1.2,1.8,1.8C-177.1,371.6-177.9,372-178.4,371.4z"/>
			</g>
		</g>
	</g>
</g>
</svg>
