<?xml version="1.0" encoding="utf-8"?>
<!-- Generator: Adobe Illustrator 15.0.0, SVG Export Plug-In . SVG Version: 6.00 Build 0)  -->
<!DOCTYPE svg PUBLIC "-//W3C//DTD SVG 1.1//EN" "http://www.w3.org/Graphics/SVG/1.1/DTD/svg11.dtd">
<svg version="1.1" id="Layer_1" xmlns="http://www.w3.org/2000/svg" xmlns:xlink="http://www.w3.org/1999/xlink" x="0px" y="0px"
	 width="38px" height="45px" viewBox="0 0 38 45" enable-background="new 0 0 38 45" xml:space="preserve">
<g>
	<path fill="#D6D6D8" d="M28.753,40.339c0-0.001-2.405-3.877-3.438-5.483c-1.235-1.918-4.188-5.938-4.219-5.979
		c-0.135-0.184-0.128-0.438,0.018-0.613c0.148-0.178,0.396-0.231,0.603-0.134c0.038,0.019,4.197,1.991,6.779,1.587
		c2.375-0.384,4.916-3.688,4.94-3.72c0.148-0.198,0.422-0.255,0.638-0.136c0.215,0.117,0.313,0.377,0.229,0.609
		c-0.022,0.062-2.278,6.277-2.731,8.006c-0.409,1.556-1.858,5.597-1.922,5.768c-0.063,0.181-0.228,0.308-0.418,0.328
		c-0.018,0.002-0.035,0.003-0.053,0.003C29.006,40.575,28.846,40.486,28.753,40.339z"/>
	<path fill="#D6D6D8" d="M26.943,30.216C25.232,9.06,8.109,6.189,7.381,6.078l0,0C6.563,5.954,6,5.191,6.121,4.373
		C6.242,3.554,7,2.981,7.826,3.111c0.203,0.031,20.201,3.282,22.105,26.864c0.065,0.825-0.549,1.549-1.373,1.615
		c-0.041,0.003-0.082,0.006-0.123,0.006C27.662,31.596,27.006,31,26.943,30.216z"/>
</g>
<g>
	<path fill="#69D2E7" d="M29.533,39.079c0,0-2.404-3.876-3.438-5.481c-1.236-1.92-4.188-5.938-4.219-5.979
		c-0.135-0.186-0.129-0.438,0.018-0.614c0.147-0.177,0.396-0.231,0.603-0.133c0.037,0.019,4.196,1.989,6.778,1.587
		c2.375-0.384,4.916-3.688,4.94-3.72c0.149-0.198,0.423-0.257,0.638-0.138s0.314,0.377,0.229,0.609
		c-0.021,0.062-2.277,6.279-2.73,8.007c-0.41,1.556-1.858,5.597-1.922,5.767c-0.063,0.183-0.229,0.31-0.418,0.328
		c-0.018,0.002-0.035,0.004-0.053,0.004C29.787,39.316,29.626,39.229,29.533,39.079z"/>
	<path fill="#69D2E7" d="M27.725,28.958C26.016,7.802,8.892,4.931,8.162,4.82l0,0C7.345,4.696,6.781,3.933,6.904,3.115
		c0.121-0.819,0.877-1.392,1.705-1.262c0.2,0.03,20.198,3.281,22.104,26.862c0.064,0.826-0.55,1.551-1.374,1.616
		c-0.041,0.003-0.082,0.005-0.123,0.005C28.443,30.336,27.787,29.741,27.725,28.958z"/>
</g>
</svg>
