<?xml version="1.0" encoding="utf-8"?>
<!-- Generator: Adobe Illustrator 15.0.0, SVG Export Plug-In . SVG Version: 6.00 Build 0)  -->
<!DOCTYPE svg PUBLIC "-//W3C//DTD SVG 1.1//EN" "http://www.w3.org/Graphics/SVG/1.1/DTD/svg11.dtd">
<svg version="1.1" id="Layer_1" xmlns="http://www.w3.org/2000/svg" xmlns:xlink="http://www.w3.org/1999/xlink" x="0px" y="0px"
	 width="45px" height="46px" viewBox="0 0 45 46" enable-background="new 0 0 45 46" xml:space="preserve">
<g>
	<g>
		<path fill="#D6D6D8" d="M32.002,6.122c0,0.001-2.621,3.733-3.746,5.278c-1.343,1.846-4.52,5.69-4.553,5.729
			c-0.146,0.176-0.152,0.429-0.018,0.614c0.137,0.185,0.383,0.253,0.592,0.167c0.039-0.016,4.306-1.749,6.859-1.198
			c2.35,0.518,4.697,3.96,4.721,3.995c0.138,0.206,0.408,0.279,0.629,0.172c0.223-0.105,0.337-0.358,0.265-0.595
			c-0.019-0.063-1.916-6.399-2.271-8.149c-0.32-1.576-1.537-5.693-1.59-5.867c-0.054-0.185-0.209-0.322-0.397-0.352
			c-0.017-0.003-0.034-0.005-0.052-0.006C32.27,5.9,32.104,5.979,32.002,6.122z"/>
		<path fill="#D6D6D8" d="M29.618,16.126C26.704,37.148,9.445,39.04,8.714,39.107l0,0c-0.824,0.078-1.43,0.809-1.354,1.633
			c0.073,0.822,0.797,1.438,1.631,1.354c0.202-0.019,20.354-2.123,23.602-25.558c0.112-0.821-0.461-1.578-1.28-1.692
			c-0.041-0.005-0.082-0.01-0.123-0.012C30.416,14.789,29.727,15.345,29.618,16.126z"/>
	</g>
	<g>
		<path fill="#69D2E7" d="M30.83,5.313c0,0-2.623,3.733-3.747,5.277c-1.342,1.846-4.519,5.69-4.552,5.729
			c-0.146,0.176-0.153,0.429-0.018,0.614c0.136,0.185,0.382,0.253,0.592,0.167c0.039-0.016,4.304-1.749,6.856-1.198
			c2.351,0.518,4.698,3.961,4.722,3.995c0.137,0.206,0.407,0.279,0.629,0.172c0.223-0.105,0.336-0.358,0.265-0.595
			c-0.019-0.063-1.916-6.399-2.271-8.149c-0.32-1.576-1.537-5.693-1.591-5.867c-0.055-0.185-0.209-0.322-0.397-0.352
			C31.3,5.103,31.284,5.101,31.266,5.1C31.096,5.09,30.93,5.17,30.83,5.313z"/>
		<path fill="#69D2E7" d="M28.443,15.315C25.531,36.339,8.271,38.229,7.538,38.298l0,0c-0.824,0.077-1.43,0.808-1.354,1.632
			c0.074,0.822,0.797,1.438,1.629,1.355c0.203-0.02,20.354-2.124,23.603-25.558c0.113-0.821-0.46-1.579-1.279-1.692
			c-0.041-0.005-0.082-0.01-0.123-0.012C29.241,13.979,28.553,14.536,28.443,15.315z"/>
	</g>
</g>
</svg>
