<?xml version="1.0" encoding="utf-8"?>
<!-- Generator: Adobe Illustrator 15.0.0, SVG Export Plug-In . SVG Version: 6.00 Build 0)  -->
<!DOCTYPE svg PUBLIC "-//W3C//DTD SVG 1.1//EN" "http://www.w3.org/Graphics/SVG/1.1/DTD/svg11.dtd">
<svg version="1.1" id="Layer_1" xmlns="http://www.w3.org/2000/svg" xmlns:xlink="http://www.w3.org/1999/xlink" x="0px" y="0px"
	 width="44.351px" height="52.821px" viewBox="0 0 44.351 52.821" enable-background="new 0 0 44.351 52.821" xml:space="preserve">
<g>
	<path fill="#D6D6D8" d="M9.595,48.634c-0.448,0-0.892-0.201-1.188-0.582c-0.507-0.656-0.387-1.598,0.269-2.105
		c7.345-5.683,17.403-13.467,16.019-16.817c-0.279-0.675-2.936-1.052-4.521-1.277c-2.702-0.383-5.497-0.779-6.791-2.58
		c-0.41-0.569-0.844-1.542-0.584-2.941C14.749,11.8,40.436,2.156,43.359,1.091c0.778-0.283,1.64,0.117,1.923,0.896
		c0.284,0.778-0.117,1.639-0.896,1.923c-7.494,2.733-27.249,11.468-28.639,18.969c-0.08,0.435,0.025,0.581,0.07,0.644
		c0.547,0.761,2.991,1.107,4.776,1.361c2.92,0.414,5.938,0.842,6.872,3.101c2.109,5.101-4.998,11.086-16.954,20.337
		C10.239,48.531,9.916,48.634,9.595,48.634z"/>
	<path fill="#D6D6D8" d="M1.197,53.671c-0.016-0.013-0.029-0.028-0.042-0.043c-0.137-0.159-0.173-0.384-0.087-0.578
		c0.076-0.184,1.957-4.515,2.798-6.071c0.938-1.728,3.807-8.413,3.835-8.479c0.105-0.251,0.381-0.383,0.644-0.314
		c0.262,0.064,0.437,0.316,0.409,0.588c-0.009,0.046-0.454,4.606,1.161,6.702c1.769,2.268,6.591,3.815,6.634,3.829
		c0.243,0.074,0.397,0.307,0.383,0.561c-0.018,0.252-0.201,0.457-0.448,0.506c-0.056,0.012-5.449,1.012-7.886,1.623
		C6.562,52.502,1.713,53.8,1.713,53.8C1.529,53.853,1.334,53.8,1.197,53.671z"/>
</g>
<g>
	<path fill="#69D2E7" d="M8.574,47.634c-0.448,0-0.892-0.201-1.188-0.582C6.879,46.396,7,45.455,7.655,44.947
		C15,39.264,25.058,31.48,23.673,28.129c-0.279-0.675-2.936-1.052-4.521-1.277c-2.702-0.383-5.497-0.779-6.791-2.58
		c-0.41-0.569-0.844-1.542-0.584-2.941C13.727,10.8,39.415,1.156,42.337,0.091c0.778-0.283,1.64,0.117,1.923,0.896
		c0.284,0.778-0.117,1.639-0.896,1.923c-7.494,2.733-27.249,11.468-28.639,18.969c-0.08,0.435,0.025,0.581,0.07,0.644
		c0.547,0.761,2.991,1.107,4.776,1.361c2.92,0.414,5.938,0.842,6.872,3.101c2.109,5.101-4.998,11.086-16.954,20.337
		C9.217,47.531,8.894,47.634,8.574,47.634z"/>
	<path fill="#69D2E7" d="M0.175,52.671c-0.016-0.013-0.029-0.028-0.042-0.043c-0.137-0.159-0.173-0.384-0.087-0.578
		c0.076-0.184,1.957-4.515,2.798-6.071c0.938-1.728,3.807-8.413,3.835-8.479c0.105-0.251,0.381-0.383,0.644-0.314
		c0.262,0.064,0.437,0.316,0.409,0.588c-0.009,0.046-0.454,4.606,1.161,6.702c1.769,2.268,6.591,3.815,6.634,3.829
		c0.243,0.074,0.397,0.307,0.383,0.561c-0.018,0.252-0.201,0.457-0.448,0.506c-0.056,0.012-5.449,1.012-7.886,1.623
		C5.541,51.502,0.692,52.8,0.692,52.8C0.507,52.853,0.313,52.8,0.175,52.671z"/>
</g>
</svg>
