<?xml version="1.0" encoding="utf-8"?>
<!-- Generator: Adobe Illustrator 15.0.0, SVG Export Plug-In . SVG Version: 6.00 Build 0)  -->
<!DOCTYPE svg PUBLIC "-//W3C//DTD SVG 1.1//EN" "http://www.w3.org/Graphics/SVG/1.1/DTD/svg11.dtd">
<svg version="1.1" id="Layer_2" xmlns="http://www.w3.org/2000/svg" xmlns:xlink="http://www.w3.org/1999/xlink" x="0px" y="0px"
	 width="34.091px" height="30.438px" viewBox="6.2 -2.432 34.091 30.438" enable-background="new 6.2 -2.432 34.091 30.438"
	 xml:space="preserve">
<g>
	<g>
		<path fill="#D6D6D8" d="M6.939,27.98c-0.017-0.006-0.033-0.012-0.049-0.02c-0.174-0.083-0.289-0.251-0.292-0.442
			c-0.005-0.184-0.101-4.474,0.002-6.08c0.117-1.783-0.056-8.394-0.058-8.459c-0.006-0.248,0.17-0.463,0.412-0.505
			c0.242-0.045,0.483,0.095,0.561,0.331c0.013,0.037,1.378,3.976,3.509,5.091c2.322,1.201,6.891,0.646,6.934,0.642
			c0.225-0.03,0.444,0.101,0.528,0.315c0.083,0.215,0.008,0.457-0.176,0.588c-0.041,0.031-4.113,2.91-5.892,4.337
			c-1.489,1.196-4.997,4.113-4.998,4.114C7.284,28.001,7.103,28.035,6.939,27.98z"/>
		<path fill="#D6D6D8" d="M10.486,19.697c-0.038-0.012-0.078-0.028-0.116-0.044c-0.761-0.322-1.115-1.206-0.792-1.968
			C18.849-4.081,38.848-0.834,39.051-0.801c0.822,0.139,1.359,0.922,1.218,1.737c-0.146,0.814-0.921,1.361-1.736,1.218l0,0
			c-0.725-0.125-17.878-2.821-26.195,16.707C12.029,19.584,11.219,19.943,10.486,19.697z"/>
	</g>
	<g>
		<path fill="#69D2E7" d="M6.596,26.539c-0.017-0.005-0.032-0.013-0.049-0.021c-0.173-0.079-0.29-0.251-0.292-0.443
			c-0.005-0.181-0.102-4.473,0.003-6.078c0.115-1.783-0.057-8.394-0.058-8.461c-0.008-0.246,0.168-0.459,0.411-0.504
			c0.24-0.045,0.481,0.096,0.561,0.331c0.013,0.039,1.378,3.977,3.51,5.093c2.321,1.198,6.892,0.646,6.933,0.64
			c0.225-0.029,0.445,0.103,0.529,0.316c0.083,0.215,0.009,0.456-0.177,0.589c-0.041,0.03-4.113,2.907-5.893,4.338
			c-1.489,1.193-4.996,4.109-4.996,4.109C6.94,26.56,6.76,26.593,6.596,26.539z"/>
		<path fill="#69D2E7" d="M10.143,18.256c-0.039-0.014-0.079-0.03-0.116-0.045c-0.76-0.321-1.116-1.205-0.792-1.968
			c9.273-21.767,29.27-18.52,29.469-18.485c0.826,0.139,1.363,0.921,1.217,1.736c-0.142,0.816-0.919,1.362-1.731,1.219l0,0
			c-0.726-0.125-17.879-2.822-26.196,16.708C11.687,18.143,10.876,18.499,10.143,18.256z"/>
	</g>
</g>
</svg>
