<?xml version="1.0" encoding="utf-8"?>
<!-- Generator: Adobe Illustrator 15.0.0, SVG Export Plug-In . SVG Version: 6.00 Build 0)  -->
<!DOCTYPE svg PUBLIC "-//W3C//DTD SVG 1.1//EN" "http://www.w3.org/Graphics/SVG/1.1/DTD/svg11.dtd">
<svg version="1.1" id="Layer_1" xmlns="http://www.w3.org/2000/svg" xmlns:xlink="http://www.w3.org/1999/xlink" x="0px" y="0px"
	 width="45px" height="46px" viewBox="0 0 45 46" enable-background="new 0 0 45 46" xml:space="preserve">
<g>
	<path fill="#D6D6D8" d="M35.716,7.688c-0.008-0.016-0.016-0.031-0.026-0.047c-0.088-0.168-0.27-0.269-0.461-0.259
		c-0.184,0.009-4.471,0.23-6.062,0.453c-1.77,0.247-8.375,0.566-8.441,0.569c-0.247,0.011-0.448,0.202-0.473,0.448
		c-0.028,0.243,0.131,0.474,0.371,0.535c0.041,0.011,4.068,1.08,5.339,3.124c1.369,2.225,1.153,6.824,1.151,6.866
		c-0.012,0.228,0.135,0.436,0.354,0.503c0.219,0.066,0.455-0.025,0.574-0.222c0.025-0.043,2.594-4.318,3.889-6.198
		c1.082-1.574,3.729-5.288,3.73-5.289C35.762,8.029,35.782,7.847,35.716,7.688z"/>
	<path fill="#D6D6D8" d="M27.717,11.839c-0.016-0.038-0.035-0.075-0.053-0.112c-0.379-0.735-1.284-1.023-2.021-0.644
		C4.625,21.942,9.342,41.645,9.392,41.843c0.2,0.813,1.02,1.29,1.822,1.084c0.802-0.202,1.289-1.017,1.086-1.817l0,0
		c-0.177-0.715-4.136-17.621,14.72-27.36C27.721,13.388,28.016,12.552,27.717,11.839z"/>
</g>
<g>
	<path fill="#69D2E7" d="M34.253,7.454c-0.008-0.017-0.015-0.033-0.022-0.047c-0.092-0.169-0.271-0.269-0.465-0.26
		c-0.182,0.01-4.47,0.231-6.062,0.453c-1.771,0.249-8.375,0.566-8.441,0.57c-0.248,0.011-0.448,0.203-0.473,0.448
		c-0.027,0.243,0.132,0.474,0.371,0.535c0.041,0.011,4.067,1.08,5.339,3.124c1.368,2.225,1.152,6.826,1.15,6.867
		c-0.01,0.227,0.136,0.436,0.354,0.503c0.222,0.066,0.456-0.023,0.574-0.22c0.024-0.044,2.594-4.319,3.889-6.199
		c1.082-1.573,3.73-5.288,3.73-5.288C34.299,7.794,34.318,7.612,34.253,7.454z"/>
	<path fill="#69D2E7" d="M26.253,11.603c-0.015-0.038-0.03-0.075-0.051-0.112c-0.38-0.735-1.285-1.023-2.021-0.644
		C3.162,21.707,7.879,41.409,7.929,41.605c0.199,0.813,1.02,1.291,1.822,1.086c0.803-0.202,1.288-1.016,1.087-1.817l0,0
		c-0.179-0.715-4.137-17.621,14.719-27.36C26.256,13.152,26.552,12.316,26.253,11.603z"/>
</g>
</svg>
