<?xml version="1.0" encoding="utf-8"?>
<!-- Generator: Adobe Illustrator 15.0.0, SVG Export Plug-In . SVG Version: 6.00 Build 0)  -->
<!DOCTYPE svg PUBLIC "-//W3C//DTD SVG 1.1//EN" "http://www.w3.org/Graphics/SVG/1.1/DTD/svg11.dtd">
<svg version="1.1" id="Layer_1" xmlns="http://www.w3.org/2000/svg" xmlns:xlink="http://www.w3.org/1999/xlink" x="0px" y="0px"
	 width="45px" height="46px" viewBox="0 0 45 46" enable-background="new 0 0 45 46" xml:space="preserve">
<g>
	<g>
		<path fill="#D6D6D8" d="M10.509,5.91c-0.018,0.001-0.035,0.003-0.052,0.006c-0.189,0.03-0.344,0.167-0.398,0.352
			c-0.052,0.174-1.269,4.291-1.589,5.867c-0.355,1.75-2.253,8.086-2.271,8.149c-0.072,0.237,0.042,0.49,0.265,0.595
			c0.22,0.107,0.491,0.034,0.628-0.172c0.023-0.035,2.371-3.477,4.721-3.995c2.554-0.551,6.82,1.182,6.859,1.198
			c0.21,0.086,0.456,0.018,0.592-0.167c0.135-0.185,0.129-0.438-0.017-0.614c-0.033-0.039-3.21-3.883-4.552-5.729
			c-1.125-1.545-3.747-5.277-3.747-5.278C10.847,5.979,10.681,5.9,10.509,5.91z"/>
		<path fill="#D6D6D8" d="M11.762,14.833c-0.041,0.002-0.082,0.007-0.123,0.012c-0.82,0.114-1.393,0.871-1.28,1.692
			c3.248,23.434,23.399,25.539,23.601,25.559c0.834,0.082,1.558-0.533,1.631-1.356c0.075-0.824-0.53-1.554-1.354-1.632l0,0
			c-0.732-0.068-17.991-1.959-20.905-22.982C13.223,15.345,12.534,14.789,11.762,14.833z"/>
	</g>
	<g>
		<path fill="#69D2E7" d="M11.684,5.1c-0.018,0.001-0.035,0.003-0.053,0.006c-0.189,0.03-0.343,0.167-0.398,0.352
			c-0.052,0.174-1.269,4.291-1.589,5.867c-0.355,1.75-2.252,8.086-2.271,8.149c-0.071,0.237,0.042,0.49,0.265,0.595
			c0.22,0.107,0.491,0.034,0.628-0.172c0.023-0.034,2.371-3.477,4.721-3.995c2.554-0.551,6.819,1.182,6.858,1.198
			c0.21,0.086,0.456,0.018,0.592-0.167c0.135-0.185,0.128-0.438-0.018-0.614c-0.033-0.039-3.21-3.883-4.552-5.729
			c-1.124-1.544-3.747-5.277-3.747-5.277C12.021,5.17,11.855,5.09,11.684,5.1z"/>
		<path fill="#69D2E7" d="M12.937,14.023c-0.041,0.002-0.082,0.007-0.123,0.012c-0.82,0.113-1.393,0.871-1.28,1.692
			c3.248,23.434,23.399,25.539,23.603,25.558c0.832,0.083,1.555-0.533,1.629-1.355c0.076-0.824-0.529-1.555-1.354-1.632l0,0
			c-0.732-0.069-17.993-1.959-20.906-22.983C14.398,14.536,13.709,13.979,12.937,14.023z"/>
	</g>
</g>
</svg>
