<?xml version="1.0" encoding="utf-8"?>
<!-- Generator: Adobe Illustrator 15.0.0, SVG Export Plug-In . SVG Version: 6.00 Build 0)  -->
<!DOCTYPE svg PUBLIC "-//W3C//DTD SVG 1.1//EN" "http://www.w3.org/Graphics/SVG/1.1/DTD/svg11.dtd">
<svg version="1.1" id="Layer_1" xmlns="http://www.w3.org/2000/svg" xmlns:xlink="http://www.w3.org/1999/xlink" x="0px" y="0px"
	 width="38px" height="45px" viewBox="0 0 38 45" enable-background="new 0 0 38 45" xml:space="preserve">
<g>
	<path fill="#D6D6D8" d="M12.041,40.575c-0.018,0-0.035-0.001-0.053-0.003c-0.19-0.021-0.353-0.147-0.418-0.328
		c-0.062-0.171-1.512-4.212-1.921-5.768c-0.454-1.728-2.71-7.943-2.732-8.006c-0.085-0.232,0.014-0.492,0.23-0.609
		c0.214-0.119,0.488-0.062,0.637,0.136c0.025,0.032,2.565,3.336,4.941,3.72c2.581,0.404,6.741-1.568,6.779-1.587
		c0.205-0.099,0.454-0.044,0.602,0.134c0.146,0.176,0.152,0.43,0.018,0.613c-0.03,0.041-2.983,4.061-4.218,5.979
		c-1.034,1.606-3.439,5.482-3.439,5.483C12.374,40.486,12.213,40.575,12.041,40.575z"/>
	<path fill="#D6D6D8" d="M12.783,31.596c-0.041,0-0.082-0.003-0.123-0.006c-0.825-0.066-1.44-0.79-1.374-1.615
		C13.192,6.393,33.189,3.142,33.393,3.111c0.826-0.13,1.584,0.443,1.705,1.262c0.121,0.818-0.441,1.581-1.26,1.705l0,0
		C33.109,6.189,15.986,9.06,14.276,30.216C14.213,31,13.557,31.596,12.783,31.596z"/>
</g>
<g>
	<path fill="#69D2E7" d="M11.26,39.316c-0.018,0-0.035-0.002-0.053-0.004c-0.19-0.02-0.353-0.146-0.418-0.328
		c-0.062-0.17-1.512-4.211-1.921-5.767c-0.454-1.728-2.71-7.944-2.732-8.007c-0.085-0.232,0.014-0.49,0.23-0.609
		c0.214-0.119,0.488-0.062,0.637,0.137c0.025,0.033,2.565,3.336,4.941,3.72c2.581,0.403,6.741-1.569,6.779-1.587
		c0.205-0.1,0.454-0.044,0.601,0.133c0.146,0.178,0.153,0.43,0.018,0.614c-0.03,0.041-2.983,4.06-4.218,5.979
		c-1.034,1.605-3.439,5.481-3.439,5.481C11.593,39.229,11.432,39.316,11.26,39.316z"/>
	<path fill="#69D2E7" d="M12.002,30.336c-0.041,0-0.082-0.002-0.123-0.005c-0.825-0.065-1.44-0.79-1.374-1.616
		C12.411,5.134,32.409,1.883,32.609,1.853c0.828-0.13,1.584,0.443,1.705,1.262c0.123,0.818-0.44,1.581-1.258,1.705l0,0
		c-0.729,0.111-17.853,2.982-19.562,24.138C13.432,29.741,12.775,30.336,12.002,30.336z"/>
</g>
</svg>
