<?xml version="1.0" encoding="utf-8"?>
<!-- Generator: Adobe Illustrator 15.0.0, SVG Export Plug-In . SVG Version: 6.00 Build 0)  -->
<!DOCTYPE svg PUBLIC "-//W3C//DTD SVG 1.1//EN" "http://www.w3.org/Graphics/SVG/1.1/DTD/svg11.dtd">
<svg version="1.1" id="Layer_1" xmlns="http://www.w3.org/2000/svg" xmlns:xlink="http://www.w3.org/1999/xlink" x="0px" y="0px"
	 width="163.766px" height="130.617px" viewBox="0 0 163.766 130.617" enable-background="new 0 0 163.766 130.617"
	 xml:space="preserve">
<g>
	<g display="none">
		<path display="inline" fill="#D6D6D8" d="M88.266,97.384c-1.701,0-3.388-0.006-5.059-0.018c-0.828-0.007-1.495-0.683-1.489-1.511
			c0.006-0.824,0.677-1.489,1.5-1.489c0.003,0,0.007,0,0.011,0c2.639,0.019,5.345,0.024,8.001,0.011c0.003,0,0.006,0,0.008,0
			c0.825,0,1.496,0.667,1.5,1.492c0.005,0.829-0.663,1.504-1.491,1.508C90.257,97.382,89.265,97.384,88.266,97.384z M99.254,97.27
			c-0.812,0-1.48-0.648-1.499-1.467c-0.019-0.828,0.639-1.515,1.467-1.533c2.772-0.062,5.457-0.151,7.979-0.27
			c0.853-0.027,1.529,0.602,1.567,1.428c0.039,0.828-0.601,1.53-1.428,1.568c-2.546,0.119-5.254,0.211-8.052,0.273
			C99.278,97.27,99.266,97.27,99.254,97.27z M75.2,97.241c-0.014,0-0.025,0-0.038,0c-2.883-0.071-5.517-0.167-8.052-0.291
			c-0.826-0.04-1.466-0.744-1.425-1.571c0.04-0.827,0.746-1.456,1.571-1.425c2.512,0.123,5.121,0.217,7.979,0.287
			c0.828,0.021,1.482,0.709,1.464,1.536C76.678,96.593,76.01,97.241,75.2,97.241z M115.273,96.5c-0.773,0-1.431-0.596-1.493-1.381
			c-0.064-0.826,0.552-1.549,1.377-1.614c2.772-0.221,5.434-0.491,7.907-0.806c0.812-0.1,1.572,0.478,1.678,1.3
			c0.104,0.821-0.479,1.571-1.301,1.677c-2.52,0.319-5.228,0.596-8.047,0.819C115.353,96.498,115.313,96.5,115.273,96.5z
			 M59.184,96.427c-0.042,0-0.085-0.002-0.128-0.005c-2.85-0.238-5.558-0.531-8.048-0.869c-0.82-0.111-1.396-0.865-1.285-1.688
			s0.859-1.407,1.688-1.285c2.439,0.33,5.098,0.617,7.896,0.852c0.825,0.069,1.438,0.795,1.369,1.621
			C60.611,95.835,59.956,96.427,59.184,96.427z M131.168,94.428c-0.702,0-1.33-0.496-1.47-1.212
			c-0.159-0.813,0.369-1.602,1.184-1.76c2.756-0.54,5.324-1.17,7.633-1.874c0.788-0.244,1.63,0.204,1.872,0.997
			c0.242,0.792-0.205,1.631-0.997,1.872c-2.406,0.734-5.075,1.39-7.932,1.947C131.361,94.419,131.264,94.428,131.168,94.428z
			 M43.309,94.216c-0.103,0-0.207-0.011-0.312-0.032c-2.869-0.608-5.529-1.326-7.906-2.132c-0.784-0.267-1.205-1.118-0.938-1.901
			c0.266-0.784,1.118-1.205,1.901-0.939c2.266,0.77,4.812,1.454,7.566,2.038c0.811,0.173,1.328,0.969,1.155,1.778
			C44.625,93.732,44.002,94.216,43.309,94.216z M146.41,89.605c-0.552,0-1.081-0.304-1.345-0.83
			c-0.369-0.741-0.067-1.643,0.675-2.012c2.471-1.231,4.578-2.65,6.265-4.217c0.604-0.564,1.557-0.529,2.119,0.078
			c0.563,0.605,0.528,1.557-0.078,2.119c-1.896,1.761-4.239,3.344-6.968,4.704C146.863,89.555,146.634,89.605,146.41,89.605z
			 M28.255,88.898c-0.255,0-0.513-0.063-0.748-0.2c-2.646-1.526-4.865-3.31-6.595-5.3c-0.544-0.625-0.479-1.572,0.147-2.115
			c0.623-0.544,1.57-0.479,2.115,0.146c1.512,1.738,3.473,3.311,5.83,4.67c0.718,0.414,0.964,1.332,0.55,2.049
			C29.278,88.63,28.774,88.898,28.255,88.898z M157.618,78.68c-0.193,0-0.392-0.037-0.58-0.117
			c-0.765-0.319-1.123-1.199-0.803-1.963c0.905-2.156,1.364-4.582,1.364-7.216l-0.001-0.278c-0.008-0.828,0.656-1.508,1.485-1.517
			c0.005,0,0.01,0,0.015,0c0.821,0,1.491,0.662,1.5,1.485l0.001,0.31c0,3.034-0.538,5.853-1.599,8.377
			C158.76,78.335,158.204,78.68,157.618,78.68z M18.247,76.959c-0.652,0-1.252-0.427-1.441-1.084
			c-0.578-2.004-0.872-4.188-0.872-6.491c0-0.659,0.02-1.305,0.057-1.935c0.049-0.827,0.769-1.446,1.585-1.41
			c0.826,0.048,1.458,0.758,1.409,1.585c-0.033,0.574-0.051,1.16-0.051,1.76c0,2.021,0.254,3.927,0.755,5.659
			c0.229,0.796-0.229,1.627-1.024,1.857C18.524,76.941,18.383,76.959,18.247,76.959z M157.944,62.707
			c-0.639,0-1.229-0.41-1.432-1.053c-0.754-2.41-1.928-4.59-3.489-6.48c-0.526-0.64-0.437-1.585,0.202-2.112
			c0.641-0.528,1.585-0.437,2.112,0.202c1.809,2.191,3.167,4.713,4.038,7.496c0.247,0.79-0.193,1.631-0.983,1.879
			C158.243,62.685,158.091,62.707,157.944,62.707z M19.176,61.266c-0.19,0-0.383-0.036-0.569-0.112
			c-0.767-0.314-1.133-1.191-0.817-1.957c1.085-2.643,2.671-5.031,4.714-7.098c0.582-0.59,1.531-0.596,2.121-0.013
			c0.589,0.583,0.595,1.532,0.012,2.122c-1.766,1.787-3.137,3.848-4.071,6.127C20.326,60.916,19.766,61.266,19.176,61.266z
			 M148.11,50.57c-0.266,0-0.533-0.07-0.777-0.219c-1.996-1.213-4.344-2.288-6.977-3.196c-0.782-0.271-1.198-1.124-0.929-1.907
			s1.123-1.201,1.907-0.929c2.835,0.978,5.376,2.146,7.556,3.469c0.708,0.43,0.934,1.353,0.503,2.061
			C149.111,50.313,148.616,50.57,148.11,50.57z M30.012,49.96c-0.536,0-1.055-0.289-1.324-0.796
			c-0.391-0.731-0.112-1.64,0.618-2.028c2.235-1.191,4.813-2.247,7.662-3.139c0.79-0.246,1.632,0.193,1.88,0.984
			c0.246,0.79-0.193,1.631-0.984,1.879c-2.672,0.836-5.075,1.819-7.146,2.922C30.492,49.903,30.25,49.96,30.012,49.96z
			 M133.112,45.158c-0.101,0-0.202-0.011-0.305-0.031c-2.371-0.49-4.993-0.914-7.795-1.262c-0.822-0.102-1.406-0.851-1.304-1.673
			c0.102-0.822,0.852-1.408,1.673-1.304c2.881,0.357,5.583,0.794,8.031,1.299c0.812,0.168,1.334,0.961,1.166,1.773
			C134.432,44.669,133.808,45.158,133.112,45.158z M45.194,45.013c-0.705,0-1.334-0.5-1.472-1.219
			c-0.155-0.813,0.378-1.6,1.19-1.755c2.461-0.472,5.164-0.881,8.034-1.218c0.827-0.094,1.568,0.492,1.664,1.315
			c0.098,0.823-0.491,1.567-1.313,1.665c-2.8,0.328-5.431,0.727-7.82,1.184C45.382,45.004,45.288,45.013,45.194,45.013z
			 M117.217,43.111c-0.036,0-0.073-0.001-0.109-0.004c-2.478-0.178-5.08-0.316-7.957-0.426c-0.827-0.031-1.474-0.729-1.441-1.556
			c0.031-0.828,0.744-1.464,1.556-1.442c2.911,0.11,5.547,0.252,8.06,0.432c0.825,0.06,1.447,0.777,1.389,1.604
			C118.655,42.508,117.997,43.111,117.217,43.111z M61.105,43.082c-0.78,0-1.439-0.605-1.494-1.396
			c-0.058-0.827,0.566-1.543,1.394-1.6c2.504-0.173,5.215-0.312,8.057-0.418c0.816-0.022,1.523,0.616,1.555,1.444
			c0.03,0.828-0.616,1.524-1.444,1.554c-2.811,0.104-5.487,0.242-7.959,0.412C61.175,43.081,61.14,43.082,61.105,43.082z
			 M101.191,42.471c-0.008,0-0.017,0-0.023,0c-2.62-0.044-5.29-0.066-8.001-0.077c-0.829-0.004-1.497-0.678-1.494-1.507
			c0.003-0.826,0.675-1.493,1.5-1.493c0.002,0,0.004,0,0.006,0c2.725,0.011,5.406,0.033,8.038,0.077
			c0.829,0.015,1.489,0.696,1.476,1.524C102.677,41.816,102.008,42.471,101.191,42.471z M77.132,42.46
			c-0.817,0-1.486-0.655-1.5-1.476c-0.013-0.828,0.646-1.511,1.476-1.524c2.636-0.041,5.316-0.062,8.039-0.072
			c0.83,0.047,1.502,0.667,1.505,1.496c0.003,0.828-0.667,1.502-1.494,1.504c-2.709,0.01-5.38,0.031-8,0.072
			C77.148,42.46,77.14,42.46,77.132,42.46z"/>
		<path display="inline" fill="#D6D6D8" d="M161.265,130.617c-0.248,0-0.499-0.062-0.729-0.19
			c-0.524-0.293-12.936-7.274-21.187-15.704c-8.55-8.734-21.299-18.23-21.427-18.326c-0.665-0.494-0.804-1.434-0.311-2.099
			c0.494-0.665,1.437-0.803,2.1-0.31c0.129,0.096,13.062,9.729,21.782,18.637c7.95,8.123,20.38,15.113,20.504,15.184
			c0.724,0.403,0.981,1.317,0.578,2.041C162.3,130.34,161.791,130.617,161.265,130.617z"/>
	</g>
	<g>
		<path fill="#D6D6D8" d="M161.265,130.617c-0.248,0-0.499-0.062-0.729-0.19c-0.524-0.293-12.936-7.274-21.187-15.704
			c-8.55-8.734-21.299-18.23-21.427-18.326c-0.665-0.494-0.804-1.434-0.311-2.099c0.494-0.665,1.437-0.803,2.1-0.31
			c0.129,0.096,13.062,9.729,21.782,18.637c7.95,8.123,20.38,15.113,20.504,15.184c0.724,0.403,0.981,1.317,0.578,2.041
			C162.3,130.34,161.791,130.617,161.265,130.617z"/>
		<path fill="#D6D6D8" d="M82.983,99.489c-0.825,0-1.497-0.669-1.5-1.495c-0.003-0.828,0.667-1.502,1.495-1.505
			c2.687-0.009,5.355-0.072,7.938-0.188c0.815-0.078,1.527,0.604,1.564,1.432c0.038,0.828-0.604,1.527-1.431,1.564
			c-2.623,0.118-5.335,0.184-8.062,0.191C82.986,99.489,82.985,99.489,82.983,99.489z M74.981,99.393c-0.015,0-0.027,0-0.043-0.002
			c-2.766-0.076-5.473-0.197-8.048-0.361c-0.826-0.053-1.454-0.766-1.401-1.594c0.054-0.824,0.718-1.453,1.594-1.4
			c2.538,0.16,5.21,0.281,7.939,0.357c0.828,0.022,1.48,0.713,1.457,1.541C76.457,98.748,75.79,99.393,74.981,99.393z
			 M98.962,98.755c-0.768,0-1.42-0.585-1.492-1.362c-0.075-0.824,0.532-1.556,1.357-1.632c2.682-0.245,5.327-0.559,7.864-0.93
			c0.814-0.12,1.581,0.448,1.701,1.269c0.12,0.819-0.447,1.58-1.268,1.7c-2.59,0.378-5.29,0.697-8.025,0.949
			C99.055,98.753,99.008,98.755,98.962,98.755z M59.016,98.357c-0.054,0-0.106-0.002-0.161-0.008
			c-2.756-0.295-5.451-0.652-8.011-1.063c-0.817-0.132-1.373-0.901-1.242-1.72c0.131-0.819,0.898-1.377,1.719-1.243
			c2.509,0.403,5.149,0.755,7.854,1.044c0.824,0.088,1.42,0.826,1.332,1.65C60.423,97.787,59.773,98.357,59.016,98.357z
			 M114.787,96.424c-0.694,0-1.318-0.484-1.467-1.191c-0.17-0.812,0.351-1.605,1.16-1.775c2.643-0.555,5.22-1.189,7.66-1.891
			c0.793-0.229,1.626,0.233,1.855,1.029c0.228,0.797-0.232,1.627-1.029,1.855c-2.511,0.719-5.158,1.372-7.871,1.939
			C114.993,96.415,114.889,96.424,114.787,96.424z M43.231,95.784c-0.11,0-0.225-0.013-0.337-0.038
			c-2.736-0.627-5.374-1.346-7.839-2.133c-0.789-0.252-1.225-1.098-0.972-1.887c0.253-0.787,1.099-1.225,1.886-0.972
			c2.384,0.763,4.939,1.457,7.595,2.065c0.809,0.186,1.312,0.99,1.127,1.798C44.532,95.314,43.915,95.784,43.231,95.784z
			 M130.141,91.98c-0.603,0-1.171-0.364-1.399-0.961c-0.298-0.772,0.089-1.642,0.861-1.938c2.517-0.968,4.923-2.04,7.155-3.188
			c0.733-0.379,1.641-0.088,2.02,0.648c0.38,0.736,0.09,1.641-0.647,2.02c-2.327,1.196-4.833,2.313-7.45,3.32
			C130.502,91.949,130.321,91.98,130.141,91.98z M28.032,90.861c-0.203,0-0.41-0.041-0.607-0.129
			c-2.59-1.146-5.032-2.428-7.257-3.809c-0.704-0.438-0.921-1.361-0.484-2.064c0.438-0.703,1.361-0.922,2.065-0.483
			c2.106,1.308,4.426,2.522,6.891,3.615c0.758,0.335,1.101,1.221,0.765,1.979C29.156,90.529,28.607,90.861,28.032,90.861z
			 M144.299,84.618c-0.474,0-0.939-0.224-1.231-0.642c-0.474-0.681-0.308-1.615,0.372-2.09c2.183-1.521,4.189-3.178,5.969-4.921
			c0.592-0.579,1.541-0.569,2.12,0.021c0.58,0.592,0.57,1.541-0.021,2.121c-1.896,1.858-4.033,3.621-6.351,5.24
			C144.895,84.529,144.596,84.618,144.299,84.618z M14.554,82.385c-0.355,0-0.714-0.126-1-0.383
			c-2.094-1.874-3.97-3.932-5.577-6.111c-0.492-0.666-0.35-1.604,0.316-2.097c0.668-0.493,1.604-0.351,2.098,0.317
			c1.486,2.015,3.223,3.918,5.164,5.656c0.617,0.553,0.67,1.5,0.117,2.117C15.375,82.216,14.965,82.385,14.554,82.385z
			 M155.591,73.436c-0.291,0-0.586-0.084-0.845-0.262c-0.685-0.467-0.86-1.4-0.395-2.085c1.446-2.12,2.664-4.387,3.619-6.739
			c0.312-0.767,1.188-1.139,1.954-0.825c0.768,0.312,1.137,1.187,0.825,1.954c-1.035,2.548-2.354,5.005-3.92,7.302
			C156.542,73.206,156.07,73.436,155.591,73.436z M5.177,69.615c-0.574,0-1.122-0.331-1.371-0.889
			c-1.097-2.459-1.967-5.102-2.587-7.853c-0.182-0.809,0.325-1.611,1.134-1.793c0.809-0.185,1.61,0.324,1.793,1.133
			c0.577,2.559,1.384,5.012,2.4,7.289c0.337,0.757-0.003,1.644-0.759,1.981C5.588,69.573,5.381,69.615,5.177,69.615z
			 M161.575,58.753c-0.09,0-0.18-0.008-0.271-0.024c-0.814-0.147-1.355-0.928-1.208-1.743c0.443-2.448,0.669-5.032,0.669-7.679
			c0-1.602-0.083-3.186-0.245-4.709c-0.088-0.823,0.508-1.562,1.332-1.65c0.811-0.094,1.562,0.508,1.65,1.332
			c0.175,1.629,0.263,3.32,0.263,5.027c0,2.826-0.241,5.59-0.718,8.214C162.917,58.246,162.286,58.753,161.575,58.753z
			 M1.593,54.139c-0.788,0-1.45-0.615-1.496-1.413C0.033,51.614,0,50.463,0,49.307c0-1.626,0.063-3.232,0.192-4.775
			c0.068-0.825,0.793-1.425,1.618-1.371c0.825,0.068,1.439,0.794,1.37,1.619C3.061,46.241,3,47.764,3,49.307
			c0,1.099,0.031,2.19,0.092,3.245c0.048,0.827-0.584,1.536-1.41,1.584C1.652,54.138,1.623,54.139,1.593,54.139z M3.01,38.291
			c-0.125,0-0.254-0.016-0.382-0.049c-0.802-0.211-1.28-1.031-1.069-1.832c0.719-2.737,1.701-5.346,2.921-7.753
			c0.375-0.74,1.277-1.034,2.018-0.661c0.737,0.375,1.034,1.277,0.66,2.016c-1.124,2.219-2.031,4.627-2.696,7.16
			C4.284,37.845,3.676,38.291,3.01,38.291z M160.383,38.135c-0.635,0-1.225-0.405-1.429-1.043c-0.781-2.44-1.831-4.784-3.12-6.965
			c-0.422-0.713-0.187-1.633,0.527-2.055c0.713-0.42,1.635-0.185,2.055,0.528c1.402,2.374,2.545,4.923,3.396,7.578
			c0.253,0.788-0.183,1.633-0.972,1.886C160.689,38.113,160.535,38.135,160.383,38.135z M152.345,24.492
			c-0.401,0-0.803-0.161-1.098-0.478c-1.688-1.814-3.628-3.534-5.764-5.111c-0.666-0.493-0.807-1.432-0.313-2.098
			s1.431-0.806,2.098-0.315c2.283,1.688,4.361,3.531,6.175,5.48c0.564,0.606,0.53,1.556-0.074,2.12
			C153.079,24.358,152.711,24.492,152.345,24.492z M10.198,24.181c-0.339,0-0.681-0.114-0.962-0.349
			c-0.635-0.531-0.72-1.477-0.188-2.113c1.729-2.068,3.735-4.003,5.966-5.751c0.651-0.511,1.594-0.396,2.105,0.255
			c0.511,0.652,0.396,1.595-0.257,2.106c-2.063,1.618-3.92,3.406-5.514,5.314C11.053,23.998,10.627,24.181,10.198,24.181z
			 M139.606,14.958c-0.236,0-0.479-0.057-0.702-0.175c-2.202-1.169-4.598-2.261-7.115-3.244c-0.771-0.301-1.152-1.171-0.853-1.943
			c0.302-0.772,1.17-1.152,1.943-0.852c2.625,1.025,5.126,2.166,7.431,3.389c0.731,0.388,1.01,1.296,0.622,2.028
			C140.663,14.668,140.143,14.958,139.606,14.958z M22.638,14.306c-0.534,0-1.052-0.287-1.323-0.791
			c-0.392-0.729-0.118-1.639,0.611-2.031c2.288-1.229,4.799-2.363,7.463-3.37c0.779-0.293,1.641,0.099,1.935,0.873
			c0.293,0.775-0.099,1.641-0.873,1.934c-2.541,0.96-4.933,2.039-7.104,3.206C23.121,14.248,22.877,14.306,22.638,14.306z
			 M124.754,9.092c-0.138,0-0.277-0.019-0.416-0.059c-2.434-0.7-5.01-1.336-7.659-1.891c-0.811-0.17-1.33-0.965-1.16-1.776
			c0.169-0.812,0.972-1.327,1.775-1.161c2.721,0.57,5.37,1.224,7.874,1.944c0.796,0.229,1.256,1.06,1.025,1.856
			C126.005,8.664,125.406,9.092,124.754,9.092z M37.536,8.585c-0.663,0-1.271-0.442-1.448-1.112c-0.214-0.8,0.261-1.623,1.061-1.837
			c2.488-0.667,5.151-1.268,7.913-1.787c0.812-0.155,1.599,0.383,1.751,1.197c0.153,0.814-0.383,1.599-1.195,1.751
			c-2.688,0.505-5.276,1.09-7.691,1.736C37.794,8.569,37.664,8.585,37.536,8.585z M109.111,5.78c-0.071,0-0.146-0.005-0.22-0.016
			c-2.531-0.371-5.178-0.689-7.867-0.944c-0.823-0.078-1.43-0.81-1.352-1.635c0.077-0.825,0.825-1.439,1.635-1.352
			c2.739,0.26,5.438,0.583,8.021,0.962c0.818,0.12,1.387,0.882,1.267,1.702C110.484,5.243,109.843,5.78,109.111,5.78z M53.241,5.586
			c-0.744,0-1.391-0.552-1.486-1.31c-0.105-0.822,0.476-1.573,1.297-1.678c2.562-0.328,5.263-0.608,8.028-0.833
			c0.814-0.062,1.549,0.548,1.615,1.374c0.067,0.826-0.548,1.549-1.374,1.617c-2.719,0.221-5.372,0.496-7.89,0.818
			C53.368,5.582,53.303,5.586,53.241,5.586z M69.186,4.26c-0.798,0-1.461-0.628-1.497-1.433C67.651,2,68.292,1.299,69.12,1.262
			c2.574-0.116,5.28-0.196,8.043-0.239c0.85-0.006,1.511,0.648,1.522,1.477c0.014,0.829-0.647,1.51-1.477,1.523
			c-2.733,0.042-5.409,0.122-7.955,0.236C69.232,4.26,69.208,4.26,69.186,4.26z M93.185,4.25c-0.024,0-0.051,0-0.077-0.002
			C90.53,4.117,87.859,4.033,85.168,4c-0.828-0.01-1.491-0.69-1.481-1.519C83.698,1.659,84.367,1,85.187,1c0.006,0,0.014,0,0.02,0
			c2.729,0.034,5.438,0.119,8.055,0.251c0.827,0.042,1.464,0.747,1.422,1.574C94.641,3.627,93.979,4.25,93.185,4.25z"/>
	</g>
	<g>
		<path fill="#69D2E7" d="M161.265,129.617c-0.248,0-0.499-0.062-0.729-0.19c-0.524-0.293-12.936-7.274-21.187-15.704
			c-8.55-8.734-21.299-18.23-21.427-18.326c-0.665-0.494-0.804-1.434-0.311-2.099c0.494-0.665,1.437-0.803,2.1-0.31
			c0.129,0.096,13.062,9.729,21.782,18.637c7.95,8.123,20.38,15.113,20.504,15.184c0.724,0.403,0.981,1.317,0.578,2.041
			C162.3,129.34,161.791,129.617,161.265,129.617z"/>
		<path fill="#69D2E7" d="M82.983,98.489c-0.825,0-1.497-0.669-1.5-1.495c-0.003-0.828,0.667-1.502,1.495-1.505
			c2.687-0.009,5.355-0.072,7.938-0.188c0.815-0.078,1.527,0.604,1.564,1.432c0.038,0.828-0.604,1.527-1.431,1.564
			c-2.623,0.118-5.335,0.184-8.062,0.191C82.986,98.489,82.985,98.489,82.983,98.489z M74.981,98.393c-0.015,0-0.027,0-0.043-0.002
			c-2.766-0.076-5.473-0.197-8.048-0.361c-0.826-0.053-1.454-0.766-1.401-1.594c0.054-0.824,0.718-1.453,1.594-1.4
			c2.538,0.16,5.21,0.281,7.939,0.357c0.828,0.022,1.48,0.713,1.457,1.541C76.457,97.748,75.79,98.393,74.981,98.393z
			 M98.962,97.755c-0.768,0-1.42-0.585-1.492-1.362c-0.075-0.824,0.532-1.556,1.357-1.632c2.682-0.245,5.327-0.559,7.864-0.93
			c0.814-0.12,1.581,0.448,1.701,1.269c0.12,0.819-0.447,1.58-1.268,1.7c-2.59,0.378-5.29,0.697-8.025,0.949
			C99.055,97.753,99.008,97.755,98.962,97.755z M59.016,97.357c-0.054,0-0.106-0.002-0.161-0.008
			c-2.756-0.295-5.451-0.652-8.011-1.063c-0.817-0.132-1.373-0.901-1.242-1.72c0.131-0.819,0.898-1.377,1.719-1.243
			c2.509,0.403,5.149,0.755,7.854,1.044c0.824,0.088,1.42,0.826,1.332,1.65C60.423,96.787,59.773,97.357,59.016,97.357z
			 M114.787,95.424c-0.694,0-1.318-0.484-1.467-1.191c-0.17-0.812,0.351-1.605,1.16-1.775c2.643-0.555,5.22-1.189,7.66-1.891
			c0.793-0.229,1.626,0.233,1.855,1.029c0.228,0.797-0.232,1.627-1.029,1.855c-2.511,0.719-5.158,1.372-7.871,1.939
			C114.993,95.415,114.889,95.424,114.787,95.424z M43.231,94.784c-0.11,0-0.225-0.013-0.337-0.038
			c-2.736-0.627-5.374-1.346-7.839-2.133c-0.789-0.252-1.225-1.098-0.972-1.887c0.253-0.787,1.099-1.225,1.886-0.972
			c2.384,0.763,4.939,1.457,7.595,2.065c0.809,0.186,1.312,0.99,1.127,1.798C44.532,94.314,43.915,94.784,43.231,94.784z
			 M130.141,90.98c-0.603,0-1.171-0.364-1.399-0.961c-0.298-0.772,0.089-1.642,0.861-1.938c2.517-0.968,4.923-2.04,7.155-3.188
			c0.733-0.379,1.641-0.088,2.02,0.648c0.38,0.736,0.09,1.641-0.647,2.02c-2.327,1.196-4.833,2.313-7.45,3.32
			C130.502,90.949,130.321,90.98,130.141,90.98z M28.032,89.861c-0.203,0-0.41-0.041-0.607-0.129
			c-2.59-1.146-5.032-2.428-7.257-3.809c-0.704-0.438-0.921-1.361-0.484-2.064c0.438-0.703,1.361-0.922,2.065-0.483
			c2.106,1.308,4.426,2.522,6.891,3.615c0.758,0.335,1.101,1.221,0.765,1.979C29.156,89.529,28.607,89.861,28.032,89.861z
			 M144.299,83.618c-0.474,0-0.939-0.224-1.231-0.642c-0.474-0.681-0.308-1.615,0.372-2.09c2.183-1.521,4.189-3.178,5.969-4.921
			c0.592-0.579,1.541-0.569,2.12,0.021c0.58,0.592,0.57,1.541-0.021,2.121c-1.896,1.858-4.033,3.621-6.351,5.24
			C144.895,83.529,144.596,83.618,144.299,83.618z M14.554,81.385c-0.355,0-0.714-0.126-1-0.383
			c-2.094-1.874-3.97-3.932-5.577-6.111c-0.492-0.666-0.35-1.604,0.316-2.097c0.668-0.493,1.604-0.351,2.098,0.317
			c1.486,2.015,3.223,3.918,5.164,5.656c0.617,0.553,0.67,1.5,0.117,2.117C15.375,81.216,14.965,81.385,14.554,81.385z
			 M155.591,72.436c-0.291,0-0.586-0.084-0.845-0.262c-0.685-0.467-0.86-1.4-0.395-2.085c1.446-2.12,2.664-4.387,3.619-6.739
			c0.312-0.767,1.188-1.139,1.954-0.825c0.768,0.312,1.137,1.187,0.825,1.954c-1.035,2.548-2.354,5.005-3.92,7.302
			C156.542,72.206,156.07,72.436,155.591,72.436z M5.177,68.615c-0.574,0-1.122-0.331-1.371-0.889
			c-1.097-2.459-1.967-5.102-2.587-7.853c-0.182-0.809,0.325-1.611,1.134-1.793c0.809-0.185,1.61,0.324,1.793,1.133
			c0.577,2.559,1.384,5.012,2.4,7.289c0.337,0.757-0.003,1.644-0.759,1.981C5.588,68.573,5.381,68.615,5.177,68.615z
			 M161.575,57.753c-0.09,0-0.18-0.008-0.271-0.024c-0.814-0.147-1.355-0.928-1.208-1.743c0.443-2.448,0.669-5.032,0.669-7.679
			c0-1.602-0.083-3.186-0.245-4.709c-0.088-0.823,0.508-1.562,1.332-1.65c0.811-0.094,1.562,0.508,1.65,1.332
			c0.175,1.629,0.263,3.32,0.263,5.027c0,2.826-0.241,5.59-0.718,8.214C162.917,57.246,162.286,57.753,161.575,57.753z
			 M1.593,53.139c-0.788,0-1.45-0.615-1.496-1.413C0.033,50.614,0,49.463,0,48.307c0-1.626,0.063-3.232,0.192-4.775
			c0.068-0.825,0.793-1.425,1.618-1.371c0.825,0.068,1.439,0.794,1.37,1.619C3.061,45.241,3,46.764,3,48.307
			c0,1.099,0.031,2.19,0.092,3.245c0.048,0.827-0.584,1.536-1.41,1.584C1.652,53.138,1.623,53.139,1.593,53.139z M3.01,37.291
			c-0.125,0-0.254-0.016-0.382-0.049c-0.802-0.211-1.28-1.031-1.069-1.832c0.719-2.737,1.701-5.346,2.921-7.753
			c0.375-0.74,1.277-1.034,2.018-0.661c0.737,0.375,1.034,1.277,0.66,2.016c-1.124,2.219-2.031,4.627-2.696,7.16
			C4.284,36.845,3.676,37.291,3.01,37.291z M160.383,37.135c-0.635,0-1.225-0.405-1.429-1.043c-0.781-2.44-1.831-4.784-3.12-6.965
			c-0.422-0.713-0.187-1.633,0.527-2.055c0.713-0.42,1.635-0.185,2.055,0.528c1.402,2.374,2.545,4.923,3.396,7.578
			c0.253,0.788-0.183,1.633-0.972,1.886C160.689,37.113,160.535,37.135,160.383,37.135z M152.345,23.492
			c-0.401,0-0.803-0.161-1.098-0.478c-1.688-1.814-3.628-3.534-5.764-5.111c-0.666-0.493-0.807-1.432-0.313-2.098
			s1.431-0.806,2.098-0.315c2.283,1.688,4.361,3.531,6.175,5.48c0.564,0.606,0.53,1.556-0.074,2.12
			C153.079,23.358,152.711,23.492,152.345,23.492z M10.198,23.181c-0.339,0-0.681-0.114-0.962-0.349
			c-0.635-0.531-0.72-1.477-0.188-2.113c1.729-2.068,3.735-4.003,5.966-5.751c0.651-0.511,1.594-0.396,2.105,0.255
			c0.511,0.652,0.396,1.595-0.257,2.106c-2.063,1.618-3.92,3.406-5.514,5.314C11.053,22.998,10.627,23.181,10.198,23.181z
			 M139.606,13.958c-0.236,0-0.479-0.057-0.702-0.175c-2.202-1.169-4.598-2.261-7.115-3.244c-0.771-0.301-1.152-1.171-0.853-1.943
			c0.302-0.772,1.17-1.152,1.943-0.852c2.625,1.025,5.126,2.166,7.431,3.389c0.731,0.388,1.01,1.296,0.622,2.028
			C140.663,13.668,140.143,13.958,139.606,13.958z M22.638,13.306c-0.534,0-1.052-0.287-1.323-0.791
			c-0.392-0.729-0.118-1.639,0.611-2.031c2.288-1.229,4.799-2.363,7.463-3.37c0.779-0.293,1.641,0.099,1.935,0.873
			c0.293,0.775-0.099,1.641-0.873,1.934c-2.541,0.96-4.933,2.039-7.104,3.206C23.121,13.248,22.877,13.306,22.638,13.306z
			 M124.754,8.092c-0.138,0-0.277-0.019-0.416-0.059c-2.434-0.7-5.01-1.336-7.659-1.891c-0.811-0.17-1.33-0.965-1.16-1.776
			c0.169-0.812,0.972-1.327,1.775-1.161c2.721,0.57,5.37,1.224,7.874,1.944c0.796,0.229,1.256,1.06,1.025,1.856
			C126.005,7.664,125.406,8.092,124.754,8.092z M37.536,7.585c-0.663,0-1.271-0.442-1.448-1.112c-0.214-0.8,0.261-1.623,1.061-1.837
			c2.488-0.667,5.151-1.268,7.913-1.787c0.812-0.155,1.599,0.383,1.751,1.197c0.153,0.814-0.383,1.599-1.195,1.751
			c-2.688,0.505-5.276,1.09-7.691,1.736C37.794,7.569,37.664,7.585,37.536,7.585z M109.111,4.78c-0.071,0-0.146-0.005-0.22-0.016
			c-2.531-0.371-5.178-0.689-7.867-0.944c-0.823-0.078-1.43-0.81-1.352-1.635c0.077-0.825,0.825-1.439,1.635-1.352
			c2.739,0.26,5.438,0.583,8.021,0.962c0.818,0.12,1.387,0.882,1.267,1.702C110.484,4.243,109.843,4.78,109.111,4.78z M53.241,4.586
			c-0.744,0-1.391-0.552-1.486-1.31c-0.105-0.822,0.476-1.573,1.297-1.678c2.562-0.328,5.263-0.608,8.028-0.833
			c0.814-0.062,1.549,0.548,1.615,1.374c0.067,0.826-0.548,1.549-1.374,1.617c-2.719,0.221-5.372,0.496-7.89,0.818
			C53.368,4.582,53.303,4.586,53.241,4.586z M69.186,3.26c-0.798,0-1.461-0.628-1.497-1.433C67.651,1,68.292,0.299,69.12,0.262
			c2.574-0.116,5.28-0.196,8.043-0.239c0.85-0.006,1.511,0.648,1.522,1.477c0.014,0.829-0.647,1.51-1.477,1.523
			c-2.733,0.042-5.409,0.122-7.955,0.236C69.232,3.26,69.208,3.26,69.186,3.26z M93.185,3.25c-0.024,0-0.051,0-0.077-0.002
			C90.53,3.117,87.859,3.033,85.168,3c-0.828-0.01-1.491-0.69-1.481-1.519C83.698,0.659,84.367,0,85.187,0c0.006,0,0.014,0,0.02,0
			c2.729,0.034,5.438,0.119,8.055,0.251c0.827,0.042,1.464,0.747,1.422,1.574C94.641,2.627,93.979,3.25,93.185,3.25z"/>
	</g>
</g>
</svg>
