<?xml version="1.0" encoding="utf-8"?>
<!-- Generator: Adobe Illustrator 15.0.0, SVG Export Plug-In . SVG Version: 6.00 Build 0)  -->
<!DOCTYPE svg PUBLIC "-//W3C//DTD SVG 1.1//EN" "http://www.w3.org/Graphics/SVG/1.1/DTD/svg11.dtd">
<svg version="1.1" id="Layer_1" xmlns="http://www.w3.org/2000/svg" xmlns:xlink="http://www.w3.org/1999/xlink" x="0px" y="0px"
	 width="146.833px" height="92.228px" viewBox="0 0 146.833 92.228" enable-background="new 0 0 146.833 92.228"
	 xml:space="preserve">
<g>
	<g>
		<path fill="#D6D6D8" d="M72.333,58.996c-1.701,0-3.388-0.006-5.059-0.018c-0.828-0.006-1.495-0.682-1.489-1.511
			c0.006-0.824,0.677-1.489,1.5-1.489c0.003,0,0.007,0,0.011,0c2.638,0.019,5.344,0.024,8.001,0.011c0.003,0,0.006,0,0.008,0
			c0.825,0,1.496,0.667,1.5,1.492c0.004,0.829-0.664,1.504-1.492,1.508C74.324,58.994,73.332,58.996,72.333,58.996z M83.321,58.881
			c-0.812,0-1.48-0.649-1.499-1.467c-0.018-0.828,0.639-1.515,1.467-1.533c2.772-0.062,5.457-0.152,7.978-0.27
			c0.853-0.028,1.53,0.601,1.568,1.428c0.039,0.828-0.601,1.53-1.428,1.568c-2.546,0.119-5.254,0.211-8.052,0.273
			C83.345,58.881,83.333,58.881,83.321,58.881z M59.267,58.852c-0.013,0-0.025,0-0.038,0c-2.882-0.071-5.516-0.167-8.051-0.291
			c-0.827-0.04-1.466-0.744-1.425-1.571c0.04-0.827,0.746-1.456,1.571-1.425c2.512,0.123,5.121,0.217,7.979,0.287
			c0.828,0.021,1.482,0.709,1.463,1.537C60.745,58.205,60.077,58.852,59.267,58.852z M99.34,58.111
			c-0.774,0-1.431-0.596-1.493-1.381c-0.065-0.826,0.551-1.549,1.376-1.614c2.773-0.221,5.434-0.491,7.908-0.806
			c0.812-0.099,1.572,0.478,1.677,1.3c0.104,0.821-0.478,1.572-1.3,1.677c-2.52,0.319-5.228,0.596-8.047,0.819
			C99.42,58.109,99.38,58.111,99.34,58.111z M43.251,58.039c-0.042,0-0.085-0.002-0.128-0.005c-2.85-0.239-5.557-0.532-8.047-0.869
			c-0.821-0.111-1.396-0.866-1.285-1.688c0.11-0.821,0.859-1.407,1.688-1.285c2.44,0.33,5.097,0.617,7.897,0.852
			c0.825,0.069,1.438,0.795,1.369,1.621C44.678,57.447,44.022,58.039,43.251,58.039z M115.235,56.04c-0.702,0-1.33-0.496-1.47-1.212
			c-0.159-0.813,0.37-1.602,1.184-1.76c2.756-0.54,5.324-1.17,7.633-1.874c0.788-0.244,1.63,0.204,1.872,0.997
			c0.242,0.792-0.205,1.631-0.997,1.872c-2.406,0.734-5.075,1.39-7.932,1.948C115.428,56.031,115.331,56.04,115.235,56.04z
			 M27.376,55.828c-0.103,0-0.208-0.011-0.313-0.032c-2.87-0.609-5.53-1.326-7.906-2.132c-0.785-0.267-1.205-1.118-0.939-1.902
			c0.265-0.784,1.118-1.204,1.902-0.939c2.265,0.769,4.811,1.454,7.566,2.038c0.81,0.173,1.328,0.969,1.156,1.779
			C28.693,55.344,28.07,55.828,27.376,55.828z M130.477,51.217c-0.551,0-1.081-0.304-1.344-0.831
			c-0.369-0.741-0.068-1.642,0.674-2.012c2.471-1.231,4.579-2.65,6.265-4.216c0.605-0.564,1.557-0.529,2.119,0.078
			c0.564,0.606,0.529,1.556-0.078,2.119c-1.896,1.761-4.239,3.344-6.968,4.704C130.93,51.167,130.701,51.217,130.477,51.217z
			 M12.322,50.51c-0.254,0-0.512-0.064-0.748-0.201C8.928,48.783,6.709,47,4.979,45.01c-0.543-0.626-0.477-1.573,0.148-2.116
			c0.623-0.544,1.571-0.479,2.116,0.147c1.511,1.738,3.473,3.31,5.83,4.67c0.718,0.413,0.964,1.331,0.55,2.049
			C13.345,50.242,12.841,50.51,12.322,50.51z M141.685,40.292c-0.193,0-0.391-0.037-0.58-0.117c-0.764-0.32-1.123-1.2-0.802-1.964
			c0.905-2.155,1.364-4.582,1.364-7.215l-0.001-0.279c-0.008-0.829,0.656-1.507,1.485-1.515c0.005,0,0.01,0,0.015,0
			c0.821,0,1.491,0.662,1.5,1.485l0.001,0.31c0,3.034-0.538,5.853-1.599,8.377C142.827,39.947,142.271,40.292,141.685,40.292z
			 M2.313,38.571c-0.651,0-1.251-0.427-1.44-1.084C0.293,35.483,0,33.299,0,30.996c0-0.659,0.019-1.304,0.056-1.935
			c0.048-0.828,0.769-1.446,1.585-1.41c0.827,0.048,1.458,0.758,1.41,1.585C3.017,29.81,3,30.396,3,30.996
			c0,2.021,0.254,3.926,0.754,5.659c0.23,0.796-0.229,1.627-1.025,1.857C2.591,38.552,2.451,38.571,2.313,38.571z M142.011,24.318
			c-0.639,0-1.23-0.411-1.432-1.053c-0.754-2.41-1.928-4.591-3.489-6.481c-0.527-0.639-0.437-1.584,0.202-2.112
			c0.64-0.528,1.585-0.437,2.112,0.202c1.809,2.191,3.167,4.713,4.038,7.496c0.247,0.791-0.193,1.632-0.983,1.879
			C142.31,24.296,142.158,24.318,142.011,24.318z M3.243,22.877c-0.19,0-0.383-0.036-0.569-0.113
			c-0.767-0.314-1.133-1.191-0.818-1.957c1.084-2.643,2.67-5.03,4.713-7.098c0.583-0.589,1.532-0.595,2.122-0.012
			c0.589,0.583,0.595,1.532,0.012,2.122c-1.767,1.787-3.137,3.849-4.072,6.127C4.393,22.526,3.833,22.877,3.243,22.877z
			 M132.177,12.181c-0.266,0-0.534-0.07-0.778-0.218c-1.996-1.212-4.343-2.288-6.976-3.196c-0.783-0.27-1.199-1.124-0.929-1.907
			c0.27-0.783,1.123-1.201,1.907-0.929c2.835,0.978,5.376,2.145,7.556,3.469c0.708,0.43,0.933,1.353,0.503,2.061
			C133.178,11.924,132.683,12.181,132.177,12.181z M14.08,11.571c-0.537,0-1.056-0.289-1.325-0.795
			c-0.39-0.731-0.113-1.639,0.619-2.029c2.235-1.191,4.813-2.247,7.662-3.138c0.79-0.247,1.632,0.193,1.879,0.984
			c0.247,0.791-0.193,1.632-0.984,1.879c-2.671,0.836-5.076,1.819-7.147,2.922C14.559,11.514,14.317,11.571,14.08,11.571z
			 M117.179,6.769c-0.101,0-0.203-0.01-0.305-0.031c-2.371-0.489-4.993-0.914-7.795-1.261c-0.822-0.102-1.406-0.851-1.304-1.673
			c0.102-0.822,0.852-1.408,1.673-1.304c2.881,0.357,5.583,0.794,8.031,1.3c0.812,0.167,1.334,0.961,1.166,1.772
			C118.499,6.28,117.875,6.769,117.179,6.769z M29.261,6.625c-0.706,0-1.334-0.5-1.472-1.218c-0.156-0.814,0.377-1.6,1.191-1.755
			c2.46-0.471,5.164-0.881,8.034-1.217c0.828-0.094,1.568,0.492,1.665,1.315c0.097,0.823-0.492,1.568-1.315,1.665
			c-2.799,0.328-5.43,0.727-7.819,1.184C29.449,6.616,29.354,6.625,29.261,6.625z M101.284,4.723c-0.036,0-0.073-0.001-0.109-0.004
			c-2.478-0.178-5.08-0.317-7.957-0.426c-0.828-0.031-1.474-0.728-1.442-1.556c0.031-0.828,0.744-1.464,1.556-1.442
			c2.911,0.11,5.547,0.252,8.059,0.432c0.826,0.059,1.448,0.777,1.389,1.604C102.722,4.12,102.063,4.723,101.284,4.723z
			 M45.172,4.693c-0.781,0-1.44-0.605-1.494-1.397c-0.058-0.827,0.566-1.542,1.393-1.6c2.504-0.172,5.215-0.312,8.057-0.417
			c0.816-0.023,1.523,0.616,1.554,1.444s-0.616,1.524-1.444,1.554c-2.81,0.103-5.487,0.242-7.959,0.412
			C45.242,4.692,45.207,4.693,45.172,4.693z M85.258,4.083c-0.008,0-0.017,0-0.024,0c-2.62-0.043-5.29-0.066-8.001-0.078
			c-0.829-0.003-1.497-0.678-1.494-1.506c0.003-0.826,0.675-1.494,1.5-1.494c0.002,0,0.004,0,0.006,0
			c2.725,0.011,5.406,0.034,8.038,0.078c0.829,0.014,1.489,0.696,1.476,1.525C86.744,3.427,86.075,4.083,85.258,4.083z
			 M61.199,4.072c-0.817,0-1.486-0.656-1.5-1.476c-0.013-0.828,0.647-1.51,1.476-1.524C63.81,1.03,66.491,1.009,69.214,1
			c0.83,0.046,1.502,0.667,1.505,1.495S70.052,3.998,69.224,4c-2.709,0.009-5.379,0.03-8,0.072
			C61.215,4.072,61.207,4.072,61.199,4.072z"/>
		<path fill="#D6D6D8" d="M145.332,92.228c-0.248,0-0.499-0.062-0.73-0.19c-0.524-0.293-12.935-7.274-21.186-15.704
			c-8.55-8.735-21.299-18.231-21.427-18.326c-0.665-0.494-0.804-1.434-0.31-2.099s1.436-0.803,2.099-0.31
			c0.129,0.096,13.063,9.729,21.782,18.637c7.951,8.123,20.38,15.113,20.504,15.183c0.724,0.404,0.982,1.318,0.578,2.041
			C146.367,91.952,145.857,92.228,145.332,92.228z"/>
	</g>
	<g>
		<path fill="#69D2E7" d="M72.333,57.996c-1.701,0-3.388-0.006-5.059-0.018c-0.828-0.006-1.495-0.682-1.489-1.511
			c0.006-0.824,0.677-1.489,1.5-1.489c0.003,0,0.007,0,0.011,0c2.638,0.019,5.344,0.024,8.001,0.011c0.003,0,0.006,0,0.008,0
			c0.825,0,1.496,0.667,1.5,1.492c0.004,0.829-0.664,1.504-1.492,1.508C74.324,57.994,73.332,57.996,72.333,57.996z M83.321,57.881
			c-0.812,0-1.48-0.649-1.499-1.467c-0.018-0.828,0.639-1.515,1.467-1.533c2.772-0.062,5.457-0.152,7.978-0.27
			c0.853-0.028,1.53,0.601,1.568,1.428c0.039,0.828-0.601,1.53-1.428,1.568c-2.546,0.119-5.254,0.211-8.052,0.273
			C83.345,57.881,83.333,57.881,83.321,57.881z M59.267,57.852c-0.013,0-0.025,0-0.038,0c-2.882-0.071-5.516-0.167-8.051-0.291
			c-0.827-0.04-1.466-0.744-1.425-1.571c0.04-0.827,0.746-1.456,1.571-1.425c2.512,0.123,5.121,0.217,7.979,0.287
			c0.828,0.021,1.482,0.709,1.463,1.537C60.745,57.205,60.077,57.852,59.267,57.852z M99.34,57.111
			c-0.774,0-1.431-0.596-1.493-1.381c-0.065-0.826,0.551-1.549,1.376-1.614c2.773-0.221,5.434-0.491,7.908-0.806
			c0.812-0.099,1.572,0.478,1.677,1.3c0.104,0.821-0.478,1.572-1.3,1.677c-2.52,0.319-5.228,0.596-8.047,0.819
			C99.42,57.109,99.38,57.111,99.34,57.111z M43.251,57.039c-0.042,0-0.085-0.002-0.128-0.005c-2.85-0.239-5.557-0.532-8.047-0.869
			c-0.821-0.111-1.396-0.866-1.285-1.688c0.11-0.821,0.859-1.407,1.688-1.285c2.44,0.33,5.097,0.617,7.897,0.852
			c0.825,0.069,1.438,0.795,1.369,1.621C44.678,56.447,44.022,57.039,43.251,57.039z M115.235,55.04c-0.702,0-1.33-0.496-1.47-1.212
			c-0.159-0.813,0.37-1.602,1.184-1.76c2.756-0.54,5.324-1.17,7.633-1.874c0.788-0.244,1.63,0.204,1.872,0.997
			c0.242,0.792-0.205,1.631-0.997,1.872c-2.406,0.734-5.075,1.39-7.932,1.948C115.428,55.031,115.331,55.04,115.235,55.04z
			 M27.376,54.828c-0.103,0-0.208-0.011-0.313-0.032c-2.87-0.609-5.53-1.326-7.906-2.132c-0.785-0.267-1.205-1.118-0.939-1.902
			c0.265-0.784,1.118-1.204,1.902-0.939c2.265,0.769,4.811,1.454,7.566,2.038c0.81,0.173,1.328,0.969,1.156,1.779
			C28.693,54.344,28.07,54.828,27.376,54.828z M130.477,50.217c-0.551,0-1.081-0.304-1.344-0.831
			c-0.369-0.741-0.068-1.642,0.674-2.012c2.471-1.231,4.579-2.65,6.265-4.216c0.605-0.564,1.557-0.529,2.119,0.078
			c0.564,0.606,0.529,1.556-0.078,2.119c-1.896,1.761-4.239,3.344-6.968,4.704C130.93,50.167,130.701,50.217,130.477,50.217z
			 M12.322,49.51c-0.254,0-0.512-0.064-0.748-0.201C8.928,47.783,6.709,46,4.979,44.01c-0.543-0.626-0.477-1.573,0.148-2.116
			c0.623-0.544,1.571-0.479,2.116,0.147c1.511,1.738,3.473,3.31,5.83,4.67c0.718,0.413,0.964,1.331,0.55,2.049
			C13.345,49.242,12.841,49.51,12.322,49.51z M141.685,39.292c-0.193,0-0.391-0.037-0.58-0.117c-0.764-0.32-1.123-1.2-0.802-1.964
			c0.905-2.155,1.364-4.582,1.364-7.215l-0.001-0.279c-0.008-0.829,0.656-1.507,1.485-1.515c0.005,0,0.01,0,0.015,0
			c0.821,0,1.491,0.662,1.5,1.485l0.001,0.31c0,3.034-0.538,5.853-1.599,8.377C142.827,38.947,142.271,39.292,141.685,39.292z
			 M2.313,37.571c-0.651,0-1.251-0.427-1.44-1.084C0.293,34.483,0,32.299,0,29.996c0-0.659,0.019-1.304,0.056-1.935
			c0.048-0.828,0.769-1.446,1.585-1.41c0.827,0.048,1.458,0.758,1.41,1.585C3.017,28.81,3,29.396,3,29.996
			c0,2.021,0.254,3.926,0.754,5.659c0.23,0.796-0.229,1.627-1.025,1.857C2.591,37.552,2.451,37.571,2.313,37.571z M142.011,23.318
			c-0.639,0-1.23-0.411-1.432-1.053c-0.754-2.41-1.928-4.591-3.489-6.481c-0.527-0.639-0.437-1.584,0.202-2.112
			c0.64-0.528,1.585-0.437,2.112,0.202c1.809,2.191,3.167,4.713,4.038,7.496c0.247,0.791-0.193,1.632-0.983,1.879
			C142.31,23.296,142.158,23.318,142.011,23.318z M3.243,21.877c-0.19,0-0.383-0.036-0.569-0.113
			c-0.767-0.314-1.133-1.191-0.818-1.957c1.084-2.643,2.67-5.03,4.713-7.098c0.583-0.589,1.532-0.595,2.122-0.012
			c0.589,0.583,0.595,1.532,0.012,2.122c-1.767,1.787-3.137,3.849-4.072,6.127C4.393,21.526,3.833,21.877,3.243,21.877z
			 M132.177,11.181c-0.266,0-0.534-0.07-0.778-0.218c-1.996-1.212-4.343-2.288-6.976-3.196c-0.783-0.27-1.199-1.124-0.929-1.907
			c0.27-0.783,1.123-1.201,1.907-0.929c2.835,0.978,5.376,2.145,7.556,3.469c0.708,0.43,0.933,1.353,0.503,2.061
			C133.178,10.924,132.683,11.181,132.177,11.181z M14.08,10.571c-0.537,0-1.056-0.289-1.325-0.795
			c-0.39-0.731-0.113-1.639,0.619-2.029c2.235-1.191,4.813-2.247,7.662-3.138c0.79-0.247,1.632,0.193,1.879,0.984
			c0.247,0.791-0.193,1.632-0.984,1.879c-2.671,0.836-5.076,1.819-7.147,2.922C14.559,10.514,14.317,10.571,14.08,10.571z
			 M117.179,5.769c-0.101,0-0.203-0.01-0.305-0.031c-2.371-0.489-4.993-0.914-7.795-1.261c-0.822-0.102-1.406-0.851-1.304-1.673
			c0.102-0.822,0.852-1.408,1.673-1.304c2.881,0.357,5.583,0.794,8.031,1.3c0.812,0.167,1.334,0.961,1.166,1.772
			C118.499,5.28,117.875,5.769,117.179,5.769z M29.261,5.625c-0.706,0-1.334-0.5-1.472-1.218c-0.156-0.814,0.377-1.6,1.191-1.755
			c2.46-0.471,5.164-0.881,8.034-1.217c0.828-0.094,1.568,0.492,1.665,1.315c0.097,0.823-0.492,1.568-1.315,1.665
			c-2.799,0.328-5.43,0.727-7.819,1.184C29.449,5.616,29.354,5.625,29.261,5.625z M101.284,3.723c-0.036,0-0.073-0.001-0.109-0.004
			c-2.478-0.178-5.08-0.317-7.957-0.426c-0.828-0.031-1.474-0.728-1.442-1.556c0.031-0.828,0.744-1.464,1.556-1.442
			c2.911,0.11,5.547,0.252,8.059,0.432c0.826,0.059,1.448,0.777,1.389,1.604C102.722,3.12,102.063,3.723,101.284,3.723z
			 M45.172,3.693c-0.781,0-1.44-0.605-1.494-1.397c-0.058-0.827,0.566-1.542,1.393-1.6c2.504-0.172,5.215-0.312,8.057-0.417
			c0.816-0.023,1.523,0.616,1.554,1.444s-0.616,1.524-1.444,1.554c-2.81,0.103-5.487,0.242-7.959,0.412
			C45.242,3.692,45.207,3.693,45.172,3.693z M85.258,3.083c-0.008,0-0.017,0-0.024,0c-2.62-0.043-5.29-0.066-8.001-0.078
			c-0.829-0.003-1.497-0.678-1.494-1.506c0.003-0.826,0.675-1.494,1.5-1.494c0.002,0,0.004,0,0.006,0
			c2.725,0.011,5.406,0.034,8.038,0.078c0.829,0.014,1.489,0.696,1.476,1.525C86.744,2.427,86.075,3.083,85.258,3.083z
			 M61.199,3.072c-0.817,0-1.486-0.656-1.5-1.476c-0.013-0.828,0.647-1.51,1.476-1.524C63.81,0.03,66.491,0.009,69.214,0
			c0.83,0.046,1.502,0.667,1.505,1.495S70.052,2.998,69.224,3c-2.709,0.009-5.379,0.03-8,0.072
			C61.215,3.072,61.207,3.072,61.199,3.072z"/>
		<path fill="#69D2E7" d="M145.332,91.228c-0.248,0-0.499-0.062-0.73-0.19c-0.524-0.293-12.935-7.274-21.186-15.704
			c-8.55-8.735-21.299-18.231-21.427-18.326c-0.665-0.494-0.804-1.434-0.31-2.099s1.436-0.803,2.099-0.31
			c0.129,0.096,13.063,9.729,21.782,18.637c7.951,8.123,20.38,15.113,20.504,15.183c0.724,0.404,0.982,1.318,0.578,2.041
			C146.367,90.952,145.857,91.228,145.332,91.228z"/>
	</g>
</g>
</svg>
