<?xml version="1.0" encoding="utf-8"?>
<!-- Generator: Adobe Illustrator 19.0.1, SVG Export Plug-In . SVG Version: 6.00 Build 0)  -->
<svg version="1.1" id="Layer_1" xmlns="http://www.w3.org/2000/svg" xmlns:xlink="http://www.w3.org/1999/xlink" x="0px" y="0px"
	 width="44.5px" height="143.6px" viewBox="-285.5 324.4 44.5 143.6" style="enable-background:new -285.5 324.4 44.5 143.6;"
	 xml:space="preserve">
<style type="text/css">
	.st0{fill:#FAFAFA;stroke:#E4CBA9;stroke-miterlimit:10;}
	.st1{fill:#ED2224;}
	.st2{fill:#F58020;}
	.st3{fill:#F6EB16;}
	.st4{fill:#6ABD45;}
	.st5{fill:#71C16B;}
	.st6{fill:#70CDDD;}
	.st7{fill:#4478BC;}
	.st8{fill:#3A53A4;}
	.st9{fill:#6B52A2;}
	.st10{fill:#B9539F;}
	.st11{fill:#8BC24C;}
	.st12{fill:#A3CF66;}
	.st13{fill:#64A644;}
	.st14{opacity:0.15;}
	.st15{fill:#FFFFFF;}
	.st16{fill:#538A3E;}
	.st17{fill:#426932;}
</style>
<g>
	<path class="st0" d="M-242,459c0,4.4-3.6,8-8,8h-26c-4.4,0-8-3.6-8-8V334c0-4.4,3.6-8,8-8h26c4.4,0,8,3.6,8,8V459z"/>
	<g>
		<path class="st1" d="M-262.6,464.6c-1.1,0-2-0.9-2-2v-10c0-1.1,0.9-2,2-2s2,0.9,2,2v10C-260.6,463.7-261.5,464.6-262.6,464.6z"/>
		<path class="st2" d="M-262.6,454.6c-1.1,0-2-0.9-2-2v-10c0-1.1,0.9-2,2-2s2,0.9,2,2v10C-260.6,453.7-261.5,454.6-262.6,454.6z"/>
		<path class="st3" d="M-262.6,444.6c-1.1,0-2-0.9-2-2v-10c0-1.1,0.9-2,2-2s2,0.9,2,2v10C-260.6,443.7-261.5,444.6-262.6,444.6z"/>
		<path class="st4" d="M-262.6,434.6c-1.1,0-2-0.9-2-2v-10c0-1.1,0.9-2,2-2s2,0.9,2,2v10C-260.6,433.7-261.5,434.6-262.6,434.6z"/>
		<path class="st5" d="M-262.6,424.6c-1.1,0-2-0.9-2-2v-10c0-1.1,0.9-2,2-2s2,0.9,2,2v10C-260.6,423.7-261.5,424.6-262.6,424.6z"/>
		<path class="st6" d="M-262.6,414.6c-1.1,0-2-0.9-2-2v-10c0-1.1,0.9-2,2-2s2,0.9,2,2v10C-260.6,413.7-261.5,414.6-262.6,414.6z"/>
		<path class="st7" d="M-262.6,404.6c-1.1,0-2-0.9-2-2v-10c0-1.1,0.9-2,2-2s2,0.9,2,2v10C-260.6,403.7-261.5,404.6-262.6,404.6z"/>
		<path class="st8" d="M-262.6,394.6c-1.1,0-2-0.9-2-2v-10c0-1.1,0.9-2,2-2s2,0.9,2,2v10C-260.6,393.7-261.5,394.6-262.6,394.6z"/>
		<path class="st9" d="M-262.6,384.6c-1.1,0-2-0.9-2-2v-10c0-1.1,0.9-2,2-2s2,0.9,2,2v10C-260.6,383.7-261.5,384.6-262.6,384.6z"/>
		<path class="st10" d="M-262.6,374.6c-1.1,0-2-0.9-2-2v-10c0-1.1,0.9-2,2-2s2,0.9,2,2v10C-260.6,373.7-261.5,374.6-262.6,374.6z"/>
	</g>
	<g id="Layer_3_2_">
		<g>
			<path class="st11" d="M-258.9,330.2C-258.9,330.2-258.9,330.2-258.9,330.2c2.6,1.3,4.3,4.1,4.3,7.5c0,1.5-0.2,1.7-1,3.5
				c0,0-0.5,1.1-1.2,1.4h0l0,0c0,0-1,1.1,0.6,2.1c1.2,0.8-3.9,2.5-6.1,2.7c-2.2-0.2-7.5-1.9-6.3-2.7c1.6-1,0.4-2.1,0.4-2.1l0,0
				c-0.7-0.3-1.3-2-1.3-2c-0.4-1.1-0.8-1.9-0.8-3.4c0-3.3,1.7-5.8,4.3-7.1c0,0,0,0,0,0c0-0.4,2.3-1.5,3.6-1.5
				C-261,328.7-259,329.8-258.9,330.2L-258.9,330.2z M-271.6,350.3c0,0-2.3-4.2-5.1-3.4c-2.8,0.8-3.1,2.7-3.1,4.3
				c0,2.3,2.4,3.7,2.4,3.7C-276,352.3-271.6,350.3-271.6,350.3z M-247.7,354.9c0,0,2.4-1.4,2.4-3.7c0-1.6-0.3-3.6-3.1-4.3
				c-2.8-0.8-5.1,3.4-5.1,3.4S-249.1,352.3-247.7,354.9z M-277.4,367.5c0,0-3.5,2.7-3.1,4.6c0.4,2.6,3.1,2.4,4.7,2.4
				c3.3-0.1,2.2-1.7,2.2-1.7S-275.8,370-277.4,367.5z M-251.6,372.8c0,0-1,1.6,2.2,1.7c1.6,0,4.3,0.2,4.7-2.4
				c0.3-1.8-3.1-4.6-3.1-4.6C-249.4,370-251.6,372.8-251.6,372.8z M-266.3,378.8c0,0,2.6,4.8,8.1,5.6c0.5,0.1,0.9-0.6,0.7-1
				c-1.8-2.8-1.6-4.6-1.6-4.6l-3.3-1.2L-266.3,378.8z"/>
			<path class="st12" d="M-267.7,342c-0.6-0.1-0.9-0.6-1.2-1.2c-1.2-2.9-1.3-4-1.1-4.3c1.5-1.8,2.6-0.3,4.4-2.8
				c1.3-1.8-0.2-2.7,0-2.8c0.3-0.2-0.1-0.7,0-0.8c1.2-0.8,3-1.1,3-1.1s1.8,0.2,3,1.1c0.1,0.1-0.3,0.6,0,0.8c0.2,0.2-1.3,1,0,2.8
				c1.8,2.5,2.9,0.9,4.4,2.8c0.2,0.4,0.2,1.4-1.1,4.3c-0.3,0.6-0.5,1-1.2,1.2c-1.7,0-3,1.1-5.2,1.1C-264.7,343.1-266,342-267.7,342z
				 M-262.5,346.7c2.2,0.1,6.3-0.8,5.2-1.7c-1.4-1.2,0-2.2-0.2-2.2c-1.7,0-2.1,1.2-5,1.2c-2.9,0-3.3-1.2-5-1.2
				c-0.2-0.1,1.1,1-0.2,2.2C-268.9,345.9-264.7,346.8-262.5,346.7z M-273.6,351.9c0.8-0.9,1.5-1.3,1.5-1.3s-2.8-4-4.7-3.1
				c-0.6,0.3-0.9,0.5-1.3,0.8L-273.6,351.9z M-247.2,348.3c-0.3-0.3-0.6-0.5-1.2-0.8c-1.8-0.9-4.7,3.1-4.7,3.1s0.7,0.5,1.5,1.3
				L-247.2,348.3z M-277,369c-0.7-0.8,0,0.4-0.6-0.6c0,0-3.2,2.4-2.3,3.8c0.1,0.1,0.4,0.5,0.7,0.1L-277,369z M-246,372.3
				c0.4,0.4,0.6,0,0.7-0.1c0.9-1.4-2.3-3.8-2.3-3.8c-0.6,0.9,0.1-0.2-0.6,0.6L-246,372.3z M-263.4,381.1c1,1.2,3.9,2.7,4.4,2.5
				c0.3-0.1-2-1.1-3.2-2.4c-1.4-1.4-1.6-3.1-1.6-3.1l-1.3,0.3C-265,378.4-264.3,380.1-263.4,381.1z"/>
			<g id="shell">
				<g>
					<path class="st13" d="M-262.4,369.7h-2.9c-0.8,0-1.8-0.6-2.1-1.2l-3.1-5.6c-0.4-0.6-0.4-1.7,0-2.4l3.1-5.6
						c0.4-0.6,1.3-1.3,2.1-1.3h2.9h2.3c0.8,0,1.8,0.6,2.1,1.3l3.1,5.5c0.4,0.6,0.4,1.7,0,2.4l-3.1,5.6c-0.4,0.6-1.3,1.2-2.1,1.2
						L-262.4,369.7"/>
					<path class="st13" d="M-262.4,351.4h-2.9c-0.8,0-1.9-0.2-2.4-0.8l-2.6-2.9c-0.5-0.6-0.7-1.1-0.6-1.2c0,0,0.1,0,0.3-0.1
						c2.4-1.6,3.7,1.2,8.1,1.2c3.6,0,5.4-2.7,7.8-1.1c0.2,0.1,0.1,0.1,0.1,0.1c0.2,0.1-0.1,0.7-0.6,1.3l-2.6,2.8
						c-0.5,0.6-1.6,0.8-2.4,0.8L-262.4,351.4L-262.4,351.4z"/>
					<path class="st13" d="M-262.4,377.2c-1.5,0-2.5,0.5-3.8,0.1c-1.4-0.4-2.7-1-2.7-1c-0.7-0.4-0.9-1.1-0.5-1.8l1.9-2.4
						c0.4-0.6,1.5-1,2.3-1h2.9h2.2c0.8,0,1.8,0.4,2.3,1l1.9,2.5c0.4,0.6,0.2,1.4-0.4,1.7c0,0-1.1,0.7-2.5,1
						C-260.2,377.7-261.6,377.2-262.4,377.2z"/>
					<path class="st13" d="M-253.6,349.1c0.5-0.6,1-0.9,1.2-0.8c0,0,0,0,0.1,0.1c0.9,0.9,0.2,2.5,0.9,3.5c0.6,0.9,2.6,1.2,3,2.3
						c0.8,2,1.1,5.3,1.1,5.3c0.1,0.7-0.5,1.4-1.3,1.4h-2.6c-0.8,0-1.7-0.6-2.1-1.3l-2.9-5.5c-0.3-0.7-0.2-1.7,0.3-2.3L-253.6,349.1z
						"/>
					<path class="st13" d="M-269.5,351.9c0.5,0.6,0.6,1.6,0.3,2.2l-2.9,5.6c-0.3,0.7-1.3,1.3-2.1,1.3h-2.6c-0.8,0-1.4-0.7-1.3-1.4
						c0,0,0.3-3.2,1.1-5.2c0.4-1,2.4-1.4,3-2.3c0.7-1,0-2.7,0.9-3.5c0.1-0.1,0.1-0.1,0.1-0.1c0.1-0.1,0.7,0.2,1.2,0.8L-269.5,351.9z
						"/>
					<path class="st13" d="M-269.2,368.8c0.4,0.6,0.3,1.7-0.1,2.3l-1.7,2.3c-0.4,0.6-1.1,0.9-1.4,0.6c0,0,0,0-0.3-0.3
						c-0.9-0.9-0.3-2.4-1.2-3.6c-1-1.3-2.5-1.2-2.9-2.3c-0.7-1.6-1.1-3.6-1.1-3.6c-0.1-0.7,0.4-1.1,1.2-1.1h2.5c0.8,0,1.8,0.3,2.1,1
						L-269.2,368.8z"/>
					<path class="st13" d="M-253.3,364.1c0.4-0.6,1.3-1,2.1-1h2.5c0.8,0,1.4,0.4,1.2,1.1c0,0-0.4,2.1-1.1,3.7
						c-0.4,1.1-1.9,0.9-2.9,2.3c-0.9,1.2-0.3,2.7-1.2,3.5c-0.3,0.3-0.3,0.2-0.3,0.2c-0.3,0.3-1,0-1.4-0.6l-1.7-2.3
						c-0.4-0.6-0.5-1.5-0.1-2.2L-253.3,364.1z"/>
				</g>
				<g class="st14">
					<path class="st15" d="M-261.8,370.2h-2.9c-0.8,0-1.8-0.6-2.1-1.2l-3.1-5.6c-0.4-0.6-0.4-1.7,0-2.4l3.1-5.6
						c0.4-0.6,1.3-1.3,2.1-1.3h2.9h2.3c0.8,0,1.8,0.6,2.1,1.3l3.1,5.5c0.4,0.6,0.4,1.7,0,2.4l-3.1,5.6c-0.4,0.6-1.3,1.2-2.1,1.2
						L-261.8,370.2"/>
					<path class="st15" d="M-261.8,352h-2.9c-0.8,0-1.9-0.2-2.4-0.8l-2.6-2.9c-0.5-0.6-0.7-1.1-0.6-1.2c0,0,0.1,0,0.3-0.1
						c2.4-1.6,3.7,1.2,8.1,1.2c3.6,0,5.4-2.7,7.8-1.1c0.2,0.1,0.1,0.1,0.1,0.1c0.2,0.1-0.1,0.7-0.6,1.3l-2.6,2.8
						c-0.5,0.6-1.6,0.8-2.4,0.8L-261.8,352L-261.8,352z"/>
					<path class="st15" d="M-261.8,377.8c-1.5,0-2.5,0.5-3.8,0.1c-1.4-0.4-2.7-1-2.7-1c-0.7-0.4-0.9-1.1-0.5-1.8l1.9-2.4
						c0.4-0.6,1.5-1,2.3-1h2.9h2.2c0.8,0,1.8,0.4,2.3,1l1.9,2.5c0.4,0.6,0.2,1.4-0.4,1.7c0,0-1.1,0.7-2.5,1
						C-259.6,378.3-261.1,377.8-261.8,377.8z"/>
					<path class="st15" d="M-253,349.7c0.5-0.6,1-0.9,1.2-0.8c0,0,0,0,0.1,0.1c0.9,0.9,0.2,2.5,0.9,3.5c0.6,0.9,2.6,1.2,3,2.3
						c0.8,2,1.1,5.3,1.1,5.3c0.1,0.7-0.5,1.4-1.3,1.4h-2.6c-0.8,0-1.7-0.6-2.1-1.3l-2.9-5.5c-0.3-0.7-0.2-1.7,0.3-2.3L-253,349.7z"
						/>
					<path class="st15" d="M-268.9,352.4c0.5,0.6,0.6,1.6,0.3,2.2l-2.9,5.6c-0.3,0.7-1.3,1.3-2.1,1.3h-2.6c-0.8,0-1.4-0.7-1.3-1.4
						c0,0,0.3-3.2,1.1-5.2c0.4-1,2.4-1.4,3-2.3c0.7-1,0-2.7,0.9-3.5c0.1-0.1,0.1-0.1,0.1-0.1c0.1-0.1,0.7,0.2,1.2,0.8L-268.9,352.4z
						"/>
					<path class="st15" d="M-268.7,369.4c0.4,0.6,0.3,1.7-0.1,2.3l-1.7,2.3c-0.4,0.6-1.1,0.9-1.4,0.6c0,0,0,0-0.3-0.3
						c-0.9-0.9-0.3-2.4-1.2-3.6c-1-1.3-2.5-1.2-2.9-2.3c-0.7-1.6-1.1-3.6-1.1-3.6c-0.1-0.7,0.4-1.1,1.2-1.1h2.5c0.8,0,1.8,0.3,2.1,1
						L-268.7,369.4z"/>
					<path class="st15" d="M-252.7,364.6c0.4-0.6,1.3-1,2.1-1h2.5c0.8,0,1.4,0.4,1.2,1.1c0,0-0.4,2.1-1.1,3.7
						c-0.4,1.1-1.9,0.9-2.9,2.3c-0.9,1.2-0.3,2.7-1.2,3.5c-0.3,0.3-0.3,0.2-0.3,0.2c-0.3,0.3-1,0-1.4-0.6l-1.7-2.3
						c-0.4-0.6-0.5-1.5-0.1-2.2L-252.7,364.6z"/>
				</g>
				<path class="st16" d="M-262.4,378.6c0.7,0,2.2,0.8,3.5,0.5c2.8-0.7,5.3-2.1,7.4-4c1-0.9,0-2.3,1.3-3.8c1.8-2.2,2.9-1.7,3.5-3.1
					c0.9-2.2,1.4-4.7,1.4-7.2c0-2.5-0.5-4.9-1.4-7c-0.5-1.2-2.6-1.7-3.3-2.8c-0.8-1.2-0.3-2.9-1.3-3.9c-0.1-0.1-0.1-0.1-0.1-0.1
					c-0.1-0.1-0.3-0.4-0.4-0.4c-0.1-0.1-1.1-1.1-1.7-1.5c-3.1-2.2-6.7,0.8-8.9,0.8c-2.9,0-6.1-2.9-9.2-0.8c-0.6,0.4-1.9,1.4-2,1.5
					c-0.1,0.1-0.3,0.3-0.5,0.4c0,0,0,0-0.1,0.1c-1,1-0.5,2.7-1.3,3.9c-0.7,1.1-2.8,1.6-3.3,2.8c-0.9,2.2-1.4,4.5-1.4,7
					c0,2.6,0.5,5,1.4,7.2c0.5,1.3,1.7,0.9,3.5,3.1c1.2,1.5,0.3,2.9,1.3,3.8c2.1,1.9,4.8,3.3,7.7,4
					C-264.9,379.4-263.8,378.6-262.4,378.6z M-262.4,369.7h-2.9c-0.8,0-1.8-0.6-2.1-1.2l-3.1-5.6c-0.4-0.6-0.4-1.7,0-2.4l3.1-5.6
					c0.4-0.6,1.3-1.3,2.1-1.3h2.9h2.3c0.8,0,1.8,0.6,2.1,1.3l3.1,5.5c0.4,0.6,0.4,1.7,0,2.4l-3.1,5.6c-0.4,0.6-1.3,1.2-2.1,1.2
					L-262.4,369.7 M-262.4,351.4h-2.9c-0.8,0-1.9-0.2-2.4-0.8l-2.6-2.9c-0.5-0.6-0.7-1.1-0.6-1.2c0,0,0.1,0,0.3-0.1
					c2.4-1.6,3.7,1.2,8.1,1.2c3.6,0,5.4-2.7,7.8-1.1c0.2,0.1,0.1,0.1,0.1,0.1c0.2,0.1-0.1,0.7-0.6,1.3l-2.6,2.8
					c-0.5,0.6-1.6,0.8-2.4,0.8L-262.4,351.4L-262.4,351.4z M-262.4,377.2c-1.5,0-2.5,0.5-3.8,0.1c-1.4-0.4-2.7-1-2.7-1
					c-0.7-0.4-0.9-1.1-0.5-1.8l1.9-2.4c0.4-0.6,1.5-1,2.3-1h2.9h2.2c0.8,0,1.8,0.4,2.3,1l1.9,2.5c0.4,0.6,0.2,1.4-0.4,1.7
					c0,0-1.1,0.7-2.5,1C-260.2,377.7-261.6,377.2-262.4,377.2z M-253.6,349.1c0.5-0.6,1-0.9,1.2-0.8c0,0,0,0,0.1,0.1
					c0.9,0.9,0.2,2.5,0.9,3.5c0.6,0.9,2.6,1.2,3,2.3c0.8,2,1.1,5.3,1.1,5.3c0.1,0.7-0.5,1.4-1.3,1.4h-2.6c-0.8,0-1.7-0.6-2.1-1.3
					l-2.9-5.5c-0.3-0.7-0.2-1.7,0.3-2.3L-253.6,349.1z M-269.5,351.9c0.5,0.6,0.6,1.6,0.3,2.2l-2.9,5.6c-0.3,0.7-1.3,1.3-2.1,1.3
					h-2.6c-0.8,0-1.4-0.7-1.3-1.4c0,0,0.3-3.2,1.1-5.2c0.4-1,2.4-1.4,3-2.3c0.7-1,0-2.7,0.9-3.5c0.1-0.1,0.1-0.1,0.1-0.1
					c0.1-0.1,0.7,0.2,1.2,0.8L-269.5,351.9z M-269.2,368.8c0.4,0.6,0.3,1.7-0.1,2.3l-1.7,2.3c-0.4,0.6-1.1,0.9-1.4,0.6
					c0,0,0,0-0.3-0.3c-0.9-0.9-0.3-2.4-1.2-3.6c-1-1.3-2.5-1.2-2.9-2.3c-0.7-1.6-1.1-3.6-1.1-3.6c-0.1-0.7,0.4-1.1,1.2-1.1h2.5
					c0.8,0,1.8,0.3,2.1,1L-269.2,368.8z M-253.3,364.1c0.4-0.6,1.3-1,2.1-1h2.5c0.8,0,1.4,0.4,1.2,1.1c0,0-0.4,2.1-1.1,3.7
					c-0.4,1.1-1.9,0.9-2.9,2.3c-0.9,1.2-0.3,2.7-1.2,3.5c-0.3,0.3-0.3,0.2-0.3,0.2c-0.3,0.3-1,0-1.4-0.6l-1.7-2.3
					c-0.4-0.6-0.5-1.5-0.1-2.2L-253.3,364.1z"/>
			</g>
			<g id="eyes">
				<path id="eye_6_" class="st15" d="M-259.1,330.8c0,0-0.8,1.4,0.4,2.7c1.2,1.3,2.6,0.5,2.6,0.5S-257.2,331.9-259.1,330.8z"/>
				<path id="eye_7_" class="st15" d="M-265.9,330.8c0,0,0.8,1.4-0.4,2.7c-1.2,1.3-2.6,0.5-2.6,0.5S-267.9,331.9-265.9,330.8z"/>
				<path class="st17" d="M-266.4,333c0.5-0.5,0.3-1.3,0.1-1.9c-0.8,0.5-1.4,1.2-1.8,1.8C-267.7,333.2-266.9,333.6-266.4,333z"/>
				<path class="st17" d="M-258.6,333c-0.5-0.5-0.3-1.3,0-1.9c0.8,0.5,1.4,1.2,1.8,1.8C-257.3,333.2-258.1,333.6-258.6,333z"/>
			</g>
		</g>
	</g>
</g>
</svg>
