<?xml version="1.0" encoding="utf-8"?>
<!-- Generator: Adobe Illustrator 19.0.1, SVG Export Plug-In . SVG Version: 6.00 Build 0)  -->
<svg version="1.1" id="Layer_1" xmlns="http://www.w3.org/2000/svg" xmlns:xlink="http://www.w3.org/1999/xlink" x="0px" y="0px"
	 width="44.9px" height="127.8px" viewBox="-285.9 332.2 44.9 127.8" style="enable-background:new -285.9 332.2 44.9 127.8;"
	 xml:space="preserve">
<style type="text/css">
	.st0{fill:#FAFAFA;stroke:#E4CBA9;stroke-miterlimit:10;}
	.st1{fill:#ED2224;}
	.st2{fill:#8BC24C;}
	.st3{fill:#A3CF66;}
	.st4{fill:#64A644;}
	.st5{opacity:0.15;}
	.st6{fill:#FFFFFF;}
	.st7{fill:#538A3E;}
	.st8{fill:#426932;}
</style>
<g id="Layer_1_1_">
	<path class="st0" d="M-242,451c0,4.4-3.6,8-8,8h-26c-4.4,0-8-3.6-8-8V342c0-4.4,3.6-8,8-8h26c4.4,0,8,3.6,8,8V451z"/>
	<path class="st1" d="M-260.9,442.2c0,1.1-0.9,2-2,2l0,0c-1.1,0-2-0.9-2-2v-96c0-1.1,0.9-2,2-2l0,0c1.1,0,2,0.9,2,2V442.2z"/>
	<g>
		<path class="st2" d="M-258.9,368.8C-258.9,368.8-258.9,368.7-258.9,368.8c2.6,1.3,4.3,4.1,4.3,7.5c0,1.5-0.2,1.7-1,3.5
			c0,0-0.5,1.1-1.2,1.4h0l0,0c0,0-1,1.1,0.6,2.1c1.2,0.8-3.9,2.5-6.1,2.7c-2.2-0.2-7.5-1.9-6.3-2.7c1.6-1,0.4-2.1,0.4-2.1l0,0
			c-0.7-0.3-1.3-2-1.3-2c-0.4-1.1-0.8-1.9-0.8-3.4c0-3.3,1.7-5.8,4.3-7.1c0,0,0,0,0,0c0-0.4,2.3-1.5,3.6-1.5
			C-261,367.2-258.9,368.4-258.9,368.8L-258.9,368.8z M-271.6,388.8c0,0-2.3-4.2-5.1-3.4c-2.8,0.8-3.1,2.7-3.1,4.3
			c0,2.3,2.4,3.7,2.4,3.7C-276,390.8-271.6,388.8-271.6,388.8z M-247.6,393.4c0,0,2.4-1.4,2.4-3.7c0-1.6-0.3-3.6-3.1-4.3
			c-2.8-0.8-5.1,3.4-5.1,3.4S-249.1,390.8-247.6,393.4z M-277.4,406c0,0-3.5,2.7-3.1,4.6c0.4,2.6,3.1,2.4,4.7,2.4
			c3.3-0.1,2.2-1.7,2.2-1.7S-275.7,408.5-277.4,406z M-251.6,411.3c0,0-1,1.6,2.2,1.7c1.6,0,4.3,0.2,4.7-2.4
			c0.3-1.8-3.1-4.6-3.1-4.6C-249.4,408.5-251.6,411.3-251.6,411.3z M-266.2,417.3c0,0,2.6,4.8,8.1,5.6c0.5,0.1,0.9-0.6,0.7-1
			c-1.8-2.8-1.6-4.6-1.6-4.6l-3.3-1.2L-266.2,417.3z"/>
		<path class="st3" d="M-267.7,380.5c-0.6-0.1-0.9-0.6-1.2-1.2c-1.2-2.9-1.3-4-1.1-4.3c1.5-1.8,2.6-0.3,4.4-2.8
			c1.3-1.8-0.2-2.7,0-2.8c0.3-0.2-0.1-0.7,0-0.8c1.2-0.8,3-1.1,3-1.1s1.8,0.2,3,1.1c0.1,0.1-0.3,0.6,0,0.8c0.2,0.2-1.3,1,0,2.8
			c1.8,2.5,2.9,0.9,4.4,2.8c0.2,0.4,0.2,1.4-1.1,4.3c-0.3,0.6-0.5,1-1.2,1.2c-1.7,0-3,1.1-5.2,1.1
			C-264.7,381.6-266,380.5-267.7,380.5z M-262.5,385.2c2.2,0.1,6.3-0.8,5.2-1.7c-1.4-1.2,0-2.2-0.2-2.2c-1.7,0-2.1,1.2-5,1.2
			c-2.9,0-3.3-1.2-5-1.2c-0.2-0.1,1.1,1-0.2,2.2C-268.8,384.4-264.7,385.3-262.5,385.2z M-273.6,390.4c0.8-0.9,1.5-1.3,1.5-1.3
			s-2.8-4-4.7-3.1c-0.6,0.3-0.9,0.5-1.3,0.8L-273.6,390.4z M-247.2,386.8c-0.3-0.3-0.6-0.5-1.2-0.8c-1.8-0.9-4.7,3.1-4.7,3.1
			s0.7,0.5,1.5,1.3L-247.2,386.8z M-276.9,407.5c-0.7-0.8,0,0.4-0.6-0.6c0,0-3.2,2.4-2.3,3.8c0.1,0.1,0.4,0.5,0.7,0.1L-276.9,407.5z
			 M-246,410.8c0.4,0.4,0.6,0,0.7-0.1c0.9-1.4-2.3-3.8-2.3-3.8c-0.6,0.9,0.1-0.2-0.6,0.6L-246,410.8z M-263.4,419.6
			c1,1.2,3.9,2.7,4.4,2.5c0.3-0.1-2-1.1-3.2-2.4c-1.4-1.4-1.6-3.1-1.6-3.1l-1.3,0.3C-265,417-264.2,418.7-263.4,419.6z"/>
		<g id="shell">
			<g>
				<path class="st4" d="M-262.3,408.2h-2.9c-0.8,0-1.8-0.6-2.1-1.2l-3.1-5.6c-0.4-0.6-0.4-1.7,0-2.4l3.1-5.6
					c0.4-0.6,1.3-1.3,2.1-1.3h2.9h2.3c0.8,0,1.8,0.6,2.1,1.3l3.1,5.5c0.4,0.6,0.4,1.7,0,2.4l-3.1,5.6c-0.4,0.6-1.3,1.2-2.1,1.2
					L-262.3,408.2"/>
				<path class="st4" d="M-262.3,390h-2.9c-0.8,0-1.9-0.2-2.4-0.8l-2.6-2.9c-0.5-0.6-0.7-1.1-0.6-1.2c0,0,0.1,0,0.3-0.1
					c2.4-1.6,3.7,1.2,8.1,1.2c3.6,0,5.4-2.7,7.8-1.1c0.2,0.1,0.1,0.1,0.1,0.1c0.2,0.1-0.1,0.7-0.6,1.3l-2.6,2.8
					c-0.5,0.6-1.6,0.8-2.4,0.8L-262.3,390L-262.3,390z"/>
				<path class="st4" d="M-262.3,415.8c-1.5,0-2.5,0.5-3.8,0.1c-1.4-0.4-2.7-1.1-2.7-1.1c-0.7-0.4-0.9-1.1-0.5-1.8l1.9-2.4
					c0.4-0.6,1.5-1,2.3-1h2.9h2.2c0.8,0,1.8,0.4,2.3,1l1.9,2.5c0.4,0.6,0.2,1.4-0.4,1.7c0,0-1.1,0.7-2.5,1
					C-260.1,416.3-261.6,415.8-262.3,415.8z"/>
				<path class="st4" d="M-253.5,387.7c0.5-0.6,1-0.9,1.2-0.8c0,0,0,0,0.1,0.1c0.9,0.9,0.2,2.5,0.9,3.5c0.6,0.9,2.6,1.2,3,2.3
					c0.8,2,1.1,5.3,1.1,5.3c0.1,0.7-0.5,1.4-1.3,1.4h-2.6c-0.8,0-1.7-0.6-2.1-1.3l-2.9-5.5c-0.3-0.7-0.2-1.7,0.3-2.3L-253.5,387.7z"
					/>
				<path class="st4" d="M-269.5,390.4c0.5,0.6,0.6,1.6,0.3,2.2l-2.9,5.6c-0.3,0.7-1.3,1.3-2.1,1.3h-2.6c-0.8,0-1.4-0.7-1.3-1.4
					c0,0,0.3-3.2,1.1-5.2c0.4-1,2.4-1.4,3-2.3c0.7-1,0-2.7,0.9-3.5c0.1-0.1,0.1-0.1,0.1-0.1c0.1-0.1,0.7,0.2,1.2,0.8L-269.5,390.4z"
					/>
				<path class="st4" d="M-269.2,407.4c0.4,0.6,0.3,1.7-0.1,2.3l-1.7,2.3c-0.4,0.6-1.1,0.9-1.4,0.6c0,0,0,0-0.3-0.3
					c-0.9-0.9-0.3-2.4-1.2-3.6c-1-1.3-2.5-1.2-2.9-2.3c-0.7-1.6-1.1-3.6-1.1-3.6c-0.1-0.7,0.4-1.1,1.2-1.1h2.5c0.8,0,1.8,0.3,2.1,1
					L-269.2,407.4z"/>
				<path class="st4" d="M-253.3,402.6c0.4-0.6,1.3-1,2.1-1h2.5c0.8,0,1.4,0.4,1.2,1.1c0,0-0.4,2.1-1.1,3.7
					c-0.5,1.1-1.9,0.9-2.9,2.3c-0.9,1.2-0.3,2.7-1.2,3.5c-0.3,0.3-0.3,0.2-0.3,0.2c-0.3,0.3-1,0-1.4-0.6l-1.7-2.3
					c-0.4-0.6-0.5-1.5-0.1-2.2L-253.3,402.6z"/>
			</g>
			<g class="st5">
				<path class="st6" d="M-261.8,408.8h-2.9c-0.8,0-1.8-0.6-2.1-1.2l-3.1-5.6c-0.4-0.6-0.4-1.7,0-2.4l3.1-5.6
					c0.4-0.6,1.3-1.3,2.1-1.3h2.9h2.3c0.8,0,1.8,0.6,2.1,1.3l3.1,5.5c0.4,0.6,0.4,1.7,0,2.4l-3.1,5.6c-0.4,0.6-1.3,1.2-2.1,1.2
					L-261.8,408.8"/>
				<path class="st6" d="M-261.8,390.5h-2.9c-0.8,0-1.9-0.2-2.4-0.8l-2.6-2.9c-0.5-0.6-0.7-1.1-0.6-1.2c0,0,0.1,0,0.3-0.1
					c2.4-1.6,3.7,1.2,8.1,1.2c3.6,0,5.4-2.7,7.8-1.1c0.2,0.1,0.1,0.1,0.1,0.1c0.2,0.1-0.1,0.7-0.6,1.3l-2.6,2.8
					c-0.5,0.6-1.6,0.8-2.4,0.8L-261.8,390.5L-261.8,390.5z"/>
				<path class="st6" d="M-261.8,416.3c-1.5,0-2.5,0.5-3.8,0.1c-1.4-0.4-2.7-1-2.7-1c-0.7-0.4-0.9-1.1-0.5-1.8l1.9-2.4
					c0.4-0.6,1.5-1,2.3-1h2.9h2.2c0.8,0,1.8,0.4,2.3,1l1.9,2.5c0.4,0.6,0.2,1.4-0.4,1.7c0,0-1.1,0.7-2.5,1
					C-259.6,416.8-261,416.3-261.8,416.3z"/>
				<path class="st6" d="M-252.9,388.2c0.5-0.6,1-0.9,1.2-0.8c0,0,0,0,0.1,0.1c0.9,0.9,0.2,2.5,0.9,3.5c0.6,0.9,2.6,1.2,3,2.3
					c0.8,2,1.1,5.3,1.1,5.3c0.1,0.7-0.5,1.4-1.3,1.4h-2.6c-0.8,0-1.7-0.6-2.1-1.3l-2.9-5.5c-0.3-0.7-0.2-1.7,0.3-2.3L-252.9,388.2z"
					/>
				<path class="st6" d="M-268.9,391c0.5,0.6,0.6,1.6,0.3,2.2l-2.9,5.6c-0.3,0.7-1.3,1.3-2.1,1.3h-2.6c-0.8,0-1.4-0.7-1.3-1.4
					c0,0,0.3-3.2,1.1-5.2c0.4-1,2.4-1.4,3-2.3c0.7-1,0-2.7,0.9-3.5c0.1-0.1,0.1-0.1,0.1-0.1c0.1-0.1,0.7,0.2,1.2,0.8L-268.9,391z"/>
				<path class="st6" d="M-268.6,407.9c0.4,0.6,0.3,1.7-0.1,2.3l-1.7,2.3c-0.4,0.6-1.1,0.9-1.4,0.6c0,0,0,0-0.3-0.3
					c-0.9-0.9-0.3-2.4-1.2-3.6c-1-1.3-2.5-1.2-2.9-2.3c-0.7-1.6-1.1-3.6-1.1-3.6c-0.1-0.7,0.4-1.1,1.2-1.1h2.5c0.8,0,1.8,0.3,2.1,1
					L-268.6,407.9z"/>
				<path class="st6" d="M-252.7,403.2c0.4-0.6,1.3-1,2.1-1h2.5c0.8,0,1.4,0.4,1.2,1.1c0,0-0.4,2.1-1.1,3.7
					c-0.5,1.1-1.9,0.9-2.9,2.3c-0.9,1.2-0.3,2.7-1.2,3.5c-0.3,0.3-0.3,0.2-0.3,0.2c-0.3,0.3-1,0-1.4-0.6l-1.7-2.3
					c-0.4-0.6-0.5-1.5-0.1-2.2L-252.7,403.2z"/>
			</g>
			<path class="st7" d="M-262.3,417.1c0.7,0,2.2,0.8,3.5,0.5c2.8-0.7,5.3-2.1,7.4-4c1-0.9,0-2.3,1.3-3.8c1.8-2.2,2.9-1.7,3.5-3.1
				c0.9-2.2,1.4-4.7,1.4-7.2c0-2.5-0.5-4.9-1.4-7c-0.5-1.2-2.6-1.7-3.3-2.8c-0.8-1.2-0.3-2.9-1.3-3.9c-0.1-0.1-0.1-0.1-0.1-0.1
				c-0.1-0.1-0.3-0.4-0.4-0.4c-0.1-0.1-1.1-1.1-1.7-1.5c-3.1-2.2-6.7,0.8-8.9,0.8c-2.9,0-6.1-2.9-9.2-0.8c-0.6,0.4-1.9,1.4-2,1.5
				c-0.1,0.1-0.3,0.3-0.5,0.4c0,0,0,0-0.1,0.1c-1,1-0.5,2.7-1.3,3.9c-0.7,1.1-2.8,1.6-3.3,2.8c-0.9,2.2-1.4,4.5-1.4,7
				c0,2.6,0.5,5,1.4,7.2c0.5,1.3,1.7,0.9,3.5,3.1c1.2,1.5,0.3,2.9,1.3,3.8c2.1,1.9,4.8,3.3,7.7,4
				C-264.9,417.9-263.8,417.1-262.3,417.1z M-262.3,408.2h-2.9c-0.8,0-1.8-0.6-2.1-1.2l-3.1-5.6c-0.4-0.6-0.4-1.7,0-2.4l3.1-5.6
				c0.4-0.6,1.3-1.3,2.1-1.3h2.9h2.3c0.8,0,1.8,0.6,2.1,1.3l3.1,5.5c0.4,0.6,0.4,1.7,0,2.4l-3.1,5.6c-0.4,0.6-1.3,1.2-2.1,1.2
				L-262.3,408.2 M-262.3,390h-2.9c-0.8,0-1.9-0.2-2.4-0.8l-2.6-2.9c-0.5-0.6-0.7-1.1-0.6-1.2c0,0,0.1,0,0.3-0.1
				c2.4-1.6,3.7,1.2,8.1,1.2c3.6,0,5.4-2.7,7.8-1.1c0.2,0.1,0.1,0.1,0.1,0.1c0.2,0.1-0.1,0.7-0.6,1.3l-2.6,2.8
				c-0.5,0.6-1.6,0.8-2.4,0.8L-262.3,390L-262.3,390z M-262.3,415.8c-1.5,0-2.5,0.5-3.8,0.1c-1.4-0.4-2.7-1.1-2.7-1.1
				c-0.7-0.4-0.9-1.1-0.5-1.8l1.9-2.4c0.4-0.6,1.5-1,2.3-1h2.9h2.2c0.8,0,1.8,0.4,2.3,1l1.9,2.5c0.4,0.6,0.2,1.4-0.4,1.7
				c0,0-1.1,0.7-2.5,1C-260.1,416.3-261.6,415.8-262.3,415.8z M-253.5,387.7c0.5-0.6,1-0.9,1.2-0.8c0,0,0,0,0.1,0.1
				c0.9,0.9,0.2,2.5,0.9,3.5c0.6,0.9,2.6,1.2,3,2.3c0.8,2,1.1,5.3,1.1,5.3c0.1,0.7-0.5,1.4-1.3,1.4h-2.6c-0.8,0-1.7-0.6-2.1-1.3
				l-2.9-5.5c-0.3-0.7-0.2-1.7,0.3-2.3L-253.5,387.7z M-269.5,390.4c0.5,0.6,0.6,1.6,0.3,2.2l-2.9,5.6c-0.3,0.7-1.3,1.3-2.1,1.3
				h-2.6c-0.8,0-1.4-0.7-1.3-1.4c0,0,0.3-3.2,1.1-5.2c0.4-1,2.4-1.4,3-2.3c0.7-1,0-2.7,0.9-3.5c0.1-0.1,0.1-0.1,0.1-0.1
				c0.1-0.1,0.7,0.2,1.2,0.8L-269.5,390.4z M-269.2,407.4c0.4,0.6,0.3,1.7-0.1,2.3l-1.7,2.3c-0.4,0.6-1.1,0.9-1.4,0.6
				c0,0,0,0-0.3-0.3c-0.9-0.9-0.3-2.4-1.2-3.6c-1-1.3-2.5-1.2-2.9-2.3c-0.7-1.6-1.1-3.6-1.1-3.6c-0.1-0.7,0.4-1.1,1.2-1.1h2.5
				c0.8,0,1.8,0.3,2.1,1L-269.2,407.4z M-253.3,402.6c0.4-0.6,1.3-1,2.1-1h2.5c0.8,0,1.4,0.4,1.2,1.1c0,0-0.4,2.1-1.1,3.7
				c-0.5,1.1-1.9,0.9-2.9,2.3c-0.9,1.2-0.3,2.7-1.2,3.5c-0.3,0.3-0.3,0.2-0.3,0.2c-0.3,0.3-1,0-1.4-0.6l-1.7-2.3
				c-0.4-0.6-0.5-1.5-0.1-2.2L-253.3,402.6z"/>
		</g>
		<g id="eyes">
			<path id="eye_6_" class="st6" d="M-259.1,369.4c0,0-0.8,1.4,0.4,2.7c1.2,1.3,2.6,0.5,2.6,0.5S-257.1,370.5-259.1,369.4z"/>
			<path id="eye_7_" class="st6" d="M-265.8,369.4c0,0,0.8,1.4-0.4,2.7c-1.2,1.3-2.6,0.5-2.6,0.5S-267.8,370.5-265.8,369.4z"/>
			<path class="st8" d="M-266.4,371.6c0.5-0.5,0.3-1.3,0-1.9c-0.8,0.5-1.4,1.2-1.8,1.8C-267.7,371.8-266.9,372.1-266.4,371.6z"/>
			<path class="st8" d="M-258.6,371.6c-0.5-0.5-0.3-1.3,0-1.9c0.8,0.5,1.4,1.2,1.8,1.8C-257.3,371.8-258.1,372.1-258.6,371.6z"/>
		</g>
	</g>
</g>
</svg>
