<?xml version="1.0" encoding="utf-8"?>
<!-- Generator: Adobe Illustrator 19.0.1, SVG Export Plug-In . SVG Version: 6.00 Build 0)  -->
<svg version="1.1" id="Layer_1" xmlns="http://www.w3.org/2000/svg" xmlns:xlink="http://www.w3.org/1999/xlink" x="0px" y="0px"
	 width="120.4px" height="74.7px" viewBox="-247.4 358.3 120.4 74.7" style="enable-background:new -247.4 358.3 120.4 74.7;"
	 xml:space="preserve">
<style type="text/css">
	.st0{fill:#FAFAFA;stroke:#E4CBA9;stroke-miterlimit:10;}
	.st1{fill:none;stroke:#ED2224;stroke-width:4;stroke-linecap:round;stroke-linejoin:round;stroke-miterlimit:10;}
	.st2{fill:#8BC24C;}
	.st3{fill:#A3CF66;}
	.st4{fill:#64A644;}
	.st5{opacity:0.15;}
	.st6{fill:#FFFFFF;}
	.st7{fill:#538A3E;}
	.st8{fill:#426932;}
</style>
<g>
	<path class="st0" d="M-136,360c4.4,0,8,3.6,8,8v56c0,4.4-3.6,8-8,8h-102c-4.4,0-8-3.6-8-8v-56c0-4.4,3.6-8,8-8H-136z"/>
	<path class="st1" d="M-238.3,408.3l-1-0.1c0-0.1,0.8-13.1,11.9-13.3c0.1,0,0.1,0,0.2,0c11.2-0.1,11.9,11.8,11.9,11.9l-1,0
		c0-0.5-0.6-11.1-10.9-11c-0.1,0-0.1,0-0.2,0C-237.6,396.2-238.3,407.8-238.3,408.3z M-204.4,393.9c0.1,0,0.1,0,0.2,0
		c10.3-0.1,10.9,10.5,10.9,11l1,0c0-0.1-0.6-12-11.9-11.9c-0.1,0-0.1,0-0.2,0c-11.1,0.2-11.9,13.1-11.9,13.3l1,0.1
		C-215.3,405.7-214.6,394.1-204.4,393.9z M-181.4,392.8c0.1,0,0.1,0,0.2,0c10.3-0.1,10.9,10.5,10.9,11l1,0c0-0.1-0.6-12-11.9-11.9
		c-0.1,0-0.1,0-0.2,0c-11.1,0.2-11.9,13.1-11.9,13.3l1,0C-192.3,404.7-191.6,393-181.4,392.8z"/>
	<g id="Layer_1_2_">
		<g>
			<path class="st2" d="M-133.2,381.3C-133.2,381.3-133.2,381.3-133.2,381.3c0.1,2.9-1.4,5.7-4.3,7.4c-1.3,0.8-1.6,0.7-3.6,0.9
				c0,0-1.2,0.1-1.9-0.4l0,0l0,0c0,0-1.4-0.3-1.5,1.6c-0.1,1.5-4.1-2.1-5.4-3.9c-0.9-2-2.1-7.5-0.8-6.8c1.7,0.9,2-0.7,2-0.7l0,0
				c-0.1-0.8,1-2.1,1-2.1c0.7-0.9,1.3-1.6,2.6-2.4c2.9-1.7,5.9-1.4,8.2,0.2c0,0,0,0,0,0c0.4-0.2,2.4,1.2,3.1,2.4
				C-133,378.7-132.9,381.1-133.2,381.3L-133.2,381.3z M-157,380.3c0,0,2.5-4.1,0.4-6.1c-2.1-2.1-3.9-1.4-5.3-0.5
				c-2,1.1-2,3.9-2,3.9C-160.9,377.5-157,380.3-157,380.3z M-149,403.4c0,0,2.4,1.4,4.4,0.3c1.4-0.8,2.9-2,2.2-4.9
				c-0.7-2.8-5.5-2.7-5.5-2.7S-147.5,400.8-149,403.4z M-174.8,383.9c0,0-4.1-1.6-5.5-0.4c-2.1,1.7-0.5,3.9,0.3,5.3
				c1.7,2.8,2.6,1.1,2.6,1.1S-176.1,386.6-174.8,383.9z M-166.4,408.9c0,0-1.9-0.1-0.4,2.8c0.8,1.4,1.9,3.8,4.4,2.9
				c1.8-0.6,2.4-5,2.4-5C-162.9,409.4-166.4,408.9-166.4,408.9z M-179,399.2c0,0-2.9,4.7-0.8,9.8c0.2,0.4,1,0.5,1.2,0.1
				c1.5-3,3.2-3.7,3.2-3.7l-0.6-3.5L-179,399.2z"/>
			<path class="st3" d="M-147.8,379.6c-0.2-0.6,0-1.1,0.4-1.6c1.9-2.5,2.8-3.1,3.2-3.1c2.3,0.4,1.6,2.1,4.6,2.4
				c2.2,0.2,2.2-1.5,2.4-1.4c0.4,0.2,0.6-0.5,0.7-0.4c1.3,0.6,2.4,2.1,2.4,2.1s0.7,1.7,0.6,3.2c0,0.2-0.7,0-0.7,0.4
				c0,0.3-1.5-0.6-2.4,1.4c-1.2,2.8,0.6,3-0.2,5.2c-0.2,0.4-1.2,0.9-4.3,1.2c-0.7,0.1-1.2,0-1.6-0.4c-0.8-1.5-2.4-2.1-3.5-4
				S-147,381-147.8,379.6z M-149.3,386.4c1,1.9,3.8,5.1,4.1,3.7c0.3-1.7,1.9-1.1,1.8-1.3c-0.9-1.5-2-1.2-3.5-3.8
				c-1.5-2.5-0.6-3.4-1.5-4.9c-0.1-0.2-0.3,1.5-2,0.9C-151.8,380.5-150.5,384.5-149.3,386.4z M-159.3,379.4c1.1,0.3,1.9,0.6,1.9,0.6
				s2.1-4.4,0.4-5.6c-0.5-0.4-0.9-0.5-1.3-0.7L-159.3,379.4z M-143,400.5c0.1-0.4,0.1-0.8,0.1-1.5c-0.1-2-5-2.5-5-2.5s0,0.8-0.4,2
				L-143,400.5z M-175.8,385c0.3-1-0.3,0.2,0.2-0.8c0,0-3.7-1.5-4.4,0c-0.1,0.1-0.3,0.6,0.3,0.7L-175.8,385z M-163.2,413.5
				c-0.2,0.5,0.3,0.6,0.4,0.6c1.7,0.1,2.2-3.9,2.2-3.9c-1.1-0.1,0.2,0-0.8-0.3L-163.2,413.5z M-179.5,402.9c-0.5,1.5-0.4,4.8,0,5.1
				c0.3,0.2,0-2.3,0.5-3.9c0.5-1.9,1.9-2.9,1.9-2.9l-0.9-1C-178.1,400.1-179.1,401.6-179.5,402.9z"/>
			<g id="shell_2_">
				<g>
					<path class="st4" d="M-169.2,398.1l-1.4-2.5c-0.4-0.7-0.4-1.8,0-2.4l3.3-5.4c0.4-0.6,1.3-1.2,2-1.2l6.4-0.2
						c0.7,0,1.8,0.5,2.2,1.2l1.4,2.5l1.1,2c0.4,0.7,0.3,1.8-0.1,2.5l-3.3,5.4c-0.4,0.6-1.3,1.2-2.1,1.2l-6.4,0.2
						c-0.7,0-1.7-0.5-2.1-1.2L-169.2,398.1"/>
					<path class="st4" d="M-153.4,388.9l-1.4-2.5c-0.4-0.7-0.7-1.7-0.5-2.4l1.2-3.7c0.2-0.7,0.6-1.2,0.8-1.1c0,0,0,0.1,0.2,0.2
						c2.6,1.3,0.9,3.8,3,7.6c1.8,3.2,5,3.3,4.9,6.2c0,0.2-0.1,0.1-0.1,0.1c0,0.2-0.7,0.3-1.4,0.1l-3.7-0.9c-0.7-0.1-1.5-1-1.9-1.6
						L-153.4,388.9L-153.4,388.9z"/>
					<path class="st4" d="M-175.7,401.8c-0.7-1.3-1.7-1.9-2-3.2c-0.4-1.4-0.5-2.9-0.5-2.9c0-0.8,0.5-1.4,1.3-1.3l3,0.4
						c0.7,0.1,1.6,0.8,2,1.5l1.4,2.5l1.1,1.9c0.4,0.7,0.6,1.8,0.3,2.5l-1.2,2.9c-0.3,0.7-1.1,0.9-1.7,0.5c0,0-1.1-0.6-2.1-1.6
						C-175,404-175.3,402.5-175.7,401.8z"/>
					<path class="st4" d="M-147,395.4c0.7,0.1,1.3,0.4,1.3,0.6c0,0,0,0,0,0.2c-0.3,1.2-2,1.4-2.6,2.5c-0.5,1,0.2,2.8-0.5,3.7
						c-1.3,1.7-4,3.6-4,3.6c-0.6,0.4-1.5,0.2-1.9-0.4l-1.3-2.3c-0.4-0.7-0.3-1.8,0.1-2.4l3.3-5.2c0.4-0.6,1.3-1,2.1-0.9L-147,395.4z
						"/>
					<path class="st4" d="M-157.3,383c-0.3,0.7-1.1,1.3-1.8,1.3l-6.2,0.3c-0.7,0-1.7-0.5-2.1-1.2l-1.3-2.3c-0.4-0.7-0.1-1.5,0.5-1.8
						c0,0,3-1.3,5.1-1.6c1.1-0.2,2.4,1.4,3.5,1.4c1.2,0.1,2.3-1.3,3.5-1c0.2,0,0.2,0,0.2,0c0.2,0.1,0.1,0.7-0.1,1.4L-157.3,383z"/>
					<path class="st4" d="M-171.9,391.7c-0.4,0.6-1.3,1.1-2,1l-2.8-0.3c-0.7-0.1-1.3-0.5-1.2-0.9c0,0,0,0,0.1-0.4
						c0.3-1.2,1.9-1.4,2.5-2.8c0.6-1.6-0.1-2.7,0.6-3.7c1-1.4,2.6-2.7,2.6-2.7c0.6-0.5,1.2-0.2,1.6,0.5l1.3,2.2
						c0.4,0.7,0.6,1.7,0.2,2.3L-171.9,391.7z"/>
					<path class="st4" d="M-159.8,403.1c0.7,0,1.5,0.7,1.9,1.4l1.3,2.2c0.4,0.7,0.3,1.4-0.3,1.6c0,0-2.1,0.7-3.8,0.9
						c-1.1,0.1-1.7-1.1-3.4-1.4c-1.5-0.2-2.5,1.1-3.6,0.7c-0.4-0.1-0.4-0.1-0.4-0.1c-0.4-0.1-0.5-0.8-0.2-1.5l1.1-2.6
						c0.3-0.7,1.1-1.2,1.8-1.2L-159.8,403.1z"/>
				</g>
				<g class="st5">
					<path class="st6" d="M-169.3,398.8l-1.4-2.5c-0.4-0.7-0.4-1.8,0-2.4l3.3-5.4c0.4-0.6,1.3-1.2,2-1.2l6.4-0.2
						c0.7,0,1.8,0.5,2.2,1.2l1.4,2.5l1.1,2c0.4,0.7,0.3,1.8-0.1,2.5l-3.3,5.4c-0.4,0.6-1.3,1.2-2.1,1.2l-6.4,0.2
						c-0.7,0-1.7-0.5-2.1-1.2L-169.3,398.8"/>
					<path class="st6" d="M-153.5,389.7l-1.5-2.5c-0.4-0.7-0.7-1.7-0.5-2.4l1.2-3.7c0.2-0.7,0.6-1.2,0.8-1.1c0,0,0,0.1,0.2,0.2
						c2.6,1.3,0.9,3.8,3,7.6c1.8,3.2,5,3.3,4.9,6.2c0,0.2-0.1,0.1-0.1,0.1c0,0.2-0.7,0.3-1.4,0.1l-3.7-0.9c-0.7-0.1-1.5-1-1.9-1.6
						L-153.5,389.7L-153.5,389.7z"/>
					<path class="st6" d="M-175.9,402.6c-0.7-1.3-1.7-1.9-2-3.2c-0.4-1.4-0.5-2.9-0.5-2.9c0-0.8,0.5-1.4,1.3-1.3l3,0.4
						c0.7,0.1,1.6,0.8,2,1.5l1.4,2.5l1.1,1.9c0.4,0.7,0.6,1.8,0.3,2.5l-1.2,2.9c-0.3,0.7-1.1,0.9-1.7,0.5c0,0-1.1-0.6-2.1-1.6
						C-175.2,404.7-175.5,403.2-175.9,402.6z"/>
					<path class="st6" d="M-147.1,396.2c0.7,0.1,1.3,0.4,1.3,0.6c0,0,0,0,0,0.2c-0.3,1.2-2,1.4-2.6,2.5c-0.5,1,0.2,2.8-0.5,3.7
						c-1.3,1.7-4,3.6-4,3.6c-0.6,0.4-1.5,0.2-1.9-0.4l-1.3-2.3c-0.4-0.7-0.3-1.8,0.1-2.4l3.3-5.2c0.4-0.6,1.3-1,2.1-0.9
						L-147.1,396.2z"/>
					<path class="st6" d="M-157.5,383.7c-0.3,0.7-1.1,1.3-1.8,1.3l-6.2,0.3c-0.7,0-1.7-0.5-2.1-1.2l-1.3-2.3
						c-0.4-0.7-0.1-1.5,0.5-1.8c0,0,3-1.3,5.1-1.6c1.1-0.2,2.4,1.4,3.5,1.4c1.2,0.1,2.3-1.3,3.5-1c0.2,0.1,0.2,0,0.2,0
						c0.2,0.1,0.1,0.7-0.1,1.4L-157.5,383.7z"/>
					<path class="st6" d="M-172,392.4c-0.4,0.6-1.3,1.1-2,1l-2.8-0.3c-0.7-0.1-1.3-0.5-1.2-0.9c0,0,0,0,0.1-0.4
						c0.3-1.2,1.9-1.4,2.5-2.8c0.6-1.6-0.1-2.7,0.6-3.7c1-1.4,2.6-2.7,2.6-2.7c0.6-0.5,1.2-0.2,1.6,0.5l1.3,2.2
						c0.4,0.7,0.6,1.7,0.2,2.3L-172,392.4z"/>
					<path class="st6" d="M-160,403.9c0.7,0,1.5,0.7,1.9,1.4l1.3,2.2c0.4,0.7,0.3,1.4-0.3,1.6c0,0-2.1,0.7-3.8,0.9
						c-1.1,0.1-1.7-1.1-3.4-1.4c-1.5-0.2-2.5,1.1-3.7,0.7c-0.4-0.1-0.4-0.1-0.4-0.1c-0.4-0.1-0.5-0.8-0.2-1.5l1.1-2.6
						c0.3-0.7,1.1-1.2,1.8-1.2L-160,403.9z"/>
				</g>
				<path class="st7" d="M-176.9,402.5c0.4,0.6,0.4,2.3,1.3,3.3c2,2.1,4.5,3.5,7.2,4.4c1.3,0.4,2-1.1,3.9-0.8c2.8,0.4,3,1.7,4.4,1.5
					c2.4-0.3,4.7-1.1,7-2.4c2.2-1.2,4-2.9,5.4-4.7c0.8-1,0.2-3.1,0.8-4.3c0.6-1.3,2.4-1.7,2.8-3.1c0-0.2,0-0.2,0-0.2
					c0-0.2,0.1-0.5,0.2-0.6c0-0.1,0.4-1.5,0.4-2.2c0.3-3.8-4-5.4-5.1-7.3c-1.5-2.5-0.5-6.8-3.9-8.4c-0.6-0.3-2.1-0.9-2.3-1
					c-0.1-0.1-0.4-0.1-0.6-0.2c0,0,0,0-0.2-0.1c-1.4-0.4-2.6,1-4,0.9c-1.3-0.1-2.8-1.6-4.1-1.4c-2.3,0.3-4.6,1.1-6.8,2.3
					c-2.2,1.3-4.1,2.9-5.6,4.8c-0.9,1.1,0.1,1.9-0.9,4.6c-0.7,1.9-2.3,1.7-2.6,3c-0.6,2.8-0.5,5.9,0.4,8.6
					C-178.8,400.7-177.6,401.2-176.9,402.5z M-169.2,398.1l-1.4-2.5c-0.4-0.7-0.4-1.8,0-2.4l3.3-5.4c0.4-0.6,1.3-1.2,2-1.2l6.4-0.2
					c0.7,0,1.8,0.5,2.2,1.2l1.4,2.5l1.1,2c0.4,0.7,0.3,1.8-0.1,2.5l-3.3,5.4c-0.4,0.6-1.3,1.2-2.1,1.2l-6.4,0.2
					c-0.7,0-1.7-0.5-2.1-1.2L-169.2,398.1 M-153.4,388.9l-1.4-2.5c-0.4-0.7-0.7-1.7-0.5-2.4l1.2-3.7c0.2-0.7,0.6-1.2,0.8-1.1
					c0,0,0,0.1,0.2,0.2c2.6,1.3,0.9,3.8,3,7.6c1.8,3.2,5,3.3,4.9,6.2c0,0.2-0.1,0.1-0.1,0.1c0,0.2-0.7,0.3-1.4,0.1l-3.7-0.9
					c-0.7-0.1-1.5-1-1.9-1.6L-153.4,388.9L-153.4,388.9z M-175.7,401.8c-0.7-1.3-1.7-1.9-2-3.2c-0.4-1.4-0.5-2.9-0.5-2.9
					c0-0.8,0.5-1.4,1.3-1.3l3,0.4c0.7,0.1,1.6,0.8,2,1.5l1.4,2.5l1.1,1.9c0.4,0.7,0.6,1.8,0.3,2.5l-1.2,2.9
					c-0.3,0.7-1.1,0.9-1.7,0.5c0,0-1.1-0.6-2.1-1.6C-175,404-175.3,402.5-175.7,401.8z M-147,395.4c0.7,0.1,1.3,0.4,1.3,0.6
					c0,0,0,0,0,0.2c-0.3,1.2-2,1.4-2.6,2.5c-0.5,1,0.2,2.8-0.5,3.7c-1.3,1.7-4,3.6-4,3.6c-0.6,0.4-1.5,0.2-1.9-0.4l-1.3-2.3
					c-0.4-0.7-0.3-1.8,0.1-2.4l3.3-5.2c0.4-0.6,1.3-1,2.1-0.9L-147,395.4z M-157.3,383c-0.3,0.7-1.1,1.3-1.8,1.3l-6.2,0.3
					c-0.7,0-1.7-0.5-2.1-1.2l-1.3-2.3c-0.4-0.7-0.1-1.5,0.5-1.8c0,0,3-1.3,5.1-1.6c1.1-0.2,2.4,1.4,3.5,1.4c1.2,0.1,2.3-1.3,3.5-1
					c0.2,0,0.2,0,0.2,0c0.2,0.1,0.1,0.7-0.1,1.4L-157.3,383z M-171.9,391.7c-0.4,0.6-1.3,1.1-2,1l-2.8-0.3c-0.7-0.1-1.3-0.5-1.2-0.9
					c0,0,0,0,0.1-0.4c0.3-1.2,1.9-1.4,2.5-2.8c0.6-1.6-0.1-2.7,0.6-3.7c1-1.4,2.6-2.7,2.6-2.7c0.6-0.5,1.2-0.2,1.6,0.5l1.3,2.2
					c0.4,0.7,0.6,1.7,0.2,2.3L-171.9,391.7z M-159.8,403.1c0.7,0,1.5,0.7,1.9,1.4l1.3,2.2c0.4,0.7,0.3,1.4-0.3,1.6
					c0,0-2.1,0.7-3.8,0.9c-1.1,0.1-1.7-1.1-3.4-1.4c-1.5-0.2-2.5,1.1-3.6,0.7c-0.4-0.1-0.4-0.1-0.4-0.1c-0.4-0.1-0.5-0.8-0.2-1.5
					l1.1-2.6c0.3-0.7,1.1-1.2,1.8-1.2L-159.8,403.1z"/>
			</g>
			<g id="eyes_2_">
				<path id="eye_4_" class="st6" d="M-133.9,381.4c0,0-1.6,0-2.1,1.7c-0.6,1.7,0.8,2.5,0.8,2.5S-133.8,383.7-133.9,381.4z"/>
				<path id="eye_3_" class="st6" d="M-137.3,375.6c0,0-0.8,1.4-2.6,1c-1.7-0.4-1.7-2-1.7-2S-139.2,374.4-137.3,375.6z"/>
				<path class="st8" d="M-139.4,376.2c0.7,0.1,1.3-0.4,1.7-0.9c-0.9-0.4-1.7-0.6-2.4-0.7C-140.2,375.2-140.2,376-139.4,376.2z"/>
				<path class="st8" d="M-135.5,383c0.2-0.7,1-0.9,1.6-1c-0.1,0.9-0.4,1.8-0.7,2.4C-135.1,384.2-135.7,383.7-135.5,383z"/>
			</g>
		</g>
	</g>
</g>
</svg>
