<?xml version="1.0" encoding="utf-8"?>
<!-- Generator: Adobe Illustrator 19.0.1, SVG Export Plug-In . SVG Version: 6.00 Build 0)  -->
<svg version="1.1" id="Layer_1" xmlns="http://www.w3.org/2000/svg" xmlns:xlink="http://www.w3.org/1999/xlink" x="0px" y="0px"
	 width="119px" height="106px" viewBox="0 0 119 106" enable-background="new 0 0 119 106" xml:space="preserve">
<g>
	<path fill="#FAFAFA" stroke="#E4CBA9" stroke-miterlimit="10" d="M110.5,0.5c4.4,0,8,3.6,8,8v89c0,4.4-3.6,8-8,8H8.5
		c-4.398,0-8-3.6-8-8v-89c0-4.4,3.602-8,8-8H110.5z"/>
	<g>
		<circle fill="none" stroke="#ED2224" stroke-width="4" stroke-miterlimit="10" cx="60.555" cy="59.299" r="37.5"/>
		<g id="Layer_3_1_">
			<g>
				<path fill="#8BC24C" d="M81.568,22.787L81.568,22.787c-0.788,2.799-3.219,4.994-6.46,5.615
					c-1.474,0.281-1.707,0.123-3.625-0.324c0,0-1.175-0.285-1.601-0.916l0,0l0,0c0,0-1.27-0.775-1.95,0.984
					c-0.562,1.33-3.188-3.36-3.799-5.484c-0.219-2.197,0.456-7.723,1.468-6.694c1.282,1.384,2.138-0.001,2.138-0.001l0,0
					c0.163-0.744,1.721-1.652,1.721-1.652c1.005-0.602,1.715-1.145,3.188-1.426c3.241-0.621,6.017,0.578,7.782,2.889l0,0
					c0.393-0.075,1.905,1.978,2.149,3.253C82.646,20.443,81.961,22.713,81.568,22.787L81.568,22.787z M59.438,14.094
					c0,0,3.693-3.049,2.381-5.648c-1.312-2.598-3.234-2.537-4.806-2.235c-2.261,0.433-3.185,3.054-3.185,3.054
					C56.647,10.148,59.438,14.094,59.438,14.094z M59.433,38.529c0,0,1.827,2.095,4.086,1.662c1.57-0.301,3.479-0.971,3.64-3.854
					c0.259-2.899-4.298-4.369-4.298-4.369S61.704,36.566,59.433,38.529z M41.455,11.631c0,0-3.31-2.93-5.101-2.18
					c-2.46,0.98-1.773,3.496-1.473,5.066c0.718,3.223,2.08,1.842,2.08,1.842S39.32,13.771,41.455,11.631z M41.1,37.967
					c0,0-1.759-0.682-1.256,2.48c0.301,1.57,0.611,4.262,3.24,4.166c1.823-0.045,3.937-3.911,3.937-3.911
					C44.264,39.602,41.1,37.967,41.1,37.967z M32.462,24.756c0,0-4.227,3.456-3.978,9.008c-0.004,0.51,0.758,0.771,1.114,0.5
					c2.411-2.295,4.217-2.437,4.217-2.437l0.558-3.468L32.462,24.756z"/>
				<path fill="#A3CF66" d="M68.325,16.363c-0.016-0.609,0.419-0.997,0.951-1.404c2.623-1.725,3.686-2.029,4.019-1.889
					c2.05,1.135,0.782,2.496,3.576,3.795c2.014,0.938,2.614-0.705,2.75-0.527c0.253,0.258,0.669-0.229,0.785-0.15
					c1.012,1.029,1.646,2.74,1.646,2.74s0.142,1.805-0.519,3.153c-0.078,0.118-0.645-0.183-0.785,0.149
					c-0.158,0.234-1.227-1.088-2.75,0.526c-2.116,2.238-0.339,3.019-1.922,4.849c-0.354,0.272-1.338,0.461-4.432-0.271
					c-0.646-0.182-1.076-0.304-1.403-0.953c-0.318-1.67-1.645-2.738-2.059-4.9C67.807,19.518,68.644,18.033,68.325,16.363z
					 M64.685,22.354c0.314,2.18,1.971,6.037,2.647,4.787c0.914-1.601,2.16-0.412,2.122-0.609c-0.319-1.67-1.572-1.838-2.117-4.686
					c-0.547-2.849,0.558-3.468,0.237-5.136c0.062-0.217-0.774,1.269-2.198,0.217C64.287,16.016,64.172,20.212,64.685,22.354z
					 M57.491,12.43c1.034,0.616,1.56,1.229,1.56,1.229s3.401-3.502,2.16-5.199c-0.406-0.532-0.659-0.789-1.029-1.126L57.491,12.43z
					 M65.99,37.682c0.239-0.351,0.379-0.684,0.562-1.328c0.545-1.938-3.931-4.033-3.931-4.033s-0.358,0.781-0.993,1.718
					L65.99,37.682z M40.076,12.404c0.653-0.84-0.394,0.074,0.478-0.702c0,0-2.96-2.692-4.165-1.546
					c-0.08,0.117-0.415,0.488,0.031,0.707L40.076,12.404z M42.644,43.373c-0.317,0.469,0.112,0.59,0.229,0.668
					c1.543,0.621,3.301-2.973,3.301-2.973c-0.998-0.42,0.215,0.061-0.703-0.478L42.644,43.373z M30.729,27.938
					c-0.991,1.209-1.919,4.34-1.628,4.793c0.155,0.275,0.705-2.172,1.757-3.596c1.11-1.638,2.743-2.154,2.743-2.154l-0.54-1.22
					C32.983,25.878,31.561,26.965,30.729,27.938z"/>
				<g id="shell_1_">
					<g>
						<path fill="#64A644" d="M42.133,26.875l-0.546-2.848c-0.149-0.786,0.251-1.881,0.784-2.289l4.916-4.098
							c0.515-0.507,1.596-0.714,2.357-0.451l6.083,1.992c0.664,0.278,1.521,1.032,1.671,1.817l0.546,2.849l0.433,2.26
							c0.15,0.785-0.25,1.881-0.882,2.307l-4.818,4.078c-0.515,0.506-1.596,0.713-2.357,0.451l-6.083-1.991
							c-0.664-0.28-1.423-1.052-1.573-1.837L42.133,26.875"/>
						<path fill="#64A644" d="M60.009,23.453l-0.546-2.85c-0.149-0.785-0.161-1.902,0.335-2.506l2.357-3.101
							c0.496-0.604,0.949-0.896,1.065-0.815c0,0,0.019,0.1,0.155,0.276c2.022,2.058-0.482,3.858,0.345,8.183
							c0.677,3.534,3.667,4.795,2.547,7.452c-0.062,0.216-0.08,0.118-0.08,0.118c-0.062,0.214-0.706,0.032-1.389-0.346l-3.24-2.026
							c-0.684-0.379-1.086-1.422-1.236-2.207L60.009,23.453L60.009,23.453z"/>
						<path fill="#64A644" d="M34.669,28.303c-0.281-1.473-0.962-2.361-0.812-3.713c0.13-1.449,0.475-2.84,0.475-2.84
							c0.263-0.762,0.91-1.09,1.674-0.829l2.715,1.415c0.664,0.281,1.266,1.285,1.415,2.07l0.546,2.85l0.413,2.16
							c0.149,0.785-0.056,1.844-0.55,2.447l-2.1,2.336c-0.515,0.506-1.338,0.459-1.744-0.072c0,0-0.895-0.949-1.453-2.268
							C34.69,30.54,34.8,28.991,34.669,28.303z"/>
						<path fill="#64A644" d="M63.922,31.664c0.684,0.379,1.07,0.812,1.011,1.027c0,0,0,0-0.079,0.117
							c-0.715,1.053-2.418,0.666-3.27,1.541c-0.771,0.76-0.688,2.779-1.694,3.379c-1.814,1.164-4.998,2.078-4.998,2.078
							c-0.669,0.229-1.468-0.229-1.619-1.015l-0.489-2.554c-0.148-0.786,0.271-1.782,0.882-2.307l4.856-3.884
							c0.632-0.426,1.633-0.517,2.315-0.138L63.922,31.664z"/>
						<path fill="#64A644" d="M58.261,16.457c-0.494,0.604-1.458,0.889-2.104,0.708l-6.044-1.796
							c-0.745-0.162-1.521-1.032-1.672-1.817l-0.489-2.554c-0.149-0.786,0.424-1.507,1.13-1.541c0,0,3.199-0.307,5.314,0.104
							c1.058,0.205,1.827,2.094,2.823,2.515c1.113,0.5,2.651-0.509,3.605,0.226c0.118,0.08,0.118,0.08,0.118,0.08
							c0.116,0.079-0.065,0.725-0.561,1.329L58.261,16.457z"/>
						<path fill="#64A644" d="M41.622,19.947c-0.514,0.506-1.612,0.615-2.276,0.334l-2.578-1.236
							c-0.665-0.279-1.092-0.912-0.854-1.262c0,0,0,0,0.237-0.352c0.715-1.055,2.302-0.746,3.312-1.855
							c1.089-1.227,0.71-2.682,1.715-3.281c1.438-0.988,3.326-1.757,3.326-1.757c0.671-0.229,1.156,0.187,1.309,0.972l0.47,2.455
							c0.15,0.786,0.044,1.824-0.588,2.25L41.622,19.947z"/>
						<path fill="#64A644" d="M49.325,34.661c0.665,0.28,1.228,1.089,1.378,1.875l0.471,2.456c0.149,0.785-0.13,1.449-0.854,1.385
							c0,0-2.139,0.002-3.841-0.385c-1.175-0.284-1.241-1.696-2.805-2.416c-1.349-0.658-2.708,0.213-3.663-0.52
							c-0.352-0.238-0.253-0.259-0.253-0.259c-0.352-0.237-0.188-0.981,0.325-1.487l1.939-2.103
							c0.514-0.506,1.379-0.772,2.141-0.513L49.325,34.661z"/>
					</g>
					<g opacity="0.15">
						<path fill="#FFFFFF" d="M41.736,27.46l-0.545-2.849c-0.15-0.785,0.25-1.881,0.783-2.288l4.918-4.097
							c0.514-0.506,1.595-0.713,2.356-0.451l6.083,1.99c0.664,0.28,1.521,1.032,1.671,1.817l0.546,2.849l0.433,2.26
							c0.15,0.787-0.251,1.881-0.882,2.308l-4.819,4.079c-0.513,0.505-1.594,0.712-2.355,0.451l-6.083-1.992
							c-0.664-0.281-1.425-1.051-1.574-1.836L41.736,27.46"/>
						<path fill="#FFFFFF" d="M59.612,24.037l-0.545-2.848c-0.151-0.785-0.162-1.903,0.334-2.508l2.358-3.099
							c0.496-0.604,0.948-0.896,1.065-0.815c0,0,0.02,0.1,0.155,0.276c2.021,2.056-0.483,3.858,0.344,8.181
							c0.678,3.535,3.667,4.797,2.547,7.455c-0.06,0.215-0.079,0.116-0.079,0.116c-0.062,0.215-0.706,0.033-1.39-0.346l-3.239-2.026
							c-0.684-0.379-1.087-1.422-1.235-2.207L59.612,24.037L59.612,24.037z"/>
						<path fill="#FFFFFF" d="M34.272,28.889c-0.283-1.473-0.962-2.361-0.812-3.713c0.131-1.449,0.475-2.84,0.475-2.84
							c0.262-0.763,0.911-1.091,1.674-0.83l2.715,1.416c0.664,0.279,1.265,1.285,1.415,2.07l0.545,2.848l0.414,2.162
							c0.15,0.785-0.055,1.844-0.551,2.446l-2.098,2.336c-0.516,0.506-1.339,0.46-1.745-0.073c0,0-0.896-0.949-1.452-2.268
							C34.194,31.145,34.421,29.676,34.272,28.889z"/>
						<path fill="#FFFFFF" d="M63.544,32.348c0.685,0.377,1.072,0.812,1.013,1.027c0,0,0,0-0.079,0.117
							c-0.716,1.053-2.417,0.666-3.269,1.542c-0.771,0.759-0.689,2.778-1.695,3.38c-1.813,1.161-4.998,2.076-4.998,2.076
							c-0.67,0.23-1.469-0.229-1.619-1.014l-0.508-2.652c-0.151-0.785,0.269-1.783,0.882-2.307l4.855-3.884
							c0.632-0.426,1.634-0.516,2.314-0.139L63.544,32.348z"/>
						<path fill="#FFFFFF" d="M57.883,17.141c-0.494,0.604-1.458,0.889-2.104,0.707l-6.046-1.795
							c-0.744-0.162-1.521-1.033-1.671-1.818l-0.489-2.553c-0.149-0.785,0.424-1.508,1.13-1.539c0,0,3.2-0.309,5.314,0.103
							c1.058,0.205,1.827,2.094,2.822,2.514c1.113,0.5,2.651-0.508,3.606,0.228c0.117,0.078,0.117,0.078,0.117,0.078
							c0.117,0.08-0.064,0.727-0.562,1.33L57.883,17.141z"/>
						<path fill="#FFFFFF" d="M41.244,20.631c-0.514,0.506-1.613,0.613-2.277,0.334l-2.578-1.236
							c-0.665-0.28-1.092-0.91-0.854-1.264c0,0,0,0,0.238-0.35c0.716-1.055,2.302-0.746,3.311-1.856
							c1.089-1.227,0.709-2.681,1.714-3.28c1.439-0.987,3.329-1.758,3.329-1.758c0.668-0.229,1.156,0.188,1.307,0.973l0.471,2.455
							c0.149,0.785,0.044,1.824-0.588,2.252L41.244,20.631z"/>
						<path fill="#FFFFFF" d="M48.849,35.363c0.664,0.279,1.226,1.09,1.377,1.875l0.471,2.455c0.149,0.785-0.131,1.451-0.855,1.386
							c0,0-2.138,0.001-3.841-0.384c-1.175-0.285-1.24-1.697-2.805-2.416c-1.347-0.66-2.708,0.213-3.664-0.521
							c-0.35-0.238-0.251-0.257-0.251-0.257c-0.353-0.237-0.188-0.981,0.325-1.487l1.939-2.103c0.515-0.507,1.38-0.772,2.142-0.513
							L48.849,35.363z"/>
					</g>
					<path fill="#538A3E" d="M33.392,28.549c0.132,0.688-0.372,2.311,0.166,3.531c1.215,2.619,3.061,4.811,5.319,6.516
						c1.073,0.812,2.26-0.432,3.978,0.562c2.499,1.354,2.216,2.529,3.703,2.854c2.331,0.471,4.88,0.491,7.335,0.021
						c2.456-0.471,4.718-1.412,6.612-2.691c1.082-0.716,1.181-2.871,2.13-3.767c1.026-1.013,2.791-0.841,3.585-2.011
						c0.08-0.119,0.08-0.119,0.08-0.119c0.077-0.114,0.336-0.368,0.316-0.467c0.079-0.117,0.874-1.287,1.153-1.951
						c1.578-3.459-2.045-6.432-2.459-8.592c-0.545-2.848,1.702-6.535-0.944-9.186c-0.505-0.516-1.73-1.604-1.85-1.682
						c-0.116-0.082-0.352-0.24-0.486-0.418c0,0,0,0-0.117-0.078c-1.171-0.795-2.745,0.016-4.074-0.545
						c-1.213-0.48-2.099-2.448-3.37-2.715c-2.33-0.47-4.684-0.528-7.139-0.06c-2.555,0.49-4.816,1.433-6.809,2.729
						c-1.184,0.734-0.564,1.838-2.387,4.021c-1.248,1.461-2.792,0.84-3.488,1.991c-1.471,2.419-2.338,5.335-2.481,8.314
						C32.118,26.145,33.11,27.074,33.392,28.549z M42.133,26.875l-0.546-2.848c-0.149-0.786,0.251-1.881,0.784-2.289l4.916-4.098
						c0.515-0.507,1.596-0.714,2.357-0.451l6.083,1.992c0.664,0.278,1.521,1.032,1.671,1.817l0.546,2.849l0.433,2.26
						c0.15,0.785-0.25,1.881-0.882,2.307l-4.818,4.078c-0.515,0.506-1.596,0.713-2.357,0.451l-6.083-1.991
						c-0.664-0.28-1.423-1.052-1.573-1.837L42.133,26.875 M60.009,23.453l-0.546-2.85c-0.149-0.785-0.161-1.902,0.335-2.506
						l2.357-3.101c0.496-0.604,0.949-0.896,1.065-0.815c0,0,0.019,0.1,0.155,0.276c2.022,2.058-0.482,3.858,0.345,8.183
						c0.677,3.534,3.667,4.795,2.547,7.452c-0.062,0.216-0.08,0.118-0.08,0.118c-0.062,0.214-0.706,0.032-1.389-0.346l-3.24-2.026
						c-0.684-0.379-1.086-1.422-1.236-2.207L60.009,23.453L60.009,23.453z M34.669,28.303c-0.281-1.473-0.962-2.361-0.812-3.713
						c0.13-1.449,0.475-2.84,0.475-2.84c0.263-0.762,0.91-1.09,1.674-0.829l2.715,1.415c0.664,0.281,1.266,1.285,1.415,2.07
						l0.546,2.85l0.413,2.16c0.149,0.785-0.056,1.844-0.55,2.447l-2.1,2.336c-0.515,0.506-1.338,0.459-1.744-0.072
						c0,0-0.895-0.949-1.453-2.268C34.69,30.54,34.8,28.991,34.669,28.303z M63.922,31.664c0.684,0.379,1.07,0.812,1.011,1.027
						c0,0,0,0-0.079,0.117c-0.715,1.053-2.418,0.666-3.27,1.541c-0.771,0.76-0.688,2.779-1.694,3.379
						c-1.814,1.164-4.998,2.078-4.998,2.078c-0.669,0.229-1.468-0.229-1.619-1.015l-0.489-2.554
						c-0.148-0.786,0.271-1.782,0.882-2.307l4.856-3.884c0.632-0.426,1.633-0.517,2.315-0.138L63.922,31.664z M58.261,16.457
						c-0.494,0.604-1.458,0.889-2.104,0.708l-6.044-1.796c-0.745-0.162-1.521-1.032-1.672-1.817l-0.489-2.554
						c-0.149-0.786,0.424-1.507,1.13-1.541c0,0,3.199-0.307,5.314,0.104c1.058,0.205,1.827,2.094,2.823,2.515
						c1.113,0.5,2.651-0.509,3.605,0.226c0.118,0.08,0.118,0.08,0.118,0.08c0.116,0.079-0.065,0.725-0.561,1.329L58.261,16.457z
						 M41.622,19.947c-0.514,0.506-1.612,0.615-2.276,0.334l-2.578-1.236c-0.665-0.279-1.092-0.912-0.854-1.262c0,0,0,0,0.237-0.352
						c0.715-1.055,2.302-0.746,3.312-1.855c1.089-1.227,0.71-2.682,1.715-3.281c1.438-0.988,3.326-1.757,3.326-1.757
						c0.671-0.229,1.156,0.187,1.309,0.972l0.47,2.455c0.15,0.786,0.044,1.824-0.588,2.25L41.622,19.947z M49.325,34.661
						c0.665,0.28,1.228,1.089,1.378,1.875l0.471,2.456c0.149,0.785-0.13,1.449-0.854,1.385c0,0-2.139,0.002-3.841-0.385
						c-1.175-0.284-1.241-1.696-2.805-2.416c-1.349-0.658-2.708,0.213-3.663-0.52c-0.352-0.238-0.253-0.259-0.253-0.259
						c-0.352-0.237-0.188-0.981,0.325-1.487l1.939-2.103c0.514-0.506,1.379-0.772,2.141-0.513L49.325,34.661z"/>
				</g>
				<g id="eyes_1_">
					<path id="eye_2_" fill="#FFFFFF" d="M80.941,22.703c0,0-1.525-0.521-2.576,0.9c-1.052,1.424-0.002,2.647-0.002,2.647
						S80.237,24.875,80.941,22.703z"/>
					<path id="eye_1_" fill="#FFFFFF" d="M79.68,16.123c0,0-1.224,1.05-2.727,0.115c-1.503-0.936-0.979-2.461-0.979-2.461
						S78.224,14.365,79.68,16.123z"/>
					<path fill="#426932" d="M77.408,15.947c0.586,0.396,1.334,0.051,1.885-0.26c-0.642-0.691-1.441-1.148-2.105-1.43
						C76.967,14.709,76.724,15.568,77.408,15.947z"/>
					<path fill="#426932" d="M78.875,23.607c0.396-0.584,1.221-0.539,1.866-0.356c-0.342,0.88-0.917,1.601-1.43,2.106
						C78.922,24.922,78.379,24.213,78.875,23.607z"/>
				</g>
			</g>
		</g>
	</g>
</g>
</svg>
