<?xml version="1.0" encoding="utf-8"?>
<!-- Generator: Adobe Illustrator 19.0.1, SVG Export Plug-In . SVG Version: 6.00 Build 0)  -->
<svg version="1.1" id="Layer_1" xmlns="http://www.w3.org/2000/svg" xmlns:xlink="http://www.w3.org/1999/xlink" x="0px" y="0px"
	 width="43px" height="141.999px" viewBox="0 0 43 141.999" enable-background="new 0 0 43 141.999" xml:space="preserve">
<g id="Layer_1_1_">
	<path fill="#FAFAFA" stroke="#E4CBA9" stroke-miterlimit="10" d="M42.5,133.499c0,4.42-3.582,8-8,8h-26c-4.418,0-8-3.58-8-8V8.5
		c0-4.418,3.582-8,8-8h26c4.418,0,8,3.582,8,8V133.499z"/>
	<path fill="#ED2224" d="M23.386,131.331c0,1.104-0.896,2-2,2l0,0c-1.104,0-2-0.896-2-2v-96c0-1.104,0.896-2,2-2l0,0
		c1.104,0,2,0.896,2,2V131.331z"/>
	<g id="Layer_3_2_">
		<g>
			<path fill="#8BC24C" d="M24.564,5.701c0-0.004-0.004-0.008-0.004-0.012c2.566,1.362,4.27,4.077,4.27,7.463
				c0,1.541-0.17,1.718-1.019,3.531c0,0-0.502,1.119-1.236,1.441h0.021l-0.017,0.001c0,0-0.961,1.078,0.625,2.087
				c1.247,0.794-3.885,2.504-6.072,2.728c-2.189-0.224-7.508-1.933-6.261-2.728c1.589-1.011,0.44-2.087,0.44-2.087l0.006-0.001
				c-0.734-0.321-1.298-1.96-1.298-1.96c-0.377-1.083-0.771-1.897-0.771-3.438c0-3.324,1.729-5.793,4.272-7.055
				c-0.002-0.008-0.006-0.014-0.006-0.021c0-0.419,2.274-1.474,3.622-1.474c1.315,0,3.383,1.138,3.422,1.513L24.564,5.701z
				 M11.873,25.775c0,0-2.319-4.17-5.106-3.417c-2.844,0.769-3.142,2.726-3.142,4.347c0,2.3,2.402,3.657,2.402,3.657
				C7.485,27.795,11.873,25.775,11.873,25.775z M35.815,30.363c0,0,2.401-1.356,2.401-3.656c0.001-1.622-0.296-3.578-3.142-4.348
				c-2.787-0.754-5.106,3.416-5.106,3.416S34.357,27.795,35.815,30.363z M6.071,42.993c0,0-3.454,2.739-3.14,4.582
				c0.45,2.628,3.133,2.431,4.74,2.397c3.255-0.071,2.237-1.711,2.237-1.711S7.744,45.451,6.071,42.993z M31.912,48.262
				c0,0-1.016,1.64,2.237,1.71c1.608,0.034,4.292,0.231,4.742-2.397c0.313-1.841-3.143-4.581-3.143-4.581
				C34.079,45.451,31.912,48.262,31.912,48.262z M17.215,54.282c0,0,2.606,4.822,8.085,5.563c0.456,0.062,0.887-0.624,0.663-0.962
				c-1.848-2.797-1.645-4.602-1.645-4.602l-3.272-1.231L17.215,54.282z"/>
			<path fill="#A3CF66" d="M15.765,17.485c-0.634-0.137-0.91-0.568-1.178-1.17c-1.22-2.904-1.259-3.971-1.062-4.337
				c1.495-1.849,2.598-0.301,4.388-2.771c1.294-1.785-0.226-2.664,0.021-2.818c0.339-0.212-0.135-0.723,0.009-0.799
				c1.184-0.834,3.023-1.072,3.023-1.072s1.839,0.237,3.022,1.072c0.143,0.076-0.33,0.586,0.008,0.799
				c0.246,0.155-1.273,1.033,0.021,2.818c1.79,2.47,2.892,0.922,4.387,2.771c0.196,0.366,0.157,1.434-1.062,4.337
				c-0.268,0.602-0.543,1.033-1.178,1.17c-1.693,0-3.009,1.072-5.197,1.072C18.773,18.557,17.46,17.485,15.765,17.485z
				 M20.962,22.162c2.189,0.09,6.332-0.783,5.219-1.731c-1.354-1.154,0.021-2.219-0.217-2.164c-1.705,0-2.083,1.159-5.002,1.159
				c-2.92,0-3.297-1.159-5.002-1.159c-0.237-0.055,1.139,1.01-0.217,2.164C14.632,21.379,18.773,22.251,20.962,22.162z
				 M9.911,27.352c0.8-0.865,1.507-1.322,1.507-1.322s-2.776-4.001-4.691-3.121c-0.592,0.272-0.866,0.508-1.276,0.811L9.911,27.352z
				 M36.301,23.776c-0.296-0.323-0.632-0.521-1.208-0.817c-1.81-0.935-4.668,3.071-4.668,3.071s0.708,0.458,1.505,1.322
				L36.301,23.776z M6.514,44.452c-0.742-0.765,0.019,0.375-0.616-0.559c0,0-3.184,2.431-2.256,3.814
				c0.076,0.112,0.359,0.524,0.718,0.088L6.514,44.452z M37.462,47.795c0.357,0.437,0.642,0.024,0.717-0.088
				c0.928-1.383-2.255-3.814-2.255-3.814c-0.636,0.932,0.126-0.207-0.616,0.559L37.462,47.795z M20.109,56.592
				c1.038,1.168,3.929,2.742,4.388,2.545c0.296-0.127-1.956-1.142-3.153-2.386c-1.352-1.404-1.58-3.077-1.58-3.077l-1.3,0.265
				C18.462,53.941,19.248,55.624,20.109,56.592z"/>
			<g id="shell">
				<g>
					<path fill="#64A644" d="M21.13,45.186h-2.898c-0.803,0-1.75-0.559-2.105-1.206l-3.062-5.581
						c-0.355-0.648-0.354-1.714,0.005-2.36l3.052-5.611c0.359-0.646,1.311-1.293,2.113-1.293h2.898h2.255
						c0.804,0,1.753,0.645,2.114,1.292l3.053,5.548c0.357,0.647,0.359,1.733,0.005,2.381l-3.062,5.611
						c-0.355,0.647-1.305,1.221-2.106,1.221h-2.258"/>
					<path fill="#64A644" d="M21.13,26.944h-2.9c-0.804,0-1.86-0.242-2.354-0.815l-2.587-2.901c-0.489-0.571-0.74-1.089-0.557-1.219
						c0,0,0.13,0.027,0.301-0.083c2.417-1.568,3.718,1.162,8.097,1.162c3.646,0,5.356-2.703,7.772-1.134
						c0.172,0.111,0.075,0.111,0.075,0.111c0.186,0.13-0.114,0.704-0.604,1.277l-2.612,2.787c-0.49,0.573-1.571,0.815-2.374,0.815
						H21.13L21.13,26.944z"/>
					<path fill="#64A644" d="M21.13,52.742c-1.459,0-2.504,0.472-3.771,0.128c-1.396-0.381-2.74-1.05-2.74-1.05
						c-0.693-0.363-0.929-1.15-0.48-1.75l1.872-2.434c0.446-0.6,1.453-0.99,2.256-0.99h2.864h2.222c0.803,0,1.824,0.39,2.271,0.99
						l1.889,2.485c0.447,0.599,0.245,1.361-0.449,1.724c0,0-1.086,0.655-2.48,1.037C23.313,53.228,21.86,52.742,21.13,52.742z"/>
					<path fill="#64A644" d="M29.94,24.643c0.488-0.573,1.01-0.931,1.159-0.795c0,0,0,0,0.132,0.128
						c0.876,0.861,0.203,2.481,0.882,3.53c0.593,0.914,2.562,1.235,2.979,2.267c0.806,1.996,1.142,5.266,1.142,5.266
						c0.076,0.719-0.518,1.392-1.321,1.392h-2.63c-0.804,0-1.739-0.62-2.082-1.273l-2.854-5.512
						c-0.343-0.654-0.222-1.679,0.267-2.252L29.94,24.643z"/>
					<path fill="#64A644" d="M14.003,27.372c0.487,0.574,0.607,1.578,0.268,2.232l-2.854,5.554c-0.343,0.654-1.276,1.273-2.08,1.273
						H6.706c-0.803,0-1.396-0.673-1.32-1.392c0,0,0.337-3.228,1.142-5.224c0.415-1.03,2.386-1.374,2.979-2.288
						c0.678-1.048,0.005-2.68,0.883-3.541c0.131-0.128,0.131-0.133,0.131-0.133c0.147-0.136,0.67,0.22,1.159,0.792L14.003,27.372z"
						/>
					<path fill="#64A644" d="M14.25,44.337c0.366,0.644,0.302,1.66-0.146,2.26l-1.698,2.282c-0.445,0.6-1.076,0.874-1.397,0.608
						c0,0,0,0-0.279-0.258c-0.916-0.85-0.265-2.36-1.193-3.552c-1.043-1.339-2.45-1.249-2.9-2.315
						c-0.675-1.596-1.07-3.638-1.07-3.638C5.44,39.01,5.994,38.62,6.796,38.62h2.521c0.804,0,1.759,0.333,2.125,0.976L14.25,44.337z
						"/>
					<path fill="#64A644" d="M30.179,39.595c0.365-0.644,1.322-0.976,2.125-0.976h2.521c0.803,0,1.354,0.391,1.229,1.104
						c0,0-0.396,2.141-1.069,3.734c-0.45,1.067-1.859,0.927-2.903,2.267c-0.928,1.19-0.275,2.678-1.192,3.525
						c-0.279,0.259-0.279,0.248-0.279,0.248c-0.321,0.267-0.952-0.014-1.397-0.614l-1.698-2.284c-0.445-0.6-0.511-1.522-0.146-2.167
						L30.179,39.595z"/>
				</g>
				<g opacity="0.15">
					<path fill="#FFFFFF" d="M21.705,45.729h-2.897c-0.804,0-1.751-0.559-2.106-1.206l-3.062-5.582
						c-0.356-0.648-0.354-1.714,0.005-2.359l3.052-5.611c0.359-0.646,1.311-1.293,2.113-1.293h2.897h2.257
						c0.802,0,1.753,0.645,2.112,1.292l3.053,5.548c0.358,0.646,0.36,1.733,0.007,2.38l-3.063,5.612
						c-0.354,0.647-1.304,1.221-2.105,1.221H21.71"/>
					<path fill="#FFFFFF" d="M21.705,27.487h-2.9c-0.803,0-1.859-0.242-2.353-0.815l-2.587-2.901
						c-0.49-0.571-0.74-1.089-0.556-1.219c0,0,0.128,0.027,0.3-0.083c2.417-1.569,3.717,1.162,8.096,1.162
						c3.648,0,5.357-2.703,7.773-1.134c0.172,0.111,0.075,0.111,0.075,0.111c0.186,0.13-0.114,0.704-0.604,1.277l-2.611,2.787
						c-0.49,0.573-1.571,0.815-2.374,0.815H21.705L21.705,27.487z"/>
					<path fill="#FFFFFF" d="M21.705,53.285c-1.459,0-2.504,0.473-3.771,0.128c-1.396-0.38-2.74-1.049-2.74-1.049
						c-0.692-0.363-0.928-1.151-0.48-1.75l1.872-2.434c0.445-0.6,1.452-0.99,2.256-0.99h2.863h2.223c0.803,0,1.824,0.39,2.271,0.99
						l1.89,2.484c0.445,0.6,0.243,1.362-0.45,1.725c0,0-1.086,0.655-2.481,1.037C23.887,53.771,22.435,53.285,21.705,53.285z"/>
					<path fill="#FFFFFF" d="M30.514,25.185c0.487-0.573,1.01-0.931,1.16-0.795c0,0,0,0,0.131,0.128
						c0.876,0.861,0.204,2.481,0.882,3.53c0.593,0.914,2.562,1.235,2.978,2.268c0.807,1.995,1.143,5.265,1.143,5.265
						c0.076,0.719-0.519,1.392-1.321,1.392h-2.63c-0.804,0-1.74-0.62-2.082-1.273l-2.853-5.512
						c-0.344-0.654-0.223-1.679,0.267-2.252L30.514,25.185z"/>
					<path fill="#FFFFFF" d="M14.578,27.914c0.487,0.574,0.608,1.578,0.269,2.232L11.993,35.7c-0.342,0.654-1.275,1.273-2.08,1.273
						h-2.63c-0.802,0-1.396-0.673-1.321-1.392c0,0,0.338-3.228,1.143-5.224c0.415-1.03,2.386-1.374,2.978-2.288
						c0.68-1.048,0.005-2.68,0.883-3.541c0.132-0.128,0.132-0.133,0.132-0.133c0.147-0.136,0.67,0.22,1.158,0.792L14.578,27.914z"/>
					<path fill="#FFFFFF" d="M14.825,44.88c0.365,0.644,0.299,1.66-0.146,2.26l-1.698,2.282c-0.446,0.6-1.076,0.874-1.398,0.608
						c0,0,0,0-0.278-0.258c-0.916-0.85-0.266-2.361-1.192-3.552c-1.044-1.339-2.451-1.248-2.902-2.315
						c-0.674-1.596-1.069-3.639-1.069-3.639c-0.127-0.713,0.427-1.104,1.229-1.104h2.522c0.804,0,1.759,0.333,2.125,0.976
						L14.825,44.88z"/>
					<path fill="#FFFFFF" d="M30.753,40.138c0.365-0.644,1.32-0.976,2.125-0.976h2.521c0.802,0,1.354,0.391,1.229,1.104
						c0,0-0.396,2.142-1.069,3.735c-0.45,1.067-1.859,0.927-2.902,2.267c-0.929,1.19-0.277,2.678-1.193,3.526
						c-0.279,0.258-0.279,0.248-0.279,0.248c-0.321,0.267-0.952-0.015-1.398-0.614l-1.697-2.284c-0.445-0.6-0.514-1.523-0.146-2.167
						L30.753,40.138z"/>
				</g>
				<path fill="#538A3E" d="M21.13,54.079c0.729,0,2.242,0.816,3.548,0.498c2.83-0.693,5.306-2.095,7.438-4.017
					c1.033-0.931,0.017-2.262,1.265-3.794c1.772-2.173,2.927-1.749,3.466-3.084c0.9-2.228,1.389-4.674,1.389-7.241
					c0-2.499-0.495-4.863-1.364-7.024c-0.494-1.225-2.569-1.726-3.287-2.809c-0.795-1.192-0.257-2.946-1.272-3.933
					c-0.127-0.123-0.127-0.123-0.127-0.123c-0.145-0.129-0.319-0.354-0.44-0.439s-1.128-1.067-1.714-1.475
					c-3.104-2.166-6.712,0.779-8.9,0.779c-2.919,0-6.116-2.945-9.225-0.779c-0.584,0.408-1.85,1.39-1.971,1.475
					c-0.12,0.084-0.326,0.31-0.471,0.439c0,0-0.017,0-0.143,0.123c-1.018,0.986-0.485,2.741-1.278,3.933
					c-0.718,1.081-2.796,1.583-3.289,2.809c-0.869,2.162-1.36,4.525-1.36,7.024c0,2.567,0.498,5.015,1.398,7.241
					c0.54,1.333,1.72,0.908,3.49,3.084c1.25,1.535,0.279,2.863,1.313,3.794c2.134,1.922,4.834,3.323,7.665,4.017
					C18.567,54.895,19.671,54.079,21.13,54.079z M21.13,45.186h-2.898c-0.803,0-1.75-0.559-2.105-1.206l-3.062-5.581
					c-0.355-0.648-0.354-1.714,0.005-2.36l3.052-5.611c0.359-0.646,1.311-1.293,2.113-1.293h2.898h2.255
					c0.804,0,1.753,0.645,2.114,1.292l3.053,5.548c0.357,0.647,0.359,1.733,0.005,2.381l-3.062,5.611
					c-0.355,0.647-1.305,1.221-2.106,1.221h-2.258 M21.13,26.944h-2.9c-0.804,0-1.86-0.242-2.354-0.815l-2.587-2.901
					c-0.489-0.571-0.74-1.089-0.557-1.219c0,0,0.13,0.027,0.301-0.083c2.417-1.568,3.718,1.162,8.097,1.162
					c3.646,0,5.356-2.703,7.772-1.134c0.172,0.111,0.075,0.111,0.075,0.111c0.186,0.13-0.114,0.704-0.604,1.277l-2.612,2.787
					c-0.49,0.573-1.571,0.815-2.374,0.815H21.13L21.13,26.944z M21.13,52.742c-1.459,0-2.504,0.472-3.771,0.128
					c-1.396-0.381-2.74-1.05-2.74-1.05c-0.693-0.363-0.929-1.15-0.48-1.75l1.872-2.434c0.446-0.6,1.453-0.99,2.256-0.99h2.864h2.222
					c0.803,0,1.824,0.39,2.271,0.99l1.889,2.485c0.447,0.599,0.245,1.361-0.449,1.724c0,0-1.086,0.655-2.48,1.037
					C23.313,53.228,21.86,52.742,21.13,52.742z M29.94,24.643c0.488-0.573,1.01-0.931,1.159-0.795c0,0,0,0,0.132,0.128
					c0.876,0.861,0.203,2.481,0.882,3.53c0.593,0.914,2.562,1.235,2.979,2.267c0.806,1.996,1.142,5.266,1.142,5.266
					c0.076,0.719-0.518,1.392-1.321,1.392h-2.63c-0.804,0-1.739-0.62-2.082-1.273l-2.854-5.512
					c-0.343-0.654-0.222-1.679,0.267-2.252L29.94,24.643z M14.003,27.372c0.487,0.574,0.607,1.578,0.268,2.232l-2.854,5.554
					c-0.343,0.654-1.276,1.273-2.08,1.273H6.706c-0.803,0-1.396-0.673-1.32-1.392c0,0,0.337-3.228,1.142-5.224
					c0.415-1.03,2.386-1.374,2.979-2.288c0.678-1.048,0.005-2.68,0.883-3.541c0.131-0.128,0.131-0.133,0.131-0.133
					c0.147-0.136,0.67,0.22,1.159,0.792L14.003,27.372z M14.25,44.337c0.366,0.644,0.302,1.66-0.146,2.26l-1.698,2.282
					c-0.445,0.6-1.076,0.874-1.397,0.608c0,0,0,0-0.279-0.258c-0.916-0.85-0.265-2.36-1.193-3.552
					c-1.043-1.339-2.45-1.249-2.9-2.315c-0.675-1.596-1.07-3.638-1.07-3.638C5.44,39.01,5.994,38.62,6.796,38.62h2.521
					c0.804,0,1.759,0.333,2.125,0.976L14.25,44.337z M30.179,39.595c0.365-0.644,1.322-0.976,2.125-0.976h2.521
					c0.803,0,1.354,0.391,1.229,1.104c0,0-0.396,2.141-1.069,3.734c-0.45,1.067-1.859,0.927-2.903,2.267
					c-0.928,1.19-0.275,2.678-1.192,3.525c-0.279,0.259-0.279,0.248-0.279,0.248c-0.321,0.267-0.952-0.014-1.397-0.614l-1.698-2.284
					c-0.445-0.6-0.511-1.522-0.146-2.167L30.179,39.595z"/>
			</g>
			<g id="eyes">
				<path id="eye_6_" fill="#FFFFFF" d="M24.36,6.322c0,0-0.766,1.394,0.428,2.721c1.194,1.328,2.559,0.505,2.559,0.505
					S26.338,7.413,24.36,6.322z"/>
				<path id="eye_7_" fill="#FFFFFF" d="M17.618,6.322c0,0,0.767,1.394-0.428,2.721c-1.192,1.328-2.558,0.505-2.558,0.505
					S15.639,7.413,17.618,6.322z"/>
				<path fill="#426932" d="M17.072,8.52c0.473-0.525,0.272-1.339,0.05-1.886c-0.781,0.541-1.382,1.22-1.796,1.79
					C15.793,8.728,16.567,9.083,17.072,8.52z"/>
				<path fill="#426932" d="M24.906,8.52c-0.472-0.525-0.271-1.339-0.049-1.886c0.781,0.541,1.382,1.22,1.796,1.79
					C26.184,8.728,25.411,9.083,24.906,8.52z"/>
			</g>
		</g>
	</g>
</g>
</svg>
