<?xml version="1.0" encoding="utf-8"?>
<!-- Generator: Adobe Illustrator 19.0.1, SVG Export Plug-In . SVG Version: 6.00 Build 0)  -->
<svg version="1.1" id="Layer_1" xmlns="http://www.w3.org/2000/svg" xmlns:xlink="http://www.w3.org/1999/xlink" x="0px" y="0px"
	 width="43px" height="137px" viewBox="0 0 43 137" enable-background="new 0 0 43 137" xml:space="preserve">
<g id="Layer_1_1_">
	<path fill="#FAFAFA" stroke="#E4CBA9" stroke-miterlimit="10" d="M42.5,128.5c0,4.399-3.6,8-8,8h-26c-4.399,0-8-3.601-8-8V8.5
		c0-4.4,3.601-8,8-8h26c4.4,0,8,3.6,8,8V128.5z"/>
	<path fill="#ED2224" d="M23.4,115.3c0,1.1-0.9,2-2,2l0,0c-1.101,0-2-0.9-2-2v-103c0-1.101,0.899-2,2-2l0,0c1.1,0,2,0.899,2,2V115.3
		z"/>
	<g id="Layer_3_2_">
		<g>
			<path fill="#8BC24C" d="M25,28.1L25,28.1c2.601,1.3,4.3,4.1,4.3,7.4c0,1.5-0.199,1.699-1,3.5c0,0-0.5,1.1-1.199,1.399l0,0l0,0
				c0,0-1,1.101,0.6,2.101c1.2,0.8-3.9,2.5-6.1,2.699C19.401,45,14.101,43.3,15.3,42.5c1.601-1,0.4-2.101,0.4-2.101l0,0
				c-0.7-0.3-1.3-2-1.3-2C14,37.299,13.6,36.5,13.6,35c0-3.301,1.699-5.801,4.3-7.101l0,0c0-0.399,2.3-1.5,3.6-1.5
				C22.9,26.6,25,27.7,25,28.1L25,28.1z M12.3,48.2c0,0-2.3-4.199-5.1-3.399s-3.1,2.7-3.1,4.3c0,2.3,2.399,3.7,2.399,3.7
				C7.9,50.2,12.3,48.2,12.3,48.2z M36.3,52.8c0,0,2.4-1.4,2.4-3.7c0-1.6-0.3-3.6-3.1-4.3c-2.801-0.8-5.101,3.399-5.101,3.399
				S34.8,50.2,36.3,52.8z M6.5,65.4c0,0-3.5,2.7-3.1,4.601c0.5,2.6,3.1,2.399,4.7,2.399c3.3-0.1,2.199-1.7,2.199-1.7
				S8.2,67.9,6.5,65.4z M32.4,70.7c0,0-1,1.601,2.2,1.7c1.6,0,4.3,0.2,4.699-2.399c0.301-1.801-3.1-4.601-3.1-4.601
				C34.5,67.9,32.4,70.7,32.4,70.7z M17.7,76.7c0,0,2.6,4.801,8.1,5.601c0.5,0.1,0.9-0.601,0.7-1c-1.8-2.8-1.6-4.601-1.6-4.601
				l-3.3-1.199L17.7,76.7z"/>
			<path fill="#A3CF66" d="M16.2,39.9c-0.6-0.1-0.9-0.6-1.2-1.2c-1.2-2.899-1.3-4-1.1-4.3c1.5-1.8,2.6-0.3,4.399-2.8
				c1.301-1.8-0.199-2.7,0-2.8c0.301-0.2-0.1-0.7,0-0.8c1.2-0.801,3-1.101,3-1.101s1.801,0.2,3,1.101c0.101,0.1-0.3,0.6,0,0.8
				c0.2,0.2-1.3,1,0,2.8c1.801,2.5,2.9,0.9,4.4,2.8c0.2,0.4,0.2,1.4-1.1,4.3c-0.301,0.601-0.5,1-1.2,1.2c-1.7,0-3,1.101-5.2,1.101
				C19.2,41,17.9,39.9,16.2,39.9z M21.4,44.6c2.2,0.1,6.3-0.8,5.2-1.7c-1.4-1.2,0-2.2-0.2-2.2c-1.7,0-2.101,1.2-5,1.2
				c-2.9,0-3.3-1.2-5-1.2c-0.2-0.1,1.1,1-0.2,2.2C15.1,43.8,19.2,44.7,21.4,44.6z M10.4,49.8c0.8-0.9,1.5-1.3,1.5-1.3
				s-2.8-4-4.7-3.101c-0.6,0.3-0.9,0.5-1.3,0.8L10.4,49.8z M36.7,46.2c-0.3-0.3-0.6-0.5-1.2-0.8c-1.8-0.899-4.7,3.101-4.7,3.101
				s0.7,0.5,1.5,1.3L36.7,46.2z M7,66.9c-0.7-0.8,0,0.4-0.6-0.6c0,0-3.2,2.399-2.3,3.8c0.1,0.1,0.399,0.5,0.699,0.1L7,66.9z
				 M37.9,70.2c0.399,0.4,0.6,0,0.7-0.1c0.899-1.4-2.301-3.8-2.301-3.8c-0.6,0.899,0.101-0.2-0.6,0.6L37.9,70.2z M20.6,79
				c1,1.199,3.899,2.699,4.399,2.5c0.3-0.101-2-1.101-3.2-2.4c-1.399-1.4-1.6-3.1-1.6-3.1l-1.3,0.3C18.9,76.4,19.7,78,20.6,79z"/>
			<g id="shell">
				<g>
					<path fill="#64A644" d="M21.6,67.6h-2.9c-0.8,0-1.8-0.6-2.1-1.2l-3.101-5.6c-0.399-0.601-0.399-1.7,0-2.4l3.101-5.6
						c0.399-0.601,1.3-1.3,2.1-1.3h2.9h2.3c0.8,0,1.8,0.6,2.1,1.3l3.101,5.5c0.399,0.6,0.399,1.7,0,2.399L26,66.3
						c-0.399,0.6-1.3,1.2-2.1,1.2L21.6,67.6"/>
					<path fill="#64A644" d="M21.6,49.4h-2.9c-0.8,0-1.9-0.2-2.4-0.8l-2.6-3c-0.5-0.6-0.7-1.1-0.6-1.2c0,0,0.1,0,0.3-0.1
						c2.399-1.601,3.7,1.2,8.1,1.2c3.601,0,5.4-2.7,7.8-1.101c0.2,0.101,0.101,0.101,0.101,0.101c0.2,0.1-0.101,0.699-0.601,1.3
						l-2.6,2.8c-0.5,0.6-1.6,0.8-2.4,0.8H21.6L21.6,49.4z"/>
					<path fill="#64A644" d="M21.6,75.2c-1.5,0-2.5,0.5-3.801,0.101c-1.399-0.4-2.699-1-2.699-1c-0.7-0.4-0.9-1.101-0.5-1.8
						l1.899-2.4c0.4-0.6,1.5-1,2.3-1h2.9h2.2c0.8,0,1.8,0.4,2.3,1l1.9,2.5c0.399,0.6,0.199,1.4-0.4,1.7c0,0-1.1,0.7-2.5,1
						S22.3,75.2,21.6,75.2z"/>
					<path fill="#64A644" d="M30.4,47.1c0.5-0.6,1-0.9,1.2-0.8c0,0,0,0,0.1,0.1c0.9,0.9,0.2,2.5,0.9,3.5c0.6,0.9,2.6,1.2,3,2.3
						c0.8,2,1.1,5.301,1.1,5.301c0.1,0.699-0.5,1.399-1.3,1.399h-2.7c-0.8,0-1.7-0.6-2.1-1.3l-2.9-5.5c-0.3-0.7-0.2-1.7,0.3-2.3
						L30.4,47.1z"/>
					<path fill="#64A644" d="M14.4,49.8c0.5,0.6,0.6,1.6,0.3,2.2l-2.9,5.6c-0.3,0.7-1.3,1.3-2.1,1.3H7.1
						c-0.801,0-1.4-0.7-1.301-1.399c0,0,0.301-3.2,1.101-5.2c0.399-1,2.399-1.4,3-2.3c0.7-1,0-2.7,0.899-3.5
						C10.9,46.4,10.9,46.4,10.9,46.4c0.1-0.1,0.7,0.2,1.2,0.8L14.4,49.8z"/>
					<path fill="#64A644" d="M14.7,66.8c0.4,0.6,0.3,1.7-0.1,2.3l-1.7,2.3c-0.4,0.601-1.101,0.9-1.4,0.601c0,0,0,0-0.3-0.301
						c-0.9-0.899-0.3-2.399-1.2-3.6c-1-1.3-2.5-1.2-2.899-2.3C6.401,64.199,6,62.199,6,62.199c-0.1-0.699,0.4-1.1,1.2-1.1h2.5
						c0.8,0,1.8,0.3,2.1,1L14.7,66.8z"/>
					<path fill="#64A644" d="M30.6,62c0.399-0.601,1.3-1,2.1-1h2.5c0.8,0,1.4,0.399,1.2,1.1c0,0-0.4,2.1-1.101,3.7
						C34.9,66.9,33.4,66.699,32.4,68.1c-0.9,1.2-0.3,2.7-1.2,3.5c-0.3,0.3-0.3,0.2-0.3,0.2c-0.3,0.3-1,0-1.4-0.601l-1.7-2.3
						c-0.399-0.6-0.5-1.5-0.1-2.2L30.6,62z"/>
				</g>
				<g opacity="0.15">
					<path fill="#FFFFFF" d="M22.1,68.1h-2.9c-0.8,0-1.8-0.6-2.1-1.2l-3.101-5.6c-0.399-0.601-0.399-1.7,0-2.4l3.101-5.6
						c0.399-0.601,1.3-1.3,2.1-1.3h2.9h2.3c0.8,0,1.8,0.6,2.1,1.3l3.101,5.5c0.399,0.6,0.399,1.7,0,2.399L26.5,66.8
						c-0.399,0.6-1.3,1.2-2.1,1.2L22.1,68.1"/>
					<path fill="#FFFFFF" d="M22.1,49.9h-2.9c-0.8,0-1.9-0.2-2.4-0.8l-2.6-2.9c-0.5-0.6-0.7-1.1-0.6-1.199c0,0,0.1,0,0.3-0.101
						c2.399-1.6,3.7,1.2,8.1,1.2c3.601,0,5.4-2.7,7.8-1.1c0.2,0.1,0.101,0.1,0.101,0.1c0.2,0.1-0.101,0.7-0.601,1.3l-2.6,2.8
						c-0.5,0.601-1.6,0.801-2.4,0.801L22.1,49.9L22.1,49.9z"/>
					<path fill="#FFFFFF" d="M22.1,75.7c-1.5,0-2.5,0.5-3.801,0.101c-1.399-0.4-2.699-1-2.699-1c-0.7-0.4-0.9-1.101-0.5-1.8
						l1.899-2.4c0.4-0.6,1.5-1,2.3-1h2.9h2.2c0.8,0,1.8,0.4,2.3,1l1.9,2.5c0.399,0.6,0.199,1.4-0.4,1.7c0,0-1.1,0.7-2.5,1
						C24.3,76.2,22.9,75.7,22.1,75.7z"/>
					<path fill="#FFFFFF" d="M31,47.6c0.5-0.6,1-0.9,1.2-0.8c0,0,0,0,0.1,0.1c0.9,0.9,0.2,2.5,0.9,3.5c0.6,0.9,2.6,1.2,3,2.3
						c0.8,2,1.1,5.301,1.1,5.301C37.401,58.7,36.8,59.4,36,59.4h-2.6c-0.8,0-1.7-0.6-2.101-1.3L28.4,52.6c-0.3-0.7-0.2-1.7,0.3-2.3
						L31,47.6z"/>
					<path fill="#FFFFFF" d="M15,50.3c0.5,0.6,0.601,1.6,0.3,2.2l-2.9,5.6c-0.3,0.7-1.3,1.3-2.101,1.3h-2.6
						c-0.8,0-1.4-0.7-1.3-1.399c0,0,0.3-3.2,1.1-5.2c0.4-1,2.4-1.4,3-2.3c0.7-1,0-2.7,0.9-3.5c0.1-0.101,0.1-0.101,0.1-0.101
						c0.101-0.1,0.7,0.2,1.2,0.8L15,50.3z"/>
					<path fill="#FFFFFF" d="M15.3,67.3c0.4,0.6,0.301,1.7-0.1,2.3l-1.7,2.3c-0.399,0.601-1.1,0.9-1.399,0.601c0,0,0,0-0.301-0.301
						c-0.899-0.899-0.3-2.399-1.199-3.6c-1-1.3-2.5-1.2-2.9-2.3c-0.7-1.601-1.1-3.601-1.1-3.601C6.5,62,7,61.599,7.8,61.599h2.5
						c0.801,0,1.801,0.3,2.101,1L15.3,67.3z"/>
					<path fill="#FFFFFF" d="M31.2,62.6c0.4-0.6,1.3-1,2.1-1h2.5c0.801,0,1.4,0.4,1.2,1.1c0,0-0.399,2.101-1.1,3.7
						c-0.4,1.101-1.9,0.9-2.9,2.3c-0.899,1.2-0.3,2.7-1.2,3.5c-0.3,0.301-0.3,0.2-0.3,0.2c-0.3,0.3-1,0-1.399-0.6l-1.7-2.3
						c-0.4-0.601-0.5-1.5-0.101-2.2L31.2,62.6z"/>
				</g>
				<path fill="#538A3E" d="M21.6,76.5c0.699,0,2.199,0.8,3.5,0.5c2.8-0.7,5.3-2.101,7.399-4c1-0.9,0-2.301,1.3-3.801
					c1.801-2.199,2.9-1.699,3.5-3.1c0.9-2.2,1.4-4.7,1.4-7.2s-0.5-4.899-1.4-7c-0.5-1.2-2.6-1.7-3.3-2.8c-0.8-1.2-0.3-2.9-1.3-3.9
					c-0.1-0.1-0.1-0.1-0.1-0.1c-0.101-0.1-0.301-0.4-0.4-0.4c-0.1-0.1-1.1-1.1-1.7-1.5C27.399,41,23.799,44,21.6,44
					c-2.9,0-6.101-2.9-9.2-0.801c-0.601,0.4-1.9,1.4-2,1.5c-0.101,0.101-0.3,0.301-0.5,0.4c0,0,0,0-0.101,0.1c-1,1-0.5,2.7-1.3,3.9
					c-0.7,1.1-2.8,1.6-3.3,2.8c-0.9,2.2-1.4,4.5-1.4,7c0,2.601,0.5,5,1.4,7.2c0.5,1.3,1.7,0.9,3.5,3.1c1.2,1.5,0.3,2.9,1.3,3.801
					c2.101,1.899,4.8,3.3,7.7,4C19,77.3,20.1,76.5,21.6,76.5z M21.6,67.6h-2.9c-0.8,0-1.8-0.6-2.1-1.2l-3.101-5.6
					c-0.399-0.601-0.399-1.7,0-2.4l3.101-5.6c0.399-0.601,1.3-1.3,2.1-1.3h2.9h2.3c0.8,0,1.8,0.6,2.1,1.3l3.101,5.5
					c0.399,0.6,0.399,1.7,0,2.399L26,66.3c-0.399,0.6-1.3,1.2-2.1,1.2L21.6,67.6 M21.6,49.4h-2.9c-0.8,0-1.9-0.2-2.4-0.8l-2.6-3
					c-0.5-0.6-0.7-1.1-0.6-1.2c0,0,0.1,0,0.3-0.1c2.399-1.601,3.7,1.2,8.1,1.2c3.601,0,5.4-2.7,7.8-1.101
					c0.2,0.101,0.101,0.101,0.101,0.101c0.2,0.1-0.101,0.699-0.601,1.3l-2.6,2.8c-0.5,0.6-1.6,0.8-2.4,0.8H21.6L21.6,49.4z
					 M21.6,75.2c-1.5,0-2.5,0.5-3.801,0.101c-1.399-0.4-2.699-1-2.699-1c-0.7-0.4-0.9-1.101-0.5-1.8l1.899-2.4c0.4-0.6,1.5-1,2.3-1
					h2.9h2.2c0.8,0,1.8,0.4,2.3,1l1.9,2.5c0.399,0.6,0.199,1.4-0.4,1.7c0,0-1.1,0.7-2.5,1S22.3,75.2,21.6,75.2z M30.4,47.1
					c0.5-0.6,1-0.9,1.2-0.8c0,0,0,0,0.1,0.1c0.9,0.9,0.2,2.5,0.9,3.5c0.6,0.9,2.6,1.2,3,2.3c0.8,2,1.1,5.301,1.1,5.301
					c0.1,0.699-0.5,1.399-1.3,1.399h-2.7c-0.8,0-1.7-0.6-2.1-1.3l-2.9-5.5c-0.3-0.7-0.2-1.7,0.3-2.3L30.4,47.1z M14.4,49.8
					c0.5,0.6,0.6,1.6,0.3,2.2l-2.9,5.6c-0.3,0.7-1.3,1.3-2.1,1.3H7.1c-0.801,0-1.4-0.7-1.301-1.399c0,0,0.301-3.2,1.101-5.2
					c0.399-1,2.399-1.4,3-2.3c0.7-1,0-2.7,0.899-3.5C10.9,46.4,10.9,46.4,10.9,46.4c0.1-0.1,0.7,0.2,1.2,0.8L14.4,49.8z M14.7,66.8
					c0.4,0.6,0.3,1.7-0.1,2.3l-1.7,2.3c-0.4,0.601-1.101,0.9-1.4,0.601c0,0,0,0-0.3-0.301c-0.9-0.899-0.3-2.399-1.2-3.6
					c-1-1.3-2.5-1.2-2.899-2.3C6.401,64.199,6,62.199,6,62.199c-0.1-0.699,0.4-1.1,1.2-1.1h2.5c0.8,0,1.8,0.3,2.1,1L14.7,66.8z
					 M30.6,62c0.399-0.601,1.3-1,2.1-1h2.5c0.8,0,1.4,0.399,1.2,1.1c0,0-0.4,2.1-1.101,3.7C34.9,66.9,33.4,66.699,32.4,68.1
					c-0.9,1.2-0.3,2.7-1.2,3.5c-0.3,0.3-0.3,0.2-0.3,0.2c-0.3,0.3-1,0-1.4-0.601l-1.7-2.3c-0.399-0.6-0.5-1.5-0.1-2.2L30.6,62z"/>
			</g>
			<g id="eyes">
				<path id="eye_6_" fill="#FFFFFF" d="M24.8,28.7c0,0-0.8,1.4,0.4,2.7s2.6,0.5,2.6,0.5S26.8,29.8,24.8,28.7z"/>
				<path id="eye_7_" fill="#FFFFFF" d="M18.1,28.7c0,0,0.8,1.4-0.4,2.7s-2.6,0.5-2.6,0.5S16.1,29.8,18.1,28.7z"/>
				<path fill="#426932" d="M17.5,30.9c0.5-0.5,0.3-1.3,0.101-1.899c-0.801,0.5-1.4,1.199-1.801,1.8C16.2,31.1,17,31.5,17.5,30.9z"
					/>
				<path fill="#426932" d="M25.3,30.9c-0.5-0.5-0.3-1.3,0-1.899c0.801,0.5,1.4,1.199,1.801,1.8C26.6,31.1,25.9,31.5,25.3,30.9z"/>
			</g>
		</g>
	</g>
</g>
</svg>
