<?xml version="1.0" encoding="utf-8"?>
<!-- Generator: Adobe Illustrator 19.0.1, SVG Export Plug-In . SVG Version: 6.00 Build 0)  -->
<svg version="1.1" id="Layer_1" xmlns="http://www.w3.org/2000/svg" xmlns:xlink="http://www.w3.org/1999/xlink" x="0px" y="0px"
	 width="43px" height="137px" viewBox="0 0 43 137" enable-background="new 0 0 43 137" xml:space="preserve">
<g id="Layer_1_1_">
	<path fill="#FAFAFA" stroke="#E4CBA9" stroke-miterlimit="10" d="M42.5,128.5c0,4.4-3.6,8-8,8h-26c-4.4,0-8-3.6-8-8V8.5
		c0-4.4,3.6-8,8-8h26c4.4,0,8,3.6,8,8V128.5z"/>
	<path fill="#ED2224" d="M23.4,115.3c0,1.1-0.9,2-2,2l0,0c-1.1,0-2-0.9-2-2v-103c0-1.1,0.9-2,2-2l0,0c1.1,0,2,0.9,2,2V115.3z"/>
	<g id="Layer_3_2_">
		<g>
			<path fill="#8BC24C" d="M25,28.1L25,28.1c2.6,1.3,4.3,4.1,4.3,7.4c0,1.5-0.2,1.7-1,3.5c0,0-0.5,1.1-1.2,1.4l0,0l0,0
				c0,0-1,1.1,0.6,2.1c1.2,0.8-3.9,2.5-6.1,2.7c-2.2-0.2-7.5-1.9-6.3-2.7c1.6-1,0.4-2.1,0.4-2.1l0,0c-0.7-0.3-1.3-2-1.3-2
				c-0.4-1.1-0.8-1.9-0.8-3.4c0-3.3,1.7-5.8,4.3-7.1l0,0c0-0.4,2.3-1.5,3.6-1.5C22.9,26.6,25,27.7,25,28.1L25,28.1z M12.3,48.2
				c0,0-2.3-4.2-5.1-3.4c-2.8,0.8-3.1,2.7-3.1,4.3c0,2.3,2.4,3.7,2.4,3.7C7.9,50.2,12.3,48.2,12.3,48.2z M36.3,52.8
				c0,0,2.4-1.4,2.4-3.7c0-1.6-0.3-3.6-3.1-4.3c-2.8-0.8-5.1,3.4-5.1,3.4S34.8,50.2,36.3,52.8z M6.5,65.4c0,0-3.5,2.7-3.1,4.6
				c0.5,2.6,3.1,2.4,4.7,2.4c3.3-0.1,2.2-1.7,2.2-1.7S8.2,67.9,6.5,65.4z M32.4,70.7c0,0-1,1.6,2.2,1.7c1.6,0,4.3,0.2,4.7-2.4
				c0.3-1.8-3.1-4.6-3.1-4.6C34.5,67.9,32.4,70.7,32.4,70.7z M17.7,76.7c0,0,2.6,4.8,8.1,5.6c0.5,0.1,0.9-0.6,0.7-1
				c-1.8-2.8-1.6-4.6-1.6-4.6l-3.3-1.2L17.7,76.7z"/>
			<path fill="#A3CF66" d="M16.2,39.9c-0.6-0.1-0.9-0.6-1.2-1.2c-1.2-2.9-1.3-4-1.1-4.3c1.5-1.8,2.6-0.3,4.4-2.8
				c1.3-1.8-0.2-2.7,0-2.8c0.3-0.2-0.1-0.7,0-0.8c1.2-0.8,3-1.1,3-1.1s1.8,0.2,3,1.1c0.1,0.1-0.3,0.6,0,0.8c0.2,0.2-1.3,1,0,2.8
				c1.8,2.5,2.9,0.9,4.4,2.8c0.2,0.4,0.2,1.4-1.1,4.3c-0.3,0.6-0.5,1-1.2,1.2c-1.7,0-3,1.1-5.2,1.1C19.2,41,17.9,39.9,16.2,39.9z
				 M21.4,44.6c2.2,0.1,6.3-0.8,5.2-1.7c-1.4-1.2,0-2.2-0.2-2.2c-1.7,0-2.1,1.2-5,1.2s-3.3-1.2-5-1.2c-0.2-0.1,1.1,1-0.2,2.2
				C15.1,43.8,19.2,44.7,21.4,44.6z M10.4,49.8c0.8-0.9,1.5-1.3,1.5-1.3s-2.8-4-4.7-3.1c-0.6,0.3-0.9,0.5-1.3,0.8L10.4,49.8z
				 M36.7,46.2c-0.3-0.3-0.6-0.5-1.2-0.8c-1.8-0.9-4.7,3.1-4.7,3.1s0.7,0.5,1.5,1.3L36.7,46.2z M7,66.9c-0.7-0.8,0,0.4-0.6-0.6
				c0,0-3.2,2.4-2.3,3.8c0.1,0.1,0.4,0.5,0.7,0.1L7,66.9z M37.9,70.2c0.4,0.4,0.6,0,0.7-0.1c0.9-1.4-2.3-3.8-2.3-3.8
				c-0.6,0.9,0.1-0.2-0.6,0.6L37.9,70.2z M20.6,79c1,1.2,3.9,2.7,4.4,2.5c0.3-0.1-2-1.1-3.2-2.4c-1.4-1.4-1.6-3.1-1.6-3.1l-1.3,0.3
				C18.9,76.4,19.7,78,20.6,79z"/>
			<g id="shell">
				<g>
					<path fill="#64A644" d="M21.6,67.6h-2.9c-0.8,0-1.8-0.6-2.1-1.2l-3.1-5.6c-0.4-0.6-0.4-1.7,0-2.4l3.1-5.6
						c0.4-0.6,1.3-1.3,2.1-1.3h2.9h2.3c0.8,0,1.8,0.6,2.1,1.3l3.1,5.5c0.4,0.6,0.4,1.7,0,2.4L26,66.3c-0.4,0.6-1.3,1.2-2.1,1.2
						L21.6,67.6"/>
					<path fill="#64A644" d="M21.6,49.4h-2.9c-0.8,0-1.9-0.2-2.4-0.8l-2.6-3c-0.5-0.6-0.7-1.1-0.6-1.2c0,0,0.1,0,0.3-0.1
						c2.4-1.6,3.7,1.2,8.1,1.2c3.6,0,5.4-2.7,7.8-1.1c0.2,0.1,0.1,0.1,0.1,0.1c0.2,0.1-0.1,0.7-0.6,1.3l-2.6,2.8
						c-0.5,0.6-1.6,0.8-2.4,0.8L21.6,49.4L21.6,49.4z"/>
					<path fill="#64A644" d="M21.6,75.2c-1.5,0-2.5,0.5-3.8,0.1c-1.4-0.4-2.7-1-2.7-1c-0.7-0.4-0.9-1.1-0.5-1.8l1.9-2.4
						c0.4-0.6,1.5-1,2.3-1h2.9h2.2c0.8,0,1.8,0.4,2.3,1l1.9,2.5c0.4,0.6,0.2,1.4-0.4,1.7c0,0-1.1,0.7-2.5,1
						C23.8,75.6,22.3,75.2,21.6,75.2z"/>
					<path fill="#64A644" d="M30.4,47.1c0.5-0.6,1-0.9,1.2-0.8c0,0,0,0,0.1,0.1c0.9,0.9,0.2,2.5,0.9,3.5c0.6,0.9,2.6,1.2,3,2.3
						c0.8,2,1.1,5.3,1.1,5.3c0.1,0.7-0.5,1.4-1.3,1.4h-2.7c-0.8,0-1.7-0.6-2.1-1.3l-2.9-5.5c-0.3-0.7-0.2-1.7,0.3-2.3L30.4,47.1z"/>
					<path fill="#64A644" d="M14.4,49.8c0.5,0.6,0.6,1.6,0.3,2.2l-2.9,5.6c-0.3,0.7-1.3,1.3-2.1,1.3H7.1c-0.8,0-1.4-0.7-1.3-1.4
						c0,0,0.3-3.2,1.1-5.2c0.4-1,2.4-1.4,3-2.3c0.7-1,0-2.7,0.9-3.5c0.1-0.1,0.1-0.1,0.1-0.1c0.1-0.1,0.7,0.2,1.2,0.8L14.4,49.8z"/>
					<path fill="#64A644" d="M14.7,66.8c0.4,0.6,0.3,1.7-0.1,2.3l-1.7,2.3c-0.4,0.6-1.1,0.9-1.4,0.6c0,0,0,0-0.3-0.3
						c-0.9-0.9-0.3-2.4-1.2-3.6c-1-1.3-2.5-1.2-2.9-2.3C6.4,64.2,6,62.2,6,62.2c-0.1-0.7,0.4-1.1,1.2-1.1h2.5c0.8,0,1.8,0.3,2.1,1
						L14.7,66.8z"/>
					<path fill="#64A644" d="M30.6,62c0.4-0.6,1.3-1,2.1-1h2.5c0.8,0,1.4,0.4,1.2,1.1c0,0-0.4,2.1-1.1,3.7c-0.4,1.1-1.9,0.9-2.9,2.3
						c-0.9,1.2-0.3,2.7-1.2,3.5c-0.3,0.3-0.3,0.2-0.3,0.2c-0.3,0.3-1,0-1.4-0.6l-1.7-2.3c-0.4-0.6-0.5-1.5-0.1-2.2L30.6,62z"/>
				</g>
				<g opacity="0.15">
					<path fill="#FFFFFF" d="M22.1,68.1h-2.9c-0.8,0-1.8-0.6-2.1-1.2L14,61.3c-0.4-0.6-0.4-1.7,0-2.4l3.1-5.6
						c0.4-0.6,1.3-1.3,2.1-1.3h2.9h2.3c0.8,0,1.8,0.6,2.1,1.3l3.1,5.5c0.4,0.6,0.4,1.7,0,2.4l-3.1,5.6c-0.4,0.6-1.3,1.2-2.1,1.2
						L22.1,68.1"/>
					<path fill="#FFFFFF" d="M22.1,49.9h-2.9c-0.8,0-1.9-0.2-2.4-0.8l-2.6-2.9c-0.5-0.6-0.7-1.1-0.6-1.2c0,0,0.1,0,0.3-0.1
						c2.4-1.6,3.7,1.2,8.1,1.2c3.6,0,5.4-2.7,7.8-1.1c0.2,0.1,0.1,0.1,0.1,0.1c0.2,0.1-0.1,0.7-0.6,1.3l-2.6,2.8
						c-0.5,0.6-1.6,0.8-2.4,0.8L22.1,49.9L22.1,49.9z"/>
					<path fill="#FFFFFF" d="M22.1,75.7c-1.5,0-2.5,0.5-3.8,0.1c-1.4-0.4-2.7-1-2.7-1c-0.7-0.4-0.9-1.1-0.5-1.8l1.9-2.4
						c0.4-0.6,1.5-1,2.3-1h2.9h2.2c0.8,0,1.8,0.4,2.3,1l1.9,2.5c0.4,0.6,0.2,1.4-0.4,1.7c0,0-1.1,0.7-2.5,1
						C24.3,76.2,22.9,75.7,22.1,75.7z"/>
					<path fill="#FFFFFF" d="M31,47.6c0.5-0.6,1-0.9,1.2-0.8c0,0,0,0,0.1,0.1c0.9,0.9,0.2,2.5,0.9,3.5c0.6,0.9,2.6,1.2,3,2.3
						c0.8,2,1.1,5.3,1.1,5.3c0.1,0.7-0.5,1.4-1.3,1.4h-2.6c-0.8,0-1.7-0.6-2.1-1.3l-2.9-5.5c-0.3-0.7-0.2-1.7,0.3-2.3L31,47.6z"/>
					<path fill="#FFFFFF" d="M15,50.3c0.5,0.6,0.6,1.6,0.3,2.2l-2.9,5.6c-0.3,0.7-1.3,1.3-2.1,1.3H7.7c-0.8,0-1.4-0.7-1.3-1.4
						c0,0,0.3-3.2,1.1-5.2c0.4-1,2.4-1.4,3-2.3c0.7-1,0-2.7,0.9-3.5c0.1-0.1,0.1-0.1,0.1-0.1c0.1-0.1,0.7,0.2,1.2,0.8L15,50.3z"/>
					<path fill="#FFFFFF" d="M15.3,67.3c0.4,0.6,0.3,1.7-0.1,2.3l-1.7,2.3c-0.4,0.6-1.1,0.9-1.4,0.6c0,0,0,0-0.3-0.3
						c-0.9-0.9-0.3-2.4-1.2-3.6c-1-1.3-2.5-1.2-2.9-2.3c-0.7-1.6-1.1-3.6-1.1-3.6C6.5,62,7,61.6,7.8,61.6h2.5c0.8,0,1.8,0.3,2.1,1
						L15.3,67.3z"/>
					<path fill="#FFFFFF" d="M31.2,62.6c0.4-0.6,1.3-1,2.1-1h2.5c0.8,0,1.4,0.4,1.2,1.1c0,0-0.4,2.1-1.1,3.7
						c-0.4,1.1-1.9,0.9-2.9,2.3c-0.9,1.2-0.3,2.7-1.2,3.5c-0.3,0.3-0.3,0.2-0.3,0.2c-0.3,0.3-1,0-1.4-0.6l-1.7-2.3
						c-0.4-0.6-0.5-1.5-0.1-2.2L31.2,62.6z"/>
				</g>
				<path fill="#538A3E" d="M21.6,76.5c0.7,0,2.2,0.8,3.5,0.5c2.8-0.7,5.3-2.1,7.4-4c1-0.9,0-2.3,1.3-3.8c1.8-2.2,2.9-1.7,3.5-3.1
					c0.9-2.2,1.4-4.7,1.4-7.2s-0.5-4.9-1.4-7c-0.5-1.2-2.6-1.7-3.3-2.8c-0.8-1.2-0.3-2.9-1.3-3.9c-0.1-0.1-0.1-0.1-0.1-0.1
					c-0.1-0.1-0.3-0.4-0.4-0.4c-0.1-0.1-1.1-1.1-1.7-1.5C27.4,41,23.8,44,21.6,44c-2.9,0-6.1-2.9-9.2-0.8c-0.6,0.4-1.9,1.4-2,1.5
					s-0.3,0.3-0.5,0.4c0,0,0,0-0.1,0.1c-1,1-0.5,2.7-1.3,3.9c-0.7,1.1-2.8,1.6-3.3,2.8c-0.9,2.2-1.4,4.5-1.4,7c0,2.6,0.5,5,1.4,7.2
					c0.5,1.3,1.7,0.9,3.5,3.1C9.9,70.7,9,72.1,10,73c2.1,1.9,4.8,3.3,7.7,4C19,77.3,20.1,76.5,21.6,76.5z M21.6,67.6h-2.9
					c-0.8,0-1.8-0.6-2.1-1.2l-3.1-5.6c-0.4-0.6-0.4-1.7,0-2.4l3.1-5.6c0.4-0.6,1.3-1.3,2.1-1.3h2.9h2.3c0.8,0,1.8,0.6,2.1,1.3
					l3.1,5.5c0.4,0.6,0.4,1.7,0,2.4L26,66.3c-0.4,0.6-1.3,1.2-2.1,1.2L21.6,67.6 M21.6,49.4h-2.9c-0.8,0-1.9-0.2-2.4-0.8l-2.6-3
					c-0.5-0.6-0.7-1.1-0.6-1.2c0,0,0.1,0,0.3-0.1c2.4-1.6,3.7,1.2,8.1,1.2c3.6,0,5.4-2.7,7.8-1.1c0.2,0.1,0.1,0.1,0.1,0.1
					c0.2,0.1-0.1,0.7-0.6,1.3l-2.6,2.8c-0.5,0.6-1.6,0.8-2.4,0.8L21.6,49.4L21.6,49.4z M21.6,75.2c-1.5,0-2.5,0.5-3.8,0.1
					c-1.4-0.4-2.7-1-2.7-1c-0.7-0.4-0.9-1.1-0.5-1.8l1.9-2.4c0.4-0.6,1.5-1,2.3-1h2.9h2.2c0.8,0,1.8,0.4,2.3,1l1.9,2.5
					c0.4,0.6,0.2,1.4-0.4,1.7c0,0-1.1,0.7-2.5,1C23.8,75.6,22.3,75.2,21.6,75.2z M30.4,47.1c0.5-0.6,1-0.9,1.2-0.8c0,0,0,0,0.1,0.1
					c0.9,0.9,0.2,2.5,0.9,3.5c0.6,0.9,2.6,1.2,3,2.3c0.8,2,1.1,5.3,1.1,5.3c0.1,0.7-0.5,1.4-1.3,1.4h-2.7c-0.8,0-1.7-0.6-2.1-1.3
					l-2.9-5.5c-0.3-0.7-0.2-1.7,0.3-2.3L30.4,47.1z M14.4,49.8c0.5,0.6,0.6,1.6,0.3,2.2l-2.9,5.6c-0.3,0.7-1.3,1.3-2.1,1.3H7.1
					c-0.8,0-1.4-0.7-1.3-1.4c0,0,0.3-3.2,1.1-5.2c0.4-1,2.4-1.4,3-2.3c0.7-1,0-2.7,0.9-3.5c0.1-0.1,0.1-0.1,0.1-0.1
					c0.1-0.1,0.7,0.2,1.2,0.8L14.4,49.8z M14.7,66.8c0.4,0.6,0.3,1.7-0.1,2.3l-1.7,2.3c-0.4,0.6-1.1,0.9-1.4,0.6c0,0,0,0-0.3-0.3
					c-0.9-0.9-0.3-2.4-1.2-3.6c-1-1.3-2.5-1.2-2.9-2.3C6.4,64.2,6,62.2,6,62.2c-0.1-0.7,0.4-1.1,1.2-1.1h2.5c0.8,0,1.8,0.3,2.1,1
					L14.7,66.8z M30.6,62c0.4-0.6,1.3-1,2.1-1h2.5c0.8,0,1.4,0.4,1.2,1.1c0,0-0.4,2.1-1.1,3.7c-0.4,1.1-1.9,0.9-2.9,2.3
					c-0.9,1.2-0.3,2.7-1.2,3.5c-0.3,0.3-0.3,0.2-0.3,0.2c-0.3,0.3-1,0-1.4-0.6l-1.7-2.3c-0.4-0.6-0.5-1.5-0.1-2.2L30.6,62z"/>
			</g>
			<g id="eyes">
				<path id="eye_6_" fill="#FFFFFF" d="M24.8,28.7c0,0-0.8,1.4,0.4,2.7c1.2,1.3,2.6,0.5,2.6,0.5S26.8,29.8,24.8,28.7z"/>
				<path id="eye_7_" fill="#FFFFFF" d="M18.1,28.7c0,0,0.8,1.4-0.4,2.7c-1.2,1.3-2.6,0.5-2.6,0.5S16.1,29.8,18.1,28.7z"/>
				<path fill="#426932" d="M17.5,30.9c0.5-0.5,0.3-1.3,0.1-1.9c-0.8,0.5-1.4,1.2-1.8,1.8C16.2,31.1,17,31.5,17.5,30.9z"/>
				<path fill="#426932" d="M25.3,30.9c-0.5-0.5-0.3-1.3,0-1.9c0.8,0.5,1.4,1.2,1.8,1.8C26.6,31.1,25.9,31.5,25.3,30.9z"/>
			</g>
		</g>
	</g>
</g>
</svg>
