<?xml version="1.0" encoding="utf-8"?>
<!-- Generator: Adobe Illustrator 15.0.0, SVG Export Plug-In . SVG Version: 6.00 Build 0)  -->
<!DOCTYPE svg PUBLIC "-//W3C//DTD SVG 1.1//EN" "http://www.w3.org/Graphics/SVG/1.1/DTD/svg11.dtd">
<svg version="1.1" id="Layer_1" xmlns="http://www.w3.org/2000/svg" xmlns:xlink="http://www.w3.org/1999/xlink" x="0px" y="0px"
	 width="151.334px" height="155.166px" viewBox="-2.43 0 151.334 155.166" enable-background="new -2.43 0 151.334 155.166"
	 xml:space="preserve">
<g>
	<ellipse fill="#FFFFFF" fill-opacity="0" stroke="#69D2E7" stroke-width="4" cx="76.596" cy="83.569" rx="49" ry="49.2"/>
	<line fill="none" stroke="#69D2E7" stroke-width="4" x1="76.596" y1="34.369" x2="76.596" y2="26.569"/>
	<line fill="none" stroke="#69D2E7" stroke-width="4" x1="125.696" y1="83.569" x2="132.796" y2="83.569"/>
	<line fill="none" stroke="#69D2E7" stroke-width="4" x1="76.596" y1="132.769" x2="76.596" y2="140.569"/>
	<line fill="none" stroke="#69D2E7" stroke-width="4" x1="27.596" y1="83.569" x2="21.196" y2="83.569"/>
	<rect x="73.896" y="4.169" fill="none" width="5.5" height="7.5"/>
	<text transform="matrix(1 0 0 1 73.8757 10.5439)" fill="#69D2E7" font-family="'MyriadPro-Regular'" font-size="12">0</text>
	
		<text transform="matrix(1 0 0 1 73.8757 10.5439)" fill="none" stroke="#69D2E7" font-family="'MyriadPro-Regular'" font-size="12">0</text>
	<rect x="69.296" y="17.169" fill="none" width="14.801" height="7.3"/>
	<text transform="matrix(1 0 0 1 67.3376 24.4316)" fill="#69D2E7" font-family="'MyriadPro-Regular'" font-size="12">360</text>
	
		<text transform="matrix(1 0 0 1 67.3376 24.4316)" fill="none" stroke="#69D2E7" font-family="'MyriadPro-Regular'" font-size="12">360</text>
	<rect x="135.996" y="79.669" fill="none" width="9.8" height="7.8"/>
	<text transform="matrix(1 0 0 1 136.0232 87.2148)" fill="#69D2E7" font-family="'MyriadPro-Regular'" font-size="12">90</text>
	
		<text transform="matrix(1 0 0 1 136.0232 87.2148)" fill="none" stroke="#69D2E7" font-family="'MyriadPro-Regular'" font-size="12">90</text>
	<rect x="69.296" y="142.269" fill="none" width="14.601" height="7.5"/>
	<text transform="matrix(1 0 0 1 67.3376 151.666)" fill="#69D2E7" font-family="'MyriadPro-Regular'" font-size="12">180</text>
	
		<text transform="matrix(1 0 0 1 67.3376 151.666)" fill="none" stroke="#69D2E7" font-family="'MyriadPro-Regular'" font-size="12">180</text>
	<rect x="3.496" y="79.869" fill="none" width="14.9" height="7.3"/>
	<text transform="matrix(1 0 0 1 0.4998 87.2148)" fill="#69D2E7" font-family="'MyriadPro-Regular'" font-size="12">270</text>
	<text transform="matrix(1 0 0 1 0.4998 87.2148)" fill="none" stroke="#69D2E7" font-family="'MyriadPro-Regular'" font-size="12">270</text>
</g>
</svg>
