<?xml version="1.0" encoding="utf-8"?>
<!-- Generator: Adobe Illustrator 19.0.1, SVG Export Plug-In . SVG Version: 6.00 Build 0)  -->
<svg version="1.1" id="Layer_1" xmlns="http://www.w3.org/2000/svg" xmlns:xlink="http://www.w3.org/1999/xlink" x="0px" y="0px"
	 width="269px" height="69px" viewBox="0 0 269 69" enable-background="new 0 0 269 69" xml:space="preserve">
<g>
	<path fill="#FAFAFA" stroke="#E4CBA9" stroke-miterlimit="10" d="M260.5,0.5c4.4,0,8,3.6,8,8v52c0,4.4-3.6,8-8,8H8.5
		c-4.4,0-8-3.6-8-8v-52c0-4.4,3.6-8,8-8L260.5,0.5L260.5,0.5z"/>
	<path fill="none" stroke="#ED2224" stroke-width="4" stroke-miterlimit="10" d="M6.9,54.6h-1c0-0.1,0.8-13.1,11.9-13.3
		c0.1,0,0.1,0,0.2,0c11.2-0.1,11.9,11.8,11.9,11.9h-1c0-0.5-0.6-11.1-10.9-11c-0.1,0-0.1,0-0.2,0C7.6,42.4,6.9,54.1,6.9,54.6z
		 M40.8,40.2c0.1,0,0.1,0,0.2,0c10.3-0.1,10.9,10.5,10.9,11h1c0-0.1-0.6-12-11.9-11.9c-0.1,0-0.1,0-0.2,0
		c-11.1,0.2-11.9,13.2-11.9,13.3h1C29.9,52,30.6,40.4,40.8,40.2z M63.7,39c0.1,0,0.1,0,0.2,0c10.3-0.1,10.9,10.5,10.9,11h1
		c0-0.1-0.6-12-11.9-11.9c-0.1,0-0.1,0-0.2,0c-11.1,0.2-11.9,13.2-11.9,13.3h1C52.9,50.9,53.6,39.2,63.7,39z M145.8,45.4h-1
		c0-0.1,0.8-13.1,11.9-13.3c0.1,0,0.1,0,0.2,0c11.2-0.1,11.9,11.8,11.9,11.9h-1c0-0.5-0.6-11.1-10.9-11c-0.1,0-0.1,0-0.2,0
		C146.5,33.3,145.8,44.9,145.8,45.4z M179.6,31c0.1,0,0.1,0,0.2,0c10.3-0.1,10.9,10.5,10.9,11h1c0-0.1-0.6-12-11.9-11.9
		c-0.1,0-0.1,0-0.2,0c-11.1,0.2-11.9,13.2-11.9,13.3h1C168.8,42.9,169.5,31.2,179.6,31z M202.6,29.9c0.1,0,0.1,0,0.2,0
		c10.3-0.1,10.9,10.5,10.9,11h1c0-0.1-0.6-12-11.9-11.9c-0.1,0-0.1,0-0.2,0c-11.1,0.2-11.9,13.2-11.9,13.3h1
		C191.7,41.7,192.4,30.1,202.6,29.9z M76.3,50h-1c0-0.1,0.8-13.1,11.9-13.3c0.1,0,0.1,0,0.2,0c11.2-0.1,11.9,11.8,11.9,11.9h-1
		c0-0.5-0.6-11.1-10.9-11c-0.1,0-0.1,0-0.2,0C77.1,37.9,76.4,49.5,76.3,50z M110.2,35.6c0.1,0,0.1,0,0.2,0
		c10.3-0.1,10.9,10.5,10.9,11h1c0-0.1-0.6-12-11.9-11.9c-0.1,0-0.1,0-0.2,0C99.1,34.9,98.3,47.9,98.3,48h1
		C99.3,47.4,100,35.8,110.2,35.6z M133.2,34.4c0.1,0,0.1,0,0.2,0c10.3-0.1,10.9,10.5,10.9,11h1c0-0.1-0.6-12-11.9-11.9
		c-0.1,0-0.1,0-0.2,0c-11.1,0.2-11.9,13.1-11.9,13.2h1C122.3,46.3,123,34.7,133.2,34.4z"/>
	<g id="Layer_3_2_">
		<g>
			<path fill="#8BC24C" d="M241.3,10.4L241.3,10.4c1.3,2.6,1.2,5.8-0.7,8.6c-0.9,1.3-1.1,1.3-2.9,2.3c0,0-1.1,0.6-1.8,0.5l0,0l0,0
				c0,0-1.4,0.3-0.7,2.1c0.6,1.4-4.6-0.2-6.5-1.2c-1.7-1.4-5.1-5.9-3.6-5.8c1.9,0.1,1.6-1.5,1.6-1.5l0,0c-0.4-0.7,0.1-2.3,0.1-2.3
				c0.3-1.1,0.4-2,1.3-3.3c1.9-2.7,4.7-3.8,7.5-3.4l0,0c0.2-0.3,2.7,0.1,3.8,0.9C240.4,7.9,241.5,10.1,241.3,10.4L241.3,10.4z
				 M219.4,19.7c0,0,0.5-4.7-2.2-5.7c-2.8-1-4.1,0.4-5.1,1.8c-1.3,1.9-0.1,4.4-0.1,4.4C214.6,18.8,219.4,19.7,219.4,19.7z
				 M236.4,37.1c0,0,2.7,0.3,4.1-1.6c0.9-1.3,1.8-3.1-0.1-5.4c-1.9-2.2-6.1-0.1-6.1-0.1S236.7,34.1,236.4,37.1z M204.8,30.5
				c0,0-4.4,0.3-5.2,2c-1.1,2.4,1.2,3.8,2.5,4.7c2.7,1.8,2.8-0.1,2.8-0.1S204.8,33.5,204.8,30.5z M223,49.6c0,0-1.8,0.8,0.9,2.7
				c1.3,0.9,3.4,2.6,5.3,0.7c1.3-1.3,0-5.6,0-5.6C226.4,48.5,223,49.6,223,49.6z M207.5,46.1c0,0-0.6,5.4,3.5,9.2
				c0.3,0.3,1.1,0,1.1-0.4c0.1-3.4,1.3-4.7,1.3-4.7l-2-2.9L207.5,46.1z"/>
			<path fill="#A3CF66" d="M227.3,15.1c-0.4-0.5-0.4-1-0.3-1.6c0.7-3.1,1.2-4,1.6-4.2c2.3-0.7,2.3,1.2,5.2,0.2
				c2.1-0.7,1.3-2.3,1.6-2.3c0.4,0,0.3-0.7,0.5-0.7c1.4,0,3.1,0.8,3.1,0.8s1.4,1.2,1.9,2.6c0.1,0.1-0.6,0.3-0.4,0.7
				c0.1,0.3-1.6,0.1-1.6,2.3c0.1,3,1.8,2.4,2,4.8c0,0.4-0.7,1.3-3.3,3c-0.6,0.3-1,0.5-1.6,0.3c-1.4-1-3.1-0.8-4.9-2.1
				C229.2,17.7,228.7,16,227.3,15.1z M228.9,21.9c1.7,1.3,5.6,3,5.3,1.6c-0.5-1.7,1.3-1.8,1.1-1.9c-1.4-1-2.4-0.2-4.8-1.9
				c-2.4-1.7-2-2.8-3.4-3.8c-0.2-0.2,0.4,1.5-1.4,1.7C224.2,17.6,227.1,20.7,228.9,21.9z M216.9,19.8c1.1-0.3,2-0.2,2-0.2
				s0-4.9-2.1-5.2c-0.6-0.1-1-0.1-1.5-0.1L216.9,19.8z M240.6,31.9c-0.1-0.4-0.2-0.8-0.5-1.4c-1-1.8-5.6-0.1-5.6-0.1
				s0.3,0.8,0.5,1.9L240.6,31.9z M204.3,31.9c-0.2-1.1-0.2,0.3-0.2-0.8c0,0-4,0.2-4,1.8c0,0.1,0,0.6,0.5,0.5L204.3,31.9z
				 M227.8,52.3c0,0.6,0.5,0.4,0.6,0.3c1.6-0.6,0.3-4.4,0.3-4.4c-1.1,0.4,0.2-0.1-0.8,0.1L227.8,52.3z M208.6,49.7
				c0.2,1.6,1.7,4.5,2.2,4.6c0.3,0.1-1-2.1-1.2-3.8c-0.3-1.9,0.5-3.4,0.5-3.4l-1.2-0.5C208.7,46.5,208.4,48.4,208.6,49.7z"/>
			<g id="shell">
				<g>
					<path fill="#64A644" d="M215.9,40.9l-2.4-1.7c-0.7-0.5-1.1-1.5-1-2.2l0.7-6.3c0.1-0.7,0.7-1.6,1.4-1.9l5.7-2.9
						c0.7-0.3,1.8-0.3,2.5,0.1l2.4,1.7l1.9,1.3c0.7,0.5,1.1,1.5,1,2.3l-0.7,6.3c-0.1,0.7-0.7,1.6-1.4,2l-5.7,2.9
						c-0.7,0.3-1.8,0.3-2.4-0.2L215.9,40.9"/>
					<path fill="#64A644" d="M226.3,25.9l-2.4-1.7c-0.7-0.5-1.4-1.3-1.5-2l-0.5-3.9c-0.1-0.7,0-1.3,0.2-1.3c0,0,0.1,0.1,0.3,0.1
						c2.9,0.1,2.4,3.1,6,5.6c3,2.1,5.9,0.8,7,3.5c0.1,0.2,0,0.1,0,0.1c0.1,0.2-0.5,0.5-1.2,0.7l-3.7,0.8c-0.7,0.2-1.8-0.2-2.4-0.7
						L226.3,25.9L226.3,25.9z"/>
					<path fill="#64A644" d="M211.6,47.1c-1.2-0.8-2.3-1-3.2-2c-0.9-1.1-1.7-2.4-1.7-2.4c-0.4-0.7-0.1-1.5,0.6-1.7l2.9-0.9
						c0.7-0.2,1.8,0,2.4,0.5l2.4,1.6l1.8,1.3c0.7,0.5,1.3,1.4,1.3,2.1l0.1,3.1c0,0.7-0.6,1.3-1.4,1.2c0,0-1.3-0.1-2.6-0.6
						C213.1,48.7,212.2,47.5,211.6,47.1z"/>
					<path fill="#64A644" d="M234.9,29c0.7-0.2,1.4-0.2,1.4,0c0,0,0,0,0,0.2c0.2,1.2-1.2,2.2-1.3,3.4c0,1.1,1.4,2.5,1.2,3.6
						c-0.5,2.1-2.1,5-2.1,5c-0.3,0.6-1.2,0.8-1.9,0.4l-2.2-1.5c-0.7-0.5-1.1-1.5-1-2.2l0.8-6.2c0.1-0.7,0.8-1.5,1.5-1.7L234.9,29z"
						/>
					<path fill="#64A644" d="M220.2,22.2c0.1,0.7-0.4,1.6-1.1,2l-5.5,2.9c-0.7,0.3-1.8,0.3-2.4-0.1l-2.2-1.5
						c-0.7-0.5-0.8-1.4-0.3-1.9c0,0,2.1-2.5,3.9-3.6c0.9-0.6,2.7,0.2,3.8-0.2c1.2-0.5,1.5-2.2,2.7-2.4c0.2,0,0.2,0,0.2,0
						c0.2,0,0.4,0.6,0.5,1.3L220.2,22.2z"/>
					<path fill="#64A644" d="M210.7,36.3c-0.1,0.7-0.7,1.5-1.4,1.8l-2.7,0.9c-0.7,0.2-1.4,0.1-1.5-0.3c0,0,0,0-0.1-0.4
						c-0.3-1.2,1.1-2.1,1-3.6c-0.1-1.7-1.3-2.4-1.1-3.6c0.4-1.7,1.2-3.6,1.2-3.6c0.3-0.7,1-0.7,1.6-0.2l2.1,1.4
						c0.7,0.5,1.3,1.3,1.2,2L210.7,36.3z"/>
					<path fill="#64A644" d="M226.5,41.4c0.7-0.3,1.6,0,2.3,0.4l2.1,1.4c0.7,0.5,0.9,1.1,0.4,1.6c0,0-1.5,1.5-3,2.5
						c-1,0.6-2.1-0.3-3.7,0.2c-1.4,0.4-1.8,2-3,2.2c-0.4,0.1-0.4,0-0.4,0c-0.4,0-0.8-0.6-0.8-1.3l-0.1-2.8c0-0.7,0.4-1.5,1.1-1.9
						L226.5,41.4z"/>
				</g>
				<g opacity="0.15">
					<path fill="#FFFFFF" d="M216.1,41.6l-2.4-1.7c-0.7-0.5-1.1-1.5-1-2.2l0.7-6.3c0.1-0.7,0.7-1.6,1.3-1.9l5.7-2.9
						c0.7-0.3,1.8-0.3,2.5,0.1l2.4,1.7l1.9,1.3c0.7,0.5,1.1,1.5,1,2.3l-0.7,6.3c-0.1,0.7-0.7,1.6-1.4,2l-5.7,2.9
						c-0.7,0.3-1.8,0.3-2.4-0.2L216.1,41.6"/>
					<path fill="#FFFFFF" d="M226.5,26.7l-2.4-1.7c-0.7-0.5-1.4-1.3-1.5-2l-0.5-3.9c-0.1-0.7,0-1.3,0.2-1.3c0,0,0.1,0.1,0.3,0.1
						c2.9,0.1,2.4,3.1,6,5.6c3,2.1,5.9,0.8,7,3.5c0.1,0.2,0,0.1,0,0.1c0.1,0.2-0.5,0.5-1.2,0.7l-3.7,0.8c-0.7,0.2-1.8-0.2-2.4-0.7
						L226.5,26.7L226.5,26.7z"/>
					<path fill="#FFFFFF" d="M211.8,47.9c-1.2-0.8-2.3-1-3.2-2c-0.9-1.1-1.7-2.4-1.7-2.4c-0.4-0.7-0.1-1.5,0.6-1.7l2.9-0.9
						c0.7-0.2,1.8,0,2.4,0.5l2.4,1.6l1.8,1.3c0.7,0.5,1.3,1.4,1.3,2.1l0.1,3.1c0,0.7-0.6,1.3-1.4,1.2c0,0-1.3-0.1-2.6-0.6
						C213.3,49.5,212.4,48.3,211.8,47.9z"/>
					<path fill="#FFFFFF" d="M235,29.8c0.7-0.2,1.4-0.2,1.4,0c0,0,0,0,0,0.2c0.2,1.2-1.2,2.2-1.3,3.4c0,1.1,1.4,2.5,1.2,3.6
						c-0.5,2.1-2.1,5-2.1,5c-0.3,0.6-1.2,0.8-1.9,0.4l-2.2-1.5c-0.7-0.5-1.1-1.5-1-2.2l0.8-6.2c0.1-0.7,0.8-1.5,1.5-1.7L235,29.8z"
						/>
					<path fill="#FFFFFF" d="M220.4,23c0.1,0.7-0.4,1.6-1.1,2l-5.5,2.9c-0.7,0.3-1.8,0.3-2.4-0.1l-2.2-1.5c-0.7-0.5-0.8-1.4-0.3-1.9
						c0,0,2.1-2.5,3.9-3.6c0.9-0.6,2.7,0.2,3.8-0.2c1.2-0.5,1.5-2.2,2.7-2.4c0.2,0,0.2,0,0.2,0c0.2,0,0.4,0.6,0.5,1.3L220.4,23z"/>
					<path fill="#FFFFFF" d="M210.9,37c-0.1,0.7-0.7,1.5-1.4,1.8l-2.7,0.9c-0.7,0.2-1.4,0.1-1.5-0.3c0,0,0,0-0.1-0.4
						c-0.3-1.2,1.1-2.1,1-3.6c-0.1-1.7-1.3-2.4-1.1-3.6c0.4-1.7,1.2-3.6,1.2-3.6c0.3-0.7,1-0.7,1.6-0.2l2.1,1.4
						c0.7,0.5,1.3,1.3,1.2,2L210.9,37z"/>
					<path fill="#FFFFFF" d="M226.7,42.2c0.7-0.3,1.6,0,2.3,0.4l2.1,1.4c0.7,0.5,0.9,1.1,0.4,1.6c0,0-1.5,1.5-3,2.5
						c-1,0.6-2.1-0.3-3.7,0.2c-1.4,0.4-1.8,2-3,2.2c-0.4,0.1-0.4,0-0.4,0c-0.4,0-0.8-0.6-0.8-1.3l-0.1-2.8c0-0.7,0.4-1.5,1.1-1.9
						L226.7,42.2z"/>
				</g>
				<path fill="#538A3E" d="M210.8,48.2c0.6,0.4,1.4,1.9,2.6,2.4c2.7,1,5.6,1.3,8.4,0.9c1.4-0.2,1.3-1.8,3.2-2.4
					c2.7-0.8,3.4,0.2,4.6-0.6c2-1.3,3.8-3,5.3-5.2c1.4-2.1,2.4-4.3,2.9-6.5c0.3-1.3-1.1-2.9-1.1-4.2c0-1.4,1.5-2.6,1.2-4
					c0-0.2,0-0.2,0-0.2c0-0.2-0.1-0.5-0.1-0.6c-0.1-0.1-0.3-1.5-0.6-2.2c-1.3-3.5-6-3.2-7.8-4.4c-2.4-1.7-3.3-5.9-7.1-5.9
					c-0.7,0-2.3,0.1-2.5,0.1c-0.1,0-0.4,0.1-0.6,0.1c0,0,0,0-0.2,0c-1.4,0.2-2,2-3.3,2.5c-1.2,0.5-3.2-0.3-4.3,0.4
					c-1.9,1.3-3.7,2.9-5.1,5c-1.5,2.1-2.5,4.4-3,6.7c-0.3,1.4,0.9,1.7,1.1,4.5c0.2,2-1.4,2.5-1.1,3.9c0.7,2.8,2.1,5.5,4,7.7
					C208.3,47.4,209.6,47.3,210.8,48.2z M215.9,40.9l-2.4-1.7c-0.7-0.5-1.1-1.5-1-2.2l0.7-6.3c0.1-0.7,0.7-1.6,1.4-1.9l5.7-2.9
					c0.7-0.3,1.8-0.3,2.5,0.1l2.4,1.7l1.9,1.3c0.7,0.5,1.1,1.5,1,2.3l-0.7,6.3c-0.1,0.7-0.7,1.6-1.4,2l-5.7,2.9
					c-0.7,0.3-1.8,0.3-2.4-0.2L215.9,40.9 M226.3,25.9l-2.4-1.7c-0.7-0.5-1.4-1.3-1.5-2l-0.5-3.9c-0.1-0.7,0-1.3,0.2-1.3
					c0,0,0.1,0.1,0.3,0.1c2.9,0.1,2.4,3.1,6,5.6c3,2.1,5.9,0.8,7,3.5c0.1,0.2,0,0.1,0,0.1c0.1,0.2-0.5,0.5-1.2,0.7l-3.7,0.8
					c-0.7,0.2-1.8-0.2-2.4-0.7L226.3,25.9L226.3,25.9z M211.6,47.1c-1.2-0.8-2.3-1-3.2-2c-0.9-1.1-1.7-2.4-1.7-2.4
					c-0.4-0.7-0.1-1.5,0.6-1.7l2.9-0.9c0.7-0.2,1.8,0,2.4,0.5l2.4,1.6l1.8,1.3c0.7,0.5,1.3,1.4,1.3,2.1l0.1,3.1
					c0,0.7-0.6,1.3-1.4,1.2c0,0-1.3-0.1-2.6-0.6C213.1,48.7,212.2,47.5,211.6,47.1z M234.9,29c0.7-0.2,1.4-0.2,1.4,0c0,0,0,0,0,0.2
					c0.2,1.2-1.2,2.2-1.3,3.4c0,1.1,1.4,2.5,1.2,3.6c-0.5,2.1-2.1,5-2.1,5c-0.3,0.6-1.2,0.8-1.9,0.4l-2.2-1.5
					c-0.7-0.5-1.1-1.5-1-2.2l0.8-6.2c0.1-0.7,0.8-1.5,1.5-1.7L234.9,29z M220.2,22.2c0.1,0.7-0.4,1.6-1.1,2l-5.5,2.9
					c-0.7,0.3-1.8,0.3-2.4-0.1l-2.2-1.5c-0.7-0.5-0.8-1.4-0.3-1.9c0,0,2.1-2.5,3.9-3.6c0.9-0.6,2.7,0.2,3.8-0.2
					c1.2-0.5,1.5-2.2,2.7-2.4c0.2,0,0.2,0,0.2,0c0.2,0,0.4,0.6,0.5,1.3L220.2,22.2z M210.7,36.3c-0.1,0.7-0.7,1.5-1.4,1.8l-2.7,0.9
					c-0.7,0.2-1.4,0.1-1.5-0.3c0,0,0,0-0.1-0.4c-0.3-1.2,1.1-2.1,1-3.6c-0.1-1.7-1.3-2.4-1.1-3.6c0.4-1.7,1.2-3.6,1.2-3.6
					c0.3-0.7,1-0.7,1.6-0.2l2.1,1.4c0.7,0.5,1.3,1.3,1.2,2L210.7,36.3z M226.5,41.4c0.7-0.3,1.6,0,2.3,0.4l2.1,1.4
					c0.7,0.5,0.9,1.1,0.4,1.6c0,0-1.5,1.5-3,2.5c-1,0.6-2.1-0.3-3.7,0.2c-1.4,0.4-1.8,2-3,2.2c-0.4,0.1-0.4,0-0.4,0
					c-0.4,0-0.8-0.6-0.8-1.3l-0.1-2.8c0-0.7,0.4-1.5,1.1-1.9L226.5,41.4z"/>
			</g>
			<g id="eyes">
				<path id="eye_6_" fill="#FFFFFF" d="M240.7,10.8c0,0-1.4,0.7-1.2,2.5s1.8,1.9,1.8,1.9S241.7,12.8,240.7,10.8z"/>
				<path id="eye_7_" fill="#FFFFFF" d="M235.2,7c0,0-0.2,1.6-1.9,2s-2.4-1-2.4-1S233,6.7,235.2,7z"/>
				<path fill="#426932" d="M233.5,8.4c0.7-0.2,1-0.9,1.1-1.5c-1,0-1.8,0.2-2.5,0.4C232.3,7.9,232.8,8.6,233.5,8.4z"/>
				<path fill="#426932" d="M239.9,12.9c-0.1-0.7,0.5-1.3,1-1.6c0.3,0.9,0.4,1.8,0.5,2.5C240.9,13.8,240,13.7,239.9,12.9z"/>
			</g>
		</g>
	</g>
</g>
</svg>
