<?xml version="1.0" encoding="utf-8"?>
<!-- Generator: Adobe Illustrator 19.0.1, SVG Export Plug-In . SVG Version: 6.00 Build 0)  -->
<svg version="1.1" id="Layer_1" xmlns="http://www.w3.org/2000/svg" xmlns:xlink="http://www.w3.org/1999/xlink" x="0px" y="0px"
	 width="99px" height="119px" viewBox="0 0 99 119" enable-background="new 0 0 99 119" xml:space="preserve">
<g>
	<path fill="#FAFAFA" stroke="#E4CBA9" stroke-miterlimit="10" d="M0.5,8.5c0-4.4,3.6-8,8-8h82c4.4,0,8,3.6,8,8v102c0,4.4-3.6,8-8,8
		h-82c-4.4,0-8-3.6-8-8V8.5L0.5,8.5z"/>
	<path fill="#EC2727" d="M77.5,104.9c0,1.1,0.9,2,2,2l0,0c1.1,0,2-0.9,2-2v-46c0-1.1-0.9-2-2-2l0,0c-1.1,0-2,0.9-2,2V104.9z"/>
	<path fill="#EC2727" d="M78.5,60.2c1,0.6,2.2,0.2,2.7-0.7l0,0c0.6-1,0.2-2.2-0.7-2.7l-39.8-23c-1-0.6-2.2-0.2-2.7,0.7l0,0
		c-0.6,1-0.2,2.2,0.7,2.7L78.5,60.2z"/>
	<g id="Layer_3_2_">
		<g>
			<path fill="#8BC24C" d="M13.4,16.9L13.4,16.9c2.4-1.5,5.7-1.7,8.6,0c1.3,0.8,1.4,1,2.5,2.6c0,0,0.7,1,0.6,1.8l0,0l0,0
				c0,0,0.5,1.4,2.1,0.5c1.3-0.7,0.2,4.6-0.7,6.6c-1.3,1.8-5.4,5.5-5.5,4.1c-0.1-1.9-1.6-1.4-1.6-1.4l0,0c-0.6,0.5-2.3,0.1-2.3,0.1
				c-1.1-0.2-2-0.3-3.4-1c-2.9-1.7-4.2-4.4-4-7.2l0,0c-0.4-0.2-0.1-2.7,0.5-3.9C11,18,13.1,16.7,13.4,16.9L13.4,16.9z M24.5,37.9
				c0,0-4.8-0.1-5.5,2.7c-0.8,2.8,0.8,4.1,2.2,4.9c2,1.1,4.4-0.3,4.4-0.3C24,42.7,24.5,37.9,24.5,37.9z M40.4,19.5c0,0,0-2.8-2-3.9
				c-1.4-0.8-3.2-1.5-5.3,0.6c-2,2,0.4,6.1,0.4,6.1S37.4,19.4,40.4,19.5z M36.5,51.5c0,0,0.6,4.4,2.4,5c2.5,0.9,3.7-1.5,4.4-2.9
				c1.6-2.9-0.4-2.8-0.4-2.8S39.5,51.3,36.5,51.5z M54,31.8c0,0,0.9,1.7,2.6-1.1c0.8-1.4,2.3-3.6,0.3-5.3c-1.4-1.2-5.5,0.4-5.5,0.4
				C52.6,28.5,54,31.8,54,31.8z M51.8,47.5c0,0,5.5,0.1,8.9-4.2c0.3-0.4-0.1-1.1-0.5-1.1c-3.3,0.2-4.8-0.9-4.8-0.9l-2.7,2.2
				L51.8,47.5z"/>
			<path fill="#A3CF66" d="M19.2,30.4c-0.4,0.5-0.9,0.5-1.6,0.4c-3.1-0.4-4.1-0.9-4.3-1.2c-0.9-2.2,1-2.4-0.2-5.2
				c-0.9-2-2.4-1.1-2.4-1.4c0-0.4-0.7-0.2-0.7-0.4c-0.1-1.4,0.6-3.2,0.6-3.2s1.1-1.5,2.4-2.1c0.1-0.1,0.3,0.6,0.7,0.4
				c0.3-0.1,0.3,1.6,2.5,1.4c3-0.3,2.2-2,4.6-2.4c0.4,0,1.3,0.6,3.2,3.1c0.4,0.5,0.6,1,0.4,1.6c-0.8,1.5-0.6,3.1-1.7,5
				C21.7,28.3,20.1,28.9,19.2,30.4z M25.9,28.2c1.2-1.9,2.5-5.9,1.1-5.4c-1.7,0.6-1.9-1.1-2-0.9c-0.9,1.5,0,2.4-1.5,4.9
				s-2.6,2.3-3.5,3.8c-0.2,0.2,1.4-0.5,1.8,1.3C22,33.3,24.9,30.2,25.9,28.2z M24.9,40.4c-0.4-1.1-0.4-2-0.4-2s-4.9,0.4-5,2.5
				c-0.1,0.6,0,1,0.1,1.5L24.9,40.4z M34.9,15.8c-0.4,0.1-0.8,0.3-1.3,0.6c-1.7,1.1,0.3,5.6,0.3,5.6s0.7-0.4,1.9-0.6L34.9,15.8z
				 M38,51.9c-1,0.3,0.3,0.2-0.8,0.3c0,0,0.5,4,2.2,3.9c0.1,0,0.6,0,0.4-0.6L38,51.9z M56.3,26.7c0.6-0.1,0.3-0.5,0.3-0.7
				c-0.7-1.5-4.4,0.1-4.4,0.1c0.5,1-0.1-0.2,0.2,0.8L56.3,26.7z M55.3,46.2c1.5-0.3,4.3-2,4.4-2.5c0-0.3-2,1.1-3.6,1.5
				c-1.9,0.5-3.5-0.2-3.5-0.2l-0.4,1.3C52.2,46.3,54,46.4,55.3,46.2z"/>
			<g id="shell">
				<g>
					<path fill="#64A644" d="M45.9,39.6l-1.4,2.5c-0.4,0.7-1.4,1.2-2.1,1.2L36,43.2c-0.7,0-1.7-0.5-2-1.2l-3.3-5.4
						c-0.4-0.6-0.5-1.8-0.1-2.5l1.4-2.5l1.1-2c0.4-0.7,1.4-1.2,2.2-1.2l6.3,0.1c0.7,0,1.7,0.6,2.1,1.2l3.3,5.5
						c0.4,0.6,0.4,1.7,0,2.4L45.9,39.6"/>
					<path fill="#64A644" d="M30.1,30.5L28.7,33c-0.4,0.7-1.1,1.5-1.9,1.6L23,35.4c-0.7,0.1-1.3,0.1-1.3-0.1c0,0,0.1-0.1,0.1-0.3
						c-0.2-2.9,2.9-2.6,5-6.4c1.8-3.2,0.3-6,2.9-7.3c0.2-0.1,0.1,0,0.1,0c0.2-0.1,0.6,0.4,0.8,1.2l1.1,3.7c0.3,0.7-0.1,1.8-0.5,2.5
						L30.1,30.5L30.1,30.5z"/>
					<path fill="#64A644" d="M52.5,43.4c-0.7,1.3-0.8,2.4-1.8,3.3c-1,1-2.3,1.8-2.3,1.8c-0.7,0.4-1.5,0.2-1.8-0.5l-1.2-2.8
						c-0.3-0.7-0.1-1.8,0.3-2.4l1.4-2.5l1.1-1.9c0.4-0.7,1.2-1.4,2-1.5l3.1-0.4c0.7-0.1,1.3,0.5,1.3,1.2c0,0,0,1.3-0.3,2.7
						C54,41.7,52.8,42.7,52.5,43.4z"/>
					<path fill="#64A644" d="M32.5,21.7c-0.3-0.7-0.3-1.3-0.1-1.4c0,0,0,0,0.2,0c1.2-0.3,2.3,1.1,3.5,1c1.1-0.1,2.3-1.6,3.5-1.4
						c2.1,0.3,5.1,1.6,5.1,1.6c0.7,0.3,0.9,1.1,0.5,1.8l-1.3,2.3c-0.4,0.7-1.4,1.2-2.1,1.2l-6.2-0.3c-0.7,0-1.6-0.6-1.8-1.4
						L32.5,21.7z"/>
					<path fill="#64A644" d="M26.9,36.9c0.7-0.1,1.7,0.3,2.1,0.9l3.4,5.2c0.4,0.6,0.5,1.7,0.1,2.4l-1.3,2.3
						c-0.4,0.7-1.3,0.9-1.9,0.4c0,0-2.6-1.9-4-3.6c-0.7-0.9,0-2.8-0.5-3.7c-0.6-1.1-2.3-1.3-2.6-2.5c0-0.2-0.1-0.2-0.1-0.2
						c0-0.2,0.5-0.5,1.3-0.6L26.9,36.9z"/>
					<path fill="#64A644" d="M41.7,45.1c0.7,0,1.6,0.6,1.9,1.3l1.1,2.6c0.3,0.7,0.2,1.4-0.2,1.5c0,0,0,0-0.4,0.1
						c-1.2,0.4-2.2-0.9-3.7-0.7c-1.7,0.2-2.3,1.5-3.5,1.4c-1.7-0.2-3.7-0.9-3.7-0.9c-0.7-0.2-0.7-0.9-0.3-1.6l1.3-2.2
						c0.4-0.7,1.2-1.4,1.9-1.4L41.7,45.1z"/>
					<path fill="#64A644" d="M45.6,29c-0.4-0.6-0.2-1.6,0.2-2.3l1.3-2.2c0.4-0.7,1-1,1.6-0.5c0,0,1.7,1.4,2.7,2.8
						c0.7,0.9-0.1,2.1,0.5,3.6c0.6,1.4,2.2,1.6,2.5,2.8c0.1,0.4,0.1,0.4,0.1,0.4c0.1,0.4-0.5,0.8-1.2,0.9l-2.8,0.3
						c-0.7,0.1-1.6-0.3-2-1L45.6,29z"/>
				</g>
				<g opacity="0.15">
					<path fill="#FFFFFF" d="M46.7,39.4l-1.4,2.5c-0.4,0.7-1.4,1.2-2.1,1.2L36.8,43c-0.7,0-1.7-0.5-2-1.2l-3.3-5.4
						c-0.4-0.6-0.5-1.8-0.1-2.5l1.4-2.5l1.1-2c0.4-0.7,1.4-1.2,2.2-1.2l6.3,0.1c0.7,0,1.7,0.6,2.1,1.2l3.3,5.5
						c0.4,0.6,0.4,1.7,0,2.4L46.7,39.4"/>
					<path fill="#FFFFFF" d="M30.9,30.3l-1.4,2.5c-0.4,0.7-1.1,1.5-1.9,1.6l-3.8,0.8c-0.7,0.1-1.3,0.1-1.3-0.1c0,0,0.1-0.1,0.1-0.3
						c-0.2-2.9,2.9-2.6,5-6.4c1.8-3.2,0.3-6,2.9-7.3c0.2-0.1,0.1,0,0.1,0c0.2-0.1,0.6,0.4,0.8,1.2l1.1,3.7c0.3,0.7-0.1,1.8-0.5,2.5
						L30.9,30.3L30.9,30.3z"/>
					<path fill="#FFFFFF" d="M53.2,43.1c-0.7,1.3-0.8,2.4-1.8,3.3c-1,1-2.3,1.9-2.3,1.9c-0.7,0.4-1.5,0.2-1.8-0.5L46.1,45
						c-0.3-0.7-0.1-1.8,0.3-2.4l1.4-2.5l1.1-1.9c0.4-0.7,1.2-1.4,2-1.5l3.1-0.4c0.7-0.1,1.3,0.5,1.3,1.3c0,0,0,1.3-0.3,2.7
						C54.7,41.5,53.6,42.5,53.2,43.1z"/>
					<path fill="#FFFFFF" d="M33.3,21.5c-0.3-0.7-0.3-1.3-0.1-1.4c0,0,0,0,0.2,0c1.2-0.3,2.3,1.1,3.5,1c1.1-0.1,2.3-1.6,3.5-1.4
						c2.1,0.3,5.1,1.6,5.1,1.6c0.7,0.3,0.9,1.1,0.5,1.8l-1.3,2.3c-0.4,0.7-1.4,1.2-2.1,1.2l-6.2-0.3c-0.7,0-1.6-0.6-1.8-1.4
						L33.3,21.5z"/>
					<path fill="#FFFFFF" d="M27.7,36.6c0.7-0.1,1.7,0.3,2.1,0.9l3.4,5.2c0.4,0.6,0.5,1.7,0.1,2.4L32,47.4c-0.4,0.7-1.3,0.9-1.9,0.4
						c0,0-2.6-1.9-4-3.6c-0.7-0.9,0-2.8-0.5-3.7C25,39.4,23.3,39.2,23,38c0-0.2,0-0.2,0-0.2c0-0.2,0.5-0.5,1.3-0.6L27.7,36.6z"/>
					<path fill="#FFFFFF" d="M42.5,44.9c0.7,0,1.6,0.6,1.9,1.3l1.1,2.6c0.3,0.7,0.2,1.4-0.2,1.5c0,0,0,0-0.4,0.1
						c-1.2,0.4-2.2-0.9-3.7-0.7c-1.7,0.2-2.3,1.5-3.5,1.4C36,50.9,34,50.2,34,50.2c-0.7-0.2-0.7-0.9-0.3-1.6l1.3-2.2
						c0.4-0.7,1.2-1.4,1.9-1.4L42.5,44.9z"/>
					<path fill="#FFFFFF" d="M46.3,28.7c-0.4-0.6-0.2-1.6,0.2-2.3l1.3-2.2c0.4-0.7,1-1,1.6-0.5c0,0,1.7,1.4,2.7,2.8
						c0.7,0.9-0.1,2.1,0.5,3.6c0.6,1.4,2.2,1.6,2.5,2.8c0.1,0.4,0.1,0.4,0.1,0.4c0.1,0.4-0.5,0.8-1.2,0.9l-2.8,0.3
						c-0.7,0.1-1.6-0.3-2-1L46.3,28.7z"/>
				</g>
				<path fill="#538A3E" d="M53.6,44c0.4-0.6,1.8-1.5,2.2-2.8c0.8-2.8,0.8-5.6,0.2-8.5c-0.3-1.4-2-1.1-2.7-3c-1-2.6-0.1-3.4-0.9-4.5
					c-1.5-1.9-3.4-3.5-5.6-4.8c-2.2-1.2-4.5-2-6.8-2.3c-1.3-0.2-2.8,1.4-4.1,1.4c-1.4,0.1-2.7-1.2-4-0.9c-0.2,0-0.2,0-0.2,0
					c-0.2,0.1-0.5,0.1-0.6,0.2s-1.5,0.4-2.1,0.7c-3.4,1.6-2.7,6.2-3.8,8.1c-1.5,2.5-5.6,3.8-5.3,7.6c0.1,0.7,0.3,2.3,0.3,2.4
					s0.1,0.4,0.1,0.6c0,0,0,0,0,0.2c0.3,1.4,2.1,1.8,2.8,3.1c0.6,1.2,0,3.2,0.8,4.3c1.4,1.8,3.2,3.4,5.4,4.7c2.2,1.3,4.6,2.1,7,2.4
					c1.4,0.2,1.6-1,4.4-1.5c2-0.3,2.6,1.2,3.9,0.8c2.7-0.9,5.3-2.5,7.3-4.6C53,46.7,52.9,45.3,53.6,44z M45.9,39.6l-1.4,2.5
					c-0.4,0.7-1.4,1.2-2.1,1.2L36,43.2c-0.7,0-1.7-0.5-2-1.2l-3.3-5.4c-0.4-0.6-0.5-1.8-0.1-2.5l1.4-2.5l1.1-2
					c0.4-0.7,1.4-1.2,2.2-1.2l6.3,0.1c0.7,0,1.7,0.6,2.1,1.2l3.3,5.5c0.4,0.6,0.4,1.7,0,2.4L45.9,39.6 M30.1,30.5L28.7,33
					c-0.4,0.7-1.1,1.5-1.9,1.6L23,35.4c-0.7,0.1-1.3,0.1-1.3-0.1c0,0,0.1-0.1,0.1-0.3c-0.2-2.9,2.9-2.6,5-6.4c1.8-3.2,0.3-6,2.9-7.3
					c0.2-0.1,0.1,0,0.1,0c0.2-0.1,0.6,0.4,0.8,1.2l1.1,3.7c0.3,0.7-0.1,1.8-0.5,2.5L30.1,30.5L30.1,30.5z M52.5,43.4
					c-0.7,1.3-0.8,2.4-1.8,3.3c-1,1-2.3,1.8-2.3,1.8c-0.7,0.4-1.5,0.2-1.8-0.5l-1.2-2.8c-0.3-0.7-0.1-1.8,0.3-2.4l1.4-2.5l1.1-1.9
					c0.4-0.7,1.2-1.4,2-1.5l3.1-0.4c0.7-0.1,1.3,0.5,1.3,1.2c0,0,0,1.3-0.3,2.7C54,41.7,52.8,42.7,52.5,43.4z M32.5,21.7
					c-0.3-0.7-0.3-1.3-0.1-1.4c0,0,0,0,0.2,0c1.2-0.3,2.3,1.1,3.5,1c1.1-0.1,2.3-1.6,3.5-1.4c2.1,0.3,5.1,1.6,5.1,1.6
					c0.7,0.3,0.9,1.1,0.5,1.8l-1.3,2.3c-0.4,0.7-1.4,1.2-2.1,1.2l-6.2-0.3c-0.7,0-1.6-0.6-1.8-1.4L32.5,21.7z M26.9,36.9
					c0.7-0.1,1.7,0.3,2.1,0.9l3.4,5.2c0.4,0.6,0.5,1.7,0.1,2.4l-1.3,2.3c-0.4,0.7-1.3,0.9-1.9,0.4c0,0-2.6-1.9-4-3.6
					c-0.7-0.9,0-2.8-0.5-3.7c-0.6-1.1-2.3-1.3-2.6-2.5c0-0.2-0.1-0.2-0.1-0.2c0-0.2,0.5-0.5,1.3-0.6L26.9,36.9z M41.7,45.1
					c0.7,0,1.6,0.6,1.9,1.3l1.1,2.6c0.3,0.7,0.2,1.4-0.2,1.5c0,0,0,0-0.4,0.1c-1.2,0.4-2.2-0.9-3.7-0.7c-1.7,0.2-2.3,1.5-3.5,1.4
					c-1.7-0.2-3.7-0.9-3.7-0.9c-0.7-0.2-0.7-0.9-0.3-1.6l1.3-2.2c0.4-0.7,1.2-1.4,1.9-1.4L41.7,45.1z M45.6,29
					c-0.4-0.6-0.2-1.6,0.2-2.3l1.3-2.2c0.4-0.7,1-1,1.6-0.5c0,0,1.7,1.4,2.7,2.8c0.7,0.9-0.1,2.1,0.5,3.6c0.6,1.4,2.2,1.6,2.5,2.8
					c0.1,0.4,0.1,0.4,0.1,0.4c0.1,0.4-0.5,0.8-1.2,0.9l-2.8,0.3c-0.7,0.1-1.6-0.3-2-1L45.6,29z"/>
			</g>
			<g id="eyes">
				<path id="eye_6_" fill="#FFFFFF" d="M13.8,17.4c0,0,0.8,1.4,2.6,1c1.7-0.4,1.7-2,1.7-2S15.8,16.2,13.8,17.4z"/>
				<path id="eye_7_" fill="#FFFFFF" d="M10.5,23.2c0,0,1.6,0,2.1,1.7c0.6,1.7-0.8,2.5-0.8,2.5S10.4,25.5,10.5,23.2z"/>
				<path fill="#426932" d="M12.1,24.8c-0.2-0.7-1-0.9-1.6-1c0.1,0.9,0.4,1.8,0.7,2.5C11.7,26,12.3,25.5,12.1,24.8z"/>
				<path fill="#426932" d="M16,18c-0.7,0.1-1.3-0.4-1.7-0.9c0.9-0.4,1.7-0.6,2.4-0.7C16.8,17,16.8,17.9,16,18z"/>
			</g>
		</g>
	</g>
</g>
</svg>
