<?xml version="1.0" encoding="utf-8"?>
<!-- Generator: Adobe Illustrator 19.0.1, SVG Export Plug-In . SVG Version: 6.00 Build 0)  -->
<svg version="1.1" id="Layer_1" xmlns="http://www.w3.org/2000/svg" xmlns:xlink="http://www.w3.org/1999/xlink" x="0px" y="0px"
	 width="43px" height="137px" viewBox="0 0 43 137" enable-background="new 0 0 43 137" xml:space="preserve">
<g>
	<g id="Layer_1_1_">
		<path fill="#FAFAFA" stroke="#E4CBA9" stroke-miterlimit="10" d="M42.5,128.5c0,4.4-3.6,8-8,8h-26c-4.4,0-8-3.6-8-8V8.5
			c0-4.4,3.6-8,8-8h26c4.4,0,8,3.6,8,8V128.5z"/>
		<path fill="#ED2224" d="M23.4,126.3c0,1.1-0.9,2-2,2l0,0c-1.1,0-2-0.9-2-2v-96c0-1.1,0.9-2,2-2l0,0c1.1,0,2,0.9,2,2V126.3z"/>
		<g id="Layer_3_2_">
			<g>
				<path fill="#8BC24C" d="M24.2,8L24.2,8c2.6,1.3,4.3,4.1,4.3,7.4c0,1.5-0.2,1.7-1,3.5c0,0-0.5,1.1-1.2,1.4l0,0l0,0
					c0,0-1,1.1,0.6,2.1c1.2,0.8-3.9,2.5-6.1,2.7c-2.2-0.2-7.5-1.9-6.3-2.7c1.6-1,0.4-2.1,0.4-2.1l0,0c-0.7-0.3-1.3-2-1.3-2
					c-0.4-1.1-0.8-1.9-0.8-3.4c0-3.3,1.7-5.8,4.3-7.1l0,0c0-0.4,2.3-1.5,3.6-1.5C22.1,6.5,24.2,7.6,24.2,8L24.2,8z M11.5,28.1
					c0,0-2.3-4.2-5.1-3.4c-2.8,0.8-3.1,2.7-3.1,4.3c0,2.3,2.4,3.7,2.4,3.7C7.2,30.1,11.5,28.1,11.5,28.1z M35.5,32.7
					c0,0,2.4-1.4,2.4-3.7c0-1.6-0.3-3.6-3.1-4.3c-2.8-0.8-5.1,3.4-5.1,3.4S34,30.1,35.5,32.7z M5.7,45.3c0,0-3.5,2.7-3.1,4.6
					c0.5,2.6,3.1,2.4,4.7,2.4c3.3-0.1,2.2-1.7,2.2-1.7S7.4,47.7,5.7,45.3z M31.6,50.6c0,0-1,1.6,2.2,1.7c1.6,0,4.3,0.2,4.7-2.4
					c0.3-1.8-3.1-4.6-3.1-4.6C33.8,47.7,31.6,50.6,31.6,50.6z M16.9,56.6c0,0,2.6,4.8,8.1,5.6c0.5,0.1,0.9-0.6,0.7-1
					c-1.8-2.8-1.6-4.6-1.6-4.6l-3.4-1.3L16.9,56.6z"/>
				<path fill="#A3CF66" d="M15.4,19.8c-0.6-0.1-0.9-0.6-1.2-1.2c-1.2-2.9-1.3-4-1.1-4.3c1.5-1.8,2.6-0.3,4.4-2.8
					c1.3-1.8-0.2-2.7,0-2.8c0.3-0.2-0.1-0.7,0-0.8c1.2-0.8,3-1.1,3-1.1s1.8,0.2,3,1.1c0.1,0.1-0.3,0.6,0,0.8c0.2,0.2-1.3,1,0,2.8
					c1.8,2.5,2.9,0.9,4.4,2.8c0.2,0.4,0.2,1.4-1.1,4.3c-0.3,0.6-0.5,1-1.2,1.2c-1.7,0-3,1.1-5.2,1.1C18.4,20.8,17.1,19.8,15.4,19.8z
					 M20.6,24.5c2.2,0.1,6.3-0.8,5.2-1.7c-1.4-1.2,0-2.2-0.2-2.2c-1.7,0-2.1,1.2-5,1.2s-3.3-1.2-5-1.2c-0.2-0.1,1.1,1-0.2,2.2
					C14.3,23.7,18.4,24.5,20.6,24.5z M9.6,29.6c0.8-0.9,1.5-1.3,1.5-1.3s-2.8-4-4.7-3.1c-0.6,0.3-0.9,0.5-1.3,0.8L9.6,29.6z
					 M36,26.1c-0.3-0.3-0.6-0.5-1.2-0.8c-1.8-0.9-4.7,3.1-4.7,3.1s0.7,0.5,1.5,1.3L36,26.1z M6.2,46.7c-0.7-0.8,0,0.4-0.6-0.6
					c0,0-3.2,2.4-2.3,3.8C3.4,50,3.7,50.4,4,50L6.2,46.7z M37.1,50.1c0.4,0.4,0.6,0,0.7-0.1c0.9-1.4-2.3-3.8-2.3-3.8
					c-0.6,0.9,0.1-0.2-0.6,0.6L37.1,50.1z M19.8,58.9c1,1.2,3.9,2.7,4.4,2.5c0.3-0.1-2-1.1-3.2-2.4c-1.4-1.4-1.6-3.1-1.6-3.1
					l-1.3,0.3C18.1,56.2,18.9,57.9,19.8,58.9z"/>
				<g id="shell">
					<g>
						<path fill="#64A644" d="M20.8,47.5h-2.9c-0.8,0-1.8-0.6-2.1-1.2l-3.1-5.6c-0.4-0.6-0.4-1.7,0-2.4l3.1-5.6
							c0.4-0.6,1.3-1.3,2.1-1.3h2.9h2.3c0.8,0,1.8,0.6,2.1,1.3l3.1,5.5c0.4,0.6,0.4,1.7,0,2.4l-3.1,5.6c-0.4,0.6-1.3,1.2-2.1,1.2
							L20.8,47.5"/>
						<path fill="#64A644" d="M20.8,29.2h-2.9c-0.8,0-1.9-0.2-2.4-0.8l-2.6-2.9c-0.5-0.6-0.7-1.1-0.6-1.2c0,0,0.1,0,0.3-0.1
							c2.4-1.6,3.7,1.2,8.1,1.2c3.6,0,5.4-2.7,7.8-1.1c0.2,0.1,0.1,0.1,0.1,0.1c0.2,0.1-0.1,0.7-0.6,1.3l-2.6,2.8
							c-0.5,0.6-1.6,0.8-2.4,0.8L20.8,29.2L20.8,29.2z"/>
						<path fill="#64A644" d="M20.8,55c-1.5,0-2.5,0.5-3.8,0.1c-1.4-0.4-2.7-1-2.7-1c-0.7-0.4-0.9-1.1-0.5-1.8l1.9-2.4
							c0.4-0.6,1.5-1,2.3-1h2.9h2.2c0.8,0,1.8,0.4,2.3,1l1.9,2.5c0.4,0.6,0.2,1.4-0.4,1.7c0,0-1.1,0.7-2.5,1
							C23,55.5,21.5,55,20.8,55z"/>
						<path fill="#64A644" d="M29.6,26.9c0.5-0.6,1-0.9,1.2-0.8c0,0,0,0,0.1,0.1c0.9,0.9,0.2,2.5,0.9,3.5c0.6,0.9,2.6,1.2,3,2.3
							c0.8,2,1.1,5.3,1.1,5.3c0.1,0.7-0.5,1.4-1.3,1.4H32c-0.8,0-1.7-0.6-2.1-1.3L27,31.9c-0.3-0.7-0.2-1.7,0.3-2.3L29.6,26.9z"/>
						<path fill="#64A644" d="M13.7,29.7c0.5,0.6,0.6,1.6,0.3,2.2l-2.9,5.6c-0.3,0.7-1.3,1.3-2.1,1.3H6.4c-0.8,0-1.4-0.7-1.3-1.4
							c0,0,0.3-3.2,1.1-5.2c0.4-1,2.4-1.4,3-2.3c0.7-1,0-2.7,0.9-3.5c0.1-0.1,0.1-0.1,0.1-0.1c0.1-0.1,0.7,0.2,1.2,0.8L13.7,29.7z"
							/>
						<path fill="#64A644" d="M13.9,46.6c0.4,0.6,0.3,1.7-0.1,2.3l-1.7,2.3c-0.4,0.6-1.1,0.9-1.4,0.6c0,0,0,0-0.3-0.3
							c-0.9-0.9-0.3-2.4-1.2-3.6c-1-1.3-2.5-1.2-2.9-2.3C5.6,44,5.2,42,5.2,42c-0.1-0.7,0.4-1.1,1.2-1.1h2.5c0.8,0,1.8,0.3,2.1,1
							L13.9,46.6z"/>
						<path fill="#64A644" d="M29.9,41.9c0.4-0.6,1.3-1,2.1-1h2.5c0.8,0,1.4,0.4,1.2,1.1c0,0-0.4,2.1-1.1,3.7
							c-0.5,1.1-1.9,0.9-2.9,2.3c-0.9,1.2-0.3,2.7-1.2,3.5c-0.3,0.3-0.3,0.2-0.3,0.2c-0.3,0.3-1,0-1.4-0.6l-1.7-2.3
							c-0.4-0.6-0.5-1.5-0.1-2.2L29.9,41.9z"/>
					</g>
					<g opacity="0.15">
						<path fill="#FFFFFF" d="M21.4,48h-2.9c-0.8,0-1.8-0.6-2.1-1.2l-3.1-5.6c-0.4-0.6-0.4-1.7,0-2.4l3.1-5.6
							c0.4-0.6,1.3-1.3,2.1-1.3h2.9h2.3c0.8,0,1.8,0.6,2.1,1.3l3.1,5.5c0.4,0.6,0.4,1.7,0,2.4l-3.1,5.6c-0.4,0.6-1.3,1.2-2.1,1.2
							L21.4,48"/>
						<path fill="#FFFFFF" d="M21.4,29.8h-2.9c-0.8,0-1.9-0.2-2.4-0.8l-2.6-2.9c-0.5-0.6-0.7-1.1-0.6-1.2c0,0,0.1,0,0.3-0.1
							c2.4-1.6,3.7,1.2,8.1,1.2c3.6,0,5.4-2.7,7.8-1.1c0.2,0.1,0.1,0.1,0.1,0.1c0.2,0.1-0.1,0.7-0.6,1.3L26,29.1
							c-0.5,0.6-1.6,0.8-2.4,0.8L21.4,29.8L21.4,29.8z"/>
						<path fill="#FFFFFF" d="M21.4,55.6c-1.5,0-2.5,0.5-3.8,0.1c-1.4-0.4-2.7-1-2.7-1c-0.7-0.4-0.9-1.1-0.5-1.8l1.9-2.4
							c0.4-0.6,1.5-1,2.3-1h2.9h2.2c0.8,0,1.8,0.4,2.3,1l1.9,2.5c0.4,0.6,0.2,1.4-0.4,1.7c0,0-1.1,0.7-2.5,1
							C23.6,56.1,22.1,55.6,21.4,55.6z"/>
						<path fill="#FFFFFF" d="M30.2,27.5c0.5-0.6,1-0.9,1.2-0.8c0,0,0,0,0.1,0.1c0.9,0.9,0.2,2.5,0.9,3.5c0.6,0.9,2.6,1.2,3,2.3
							c0.8,2,1.1,5.3,1.1,5.3c0.1,0.7-0.5,1.4-1.3,1.4h-2.6c-0.8,0-1.7-0.6-2.1-1.3l-2.9-5.5c-0.3-0.7-0.2-1.7,0.3-2.3L30.2,27.5z"
							/>
						<path fill="#FFFFFF" d="M14.3,30.2c0.5,0.6,0.6,1.6,0.3,2.2L11.7,38c-0.3,0.7-1.3,1.3-2.1,1.3H7c-0.8,0-1.4-0.7-1.3-1.4
							c0,0,0.3-3.2,1.1-5.2c0.4-1,2.4-1.4,3-2.3c0.7-1,0-2.7,0.9-3.5c0.1-0.1,0.1-0.1,0.1-0.1c0.1-0.1,0.7,0.2,1.2,0.8L14.3,30.2z"
							/>
						<path fill="#FFFFFF" d="M14.5,47.2c0.4,0.6,0.3,1.7-0.1,2.3l-1.7,2.3c-0.4,0.6-1.1,0.9-1.4,0.6c0,0,0,0-0.3-0.3
							c-0.9-0.9-0.3-2.4-1.2-3.6c-1-1.3-2.5-1.2-2.9-2.3c-0.7-1.6-1.1-3.6-1.1-3.6c-0.1-0.7,0.4-1.1,1.2-1.1h2.5
							c0.8,0,1.8,0.3,2.1,1L14.5,47.2z"/>
						<path fill="#FFFFFF" d="M30.4,42.4c0.4-0.6,1.3-1,2.1-1H35c0.8,0,1.4,0.4,1.2,1.1c0,0-0.4,2.1-1.1,3.7
							c-0.5,1.1-1.9,0.9-2.9,2.3c-0.9,1.2-0.3,2.7-1.2,3.5c-0.3,0.3-0.3,0.2-0.3,0.2c-0.3,0.3-1,0-1.4-0.6l-1.7-2.3
							c-0.4-0.6-0.5-1.5-0.1-2.2L30.4,42.4z"/>
					</g>
					<path fill="#538A3E" d="M20.8,56.4c0.7,0,2.2,0.8,3.5,0.5c2.8-0.7,5.3-2.1,7.4-4c1-0.9,0-2.3,1.3-3.8c1.8-2.2,2.9-1.7,3.5-3.1
						c0.9-2.2,1.4-4.7,1.4-7.2s-0.5-4.9-1.4-7c-0.5-1.2-2.6-1.7-3.3-2.8c-0.8-1.2-0.3-2.9-1.3-3.9C31.8,25,31.8,25,31.8,25
						c-0.1-0.1-0.3-0.4-0.4-0.4c-0.1-0.1-1.1-1.1-1.7-1.5c-3.1-2.2-6.7,0.8-8.9,0.8c-2.9,0-6.1-2.9-9.2-0.8c-0.6,0.4-1.9,1.4-2,1.5
						S9.3,24.9,9.1,25c0,0,0,0-0.1,0.1c-1,1-0.5,2.7-1.3,3.9c-0.7,1.1-2.8,1.6-3.3,2.8C3.5,34,3,36.3,3,38.8c0,2.6,0.5,5,1.4,7.2
						c0.5,1.3,1.7,0.9,3.5,3.1c1.2,1.5,0.3,2.9,1.3,3.8c2.1,1.9,4.8,3.3,7.7,4C18.2,57.2,19.3,56.4,20.8,56.4z M20.8,47.5h-2.9
						c-0.8,0-1.8-0.6-2.1-1.2l-3.1-5.6c-0.4-0.6-0.4-1.7,0-2.4l3.1-5.6c0.4-0.6,1.3-1.3,2.1-1.3h2.9h2.3c0.8,0,1.8,0.6,2.1,1.3
						l3.1,5.5c0.4,0.6,0.4,1.7,0,2.4l-3.1,5.6c-0.4,0.6-1.3,1.2-2.1,1.2L20.8,47.5 M20.8,29.2h-2.9c-0.8,0-1.9-0.2-2.4-0.8l-2.6-2.9
						c-0.5-0.6-0.7-1.1-0.6-1.2c0,0,0.1,0,0.3-0.1c2.4-1.6,3.7,1.2,8.1,1.2c3.6,0,5.4-2.7,7.8-1.1c0.2,0.1,0.1,0.1,0.1,0.1
						c0.2,0.1-0.1,0.7-0.6,1.3l-2.6,2.8c-0.5,0.6-1.6,0.8-2.4,0.8L20.8,29.2L20.8,29.2z M20.8,55c-1.5,0-2.5,0.5-3.8,0.1
						c-1.4-0.4-2.7-1-2.7-1c-0.7-0.4-0.9-1.1-0.5-1.8l1.9-2.4c0.4-0.6,1.5-1,2.3-1h2.9h2.2c0.8,0,1.8,0.4,2.3,1l1.9,2.5
						c0.4,0.6,0.2,1.4-0.4,1.7c0,0-1.1,0.7-2.5,1C23,55.5,21.5,55,20.8,55z M29.6,26.9c0.5-0.6,1-0.9,1.2-0.8c0,0,0,0,0.1,0.1
						c0.9,0.9,0.2,2.5,0.9,3.5c0.6,0.9,2.6,1.2,3,2.3c0.8,2,1.1,5.3,1.1,5.3c0.1,0.7-0.5,1.4-1.3,1.4H32c-0.8,0-1.7-0.6-2.1-1.3
						L27,31.9c-0.3-0.7-0.2-1.7,0.3-2.3L29.6,26.9z M13.7,29.7c0.5,0.6,0.6,1.6,0.3,2.2l-2.9,5.6c-0.3,0.7-1.3,1.3-2.1,1.3H6.4
						c-0.8,0-1.4-0.7-1.3-1.4c0,0,0.3-3.2,1.1-5.2c0.4-1,2.4-1.4,3-2.3c0.7-1,0-2.7,0.9-3.5c0.1-0.1,0.1-0.1,0.1-0.1
						c0.1-0.1,0.7,0.2,1.2,0.8L13.7,29.7z M13.9,46.6c0.4,0.6,0.3,1.7-0.1,2.3l-1.7,2.3c-0.4,0.6-1.1,0.9-1.4,0.6c0,0,0,0-0.3-0.3
						c-0.9-0.9-0.3-2.4-1.2-3.6c-1-1.3-2.5-1.2-2.9-2.3C5.6,44,5.2,42,5.2,42c-0.1-0.7,0.4-1.1,1.2-1.1h2.5c0.8,0,1.8,0.3,2.1,1
						L13.9,46.6z M29.9,41.9c0.4-0.6,1.3-1,2.1-1h2.5c0.8,0,1.4,0.4,1.2,1.1c0,0-0.4,2.1-1.1,3.7c-0.5,1.1-1.9,0.9-2.9,2.3
						c-0.9,1.2-0.3,2.7-1.2,3.5c-0.3,0.3-0.3,0.2-0.3,0.2c-0.3,0.3-1,0-1.4-0.6l-1.7-2.3c-0.4-0.6-0.5-1.5-0.1-2.2L29.9,41.9z"/>
				</g>
				<g id="eyes">
					<path id="eye_6_" fill="#FFFFFF" d="M24,8.6c0,0-0.8,1.4,0.4,2.7c1.2,1.3,2.6,0.5,2.6,0.5S26,9.7,24,8.6z"/>
					<path id="eye_7_" fill="#FFFFFF" d="M17.3,8.6c0,0,0.8,1.4-0.4,2.7c-1.2,1.3-2.6,0.5-2.6,0.5S15.3,9.7,17.3,8.6z"/>
					<path fill="#426932" d="M16.7,10.8c0.5-0.5,0.3-1.3,0.1-1.9c-0.8,0.5-1.4,1.2-1.8,1.8C15.5,11,16.2,11.4,16.7,10.8z"/>
					<path fill="#426932" d="M24.6,10.8c-0.5-0.5-0.3-1.3,0-1.9c0.8,0.5,1.4,1.2,1.8,1.8C25.9,11,25.1,11.4,24.6,10.8z"/>
				</g>
			</g>
		</g>
	</g>
	<g id="Layer_2">
	</g>
</g>
</svg>
