<?xml version="1.0" encoding="utf-8"?>
<!-- Generator: Adobe Illustrator 19.0.1, SVG Export Plug-In . SVG Version: 6.00 Build 0)  -->
<svg version="1.1" id="Layer_1" xmlns="http://www.w3.org/2000/svg" xmlns:xlink="http://www.w3.org/1999/xlink" x="0px" y="0px"
	 width="119px" height="99px" viewBox="0 0 119 99" enable-background="new 0 0 119 99" xml:space="preserve">
<path fill="#FAFAFA" stroke="#E4CBA9" stroke-miterlimit="10" d="M8.5,98.5c-4.4,0-8-3.6-8-8v-82c0-4.4,3.6-8,8-8h102
	c4.4,0,8,3.6,8,8v82c0,4.4-3.6,8-8,8H8.5L8.5,98.5z"/>
<path fill="none" stroke="#ED1C24" stroke-width="3" stroke-miterlimit="10" d="M67.1,74.4h-5.3L59.5,73l-1.4-1.2l-1.4-1.9l-0.8-1.7
	l-0.2-2.1l-0.1-3.4l0.5-3.4l1.9-5.8l2.1-3l0.9-5.2l0.6-5.3l-0.7-2.9l-0.8-2.5l-1-1.2l-1.8-1.7l-1.8-0.6l-1.8-0.5h-0.2l-1.7,0.5
	L50,31.7l-1.8,1.7l-1,1.2l-0.8,2.5l-0.7,2.8l0.6,5.4l0.9,5.2l2.1,3.2l1.8,5.6l0.5,3.4l-0.1,3.4l-0.3,2.3L50.4,70L49,71.9L47.7,73
	l-2.3,1.4h-1.7c-0.4,0-0.7,0-1,0l0,0h-2.6L37.8,73l-1.4-1.2L35,69.9l-0.8-1.7L34,66.1l-0.1-3.4l0.5-3.4l1.9-5.8l2.1-3l0.9-5.2
	l0.6-5.3l-0.7-2.9l-0.8-2.5l-1-1.2l-1.8-1.7l-1.8-0.6l-1.7-0.5H32l-1.6,0.5l-1.8,0.6l-1.8,1.7l-1,1.2L25,37.1l-0.7,2.8l0.6,5.4
	l0.9,5.2l2.1,3.2l1.8,5.6l0.5,3.4l-0.1,3.4l-0.3,2.3L29,70l-1.4,1.9L26.3,73L24,74.4h-5.3L16.4,73L15,71.8l-1.4-1.9l-0.8-1.7
	l-0.2-2.1l-0.1-3.4l0.5-3.4l1.9-5.8l2.1-3l0.9-5.2l0.6-5.3l-0.7-2.9L17,34.6l-1-1.2l-1.8-1.7l-1.8-0.6l-2.1-0.6l0.3-1l2.1,0.6l2,0.6
	l2,1.9l1.2,1.5l0.8,2.6l0.7,3.1l-0.6,5.5l-1,5.5l-2.1,3.1l-1.8,5.5l-0.5,3.2l0.1,3.2l0.2,2l0.7,1.4l1.2,1.7l1.3,1l2,1.2h4.7l2-1.2
	l1.2-1l1.2-1.7l0.7-1.4l0.2-2.1l0.1-3.3l-0.5-3.2l-1.7-5.4l-2.2-3.2l-1-5.3L23,39.7l0.7-3.1l0.9-2.8l1.1-1.3l2-1.9l2-0.6l2.1-0.5
	l3.9,1.2l2,1.9l1.2,1.5l0.8,2.6l0.7,3.1l-0.6,5.5l-1,5.5l-2.1,3.1l-1.8,5.5l-0.5,3.2l0.1,3.2l0.2,2l0.7,1.4l1.2,1.7l1.3,1l2,1.2h2.9
	c0.2,0,0.5,0,0.5,0h1.4l2-1.2l1.2-1l1.2-1.7l0.7-1.4l0.2-2.1l0.1-3.3l-0.5-3.2l-1.7-5.4l-2.2-3.2l-1-5.3l-0.6-5.6l0.7-3.1l0.9-2.8
	l1.1-1.3l2-1.9l2-0.6l1.9-0.5h0.4l3.9,1.2l2,1.9l1.2,1.5l0.8,2.6l0.7,3.1l0.3,5.7L61,51l-2.1,3.1l-1.8,5.5l-0.5,3.2l0.1,3.2l0.2,2
	l0.7,1.4l1.2,1.7l1.3,1l2,1.2h4.7l2-1.2l1.2-1l1.2-1.7l0.7-1.4l0.2-2.1l0.1-3.3l-0.5-3.2L70,54l-2.2-3.2l-1-5.3l-0.6-5.6l0.7-3.1
	l0.9-2.8l1.1-1.3l2-1.9l2-0.6l2.2-0.6l0.3,1l-2.1,0.6l-1.8,0.6l-1.8,1.7l-1,1.2l-0.8,2.5L67.2,40l0.6,5.4l0.9,5.2l2.1,3.2l1.8,5.6
	l0.5,3.4L73,66.2l-0.3,2.3l-0.8,1.6L70.5,72l-1.3,1.1L67.1,74.4z"/>
<g id="Layer_3_2_">
	<g>
		<path fill="#8BC24C" d="M99.9,70.9L99.9,70.9c-2.9,0.3-5.8-1-7.7-3.9c-0.9-1.3-0.8-1.5-1.1-3.5c0,0-0.2-1.2,0.2-1.9l0,0l0,0
			c0,0,0.2-1.4-1.7-1.4c-1.5,0,1.9-4.2,3.6-5.6c1.9-1,7.3-2.5,6.7-1.2c-0.8,1.7,0.8,2,0.8,2l0,0c0.8-0.1,2.2,0.9,2.2,0.9
			c0.9,0.7,1.7,1.2,2.5,2.4c1.8,2.8,1.8,5.8,0.3,8.2l0,0c0.2,0.4-1.1,2.5-2.2,3.2C102.5,71,100.2,71.2,99.9,70.9L99.9,70.9z
			 M99.4,47.1c0,0,4.2,2.2,6.1,0s1.1-4,0.2-5.4c-1.3-1.9-4-1.7-4-1.7C102,43,99.4,47.1,99.4,47.1z M76.9,56.5c0,0-1.3,2.5,0,4.4
			c0.9,1.4,2.2,2.8,5,1.9c2.7-0.9,2.4-5.7,2.4-5.7S79.6,57.8,76.9,56.5z M94.8,29.6c0,0,1.4-4.2,0.1-5.6c-1.8-1.9-4-0.3-5.3,0.6
			c-2.7,1.9-0.9,2.7-0.9,2.7S92,28.4,94.8,29.6z M70.3,39.4c0,0-0.1-1.9-2.8-0.2c-1.4,0.9-3.7,2.2-2.6,4.6c0.8,1.7,5.1,2.1,5.1,2.1
			C70,43,70.3,39.4,70.3,39.4z M79.2,26.3c0,0-4.8-2.6-9.8-0.2c-0.4,0.2-0.4,1,0,1.2c3.1,1.3,3.9,2.9,3.9,2.9l3.4-0.8L79.2,26.3z"/>
		<path fill="#A3CF66" d="M100.8,56.2c0.6-0.2,1.1,0,1.6,0.3c2.6,1.7,3.2,2.6,3.3,3c-0.2,2.4-2,1.7-2.1,4.7
			c-0.1,2.2,1.7,2.1,1.5,2.4c-0.2,0.4,0.5,0.5,0.4,0.7c-0.5,1.4-1.9,2.6-1.9,2.6s-1.7,0.8-3.1,0.8c-0.2,0,0-0.7-0.4-0.7
			c-0.3,0,0.5-1.6-1.6-2.3c-2.9-1.1-2.9,0.8-5.2,0.1c-0.4-0.2-0.9-1.1-1.5-4.2c-0.1-0.6-0.1-1.2,0.3-1.6c1.4-0.9,1.9-2.6,3.7-3.8
			C97.7,56.9,99.3,57.1,100.8,56.2z M93.8,55.1c-1.9,1.1-4.9,4.1-3.4,4.3c1.8,0.2,1.2,1.9,1.4,1.7c1.4-0.9,1.1-2.1,3.5-3.7
			s3.4-0.9,4.8-1.8c0.2-0.1-1.5-0.2-1-1.9C99.5,52.3,95.6,53.9,93.8,55.1z M100.2,44.7c-0.2,1.2-0.5,1.9-0.5,1.9s4.5,1.8,5.6,0
			c0.3-0.6,0.4-0.9,0.6-1.4L100.2,44.7z M80.2,62.3c0.4,0.1,0.8,0.1,1.5,0c2-0.2,2.2-5.1,2.2-5.1s-0.8,0-2-0.3L80.2,62.3z
			 M93.6,28.6c1,0.2-0.2-0.3,0.8,0.1c0,0,1.3-3.8-0.2-4.4c-0.1-0.1-0.6-0.2-0.6,0.3L93.6,28.6z M65.9,42.9c-0.5-0.2-0.5,0.3-0.5,0.5
			c0,1.7,4,1.9,4,1.9c0-1.1,0,0.2,0.2-0.8L65.9,42.9z M75.6,26c-1.5-0.4-4.8-0.1-5.1,0.3c-0.2,0.3,2.3-0.1,3.9,0.3
			c1.9,0.4,3,1.7,3,1.7l0.9-0.9C78.4,27.3,76.8,26.3,75.6,26z"/>
		<g id="shell">
			<g>
				<path fill="#64A644" d="M81,36l2.4-1.6c0.7-0.4,1.8-0.5,2.4-0.2l5.6,3c0.7,0.3,1.2,1.2,1.3,2l0.5,6.4c0.1,0.7-0.4,1.8-1,2.2
					l-2.4,1.6l-1.9,1.2c-0.7,0.4-1.8,0.4-2.5,0.1l-5.6-2.9c-0.7-0.3-1.3-1.2-1.3-2L78,39.5c-0.1-0.7,0.4-1.7,1.1-2.2L81,36"/>
				<path fill="#64A644" d="M91.1,51.2l2.4-1.6c0.7-0.4,1.7-0.8,2.4-0.6l3.8,1c0.7,0.2,1.2,0.5,1.1,0.7c0,0-0.1,0-0.2,0.2
					c-1.2,2.6-3.7,1.1-7.4,3.5c-3,2-3,5.2-5.9,5.2c-0.2,0-0.1-0.1-0.1-0.1c-0.2,0-0.3-0.6-0.2-1.4l0.6-3.8c0.1-0.7,0.9-1.5,1.5-2
					L91.1,51.2L91.1,51.2z"/>
				<path fill="#64A644" d="M76.8,29.7c1.2-0.8,1.8-1.8,3.1-2.2c1.4-0.5,2.9-0.6,2.9-0.6c0.8-0.1,1.4,0.4,1.4,1.2L84,31.2
					c0,0.7-0.7,1.6-1.3,2.1l-2.4,1.6l-1.9,1.2c-0.7,0.4-1.7,0.7-2.4,0.4l-2.9-1c-0.7-0.3-1-1-0.6-1.7c0,0,0.5-1.1,1.5-2.2
					C74.7,30.5,76.2,30.1,76.8,29.7z"/>
				<path fill="#64A644" d="M85,58c-0.1,0.7-0.3,1.3-0.5,1.3c0,0,0,0-0.2,0c-1.2-0.2-1.5-2-2.7-2.5c-1-0.4-2.8,0.4-3.7-0.2
					c-1.8-1.2-3.9-3.8-3.9-3.8c-0.5-0.6-0.3-1.4,0.3-1.9l2.2-1.5c0.7-0.4,1.8-0.4,2.4-0.1l5.4,3c0.6,0.4,1.1,1.3,1,2L85,58z"/>
				<path fill="#64A644" d="M96.8,47c-0.7-0.2-1.4-1-1.5-1.7l-0.7-6.2c-0.1-0.7,0.4-1.8,1-2.2l2.2-1.5c0.7-0.4,1.5-0.2,1.9,0.4
					c0,0,1.5,2.9,1.9,5c0.2,1.1-1.2,2.5-1.2,3.6c0,1.3,1.5,2.2,1.2,3.4c0,0.2,0,0.2,0,0.2c0,0.2-0.7,0.2-1.4,0L96.8,47z"/>
				<path fill="#64A644" d="M87.2,32.9c-0.7-0.3-1.2-1.2-1.1-2l0.2-2.8c0-0.7,0.4-1.3,0.8-1.3c0,0,0,0,0.4,0.1
					c1.2,0.2,1.5,1.8,3,2.3c1.6,0.5,2.7-0.3,3.7,0.3c1.4,1,2.9,2.4,2.9,2.4c0.5,0.5,0.3,1.2-0.4,1.6l-2.1,1.4
					c-0.7,0.4-1.7,0.7-2.3,0.4L87.2,32.9z"/>
				<path fill="#64A644" d="M76.5,45.7c0.1,0.7-0.6,1.5-1.2,2l-2.1,1.4c-0.7,0.4-1.3,0.4-1.6-0.2c0,0-0.9-2-1.2-3.7
					c-0.2-1.1,1-1.8,1.2-3.5c0.1-1.5-1.2-2.4-0.9-3.6c0.1-0.4,0.1-0.4,0.1-0.4c0.1-0.4,0.8-0.5,1.5-0.3l2.7,1c0.7,0.3,1.3,1,1.3,1.7
					L76.5,45.7z"/>
			</g>
			<g opacity="0.15">
				<path fill="#FFFFFF" d="M80.2,35.9l2.4-1.6c0.7-0.4,1.8-0.5,2.4-0.2l5.6,3c0.7,0.3,1.2,1.2,1.3,2l0.5,6.4c0.1,0.7-0.4,1.8-1,2.2
					L89,49.3l-1.9,1.2c-0.7,0.4-1.8,0.4-2.5,0.1L79,47.7c-0.7-0.3-1.3-1.2-1.3-2l-0.5-6.4c-0.1-0.7,0.4-1.7,1.1-2.2L80.2,35.9"/>
				<path fill="#FFFFFF" d="M90.3,51.1l2.4-1.6c0.7-0.4,1.7-0.8,2.4-0.6l3.8,1c0.7,0.2,1.2,0.5,1.1,0.7c0,0-0.1,0-0.2,0.2
					c-1.2,2.6-3.7,1.1-7.4,3.5c-3,2-3,5.2-5.9,5.2c-0.2,0-0.1-0.1-0.1-0.1c-0.2,0-0.3-0.6-0.2-1.4l0.6-3.8c0.1-0.7,0.9-1.5,1.5-2
					L90.3,51.1L90.3,51.1z"/>
				<path fill="#FFFFFF" d="M76,29.6c1.2-0.8,1.8-1.8,3.1-2.2c1.4-0.5,2.9-0.6,2.9-0.6c0.8-0.1,1.4,0.4,1.4,1.2l-0.2,3.1
					c0,0.7-0.7,1.6-1.3,2.1l-2.4,1.6L77.6,36c-0.7,0.4-1.7,0.7-2.4,0.4l-2.9-1c-0.7-0.3-1-1-0.6-1.7c0,0,0.5-1.1,1.5-2.2
					C74,30.4,75.4,30,76,29.6z"/>
				<path fill="#FFFFFF" d="M84.2,57.9c-0.1,0.7-0.3,1.3-0.5,1.3c0,0,0,0-0.2,0c-1.2-0.2-1.5-2-2.7-2.5c-1-0.4-2.8,0.4-3.7-0.2
					c-1.8-1.2-3.9-3.8-3.9-3.8c-0.5-0.6-0.3-1.4,0.3-1.9l2.2-1.5c0.7-0.4,1.8-0.4,2.4-0.1l5.4,3c0.6,0.4,1.1,1.3,1,2L84.2,57.9z"/>
				<path fill="#FFFFFF" d="M96,46.8c-0.7-0.2-1.4-1-1.5-1.7l-0.7-6.2c-0.1-0.7,0.4-1.8,1-2.2l2.2-1.5c0.7-0.4,1.5-0.2,1.9,0.4
					c0,0,1.5,2.9,1.9,5c0.2,1.1-1.2,2.5-1.2,3.6c0,1.3,1.5,2.2,1.2,3.4c0,0.2,0,0.2,0,0.2c0,0.2-0.7,0.2-1.4,0L96,46.8z"/>
				<path fill="#FFFFFF" d="M86.4,32.8c-0.7-0.3-1.2-1.2-1.1-2l0.2-2.8c0-0.7,0.4-1.3,0.8-1.3c0,0,0,0,0.4,0.1
					c1.2,0.2,1.5,1.8,3,2.3c1.6,0.5,2.7-0.3,3.7,0.3c1.4,1,2.9,2.4,2.9,2.4c0.5,0.5,0.3,1.2-0.4,1.6l-2.1,1.4
					c-0.7,0.4-1.7,0.7-2.3,0.4L86.4,32.8z"/>
				<path fill="#FFFFFF" d="M75.8,45.5c0.1,0.7-0.6,1.5-1.2,2l-2.1,1.4c-0.7,0.4-1.3,0.4-1.6-0.2c0,0-0.9-2-1.2-3.7
					c-0.2-1.1,1-1.8,1.2-3.5c0.1-1.5-1.2-2.4-0.9-3.6c0.1-0.4,0.1-0.4,0.1-0.4c0.1-0.4,0.8-0.5,1.5-0.3l2.7,1c0.7,0.3,1.3,1,1.3,1.7
					L75.8,45.5z"/>
			</g>
			<path fill="#538A3E" d="M76.1,28.6c-0.6,0.4-2.3,0.6-3.2,1.5c-2,2.1-3.3,4.7-4,7.5c-0.3,1.3,1.2,1.9,1,3.9
				c-0.3,2.8-1.5,3.1-1.2,4.5c0.5,2.4,1.4,4.7,2.8,6.8c1.4,2.1,3.1,3.8,5,5.1c1.1,0.7,3.1,0,4.3,0.5c1.3,0.6,1.8,2.3,3.2,2.6
				c0.2,0,0.2,0,0.2,0c0.2,0,0.5,0.1,0.6,0.1s1.5,0.3,2.2,0.3c3.8,0.1,5.2-4.4,7-5.6c2.4-1.6,6.7-0.9,8.1-4.4
				c0.3-0.7,0.8-2.2,0.8-2.3c0.1-0.1,0.1-0.4,0.2-0.6c0,0,0,0,0.1-0.2c0.3-1.4-1.1-2.6-1.1-4c0-1.3,1.5-2.9,1.2-4.2
				c-0.5-2.3-1.4-4.5-2.7-6.6c-1.4-2.1-3.2-3.9-5.2-5.3c-1.2-0.8-1.9,0.2-4.6-0.6c-1.9-0.6-1.8-2.2-3.2-2.4
				c-2.8-0.4-5.9-0.1-8.6,0.9C77.8,26.5,77.3,27.8,76.1,28.6z M81,36l2.4-1.6c0.7-0.4,1.8-0.5,2.4-0.2l5.6,3c0.7,0.3,1.2,1.2,1.3,2
				l0.5,6.4c0.1,0.7-0.4,1.8-1,2.2l-2.4,1.6l-1.9,1.2c-0.7,0.4-1.8,0.4-2.5,0.1l-5.6-2.9c-0.7-0.3-1.3-1.2-1.3-2L78,39.5
				c-0.1-0.7,0.4-1.7,1.1-2.2L81,36 M91.1,51.2l2.4-1.6c0.7-0.4,1.7-0.8,2.4-0.6l3.8,1c0.7,0.2,1.2,0.5,1.1,0.7c0,0-0.1,0-0.2,0.2
				c-1.2,2.6-3.7,1.1-7.4,3.5c-3,2-3,5.2-5.9,5.2c-0.2,0-0.1-0.1-0.1-0.1c-0.2,0-0.3-0.6-0.2-1.4l0.6-3.8c0.1-0.7,0.9-1.5,1.5-2
				L91.1,51.2L91.1,51.2z M76.8,29.7c1.2-0.8,1.8-1.8,3.1-2.2c1.4-0.5,2.9-0.6,2.9-0.6c0.8-0.1,1.4,0.4,1.4,1.2L84,31.2
				c0,0.7-0.7,1.6-1.3,2.1l-2.4,1.6l-1.9,1.2c-0.7,0.4-1.7,0.7-2.4,0.4l-2.9-1c-0.7-0.3-1-1-0.6-1.7c0,0,0.5-1.1,1.5-2.2
				C74.7,30.5,76.2,30.1,76.8,29.7z M85,58c-0.1,0.7-0.3,1.3-0.5,1.3c0,0,0,0-0.2,0c-1.2-0.2-1.5-2-2.7-2.5c-1-0.4-2.8,0.4-3.7-0.2
				c-1.8-1.2-3.9-3.8-3.9-3.8c-0.5-0.6-0.3-1.4,0.3-1.9l2.2-1.5c0.7-0.4,1.8-0.4,2.4-0.1l5.4,3c0.6,0.4,1.1,1.3,1,2L85,58z M96.8,47
				c-0.7-0.2-1.4-1-1.5-1.7l-0.7-6.2c-0.1-0.7,0.4-1.8,1-2.2l2.2-1.5c0.7-0.4,1.5-0.2,1.9,0.4c0,0,1.5,2.9,1.9,5
				c0.2,1.1-1.2,2.5-1.2,3.6c0,1.3,1.5,2.2,1.2,3.4c0,0.2,0,0.2,0,0.2c0,0.2-0.7,0.2-1.4,0L96.8,47z M87.2,32.9
				c-0.7-0.3-1.2-1.2-1.1-2l0.2-2.8c0-0.7,0.4-1.3,0.8-1.3c0,0,0,0,0.4,0.1c1.2,0.2,1.5,1.8,3,2.3c1.6,0.5,2.7-0.3,3.7,0.3
				c1.4,1,2.9,2.4,2.9,2.4c0.5,0.5,0.3,1.2-0.4,1.6l-2.1,1.4c-0.7,0.4-1.7,0.7-2.3,0.4L87.2,32.9z M76.5,45.7c0.1,0.7-0.6,1.5-1.2,2
				l-2.1,1.4c-0.7,0.4-1.3,0.4-1.6-0.2c0,0-0.9-2-1.2-3.7c-0.2-1.1,1-1.8,1.2-3.5c0.1-1.5-1.2-2.4-0.9-3.6c0.1-0.4,0.1-0.4,0.1-0.4
				c0.1-0.4,0.8-0.5,1.5-0.3l2.7,1c0.7,0.3,1.3,1,1.3,1.7L76.5,45.7z"/>
		</g>
		<g id="eyes">
			<path id="eye_6_" fill="#FFFFFF" d="M99.7,70.2c0,0-0.1-1.6-1.9-2c-1.7-0.4-2.4,1-2.4,1S97.5,70.4,99.7,70.2z"/>
			<path id="eye_7_" fill="#FFFFFF" d="M105.4,66.5c0,0-1.4-0.7-1.1-2.5s1.9-1.8,1.9-1.8S106.4,64.5,105.4,66.5z"/>
			<path fill="#426932" d="M104.6,64.4c-0.1,0.7,0.5,1.3,1,1.6c0.4-0.9,0.5-1.8,0.5-2.5C105.6,63.5,104.7,63.6,104.6,64.4z"/>
			<path fill="#426932" d="M98.1,68.7c0.7,0.2,1,1,1.1,1.5c-0.9,0-1.8-0.3-2.5-0.5C96.9,69.2,97.3,68.5,98.1,68.7z"/>
		</g>
	</g>
</g>
</svg>
