<?xml version="1.0" encoding="utf-8"?>
<!-- Generator: Adobe Illustrator 19.2.0, SVG Export Plug-In . SVG Version: 6.00 Build 0)  -->
<svg version="1.1" id="Layer_2" xmlns="http://www.w3.org/2000/svg" xmlns:xlink="http://www.w3.org/1999/xlink" x="0px" y="0px"
	 width="43px" height="177px" viewBox="0 0 43 177" style="enable-background:new 0 0 43 177;" xml:space="preserve">
<style type="text/css">
	.st0{fill:#FAFAFA;stroke:#E4CBA9;stroke-miterlimit:10;}
	.st1{fill:#ED2224;}
	.st2{fill:#8BC24C;}
	.st3{fill:#A3CF66;}
	.st4{fill:#64A644;}
	.st5{opacity:0.15;}
	.st6{fill:#FFFFFF;}
	.st7{fill:#538A3E;}
	.st8{fill:#426932;}
</style>
<g id="Layer_1_1_">
	<path class="st0" d="M42.5,168.5c0,4.4-3.6,8-8,8h-26c-4.4,0-8-3.6-8-8V8.5c0-4.4,3.6-8,8-8h26c4.4,0,8,3.6,8,8V168.5z"/>
	<path class="st1" d="M23.6,159.7c0,1.1-0.9,2-2,2l0,0c-1.1,0-2-0.9-2-2v-147c0-1.1,0.9-2,2-2l0,0c1.1,0,2,0.9,2,2V159.7z"/>
	<g>
		<path class="st2" d="M25.6,80.3C25.6,80.3,25.6,80.2,25.6,80.3c2.6,1.3,4.3,4.1,4.3,7.5c0,1.5-0.2,1.7-1,3.5c0,0-0.5,1.1-1.2,1.4
			l0,0l0,0c0,0-1,1.1,0.6,2.1c1.2,0.8-3.9,2.5-6.1,2.7c-2.2-0.2-7.5-1.9-6.3-2.7c1.6-1,0.4-2.1,0.4-2.1l0,0c-0.7-0.3-1.3-2-1.3-2
			c-0.4-1.1-0.8-1.9-0.8-3.4c0-3.3,1.7-5.8,4.3-7.1l0,0c0-0.4,2.3-1.5,3.6-1.5C23.5,78.7,25.6,79.9,25.6,80.3L25.6,80.3z
			 M12.9,100.3c0,0-2.3-4.2-5.1-3.4c-2.8,0.8-3.1,2.7-3.1,4.3c0,2.3,2.4,3.7,2.4,3.7C8.5,102.3,12.9,100.3,12.9,100.3z M36.9,104.9
			c0,0,2.4-1.4,2.4-3.7c0-1.6-0.3-3.6-3.1-4.3c-2.8-0.8-5.1,3.4-5.1,3.4S35.4,102.3,36.9,104.9z M7.1,117.5c0,0-3.5,2.7-3.1,4.6
			c0.4,2.6,3.1,2.4,4.7,2.4c3.3-0.1,2.2-1.7,2.2-1.7S8.8,120,7.1,117.5z M32.9,122.8c0,0-1,1.6,2.2,1.7c1.6,0,4.3,0.2,4.7-2.4
			c0.3-1.8-3.1-4.6-3.1-4.6C35.1,120,32.9,122.8,32.9,122.8z M18.3,128.8c0,0,2.6,4.8,8.1,5.6c0.5,0.1,0.9-0.6,0.7-1
			c-1.8-2.8-1.6-4.6-1.6-4.6l-3.3-1.2L18.3,128.8z"/>
		<path class="st3" d="M16.8,92c-0.6-0.1-0.9-0.6-1.2-1.2c-1.2-2.9-1.3-4-1.1-4.3c1.5-1.8,2.6-0.3,4.4-2.8c1.3-1.8-0.2-2.7,0-2.8
			c0.3-0.2-0.1-0.7,0-0.8c1.2-0.8,3-1.1,3-1.1s1.8,0.2,3,1.1c0.1,0.1-0.3,0.6,0,0.8c0.2,0.2-1.3,1,0,2.8c1.8,2.5,2.9,0.9,4.4,2.8
			c0.2,0.4,0.2,1.4-1.1,4.3c-0.3,0.6-0.5,1-1.2,1.2c-1.7,0-3,1.1-5.2,1.1C19.8,93.1,18.5,92,16.8,92z M22,96.7
			c2.2,0.1,6.3-0.8,5.2-1.7c-1.4-1.2,0-2.2-0.2-2.2c-1.7,0-2.1,1.2-5,1.2s-3.3-1.2-5-1.2c-0.2-0.1,1.1,1-0.2,2.2
			C15.7,95.9,19.8,96.8,22,96.7z M10.9,101.9c0.8-0.9,1.5-1.3,1.5-1.3s-2.8-4-4.7-3.1c-0.6,0.3-0.9,0.5-1.3,0.8L10.9,101.9z
			 M37.3,98.3c-0.3-0.3-0.6-0.5-1.2-0.8c-1.8-0.9-4.7,3.1-4.7,3.1s0.7,0.5,1.5,1.3L37.3,98.3z M7.6,119c-0.7-0.8,0,0.4-0.6-0.6
			c0,0-3.2,2.4-2.3,3.8c0.1,0.1,0.4,0.5,0.7,0.1L7.6,119z M38.5,122.3c0.4,0.4,0.6,0,0.7-0.1c0.9-1.4-2.3-3.8-2.3-3.8
			c-0.6,0.9,0.1-0.2-0.6,0.6L38.5,122.3z M21.1,131.1c1,1.2,3.9,2.7,4.4,2.5c0.3-0.1-2-1.1-3.2-2.4c-1.4-1.4-1.6-3.1-1.6-3.1
			l-1.3,0.3C19.5,128.5,20.3,130.2,21.1,131.1z"/>
		<g id="shell">
			<g>
				<path class="st4" d="M22.2,119.7h-2.9c-0.8,0-1.8-0.6-2.1-1.2l-3.1-5.6c-0.4-0.6-0.4-1.7,0-2.4l3.1-5.6c0.4-0.6,1.3-1.3,2.1-1.3
					h2.9h2.3c0.8,0,1.8,0.6,2.1,1.3l3.1,5.5c0.4,0.6,0.4,1.7,0,2.4l-3.1,5.6c-0.4,0.6-1.3,1.2-2.1,1.2L22.2,119.7"/>
				<path class="st4" d="M22.2,101.5h-2.9c-0.8,0-1.9-0.2-2.4-0.8l-2.6-2.9c-0.5-0.6-0.7-1.1-0.6-1.2c0,0,0.1,0,0.3-0.1
					c2.4-1.6,3.7,1.2,8.1,1.2c3.6,0,5.4-2.7,7.8-1.1c0.2,0.1,0.1,0.1,0.1,0.1c0.2,0.1-0.1,0.7-0.6,1.3l-2.6,2.8
					c-0.5,0.6-1.6,0.8-2.4,0.8L22.2,101.5L22.2,101.5z"/>
				<path class="st4" d="M22.2,127.3c-1.5,0-2.5,0.5-3.8,0.1c-1.4-0.4-2.7-1.1-2.7-1.1c-0.7-0.4-0.9-1.1-0.5-1.8l1.9-2.4
					c0.4-0.6,1.5-1,2.3-1h2.9h2.2c0.8,0,1.8,0.4,2.3,1l1.9,2.5c0.4,0.6,0.2,1.4-0.4,1.7c0,0-1.1,0.7-2.5,1
					C24.4,127.8,22.9,127.3,22.2,127.3z"/>
				<path class="st4" d="M31,99.2c0.5-0.6,1-0.9,1.2-0.8c0,0,0,0,0.1,0.1c0.9,0.9,0.2,2.5,0.9,3.5c0.6,0.9,2.6,1.2,3,2.3
					c0.8,2,1.1,5.3,1.1,5.3c0.1,0.7-0.5,1.4-1.3,1.4h-2.6c-0.8,0-1.7-0.6-2.1-1.3l-2.9-5.5c-0.3-0.7-0.2-1.7,0.3-2.3L31,99.2z"/>
				<path class="st4" d="M15,101.9c0.5,0.6,0.6,1.6,0.3,2.2l-2.9,5.6c-0.3,0.7-1.3,1.3-2.1,1.3H7.7c-0.8,0-1.4-0.7-1.3-1.4
					c0,0,0.3-3.2,1.1-5.2c0.4-1,2.4-1.4,3-2.3c0.7-1,0-2.7,0.9-3.5c0.1-0.1,0.1-0.1,0.1-0.1c0.1-0.1,0.7,0.2,1.2,0.8L15,101.9z"/>
				<path class="st4" d="M15.3,118.9c0.4,0.6,0.3,1.7-0.1,2.3l-1.7,2.3c-0.4,0.6-1.1,0.9-1.4,0.6c0,0,0,0-0.3-0.3
					c-0.9-0.9-0.3-2.4-1.2-3.6c-1-1.3-2.5-1.2-2.9-2.3c-0.7-1.6-1.1-3.6-1.1-3.6c-0.1-0.7,0.4-1.1,1.2-1.1h2.5c0.8,0,1.8,0.3,2.1,1
					L15.3,118.9z"/>
				<path class="st4" d="M31.2,114.1c0.4-0.6,1.3-1,2.1-1h2.5c0.8,0,1.4,0.4,1.2,1.1c0,0-0.4,2.1-1.1,3.7c-0.5,1.1-1.9,0.9-2.9,2.3
					c-0.9,1.2-0.3,2.7-1.2,3.5c-0.3,0.3-0.3,0.2-0.3,0.2c-0.3,0.3-1,0-1.4-0.6l-1.7-2.3c-0.4-0.6-0.5-1.5-0.1-2.2L31.2,114.1z"/>
			</g>
			<g class="st5">
				<path class="st6" d="M22.7,120.3h-2.9c-0.8,0-1.8-0.6-2.1-1.2l-3.1-5.6c-0.4-0.6-0.4-1.7,0-2.4l3.1-5.6c0.4-0.6,1.3-1.3,2.1-1.3
					h2.9H25c0.8,0,1.8,0.6,2.1,1.3l3.1,5.5c0.4,0.6,0.4,1.7,0,2.4l-3.1,5.6c-0.4,0.6-1.3,1.2-2.1,1.2L22.7,120.3"/>
				<path class="st6" d="M22.7,102h-2.9c-0.8,0-1.9-0.2-2.4-0.8l-2.6-2.9c-0.5-0.6-0.7-1.1-0.6-1.2c0,0,0.1,0,0.3-0.1
					c2.4-1.6,3.7,1.2,8.1,1.2c3.6,0,5.4-2.7,7.8-1.1c0.2,0.1,0.1,0.1,0.1,0.1c0.2,0.1-0.1,0.7-0.6,1.3l-2.6,2.8
					c-0.5,0.6-1.6,0.8-2.4,0.8L22.7,102L22.7,102z"/>
				<path class="st6" d="M22.7,127.8c-1.5,0-2.5,0.5-3.8,0.1c-1.4-0.4-2.7-1-2.7-1c-0.7-0.4-0.9-1.1-0.5-1.8l1.9-2.4
					c0.4-0.6,1.5-1,2.3-1h2.9H25c0.8,0,1.8,0.4,2.3,1l1.9,2.5c0.4,0.6,0.2,1.4-0.4,1.7c0,0-1.1,0.7-2.5,1
					C24.9,128.3,23.5,127.8,22.7,127.8z"/>
				<path class="st6" d="M31.6,99.7c0.5-0.6,1-0.9,1.2-0.8c0,0,0,0,0.1,0.1c0.9,0.9,0.2,2.5,0.9,3.5c0.6,0.9,2.6,1.2,3,2.3
					c0.8,2,1.1,5.3,1.1,5.3c0.1,0.7-0.5,1.4-1.3,1.4H34c-0.8,0-1.7-0.6-2.1-1.3l-2.9-5.5c-0.3-0.7-0.2-1.7,0.3-2.3L31.6,99.7z"/>
				<path class="st6" d="M15.6,102.5c0.5,0.6,0.6,1.6,0.3,2.2l-2.9,5.6c-0.3,0.7-1.3,1.3-2.1,1.3H8.3c-0.8,0-1.4-0.7-1.3-1.4
					c0,0,0.3-3.2,1.1-5.2c0.4-1,2.4-1.4,3-2.3c0.7-1,0-2.7,0.9-3.5c0.1-0.1,0.1-0.1,0.1-0.1c0.1-0.1,0.7,0.2,1.2,0.8L15.6,102.5z"/>
				<path class="st6" d="M15.9,119.4c0.4,0.6,0.3,1.7-0.1,2.3l-1.7,2.3c-0.4,0.6-1.1,0.9-1.4,0.6c0,0,0,0-0.3-0.3
					c-0.9-0.9-0.3-2.4-1.2-3.6c-1-1.3-2.5-1.2-2.9-2.3c-0.7-1.6-1.1-3.6-1.1-3.6c-0.1-0.7,0.4-1.1,1.2-1.1h2.5c0.8,0,1.8,0.3,2.1,1
					L15.9,119.4z"/>
				<path class="st6" d="M31.8,114.7c0.4-0.6,1.3-1,2.1-1h2.5c0.8,0,1.4,0.4,1.2,1.1c0,0-0.4,2.1-1.1,3.7c-0.5,1.1-1.9,0.9-2.9,2.3
					c-0.9,1.2-0.3,2.7-1.2,3.5c-0.3,0.3-0.3,0.2-0.3,0.2c-0.3,0.3-1,0-1.4-0.6l-1.7-2.3c-0.4-0.6-0.5-1.5-0.1-2.2L31.8,114.7z"/>
			</g>
			<path class="st7" d="M22.2,128.6c0.7,0,2.2,0.8,3.5,0.5c2.8-0.7,5.3-2.1,7.4-4c1-0.9,0-2.3,1.3-3.8c1.8-2.2,2.9-1.7,3.5-3.1
				c0.9-2.2,1.4-4.7,1.4-7.2s-0.5-4.9-1.4-7c-0.5-1.2-2.6-1.7-3.3-2.8c-0.8-1.2-0.3-2.9-1.3-3.9c-0.1-0.1-0.1-0.1-0.1-0.1
				c-0.1-0.1-0.3-0.4-0.4-0.4c-0.1-0.1-1.1-1.1-1.7-1.5c-3.1-2.2-6.7,0.8-8.9,0.8c-2.9,0-6.1-2.9-9.2-0.8c-0.6,0.4-1.9,1.4-2,1.5
				s-0.3,0.3-0.5,0.4c0,0,0,0-0.1,0.1c-1,1-0.5,2.7-1.3,3.9c-0.7,1.1-2.8,1.6-3.3,2.8c-0.9,2.2-1.4,4.5-1.4,7c0,2.6,0.5,5,1.4,7.2
				c0.5,1.3,1.7,0.9,3.5,3.1c1.2,1.5,0.3,2.9,1.3,3.8c2.1,1.9,4.8,3.3,7.7,4C19.6,129.4,20.7,128.6,22.2,128.6z M22.2,119.7h-2.9
				c-0.8,0-1.8-0.6-2.1-1.2l-3.1-5.6c-0.4-0.6-0.4-1.7,0-2.4l3.1-5.6c0.4-0.6,1.3-1.3,2.1-1.3h2.9h2.3c0.8,0,1.8,0.6,2.1,1.3
				l3.1,5.5c0.4,0.6,0.4,1.7,0,2.4l-3.1,5.6c-0.4,0.6-1.3,1.2-2.1,1.2L22.2,119.7 M22.2,101.5h-2.9c-0.8,0-1.9-0.2-2.4-0.8l-2.6-2.9
				c-0.5-0.6-0.7-1.1-0.6-1.2c0,0,0.1,0,0.3-0.1c2.4-1.6,3.7,1.2,8.1,1.2c3.6,0,5.4-2.7,7.8-1.1c0.2,0.1,0.1,0.1,0.1,0.1
				c0.2,0.1-0.1,0.7-0.6,1.3l-2.6,2.8c-0.5,0.6-1.6,0.8-2.4,0.8L22.2,101.5L22.2,101.5z M22.2,127.3c-1.5,0-2.5,0.5-3.8,0.1
				c-1.4-0.4-2.7-1.1-2.7-1.1c-0.7-0.4-0.9-1.1-0.5-1.8l1.9-2.4c0.4-0.6,1.5-1,2.3-1h2.9h2.2c0.8,0,1.8,0.4,2.3,1l1.9,2.5
				c0.4,0.6,0.2,1.4-0.4,1.7c0,0-1.1,0.7-2.5,1C24.4,127.8,22.9,127.3,22.2,127.3z M31,99.2c0.5-0.6,1-0.9,1.2-0.8c0,0,0,0,0.1,0.1
				c0.9,0.9,0.2,2.5,0.9,3.5c0.6,0.9,2.6,1.2,3,2.3c0.8,2,1.1,5.3,1.1,5.3c0.1,0.7-0.5,1.4-1.3,1.4h-2.6c-0.8,0-1.7-0.6-2.1-1.3
				l-2.9-5.5c-0.3-0.7-0.2-1.7,0.3-2.3L31,99.2z M15,101.9c0.5,0.6,0.6,1.6,0.3,2.2l-2.9,5.6c-0.3,0.7-1.3,1.3-2.1,1.3H7.7
				c-0.8,0-1.4-0.7-1.3-1.4c0,0,0.3-3.2,1.1-5.2c0.4-1,2.4-1.4,3-2.3c0.7-1,0-2.7,0.9-3.5c0.1-0.1,0.1-0.1,0.1-0.1
				c0.1-0.1,0.7,0.2,1.2,0.8L15,101.9z M15.3,118.9c0.4,0.6,0.3,1.7-0.1,2.3l-1.7,2.3c-0.4,0.6-1.1,0.9-1.4,0.6c0,0,0,0-0.3-0.3
				c-0.9-0.9-0.3-2.4-1.2-3.6c-1-1.3-2.5-1.2-2.9-2.3c-0.7-1.6-1.1-3.6-1.1-3.6c-0.1-0.7,0.4-1.1,1.2-1.1h2.5c0.8,0,1.8,0.3,2.1,1
				L15.3,118.9z M31.2,114.1c0.4-0.6,1.3-1,2.1-1h2.5c0.8,0,1.4,0.4,1.2,1.1c0,0-0.4,2.1-1.1,3.7c-0.5,1.1-1.9,0.9-2.9,2.3
				c-0.9,1.2-0.3,2.7-1.2,3.5c-0.3,0.3-0.3,0.2-0.3,0.2c-0.3,0.3-1,0-1.4-0.6l-1.7-2.3c-0.4-0.6-0.5-1.5-0.1-2.2L31.2,114.1z"/>
		</g>
		<g id="eyes">
			<path id="eye_6_" class="st6" d="M25.4,80.9c0,0-0.8,1.4,0.4,2.7c1.2,1.3,2.6,0.5,2.6,0.5S27.4,82,25.4,80.9z"/>
			<path id="eye_7_" class="st6" d="M18.7,80.9c0,0,0.8,1.4-0.4,2.7c-1.2,1.3-2.6,0.5-2.6,0.5S16.7,82,18.7,80.9z"/>
			<path class="st8" d="M18.1,83.1c0.5-0.5,0.3-1.3,0-1.9c-0.8,0.5-1.4,1.2-1.8,1.8C16.8,83.3,17.6,83.6,18.1,83.1z"/>
			<path class="st8" d="M25.9,83.1c-0.5-0.5-0.3-1.3,0-1.9c0.8,0.5,1.4,1.2,1.8,1.8C27.2,83.3,26.4,83.6,25.9,83.1z"/>
		</g>
	</g>
</g>
</svg>
