<?xml version="1.0" encoding="utf-8"?>
<!-- Generator: Adobe Illustrator 19.0.1, SVG Export Plug-In . SVG Version: 6.00 Build 0)  -->
<svg version="1.1" id="Layer_1" xmlns="http://www.w3.org/2000/svg" xmlns:xlink="http://www.w3.org/1999/xlink" x="0px" y="0px"
	 width="43px" height="106.9px" viewBox="0 0 43 106.9" enable-background="new 0 0 43 106.9" xml:space="preserve">
<g>
	<g id="Layer_1_1_">
		<path fill="#FAFAFA" stroke="#E4CBA9" stroke-miterlimit="10" d="M42.5,98.8c0,4.2-3.6,7.6-8,7.6h-26c-4.4,0-8-3.4-8-7.6V8.1
			c0-4.2,3.6-7.6,8-7.6h26c4.4,0,8,3.4,8,7.6V98.8z"/>
		<path fill="#ED2224" d="M23.5,67c0,0.3-0.9,0.6-2,0.6l0,0c-1.1,0-2-0.3-2-0.6V38.2c0-0.3,0.9-0.6,2-0.6l0,0c1.1,0,2,0.3,2,0.6V67z
			"/>
		<path fill="#ED2224" d="M23.5,97.4c0,0.1-0.9,0.2-2,0.2l0,0c-1.1,0-2-0.1-2-0.2v-9.6c0-0.1,0.9-0.2,2-0.2l0,0c1.1,0,2,0.1,2,0.2
			V97.4z"/>
		<g id="Layer_3_2_">
			<g>
				<path fill="#8BC24C" d="M24.7,4.9L24.7,4.9C27.3,6.2,29,9,29,12.3c0,1.5-0.2,1.7-1,3.5c0,0-0.5,1.1-1.2,1.4l0,0l0,0
					c0,0-1,1.1,0.6,2.1c1.2,0.8-3.9,2.5-6.1,2.7c-2.2-0.2-7.5-1.9-6.3-2.7c1.6-1,0.4-2.1,0.4-2.1l0,0c-0.7-0.3-1.3-2-1.3-2
					c-0.4-1.1-0.8-1.9-0.8-3.4c0-3.3,1.7-5.8,4.3-7.1l0,0c0-0.4,2.3-1.5,3.6-1.5C22.6,3.3,24.7,4.5,24.7,4.9L24.7,4.9z M12,24.9
					c0,0-2.3-4.2-5.1-3.4c-2.8,0.8-3.1,2.7-3.1,4.3c0,2.3,2.4,3.7,2.4,3.7C7.6,27,12,24.9,12,24.9z M36,29.5c0,0,2.4-1.4,2.4-3.7
					c0-1.6-0.3-3.6-3.1-4.3c-2.8-0.8-5.1,3.4-5.1,3.4S34.5,27,36,29.5z M6.2,42.1c0,0-3.5,2.7-3.1,4.6c0.5,2.6,3.1,2.4,4.7,2.4
					c3.3-0.1,2.2-1.7,2.2-1.7S7.9,44.6,6.2,42.1z M32.1,47.4c0,0-1,1.6,2.2,1.7c1.6,0,4.3,0.2,4.7-2.4c0.3-1.8-3.1-4.6-3.1-4.6
					C34.2,44.6,32.1,47.4,32.1,47.4z M17.4,53.4c0,0,2.6,4.8,8.1,5.6c0.5,0.1,0.9-0.6,0.7-1c-1.8-2.8-1.6-4.6-1.6-4.6l-3.3-1.2
					L17.4,53.4z"/>
				<path fill="#A3CF66" d="M15.9,16.7c-0.6-0.1-0.9-0.6-1.2-1.2c-1.2-2.9-1.3-4-1.1-4.3c1.5-1.8,2.6-0.3,4.4-2.8
					c1.3-1.8-0.2-2.7,0-2.8c0.3-0.2-0.1-0.7,0-0.8c1.2-0.8,3-1.1,3-1.1s1.8,0.2,3,1.1c0.1,0.1-0.3,0.6,0,0.8c0.2,0.2-1.3,1,0,2.8
					c1.8,2.5,2.9,0.9,4.4,2.8c0.2,0.4,0.2,1.4-1.1,4.3c-0.3,0.6-0.5,1-1.2,1.2c-1.7,0-3,1.1-5.2,1.1C18.9,17.7,17.6,16.7,15.9,16.7z
					 M21.1,21.3c2.2,0.1,6.3-0.8,5.2-1.7c-1.4-1.2,0-2.2-0.2-2.2c-1.7,0-2.1,1.2-5,1.2s-3.3-1.2-5-1.2c-0.2-0.1,1.1,1-0.2,2.2
					C14.8,20.5,18.9,21.4,21.1,21.3z M10.1,26.5c0.8-0.9,1.5-1.3,1.5-1.3s-2.8-4-4.7-3.1c-0.6,0.3-0.9,0.5-1.3,0.8L10.1,26.5z
					 M36.4,22.9c-0.3-0.3-0.6-0.5-1.2-0.8c-1.8-0.9-4.7,3.1-4.7,3.1s0.7,0.5,1.5,1.3L36.4,22.9z M6.7,43.6C6,42.8,6.7,44,6.1,43
					c0,0-3.2,2.4-2.3,3.8c0.1,0.1,0.4,0.5,0.7,0.1L6.7,43.6z M37.6,47c0.4,0.4,0.6,0,0.7-0.1c0.9-1.4-2.3-3.8-2.3-3.8
					c-0.6,0.9,0.1-0.2-0.6,0.6L37.6,47z M20.3,55.8c1,1.2,3.9,2.7,4.4,2.5c0.3-0.1-2-1.1-3.2-2.4c-1.4-1.4-1.6-3.1-1.6-3.1l-1.3,0.3
					C18.6,53.1,19.4,54.8,20.3,55.8z"/>
				<g id="shell">
					<g>
						<path fill="#64A644" d="M21.3,44.4h-2.9c-0.8,0-1.8-0.6-2.1-1.2l-3.1-5.6c-0.4-0.6-0.4-1.7,0-2.4l3.1-5.6
							c0.4-0.6,1.3-1.3,2.1-1.3h2.9h2.3c0.8,0,1.8,0.6,2.1,1.3l3.1,5.5c0.4,0.6,0.4,1.7,0,2.4l-3.1,5.6c-0.4,0.6-1.3,1.2-2.1,1.2
							L21.3,44.4"/>
						<path fill="#64A644" d="M21.3,26.1h-2.9c-0.8,0-1.9-0.2-2.4-0.8l-2.6-2.9c-0.5-0.6-0.7-1.1-0.6-1.2c0,0,0.1,0,0.3-0.1
							c2.4-1.6,3.7,1.2,8.1,1.2c3.6,0,5.4-2.7,7.8-1.1c0.2,0.1,0.1,0.1,0.1,0.1c0.2,0.1-0.1,0.7-0.6,1.3l-2.6,2.8
							c-0.5,0.6-1.6,0.8-2.4,0.8L21.3,26.1L21.3,26.1z"/>
						<path fill="#64A644" d="M21.3,51.9c-1.5,0-2.5,0.5-3.8,0.1c-1.4-0.4-2.7-1-2.7-1c-0.7-0.4-0.9-1.1-0.5-1.8l1.9-2.4
							c0.4-0.6,1.5-1,2.3-1h2.9h2.2c0.8,0,1.8,0.4,2.3,1l1.9,2.5c0.4,0.6,0.2,1.4-0.4,1.7c0,0-1.1,0.7-2.5,1
							C23.5,52.4,22,51.9,21.3,51.9z"/>
						<path fill="#64A644" d="M30.1,23.8c0.5-0.6,1-0.9,1.2-0.8c0,0,0,0,0.1,0.1c0.9,0.9,0.2,2.5,0.9,3.5c0.6,0.9,2.6,1.2,3,2.3
							c0.8,2,1.1,5.3,1.1,5.3c0.1,0.7-0.5,1.4-1.3,1.4h-2.6c-0.8,0-1.7-0.6-2.1-1.3l-2.9-5.5c-0.3-0.7-0.2-1.7,0.3-2.3L30.1,23.8z"
							/>
						<path fill="#64A644" d="M14.2,26.5c0.5,0.6,0.6,1.6,0.3,2.2l-2.9,5.6c-0.3,0.7-1.3,1.3-2.1,1.3H6.9c-0.8,0-1.4-0.7-1.3-1.4
							c0,0,0.3-3.2,1.1-5.2c0.4-1,2.4-1.4,3-2.3c0.7-1,0-2.7,0.9-3.5c0.1-0.1,0.1-0.1,0.1-0.1c0.1-0.1,0.7,0.2,1.2,0.8L14.2,26.5z"
							/>
						<path fill="#64A644" d="M14.4,43.5c0.4,0.6,0.3,1.7-0.1,2.3l-1.7,2.3c-0.4,0.6-1.1,0.9-1.4,0.6c0,0,0,0-0.3-0.3
							c-0.9-0.9-0.3-2.4-1.2-3.6c-1-1.3-2.5-1.2-2.9-2.3c-0.7-1.6-1.1-3.6-1.1-3.6c-0.1-0.7,0.4-1.1,1.2-1.1h2.5
							c0.8,0,1.8,0.3,2.1,1L14.4,43.5z"/>
						<path fill="#64A644" d="M30.3,38.8c0.4-0.6,1.3-1,2.1-1h2.5c0.8,0,1.4,0.4,1.2,1.1c0,0-0.4,2.1-1.1,3.7
							c-0.4,1.1-1.9,0.9-2.9,2.3c-0.9,1.2-0.3,2.7-1.2,3.5c-0.3,0.3-0.3,0.2-0.3,0.2c-0.3,0.3-1,0-1.4-0.6l-1.7-2.3
							c-0.4-0.6-0.5-1.5-0.1-2.2L30.3,38.8z"/>
					</g>
					<g opacity="0.15">
						<path fill="#FFFFFF" d="M21.9,44.9H19c-0.8,0-1.8-0.6-2.1-1.2l-3.1-5.6c-0.4-0.6-0.4-1.7,0-2.4l3.1-5.6
							c0.4-0.6,1.3-1.3,2.1-1.3h2.9h2.3c0.8,0,1.8,0.6,2.1,1.3l3.1,5.5c0.4,0.6,0.4,1.7,0,2.4l-3.1,5.6c-0.4,0.6-1.3,1.2-2.1,1.2
							L21.9,44.9"/>
						<path fill="#FFFFFF" d="M21.9,26.7H19c-0.8,0-1.9-0.2-2.4-0.8L14,23c-0.5-0.6-0.7-1.1-0.6-1.2c0,0,0.1,0,0.3-0.1
							c2.4-1.6,3.7,1.2,8.1,1.2c3.6,0,5.4-2.7,7.8-1.1c0.2,0.1,0.1,0.1,0.1,0.1c0.2,0.1-0.1,0.7-0.6,1.3l-2.6,2.7
							c-0.5,0.6-1.6,0.8-2.4,0.8H21.9L21.9,26.7z"/>
						<path fill="#FFFFFF" d="M21.9,52.5c-1.5,0-2.5,0.5-3.8,0.1c-1.4-0.4-2.7-1-2.7-1c-0.7-0.4-0.9-1.1-0.5-1.8l1.9-2.4
							c0.4-0.6,1.5-1,2.3-1H22h2.2c0.8,0,1.8,0.4,2.3,1l1.9,2.5c0.4,0.6,0.2,1.4-0.4,1.7c0,0-1.1,0.7-2.5,1
							C24,52.9,22.6,52.5,21.9,52.5z"/>
						<path fill="#FFFFFF" d="M30.7,24.4c0.5-0.6,1-0.9,1.2-0.8c0,0,0,0,0.1,0.1c0.9,0.9,0.2,2.5,0.9,3.5c0.6,0.9,2.6,1.2,3,2.3
							c0.8,2,1.1,5.3,1.1,5.3c0.1,0.7-0.5,1.4-1.3,1.4h-2.6c-0.8,0-1.7-0.6-2.1-1.3l-2.9-5.5c-0.3-0.7-0.2-1.7,0.3-2.3L30.7,24.4z"
							/>
						<path fill="#FFFFFF" d="M14.7,27.1c0.5,0.6,0.6,1.6,0.3,2.2l-2.9,5.6c-0.3,0.7-1.3,1.3-2.1,1.3H7.4c-0.8,0-1.4-0.7-1.3-1.4
							c0,0,0.3-3.2,1.1-5.2c0.4-1,2.4-1.4,3-2.3c0.7-1,0-2.7,0.9-3.5c0.1-0.1,0.1-0.1,0.1-0.1c0.1-0.1,0.7,0.2,1.2,0.8L14.7,27.1z"
							/>
						<path fill="#FFFFFF" d="M15,44c0.4,0.6,0.3,1.7-0.1,2.3l-1.7,2.3c-0.4,0.6-1.1,0.9-1.4,0.6c0,0,0,0-0.3-0.3
							c-0.9-0.9-0.3-2.4-1.2-3.6c-1-1.3-2.5-1.2-2.9-2.3c-0.7-1.6-1.1-3.6-1.1-3.6c-0.1-0.7,0.4-1.1,1.2-1.1H10c0.8,0,1.8,0.3,2.1,1
							L15,44z"/>
						<path fill="#FFFFFF" d="M30.9,39.3c0.4-0.6,1.3-1,2.1-1h2.5c0.8,0,1.4,0.4,1.2,1.1c0,0-0.4,2.1-1.1,3.7
							c-0.4,1.1-1.9,0.9-2.9,2.3c-0.9,1.2-0.3,2.7-1.2,3.5c-0.3,0.3-0.3,0.2-0.3,0.2c-0.3,0.3-1,0-1.4-0.6l-1.7-2.3
							c-0.4-0.6-0.5-1.5-0.1-2.2L30.9,39.3z"/>
					</g>
					<path fill="#538A3E" d="M21.3,53.1c0.7,0,2.2,0.8,3.5,0.5c2.8-0.7,5.3-2.1,7.4-4c1-0.9,0-2.3,1.3-3.8c1.8-2.2,2.9-1.7,3.5-3.1
						c0.9-2.2,1.4-4.7,1.4-7.2s-0.5-4.9-1.4-7c-0.5-1.2-2.6-1.7-3.3-2.8c-0.8-1.2-0.3-2.9-1.3-3.9c-0.1-0.1-0.1-0.1-0.1-0.1
						c-0.1-0.1-0.3-0.4-0.4-0.4c-0.1-0.1-1.1-1.1-1.7-1.5c-3.1-2.2-6.7,0.8-8.9,0.8c-2.9,0-6.1-2.9-9.2-0.8c-0.6,0.4-1.9,1.4-2,1.5
						s-0.3,0.3-0.5,0.4c0,0,0,0-0.1,0.1c-1,1-0.5,2.7-1.3,3.9c-0.7,1.1-2.8,1.6-3.3,2.8c-0.9,2.2-1.4,4.5-1.4,7c0,2.6,0.5,5,1.4,7.2
						c0.5,1.3,1.7,0.9,3.5,3.1c1.2,1.5,0.3,2.9,1.3,3.8c2.1,1.9,4.8,3.3,7.7,4C18.7,54.1,19.8,53.1,21.3,53.1z M21.3,44.4h-2.9
						c-0.8,0-1.8-0.6-2.1-1.2l-3.1-5.6c-0.4-0.6-0.4-1.7,0-2.4l3.1-5.6c0.4-0.6,1.3-1.3,2.1-1.3h2.9h2.3c0.8,0,1.8,0.6,2.1,1.3
						l3.1,5.5c0.4,0.6,0.4,1.7,0,2.4l-3.1,5.6c-0.4,0.6-1.3,1.2-2.1,1.2L21.3,44.4 M21.3,26.1h-2.9c-0.8,0-1.9-0.2-2.4-0.8l-2.6-2.9
						c-0.5-0.6-0.7-1.1-0.6-1.2c0,0,0.1,0,0.3-0.1c2.4-1.6,3.7,1.2,8.1,1.2c3.6,0,5.4-2.7,7.8-1.1c0.2,0.1,0.1,0.1,0.1,0.1
						c0.2,0.1-0.1,0.7-0.6,1.3l-2.6,2.8c-0.5,0.6-1.6,0.8-2.4,0.8L21.3,26.1L21.3,26.1z M21.3,51.9c-1.5,0-2.5,0.5-3.8,0.1
						c-1.4-0.4-2.7-1-2.7-1c-0.7-0.4-0.9-1.1-0.5-1.8l1.9-2.4c0.4-0.6,1.5-1,2.3-1h2.9h2.2c0.8,0,1.8,0.4,2.3,1l1.9,2.5
						c0.4,0.6,0.2,1.4-0.4,1.7c0,0-1.1,0.7-2.5,1C23.5,52.4,22,51.9,21.3,51.9z M30.1,23.8c0.5-0.6,1-0.9,1.2-0.8c0,0,0,0,0.1,0.1
						c0.9,0.9,0.2,2.5,0.9,3.5c0.6,0.9,2.6,1.2,3,2.3c0.8,2,1.1,5.3,1.1,5.3c0.1,0.7-0.5,1.4-1.3,1.4h-2.6c-0.8,0-1.7-0.6-2.1-1.3
						l-2.9-5.5c-0.3-0.7-0.2-1.7,0.3-2.3L30.1,23.8z M14.2,26.5c0.5,0.6,0.6,1.6,0.3,2.2l-2.9,5.6c-0.3,0.7-1.3,1.3-2.1,1.3H6.9
						c-0.8,0-1.4-0.7-1.3-1.4c0,0,0.3-3.2,1.1-5.2c0.4-1,2.4-1.4,3-2.3c0.7-1,0-2.7,0.9-3.5c0.1-0.1,0.1-0.1,0.1-0.1
						c0.1-0.1,0.7,0.2,1.2,0.8L14.2,26.5z M14.4,43.5c0.4,0.6,0.3,1.7-0.1,2.3l-1.7,2.3c-0.4,0.6-1.1,0.9-1.4,0.6c0,0,0,0-0.3-0.3
						c-0.9-0.9-0.3-2.4-1.2-3.6c-1-1.3-2.5-1.2-2.9-2.3c-0.7-1.6-1.1-3.6-1.1-3.6c-0.1-0.7,0.4-1.1,1.2-1.1h2.5c0.8,0,1.8,0.3,2.1,1
						L14.4,43.5z M30.3,38.8c0.4-0.6,1.3-1,2.1-1h2.5c0.8,0,1.4,0.4,1.2,1.1c0,0-0.4,2.1-1.1,3.7c-0.4,1.1-1.9,0.9-2.9,2.3
						c-0.9,1.2-0.3,2.7-1.2,3.5c-0.3,0.3-0.3,0.2-0.3,0.2c-0.3,0.3-1,0-1.4-0.6l-1.7-2.3c-0.4-0.6-0.5-1.5-0.1-2.2L30.3,38.8z"/>
				</g>
				<g id="eyes">
					<path id="eye_6_" fill="#FFFFFF" d="M24.5,5.5c0,0-0.8,1.4,0.4,2.7c1.2,1.3,2.6,0.5,2.6,0.5S26.5,6.6,24.5,5.5z"/>
					<path id="eye_7_" fill="#FFFFFF" d="M17.8,5.5c0,0,0.8,1.4-0.4,2.7c-1.2,1.3-2.6,0.5-2.6,0.5S15.8,6.6,17.8,5.5z"/>
					<path fill="#426932" d="M17.2,7.7c0.5-0.5,0.3-1.3,0-1.9c-0.8,0.5-1.4,1.2-1.8,1.8C15.9,7.9,16.7,8.1,17.2,7.7z"/>
					<path fill="#426932" d="M25.1,7.7c-0.5-0.5-0.3-1.3,0-1.9c0.8,0.5,1.4,1.2,1.8,1.8C26.3,7.9,25.6,8.1,25.1,7.7z"/>
				</g>
			</g>
		</g>
	</g>
	<g id="Layer_2">
	</g>
</g>
</svg>
