<?xml version="1.0" encoding="utf-8"?>
<!-- Generator: Adobe Illustrator 20.0.0, SVG Export Plug-In . SVG Version: 6.00 Build 0)  -->
<svg version="1.1" id="Layer_2" xmlns="http://www.w3.org/2000/svg" xmlns:xlink="http://www.w3.org/1999/xlink" x="0px" y="0px"
	 width="43px" height="142px" viewBox="0 0 43 142" style="enable-background:new 0 0 43 142;" xml:space="preserve">
<style type="text/css">
	.st0{fill:#FAFAFA;stroke:#E4CBA9;stroke-miterlimit:10;}
	.st1{fill:#FF0000;}
	.st2{fill:#8BC24C;}
	.st3{fill:#A3CF66;}
	.st4{fill:#64A644;}
	.st5{opacity:0.15;}
	.st6{fill:#FFFFFF;}
	.st7{fill:#538A3E;}
	.st8{fill:#426932;}
</style>
<path class="st0" d="M42.5,133.5c0,4.4-3.6,8-8,8h-26c-4.4,0-8-3.6-8-8V8.5c0-4.4,3.6-8,8-8h26c4.4,0,8,3.6,8,8V133.5z"/>
<g>
	<g>
		<path class="st1" d="M21.5,133.7c-8.3,0-15-6.7-15-15v-5c0-8.3,6.7-15,15-15s15,6.7,15,15v5C36.5,127,29.8,133.7,21.5,133.7z"/>
		<path class="st1" d="M21.5,127.7c-7.7,0-14-6.3-14-14v-5c0-7.7,6.3-14,14-14c7.7,0,14,6.3,14,14v5
			C35.5,121.4,29.2,127.7,21.5,127.7z"/>
		<path class="st1" d="M21.5,121.7c-7.2,0-13-5.8-13-13v-5c0-7.2,5.8-13,13-13s13,5.8,13,13v5C34.5,115.9,28.7,121.7,21.5,121.7z"/>
		<path class="st1" d="M21.5,115.7c-6.6,0-12-5.4-12-12v-5c0-6.6,5.4-12,12-12c6.6,0,12,5.4,12,12v5
			C33.5,110.3,28.1,115.7,21.5,115.7z"/>
		<path class="st1" d="M21.5,109.7c-6.1,0-11-4.9-11-11v-5c0-6.1,4.9-11,11-11s11,4.9,11,11v5C32.5,104.8,27.6,109.7,21.5,109.7z"/>
		<path class="st1" d="M21.5,103.7c-5.5,0-10-4.5-10-10v-5c0-5.5,4.5-10,10-10c5.5,0,10,4.5,10,10v5C31.5,99.2,27,103.7,21.5,103.7z
			"/>
		<path class="st1" d="M21.5,97.7c-5,0-9-4-9-9v-5c0-5,4-9,9-9s9,4,9,9v5C30.5,93.7,26.5,97.7,21.5,97.7z"/>
		<path class="st1" d="M21.5,91.7c-4.4,0-8-3.6-8-8v-5c0-4.4,3.6-8,8-8c4.4,0,8,3.6,8,8v5C29.5,88.1,25.9,91.7,21.5,91.7z"/>
		<path class="st1" d="M21.5,85.7c-3.9,0-7-3.1-7-7v-5c0-3.9,3.1-7,7-7s7,3.1,7,7v5C28.5,82.6,25.4,85.7,21.5,85.7z"/>
		<path class="st1" d="M21.5,79.7c-3.3,0-6-2.7-6-6v-5c0-3.3,2.7-6,6-6s6,2.7,6,6v5C27.5,77,24.8,79.7,21.5,79.7z"/>
		<path class="st1" d="M21.5,73.7c-2.8,0-5-2.2-5-5v-5c0-2.8,2.2-5,5-5c2.8,0,5,2.2,5,5v5C26.5,71.5,24.3,73.7,21.5,73.7z"/>
		<path class="st1" d="M21.5,67.7c-2.2,0-4-1.8-4-4v-5c0-2.2,1.8-4,4-4s4,1.8,4,4v5C25.5,65.9,23.7,67.7,21.5,67.7z"/>
		<path class="st1" d="M21.5,61.7c-1.7,0-3-1.3-3-3v-5c0-1.7,1.3-3,3-3c1.7,0,3,1.3,3,3v5C24.5,60.4,23.2,61.7,21.5,61.7z"/>
		<path class="st1" d="M21.5,55.7c-1.1,0-2-0.9-2-2v-5c0-1.1,0.9-2,2-2s2,0.9,2,2v5C23.5,54.8,22.6,55.7,21.5,55.7z"/>
		<path class="st1" d="M21.5,49.7c-0.6,0-1-0.4-1-1v-5c0-0.6,0.4-1,1-1c0.6,0,1,0.4,1,1v5C22.5,49.3,22.1,49.7,21.5,49.7z"/>
	</g>
	<g id="Layer_3_2_">
		<g>
			<path class="st2" d="M25.6,9.9L25.6,9.9c2.6,1.3,4.3,4.1,4.3,7.5c0,1.5-0.2,1.7-1,3.5c0,0-0.5,1.1-1.2,1.4l0,0l0,0
				c0,0-1,1.1,0.6,2.1c1.2,0.8-3.9,2.5-6.1,2.7c-2.2-0.2-7.5-1.9-6.3-2.7c1.6-1,0.4-2.1,0.4-2.1l0,0c-0.7-0.3-1.3-2-1.3-2
				c-0.4-1.1-0.8-1.9-0.8-3.4c0-3.3,1.7-5.8,4.3-7.1l0,0c0-0.4,2.3-1.5,3.6-1.5C23.5,8.4,25.5,9.5,25.6,9.9L25.6,9.9z M12.9,30
				c0,0-2.3-4.2-5.1-3.4c-2.8,0.8-3.1,2.7-3.1,4.3c0,2.3,2.4,3.7,2.4,3.7C8.5,32,12.9,30,12.9,30z M36.8,34.6c0,0,2.4-1.4,2.4-3.7
				c0-1.6-0.3-3.6-3.1-4.3C33.3,25.8,31,30,31,30S35.4,32,36.8,34.6z M7.1,47.2c0,0-3.5,2.7-3.1,4.6c0.4,2.6,3.1,2.4,4.7,2.4
				c3.3-0.1,2.2-1.7,2.2-1.7S8.7,49.7,7.1,47.2z M32.9,52.5c0,0-1,1.6,2.2,1.7c1.6,0,4.3,0.2,4.7-2.4c0.3-1.8-3.1-4.6-3.1-4.6
				C35.1,49.7,32.9,52.5,32.9,52.5z M18.2,58.5c0,0,2.6,4.8,8.1,5.6c0.5,0.1,0.9-0.6,0.7-1c-1.8-2.8-1.6-4.6-1.6-4.6l-3.3-1.2
				L18.2,58.5z"/>
			<path class="st3" d="M16.8,21.7c-0.6-0.1-0.9-0.6-1.2-1.2c-1.2-2.9-1.3-4-1.1-4.3c1.5-1.8,2.6-0.3,4.4-2.8c1.3-1.8-0.2-2.7,0-2.8
				c0.3-0.2-0.1-0.7,0-0.8c1.2-0.8,3-1.1,3-1.1s1.8,0.2,3,1.1c0.1,0.1-0.3,0.6,0,0.8c0.2,0.2-1.3,1,0,2.8c1.8,2.5,2.9,0.9,4.4,2.8
				c0.2,0.4,0.2,1.4-1.1,4.3c-0.3,0.6-0.5,1-1.2,1.2c-1.7,0-3,1.1-5.2,1.1C19.8,22.8,18.5,21.7,16.8,21.7z M22,26.4
				c2.2,0.1,6.3-0.8,5.2-1.7c-1.4-1.2,0-2.2-0.2-2.2c-1.7,0-2.1,1.2-5,1.2s-3.3-1.2-5-1.2c-0.2-0.1,1.1,1-0.2,2.2
				C15.6,25.6,19.8,26.5,22,26.4z M10.9,31.6c0.8-0.9,1.5-1.3,1.5-1.3s-2.8-4-4.7-3.1c-0.6,0.3-0.9,0.5-1.3,0.8L10.9,31.6z M37.3,28
				c-0.3-0.3-0.6-0.5-1.2-0.8c-1.8-0.9-4.7,3.1-4.7,3.1s0.7,0.5,1.5,1.3L37.3,28z M7.5,48.7c-0.7-0.8,0,0.4-0.6-0.6
				c0,0-3.2,2.4-2.3,3.8C4.7,52,5,52.4,5.3,52L7.5,48.7z M38.5,52c0.4,0.4,0.6,0,0.7-0.1c0.9-1.4-2.3-3.8-2.3-3.8
				c-0.6,0.9,0.1-0.2-0.6,0.6L38.5,52z M21.1,60.8c1,1.2,3.9,2.7,4.4,2.5c0.3-0.1-2-1.1-3.2-2.4c-1.4-1.4-1.6-3.1-1.6-3.1l-1.3,0.3
				C19.5,58.1,20.2,59.8,21.1,60.8z"/>
			<g id="shell">
				<g>
					<path class="st4" d="M22.1,49.4h-2.9c-0.8,0-1.8-0.6-2.1-1.2L14,42.6c-0.4-0.6-0.4-1.7,0-2.4l3.1-5.6c0.4-0.6,1.3-1.3,2.1-1.3
						h2.9h2.3c0.8,0,1.8,0.6,2.1,1.3l3.1,5.5c0.4,0.6,0.4,1.7,0,2.4l-3.1,5.6c-0.4,0.6-1.3,1.2-2.1,1.2L22.1,49.4"/>
					<path class="st4" d="M22.1,31.1h-2.9c-0.8,0-1.9-0.2-2.4-0.8l-2.6-2.9c-0.5-0.6-0.7-1.1-0.6-1.2c0,0,0.1,0,0.3-0.1
						c2.4-1.6,3.7,1.2,8.1,1.2c3.6,0,5.4-2.7,7.8-1.1c0.2,0.1,0.1,0.1,0.1,0.1c0.2,0.1-0.1,0.7-0.6,1.3l-2.6,2.8
						c-0.5,0.6-1.6,0.8-2.4,0.8L22.1,31.1L22.1,31.1z"/>
					<path class="st4" d="M22.1,56.9c-1.5,0-2.5,0.5-3.8,0.1c-1.4-0.4-2.7-1-2.7-1c-0.7-0.4-0.9-1.1-0.5-1.8l1.9-2.4
						c0.4-0.6,1.5-1,2.3-1h2.9h2.2c0.8,0,1.8,0.4,2.3,1l1.9,2.5c0.4,0.6,0.2,1.4-0.4,1.7c0,0-1.1,0.7-2.5,1
						C24.3,57.4,22.9,56.9,22.1,56.9z"/>
					<path class="st4" d="M30.9,28.8c0.5-0.6,1-0.9,1.2-0.8c0,0,0,0,0.1,0.1c0.9,0.9,0.2,2.5,0.9,3.5c0.6,0.9,2.6,1.2,3,2.3
						c0.8,2,1.1,5.3,1.1,5.3c0.1,0.7-0.5,1.4-1.3,1.4h-2.6c-0.8,0-1.7-0.6-2.1-1.3l-2.9-5.5c-0.3-0.7-0.2-1.7,0.3-2.3L30.9,28.8z"/>
					<path class="st4" d="M15,31.6c0.5,0.6,0.6,1.6,0.3,2.2l-2.9,5.6c-0.3,0.7-1.3,1.3-2.1,1.3H7.7c-0.8,0-1.4-0.7-1.3-1.4
						c0,0,0.3-3.2,1.1-5.2c0.4-1,2.4-1.4,3-2.3c0.7-1,0-2.7,0.9-3.5c0.1-0.1,0.1-0.1,0.1-0.1c0.1-0.1,0.7,0.2,1.2,0.8L15,31.6z"/>
					<path class="st4" d="M15.3,48.5c0.4,0.6,0.3,1.7-0.1,2.3l-1.7,2.3c-0.4,0.6-1.1,0.9-1.4,0.6c0,0,0,0-0.3-0.3
						c-0.9-0.9-0.3-2.4-1.2-3.6c-1-1.3-2.5-1.2-2.9-2.3c-0.7-1.6-1.1-3.6-1.1-3.6c-0.1-0.7,0.4-1.1,1.2-1.1h2.5c0.8,0,1.8,0.3,2.1,1
						L15.3,48.5z"/>
					<path class="st4" d="M31.2,43.8c0.4-0.6,1.3-1,2.1-1h2.5c0.8,0,1.4,0.4,1.2,1.1c0,0-0.4,2.1-1.1,3.7c-0.4,1.1-1.9,0.9-2.9,2.3
						c-0.9,1.2-0.3,2.7-1.2,3.5c-0.3,0.3-0.3,0.2-0.3,0.2c-0.3,0.3-1,0-1.4-0.6l-1.7-2.3c-0.4-0.6-0.5-1.5-0.1-2.2L31.2,43.8z"/>
				</g>
				<g class="st5">
					<path class="st6" d="M22.7,49.9h-2.9c-0.8,0-1.8-0.6-2.1-1.2l-3.1-5.6c-0.4-0.6-0.4-1.7,0-2.4l3.1-5.6c0.4-0.6,1.3-1.3,2.1-1.3
						h2.9H25c0.8,0,1.8,0.6,2.1,1.3l3.1,5.5c0.4,0.6,0.4,1.7,0,2.4l-3.1,5.6c-0.4,0.6-1.3,1.2-2.1,1.2L22.7,49.9"/>
					<path class="st6" d="M22.7,31.7h-2.9c-0.8,0-1.9-0.2-2.4-0.8L14.8,28c-0.5-0.6-0.7-1.1-0.6-1.2c0,0,0.1,0,0.3-0.1
						c2.4-1.6,3.7,1.2,8.1,1.2c3.6,0,5.4-2.7,7.8-1.1c0.2,0.1,0.1,0.1,0.1,0.1c0.2,0.1-0.1,0.7-0.6,1.3L27.3,31
						c-0.5,0.6-1.6,0.8-2.4,0.8L22.7,31.7L22.7,31.7z"/>
					<path class="st6" d="M22.7,57.5c-1.5,0-2.5,0.5-3.8,0.1c-1.4-0.4-2.7-1-2.7-1c-0.7-0.4-0.9-1.1-0.5-1.8l1.9-2.4
						c0.4-0.6,1.5-1,2.3-1h2.9H25c0.8,0,1.8,0.4,2.3,1l1.9,2.5c0.4,0.6,0.2,1.4-0.4,1.7c0,0-1.1,0.7-2.5,1
						C24.9,58,23.4,57.5,22.7,57.5z"/>
					<path class="st6" d="M31.5,29.4c0.5-0.6,1-0.9,1.2-0.8c0,0,0,0,0.1,0.1c0.9,0.9,0.2,2.5,0.9,3.5c0.6,0.9,2.6,1.2,3,2.3
						c0.8,2,1.1,5.3,1.1,5.3c0.1,0.7-0.5,1.4-1.3,1.4h-2.6c-0.8,0-1.7-0.6-2.1-1.3l-2.9-5.5c-0.3-0.7-0.2-1.7,0.3-2.3L31.5,29.4z"/>
					<path class="st6" d="M15.6,32.1c0.5,0.6,0.6,1.6,0.3,2.2L13,39.9c-0.3,0.7-1.3,1.3-2.1,1.3H8.3c-0.8,0-1.4-0.7-1.3-1.4
						c0,0,0.3-3.2,1.1-5.2c0.4-1,2.4-1.4,3-2.3c0.7-1,0-2.7,0.9-3.5c0.1-0.1,0.1-0.1,0.1-0.1c0.1-0.1,0.7,0.2,1.2,0.8L15.6,32.1z"/>
					<path class="st6" d="M15.8,49.1c0.4,0.6,0.3,1.7-0.1,2.3L14,53.7c-0.4,0.6-1.1,0.9-1.4,0.6c0,0,0,0-0.3-0.3
						c-0.9-0.9-0.3-2.4-1.2-3.6c-1-1.3-2.5-1.2-2.9-2.3c-0.7-1.6-1.1-3.6-1.1-3.6c-0.1-0.7,0.4-1.1,1.2-1.1h2.5c0.8,0,1.8,0.3,2.1,1
						L15.8,49.1z"/>
					<path class="st6" d="M31.8,44.3c0.4-0.6,1.3-1,2.1-1h2.5c0.8,0,1.4,0.4,1.2,1.1c0,0-0.4,2.1-1.1,3.7c-0.4,1.1-1.9,0.9-2.9,2.3
						c-0.9,1.2-0.3,2.7-1.2,3.5c-0.3,0.3-0.3,0.2-0.3,0.2c-0.3,0.3-1,0-1.4-0.6L29,51.2c-0.4-0.6-0.5-1.5-0.1-2.2L31.8,44.3z"/>
				</g>
				<path class="st7" d="M22.1,58.3c0.7,0,2.2,0.8,3.5,0.5c2.8-0.7,5.3-2.1,7.4-4c1-0.9,0-2.3,1.3-3.8c1.8-2.2,2.9-1.7,3.5-3.1
					c0.9-2.2,1.4-4.7,1.4-7.2s-0.5-4.9-1.4-7c-0.5-1.2-2.6-1.7-3.3-2.8c-0.8-1.2-0.3-2.9-1.3-3.9c-0.1-0.1-0.1-0.1-0.1-0.1
					c-0.1-0.1-0.3-0.4-0.4-0.4c-0.1-0.1-1.1-1.1-1.7-1.5c-3.1-2.2-6.7,0.8-8.9,0.8c-2.9,0-6.1-2.9-9.2-0.8c-0.6,0.4-1.9,1.4-2,1.5
					s-0.3,0.3-0.5,0.4c0,0,0,0-0.1,0.1c-1,1-0.5,2.7-1.3,3.9c-0.7,1.1-2.8,1.6-3.3,2.8c-0.9,2.2-1.4,4.5-1.4,7c0,2.6,0.5,5,1.4,7.2
					c0.5,1.3,1.7,0.9,3.5,3.1c1.2,1.5,0.3,2.9,1.3,3.8c2.1,1.9,4.8,3.3,7.7,4C19.6,59.1,20.7,58.3,22.1,58.3z M22.1,49.4h-2.9
					c-0.8,0-1.8-0.6-2.1-1.2L14,42.6c-0.4-0.6-0.4-1.7,0-2.4l3.1-5.6c0.4-0.6,1.3-1.3,2.1-1.3h2.9h2.3c0.8,0,1.8,0.6,2.1,1.3
					l3.1,5.5c0.4,0.6,0.4,1.7,0,2.4l-3.1,5.6c-0.4,0.6-1.3,1.2-2.1,1.2L22.1,49.4 M22.1,31.1h-2.9c-0.8,0-1.9-0.2-2.4-0.8l-2.6-2.9
					c-0.5-0.6-0.7-1.1-0.6-1.2c0,0,0.1,0,0.3-0.1c2.4-1.6,3.7,1.2,8.1,1.2c3.6,0,5.4-2.7,7.8-1.1c0.2,0.1,0.1,0.1,0.1,0.1
					c0.2,0.1-0.1,0.7-0.6,1.3l-2.6,2.8c-0.5,0.6-1.6,0.8-2.4,0.8L22.1,31.1L22.1,31.1z M22.1,56.9c-1.5,0-2.5,0.5-3.8,0.1
					c-1.4-0.4-2.7-1-2.7-1c-0.7-0.4-0.9-1.1-0.5-1.8l1.9-2.4c0.4-0.6,1.5-1,2.3-1h2.9h2.2c0.8,0,1.8,0.4,2.3,1l1.9,2.5
					c0.4,0.6,0.2,1.4-0.4,1.7c0,0-1.1,0.7-2.5,1C24.3,57.4,22.9,56.9,22.1,56.9z M30.9,28.8c0.5-0.6,1-0.9,1.2-0.8c0,0,0,0,0.1,0.1
					c0.9,0.9,0.2,2.5,0.9,3.5c0.6,0.9,2.6,1.2,3,2.3c0.8,2,1.1,5.3,1.1,5.3c0.1,0.7-0.5,1.4-1.3,1.4h-2.6c-0.8,0-1.7-0.6-2.1-1.3
					l-2.9-5.5c-0.3-0.7-0.2-1.7,0.3-2.3L30.9,28.8z M15,31.6c0.5,0.6,0.6,1.6,0.3,2.2l-2.9,5.6c-0.3,0.7-1.3,1.3-2.1,1.3H7.7
					c-0.8,0-1.4-0.7-1.3-1.4c0,0,0.3-3.2,1.1-5.2c0.4-1,2.4-1.4,3-2.3c0.7-1,0-2.7,0.9-3.5c0.1-0.1,0.1-0.1,0.1-0.1
					c0.1-0.1,0.7,0.2,1.2,0.8L15,31.6z M15.3,48.5c0.4,0.6,0.3,1.7-0.1,2.3l-1.7,2.3c-0.4,0.6-1.1,0.9-1.4,0.6c0,0,0,0-0.3-0.3
					c-0.9-0.9-0.3-2.4-1.2-3.6c-1-1.3-2.5-1.2-2.9-2.3c-0.7-1.6-1.1-3.6-1.1-3.6c-0.1-0.7,0.4-1.1,1.2-1.1h2.5c0.8,0,1.8,0.3,2.1,1
					L15.3,48.5z M31.2,43.8c0.4-0.6,1.3-1,2.1-1h2.5c0.8,0,1.4,0.4,1.2,1.1c0,0-0.4,2.1-1.1,3.7c-0.4,1.1-1.9,0.9-2.9,2.3
					c-0.9,1.2-0.3,2.7-1.2,3.5c-0.3,0.3-0.3,0.2-0.3,0.2c-0.3,0.3-1,0-1.4-0.6l-1.7-2.3c-0.4-0.6-0.5-1.5-0.1-2.2L31.2,43.8z"/>
			</g>
			<g id="eyes">
				<path id="eye_6_" class="st6" d="M25.4,10.5c0,0-0.8,1.4,0.4,2.7c1.2,1.3,2.6,0.5,2.6,0.5S27.3,11.6,25.4,10.5z"/>
				<path id="eye_7_" class="st6" d="M18.6,10.5c0,0,0.8,1.4-0.4,2.7c-1.2,1.3-2.6,0.5-2.6,0.5S16.6,11.6,18.6,10.5z"/>
				<path class="st8" d="M18.1,12.7c0.5-0.5,0.3-1.3,0.1-1.9c-0.8,0.5-1.4,1.2-1.8,1.8C16.8,12.9,17.6,13.3,18.1,12.7z"/>
				<path class="st8" d="M25.9,12.7c-0.5-0.5-0.3-1.3,0-1.9c0.8,0.5,1.4,1.2,1.8,1.8C27.2,12.9,26.4,13.3,25.9,12.7z"/>
			</g>
		</g>
	</g>
</g>
</svg>
