<?xml version="1.0" encoding="utf-8"?>
<!-- Generator: Adobe Illustrator 19.0.1, SVG Export Plug-In . SVG Version: 6.00 Build 0)  -->
<svg version="1.1" id="Layer_1" xmlns="http://www.w3.org/2000/svg" xmlns:xlink="http://www.w3.org/1999/xlink" x="0px" y="0px"
	 width="43px" height="82.9px" viewBox="0 0 43 82.9" enable-background="new 0 0 43 82.9" xml:space="preserve">
<g id="Layer_1_1_">
	<path fill="#FAFAFA" stroke="#E4CBA9" stroke-miterlimit="10" d="M42.5,77.6c0,2.7-3.6,4.8-8,4.8h-26c-4.4,0-8-2.2-8-4.8V5.3
		c0-2.7,3.6-4.8,8-4.8h26c4.4,0,8,2.2,8,4.8V77.6z"/>
	<path fill="#ED2224" d="M23.4,74c0,0.1-0.9,0.2-2,0.2l0,0c-1.1,0-2-0.1-2-0.2v-9.6c0-0.1,0.9-0.2,2-0.2l0,0c1.1,0,2,0.1,2,0.2V74z"
		/>
	<g id="Layer_3_2_">
		<g>
			<path fill="#8BC24C" d="M25.3,5L25.3,5c2.6,1.3,4.3,4.1,4.3,7.4c0,1.5-0.2,1.7-1,3.5c0,0-0.5,1.1-1.2,1.4l0,0l0,0
				c0,0-1,1.1,0.6,2.1c1.2,0.8-3.9,2.5-6.1,2.7c-2.2-0.2-7.5-1.9-6.3-2.7c1.6-1,0.4-2.1,0.4-2.1l0,0c-0.7-0.3-1.3-2-1.3-2
				c-0.4-1.1-0.8-1.9-0.8-3.4c0-3.3,1.7-5.8,4.3-7.1l0,0c0-0.4,2.3-1.5,3.6-1.5C23.2,3.5,25.3,4.6,25.3,5L25.3,5z M12.6,25.1
				c0,0-2.3-4.2-5.1-3.4c-2.8,0.8-3.1,2.7-3.1,4.3c0,2.3,2.4,3.7,2.4,3.7C8.3,27.1,12.6,25.1,12.6,25.1z M36.6,29.7
				c0,0,2.4-1.4,2.4-3.7c0-1.6-0.3-3.6-3.1-4.3c-2.8-0.8-5.1,3.4-5.1,3.4S35.1,27.1,36.6,29.7z M6.8,42.3c0,0-3.5,2.7-3.1,4.6
				c0.5,2.6,3.1,2.4,4.7,2.4c3.3-0.1,2.2-1.7,2.2-1.7S8.5,44.7,6.8,42.3z M32.7,47.5c0,0-1,1.6,2.2,1.7c1.6,0,4.3,0.2,4.7-2.4
				c0.3-1.8-3.1-4.6-3.1-4.6C34.8,44.7,32.7,47.5,32.7,47.5z M18,53.6c0,0,2.6,4.8,8.1,5.6c0.5,0.1,0.9-0.6,0.7-1
				c-1.8-2.8-1.6-4.6-1.6-4.6l-3.3-1.2L18,53.6z"/>
			<path fill="#A3CF66" d="M16.5,16.8c-0.6-0.1-0.9-0.6-1.2-1.2c-1.2-2.9-1.3-4-1.1-4.3c1.5-1.8,2.6-0.3,4.4-2.8
				c1.3-1.8-0.2-2.7,0-2.8c0.3-0.2-0.1-0.7,0-0.8c1.2-0.8,3-1.1,3-1.1s1.8,0.2,3,1.1c0.1,0.1-0.3,0.6,0,0.8c0.2,0.2-1.3,1,0,2.8
				c1.8,2.5,2.9,0.9,4.4,2.8c0.2,0.4,0.2,1.4-1.1,4.3c-0.3,0.6-0.5,1-1.2,1.2c-1.7,0-3,1.1-5.2,1.1C19.5,17.8,18.2,16.8,16.5,16.8z
				 M21.7,21.4c2.2,0.1,6.3-0.8,5.2-1.7c-1.4-1.2,0-2.2-0.2-2.2c-1.7,0-2.1,1.2-5,1.2s-3.3-1.2-5-1.2c-0.2-0.1,1.1,1-0.2,2.2
				C15.4,20.7,19.5,21.5,21.7,21.4z M10.7,26.6c0.8-0.9,1.5-1.3,1.5-1.3s-2.8-4-4.7-3.1c-0.6,0.3-0.9,0.5-1.3,0.8L10.7,26.6z
				 M37.1,23.1c-0.3-0.3-0.6-0.5-1.2-0.8c-1.8-0.9-4.7,3.1-4.7,3.1s0.7,0.5,1.5,1.3L37.1,23.1z M7.3,43.7c-0.7-0.8,0,0.4-0.6-0.6
				c0,0-3.2,2.4-2.3,3.8C4.5,47,4.8,47.4,5.1,47L7.3,43.7z M38.2,47.1c0.4,0.4,0.6,0,0.7-0.1c0.9-1.4-2.3-3.8-2.3-3.8
				C36,44.1,36.7,43,36,43.8L38.2,47.1z M20.9,55.9c1,1.2,3.9,2.7,4.4,2.5c0.3-0.1-2-1.1-3.2-2.4c-1.4-1.4-1.6-3.1-1.6-3.1l-1.3,0.3
				C19.2,53.2,20,54.9,20.9,55.9z"/>
			<g id="shell">
				<g>
					<path fill="#64A644" d="M21.9,44.5H19c-0.8,0-1.8-0.6-2.1-1.2l-3.1-5.6c-0.4-0.6-0.4-1.7,0-2.4l3.1-5.6
						c0.4-0.6,1.3-1.3,2.1-1.3h2.9h2.3c0.8,0,1.8,0.6,2.1,1.3l3.1,5.5c0.4,0.6,0.4,1.7,0,2.4l-3.1,5.6c-0.4,0.6-1.3,1.2-2.1,1.2
						L21.9,44.5"/>
					<path fill="#64A644" d="M21.9,26.2H19c-0.8,0-1.9-0.2-2.4-0.8L14,22.5c-0.5-0.6-0.7-1.1-0.6-1.2c0,0,0.1,0,0.3-0.1
						c2.4-1.6,3.7,1.2,8.1,1.2c3.6,0,5.4-2.7,7.8-1.1c0.2,0.1,0.1,0.1,0.1,0.1c0.2,0.1-0.1,0.7-0.6,1.3l-2.6,2.8
						c-0.5,0.6-1.6,0.8-2.4,0.8L21.9,26.2L21.9,26.2z"/>
					<path fill="#64A644" d="M21.9,52c-1.5,0-2.5,0.5-3.8,0.1c-1.4-0.4-2.7-1-2.7-1c-0.7-0.4-0.9-1.1-0.5-1.8l1.9-2.4
						c0.4-0.6,1.5-1,2.3-1H22h2.2c0.8,0,1.8,0.4,2.3,1l1.9,2.5c0.4,0.6,0.2,1.4-0.4,1.7c0,0-1.1,0.7-2.5,1
						C24.1,52.5,22.6,52,21.9,52z"/>
					<path fill="#64A644" d="M30.7,23.9c0.5-0.6,1-0.9,1.2-0.8c0,0,0,0,0.1,0.1c0.9,0.9,0.2,2.5,0.9,3.5c0.6,0.9,2.6,1.2,3,2.3
						c0.8,2,1.1,5.3,1.1,5.3c0.1,0.7-0.5,1.4-1.3,1.4h-2.6c-0.8,0-1.7-0.6-2.1-1.3l-2.9-5.5c-0.3-0.7-0.2-1.7,0.3-2.3L30.7,23.9z"/>
					<path fill="#64A644" d="M14.8,26.7c0.5,0.6,0.6,1.6,0.3,2.2l-2.9,5.6c-0.3,0.7-1.3,1.3-2.1,1.3H7.5c-0.8,0-1.4-0.7-1.3-1.4
						c0,0,0.3-3.2,1.1-5.2c0.4-1,2.4-1.4,3-2.3c0.7-1,0-2.7,0.9-3.5c0.1-0.1,0.1-0.1,0.1-0.1c0.1-0.1,0.7,0.2,1.2,0.8L14.8,26.7z"/>
					<path fill="#64A644" d="M15,43.6c0.4,0.6,0.3,1.7-0.1,2.3l-1.7,2.3c-0.4,0.6-1.1,0.9-1.4,0.6c0,0,0,0-0.3-0.3
						c-0.9-0.9-0.3-2.4-1.2-3.6c-1-1.3-2.5-1.2-2.9-2.3C6.7,41,6.3,39,6.3,39c-0.1-0.7,0.4-1.1,1.2-1.1H10c0.8,0,1.8,0.3,2.1,1
						L15,43.6z"/>
					<path fill="#64A644" d="M30.9,38.9c0.4-0.6,1.3-1,2.1-1h2.5c0.8,0,1.4,0.4,1.2,1.1c0,0-0.4,2.1-1.1,3.7
						c-0.4,1.1-1.9,0.9-2.9,2.3c-0.9,1.2-0.3,2.7-1.2,3.5c-0.3,0.3-0.3,0.2-0.3,0.2c-0.3,0.3-1,0-1.4-0.6l-1.7-2.3
						c-0.4-0.6-0.5-1.5-0.1-2.2L30.9,38.9z"/>
				</g>
				<g opacity="0.15">
					<path fill="#FFFFFF" d="M22.5,45h-2.9c-0.8,0-1.8-0.6-2.1-1.2l-3.1-5.6c-0.4-0.6-0.4-1.7,0-2.4l3.1-5.6
						c0.4-0.6,1.3-1.3,2.1-1.3h2.9h2.3c0.8,0,1.8,0.6,2.1,1.3l3.1,5.5c0.4,0.6,0.4,1.7,0,2.4l-3.1,5.6c-0.4,0.6-1.3,1.2-2.1,1.2
						L22.5,45"/>
					<path fill="#FFFFFF" d="M22.5,26.8h-2.9c-0.8,0-1.9-0.2-2.4-0.8l-2.6-2.9c-0.5-0.6-0.7-1.1-0.6-1.2c0,0,0.1,0,0.3-0.1
						c2.4-1.6,3.7,1.2,8.1,1.2c3.6,0,5.4-2.7,7.8-1.1c0.2,0.1,0.1,0.1,0.1,0.1c0.2,0.1-0.1,0.7-0.6,1.3l-2.6,2.8
						c-0.5,0.6-1.6,0.8-2.4,0.8L22.5,26.8L22.5,26.8z"/>
					<path fill="#FFFFFF" d="M22.5,52.6c-1.5,0-2.5,0.5-3.8,0.1c-1.4-0.4-2.7-1-2.7-1c-0.7-0.4-0.9-1.1-0.5-1.8l1.9-2.4
						c0.4-0.6,1.5-1,2.3-1h2.9h2.2c0.8,0,1.8,0.4,2.3,1L29,50c0.4,0.6,0.2,1.4-0.4,1.7c0,0-1.1,0.7-2.5,1
						C24.7,53.1,23.2,52.6,22.5,52.6z"/>
					<path fill="#FFFFFF" d="M31.3,24.5c0.5-0.6,1-0.9,1.2-0.8c0,0,0,0,0.1,0.1c0.9,0.9,0.2,2.5,0.9,3.5c0.6,0.9,2.6,1.2,3,2.3
						c0.8,2,1.1,5.3,1.1,5.3c0.1,0.7-0.5,1.4-1.3,1.4h-2.6c-0.8,0-1.7-0.6-2.1-1.3l-2.9-5.5c-0.3-0.7-0.2-1.7,0.3-2.3L31.3,24.5z"/>
					<path fill="#FFFFFF" d="M15.3,27.2c0.5,0.6,0.6,1.6,0.3,2.2L12.7,35c-0.3,0.7-1.3,1.3-2.1,1.3H8c-0.8,0-1.4-0.7-1.3-1.4
						c0,0,0.3-3.2,1.1-5.2c0.4-1,2.4-1.4,3-2.3c0.7-1,0-2.7,0.9-3.5c0.1-0.1,0.1-0.1,0.1-0.1c0.1-0.1,0.7,0.2,1.2,0.8L15.3,27.2z"/>
					<path fill="#FFFFFF" d="M15.6,44.2c0.4,0.6,0.3,1.7-0.1,2.3l-1.7,2.3c-0.4,0.6-1.1,0.9-1.4,0.6c0,0,0,0-0.3-0.3
						c-0.9-0.9-0.3-2.4-1.2-3.6c-1-1.3-2.5-1.2-2.9-2.3c-0.7-1.6-1.1-3.6-1.1-3.6c-0.1-0.7,0.4-1.1,1.2-1.1h2.5c0.8,0,1.8,0.3,2.1,1
						L15.6,44.2z"/>
					<path fill="#FFFFFF" d="M31.5,39.4c0.4-0.6,1.3-1,2.1-1h2.5c0.8,0,1.4,0.4,1.2,1.1c0,0-0.4,2.1-1.1,3.7
						c-0.4,1.1-1.9,0.9-2.9,2.3c-0.9,1.2-0.3,2.7-1.2,3.5c-0.3,0.3-0.3,0.2-0.3,0.2c-0.3,0.3-1,0-1.4-0.6l-1.7-2.3
						c-0.4-0.6-0.5-1.5-0.1-2.2L31.5,39.4z"/>
				</g>
				<path fill="#538A3E" d="M21.9,53.4c0.7,0,2.2,0.8,3.5,0.5c2.8-0.7,5.3-2.1,7.4-4c1-0.9,0-2.3,1.3-3.8c1.8-2.2,2.9-1.7,3.5-3.1
					c0.9-2.2,1.4-4.7,1.4-7.2s-0.5-4.9-1.4-7c-0.5-1.2-2.6-1.7-3.3-2.8c-0.8-1.2-0.3-2.9-1.3-3.9C32.9,22,32.9,22,32.9,22
					c-0.1-0.1-0.3-0.4-0.4-0.4c-0.1-0.1-1.1-1.1-1.7-1.5c-3.1-2.2-6.7,0.8-8.9,0.8c-2.9,0-6.1-2.9-9.2-0.8c-0.6,0.4-1.9,1.4-2,1.5
					s-0.3,0.3-0.5,0.4c0,0,0,0-0.1,0.1c-1,1-0.5,2.7-1.3,3.9c-0.7,1.1-2.8,1.6-3.3,2.8c-0.9,2.2-1.4,4.5-1.4,7c0,2.6,0.5,5,1.4,7.2
					C6,44.3,7.2,43.9,9,46.1c1.2,1.5,0.3,2.9,1.3,3.8c2.1,1.9,4.8,3.3,7.7,4C19.3,54.2,20.4,53.4,21.9,53.4z M21.9,44.5H19
					c-0.8,0-1.8-0.6-2.1-1.2l-3.1-5.6c-0.4-0.6-0.4-1.7,0-2.4l3.1-5.6c0.4-0.6,1.3-1.3,2.1-1.3h2.9h2.3c0.8,0,1.8,0.6,2.1,1.3
					l3.1,5.5c0.4,0.6,0.4,1.7,0,2.4l-3.1,5.6c-0.4,0.6-1.3,1.2-2.1,1.2L21.9,44.5 M21.9,26.2H19c-0.8,0-1.9-0.2-2.4-0.8L14,22.5
					c-0.5-0.6-0.7-1.1-0.6-1.2c0,0,0.1,0,0.3-0.1c2.4-1.6,3.7,1.2,8.1,1.2c3.6,0,5.4-2.7,7.8-1.1c0.2,0.1,0.1,0.1,0.1,0.1
					c0.2,0.1-0.1,0.7-0.6,1.3l-2.6,2.8c-0.5,0.6-1.6,0.8-2.4,0.8L21.9,26.2L21.9,26.2z M21.9,52c-1.5,0-2.5,0.5-3.8,0.1
					c-1.4-0.4-2.7-1-2.7-1c-0.7-0.4-0.9-1.1-0.5-1.8l1.9-2.4c0.4-0.6,1.5-1,2.3-1H22h2.2c0.8,0,1.8,0.4,2.3,1l1.9,2.5
					c0.4,0.6,0.2,1.4-0.4,1.7c0,0-1.1,0.7-2.5,1C24.1,52.5,22.6,52,21.9,52z M30.7,23.9c0.5-0.6,1-0.9,1.2-0.8c0,0,0,0,0.1,0.1
					c0.9,0.9,0.2,2.5,0.9,3.5c0.6,0.9,2.6,1.2,3,2.3c0.8,2,1.1,5.3,1.1,5.3c0.1,0.7-0.5,1.4-1.3,1.4h-2.6c-0.8,0-1.7-0.6-2.1-1.3
					l-2.9-5.5c-0.3-0.7-0.2-1.7,0.3-2.3L30.7,23.9z M14.8,26.7c0.5,0.6,0.6,1.6,0.3,2.2l-2.9,5.6c-0.3,0.7-1.3,1.3-2.1,1.3H7.5
					c-0.8,0-1.4-0.7-1.3-1.4c0,0,0.3-3.2,1.1-5.2c0.4-1,2.4-1.4,3-2.3c0.7-1,0-2.7,0.9-3.5c0.1-0.1,0.1-0.1,0.1-0.1
					c0.1-0.1,0.7,0.2,1.2,0.8L14.8,26.7z M15,43.6c0.4,0.6,0.3,1.7-0.1,2.3l-1.7,2.3c-0.4,0.6-1.1,0.9-1.4,0.6c0,0,0,0-0.3-0.3
					c-0.9-0.9-0.3-2.4-1.2-3.6c-1-1.3-2.5-1.2-2.9-2.3C6.7,41,6.3,39,6.3,39c-0.1-0.7,0.4-1.1,1.2-1.1H10c0.8,0,1.8,0.3,2.1,1
					L15,43.6z M30.9,38.9c0.4-0.6,1.3-1,2.1-1h2.5c0.8,0,1.4,0.4,1.2,1.1c0,0-0.4,2.1-1.1,3.7c-0.4,1.1-1.9,0.9-2.9,2.3
					c-0.9,1.2-0.3,2.7-1.2,3.5c-0.3,0.3-0.3,0.2-0.3,0.2c-0.3,0.3-1,0-1.4-0.6l-1.7-2.3c-0.4-0.6-0.5-1.5-0.1-2.2L30.9,38.9z"/>
			</g>
			<g id="eyes">
				<path id="eye_6_" fill="#FFFFFF" d="M25.1,5.6c0,0-0.8,1.4,0.4,2.7c1.2,1.3,2.6,0.5,2.6,0.5S27.1,6.7,25.1,5.6z"/>
				<path id="eye_7_" fill="#FFFFFF" d="M18.4,5.6c0,0,0.8,1.4-0.4,2.7c-1.2,1.3-2.6,0.5-2.6,0.5S16.4,6.7,18.4,5.6z"/>
				<path fill="#426932" d="M17.8,7.8c0.5-0.5,0.3-1.3,0-1.9C17,6.4,16.4,7.1,16,7.7C16.6,8,17.3,8.4,17.8,7.8z"/>
				<path fill="#426932" d="M25.7,7.8c-0.5-0.5-0.3-1.3,0-1.9c0.8,0.5,1.4,1.2,1.8,1.8C27,8,26.2,8.4,25.7,7.8z"/>
			</g>
		</g>
	</g>
</g>
<g id="Layer_2">
</g>
</svg>
