<?xml version="1.0" encoding="utf-8"?>
<!-- Generator: Adobe Illustrator 19.0.1, SVG Export Plug-In . SVG Version: 6.00 Build 0)  -->
<svg version="1.1" id="Layer_1" xmlns="http://www.w3.org/2000/svg" xmlns:xlink="http://www.w3.org/1999/xlink" x="0px" y="0px"
	 width="119px" height="99px" viewBox="0 0 119 99" enable-background="new 0 0 119 99" xml:space="preserve">
<path fill="#FAFAFA" stroke="#E4CBA9" stroke-miterlimit="10" d="M8.5,98.5c-4.4,0-8-3.6-8-8v-82c0-4.4,3.6-8,8-8h102
	c4.4,0,8,3.6,8,8v82c0,4.4-3.6,8-8,8H8.5L8.5,98.5z"/>
<path fill="none" stroke="#ED1C24" stroke-width="3" stroke-miterlimit="10" d="M17.2,69.7v-0.2L18,67l0.7-2.9l-0.6-5.3l-0.9-5.2
	l-2.1-3l-1.9-5.8l-0.5-3.4l0.1-3.4l0.2-2.1l0.8-1.7l1.4-1.9l1.4-1.2l2.3-1.4h5.3l2.3,1.4l1.3,1.1l1.4,1.9l0.8,1.6l0.3,2.3l0.1,3.4
	l-0.5,3.4l-1.8,5.6L26,53.5l-0.9,5.2l-0.6,5.4l0.7,2.8l0.8,2.5l1,1.2l1.8,1.7l1.8,0.6l1.6,0.5h0.1l1.7-0.5l1.8-0.6l1.8-1.7l1-1.2
	l0.8-2.5l0.7-2.9l-0.6-5.3l-0.9-5.2l-2.1-3l-1.9-5.8l-0.5-3.4l0.1-3.4l0.2-2.1l0.8-1.7l1.4-1.9L38,31l2.3-1.4h2.6l0,0
	c0.2,0,0.5,0,1,0h1.7l2.3,1.4l1.3,1.1l1.4,1.9l0.8,1.6l0.3,2.3l0.1,3.4l-0.5,3.4l-1.8,5.6l-2.1,3.2l-0.9,5.2l-0.6,5.4l0.7,2.8
	l0.8,2.5l1,1.2l1.8,1.7l1.8,0.6l1.7,0.5h0.2l1.8-0.5l1.8-0.6l1.8-1.7l1-1.2l0.8-2.5l0.7-2.9l-0.6-5.3L60,53.5l-2.1-3L56,44.7
	l-0.5-3.4l0.1-3.4l0.2-2.1l0.8-1.7l1.4-1.9l1.4-1.2l2.3-1.4H67l2.3,1.4l1.3,1.1L72,34l0.8,1.6l0.3,2.3l0.1,3.4l-0.5,3.4l-1.8,5.6
	l-2.1,3.2l-0.9,5.2l-0.6,5.4L68,67l0.8,2.5l1,1.2l0.8,1.7l-1.5-2.1v1.1L68,70.1l-0.9-2.8l-0.7-3.1l0.6-5.6l0.9-5.3l2.2-3.2l1.7-5.4
	l0.5-3.2l-0.1-3.3L72,36.1l-0.7-1.4L70.1,33l-1.2-1l-2-1.2h-4.7l-2,1.2l-1.3,1l-1.2,1.7L57,36.1l-0.2,2l-0.1,3.2l0.5,3.2L59,50
	l2.1,3.1l1,5.5l0.6,5.5L62,67.2l-0.8,2.6L60,71.3l-2,1.9l-3.9,1.2h-0.4l-1.9-0.5l-2-0.6l-2-1.9l-1.1-1.3l-0.9-2.8l-0.7-3.1l0.6-5.6
	l0.9-5.3l2.2-3.2l1.7-5.4l0.5-3.2l-0.1-3.3l-0.2-2.1L50,34.7L48.8,33l-1.2-1l-2-1.2h-1.4c0,0-0.2,0-0.5,0h-2.9l-2,1.2l-1.3,1
	l-1.2,1.7l-0.7,1.4l-0.2,2l-0.1,3.2l0.5,3.2l1.8,5.5l2.1,3.1l1,5.5l0.6,5.5l-0.7,3.1l-0.8,2.6l-1.2,1.5l-2,1.9l-3.9,1.2l-2.1-0.5
	l-2-0.6l-2-1.9l-1.1-1.3l-0.9-2.8l-0.7-3.1l0.6-5.6l1-5.3l2.2-3.2l1.7-5.4l0.5-3.2l-0.1-3.3l-0.2-2.1l-0.7-1.4L27.7,33l-1.2-1
	l-2-1.2h-4.7l-2,1.2l-1.3,1l-1.2,1.7l-0.7,1.4l-0.2,2l-0.1,3.2l0.5,3.2l1.8,5.5l2.1,3.1l1,5.5l0.6,5.5l-0.7,3.1l-0.8,2.6l-0.2,0.5
	L17.2,69.7z M69.2,74.4H64L61.7,73l-1.4-1.2l-1.4-1.9l-0.8-1.7l-0.2-2.1l-0.1-3.4l0.5-3.4l1.9-5.8l2.1-3l0.9-5.2l0.6-5.3l-0.7-2.9
	l-0.8-2.5l-1-1.2l-1.8-1.7l-1.8-0.6l-1.8-0.5h-0.2L54,31.1l-1.8,0.6l-1.8,1.7l-1,1.2l-0.8,2.5l-0.7,2.8l0.6,5.4l0.9,5.2l2.1,3.2
	l1.8,5.6l0.5,3.4l-0.1,3.4l-0.3,2.3L52.6,70l-1.4,1.9L49.9,73l-2.3,1.4H46c-0.4,0-0.7,0-1,0l0,0h-2.6L40.1,73l-1.4-1.2l-1.4-1.9
	l-0.8-1.7l-0.2-2.1l-0.1-3.4l0.5-3.4l1.9-5.8l2.1-3l0.9-5.2l0.6-5.3l-0.7-2.9l-0.8-2.5l-1-1.2l-1.8-1.7l-1.8-0.6l-1.7-0.5h-0.1
	l-1.6,0.5l-1.8,0.6l-1.8,1.7l-1,1.2l-0.8,2.5l-0.7,2.8l0.6,5.4l0.9,5.2l2.1,3.2l1.8,5.6l0.5,3.4l-0.1,3.4l-0.3,2.3L31.3,70l-1.4,1.9
	L28.6,73l-2.3,1.4H21L18.7,73l-1.4-1.2l-1.4-1.9l-0.8-1.7l-0.2-2.1l-0.1-3.4l0.5-3.4l1.9-5.8l2.1-3l0.9-5.2l0.6-5.3l-0.7-2.9
	l-0.8-2.5l-1-1.2l-1.8-1.7l-1.8-0.6l-2.1-0.6l0.3-1l2.1,0.6l2,0.6l2,1.9l1.2,1.5l0.8,2.6l0.7,3.1l-0.6,5.5l-1,5.5L18,53.9l-1.8,5.5
	l-0.5,3.2l0.1,3.2l0.2,2l0.7,1.4l1.2,1.7l1.3,1l2,1.2h4.7l2-1.2l1.2-1l1.2-1.7l0.7-1.4l0.2-2.1l0.1-3.3l-0.5-3.2l-1.7-5.4l-2.2-3.2
	l-1-5.3l-0.6-5.6l0.7-3.1l0.9-2.8l1.1-1.3l2-1.9l2-0.6l2.1-0.5l3.9,1.2l2,1.9l1.2,1.5l0.8,2.6l0.7,3.1l-0.6,5.5l-1,5.5L39,53.9
	l-1.8,5.5l-0.5,3.2l0.1,3.2l0.2,2l0.7,1.4l1.2,1.7l1.3,1l2,1.2h2.9c0.2,0,0.5,0,0.5,0H47l2-1.2l1.2-1l1.2-1.7l0.7-1.4l0.2-2.1
	l0.1-3.3l-0.5-3.2l-1.7-5.4L48,50.6l-0.9-5.3l-0.6-5.6l0.7-3.1l0.9-2.8l1.1-1.3l2-1.9l2-0.6l1.9-0.5h0.4l3.9,1.2l2,1.9l1.2,1.5
	l0.8,2.6l0.7,3.1l-0.6,5.5l-1,5.5l-2.1,3.1l-1.8,5.5l-0.5,3.2l0.1,3.2l0.2,2l0.7,1.4l1.2,1.7l1.3,1l2,1.2h4.7l2-1.2l1.2-1l1.2-1.7
	l0.7-1.4l0.2-2.1l0.1-3.3l-0.5-3.2l-1.7-5.4l-2.2-3.2L69,45.5l-0.6-5.6l0.7-3.1L70,34l1.1-1.3l2-1.9l2-0.6l2.2-0.6l0.3,1l-2.1,0.6
	l-1.8,0.6l-1.8,1.7l-1,1.2l-0.8,2.5l-0.7,2.9l0.6,5.4l0.9,5.2l2.1,3.2l1.8,5.6l0.5,3.4l-0.1,3.4l-0.3,2.3l-0.8,1.6l-1.4,1.9
	l-1.3,1.1L69.2,74.4z"/>
<g id="Layer_3_2_">
	<g>
		<path fill="#8BC24C" d="M99.7,68.8L99.7,68.8c-2.9,0.3-5.8-1-7.7-3.8c-0.9-1.3-0.8-1.5-1.1-3.5c0,0-0.2-1.2,0.2-1.9l0,0l0,0
			c0,0,0.2-1.4-1.7-1.4c-1.5,0,1.8-4.2,3.5-5.7c1.9-1,7.3-2.6,6.7-1.2c-0.8,1.7,0.8,2,0.8,2l0,0c0.8-0.1,2.2,0.9,2.2,0.9
			c0.9,0.7,1.7,1.1,2.6,2.4c1.9,2.8,1.8,5.8,0.4,8.2l0,0c0.2,0.3-1.1,2.5-2.2,3.2C102.3,68.9,99.9,69.1,99.7,68.8L99.7,68.8z
			 M99,45.1c0,0,4.3,2.2,6.1,0c1.9-2.2,1.1-4,0.2-5.4c-1.3-1.9-4-1.7-4-1.7C101.5,40.9,99,45.1,99,45.1z M76.6,54.6
			c0,0-1.2,2.5,0,4.4c0.9,1.3,2.2,2.8,5,1.9c2.7-0.9,2.3-5.7,2.3-5.7S79.2,55.9,76.6,54.6z M94.2,27.5c0,0,1.3-4.2,0.1-5.6
			c-1.8-1.9-4-0.3-5.3,0.7c-2.7,1.9-0.9,2.7-0.9,2.7S91.5,26.4,94.2,27.5z M69.8,37.6c0,0-0.1-1.9-2.8-0.2c-1.4,0.9-3.7,2.2-2.6,4.6
			c0.8,1.7,5.2,2,5.2,2C69.6,41.1,69.8,37.6,69.8,37.6z M78.7,24.4c0,0-4.9-2.5-9.8-0.1c-0.4,0.2-0.4,1,0,1.2
			c3.1,1.3,3.9,2.9,3.9,2.9l3.4-0.8L78.7,24.4z"/>
		<path fill="#A3CF66" d="M100.4,54.1c0.6-0.2,1.1,0,1.6,0.3c2.6,1.7,3.3,2.6,3.3,3c-0.2,2.4-2,1.7-2.1,4.7
			c-0.1,2.2,1.7,2.1,1.6,2.4c-0.2,0.4,0.5,0.5,0.4,0.7c-0.5,1.4-1.9,2.6-1.9,2.6s-1.7,0.8-3.1,0.8c-0.2,0-0.1-0.7-0.5-0.7
			c-0.3,0,0.5-1.6-1.6-2.3c-2.9-1.1-2.9,0.8-5.2,0.1c-0.4-0.2-0.9-1.1-1.5-4.2c-0.1-0.6-0.1-1.2,0.3-1.6c1.4-0.9,1.9-2.6,3.7-3.8
			C97.3,54.9,99,55.1,100.4,54.1z M93.5,53.1c-1.9,1.1-4.8,4.2-3.4,4.3c1.8,0.2,1.2,1.9,1.4,1.7c1.4-1,1.1-2.1,3.5-3.8
			c2.4-1.6,3.4-0.9,4.8-1.8c0.2-0.1-1.5-0.2-1-1.9C99.2,50.3,95.2,51.8,93.5,53.1z M99.8,42.7c-0.2,1.2-0.5,1.9-0.5,1.9
			s4.5,1.8,5.6,0c0.3-0.6,0.4-0.9,0.6-1.4L99.8,42.7z M79.8,60.3c0.4,0.1,0.8,0.1,1.5,0c2-0.2,2.2-5.2,2.2-5.2s-0.8,0-2-0.3
			L79.8,60.3z M93,26.6c1,0.2-0.2-0.3,0.8,0.1c0,0,1.3-3.8-0.3-4.4c-0.1,0-0.6-0.2-0.6,0.3L93,26.6z M65.5,41.1
			C65,40.9,65,41.4,65,41.6c0,1.7,4,1.9,4,1.9c0-1.1,0,0.2,0.2-0.8L65.5,41.1z M75,24.1c-1.5-0.4-4.8-0.1-5.1,0.3
			c-0.2,0.3,2.3-0.1,3.9,0.2c1.9,0.4,3,1.7,3,1.7l0.9-0.9C77.8,25.4,76.2,24.4,75,24.1z"/>
		<g id="shell">
			<g>
				<path fill="#64A644" d="M80.5,34.1l2.4-1.6c0.7-0.4,1.8-0.5,2.4-0.2l5.7,2.9c0.7,0.3,1.3,1.2,1.3,2l0.6,6.4
					c0.1,0.7-0.4,1.8-1,2.3l-2.4,1.6l-1.9,1.3c-0.7,0.4-1.8,0.4-2.5,0.1L79.5,46c-0.7-0.3-1.3-1.2-1.3-2l-0.6-6.4
					c-0.1-0.7,0.4-1.7,1.1-2.2L80.5,34.1"/>
				<path fill="#64A644" d="M90.7,49.3l2.4-1.6c0.7-0.4,1.7-0.8,2.4-0.6l3.8,1c0.7,0.2,1.2,0.5,1.1,0.7c0,0-0.1,0.1-0.2,0.2
					c-1.1,2.6-3.7,1.1-7.4,3.6c-3,2-2.9,5.2-5.8,5.3c-0.2,0-0.1,0-0.1,0c-0.2,0-0.3-0.6-0.2-1.4l0.6-3.8c0.1-0.7,0.8-1.6,1.5-2
					L90.7,49.3L90.7,49.3z"/>
				<path fill="#64A644" d="M76.3,27.8c1.2-0.8,1.8-1.8,3.1-2.2c1.4-0.5,2.9-0.7,2.9-0.7c0.8-0.1,1.4,0.4,1.4,1.2l-0.2,3.1
					c0,0.7-0.7,1.6-1.3,2.1l-2.4,1.6L78,34.1c-0.7,0.4-1.7,0.7-2.4,0.4l-3-1c-0.7-0.2-1-1-0.6-1.7c0,0,0.5-1.1,1.5-2.2
					C74.2,28.7,75.7,28.3,76.3,27.8z"/>
				<path fill="#64A644" d="M84.6,56.1c-0.1,0.7-0.3,1.3-0.5,1.3c0,0,0,0-0.2,0c-1.2-0.2-1.6-1.9-2.7-2.4c-1-0.4-2.8,0.4-3.7-0.2
					c-1.8-1.2-3.9-3.7-3.9-3.7c-0.5-0.6-0.3-1.4,0.3-1.9l2.2-1.5c0.7-0.4,1.8-0.5,2.4-0.1l5.4,3c0.6,0.4,1.1,1.3,1,2L84.6,56.1z"/>
				<path fill="#64A644" d="M96.3,44.9c-0.7-0.2-1.4-1-1.5-1.7L94.1,37c-0.1-0.7,0.4-1.8,1-2.2l2.2-1.5c0.7-0.4,1.5-0.2,1.9,0.4
					c0,0,1.5,2.9,2,5c0.2,1.1-1.2,2.5-1.2,3.6c0,1.3,1.5,2.2,1.2,3.4c0,0.2,0,0.2,0,0.2c0,0.2-0.7,0.2-1.4,0L96.3,44.9z"/>
				<path fill="#64A644" d="M86.7,31c-0.7-0.3-1.2-1.2-1.1-2l0.1-2.8c0-0.7,0.4-1.3,0.8-1.3c0,0,0,0,0.4,0.1c1.2,0.2,1.5,1.8,3,2.3
					c1.6,0.5,2.7-0.3,3.7,0.3c1.5,0.9,2.9,2.4,2.9,2.4c0.5,0.5,0.3,1.2-0.4,1.6L94,33c-0.7,0.4-1.6,0.7-2.3,0.4L86.7,31z"/>
				<path fill="#64A644" d="M76.1,43.8c0.1,0.7-0.6,1.5-1.2,2l-2.1,1.4c-0.7,0.4-1.3,0.4-1.6-0.2c0,0-0.9-2-1.2-3.7
					c-0.2-1.1,1-1.8,1.1-3.5c0.1-1.5-1.3-2.4-1-3.6c0.1-0.4,0.1-0.4,0.1-0.4c0.1-0.4,0.8-0.5,1.5-0.3l2.7,0.9c0.7,0.3,1.3,1,1.3,1.7
					L76.1,43.8z"/>
			</g>
			<g opacity="0.15">
				<path fill="#FFFFFF" d="M79.7,34l2.4-1.6c0.7-0.4,1.8-0.5,2.4-0.2l5.7,2.9c0.7,0.3,1.3,1.2,1.3,2l0.6,6.4c0.1,0.7-0.4,1.8-1,2.3
					l-2.4,1.6l-1.9,1.3c-0.7,0.4-1.8,0.4-2.5,0.1l-5.6-2.9c-0.7-0.3-1.3-1.2-1.3-2l-0.6-6.4c-0.1-0.7,0.4-1.7,1.1-2.2L79.7,34"/>
				<path fill="#FFFFFF" d="M89.9,49.1l2.4-1.6c0.7-0.4,1.7-0.8,2.4-0.6l3.8,1c0.7,0.2,1.2,0.5,1.1,0.7c0,0-0.1,0-0.2,0.2
					c-1.1,2.6-3.7,1.1-7.4,3.6c-3,2-2.9,5.2-5.8,5.3c-0.2,0-0.1,0-0.1,0c-0.2,0-0.3-0.6-0.2-1.4l0.6-3.8c0.1-0.7,0.8-1.6,1.5-2
					L89.9,49.1L89.9,49.1z"/>
				<path fill="#FFFFFF" d="M75.5,27.7c1.2-0.8,1.8-1.8,3.1-2.2c1.4-0.5,2.9-0.7,2.9-0.7c0.8-0.1,1.4,0.4,1.4,1.2l-0.2,3.1
					c0,0.7-0.7,1.6-1.3,2.1L79,32.8L77.2,34c-0.7,0.4-1.7,0.7-2.4,0.4l-3-1c-0.7-0.2-1-1-0.6-1.7c0,0,0.5-1.1,1.5-2.2
					C73.4,28.5,74.9,28.1,75.5,27.7z"/>
				<path fill="#FFFFFF" d="M83.9,55.9c-0.1,0.7-0.3,1.3-0.5,1.3c0,0,0,0-0.2,0c-1.2-0.2-1.6-1.9-2.7-2.4c-1-0.4-2.8,0.4-3.7-0.2
					c-1.8-1.2-3.9-3.7-3.9-3.7c-0.5-0.6-0.3-1.4,0.3-1.9l2.2-1.5c0.7-0.4,1.8-0.5,2.4-0.1l5.4,3c0.7,0.4,1.1,1.3,1,2L83.9,55.9z"/>
				<path fill="#FFFFFF" d="M95.6,44.8c-0.7-0.2-1.4-1-1.5-1.7l-0.7-6.2c-0.1-0.7,0.3-1.8,1-2.2l2.2-1.5c0.7-0.4,1.5-0.2,1.9,0.4
					c0,0,1.5,2.9,2,5c0.2,1.1-1.2,2.5-1.2,3.6c0,1.3,1.5,2.2,1.2,3.4c0,0.2,0,0.2,0,0.2c0,0.2-0.7,0.2-1.4,0L95.6,44.8z"/>
				<path fill="#FFFFFF" d="M85.9,30.9c-0.7-0.3-1.2-1.2-1.1-2l0.1-2.8c0-0.7,0.4-1.3,0.8-1.3c0,0,0,0,0.4,0.1
					c1.2,0.2,1.5,1.8,3,2.3c1.6,0.5,2.7-0.3,3.7,0.3c1.5,0.9,2.9,2.4,2.9,2.4c0.5,0.5,0.3,1.2-0.4,1.6l-2.1,1.4
					c-0.7,0.4-1.6,0.7-2.3,0.4L85.9,30.9z"/>
				<path fill="#FFFFFF" d="M75.3,43.7c0.1,0.7-0.6,1.5-1.2,2L72,47.1c-0.7,0.4-1.3,0.4-1.6-0.2c0,0-0.9-2-1.2-3.7
					c-0.2-1.1,1-1.8,1.1-3.5c0.1-1.5-1.3-2.4-1-3.6c0.1-0.4,0.1-0.4,0.1-0.4c0.1-0.4,0.8-0.5,1.5-0.3l2.7,0.9c0.7,0.3,1.3,1,1.3,1.7
					L75.3,43.7z"/>
			</g>
			<path fill="#538A3E" d="M75.5,26.7c-0.6,0.4-2.3,0.6-3.2,1.6c-2,2.2-3.2,4.7-3.9,7.5c-0.3,1.3,1.2,1.9,1.1,3.9
				c-0.3,2.8-1.5,3.1-1.2,4.5c0.5,2.4,1.5,4.7,2.9,6.8c1.4,2.1,3.1,3.8,5,5.1c1.1,0.7,3.1,0,4.3,0.5c1.3,0.5,1.9,2.3,3.2,2.6
				c0.2,0,0.2,0,0.2,0c0.2,0,0.5,0.1,0.6,0.1s1.5,0.3,2.2,0.3c3.8,0.1,5.1-4.4,7-5.6c2.4-1.6,6.7-1,8.1-4.5c0.3-0.7,0.8-2.2,0.8-2.3
				c0.1-0.1,0.1-0.4,0.1-0.6c0,0,0,0,0-0.2c0.3-1.4-1.1-2.5-1.1-4c0-1.3,1.4-2.9,1.2-4.2c-0.5-2.3-1.4-4.5-2.8-6.6s-3.2-3.9-5.2-5.2
				c-1.2-0.8-1.9,0.2-4.6-0.6c-1.9-0.6-1.8-2.2-3.2-2.4c-2.8-0.4-5.9-0.1-8.6,0.9C77.2,24.6,76.7,25.9,75.5,26.7z M80.5,34.1
				l2.4-1.6c0.7-0.4,1.8-0.5,2.4-0.2l5.7,2.9c0.7,0.3,1.3,1.2,1.3,2l0.6,6.4c0.1,0.7-0.4,1.8-1,2.3l-2.4,1.6l-1.9,1.3
				c-0.7,0.4-1.8,0.4-2.5,0.1L79.5,46c-0.7-0.3-1.3-1.2-1.3-2l-0.6-6.4c-0.1-0.7,0.4-1.7,1.1-2.2L80.5,34.1 M90.7,49.3l2.4-1.6
				c0.7-0.4,1.7-0.8,2.4-0.6l3.8,1c0.7,0.2,1.2,0.5,1.1,0.7c0,0-0.1,0.1-0.2,0.2c-1.1,2.6-3.7,1.1-7.4,3.6c-3,2-2.9,5.2-5.8,5.3
				c-0.2,0-0.1,0-0.1,0c-0.2,0-0.3-0.6-0.2-1.4l0.6-3.8c0.1-0.7,0.8-1.6,1.5-2L90.7,49.3L90.7,49.3z M76.3,27.8
				c1.2-0.8,1.8-1.8,3.1-2.2c1.4-0.5,2.9-0.7,2.9-0.7c0.8-0.1,1.4,0.4,1.4,1.2l-0.2,3.1c0,0.7-0.7,1.6-1.3,2.1l-2.4,1.6L78,34.1
				c-0.7,0.4-1.7,0.7-2.4,0.4l-3-1c-0.7-0.2-1-1-0.6-1.7c0,0,0.5-1.1,1.5-2.2C74.2,28.7,75.7,28.3,76.3,27.8z M84.6,56.1
				c-0.1,0.7-0.3,1.3-0.5,1.3c0,0,0,0-0.2,0c-1.2-0.2-1.6-1.9-2.7-2.4c-1-0.4-2.8,0.4-3.7-0.2c-1.8-1.2-3.9-3.7-3.9-3.7
				c-0.5-0.6-0.3-1.4,0.3-1.9l2.2-1.5c0.7-0.4,1.8-0.5,2.4-0.1l5.4,3c0.6,0.4,1.1,1.3,1,2L84.6,56.1z M96.3,44.9
				c-0.7-0.2-1.4-1-1.5-1.7L94.1,37c-0.1-0.7,0.4-1.8,1-2.2l2.2-1.5c0.7-0.4,1.5-0.2,1.9,0.4c0,0,1.5,2.9,2,5
				c0.2,1.1-1.2,2.5-1.2,3.6c0,1.3,1.5,2.2,1.2,3.4c0,0.2,0,0.2,0,0.2c0,0.2-0.7,0.2-1.4,0L96.3,44.9z M86.7,31
				c-0.7-0.3-1.2-1.2-1.1-2l0.1-2.8c0-0.7,0.4-1.3,0.8-1.3c0,0,0,0,0.4,0.1c1.2,0.2,1.5,1.8,3,2.3c1.6,0.5,2.7-0.3,3.7,0.3
				c1.5,0.9,2.9,2.4,2.9,2.4c0.5,0.5,0.3,1.2-0.4,1.6L94,33c-0.7,0.4-1.6,0.7-2.3,0.4L86.7,31z M76.1,43.8c0.1,0.7-0.6,1.5-1.2,2
				l-2.1,1.4c-0.7,0.4-1.3,0.4-1.6-0.2c0,0-0.9-2-1.2-3.7c-0.2-1.1,1-1.8,1.1-3.5c0.1-1.5-1.3-2.4-1-3.6c0.1-0.4,0.1-0.4,0.1-0.4
				c0.1-0.4,0.8-0.5,1.5-0.3l2.7,0.9c0.7,0.3,1.3,1,1.3,1.7L76.1,43.8z"/>
		</g>
		<g id="eyes">
			<path id="eye_6_" fill="#FFFFFF" d="M99.5,68.2c0,0-0.1-1.6-1.9-2c-1.7-0.4-2.4,1-2.4,1S97.2,68.4,99.5,68.2z"/>
			<path id="eye_7_" fill="#FFFFFF" d="M105.1,64.4c0,0-1.4-0.7-1.2-2.5c0.2-1.8,1.8-1.8,1.8-1.8S106.1,62.4,105.1,64.4z"/>
			<path fill="#426932" d="M104.3,62.3c-0.1,0.7,0.5,1.3,1,1.6c0.3-0.9,0.5-1.8,0.5-2.5C105.3,61.4,104.4,61.5,104.3,62.3z"/>
			<path fill="#426932" d="M97.8,66.7c0.7,0.2,1,1,1.1,1.5c-0.9,0-1.8-0.2-2.5-0.5C96.6,67.2,97.1,66.5,97.8,66.7z"/>
		</g>
	</g>
</g>
</svg>
