<?xml version="1.0" encoding="utf-8"?>
<!-- Generator: Adobe Illustrator 15.0.0, SVG Export Plug-In . SVG Version: 6.00 Build 0)  -->
<!DOCTYPE svg PUBLIC "-//W3C//DTD SVG 1.1//EN" "http://www.w3.org/Graphics/SVG/1.1/DTD/svg11.dtd">
<svg version="1.1" id="Layer_1" xmlns="http://www.w3.org/2000/svg" xmlns:xlink="http://www.w3.org/1999/xlink" x="0px" y="0px"
	 width="119px" height="99px" viewBox="0 0 119 99" enable-background="new 0 0 119 99" xml:space="preserve">
<path fill="#FAFAFA" stroke="#E4CBA9" stroke-miterlimit="10" d="M110.5,0.5c4.4,0,8,3.6,8,8v82c0,4.4-3.6,8-8,8H8.5
	c-4.4,0-8-3.6-8-8v-82c0-4.4,3.6-8,8-8H110.5z"/>
<path fill="#FF0000" d="M104.488,30.381C95.843,15.438,79.696,5.377,61.192,5.377v50L104.488,30.381z"/>
<g id="Layer_3_2_">
	<g>
		<path fill="#8BC24C" d="M64.7,24L64.7,24c2.6,1.3,4.3,4.1,4.3,7.4c0,1.5-0.2,1.7-1,3.5c0,0-0.5,1.1-1.2,1.4l0,0l0,0
			c0,0-1,1.1,0.601,2.1c1.199,0.8-3.899,2.5-6.101,2.7c-2.2-0.2-7.5-1.9-6.3-2.7c1.6-1,0.4-2.1,0.4-2.1l0,0c-0.7-0.3-1.3-2-1.3-2
			c-0.4-1.1-0.8-1.9-0.8-3.4c0-3.3,1.7-5.8,4.3-7.1l0,0c0-0.4,2.3-1.5,3.6-1.5C62.6,22.5,64.7,23.6,64.7,24L64.7,24z M52,44.1
			c0,0-2.3-4.2-5.1-3.399c-2.8,0.8-3.1,2.7-3.1,4.3c0,2.3,2.4,3.7,2.4,3.7C47.6,46.1,52,44.1,52,44.1z M76,48.6
			c0,0,2.4-1.399,2.4-3.699c0-1.601-0.301-3.601-3.102-4.3c-2.8-0.8-5.1,3.4-5.1,3.4S74.5,46.1,76,48.6z M46.2,61.3
			c0,0-3.5,2.7-3.1,4.601c0.5,2.601,3.1,2.399,4.7,2.399c3.3-0.1,2.2-1.7,2.2-1.7S47.9,63.7,46.2,61.3z M72.1,66.5
			c0,0-1,1.6,2.2,1.7c1.601,0,4.3,0.2,4.7-2.4c0.3-1.8-3.1-4.6-3.1-4.6C74.2,63.7,72.1,66.5,72.1,66.5z M57.4,72.6
			c0,0,2.6,4.801,8.1,5.602c0.5,0.1,0.9-0.602,0.7-1C64.4,74.4,64.6,72.6,64.6,72.6L61.3,71.4L57.4,72.6z"/>
		<path fill="#A3CF66" d="M55.9,35.8c-0.6-0.1-0.9-0.6-1.2-1.2c-1.2-2.9-1.3-4-1.1-4.3c1.5-1.8,2.6-0.3,4.4-2.8
			c1.3-1.8-0.2-2.7,0-2.8c0.3-0.2-0.1-0.7,0-0.8c1.2-0.8,3-1.1,3-1.1s1.8,0.2,3,1.1c0.1,0.1-0.3,0.6,0,0.8c0.2,0.2-1.3,1,0,2.8
			c1.8,2.5,2.9,0.9,4.4,2.8c0.199,0.4,0.199,1.4-1.102,4.3c-0.3,0.6-0.5,1-1.199,1.2c-1.699,0-3,1.1-5.201,1.1
			C58.9,36.8,57.6,35.8,55.9,35.8z M61.1,40.4c2.2,0.1,6.301-0.8,5.2-1.7c-1.399-1.2,0-2.2-0.2-2.2c-1.699,0-2.1,1.2-5,1.2
			c-2.898,0-3.3-1.2-5-1.2c-0.2-0.1,1.1,1-0.2,2.2C54.8,39.7,58.9,40.5,61.1,40.4z M50.1,45.6c0.8-0.899,1.5-1.3,1.5-1.3
			s-2.8-4-4.7-3.1c-0.6,0.3-0.9,0.5-1.3,0.8L50.1,45.6z M76.4,42.1c-0.301-0.3-0.602-0.5-1.2-0.8c-1.8-0.9-4.7,3.101-4.7,3.101
			s0.7,0.5,1.5,1.3L76.4,42.1z M46.7,62.7c-0.7-0.8,0,0.399-0.6-0.601c0,0-3.2,2.399-2.3,3.801c0.1,0.1,0.4,0.5,0.7,0.1L46.7,62.7z
			 M77.6,66.1c0.4,0.4,0.602,0,0.7-0.1c0.9-1.4-2.3-3.8-2.3-3.8c-0.6,0.899,0.1-0.2-0.6,0.6L77.6,66.1z M60.2,74.9
			c1,1.199,3.899,2.699,4.399,2.5C64.9,77.3,62.6,76.3,61.4,75C60,73.6,59.8,71.9,59.8,71.9l-1.3,0.3C58.6,72.2,59.4,73.9,60.2,74.9
			z"/>
		<g id="shell">
			<g>
				<path fill="#64A644" d="M61.3,63.5h-2.9c-0.8,0-1.8-0.6-2.1-1.2l-3.1-5.6c-0.4-0.601-0.4-1.7,0-2.4l3.1-5.6
					c0.4-0.601,1.3-1.3,2.1-1.3h2.9h2.3c0.801,0,1.801,0.6,2.102,1.3l3.1,5.5c0.4,0.6,0.4,1.7,0,2.399L65.7,62.2
					c-0.4,0.6-1.3,1.2-2.101,1.2L61.3,63.5"/>
				<path fill="#64A644" d="M61.3,45.2h-2.9c-0.8,0-1.9-0.2-2.4-0.8l-2.6-2.9c-0.5-0.6-0.7-1.1-0.6-1.2c0,0,0.1,0,0.3-0.1
					c2.4-1.6,3.7,1.2,8.1,1.2c3.6,0,5.399-2.7,7.8-1.1c0.2,0.1,0.1,0.1,0.1,0.1c0.2,0.1-0.1,0.7-0.6,1.3l-2.6,2.8
					c-0.5,0.6-1.602,0.8-2.4,0.8L61.3,45.2L61.3,45.2z"/>
				<path fill="#64A644" d="M61.3,71c-1.5,0-2.5,0.5-3.8,0.1c-1.4-0.398-2.7-1-2.7-1c-0.7-0.398-0.9-1.1-0.5-1.8l1.9-2.399
					c0.4-0.601,1.5-1,2.3-1h2.9H63.6c0.801,0,1.801,0.399,2.301,1l1.899,2.5C68.2,69,68,69.8,67.4,70.1c0,0-1.102,0.7-2.5,1
					C63.5,71.5,62,71,61.3,71z"/>
				<path fill="#64A644" d="M70.1,42.9c0.5-0.6,1-0.9,1.2-0.8c0,0,0,0,0.101,0.1c0.899,0.9,0.199,2.5,0.899,3.5
					c0.601,0.899,2.601,1.2,3,2.3c0.8,2,1.101,5.3,1.101,5.3c0.101,0.7-0.5,1.4-1.301,1.4h-2.6c-0.8,0-1.7-0.601-2.1-1.3l-2.9-5.5
					c-0.3-0.7-0.2-1.7,0.3-2.301L70.1,42.9z"/>
				<path fill="#64A644" d="M54.1,45.7c0.5,0.6,0.6,1.6,0.3,2.2l-2.9,5.6c-0.3,0.7-1.3,1.3-2.1,1.3h-2.6c-0.8,0-1.4-0.7-1.3-1.399
					c0,0,0.3-3.199,1.1-5.199c0.4-1,2.4-1.4,3-2.3c0.7-1,0-2.7,0.9-3.5c0.1-0.1,0.1-0.1,0.1-0.1c0.1-0.1,0.7,0.2,1.2,0.8L54.1,45.7z
					"/>
				<path fill="#64A644" d="M54.4,62.6c0.4,0.602,0.3,1.7-0.1,2.301l-1.7,2.301c-0.4,0.6-1.1,0.898-1.4,0.6c0,0,0,0-0.3-0.3
					c-0.9-0.899-0.3-2.399-1.2-3.601c-1-1.301-2.5-1.199-2.9-2.301C46.1,60,45.7,58,45.7,58c-0.1-0.7,0.4-1.1,1.2-1.1h2.5
					c0.8,0,1.8,0.3,2.1,1L54.4,62.6z"/>
				<path fill="#64A644" d="M70.3,57.9c0.4-0.602,1.3-1,2.101-1h2.5c0.801,0,1.399,0.398,1.199,1.1c0,0-0.398,2.1-1.1,3.7
					c-0.5,1.1-1.9,0.899-2.9,2.3c-0.898,1.2-0.3,2.7-1.199,3.5C70.6,67.8,70.6,67.7,70.6,67.7c-0.3,0.3-1,0-1.398-0.601l-1.7-2.301
					c-0.399-0.6-0.5-1.5-0.101-2.199L70.3,57.9z"/>
			</g>
			<g opacity="0.15">
				<path fill="#FFFFFF" d="M61.8,64h-2.9c-0.8,0-1.8-0.6-2.1-1.2l-3.1-5.6c-0.4-0.601-0.4-1.7,0-2.4l3.1-5.6
					c0.4-0.601,1.3-1.3,2.1-1.3h2.9h2.3c0.801,0,1.801,0.6,2.102,1.3l3.1,5.5c0.4,0.6,0.4,1.7,0,2.399L66.2,62.7
					c-0.4,0.6-1.3,1.2-2.101,1.2L61.8,64"/>
				<path fill="#FFFFFF" d="M61.8,45.8h-2.9c-0.8,0-1.9-0.2-2.4-0.8l-2.6-2.9c-0.5-0.6-0.7-1.1-0.6-1.2c0,0,0.1,0,0.3-0.1
					c2.4-1.6,3.7,1.2,8.1,1.2c3.6,0,5.399-2.7,7.8-1.1c0.2,0.1,0.1,0.1,0.1,0.1c0.2,0.1-0.1,0.7-0.6,1.3l-2.6,2.8
					c-0.5,0.6-1.601,0.8-2.4,0.8L61.8,45.8L61.8,45.8z"/>
				<path fill="#FFFFFF" d="M61.8,71.6c-1.5,0-2.5,0.5-3.8,0.102c-1.4-0.4-2.7-1-2.7-1c-0.7-0.4-0.9-1.102-0.5-1.801l1.9-2.399
					c0.4-0.601,1.5-1,2.3-1h2.9H64.1c0.801,0,1.801,0.399,2.301,1L68.3,69c0.4,0.6,0.2,1.4-0.399,1.7c0,0-1.101,0.7-2.5,1
					C64,72.1,62.6,71.6,61.8,71.6z"/>
				<path fill="#FFFFFF" d="M70.7,43.5c0.5-0.6,1-0.9,1.2-0.8c0,0,0,0,0.1,0.1c0.9,0.9,0.2,2.5,0.9,3.5c0.6,0.9,2.6,1.2,3,2.3
					c0.8,2,1.1,5.3,1.1,5.3c0.1,0.699-0.5,1.399-1.3,1.399H73c-0.8,0-1.7-0.6-2.1-1.3L68,48.5c-0.3-0.7-0.2-1.7,0.3-2.3L70.7,43.5z"
					/>
				<path fill="#FFFFFF" d="M54.7,46.2c0.5,0.6,0.6,1.6,0.3,2.2L52.1,54c-0.3,0.7-1.3,1.3-2.1,1.3h-2.6c-0.8,0-1.4-0.7-1.3-1.399
					c0,0,0.3-3.199,1.1-5.199c0.4-1,2.4-1.4,3-2.3c0.7-1,0-2.7,0.9-3.5c0.1-0.1,0.1-0.1,0.1-0.1c0.1-0.1,0.7,0.2,1.2,0.8L54.7,46.2z
					"/>
				<path fill="#FFFFFF" d="M55,63.2c0.4,0.6,0.3,1.7-0.1,2.3l-1.7,2.3c-0.4,0.601-1.1,0.9-1.4,0.601c0,0,0,0-0.3-0.301
					c-0.9-0.898-0.3-2.398-1.2-3.6c-1-1.3-2.5-1.2-2.9-2.3C46.7,60.6,46.3,58.6,46.3,58.6c-0.1-0.699,0.4-1.1,1.2-1.1H50
					c0.8,0,1.8,0.3,2.1,1L55,63.2z"/>
				<path fill="#FFFFFF" d="M70.9,58.4c0.398-0.602,1.3-1,2.1-1h2.5c0.8,0,1.4,0.398,1.2,1.1c0,0-0.4,2.1-1.101,3.7
					C75.1,63.3,73.7,63.1,72.7,64.5c-0.9,1.2-0.3,2.7-1.2,3.5c-0.3,0.3-0.3,0.2-0.3,0.2c-0.3,0.3-1,0-1.4-0.601l-1.7-2.301
					c-0.398-0.6-0.5-1.5-0.1-2.199L70.9,58.4z"/>
			</g>
			<path fill="#538A3E" d="M61.3,72.4c0.7,0,2.2,0.8,3.5,0.5c2.8-0.7,5.3-2.102,7.4-4c1-0.9,0-2.301,1.3-3.801
				C75.3,62.9,76.4,63.4,77,62c0.9-2.2,1.4-4.7,1.4-7.2s-0.5-4.899-1.4-7c-0.5-1.2-2.6-1.7-3.3-2.8c-0.8-1.2-0.3-2.9-1.3-3.9
				C72.3,41,72.3,41,72.3,41c-0.1-0.1-0.3-0.4-0.399-0.4c-0.101-0.1-1.101-1.1-1.699-1.5c-3.102-2.2-6.7,0.8-8.9,0.8
				c-2.9,0-6.1-2.9-9.2-0.8c-0.6,0.4-1.9,1.4-2,1.5s-0.3,0.3-0.5,0.4c0,0,0,0-0.1,0.1c-1,1-0.5,2.7-1.3,3.9
				c-0.7,1.1-2.8,1.6-3.3,2.8c-0.9,2.2-1.4,4.5-1.4,7c0,2.601,0.5,5,1.4,7.2c0.5,1.3,1.7,0.9,3.5,3.1c1.2,1.5,0.3,2.9,1.3,3.801
				c2.1,1.899,4.8,3.301,7.7,4C58.7,73.2,59.8,72.4,61.3,72.4z M61.3,63.5h-2.9c-0.8,0-1.8-0.6-2.1-1.2l-3.1-5.6
				c-0.4-0.601-0.4-1.7,0-2.4l3.1-5.6c0.4-0.601,1.3-1.3,2.1-1.3h2.9h2.3c0.801,0,1.801,0.6,2.102,1.3l3.1,5.5
				c0.4,0.6,0.4,1.7,0,2.399L65.7,62.2c-0.4,0.6-1.3,1.2-2.101,1.2L61.3,63.5 M61.3,45.2h-2.9c-0.8,0-1.9-0.2-2.4-0.8l-2.6-2.9
				c-0.5-0.6-0.7-1.1-0.6-1.2c0,0,0.1,0,0.3-0.1c2.4-1.6,3.7,1.2,8.1,1.2c3.6,0,5.399-2.7,7.8-1.1c0.2,0.1,0.1,0.1,0.1,0.1
				c0.2,0.1-0.1,0.7-0.6,1.3l-2.6,2.8c-0.5,0.6-1.602,0.8-2.4,0.8L61.3,45.2L61.3,45.2z M61.3,71c-1.5,0-2.5,0.5-3.8,0.1
				c-1.4-0.398-2.7-1-2.7-1c-0.7-0.398-0.9-1.1-0.5-1.8l1.9-2.399c0.4-0.601,1.5-1,2.3-1h2.9H63.6c0.801,0,1.801,0.399,2.301,1
				l1.899,2.5C68.2,69,68,69.8,67.4,70.1c0,0-1.102,0.7-2.5,1C63.5,71.5,62,71,61.3,71z M70.1,42.9c0.5-0.6,1-0.9,1.2-0.8
				c0,0,0,0,0.101,0.1c0.899,0.9,0.199,2.5,0.899,3.5c0.601,0.899,2.601,1.2,3,2.3c0.8,2,1.101,5.3,1.101,5.3
				c0.101,0.7-0.5,1.4-1.301,1.4h-2.6c-0.8,0-1.7-0.601-2.1-1.3l-2.9-5.5c-0.3-0.7-0.2-1.7,0.3-2.301L70.1,42.9z M54.1,45.7
				c0.5,0.6,0.6,1.6,0.3,2.2l-2.9,5.6c-0.3,0.7-1.3,1.3-2.1,1.3h-2.6c-0.8,0-1.4-0.7-1.3-1.399c0,0,0.3-3.199,1.1-5.199
				c0.4-1,2.4-1.4,3-2.3c0.7-1,0-2.7,0.9-3.5c0.1-0.1,0.1-0.1,0.1-0.1c0.1-0.1,0.7,0.2,1.2,0.8L54.1,45.7z M54.4,62.6
				c0.4,0.602,0.3,1.7-0.1,2.301l-1.7,2.301c-0.4,0.6-1.1,0.898-1.4,0.6c0,0,0,0-0.3-0.3c-0.9-0.899-0.3-2.399-1.2-3.601
				c-1-1.301-2.5-1.199-2.9-2.301C46.1,60,45.7,58,45.7,58c-0.1-0.7,0.4-1.1,1.2-1.1h2.5c0.8,0,1.8,0.3,2.1,1L54.4,62.6z M70.3,57.9
				c0.4-0.602,1.3-1,2.101-1h2.5c0.801,0,1.399,0.398,1.199,1.1c0,0-0.398,2.1-1.1,3.7c-0.5,1.1-1.9,0.899-2.9,2.3
				c-0.898,1.2-0.3,2.7-1.199,3.5C70.6,67.8,70.6,67.7,70.6,67.7c-0.3,0.3-1,0-1.398-0.601l-1.7-2.301
				c-0.399-0.6-0.5-1.5-0.101-2.199L70.3,57.9z"/>
		</g>
		<g id="eyes">
			<path id="eye_6_" fill="#FFFFFF" d="M64.5,24.6c0,0-0.8,1.4,0.4,2.7c1.199,1.3,2.6,0.5,2.6,0.5S66.5,25.7,64.5,24.6z"/>
			<path id="eye_7_" fill="#FFFFFF" d="M57.8,24.6c0,0,0.8,1.4-0.4,2.7c-1.2,1.3-2.6,0.5-2.6,0.5S55.8,25.7,57.8,24.6z"/>
			<path fill="#426932" d="M57.2,26.8c0.5-0.5,0.3-1.3,0.1-1.9c-0.8,0.5-1.4,1.2-1.8,1.8C55.9,27,56.7,27.4,57.2,26.8z"/>
			<path fill="#426932" d="M65,26.8c-0.5-0.5-0.3-1.3,0-1.9c0.8,0.5,1.4,1.2,1.8,1.8C66.3,27,65.6,27.4,65,26.8z"/>
		</g>
	</g>
</g>
</svg>
