<?xml version="1.0" encoding="utf-8"?>
<!-- Generator: Adobe Illustrator 15.0.0, SVG Export Plug-In . SVG Version: 6.00 Build 0)  -->
<!DOCTYPE svg PUBLIC "-//W3C//DTD SVG 1.1//EN" "http://www.w3.org/Graphics/SVG/1.1/DTD/svg11.dtd">
<svg version="1.1" id="Layer_1" xmlns="http://www.w3.org/2000/svg" xmlns:xlink="http://www.w3.org/1999/xlink" x="0px" y="0px"
	 width="119px" height="99px" viewBox="0.5 -0.5 119 99" enable-background="new 0.5 -0.5 119 99" xml:space="preserve">
<g>
	<g id="Layer_1_1_">
		<path fill="#FAFAFA" stroke="#E4CBA9" stroke-miterlimit="10" d="M111,0c4.4,0,8,3.6,8,8v82c0,4.398-3.6,8-8,8H9
			c-4.4,0-8-3.602-8-8V8c0-4.4,3.6-8,8-8H111z"/>
	</g>
	<polygon fill="none" stroke="#ED2024" stroke-width="4" stroke-miterlimit="10" points="24.175,76.173 24.175,23.646 71.145,7.415 
		100.174,49.907 71.145,92.403 	"/>
	<g id="Layer_3_2_">
		<g>
			<path fill="#8BC24C" d="M27.472,35.065L27.472,35.065c2.655,1.205,4.452,3.877,4.593,7.201c0.035,1.525-0.066,1.699-0.817,3.576
				c0,0-0.433,1.139-1.218,1.49l0,0l0,0c0,0-0.879,1.107,0.761,2.066c1.295,0.758-3.76,2.668-5.934,3.018
				c-2.231-0.145-7.65-1.576-6.339-2.432c1.549-1.064,0.319-2.129,0.319-2.129l0,0c-0.741-0.318-1.445-1.889-1.445-1.889
				c-0.424-1.059-0.862-1.893-0.897-3.42c-0.141-3.326,1.459-5.863,3.879-7.23l0,0c0.029-0.445,2.211-1.604,3.514-1.652
				C25.278,33.667,27.45,34.704,27.472,35.065L27.472,35.065z M15.72,55.763c0,0-2.516-4.02-5.216-3.166
				c-2.837,0.891-2.968,2.898-2.984,4.512c0.163,2.295,2.545,3.572,2.545,3.572C11.406,57.991,15.72,55.763,15.72,55.763z
				 M39.874,59.226c0,0,2.334-1.416,2.221-3.799c-0.07-1.664-0.486-3.527-3.358-4.164c-2.785-0.586-4.898,3.623-4.898,3.623
				S38.335,56.706,39.874,59.226z M10.723,73.229c0,0-3.328,2.918-2.912,4.783c0.545,2.635,3.302,2.277,4.878,2.156
				c3.239-0.189,2.14-1.877,2.14-1.877S12.585,75.591,10.723,73.229z M36.855,77.269c0,0-0.959,1.641,2.316,1.586
				c1.612,0.016,4.254,0.055,4.652-2.609c0.254-1.82-3.343-4.387-3.343-4.387C38.881,74.399,36.855,77.269,36.855,77.269z
				 M22.388,83.985c0,0,2.832,4.668,8.309,5.205c0.446,0.029,0.85-0.66,0.606-1.035c-2.02-2.688-1.853-4.559-1.853-4.559
				l-3.289-1.111L22.388,83.985z"/>
			<path fill="#A3CF66" d="M19.276,47.302c-0.619-0.131-0.95-0.555-1.23-1.066c-1.336-2.865-1.45-3.859-1.284-4.342
				c1.384-1.971,2.585-0.457,4.271-2.947c1.197-1.85-0.322-2.619-0.084-2.828c0.375-0.244-0.179-0.684,0.008-0.807
				c1.088-0.869,2.988-1.148,2.988-1.148s1.871,0.166,3.03,0.959c0.173,0.102-0.353,0.605-0.008,0.807
				c0.259,0.15-1.239,1.129,0.17,2.879c1.862,2.363,2.907,0.773,4.54,2.537c0.244,0.375,0.222,1.404-0.825,4.385
				c-0.267,0.654-0.519,1.086-1.066,1.229c-1.663,0.07-2.902,1.199-5.148,1.277C22.306,48.261,20.939,47.231,19.276,47.302z
				 M24.678,51.733c2.195,0.01,6.299-1.066,5.105-1.996c-1.453-1.08-0.077-2.246-0.351-2.174c-1.663,0.07-2.009,1.258-4.975,1.377
				c-2.879,0.17-3.339-1.025-5.052-0.867c-0.223-0.016,1.194,0.93-0.096,2.145C18.258,51.224,22.468,51.946,24.678,51.733z
				 M13.818,57.431c0.778-0.934,1.391-1.387,1.391-1.387s-2.977-3.826-4.784-2.912c-0.562,0.367-0.8,0.574-1.225,0.906
				L13.818,57.431z M40.038,52.604c-0.295-0.289-0.64-0.49-1.295-0.758c-1.828-0.838-4.473,3.293-4.473,3.293
				s0.691,0.404,1.575,1.268L40.038,52.604z M11.254,74.698c-0.762-0.678,0.021,0.359-0.64-0.49c0,0-3.04,2.625-2.048,3.9
				c0.036,0.137,0.417,0.475,0.756,0.094L11.254,74.698z M42.37,76.554c0.331,0.426,0.669,0.045,0.77-0.129
				c0.858-1.467-2.444-3.744-2.444-3.744c-0.555,0.949,0.101-0.174-0.576,0.59L42.37,76.554z M25.38,86.198
				c1.093,1.102,4.043,2.596,4.554,2.314c0.324-0.156-2.036-1.072-3.216-2.227c-1.438-1.303-1.732-2.982-1.732-2.982l-1.231,0.324
				C23.67,83.577,24.46,85.198,25.38,86.198z"/>
			<g id="shell">
				<g>
					<path fill="#64A644" d="M25.866,74.667l-2.879,0.17c-0.806-0.008-1.806-0.477-2.122-1.125l-3.321-5.416
						c-0.402-0.699-0.43-1.641-0.113-2.383l2.798-5.777c0.267-0.654,1.254-1.352,2.06-1.344l2.879-0.17l2.246-0.078
						c0.806,0.008,1.756,0.564,2.209,1.176l3.321,5.416c0.453,0.611,0.38,1.729,0.113,2.383l-2.798,5.777
						c-0.267,0.656-1.203,1.268-2.06,1.344L25.866,74.667"/>
					<path fill="#64A644" d="M25.041,56.462l-2.879,0.17c-0.806-0.008-1.871-0.166-2.375-0.691l-2.69-2.732
						c-0.503-0.525-0.784-1.037-0.596-1.158c0,0,0.086,0.051,0.274-0.072c2.348-1.639,3.785,1.055,8.104,0.799
						c3.686-0.162,5.214-2.975,7.718-1.512c0.173,0.102,0.036,0.137,0.036,0.137c0.173,0.102-0.094,0.756-0.534,1.311l-2.522,2.928
						c-0.44,0.553-1.534,0.84-2.304,0.969L25.041,56.462L25.041,56.462z"/>
					<path fill="#64A644" d="M26.262,82.313c-1.44,0.084-2.462,0.645-3.787,0.334c-1.411-0.361-2.806-0.945-2.806-0.945
						c-0.741-0.318-0.956-1.139-0.603-1.742l1.737-2.576c0.353-0.604,1.412-1.027,2.268-1.105l2.879-0.17l2.246-0.076
						c0.806,0.008,1.821,0.254,2.274,0.865l1.948,2.414c0.453,0.611,0.272,1.316-0.34,1.77c0,0-1.073,0.646-2.405,1.141
						C28.479,82.681,26.982,82.271,26.262,82.313z"/>
					<path fill="#64A644" d="M33.688,53.757c0.44-0.555,0.915-0.971,1.088-0.871c0,0,0,0,0.173,0.102
						c0.935,0.779,0.286,2.484,1.069,3.521c0.661,0.85,2.619,1.068,3.043,2.125c0.948,1.945,1.363,5.199,1.363,5.199
						c0.129,0.77-0.498,1.445-1.218,1.488L36.6,65.419c-0.806-0.008-1.756-0.562-2.122-1.125l-3.097-5.4
						c-0.316-0.648-0.294-1.678,0.146-2.23L33.688,53.757z"/>
					<path fill="#64A644" d="M17.95,57.298c0.503,0.527,0.704,1.57,0.351,2.174l-2.611,5.656c-0.267,0.654-1.254,1.352-2.06,1.344
						l-2.606,0.098c-0.806-0.008-1.396-0.584-1.438-1.303c0,0,0.169-3.262,0.883-5.275c0.382-1.051,2.384-1.502,2.889-2.367
						c0.656-1.121-0.134-2.742,0.73-3.627c0.101-0.172,0.101-0.172,0.101-0.172c0.101-0.174,0.705,0.18,1.209,0.707L17.95,57.298z"
						/>
					<path fill="#64A644" d="M18.949,74.214c0.453,0.613,0.43,1.643-0.06,2.283l-1.586,2.316c-0.353,0.604-1.001,0.92-1.347,0.719
						c0,0,0,0-0.295-0.289c-0.935-0.777-0.387-2.311-1.343-3.449c-1.079-1.324-2.482-1.104-2.992-2.213
						c-0.704-1.57-1.242-3.621-1.242-3.621c-0.179-0.684,0.433-1.137,1.153-1.18l2.52-0.148c0.806,0.008,1.821,0.254,2.137,0.902
						L18.949,74.214z"/>
					<path fill="#64A644" d="M34.682,68.702c0.353-0.605,1.275-0.992,2.132-1.072l2.519-0.148c0.806,0.008,1.324,0.311,1.23,1.066
						c0,0-0.319,2.129-0.918,3.748c-0.382,1.051-1.858,1-2.802,2.416c-0.843,1.246-0.175,2.678-1.04,3.562
						c-0.288,0.295-0.288,0.295-0.288,0.295c-0.288,0.295-0.943,0.027-1.396-0.584l-1.826-2.227
						c-0.453-0.611-0.618-1.518-0.264-2.123L34.682,68.702z"/>
				</g>
				<g opacity="0.15">
					<path fill="#FFFFFF" d="M26.456,75.243l-2.879,0.17c-0.806-0.008-1.806-0.477-2.122-1.125l-3.321-5.416
						c-0.453-0.611-0.43-1.641-0.113-2.383l2.798-5.777c0.267-0.656,1.254-1.352,2.06-1.344l2.879-0.17l2.246-0.078
						c0.806,0.008,1.756,0.564,2.209,1.176l3.321,5.416c0.453,0.611,0.38,1.729,0.113,2.383l-2.798,5.777
						c-0.267,0.656-1.203,1.266-2.06,1.344L26.456,75.243"/>
					<path fill="#FFFFFF" d="M25.63,57.038l-2.879,0.17c-0.806-0.008-1.871-0.166-2.375-0.691l-2.69-2.732
						c-0.503-0.525-0.784-1.037-0.596-1.158c0,0,0.086,0.049,0.274-0.072c2.348-1.639,3.785,1.055,8.104,0.799
						c3.686-0.162,5.214-2.975,7.718-1.512c0.173,0.102,0.036,0.137,0.036,0.137c0.173,0.102-0.094,0.756-0.534,1.311l-2.522,2.926
						c-0.44,0.555-1.534,0.842-2.304,0.971L25.63,57.038L25.63,57.038z"/>
					<path fill="#FFFFFF" d="M26.816,82.751c-1.44,0.086-2.462,0.646-3.787,0.336c-1.411-0.361-2.806-0.947-2.806-0.947
						c-0.741-0.316-0.956-1.137-0.603-1.742l1.737-2.574c0.353-0.605,1.412-1.029,2.268-1.107l2.879-0.17l2.246-0.076
						c0.806,0.008,1.821,0.254,2.274,0.865l1.948,2.414c0.453,0.611,0.272,1.318-0.34,1.77c0,0-1.073,0.646-2.405,1.143
						C29.033,83.122,27.536,82.71,26.816,82.751z"/>
					<path fill="#FFFFFF" d="M34.278,54.333c0.44-0.553,0.915-0.971,1.088-0.869c0,0,0,0,0.173,0.102
						c0.935,0.777,0.286,2.482,1.069,3.52c0.661,0.852,2.619,1.068,3.043,2.127c0.948,1.943,1.363,5.197,1.363,5.197
						c0.129,0.77-0.498,1.447-1.218,1.49l-2.606,0.098c-0.806-0.008-1.756-0.562-2.122-1.125l-3.097-5.402
						c-0.316-0.646-0.294-1.676,0.146-2.23L34.278,54.333z"/>
					<path fill="#FFFFFF" d="M18.504,57.737c0.503,0.525,0.704,1.57,0.351,2.174l-2.611,5.656c-0.267,0.654-1.254,1.352-2.06,1.344
						l-2.606,0.098c-0.806-0.008-1.396-0.584-1.438-1.305c0,0,0.169-3.26,0.883-5.275c0.382-1.051,2.384-1.502,2.889-2.365
						c0.656-1.121-0.134-2.742,0.73-3.627c0.101-0.174,0.101-0.174,0.101-0.174c0.101-0.172,0.705,0.182,1.209,0.707L18.504,57.737z
						"/>
					<path fill="#FFFFFF" d="M19.589,74.704c0.453,0.613,0.43,1.643-0.06,2.283l-1.586,2.314c-0.353,0.605-1.001,0.92-1.347,0.721
						c0,0,0,0-0.295-0.289c-0.935-0.777-0.387-2.311-1.343-3.449c-1.079-1.324-2.482-1.104-2.992-2.213
						c-0.704-1.57-1.242-3.621-1.242-3.621c-0.179-0.686,0.433-1.137,1.153-1.18l2.519-0.148c0.806,0.008,1.821,0.254,2.137,0.902
						L19.589,74.704z"/>
					<path fill="#FFFFFF" d="M35.272,69.278c0.353-0.605,1.275-0.992,2.132-1.072l2.519-0.148c0.806,0.008,1.324,0.311,1.23,1.066
						c0,0-0.319,2.129-0.918,3.748c-0.382,1.051-1.858,1-2.802,2.416c-0.843,1.246-0.175,2.678-1.04,3.562
						c-0.288,0.295-0.288,0.295-0.288,0.295c-0.288,0.295-0.943,0.027-1.396-0.584l-1.826-2.227
						c-0.453-0.611-0.618-1.518-0.264-2.123L35.272,69.278z"/>
				</g>
				<path fill="#538A3E" d="M26.311,83.616c0.72-0.043,2.238,0.729,3.52,0.32c2.786-0.805,5.17-2.307,7.274-4.32
					c1.001-0.92-0.077-2.246,1.105-3.871c1.672-2.266,2.859-1.92,3.307-3.279c0.78-2.324,1.163-4.764,1.014-7.285
					c-0.149-2.518-0.759-4.844-1.743-6.926c-0.546-1.246-2.676-1.562-3.409-2.688c-0.82-1.174-0.393-2.895-1.45-3.859
					c-0.173-0.102-0.173-0.102-0.173-0.102c-0.173-0.102-0.381-0.338-0.468-0.389c-0.086-0.051-1.144-1.016-1.748-1.369
					c-3.23-2.004-6.659,1.088-8.819,1.217c-2.879,0.17-6.238-2.605-9.3-0.34c-0.612,0.451-1.801,1.494-1.851,1.582
					c-0.137,0.035-0.288,0.295-0.475,0.416c0,0,0,0-0.187,0.121c-0.966,1.059-0.362,2.801-1.069,4.01
					c-0.656,1.121-2.758,1.746-3.105,2.934c-0.815,2.188-1.149,4.541-1,7.059c0.098,2.607,0.708,4.932,1.728,7.15
					c0.632,1.295,1.741,0.785,3.618,2.926c1.337,1.477,0.444,2.809,1.501,3.773c2.165,1.844,4.993,3.148,7.828,3.648
					C23.784,84.571,24.872,83.7,26.311,83.616z M25.866,74.667l-2.879,0.17c-0.806-0.008-1.806-0.477-2.122-1.125l-3.321-5.416
					c-0.402-0.699-0.43-1.641-0.113-2.383l2.798-5.777c0.267-0.654,1.254-1.352,2.06-1.344l2.879-0.17l2.246-0.078
					c0.806,0.008,1.756,0.564,2.209,1.176l3.321,5.416c0.453,0.611,0.38,1.729,0.113,2.383l-2.798,5.777
					c-0.267,0.656-1.203,1.268-2.06,1.344L25.866,74.667 M25.041,56.462l-2.879,0.17c-0.806-0.008-1.871-0.166-2.375-0.691
					l-2.69-2.732c-0.503-0.525-0.784-1.037-0.596-1.158c0,0,0.086,0.051,0.274-0.072c2.348-1.639,3.785,1.055,8.104,0.799
					c3.686-0.162,5.214-2.975,7.718-1.512c0.173,0.102,0.036,0.137,0.036,0.137c0.173,0.102-0.094,0.756-0.534,1.311l-2.522,2.928
					c-0.44,0.553-1.534,0.84-2.304,0.969L25.041,56.462L25.041,56.462z M26.262,82.313c-1.44,0.084-2.462,0.645-3.787,0.334
					c-1.411-0.361-2.806-0.945-2.806-0.945c-0.741-0.318-0.956-1.139-0.603-1.742l1.737-2.576c0.353-0.604,1.412-1.027,2.268-1.105
					l2.879-0.17l2.246-0.076c0.806,0.008,1.821,0.254,2.274,0.865l1.948,2.414c0.453,0.611,0.272,1.316-0.34,1.77
					c0,0-1.073,0.646-2.405,1.141C28.479,82.681,26.982,82.271,26.262,82.313z M33.688,53.757c0.44-0.555,0.915-0.971,1.088-0.871
					c0,0,0,0,0.173,0.102c0.935,0.779,0.286,2.484,1.069,3.521c0.661,0.85,2.619,1.068,3.043,2.125
					c0.948,1.945,1.363,5.199,1.363,5.199c0.129,0.77-0.498,1.445-1.218,1.488L36.6,65.419c-0.806-0.008-1.756-0.562-2.122-1.125
					l-3.097-5.4c-0.316-0.648-0.294-1.678,0.146-2.23L33.688,53.757z M17.95,57.298c0.503,0.527,0.704,1.57,0.351,2.174
					l-2.611,5.656c-0.267,0.654-1.254,1.352-2.06,1.344l-2.606,0.098c-0.806-0.008-1.396-0.584-1.438-1.303
					c0,0,0.169-3.262,0.883-5.275c0.382-1.051,2.384-1.502,2.889-2.367c0.656-1.121-0.134-2.742,0.73-3.627
					c0.101-0.172,0.101-0.172,0.101-0.172c0.101-0.174,0.705,0.18,1.209,0.707L17.95,57.298z M18.949,74.214
					c0.453,0.613,0.43,1.643-0.06,2.283l-1.586,2.316c-0.353,0.604-1.001,0.92-1.347,0.719c0,0,0,0-0.295-0.289
					c-0.935-0.777-0.387-2.311-1.343-3.449c-1.079-1.324-2.482-1.104-2.992-2.213c-0.704-1.57-1.242-3.621-1.242-3.621
					c-0.179-0.684,0.433-1.137,1.153-1.18l2.52-0.148c0.806,0.008,1.821,0.254,2.137,0.902L18.949,74.214z M34.682,68.702
					c0.353-0.605,1.275-0.992,2.132-1.072l2.519-0.148c0.806,0.008,1.324,0.311,1.23,1.066c0,0-0.319,2.129-0.918,3.748
					c-0.382,1.051-1.858,1-2.802,2.416c-0.843,1.246-0.175,2.678-1.04,3.562c-0.288,0.295-0.288,0.295-0.288,0.295
					c-0.288,0.295-0.943,0.027-1.396-0.584l-1.826-2.227c-0.453-0.611-0.618-1.518-0.264-2.123L34.682,68.702z"/>
			</g>
			<g id="eyes">
				<path id="eye_6_" fill="#FFFFFF" d="M27.291,35.771c0,0-0.721,1.432,0.494,2.721c1.215,1.289,2.577,0.348,2.577,0.348
					S29.291,36.708,27.291,35.771z"/>
				<path id="eye_7_" fill="#FFFFFF" d="M20.553,36.001c0,0,0.805,1.398-0.312,2.713c-1.167,1.404-2.549,0.596-2.549,0.596
					S18.681,37.224,20.553,36.001z"/>
				<path fill="#426932" d="M20.134,38.304c0.44-0.553,0.224-1.375-0.056-1.885c-0.8,0.574-1.34,1.301-1.693,1.906
					C18.816,38.577,19.694,38.858,20.134,38.304z"/>
				<path fill="#426932" d="M27.915,37.872c-0.503-0.525-0.359-1.367-0.142-1.936c0.777,0.453,1.403,1.168,1.906,1.693
					C29.204,38.046,28.505,38.448,27.915,37.872z"/>
			</g>
		</g>
	</g>
</g>
</svg>
