<?xml version="1.0" encoding="utf-8"?>
<!-- Generator: Adobe Illustrator 19.0.1, SVG Export Plug-In . SVG Version: 6.00 Build 0)  -->
<svg version="1.1" id="Layer_1" xmlns="http://www.w3.org/2000/svg" xmlns:xlink="http://www.w3.org/1999/xlink" x="0px" y="0px"
	 width="99px" height="119px" viewBox="0 0 99 119" enable-background="new 0 0 99 119" xml:space="preserve">
<path fill="#FAFAFA" stroke="#E4CBA9" stroke-miterlimit="10" d="M98.5,110.5c0,4.4-3.6,8-8,8h-82c-4.4,0-8-3.6-8-8V8.5
	c0-4.4,3.6-8,8-8h82c4.4,0,8,3.6,8,8V110.5z"/>
<path fill="#EC2727" d="M21.5,105c0,1.1-0.9,2-2,2l0,0c-1.1,0-2-0.9-2-2V59c0-1.1,0.9-2,2-2l0,0c1.1,0,2,0.9,2,2V105z"/>
<path fill="#EC2727" d="M20.5,60.2c-1,0.6-2.2,0.2-2.7-0.7l0,0c-0.6-1-0.2-2.2,0.7-2.7l39.8-23c1-0.6,2.2-0.2,2.7,0.7l0,0
	c0.6,1,0.2,2.2-0.7,2.7L20.5,60.2z"/>
<g id="Layer_3_2_">
	<g>
		<path fill="#8BC24C" d="M85.8,23.7L85.8,23.7c0.3,2.9-1,5.8-3.9,7.7c-1.3,0.9-1.5,0.8-3.5,1.1c0,0-1.2,0.2-1.9-0.2l0,0l0,0
			c0,0-1.4-0.2-1.4,1.7c0,1.5-4.2-1.9-5.6-3.6c-1-1.9-2.5-7.3-1.2-6.7c1.7,0.8,2-0.8,2-0.8l0,0c-0.1-0.8,0.9-2.2,0.9-2.2
			c0.7-0.9,1.2-1.7,2.4-2.5c2.8-1.8,5.8-1.8,8.2-0.3l0,0c0.4-0.2,2.5,1.1,3.2,2.2C85.9,21.1,86.1,23.5,85.8,23.7L85.8,23.7z
			 M62,24.2c0,0,2.2-4.2,0-6.1s-4-1.1-5.4-0.2c-1.9,1.3-1.7,4-1.7,4C57.9,21.7,62,24.2,62,24.2z M71.4,46.7c0,0,2.5,1.3,4.4,0
			c1.4-0.9,2.8-2.2,1.9-5C76.8,39,72,39.3,72,39.3S72.8,44.1,71.4,46.7z M44.5,28.9c0,0-4.2-1.4-5.6-0.1c-1.9,1.8-0.3,4,0.6,5.3
			c1.9,2.7,2.7,0.9,2.7,0.9S43.4,31.6,44.5,28.9z M54.4,53.3c0,0-1.9,0.1-0.2,2.8c0.9,1.4,2.2,3.7,4.6,2.6c1.7-0.8,2.1-5.1,2.1-5.1
			C57.9,53.6,54.4,53.3,54.4,53.3z M41.2,44.4c0,0-2.6,4.8-0.2,9.8c0.2,0.4,1,0.4,1.2,0c1.3-3.1,2.9-3.9,2.9-3.9l-0.8-3.4L41.2,44.4
			z"/>
		<path fill="#A3CF66" d="M71.1,22.9c-0.2-0.6,0-1.1,0.3-1.6c1.7-2.6,2.6-3.2,3-3.3c2.4,0.2,1.7,2,4.7,2.1c2.2,0.1,2.1-1.7,2.4-1.5
			c0.4,0.2,0.5-0.5,0.7-0.4c1.4,0.5,2.6,1.9,2.6,1.9s0.8,1.7,0.8,3.1c0,0.2-0.7,0-0.7,0.4c0,0.3-1.6-0.5-2.3,1.6
			c-1.1,2.9,0.8,2.9,0.1,5.2c-0.2,0.4-1.1,0.9-4.2,1.5c-0.6,0.1-1.2,0.1-1.6-0.3c-0.9-1.4-2.6-1.9-3.8-3.7
			C71.9,26,72,24.3,71.1,22.9z M70.1,29.8c1.1,1.9,4.1,4.8,4.3,3.4c0.2-1.8,1.9-1.2,1.7-1.4c-0.9-1.4-2.1-1.1-3.7-3.5
			s-0.9-3.4-1.8-4.8c-0.1-0.2-0.2,1.5-1.9,1C67.2,24.1,68.8,28,70.1,29.8z M59.6,23.4c1.2,0.2,1.9,0.5,1.9,0.5s1.8-4.5,0-5.6
			c-0.6-0.3-0.9-0.4-1.4-0.6L59.6,23.4z M77.2,43.5c0.1-0.4,0.1-0.8,0-1.5c-0.2-2-5.1-2.2-5.1-2.2s0,0.8-0.3,2L77.2,43.5z M43.5,30
			c0.2-1-0.3,0.2,0.1-0.8c0,0-3.8-1.3-4.4,0.2C39.1,29.5,39,30,39.5,30L43.5,30z M57.8,57.7c-0.2,0.5,0.3,0.5,0.5,0.5
			c1.7,0,1.9-4,1.9-4c-1.1,0,0.2,0-0.8-0.2L57.8,57.7z M40.9,48.1c-0.4,1.5-0.1,4.8,0.3,5.1c0.3,0.2-0.1-2.3,0.3-3.9
			c0.4-1.9,1.7-3,1.7-3l-0.9-0.9C42.2,45.2,41.2,46.8,40.9,48.1z"/>
		<g id="shell">
			<g>
				<path fill="#64A644" d="M51,42.6l-1.6-2.4c-0.4-0.7-0.5-1.8-0.2-2.4l3-5.6c0.3-0.7,1.2-1.2,2-1.3l6.4-0.6c0.7-0.1,1.8,0.4,2.2,1
					l1.6,2.4l1.2,1.9c0.4,0.7,0.4,1.8,0.1,2.5l-2.9,5.6c-0.3,0.7-1.2,1.3-2,1.3l-6.4,0.5c-0.7,0.1-1.7-0.4-2.2-1.1L51,42.6"/>
				<path fill="#64A644" d="M66.2,32.6l-1.6-2.4c-0.4-0.7-0.8-1.7-0.6-2.4l1-3.8c0.2-0.7,0.5-1.2,0.7-1.1c0,0,0,0.1,0.2,0.2
					c2.6,1.2,1.1,3.7,3.5,7.4c2,3,5.2,3,5.2,5.9c0,0.2-0.1,0.1-0.1,0.1c0,0.2-0.6,0.3-1.4,0.2l-3.8-0.6c-0.7-0.1-1.5-0.9-2-1.5
					L66.2,32.6L66.2,32.6z"/>
				<path fill="#64A644" d="M44.7,46.8c-0.8-1.2-1.8-1.8-2.2-3.1c-0.5-1.4-0.6-2.9-0.6-2.9c-0.1-0.8,0.4-1.4,1.2-1.4l3.1,0.2
					c0.7,0,1.6,0.7,2.1,1.3l1.6,2.4l1.2,1.9c0.4,0.7,0.7,1.7,0.4,2.4l-1,2.9c-0.3,0.7-1,1-1.7,0.6c0,0-1.1-0.5-2.2-1.5
					C45.5,48.9,45.1,47.4,44.7,46.8z"/>
				<path fill="#64A644" d="M73,38.6c0.7,0.1,1.3,0.3,1.3,0.5c0,0,0,0,0,0.2c-0.2,1.2-2,1.5-2.5,2.7c-0.4,1,0.4,2.8-0.2,3.7
					c-1.2,1.8-3.8,3.9-3.8,3.9c-0.6,0.5-1.4,0.3-1.9-0.3l-1.5-2.2c-0.4-0.7-0.4-1.8-0.1-2.4l3-5.4c0.4-0.6,1.3-1.1,2-1L73,38.6z"/>
				<path fill="#64A644" d="M61.9,26.9c-0.2,0.7-1,1.4-1.7,1.5L54,29.1c-0.7,0.1-1.8-0.4-2.2-1l-1.5-2.2c-0.4-0.7-0.2-1.5,0.4-1.9
					c0,0,2.9-1.5,5-1.9c1.1-0.2,2.5,1.2,3.6,1.2c1.3,0,2.2-1.5,3.4-1.2c0.2,0,0.2,0,0.2,0c0.2,0,0.2,0.7,0,1.4L61.9,26.9z"/>
				<path fill="#64A644" d="M47.9,36.4c-0.3,0.7-1.2,1.2-2,1.1l-2.8-0.2c-0.7,0-1.3-0.4-1.3-0.8c0,0,0,0,0.1-0.4
					c0.2-1.2,1.8-1.5,2.3-3c0.5-1.6-0.3-2.7,0.3-3.7c1-1.4,2.4-2.9,2.4-2.9c0.5-0.5,1.2-0.3,1.6,0.4l1.4,2.1
					c0.4,0.7,0.7,1.7,0.4,2.3L47.9,36.4z"/>
				<path fill="#64A644" d="M60.6,47.1c0.7-0.1,1.5,0.6,2,1.2l1.4,2.1c0.4,0.7,0.4,1.3-0.2,1.6c0,0-2,0.9-3.7,1.2
					c-1.1,0.2-1.8-1-3.5-1.2c-1.5-0.1-2.4,1.2-3.6,0.9c-0.4-0.1-0.4-0.1-0.4-0.1c-0.4-0.1-0.5-0.8-0.3-1.5l1-2.7
					c0.3-0.7,1-1.3,1.7-1.3L60.6,47.1z"/>
			</g>
			<g opacity="0.15">
				<path fill="#FFFFFF" d="M50.8,43.4L49.2,41c-0.4-0.7-0.5-1.8-0.2-2.4l3-5.6c0.3-0.7,1.2-1.2,2-1.3l6.4-0.6
					c0.7-0.1,1.8,0.4,2.2,1l1.6,2.4l1.2,1.9c0.4,0.7,0.4,1.8,0.1,2.5l-2.9,5.6c-0.3,0.7-1.2,1.3-2,1.3l-6.4,0.5
					c-0.7,0.1-1.7-0.4-2.2-1.1L50.8,43.4"/>
				<path fill="#FFFFFF" d="M66,33.3l-1.6-2.4c-0.4-0.7-0.8-1.7-0.6-2.4l1-3.8c0.2-0.7,0.5-1.2,0.7-1.1c0,0,0,0.1,0.2,0.2
					c2.6,1.2,1.1,3.7,3.5,7.4c2,3,5.2,3,5.2,5.9c0,0.2-0.1,0.1-0.1,0.1c0,0.2-0.6,0.3-1.4,0.2l-3.8-0.6c-0.7-0.1-1.5-0.9-2-1.5
					L66,33.3L66,33.3z"/>
				<path fill="#FFFFFF" d="M44.5,47.6c-0.8-1.2-1.8-1.8-2.2-3.1c-0.5-1.4-0.6-2.9-0.6-2.9c-0.1-0.8,0.4-1.4,1.2-1.4l3.1,0.2
					c0.7,0,1.6,0.7,2.1,1.3l1.6,2.4l1.2,1.9c0.4,0.7,0.7,1.7,0.4,2.4l-1,2.9c-0.3,0.7-1,1-1.7,0.6c0,0-1.1-0.5-2.2-1.5
					C45.3,49.7,44.9,48.2,44.5,47.6z"/>
				<path fill="#FFFFFF" d="M72.8,39.4c0.7,0.1,1.3,0.3,1.3,0.5c0,0,0,0,0,0.2c-0.2,1.2-2,1.5-2.5,2.7c-0.4,1,0.4,2.8-0.2,3.7
					c-1.2,1.8-3.8,3.9-3.8,3.9c-0.6,0.5-1.4,0.3-1.9-0.3l-1.5-2.2c-0.4-0.7-0.4-1.8-0.1-2.4l3-5.4c0.4-0.6,1.3-1.1,2-1L72.8,39.4z"
					/>
				<path fill="#FFFFFF" d="M61.8,27.6c-0.2,0.7-1,1.4-1.7,1.5l-6.2,0.7c-0.7,0.1-1.8-0.4-2.2-1l-1.5-2.2c-0.4-0.7-0.2-1.5,0.4-1.9
					c0,0,2.9-1.5,5-1.9c1.1-0.2,2.5,1.2,3.6,1.2c1.3,0,2.2-1.5,3.4-1.2c0.2,0,0.2,0,0.2,0c0.2,0,0.2,0.7,0,1.4L61.8,27.6z"/>
				<path fill="#FFFFFF" d="M47.7,37.2c-0.3,0.7-1.2,1.2-2,1.1l-2.8-0.2c-0.7,0-1.3-0.4-1.3-0.8c0,0,0,0,0.1-0.4
					c0.2-1.2,1.8-1.5,2.3-3c0.5-1.6-0.3-2.7,0.3-3.7c1-1.4,2.4-2.9,2.4-2.9c0.5-0.5,1.2-0.3,1.6,0.4l1.4,2.1
					c0.4,0.7,0.7,1.7,0.4,2.3L47.7,37.2z"/>
				<path fill="#FFFFFF" d="M60.5,47.9c0.7-0.1,1.5,0.6,2,1.2l1.4,2.1c0.4,0.7,0.4,1.3-0.2,1.6c0,0-2,0.9-3.7,1.2
					c-1.1,0.2-1.8-1-3.5-1.2c-1.5-0.1-2.4,1.2-3.6,0.9c-0.4-0.1-0.4-0.1-0.4-0.1c-0.4-0.1-0.5-0.8-0.3-1.5l1-2.7
					c0.3-0.7,1-1.3,1.7-1.3L60.5,47.9z"/>
			</g>
			<path fill="#538A3E" d="M43.6,47.5c0.4,0.6,0.6,2.3,1.5,3.2c2.1,2,4.7,3.3,7.5,4c1.3,0.3,1.9-1.2,3.9-1c2.8,0.3,3.1,1.5,4.5,1.2
				c2.4-0.5,4.7-1.4,6.8-2.8c2.1-1.4,3.8-3.1,5.1-5c0.7-1.1,0-3.1,0.5-4.3c0.6-1.3,2.3-1.8,2.6-3.2c0-0.2,0-0.2,0-0.2
				c0-0.2,0.1-0.5,0.1-0.6s0.3-1.5,0.3-2.2c0.1-3.8-4.4-5.2-5.6-7c-1.6-2.4-0.9-6.7-4.4-8.1c-0.7-0.3-2.2-0.8-2.3-0.8
				c-0.1-0.1-0.4-0.1-0.6-0.2c0,0,0,0-0.2-0.1c-1.4-0.3-2.6,1.1-4,1.1c-1.3,0-2.9-1.5-4.2-1.2c-2.3,0.5-4.5,1.4-6.6,2.7
				c-2.1,1.4-3.9,3.2-5.3,5.2c-0.8,1.2,0.2,1.9-0.6,4.6c-0.6,1.9-2.2,1.8-2.4,3.2c-0.4,2.8-0.1,5.9,0.9,8.6
				C41.5,45.9,42.7,46.3,43.6,47.5z M51,42.6l-1.6-2.4c-0.4-0.7-0.5-1.8-0.2-2.4l3-5.6c0.3-0.7,1.2-1.2,2-1.3l6.4-0.6
				c0.7-0.1,1.8,0.4,2.2,1l1.6,2.4l1.2,1.9c0.4,0.7,0.4,1.8,0.1,2.5l-2.9,5.6c-0.3,0.7-1.2,1.3-2,1.3l-6.4,0.5
				c-0.7,0.1-1.7-0.4-2.2-1.1L51,42.6 M66.2,32.6l-1.6-2.4c-0.4-0.7-0.8-1.7-0.6-2.4l1-3.8c0.2-0.7,0.5-1.2,0.7-1.1
				c0,0,0,0.1,0.2,0.2c2.6,1.2,1.1,3.7,3.5,7.4c2,3,5.2,3,5.2,5.9c0,0.2-0.1,0.1-0.1,0.1c0,0.2-0.6,0.3-1.4,0.2l-3.8-0.6
				c-0.7-0.1-1.5-0.9-2-1.5L66.2,32.6L66.2,32.6z M44.7,46.8c-0.8-1.2-1.8-1.8-2.2-3.1c-0.5-1.4-0.6-2.9-0.6-2.9
				c-0.1-0.8,0.4-1.4,1.2-1.4l3.1,0.2c0.7,0,1.6,0.7,2.1,1.3l1.6,2.4l1.2,1.9c0.4,0.7,0.7,1.7,0.4,2.4l-1,2.9c-0.3,0.7-1,1-1.7,0.6
				c0,0-1.1-0.5-2.2-1.5C45.5,48.9,45.1,47.4,44.7,46.8z M73,38.6c0.7,0.1,1.3,0.3,1.3,0.5c0,0,0,0,0,0.2c-0.2,1.2-2,1.5-2.5,2.7
				c-0.4,1,0.4,2.8-0.2,3.7c-1.2,1.8-3.8,3.9-3.8,3.9c-0.6,0.5-1.4,0.3-1.9-0.3l-1.5-2.2c-0.4-0.7-0.4-1.8-0.1-2.4l3-5.4
				c0.4-0.6,1.3-1.1,2-1L73,38.6z M61.9,26.9c-0.2,0.7-1,1.4-1.7,1.5L54,29.1c-0.7,0.1-1.8-0.4-2.2-1l-1.5-2.2
				c-0.4-0.7-0.2-1.5,0.4-1.9c0,0,2.9-1.5,5-1.9c1.1-0.2,2.5,1.2,3.6,1.2c1.3,0,2.2-1.5,3.4-1.2c0.2,0,0.2,0,0.2,0
				c0.2,0,0.2,0.7,0,1.4L61.9,26.9z M47.9,36.4c-0.3,0.7-1.2,1.2-2,1.1l-2.8-0.2c-0.7,0-1.3-0.4-1.3-0.8c0,0,0,0,0.1-0.4
				c0.2-1.2,1.8-1.5,2.3-3c0.5-1.6-0.3-2.7,0.3-3.7c1-1.4,2.4-2.9,2.4-2.9c0.5-0.5,1.2-0.3,1.6,0.4l1.4,2.1c0.4,0.7,0.7,1.7,0.4,2.3
				L47.9,36.4z M60.6,47.1c0.7-0.1,1.5,0.6,2,1.2l1.4,2.1c0.4,0.7,0.4,1.3-0.2,1.6c0,0-2,0.9-3.7,1.2c-1.1,0.2-1.8-1-3.5-1.2
				c-1.5-0.1-2.4,1.2-3.6,0.9c-0.4-0.1-0.4-0.1-0.4-0.1c-0.4-0.1-0.5-0.8-0.3-1.5l1-2.7c0.3-0.7,1-1.3,1.7-1.3L60.6,47.1z"/>
		</g>
		<g id="eyes">
			<path id="eye_6_" fill="#FFFFFF" d="M85.2,23.9c0,0-1.6,0.1-2,1.9c-0.4,1.7,1,2.4,1,2.4S85.3,26.1,85.2,23.9z"/>
			<path id="eye_7_" fill="#FFFFFF" d="M81.4,18.3c0,0-0.7,1.4-2.5,1.1s-1.8-1.9-1.8-1.9S79.4,17.2,81.4,18.3z"/>
			<path fill="#426932" d="M79.3,19c0.7,0.1,1.3-0.5,1.6-1c-0.9-0.4-1.8-0.5-2.5-0.5C78.4,18.1,78.6,18.9,79.3,19z"/>
			<path fill="#426932" d="M83.6,25.6c0.2-0.7,1-1,1.5-1.1c0,0.9-0.3,1.8-0.5,2.5C84.2,26.7,83.4,26.3,83.6,25.6z"/>
		</g>
	</g>
</g>
</svg>
