<?xml version="1.0" encoding="utf-8"?>
<!-- Generator: Adobe Illustrator 19.0.1, SVG Export Plug-In . SVG Version: 6.00 Build 0)  -->
<svg version="1.1" id="Layer_1" xmlns="http://www.w3.org/2000/svg" xmlns:xlink="http://www.w3.org/1999/xlink" x="0px" y="0px"
	 width="430.639px" height="228.4px" viewBox="0 0 430.639 228.4" enable-background="new 0 0 430.639 228.4" xml:space="preserve">
<g>
	<ellipse fill="#FFFFFF" fill-opacity="0" stroke="#243F92" stroke-width="4" cx="359.319" cy="104.95" rx="49" ry="49.2"/>
	<line fill="none" stroke="#243F92" stroke-width="4" x1="359.319" y1="55.8" x2="359.319" y2="48"/>
	<line fill="none" stroke="#243F92" stroke-width="4" x1="408.419" y1="105" x2="415.519" y2="105"/>
	<line fill="none" stroke="#243F92" stroke-width="4" x1="359.319" y1="154.2" x2="359.319" y2="162"/>
	<line fill="none" stroke="#243F92" stroke-width="4" x1="310.319" y1="105" x2="303.919" y2="105"/>
	<rect x="356.619" y="25.6" fill="none" width="5.5" height="7.5"/>
	
		<text transform="matrix(1 0 0 1 356.6083 31.4656)" fill="none" stroke="#243F92" font-family="'MyriadPro-Regular'" font-size="12px">0</text>
	<rect x="352.019" y="38.6" fill="none" width="14.8" height="7.3"/>
	
		<text transform="matrix(1 0 0 1 349.8203 45.8532)" fill="none" stroke="#243F92" font-family="'MyriadPro-Regular'" font-size="12px">360</text>
	<rect x="418.719" y="101.1" fill="none" width="9.8" height="7.8"/>
	
		<text transform="matrix(1 0 0 1 418.7548 108.8915)" fill="none" stroke="#243F92" font-family="'MyriadPro-Regular'" font-size="12px">90</text>
	<rect x="352.019" y="163.7" fill="none" width="14.6" height="7.5"/>
	
		<text transform="matrix(1 0 0 1 349.8203 171.1639)" fill="none" stroke="#243F92" font-family="'MyriadPro-Regular'" font-size="12px">180</text>
	<rect x="286.219" y="101.3" fill="none" width="14.9" height="7.3"/>
	
		<text transform="matrix(1 0 0 1 284.2324 108.6362)" fill="none" stroke="#243F92" font-family="'MyriadPro-Regular'" font-size="12px">270</text>
	<g id="Layer_3_2_">
		<g>
			<path fill="#8BC24C" d="M23.019,1.7L23.019,1.7c2.6,1.3,4.3,4.1,4.3,7.4c0,1.5-0.2,1.7-1,3.5c0,0-0.5,1.1-1.2,1.4l0,0l0,0
				c0,0-1,1.1,0.6,2.1c1.2,0.8-3.9,2.5-6.1,2.7c-2.2-0.2-7.5-1.9-6.3-2.7c1.6-1,0.4-2.1,0.4-2.1l0,0c-0.7-0.3-1.3-2-1.3-2
				c-0.4-1.1-0.8-1.9-0.8-3.4c0-3.3,1.7-5.8,4.3-7.1l0,0c0-0.4,2.3-1.5,3.6-1.5C20.919,0.1,22.919,1.3,23.019,1.7L23.019,1.7z
				 M10.319,21.7c0,0-2.3-4.2-5.1-3.4c-2.8,0.8-3.1,2.7-3.1,4.3c0,2.3,2.4,3.7,2.4,3.7C5.919,23.8,10.319,21.7,10.319,21.7z
				 M34.219,26.3c0,0,2.4-1.4,2.4-3.7c0-1.6-0.3-3.6-3.1-4.3c-2.8-0.8-5.1,3.4-5.1,3.4S32.819,23.8,34.219,26.3z M4.519,39
				c0,0-3.5,2.7-3.1,4.6c0.5,2.6,3.1,2.4,4.7,2.4c3.3-0.1,2.2-1.7,2.2-1.7S6.119,41.4,4.519,39z M30.319,44.2c0,0-1,1.6,2.2,1.7
				c1.6,0,4.3,0.2,4.7-2.4c0.3-1.8-3.1-4.6-3.1-4.6C32.519,41.4,30.319,44.2,30.319,44.2z M15.619,50.3c0,0,2.6,4.8,8.1,5.6
				c0.5,0.1,0.9-0.6,0.7-1c-1.8-2.8-1.6-4.6-1.6-4.6l-3.3-1.2L15.619,50.3z"/>
			<path fill="#A3CF66" d="M14.219,13.5c-0.6-0.1-0.9-0.6-1.2-1.2c-1.2-2.9-1.3-4-1.1-4.3c1.5-1.8,2.6-0.3,4.4-2.8
				c1.3-1.8-0.2-2.7,0-2.8c0.3-0.2-0.1-0.7,0-0.8c1.2-0.8,3-1.1,3-1.1s1.8,0.2,3,1.1c0.1,0.1-0.3,0.6,0,0.8c0.2,0.2-1.3,1,0,2.8
				c1.8,2.5,2.9,0.9,4.4,2.8c0.2,0.4,0.2,1.4-1.1,4.3c-0.3,0.6-0.5,1-1.2,1.2c-1.7,0-3,1.1-5.2,1.1
				C17.219,14.5,15.919,13.5,14.219,13.5z M19.419,18.1c2.2,0.1,6.3-0.8,5.2-1.7c-1.4-1.2,0-2.2-0.2-2.2c-1.7,0-2.1,1.2-5,1.2
				s-3.3-1.2-5-1.2c-0.2-0.1,1.1,1-0.2,2.2C13.019,17.3,17.219,18.2,19.419,18.1z M8.319,23.3c0.8-0.9,1.5-1.3,1.5-1.3
				s-2.8-4-4.7-3.1c-0.6,0.3-0.9,0.5-1.3,0.8L8.319,23.3z M34.719,19.7c-0.3-0.3-0.6-0.5-1.2-0.8c-1.8-0.9-4.7,3.1-4.7,3.1
				s0.7,0.5,1.5,1.3L34.719,19.7z M4.919,40.4c-0.7-0.8,0,0.4-0.6-0.6c0,0-3.2,2.4-2.3,3.8c0.1,0.1,0.4,0.5,0.7,0.1L4.919,40.4z
				 M35.919,43.8c0.4,0.4,0.6,0,0.7-0.1c0.9-1.4-2.3-3.8-2.3-3.8c-0.6,0.9,0.1-0.2-0.6,0.6L35.919,43.8z M18.519,52.6
				c1,1.2,3.9,2.7,4.4,2.5c0.3-0.1-2-1.1-3.2-2.4c-1.4-1.4-1.6-3.1-1.6-3.1l-1.3,0.3C16.919,49.9,17.619,51.6,18.519,52.6z"/>
			<g id="shell">
				<g>
					<path fill="#64A644" d="M19.519,41.2h-2.9c-0.8,0-1.8-0.6-2.1-1.2l-3.1-5.6c-0.4-0.6-0.4-1.7,0-2.4l3.1-5.6
						c0.4-0.6,1.3-1.3,2.1-1.3h2.9h2.3c0.8,0,1.8,0.6,2.1,1.3l3.1,5.5c0.4,0.6,0.4,1.7,0,2.4l-3.1,5.6c-0.4,0.6-1.3,1.2-2.1,1.2
						L19.519,41.2"/>
					<path fill="#64A644" d="M19.519,22.9h-2.9c-0.8,0-1.9-0.2-2.4-0.8l-2.6-2.9c-0.5-0.6-0.7-1.1-0.6-1.2c0,0,0.1,0,0.3-0.1
						c2.4-1.6,3.7,1.2,8.1,1.2c3.6,0,5.4-2.7,7.8-1.1c0.2,0.1,0.1,0.1,0.1,0.1c0.2,0.1-0.1,0.7-0.6,1.3l-2.6,2.8
						c-0.5,0.6-1.6,0.8-2.4,0.8L19.519,22.9L19.519,22.9z"/>
					<path fill="#64A644" d="M19.519,48.7c-1.5,0-2.5,0.5-3.8,0.1c-1.4-0.4-2.7-1-2.7-1c-0.7-0.4-0.9-1.1-0.5-1.8l1.9-2.4
						c0.4-0.6,1.5-1,2.3-1h2.9h2.2c0.8,0,1.8,0.4,2.3,1l1.9,2.5c0.4,0.6,0.2,1.4-0.4,1.7c0,0-1.1,0.7-2.5,1
						C21.719,49.2,20.319,48.7,19.519,48.7z"/>
					<path fill="#64A644" d="M28.319,20.6c0.5-0.6,1-0.9,1.2-0.8c0,0,0,0,0.1,0.1c0.9,0.9,0.2,2.5,0.9,3.5c0.6,0.9,2.6,1.2,3,2.3
						c0.8,2,1.1,5.3,1.1,5.3c0.1,0.7-0.5,1.4-1.3,1.4h-2.6c-0.8,0-1.7-0.6-2.1-1.3l-2.9-5.5c-0.3-0.7-0.2-1.7,0.3-2.3L28.319,20.6z"
						/>
					<path fill="#64A644" d="M12.419,23.3c0.5,0.6,0.6,1.6,0.3,2.2l-2.9,5.6c-0.3,0.7-1.3,1.3-2.1,1.3h-2.6c-0.8,0-1.4-0.7-1.3-1.4
						c0,0,0.3-3.2,1.1-5.2c0.4-1,2.4-1.4,3-2.3c0.7-1,0-2.7,0.9-3.5c0.1-0.1,0.1-0.1,0.1-0.1c0.1-0.1,0.7,0.2,1.2,0.8L12.419,23.3z"
						/>
					<path fill="#64A644" d="M12.619,40.3c0.4,0.6,0.3,1.7-0.1,2.3l-1.7,2.3c-0.4,0.6-1.1,0.9-1.4,0.6c0,0,0,0-0.3-0.3
						c-0.9-0.9-0.3-2.4-1.2-3.6c-1-1.3-2.5-1.2-2.9-2.3c-0.7-1.6-1.1-3.6-1.1-3.6c-0.1-0.7,0.4-1.1,1.2-1.1h2.5c0.8,0,1.8,0.3,2.1,1
						L12.619,40.3z"/>
					<path fill="#64A644" d="M28.619,35.6c0.4-0.6,1.3-1,2.1-1h2.5c0.8,0,1.4,0.4,1.2,1.1c0,0-0.4,2.1-1.1,3.7
						c-0.4,1.1-1.9,0.9-2.9,2.3c-0.9,1.2-0.3,2.7-1.2,3.5c-0.3,0.3-0.3,0.2-0.3,0.2c-0.3,0.3-1,0-1.4-0.6l-1.7-2.3
						c-0.4-0.6-0.5-1.5-0.1-2.2L28.619,35.6z"/>
				</g>
				<g opacity="0.15">
					<path fill="#FFFFFF" d="M20.119,41.7h-2.9c-0.8,0-1.8-0.6-2.1-1.2l-3.1-5.6c-0.4-0.6-0.4-1.7,0-2.4l3.1-5.6
						c0.4-0.6,1.3-1.3,2.1-1.3h2.9h2.3c0.8,0,1.8,0.6,2.1,1.3l3.1,5.5c0.4,0.6,0.4,1.7,0,2.4l-3.1,5.6c-0.4,0.6-1.3,1.2-2.1,1.2
						L20.119,41.7"/>
					<path fill="#FFFFFF" d="M20.119,23.5h-2.9c-0.8,0-1.9-0.2-2.4-0.8l-2.6-2.9c-0.5-0.6-0.7-1.1-0.6-1.2c0,0,0.1,0,0.3-0.1
						c2.4-1.6,3.7,1.2,8.1,1.2c3.6,0,5.4-2.7,7.8-1.1c0.2,0.1,0.1,0.1,0.1,0.1c0.2,0.1-0.1,0.7-0.6,1.3l-2.6,2.8
						c-0.5,0.6-1.6,0.8-2.4,0.8L20.119,23.5L20.119,23.5z"/>
					<path fill="#FFFFFF" d="M20.119,49.3c-1.5,0-2.5,0.5-3.8,0.1c-1.4-0.4-2.7-1-2.7-1c-0.7-0.4-0.9-1.1-0.5-1.8l1.9-2.4
						c0.4-0.6,1.5-1,2.3-1h2.8h2.2c0.8,0,1.8,0.4,2.3,1l1.9,2.5c0.4,0.6,0.2,1.4-0.4,1.7c0,0-1.1,0.7-2.5,1
						C22.319,49.7,20.819,49.3,20.119,49.3z"/>
					<path fill="#FFFFFF" d="M28.919,21.2c0.5-0.6,1-0.9,1.2-0.8c0,0,0,0,0.1,0.1c0.9,0.9,0.2,2.5,0.9,3.5c0.6,0.9,2.6,1.2,3,2.3
						c0.8,2,1.1,5.3,1.1,5.3c0.1,0.7-0.5,1.4-1.3,1.4h-2.6c-0.8,0-1.7-0.6-2.1-1.3l-2.9-5.5c-0.3-0.7-0.2-1.7,0.3-2.3L28.919,21.2z"
						/>
					<path fill="#FFFFFF" d="M13.019,23.9c0.5,0.6,0.6,1.6,0.3,2.2l-2.9,5.6c-0.3,0.7-1.3,1.3-2.1,1.3h-2.6c-0.8,0-1.4-0.7-1.3-1.4
						c0,0,0.3-3.2,1.1-5.2c0.4-1,2.4-1.4,3-2.3c0.7-1,0-2.7,0.9-3.5c0.1-0.1,0.1-0.1,0.1-0.1c0.1-0.1,0.7,0.2,1.2,0.8L13.019,23.9z"
						/>
					<path fill="#FFFFFF" d="M13.219,40.9c0.4,0.6,0.3,1.7-0.1,2.3l-1.7,2.3c-0.4,0.6-1.1,0.9-1.4,0.6c0,0,0,0-0.3-0.3
						c-0.9-0.9-0.3-2.4-1.2-3.6c-1-1.3-2.5-1.2-2.9-2.3c-0.7-1.6-1.1-3.6-1.1-3.6c-0.1-0.7,0.4-1.1,1.2-1.1h2.5c0.8,0,1.8,0.3,2.1,1
						L13.219,40.9z"/>
					<path fill="#FFFFFF" d="M29.219,36.1c0.4-0.6,1.3-1,2.1-1h2.5c0.8,0,1.4,0.4,1.2,1.1c0,0-0.4,2.1-1.1,3.7
						c-0.4,1.1-1.9,0.9-2.9,2.3c-0.9,1.2-0.3,2.7-1.2,3.5c-0.3,0.3-0.3,0.2-0.3,0.2c-0.3,0.3-1,0-1.4-0.6l-1.7-2.3
						c-0.4-0.6-0.5-1.5-0.1-2.2L29.219,36.1z"/>
				</g>
				<path fill="#538A3E" d="M19.519,50c0.7,0,2.2,0.8,3.5,0.5c2.8-0.7,5.3-2.1,7.4-4c1-0.9,0-2.3,1.3-3.8c1.8-2.2,2.9-1.7,3.5-3.1
					c0.9-2.2,1.4-4.7,1.4-7.2s-0.5-4.9-1.4-7c-0.5-1.2-2.6-1.7-3.3-2.8c-0.8-1.2-0.3-2.9-1.3-3.9c-0.1-0.1-0.1-0.1-0.1-0.1
					c-0.1-0.1-0.3-0.4-0.4-0.4c-0.1-0.1-1.1-1.1-1.7-1.5c-3.1-2.2-6.7,0.8-8.9,0.8c-2.9,0-6.1-2.9-9.2-0.8c-0.6,0.4-1.9,1.4-2,1.5
					s-0.3,0.3-0.5,0.4c0,0,0,0-0.1,0.1c-1,1-0.5,2.7-1.3,3.9c-0.7,1.1-2.8,1.6-3.3,2.8c-0.9,2.2-1.4,4.5-1.4,7c0,2.6,0.5,5,1.4,7.2
					c0.5,1.3,1.7,0.9,3.5,3.1c1.2,1.5,0.3,2.9,1.3,3.8c2.1,1.9,4.8,3.3,7.7,4C17.019,50.9,18.119,50,19.519,50z M19.519,41.2h-2.9
					c-0.8,0-1.8-0.6-2.1-1.2l-3.1-5.6c-0.4-0.6-0.4-1.7,0-2.4l3.1-5.6c0.4-0.6,1.3-1.3,2.1-1.3h2.9h2.3c0.8,0,1.8,0.6,2.1,1.3
					l3.1,5.5c0.4,0.6,0.4,1.7,0,2.4l-3.1,5.6c-0.4,0.6-1.3,1.2-2.1,1.2L19.519,41.2 M19.519,22.9h-2.9c-0.8,0-1.9-0.2-2.4-0.8
					l-2.6-2.9c-0.5-0.6-0.7-1.1-0.6-1.2c0,0,0.1,0,0.3-0.1c2.4-1.6,3.7,1.2,8.1,1.2c3.6,0,5.4-2.7,7.8-1.1c0.2,0.1,0.1,0.1,0.1,0.1
					c0.2,0.1-0.1,0.7-0.6,1.3l-2.6,2.8c-0.5,0.6-1.6,0.8-2.4,0.8L19.519,22.9L19.519,22.9z M19.519,48.7c-1.5,0-2.5,0.5-3.8,0.1
					c-1.4-0.4-2.7-1-2.7-1c-0.7-0.4-0.9-1.1-0.5-1.8l1.9-2.4c0.4-0.6,1.5-1,2.3-1h2.9h2.2c0.8,0,1.8,0.4,2.3,1l1.9,2.5
					c0.4,0.6,0.2,1.4-0.4,1.7c0,0-1.1,0.7-2.5,1C21.719,49.2,20.319,48.7,19.519,48.7z M28.319,20.6c0.5-0.6,1-0.9,1.2-0.8
					c0,0,0,0,0.1,0.1c0.9,0.9,0.2,2.5,0.9,3.5c0.6,0.9,2.6,1.2,3,2.3c0.8,2,1.1,5.3,1.1,5.3c0.1,0.7-0.5,1.4-1.3,1.4h-2.6
					c-0.8,0-1.7-0.6-2.1-1.3l-2.9-5.5c-0.3-0.7-0.2-1.7,0.3-2.3L28.319,20.6z M12.419,23.3c0.5,0.6,0.6,1.6,0.3,2.2l-2.9,5.6
					c-0.3,0.7-1.3,1.3-2.1,1.3h-2.6c-0.8,0-1.4-0.7-1.3-1.4c0,0,0.3-3.2,1.1-5.2c0.4-1,2.4-1.4,3-2.3c0.7-1,0-2.7,0.9-3.5
					c0.1-0.1,0.1-0.1,0.1-0.1c0.1-0.1,0.7,0.2,1.2,0.8L12.419,23.3z M12.619,40.3c0.4,0.6,0.3,1.7-0.1,2.3l-1.7,2.3
					c-0.4,0.6-1.1,0.9-1.4,0.6c0,0,0,0-0.3-0.3c-0.9-0.9-0.3-2.4-1.2-3.6c-1-1.3-2.5-1.2-2.9-2.3c-0.7-1.6-1.1-3.6-1.1-3.6
					c-0.1-0.7,0.4-1.1,1.2-1.1h2.5c0.8,0,1.8,0.3,2.1,1L12.619,40.3z M28.619,35.6c0.4-0.6,1.3-1,2.1-1h2.5c0.8,0,1.4,0.4,1.2,1.1
					c0,0-0.4,2.1-1.1,3.7c-0.4,1.1-1.9,0.9-2.9,2.3c-0.9,1.2-0.3,2.7-1.2,3.5c-0.3,0.3-0.3,0.2-0.3,0.2c-0.3,0.3-1,0-1.4-0.6
					l-1.7-2.3c-0.4-0.6-0.5-1.5-0.1-2.2L28.619,35.6z"/>
			</g>
			<g id="eyes">
				<path id="eye_6_" fill="#FFFFFF" d="M22.819,2.3c0,0-0.8,1.4,0.4,2.7c1.2,1.3,2.6,0.5,2.6,0.5S24.719,3.4,22.819,2.3z"/>
				<path id="eye_7_" fill="#FFFFFF" d="M16.019,2.3c0,0,0.8,1.4-0.4,2.7c-1.2,1.3-2.6,0.5-2.6,0.5S14.019,3.4,16.019,2.3z"/>
				<path fill="#426932" d="M15.519,4.5c0.5-0.5,0.3-1.3,0.1-1.9c-0.8,0.5-1.4,1.2-1.8,1.8C14.219,4.7,15.019,5.1,15.519,4.5z"/>
				<path fill="#426932" d="M23.319,4.5c-0.5-0.5-0.3-1.3,0-1.9c0.8,0.5,1.4,1.2,1.8,1.8C24.619,4.7,23.819,5.1,23.319,4.5z"/>
			</g>
		</g>
	</g>
	<g id="Layer_3_1_">
		<g>
			<path fill="#8BC24C" d="M14.219,226.7L14.219,226.7c-2.6-1.3-4.3-4.1-4.3-7.4c0-1.5,0.2-1.7,1-3.5c0,0,0.5-1.1,1.2-1.4l0,0l0,0
				c0,0,1-1.1-0.6-2.1c-1.2-0.8,3.9-2.5,6.1-2.7c2.2,0.2,7.5,1.9,6.3,2.7c-1.6,1-0.4,2.1-0.4,2.1l0,0c0.7,0.3,1.3,2,1.3,2
				c0.4,1.1,0.8,1.9,0.8,3.4c0,3.3-1.7,5.8-4.3,7.1l0,0c0,0.4-2.3,1.5-3.6,1.5C16.319,228.2,14.319,227.1,14.219,226.7L14.219,226.7
				z M26.919,206.6c0,0,2.3,4.2,5.1,3.4c2.8-0.8,3.1-2.7,3.1-4.3c0-2.3-2.4-3.7-2.4-3.7C31.319,204.6,26.919,206.6,26.919,206.6z
				 M3.019,202.1c0,0-2.4,1.4-2.4,3.7c0,1.6,0.3,3.6,3.1,4.3c2.8,0.8,5.1-3.4,5.1-3.4S4.419,204.6,3.019,202.1z M32.719,189.4
				c0,0,3.5-2.7,3.1-4.6c-0.5-2.6-3.1-2.4-4.7-2.4c-3.3,0.1-2.2,1.7-2.2,1.7S31.119,187,32.719,189.4z M6.919,184.2
				c0,0,1-1.6-2.2-1.7c-1.6,0-4.3-0.2-4.7,2.4c-0.3,1.8,3.1,4.6,3.1,4.6C4.719,187,6.919,184.2,6.919,184.2z M21.619,178.1
				c0,0-2.6-4.8-8.1-5.6c-0.5-0.1-0.9,0.6-0.7,1c1.8,2.8,1.6,4.6,1.6,4.6l3.3,1.2L21.619,178.1z"/>
			<path fill="#A3CF66" d="M23.019,214.9c0.6,0.1,0.9,0.6,1.2,1.2c1.2,2.9,1.3,4,1.1,4.3c-1.5,1.8-2.6,0.3-4.4,2.8
				c-1.3,1.8,0.2,2.7,0,2.8c-0.3,0.2,0.1,0.7,0,0.8c-1.2,0.8-3,1.1-3,1.1s-1.8-0.2-3-1.1c-0.1-0.1,0.3-0.6,0-0.8
				c-0.2-0.2,1.3-1,0-2.8c-1.8-2.5-2.9-0.9-4.4-2.8c-0.2-0.4-0.2-1.4,1.1-4.3c0.3-0.6,0.5-1,1.2-1.2c1.7,0,3-1.1,5.2-1.1
				C20.019,213.9,21.319,214.9,23.019,214.9z M17.819,210.3c-2.2-0.1-6.3,0.8-5.2,1.7c1.4,1.2,0,2.2,0.2,2.2c1.7,0,2.1-1.2,5-1.2
				s3.3,1.2,5,1.2c0.2,0.1-1.1-1,0.2-2.2C24.219,211,20.019,210.2,17.819,210.3z M28.919,205.1c-0.8,0.9-1.5,1.3-1.5,1.3
				s2.8,4,4.7,3.1c0.6-0.3,0.9-0.5,1.3-0.8L28.919,205.1z M2.519,208.6c0.3,0.3,0.6,0.5,1.2,0.8c1.8,0.9,4.7-3.1,4.7-3.1
				s-0.7-0.5-1.5-1.3L2.519,208.6z M32.319,188c0.7,0.8,0-0.4,0.6,0.6c0,0,3.2-2.4,2.3-3.8c-0.1-0.1-0.4-0.5-0.7-0.1L32.319,188z
				 M1.319,184.6c-0.4-0.4-0.6,0-0.7,0.1c-0.9,1.4,2.3,3.8,2.3,3.8c0.6-0.9-0.1,0.2,0.6-0.6L1.319,184.6z M18.719,175.8
				c-1-1.2-3.9-2.7-4.4-2.5c-0.3,0.1,2,1.1,3.2,2.4c1.4,1.4,1.6,3.1,1.6,3.1l1.3-0.3C20.319,178.5,19.619,176.8,18.719,175.8z"/>
			<g id="shell_1_">
				<g>
					<path fill="#64A644" d="M17.719,187.2h2.9c0.8,0,1.8,0.6,2.1,1.2l3.1,5.6c0.4,0.6,0.4,1.7,0,2.4l-3.1,5.6
						c-0.4,0.6-1.3,1.3-2.1,1.3h-2.9h-2.3c-0.8,0-1.8-0.6-2.1-1.3l-3.1-5.5c-0.4-0.6-0.4-1.7,0-2.4l3.1-5.6c0.4-0.6,1.3-1.2,2.1-1.2
						L17.719,187.2"/>
					<path fill="#64A644" d="M17.719,205.5h2.9c0.8,0,1.9,0.2,2.4,0.8l2.6,2.9c0.5,0.6,0.7,1.1,0.6,1.2c0,0-0.1,0-0.3,0.1
						c-2.4,1.6-3.7-1.2-8.1-1.2c-3.6,0-5.4,2.7-7.8,1.1c-0.2-0.1-0.1-0.1-0.1-0.1c-0.2-0.1,0.1-0.7,0.6-1.3l2.6-2.8
						c0.5-0.6,1.6-0.8,2.4-0.8L17.719,205.5L17.719,205.5z"/>
					<path fill="#64A644" d="M17.719,179.7c1.5,0,2.5-0.5,3.8-0.1c1.4,0.4,2.7,1,2.7,1c0.7,0.4,0.9,1.1,0.5,1.8l-1.9,2.4
						c-0.4,0.6-1.5,1-2.3,1h-2.9h-2.2c-0.8,0-1.8-0.4-2.3-1l-1.9-2.5c-0.4-0.6-0.2-1.4,0.4-1.7c0,0,1.1-0.7,2.5-1
						C15.519,179.2,16.919,179.7,17.719,179.7z"/>
					<path fill="#64A644" d="M8.919,207.8c-0.5,0.6-1,0.9-1.2,0.8c0,0,0,0-0.1-0.1c-0.9-0.9-0.2-2.5-0.9-3.5c-0.6-0.9-2.6-1.2-3-2.3
						c-0.8-2-1.1-5.3-1.1-5.3c-0.1-0.7,0.5-1.4,1.3-1.4h2.6c0.8,0,1.7,0.6,2.1,1.3l2.9,5.5c0.3,0.7,0.2,1.7-0.3,2.3L8.919,207.8z"/>
					<path fill="#64A644" d="M24.819,205c-0.5-0.6-0.6-1.6-0.3-2.2l2.9-5.6c0.3-0.7,1.3-1.3,2.1-1.3h2.6c0.8,0,1.4,0.7,1.3,1.4
						c0,0-0.3,3.2-1.1,5.2c-0.4,1-2.4,1.4-3,2.3c-0.7,1,0,2.7-0.9,3.5c-0.1,0.1-0.1,0.1-0.1,0.1c-0.1,0.1-0.7-0.2-1.2-0.8
						L24.819,205z"/>
					<path fill="#64A644" d="M24.519,188.1c-0.4-0.6-0.3-1.7,0.1-2.3l1.7-2.3c0.4-0.6,1.1-0.9,1.4-0.6c0,0,0,0,0.3,0.3
						c0.9,0.9,0.3,2.4,1.2,3.6c1,1.3,2.5,1.2,2.9,2.3c0.7,1.6,1.1,3.6,1.1,3.6c0.1,0.7-0.4,1.1-1.2,1.1h-2.5c-0.8,0-1.8-0.3-2.1-1
						L24.519,188.1z"/>
					<path fill="#64A644" d="M8.619,192.8c-0.4,0.6-1.3,1-2.1,1h-2.5c-0.8,0-1.4-0.4-1.2-1.1c0,0,0.4-2.1,1.1-3.7
						c0.4-1.1,1.9-0.9,2.9-2.3c0.9-1.2,0.3-2.7,1.2-3.5c0.3-0.3,0.3-0.2,0.3-0.2c0.3-0.3,1,0,1.4,0.6l1.7,2.3
						c0.4,0.6,0.5,1.5,0.1,2.2L8.619,192.8z"/>
				</g>
				<g opacity="0.15">
					<path fill="#FFFFFF" d="M17.119,186.7h2.9c0.8,0,1.8,0.6,2.1,1.2l3.1,5.6c0.4,0.6,0.4,1.7,0,2.4l-3.1,5.5
						c-0.4,0.6-1.3,1.3-2.1,1.3h-2.9h-2.3c-0.8,0-1.8-0.6-2.1-1.3l-3.1-5.5c-0.4-0.6-0.4-1.7,0-2.4l3.1-5.6c0.4-0.6,1.3-1.2,2.1-1.2
						H17.119"/>
					<path fill="#FFFFFF" d="M17.119,204.9h2.9c0.8,0,1.9,0.2,2.4,0.8l2.6,2.9c0.5,0.6,0.7,1.1,0.6,1.2c0,0-0.1,0-0.3,0.1
						c-2.4,1.6-3.7-1.2-8.1-1.2c-3.6,0-5.4,2.7-7.8,1.1c-0.2-0.1-0.1-0.1-0.1-0.1c-0.2-0.1,0.1-0.7,0.6-1.3l2.6-2.8
						c0.5-0.6,1.6-0.8,2.4-0.8L17.119,204.9L17.119,204.9z"/>
					<path fill="#FFFFFF" d="M17.119,179.1c1.5,0,2.5-0.5,3.8-0.1c1.4,0.4,2.7,1,2.7,1c0.7,0.4,0.9,1.1,0.5,1.8l-1.9,2.4
						c-0.4,0.6-1.5,1-2.3,1h-2.8h-2.2c-0.8,0-1.8-0.4-2.3-1l-1.9-2.5c-0.4-0.6-0.2-1.4,0.4-1.7c0,0,1.1-0.7,2.5-1
						C14.919,178.6,16.419,179.1,17.119,179.1z"/>
					<path fill="#FFFFFF" d="M8.319,207.2c-0.5,0.6-1,0.9-1.2,0.8c0,0,0,0-0.1-0.1c-0.9-0.9-0.2-2.5-0.9-3.5c-0.6-0.9-2.6-1.2-3-2.3
						c-0.8-2-1.1-5.3-1.1-5.3c-0.1-0.7,0.5-1.4,1.3-1.4h2.6c0.8,0,1.7,0.6,2.1,1.3l2.9,5.5c0.3,0.7,0.2,1.7-0.3,2.3L8.319,207.2z"/>
					<path fill="#FFFFFF" d="M24.219,204.5c-0.5-0.6-0.6-1.6-0.3-2.2l2.9-5.6c0.3-0.7,1.3-1.3,2.1-1.3h2.6c0.8,0,1.4,0.7,1.3,1.4
						c0,0-0.3,3.2-1.1,5.2c-0.4,1-2.4,1.4-3,2.3c-0.7,1,0,2.7-0.9,3.5c-0.1,0.1-0.1,0.1-0.1,0.1c-0.1,0.1-0.7-0.2-1.2-0.8
						L24.219,204.5z"/>
					<path fill="#FFFFFF" d="M24.019,187.5c-0.4-0.6-0.3-1.7,0.1-2.3l1.7-2.3c0.4-0.6,1.1-0.9,1.4-0.6c0,0,0,0,0.3,0.3
						c0.9,0.9,0.3,2.4,1.2,3.6c1,1.3,2.5,1.2,2.9,2.3c0.7,1.6,1.1,3.6,1.1,3.6c0.1,0.7-0.4,1.1-1.2,1.1h-2.5c-0.8,0-1.8-0.3-2.1-1
						L24.019,187.5z"/>
					<path fill="#FFFFFF" d="M8.019,192.3c-0.4,0.6-1.3,1-2.1,1h-2.5c-0.8,0-1.4-0.4-1.2-1.1c0,0,0.4-2.1,1.1-3.7
						c0.4-1.1,1.9-0.9,2.9-2.3c0.9-1.2,0.3-2.7,1.2-3.5c0.3-0.3,0.3-0.2,0.3-0.2c0.3-0.3,1,0,1.4,0.6l1.7,2.3
						c0.4,0.6,0.5,1.5,0.1,2.2L8.019,192.3z"/>
				</g>
				<path fill="#538A3E" d="M17.719,178.3c-0.7,0-2.2-0.8-3.5-0.5c-2.8,0.7-5.3,2.1-7.4,4c-1,0.9,0,2.3-1.3,3.8
					c-1.8,2.2-2.9,1.7-3.5,3.1c-0.9,2.2-1.4,4.7-1.4,7.2s0.5,4.9,1.4,7c0.5,1.2,2.6,1.7,3.3,2.8c0.8,1.2,0.3,2.9,1.3,3.9
					c0.1,0.1,0.1,0.1,0.1,0.1c0.1,0.1,0.3,0.4,0.4,0.4c0.1,0.1,1.1,1.1,1.7,1.5c3.1,2.2,6.7-0.8,8.9-0.8c2.9,0,6.1,2.9,9.2,0.8
					c0.6-0.4,1.9-1.4,2-1.5s0.3-0.3,0.5-0.4c0,0,0,0,0.1-0.1c1-1,0.5-2.7,1.3-3.9c0.7-1.1,2.8-1.6,3.3-2.8c0.9-2.2,1.4-4.5,1.4-7
					c0-2.6-0.5-5-1.4-7.2c-0.5-1.3-1.7-0.9-3.5-3.1c-1.2-1.5-0.3-2.9-1.3-3.8c-2.1-1.9-4.8-3.3-7.7-4
					C20.219,177.5,19.119,178.3,17.719,178.3z M17.719,187.2h2.9c0.8,0,1.8,0.6,2.1,1.2l3.1,5.6c0.4,0.6,0.4,1.7,0,2.4l-3.1,5.6
					c-0.4,0.6-1.3,1.3-2.1,1.3h-2.9h-2.3c-0.8,0-1.8-0.6-2.1-1.3l-3.1-5.5c-0.4-0.6-0.4-1.7,0-2.4l3.1-5.6c0.4-0.6,1.3-1.2,2.1-1.2
					L17.719,187.2 M17.719,205.5h2.9c0.8,0,1.9,0.2,2.4,0.8l2.6,2.9c0.5,0.6,0.7,1.1,0.6,1.2c0,0-0.1,0-0.3,0.1
					c-2.4,1.6-3.7-1.2-8.1-1.2c-3.6,0-5.4,2.7-7.8,1.1c-0.2-0.1-0.1-0.1-0.1-0.1c-0.2-0.1,0.1-0.7,0.6-1.3l2.6-2.8
					c0.5-0.6,1.6-0.8,2.4-0.8L17.719,205.5L17.719,205.5z M17.719,179.7c1.5,0,2.5-0.5,3.8-0.1c1.4,0.4,2.7,1,2.7,1
					c0.7,0.4,0.9,1.1,0.5,1.8l-1.9,2.4c-0.4,0.6-1.5,1-2.3,1h-2.9h-2.2c-0.8,0-1.8-0.4-2.3-1l-1.9-2.5c-0.4-0.6-0.2-1.4,0.4-1.7
					c0,0,1.1-0.7,2.5-1C15.519,179.2,16.919,179.7,17.719,179.7z M8.919,207.8c-0.5,0.6-1,0.9-1.2,0.8c0,0,0,0-0.1-0.1
					c-0.9-0.9-0.2-2.5-0.9-3.5c-0.6-0.9-2.6-1.2-3-2.3c-0.8-2-1.1-5.3-1.1-5.3c-0.1-0.7,0.5-1.4,1.3-1.4h2.6c0.8,0,1.7,0.6,2.1,1.3
					l2.9,5.5c0.3,0.7,0.2,1.7-0.3,2.3L8.919,207.8z M24.819,205c-0.5-0.6-0.6-1.6-0.3-2.2l2.9-5.6c0.3-0.7,1.3-1.3,2.1-1.3h2.6
					c0.8,0,1.4,0.7,1.3,1.4c0,0-0.3,3.2-1.1,5.2c-0.4,1-2.4,1.4-3,2.3c-0.7,1,0,2.7-0.9,3.5c-0.1,0.1-0.1,0.1-0.1,0.1
					c-0.1,0.1-0.7-0.2-1.2-0.8L24.819,205z M24.519,188.1c-0.4-0.6-0.3-1.7,0.1-2.3l1.7-2.3c0.4-0.6,1.1-0.9,1.4-0.6
					c0,0,0,0,0.3,0.3c0.9,0.9,0.3,2.4,1.2,3.6c1,1.3,2.5,1.2,2.9,2.3c0.7,1.6,1.1,3.6,1.1,3.6c0.1,0.7-0.4,1.1-1.2,1.1h-2.5
					c-0.8,0-1.8-0.3-2.1-1L24.519,188.1z M8.619,192.8c-0.4,0.6-1.3,1-2.1,1h-2.5c-0.8,0-1.4-0.4-1.2-1.1c0,0,0.4-2.1,1.1-3.7
					c0.4-1.1,1.9-0.9,2.9-2.3c0.9-1.2,0.3-2.7,1.2-3.5c0.3-0.3,0.3-0.2,0.3-0.2c0.3-0.3,1,0,1.4,0.6l1.7,2.3
					c0.4,0.6,0.5,1.5,0.1,2.2L8.619,192.8z"/>
			</g>
			<g id="eyes_1_">
				<path id="eye_2_" fill="#FFFFFF" d="M14.419,226.1c0,0,0.8-1.4-0.4-2.7c-1.2-1.3-2.6-0.5-2.6-0.5S12.519,225,14.419,226.1z"/>
				<path id="eye_1_" fill="#FFFFFF" d="M21.219,226.1c0,0-0.8-1.4,0.4-2.7c1.2-1.3,2.6-0.5,2.6-0.5S23.219,225,21.219,226.1z"/>
				<path fill="#426932" d="M21.719,223.9c-0.5,0.5-0.3,1.3-0.1,1.9c0.8-0.5,1.4-1.2,1.8-1.8
					C23.019,223.7,22.219,223.3,21.719,223.9z"/>
				<path fill="#426932" d="M13.919,223.9c0.5,0.5,0.3,1.3,0,1.9c-0.8-0.5-1.4-1.2-1.8-1.8C12.619,223.7,13.419,223.3,13.919,223.9z
					"/>
			</g>
		</g>
	</g>
</g>
</svg>
