<?xml version="1.0" encoding="utf-8"?>
<!-- Generator: Adobe Illustrator 19.2.1, SVG Export Plug-In . SVG Version: 6.00 Build 0)  -->
<svg version="1.1" id="Layer_1" xmlns="http://www.w3.org/2000/svg" xmlns:xlink="http://www.w3.org/1999/xlink" x="0px" y="0px"
	 width="43px" height="137px" viewBox="0 0 43 137" style="enable-background:new 0 0 43 137;" xml:space="preserve">
<style type="text/css">
	.st0{fill:#FAFAFA;stroke:#E4CBA9;stroke-miterlimit:10;}
	.st1{fill:none;stroke:#FF0000;stroke-width:10;stroke-linecap:round;stroke-linejoin:round;stroke-miterlimit:10;}
	.st2{fill:#8BC24C;}
	.st3{fill:#A3CF66;}
	.st4{fill:#64A644;}
	.st5{opacity:0.15;}
	.st6{fill:#FFFFFF;}
	.st7{fill:#538A3E;}
	.st8{fill:#426932;}
</style>
<g>
	<g id="Layer_1_1_">
		<path class="st0" d="M42.5,128.5c0,4.4-3.6,8-8,8h-26c-4.4,0-8-3.6-8-8V8.5c0-4.4,3.6-8,8-8h26c4.4,0,8,3.6,8,8V128.5z"/>
		<g>
			<line class="st1" x1="21.5" y1="127.5" x2="21.5" y2="27.5"/>
		</g>
		<g id="Layer_3_2_">
			<g>
				<path class="st2" d="M25,5.9L25,5.9c2.6,1.3,4.3,4.1,4.3,7.4c0,1.5-0.2,1.7-1,3.5c0,0-0.5,1.1-1.2,1.4l0,0l0,0
					c0,0-1,1.1,0.6,2.1c1.2,0.8-3.9,2.5-6.1,2.7c-2.2-0.2-7.5-1.9-6.3-2.7c1.6-1,0.4-2.1,0.4-2.1l0,0c-0.7-0.3-1.3-2-1.3-2
					c-0.4-1.1-0.8-1.9-0.8-3.4c0-3.3,1.7-5.8,4.3-7.1l0,0c0-0.4,2.3-1.5,3.6-1.5C22.9,4.4,25,5.5,25,5.9L25,5.9z M12.3,26
					c0,0-2.3-4.2-5.1-3.4c-2.8,0.8-3.1,2.7-3.1,4.3c0,2.3,2.4,3.7,2.4,3.7C7.9,28,12.3,26,12.3,26z M36.2,30.6c0,0,2.4-1.4,2.4-3.7
					c0-1.6-0.3-3.6-3.1-4.3c-2.8-0.8-5.1,3.4-5.1,3.4S34.8,28,36.2,30.6z M6.5,43.2c0,0-3.5,2.7-3.1,4.6c0.5,2.6,3.1,2.4,4.7,2.4
					c3.3-0.1,2.2-1.7,2.2-1.7S8.2,45.7,6.5,43.2z M32.3,48.5c0,0-1,1.6,2.2,1.7c1.6,0,4.3,0.2,4.7-2.4c0.3-1.8-3.1-4.6-3.1-4.6
					C34.5,45.7,32.3,48.5,32.3,48.5z M17.6,54.5c0,0,2.6,4.8,8.1,5.6c0.5,0.1,0.9-0.6,0.7-1c-1.8-2.8-1.6-4.6-1.6-4.6l-3.3-1.2
					L17.6,54.5z"/>
				<path class="st3" d="M16.2,17.7c-0.6-0.1-0.9-0.6-1.2-1.2c-1.2-2.9-1.3-4-1.1-4.3c1.5-1.8,2.6-0.3,4.4-2.8
					c1.3-1.8-0.2-2.7,0-2.8c0.3-0.2-0.1-0.7,0-0.8c1.2-0.8,3-1.1,3-1.1s1.8,0.2,3,1.1c0.1,0.1-0.3,0.6,0,0.8c0.2,0.2-1.3,1,0,2.8
					c1.8,2.5,2.9,0.9,4.4,2.8c0.2,0.4,0.2,1.4-1.1,4.3c-0.3,0.6-0.5,1-1.2,1.2c-1.7,0-3,1.1-5.2,1.1C19.2,18.8,17.9,17.7,16.2,17.7z
					 M21.4,22.4c2.2,0.1,6.3-0.8,5.2-1.7c-1.4-1.2,0-2.2-0.2-2.2c-1.7,0-2.1,1.2-5,1.2s-3.3-1.2-5-1.2c-0.2-0.1,1.1,1-0.2,2.2
					C15.1,21.6,19.2,22.5,21.4,22.4z M10.3,27.6c0.8-0.9,1.5-1.3,1.5-1.3s-2.8-4-4.7-3.1c-0.6,0.3-0.9,0.5-1.3,0.8L10.3,27.6z
					 M36.7,24c-0.3-0.3-0.6-0.5-1.2-0.8c-1.8-0.9-4.7,3.1-4.7,3.1s0.7,0.5,1.5,1.3L36.7,24z M6.9,44.7c-0.7-0.8,0,0.4-0.6-0.6
					c0,0-3.2,2.4-2.3,3.8C4.1,48,4.4,48.4,4.7,48L6.9,44.7z M37.9,48c0.4,0.4,0.6,0,0.7-0.1c0.9-1.4-2.3-3.8-2.3-3.8
					c-0.6,0.9,0.1-0.2-0.6,0.6L37.9,48z M20.5,56.8c1,1.2,3.9,2.7,4.4,2.5c0.3-0.1-2-1.1-3.2-2.4c-1.4-1.4-1.6-3.1-1.6-3.1l-1.3,0.3
					C18.9,54.2,19.7,55.8,20.5,56.8z"/>
				<g id="shell">
					<g>
						<path class="st4" d="M21.6,45.4h-2.9c-0.8,0-1.8-0.6-2.1-1.2l-3.1-5.6c-0.4-0.6-0.4-1.7,0-2.4l3.1-5.6
							c0.4-0.6,1.3-1.3,2.1-1.3h2.9h2.3c0.8,0,1.8,0.6,2.1,1.3l3.1,5.5c0.4,0.6,0.4,1.7,0,2.4L26,44.1c-0.4,0.6-1.3,1.2-2.1,1.2
							L21.6,45.4"/>
						<path class="st4" d="M21.6,27.2h-2.9c-0.8,0-1.9-0.2-2.4-0.8l-2.6-2.9c-0.5-0.6-0.7-1.1-0.6-1.2c0,0,0.1,0,0.3-0.1
							c2.4-1.6,3.7,1.2,8.1,1.2c3.6,0,5.4-2.7,7.8-1.1c0.2,0.1,0.1,0.1,0.1,0.1c0.2,0.1-0.1,0.7-0.6,1.3l-2.6,2.8
							c-0.5,0.6-1.6,0.8-2.4,0.8L21.6,27.2L21.6,27.2z"/>
						<path class="st4" d="M21.6,53c-1.5,0-2.5,0.5-3.8,0.1c-1.4-0.4-2.7-1-2.7-1c-0.7-0.4-0.9-1.1-0.5-1.8l1.9-2.4
							c0.4-0.6,1.5-1,2.3-1h2.9h2.2c0.8,0,1.8,0.4,2.3,1l1.9,2.5c0.4,0.6,0.2,1.4-0.4,1.7c0,0-1.1,0.7-2.5,1
							C23.7,53.4,22.3,53,21.6,53z"/>
						<path class="st4" d="M30.4,24.9c0.5-0.6,1-0.9,1.2-0.8c0,0,0,0,0.1,0.1c0.9,0.9,0.2,2.5,0.9,3.5c0.6,0.9,2.6,1.2,3,2.3
							c0.8,2,1.1,5.3,1.1,5.3c0.1,0.7-0.5,1.4-1.3,1.4h-2.6c-0.8,0-1.7-0.6-2.1-1.3l-2.9-5.5c-0.3-0.7-0.2-1.7,0.3-2.3L30.4,24.9z"
							/>
						<path class="st4" d="M14.4,27.6c0.5,0.6,0.6,1.6,0.3,2.2l-2.9,5.6c-0.3,0.7-1.3,1.3-2.1,1.3H7.1c-0.8,0-1.4-0.7-1.3-1.4
							c0,0,0.3-3.2,1.1-5.2c0.4-1,2.4-1.4,3-2.3c0.7-1,0-2.7,0.9-3.5c0.1-0.1,0.1-0.1,0.1-0.1c0.1-0.1,0.7,0.2,1.2,0.8L14.4,27.6z"
							/>
						<path class="st4" d="M14.7,44.6c0.4,0.6,0.3,1.7-0.1,2.3l-1.7,2.3c-0.4,0.6-1.1,0.9-1.4,0.6c0,0,0,0-0.3-0.3
							c-0.9-0.9-0.3-2.4-1.2-3.6c-1-1.3-2.5-1.2-2.9-2.3C6.4,42,6,40,6,40c-0.1-0.7,0.4-1.1,1.2-1.1h2.5c0.8,0,1.8,0.3,2.1,1
							L14.7,44.6z"/>
						<path class="st4" d="M30.6,39.8c0.4-0.6,1.3-1,2.1-1h2.5c0.8,0,1.4,0.4,1.2,1.1c0,0-0.4,2.1-1.1,3.7c-0.5,1.1-1.9,0.9-2.9,2.3
							c-0.9,1.2-0.3,2.7-1.2,3.5c-0.3,0.3-0.3,0.2-0.3,0.2c-0.3,0.3-1,0-1.4-0.6l-1.7-2.3c-0.4-0.6-0.5-1.5-0.1-2.2L30.6,39.8z"/>
					</g>
					<g class="st5">
						<path class="st6" d="M22.1,45.9h-2.9c-0.8,0-1.8-0.6-2.1-1.2L14,39.1c-0.4-0.6-0.4-1.7,0-2.4l3.1-5.6c0.4-0.6,1.3-1.3,2.1-1.3
							h2.9h2.3c0.8,0,1.8,0.6,2.1,1.3l3.1,5.5c0.4,0.6,0.4,1.7,0,2.4l-3.1,5.6c-0.4,0.6-1.3,1.2-2.1,1.2L22.1,45.9"/>
						<path class="st6" d="M22.1,27.7h-2.9c-0.8,0-1.9-0.2-2.4-0.8L14.2,24c-0.5-0.6-0.7-1.1-0.6-1.2c0,0,0.1,0,0.3-0.1
							c2.4-1.6,3.7,1.2,8.1,1.2c3.6,0,5.4-2.7,7.8-1.1c0.2,0.1,0.1,0.1,0.1,0.1c0.2,0.1-0.1,0.7-0.6,1.3L26.7,27
							c-0.5,0.6-1.6,0.8-2.4,0.8L22.1,27.7L22.1,27.7z"/>
						<path class="st6" d="M22.1,53.5c-1.5,0-2.5,0.5-3.8,0.1c-1.4-0.4-2.7-1-2.7-1c-0.7-0.4-0.9-1.1-0.5-1.8l1.9-2.4
							c0.4-0.6,1.5-1,2.3-1h2.9h2.2c0.8,0,1.8,0.4,2.3,1l1.9,2.5c0.4,0.6,0.2,1.4-0.4,1.7c0,0-1.1,0.7-2.5,1
							C24.3,54,22.9,53.5,22.1,53.5z"/>
						<path class="st6" d="M30.9,25.4c0.5-0.6,1-0.9,1.2-0.8c0,0,0,0,0.1,0.1c0.9,0.9,0.2,2.5,0.9,3.5c0.6,0.9,2.6,1.2,3,2.3
							c0.8,2,1.1,5.3,1.1,5.3c0.1,0.7-0.5,1.4-1.3,1.4h-2.6c-0.8,0-1.7-0.6-2.1-1.3l-2.9-5.5c-0.3-0.7-0.2-1.7,0.3-2.3L30.9,25.4z"
							/>
						<path class="st6" d="M15,28.1c0.5,0.6,0.6,1.6,0.3,2.2l-2.9,5.6c-0.3,0.7-1.3,1.3-2.1,1.3H7.7c-0.8,0-1.4-0.7-1.3-1.4
							c0,0,0.3-3.2,1.1-5.2c0.4-1,2.4-1.4,3-2.3c0.7-1,0-2.7,0.9-3.5c0.1-0.1,0.1-0.1,0.1-0.1c0.1-0.1,0.7,0.2,1.2,0.8L15,28.1z"/>
						<path class="st6" d="M15.3,45.1c0.4,0.6,0.3,1.7-0.1,2.3l-1.7,2.3c-0.4,0.6-1.1,0.9-1.4,0.6c0,0,0,0-0.3-0.3
							c-0.9-0.9-0.3-2.4-1.2-3.6c-1-1.3-2.5-1.2-2.9-2.3c-0.7-1.6-1.1-3.6-1.1-3.6c-0.1-0.7,0.4-1.1,1.2-1.1h2.5
							c0.8,0,1.8,0.3,2.1,1L15.3,45.1z"/>
						<path class="st6" d="M31.2,40.4c0.4-0.6,1.3-1,2.1-1h2.5c0.8,0,1.4,0.4,1.2,1.1c0,0-0.4,2.1-1.1,3.7c-0.5,1.1-1.9,0.9-2.9,2.3
							c-0.9,1.2-0.3,2.7-1.2,3.5c-0.3,0.3-0.3,0.2-0.3,0.2c-0.3,0.3-1,0-1.4-0.6l-1.7-2.3c-0.4-0.6-0.5-1.5-0.1-2.2L31.2,40.4z"/>
					</g>
					<path class="st7" d="M21.6,54.3c0.7,0,2.2,0.8,3.5,0.5c2.8-0.7,5.3-2.1,7.4-4c1-0.9,0-2.3,1.3-3.8c1.8-2.2,2.9-1.7,3.5-3.1
						c0.9-2.2,1.4-4.7,1.4-7.2s-0.5-4.9-1.4-7c-0.5-1.2-2.6-1.7-3.3-2.8c-0.8-1.2-0.3-2.9-1.3-3.9c-0.1-0.1-0.1-0.1-0.1-0.1
						c-0.1-0.1-0.3-0.4-0.4-0.4c-0.1-0.1-1.1-1.1-1.7-1.5c-3.1-2.2-6.7,0.8-8.9,0.8c-2.9,0-6.1-2.9-9.2-0.8c-0.6,0.4-1.9,1.4-2,1.5
						s-0.3,0.3-0.5,0.4c0,0,0,0-0.1,0.1c-1,1-0.5,2.7-1.3,3.9c-0.7,1.1-2.8,1.6-3.3,2.8c-0.9,2.2-1.4,4.5-1.4,7c0,2.6,0.5,5,1.4,7.2
						c0.5,1.3,1.7,0.9,3.5,3.1c1.2,1.5,0.3,2.9,1.3,3.8c2.1,1.9,4.8,3.3,7.7,4C19,55.1,20.1,54.3,21.6,54.3z M21.6,45.4h-2.9
						c-0.8,0-1.8-0.6-2.1-1.2l-3.1-5.6c-0.4-0.6-0.4-1.7,0-2.4l3.1-5.6c0.4-0.6,1.3-1.3,2.1-1.3h2.9h2.3c0.8,0,1.8,0.6,2.1,1.3
						l3.1,5.5c0.4,0.6,0.4,1.7,0,2.4L26,44.1c-0.4,0.6-1.3,1.2-2.1,1.2L21.6,45.4 M21.6,27.2h-2.9c-0.8,0-1.9-0.2-2.4-0.8l-2.6-2.9
						c-0.5-0.6-0.7-1.1-0.6-1.2c0,0,0.1,0,0.3-0.1c2.4-1.6,3.7,1.2,8.1,1.2c3.6,0,5.4-2.7,7.8-1.1c0.2,0.1,0.1,0.1,0.1,0.1
						c0.2,0.1-0.1,0.7-0.6,1.3l-2.6,2.8c-0.5,0.6-1.6,0.8-2.4,0.8L21.6,27.2L21.6,27.2z M21.6,53c-1.5,0-2.5,0.5-3.8,0.1
						c-1.4-0.4-2.7-1-2.7-1c-0.7-0.4-0.9-1.1-0.5-1.8l1.9-2.4c0.4-0.6,1.5-1,2.3-1h2.9h2.2c0.8,0,1.8,0.4,2.3,1l1.9,2.5
						c0.4,0.6,0.2,1.4-0.4,1.7c0,0-1.1,0.7-2.5,1C23.7,53.4,22.3,53,21.6,53z M30.4,24.9c0.5-0.6,1-0.9,1.2-0.8c0,0,0,0,0.1,0.1
						c0.9,0.9,0.2,2.5,0.9,3.5c0.6,0.9,2.6,1.2,3,2.3c0.8,2,1.1,5.3,1.1,5.3c0.1,0.7-0.5,1.4-1.3,1.4h-2.6c-0.8,0-1.7-0.6-2.1-1.3
						l-2.9-5.5c-0.3-0.7-0.2-1.7,0.3-2.3L30.4,24.9z M14.4,27.6c0.5,0.6,0.6,1.6,0.3,2.2l-2.9,5.6c-0.3,0.7-1.3,1.3-2.1,1.3H7.1
						c-0.8,0-1.4-0.7-1.3-1.4c0,0,0.3-3.2,1.1-5.2c0.4-1,2.4-1.4,3-2.3c0.7-1,0-2.7,0.9-3.5c0.1-0.1,0.1-0.1,0.1-0.1
						c0.1-0.1,0.7,0.2,1.2,0.8L14.4,27.6z M14.7,44.6c0.4,0.6,0.3,1.7-0.1,2.3l-1.7,2.3c-0.4,0.6-1.1,0.9-1.4,0.6c0,0,0,0-0.3-0.3
						c-0.9-0.9-0.3-2.4-1.2-3.6c-1-1.3-2.5-1.2-2.9-2.3C6.4,42,6,40,6,40c-0.1-0.7,0.4-1.1,1.2-1.1h2.5c0.8,0,1.8,0.3,2.1,1
						L14.7,44.6z M30.6,39.8c0.4-0.6,1.3-1,2.1-1h2.5c0.8,0,1.4,0.4,1.2,1.1c0,0-0.4,2.1-1.1,3.7c-0.5,1.1-1.9,0.9-2.9,2.3
						c-0.9,1.2-0.3,2.7-1.2,3.5c-0.3,0.3-0.3,0.2-0.3,0.2c-0.3,0.3-1,0-1.4-0.6l-1.7-2.3c-0.4-0.6-0.5-1.5-0.1-2.2L30.6,39.8z"/>
				</g>
				<g id="eyes">
					<path id="eye_6_" class="st6" d="M24.8,6.5c0,0-0.8,1.4,0.4,2.7c1.2,1.3,2.6,0.5,2.6,0.5S26.8,7.6,24.8,6.5z"/>
					<path id="eye_7_" class="st6" d="M18.1,6.5c0,0,0.8,1.4-0.4,2.7c-1.2,1.3-2.6,0.5-2.6,0.5S16.1,7.6,18.1,6.5z"/>
					<path class="st8" d="M17.5,8.7c0.5-0.5,0.3-1.3,0.1-1.9c-0.8,0.5-1.4,1.2-1.8,1.8C16.2,8.9,17,9.3,17.5,8.7z"/>
					<path class="st8" d="M25.3,8.7c-0.5-0.5-0.3-1.3,0-1.9c0.8,0.5,1.4,1.2,1.8,1.8C26.6,8.9,25.8,9.3,25.3,8.7z"/>
				</g>
			</g>
		</g>
	</g>
	<g id="Layer_2">
	</g>
</g>
</svg>
