<?xml version="1.0" encoding="utf-8"?>
<!-- Generator: Adobe Illustrator 19.2.1, SVG Export Plug-In . SVG Version: 6.00 Build 0)  -->
<svg version="1.1" id="Layer_1" xmlns="http://www.w3.org/2000/svg" xmlns:xlink="http://www.w3.org/1999/xlink" x="0px" y="0px"
	 width="43px" height="137px" viewBox="0 0 43 137" style="enable-background:new 0 0 43 137;" xml:space="preserve">
<style type="text/css">
	.st0{fill:#FAFAFA;stroke:#E4CBA9;stroke-miterlimit:10;}
	.st1{fill:#521210;}
	.st2{fill:#8BC24C;}
	.st3{fill:#A3CF66;}
	.st4{fill:#64A644;}
	.st5{opacity:0.15;}
	.st6{fill:#FFFFFF;}
	.st7{fill:#538A3E;}
	.st8{fill:#426932;}
</style>
<g id="Layer_1_1_">
	<path class="st0" d="M42.5,128.5c0,4.4-3.6,8-8,8h-26c-4.4,0-8-3.6-8-8V8.5c0-4.4,3.6-8,8-8h26c4.4,0,8,3.6,8,8V128.5z"/>
	<path class="st1" d="M23.6,127.7c0,1.1-0.9,2-2,2l0,0c-1.1,0-2-0.9-2-2v-96c0-1.1,0.9-2,2-2l0,0c1.1,0,2,0.9,2,2V127.7z"/>
	<g id="Layer_3_2_">
		<g>
			<path class="st2" d="M25.1,6.3L25.1,6.3c2.6,1.3,4.3,4.1,4.3,7.4c0,1.5-0.2,1.7-1,3.5c0,0-0.5,1.1-1.2,1.4l0,0l0,0
				c0,0-1,1.1,0.6,2.1c1.2,0.8-3.9,2.5-6.1,2.7c-2.2-0.2-7.5-1.9-6.3-2.7c1.6-1,0.4-2.1,0.4-2.1l0,0c-0.7-0.3-1.3-2-1.3-2
				c-0.4-1.1-0.8-1.9-0.8-3.4c0-3.3,1.7-5.8,4.3-7.1l0,0c0-0.4,2.3-1.5,3.6-1.5C23,4.8,25,5.9,25.1,6.3L25.1,6.3z M12.4,26.4
				c0,0-2.3-4.2-5.1-3.4s-3.1,2.7-3.1,4.3c0,2.3,2.4,3.7,2.4,3.7C8,28.4,12.4,26.4,12.4,26.4z M36.3,31c0,0,2.4-1.4,2.4-3.7
				c0-1.6-0.3-3.6-3.1-4.3c-2.8-0.8-5.1,3.4-5.1,3.4S34.9,28.4,36.3,31z M6.6,43.6c0,0-3.5,2.7-3.1,4.6c0.5,2.6,3.1,2.4,4.7,2.4
				c3.3-0.1,2.2-1.7,2.2-1.7S8.3,46.1,6.6,43.6z M32.4,48.9c0,0-1,1.6,2.2,1.7c1.6,0,4.3,0.2,4.7-2.4c0.3-1.8-3.1-4.6-3.1-4.6
				C34.6,46.1,32.4,48.9,32.4,48.9z M17.7,54.9c0,0,2.6,4.8,8.1,5.6c0.5,0.1,0.9-0.6,0.7-1c-1.8-2.8-1.6-4.6-1.6-4.6l-3.3-1.2
				L17.7,54.9z"/>
			<path class="st3" d="M16.3,18.1c-0.6-0.1-0.9-0.6-1.2-1.2c-1.2-2.9-1.3-4-1.1-4.3c1.5-1.8,2.6-0.3,4.4-2.8c1.3-1.8-0.2-2.7,0-2.8
				c0.3-0.2-0.1-0.7,0-0.8c1.2-0.8,3-1.1,3-1.1s1.8,0.2,3,1.1c0.1,0.1-0.3,0.6,0,0.8c0.2,0.2-1.3,1,0,2.8c1.8,2.5,2.9,0.9,4.4,2.8
				C29,13,29,14,27.7,16.9c-0.3,0.6-0.5,1-1.2,1.2c-1.7,0-3,1.1-5.2,1.1C19.3,19.2,18,18.1,16.3,18.1z M21.5,22.8
				c2.2,0.1,6.3-0.8,5.2-1.7c-1.4-1.2,0-2.2-0.2-2.2c-1.7,0-2.1,1.2-5,1.2s-3.3-1.2-5-1.2c-0.2-0.1,1.1,1-0.2,2.2
				C15.1,22,19.3,22.9,21.5,22.8z M10.4,28c0.8-0.9,1.5-1.3,1.5-1.3s-2.8-4-4.7-3.1c-0.6,0.3-0.9,0.5-1.3,0.8L10.4,28z M36.8,24.4
				c-0.3-0.3-0.6-0.5-1.2-0.8c-1.8-0.9-4.7,3.1-4.7,3.1s0.7,0.5,1.5,1.3L36.8,24.4z M7,45.1c-0.7-0.8,0,0.4-0.6-0.6
				c0,0-3.2,2.4-2.3,3.8c0.1,0.1,0.4,0.5,0.7,0.1L7,45.1z M38,48.4c0.4,0.4,0.6,0,0.7-0.1c0.9-1.4-2.3-3.8-2.3-3.8
				c-0.6,0.9,0.1-0.2-0.6,0.6L38,48.4z M20.6,57.2c1,1.2,3.9,2.7,4.4,2.5c0.3-0.1-2-1.1-3.2-2.4c-1.4-1.4-1.6-3.1-1.6-3.1l-1.3,0.3
				C19,54.5,19.8,56.2,20.6,57.2z"/>
			<g id="shell">
				<g>
					<path class="st4" d="M21.6,45.8h-2.9c-0.8,0-1.8-0.6-2.1-1.2L13.5,39c-0.4-0.6-0.4-1.7,0-2.4l3.1-5.6c0.4-0.6,1.3-1.3,2.1-1.3
						h2.9h2.3c0.8,0,1.8,0.6,2.1,1.3l3.1,5.5c0.4,0.6,0.4,1.7,0,2.4L26,44.5c-0.4,0.6-1.3,1.2-2.1,1.2L21.6,45.8"/>
					<path class="st4" d="M21.6,27.6h-2.9c-0.8,0-1.9-0.2-2.4-0.8l-2.6-2.9c-0.5-0.6-0.7-1.1-0.6-1.2c0,0,0.1,0,0.3-0.1
						c2.4-1.6,3.7,1.2,8.1,1.2c3.6,0,5.4-2.7,7.8-1.1c0.2,0.1,0.1,0.1,0.1,0.1c0.2,0.1-0.1,0.7-0.6,1.3l-2.6,2.8
						c-0.5,0.6-1.6,0.8-2.4,0.8L21.6,27.6L21.6,27.6z"/>
					<path class="st4" d="M21.6,53.3c-1.5,0-2.5,0.5-3.8,0.1c-1.4-0.4-2.7-1-2.7-1c-0.7-0.4-0.9-1.1-0.5-1.8l1.9-2.4
						c0.4-0.6,1.5-1,2.3-1h2.9h2.2c0.8,0,1.8,0.4,2.3,1l1.9,2.5c0.4,0.6,0.2,1.4-0.4,1.7c0,0-1.1,0.7-2.5,1
						C23.8,53.8,22.4,53.3,21.6,53.3z"/>
					<path class="st4" d="M30.5,25.2c0.5-0.6,1-0.9,1.2-0.8c0,0,0,0,0.1,0.1c0.9,0.9,0.2,2.5,0.9,3.5c0.6,0.9,2.6,1.2,3,2.3
						c0.8,2,1.1,5.3,1.1,5.3c0.1,0.7-0.5,1.4-1.3,1.4h-2.6c-0.8,0-1.7-0.6-2.1-1.3l-2.9-5.5c-0.3-0.7-0.2-1.7,0.3-2.3L30.5,25.2z"/>
					<path class="st4" d="M14.5,28c0.5,0.6,0.6,1.6,0.3,2.2l-2.9,5.6c-0.3,0.7-1.3,1.3-2.1,1.3H7.2c-0.8,0-1.4-0.7-1.3-1.4
						c0,0,0.3-3.2,1.1-5.2c0.4-1,2.4-1.4,3-2.3c0.7-1,0-2.7,0.9-3.5c0.1-0.1,0.1-0.1,0.1-0.1c0.1-0.1,0.7,0.2,1.2,0.8L14.5,28z"/>
					<path class="st4" d="M14.8,44.9c0.4,0.6,0.3,1.7-0.1,2.3L13,49.5c-0.4,0.6-1.1,0.9-1.4,0.6c0,0,0,0-0.3-0.3
						c-0.9-0.9-0.3-2.4-1.2-3.6c-1-1.3-2.5-1.2-2.9-2.3c-0.7-1.6-1.1-3.6-1.1-3.6c-0.1-0.7,0.4-1.1,1.2-1.1h2.5c0.8,0,1.8,0.3,2.1,1
						L14.8,44.9z"/>
					<path class="st4" d="M30.7,40.2c0.4-0.6,1.3-1,2.1-1h2.5c0.8,0,1.4,0.4,1.2,1.1c0,0-0.4,2.1-1.1,3.7c-0.4,1.1-1.9,0.9-2.9,2.3
						c-0.9,1.2-0.3,2.7-1.2,3.5C31,50.1,31,50,31,50c-0.3,0.3-1,0-1.4-0.6l-1.7-2.3c-0.4-0.6-0.5-1.5-0.1-2.2L30.7,40.2z"/>
				</g>
				<g class="st5">
					<path class="st6" d="M22.2,46.3h-2.9c-0.8,0-1.8-0.6-2.1-1.2l-3.1-5.6c-0.4-0.6-0.4-1.7,0-2.4l3.1-5.6c0.4-0.6,1.3-1.3,2.1-1.3
						h2.9h2.3c0.8,0,1.8,0.6,2.1,1.3l3.1,5.5c0.4,0.6,0.4,1.7,0,2.4L26.6,45c-0.4,0.6-1.3,1.2-2.1,1.2L22.2,46.3"/>
					<path class="st6" d="M22.2,28.1h-2.9c-0.8,0-1.9-0.2-2.4-0.8l-2.6-2.9c-0.5-0.6-0.7-1.1-0.6-1.2c0,0,0.1,0,0.3-0.1
						c2.4-1.6,3.7,1.2,8.1,1.2c3.6,0,5.4-2.7,7.8-1.1c0.2,0.1,0.1,0.1,0.1,0.1c0.2,0.1-0.1,0.7-0.6,1.3l-2.6,2.8
						c-0.5,0.6-1.6,0.8-2.4,0.8L22.2,28.1L22.2,28.1z"/>
					<path class="st6" d="M22.2,53.9c-1.5,0-2.5,0.5-3.8,0.1c-1.4-0.4-2.7-1-2.7-1c-0.7-0.4-0.9-1.1-0.5-1.8l1.9-2.4
						c0.4-0.6,1.5-1,2.3-1h2.9h2.2c0.8,0,1.8,0.4,2.3,1l1.9,2.5c0.4,0.6,0.2,1.4-0.4,1.7c0,0-1.1,0.7-2.5,1
						C24.4,54.4,23,53.9,22.2,53.9z"/>
					<path class="st6" d="M31,25.8c0.5-0.6,1-0.9,1.2-0.8c0,0,0,0,0.1,0.1c0.9,0.9,0.2,2.5,0.9,3.5c0.6,0.9,2.6,1.2,3,2.3
						c0.8,2,1.1,5.3,1.1,5.3c0.1,0.7-0.5,1.4-1.3,1.4h-2.6c-0.8,0-1.7-0.6-2.1-1.3l-2.9-5.5c-0.3-0.7-0.2-1.7,0.3-2.3L31,25.8z"/>
					<path class="st6" d="M15.1,28.5c0.5,0.6,0.6,1.6,0.3,2.2l-2.9,5.6c-0.3,0.7-1.3,1.3-2.1,1.3H7.8c-0.8,0-1.4-0.7-1.3-1.4
						c0,0,0.3-3.2,1.1-5.2c0.4-1,2.4-1.4,3-2.3c0.7-1,0-2.7,0.9-3.5c0.1-0.1,0.1-0.1,0.1-0.1c0.1-0.1,0.7,0.2,1.2,0.8L15.1,28.5z"/>
					<path class="st6" d="M15.3,45.5c0.4,0.6,0.3,1.7-0.1,2.3l-1.7,2.3c-0.4,0.6-1.1,0.9-1.4,0.6c0,0,0,0-0.3-0.3
						c-0.9-0.9-0.3-2.4-1.2-3.6c-1-1.3-2.5-1.2-2.9-2.3c-0.7-1.6-1.1-3.6-1.1-3.6c-0.1-0.7,0.4-1.1,1.2-1.1h2.5c0.8,0,1.8,0.3,2.1,1
						L15.3,45.5z"/>
					<path class="st6" d="M31.3,40.7c0.4-0.6,1.3-1,2.1-1h2.5c0.8,0,1.4,0.4,1.2,1.1c0,0-0.4,2.1-1.1,3.7c-0.4,1.1-1.9,0.9-2.9,2.3
						c-0.9,1.2-0.3,2.7-1.2,3.5c-0.3,0.3-0.3,0.2-0.3,0.2c-0.3,0.3-1,0-1.4-0.6l-1.7-2.3c-0.4-0.6-0.5-1.5-0.1-2.2L31.3,40.7z"/>
				</g>
				<path class="st7" d="M21.6,54.7c0.7,0,2.2,0.8,3.5,0.5c2.8-0.7,5.3-2.1,7.4-4c1-0.9,0-2.3,1.3-3.8c1.8-2.2,2.9-1.7,3.5-3.1
					c0.9-2.2,1.4-4.7,1.4-7.2s-0.5-4.9-1.4-7c-0.5-1.2-2.6-1.7-3.3-2.8c-0.8-1.2-0.3-2.9-1.3-3.9c-0.1-0.1-0.1-0.1-0.1-0.1
					c-0.1-0.1-0.3-0.4-0.4-0.4c-0.1-0.1-1.1-1.1-1.7-1.5c-3.1-2.2-6.7,0.8-8.9,0.8c-2.9,0-6.1-2.9-9.2-0.8c-0.6,0.4-1.9,1.4-2,1.5
					s-0.3,0.3-0.5,0.4c0,0,0,0-0.1,0.1c-1,1-0.5,2.7-1.3,3.9c-0.7,1.1-2.8,1.6-3.3,2.8c-0.9,2.2-1.4,4.5-1.4,7c0,2.6,0.5,5,1.4,7.2
					c0.5,1.3,1.7,0.9,3.5,3.1c1.2,1.5,0.3,2.9,1.3,3.8c2.1,1.9,4.8,3.3,7.7,4C19.1,55.5,20.2,54.7,21.6,54.7z M21.6,45.8h-2.9
					c-0.8,0-1.8-0.6-2.1-1.2L13.5,39c-0.4-0.6-0.4-1.7,0-2.4l3.1-5.6c0.4-0.6,1.3-1.3,2.1-1.3h2.9h2.3c0.8,0,1.8,0.6,2.1,1.3
					l3.1,5.5c0.4,0.6,0.4,1.7,0,2.4L26,44.5c-0.4,0.6-1.3,1.2-2.1,1.2L21.6,45.8 M21.6,27.6h-2.9c-0.8,0-1.9-0.2-2.4-0.8l-2.6-2.9
					c-0.5-0.6-0.7-1.1-0.6-1.2c0,0,0.1,0,0.3-0.1c2.4-1.6,3.7,1.2,8.1,1.2c3.6,0,5.4-2.7,7.8-1.1c0.2,0.1,0.1,0.1,0.1,0.1
					c0.2,0.1-0.1,0.7-0.6,1.3l-2.6,2.8c-0.5,0.6-1.6,0.8-2.4,0.8L21.6,27.6L21.6,27.6z M21.6,53.3c-1.5,0-2.5,0.5-3.8,0.1
					c-1.4-0.4-2.7-1-2.7-1c-0.7-0.4-0.9-1.1-0.5-1.8l1.9-2.4c0.4-0.6,1.5-1,2.3-1h2.9h2.2c0.8,0,1.8,0.4,2.3,1l1.9,2.5
					c0.4,0.6,0.2,1.4-0.4,1.7c0,0-1.1,0.7-2.5,1C23.8,53.8,22.4,53.3,21.6,53.3z M30.5,25.2c0.5-0.6,1-0.9,1.2-0.8c0,0,0,0,0.1,0.1
					c0.9,0.9,0.2,2.5,0.9,3.5c0.6,0.9,2.6,1.2,3,2.3c0.8,2,1.1,5.3,1.1,5.3c0.1,0.7-0.5,1.4-1.3,1.4h-2.6c-0.8,0-1.7-0.6-2.1-1.3
					l-2.9-5.5c-0.3-0.7-0.2-1.7,0.3-2.3L30.5,25.2z M14.5,28c0.5,0.6,0.6,1.6,0.3,2.2l-2.9,5.6c-0.3,0.7-1.3,1.3-2.1,1.3H7.2
					c-0.8,0-1.4-0.7-1.3-1.4c0,0,0.3-3.2,1.1-5.2c0.4-1,2.4-1.4,3-2.3c0.7-1,0-2.7,0.9-3.5c0.1-0.1,0.1-0.1,0.1-0.1
					c0.1-0.1,0.7,0.2,1.2,0.8L14.5,28z M14.8,44.9c0.4,0.6,0.3,1.7-0.1,2.3L13,49.5c-0.4,0.6-1.1,0.9-1.4,0.6c0,0,0,0-0.3-0.3
					c-0.9-0.9-0.3-2.4-1.2-3.6c-1-1.3-2.5-1.2-2.9-2.3c-0.7-1.6-1.1-3.6-1.1-3.6c-0.1-0.7,0.4-1.1,1.2-1.1h2.5c0.8,0,1.8,0.3,2.1,1
					L14.8,44.9z M30.7,40.2c0.4-0.6,1.3-1,2.1-1h2.5c0.8,0,1.4,0.4,1.2,1.1c0,0-0.4,2.1-1.1,3.7c-0.4,1.1-1.9,0.9-2.9,2.3
					c-0.9,1.2-0.3,2.7-1.2,3.5C31,50.1,31,50,31,50c-0.3,0.3-1,0-1.4-0.6l-1.7-2.3c-0.4-0.6-0.5-1.5-0.1-2.2L30.7,40.2z"/>
			</g>
			<g id="eyes">
				<path id="eye_6_" class="st6" d="M24.9,6.9c0,0-0.8,1.4,0.4,2.7c1.2,1.3,2.6,0.5,2.6,0.5S26.9,8,24.9,6.9z"/>
				<path id="eye_7_" class="st6" d="M18.1,6.9c0,0,0.8,1.4-0.4,2.7c-1.2,1.3-2.6,0.5-2.6,0.5S16.2,8,18.1,6.9z"/>
				<path class="st8" d="M17.6,9.1c0.5-0.5,0.3-1.3,0-1.9c-0.8,0.5-1.4,1.2-1.8,1.8C16.3,9.3,17.1,9.7,17.6,9.1z"/>
				<path class="st8" d="M25.4,9.1c-0.5-0.5-0.3-1.3,0-1.9c0.8,0.5,1.4,1.2,1.8,1.8C26.7,9.3,25.9,9.7,25.4,9.1z"/>
			</g>
		</g>
	</g>
</g>
<g id="Layer_2">
</g>
</svg>
