<?xml version="1.0" encoding="utf-8"?>
<!-- Generator: Adobe Illustrator 19.2.1, SVG Export Plug-In . SVG Version: 6.00 Build 0)  -->
<svg version="1.1" id="Layer_1" xmlns="http://www.w3.org/2000/svg" xmlns:xlink="http://www.w3.org/1999/xlink" x="0px" y="0px"
	 width="313.7px" height="258.7px" viewBox="0 0 313.7 258.7" style="enable-background:new 0 0 313.7 258.7;" xml:space="preserve"
	>
<style type="text/css">
	.st0{fill:#FAFAFA;stroke:#010101;stroke-width:1.495;stroke-opacity:0.33;stroke-dasharray:4.485;}
	.st1{fill:none;stroke:#BBBBBB;stroke-width:1.495;}
	.st2{fill:none;}
	.st3{fill:#69D2E7;}
	.st4{font-family:'AvenirNext-Regular';}
	.st5{font-size:16.445px;}
	.st6{fill:#5BB8C4;}
	.st7{fill:none;stroke:#B2B2B2;}
	.st8{font-size:14px;}
	.st9{opacity:0.4;fill:none;stroke:#231F20;stroke-dasharray:3;enable-background:new    ;}
	.st10{display:none;fill:#69D2E7;enable-background:new    ;}
	.st11{font-size:12px;}
	.st12{display:none;fill:#5BB8C4;enable-background:new    ;}
	.st13{display:none;fill:#34679A;enable-background:new    ;}
	.st14{font-family:'MyriadPro-Regular';}
	.st15{font-size:12.3px;}
	.st16{fill:#8BC24C;}
	.st17{fill:#A3CF66;}
	.st18{fill:#64A644;}
	.st19{opacity:0.15;}
	.st20{fill:#FFFFFF;}
	.st21{fill:#538A3E;}
	.st22{fill:#426932;}
	.st23{fill:#5BB8C4;stroke:#5BB8C4;stroke-width:1.519;stroke-linecap:round;stroke-miterlimit:10;}
	.st24{fill:#5BB8C4;stroke:#5BB8C4;stroke-width:1.7143;stroke-linecap:round;stroke-miterlimit:10;}
	.st25{enable-background:new    ;}
</style>
<rect x="34.3" y="21.3" class="st0" width="245.2" height="215.7"/>
<line class="st1" x1="157.1" y1="21.8" x2="157.1" y2="237.6"/>
<line class="st1" x1="34.5" y1="129.7" x2="279.7" y2="129.7"/>
<g>
	<line class="st1" x1="152.6" y1="237.1" x2="161.6" y2="237.1"/>
	<line class="st1" x1="152.6" y1="228.1" x2="161.6" y2="228.1"/>
	<line class="st1" x1="152.6" y1="218.1" x2="161.6" y2="218.1"/>
	<line class="st1" x1="152.6" y1="207.7" x2="161.6" y2="207.7"/>
	<line class="st1" x1="152.6" y1="199.2" x2="161.6" y2="199.2"/>
	<line class="st1" x1="152.6" y1="189.7" x2="161.6" y2="189.7"/>
	<line class="st1" x1="152.6" y1="179.8" x2="161.6" y2="179.8"/>
	<line class="st1" x1="152.6" y1="169.8" x2="161.6" y2="169.8"/>
	<line class="st1" x1="152.6" y1="159.8" x2="161.6" y2="159.8"/>
	<line class="st1" x1="152.6" y1="149.9" x2="161.6" y2="149.9"/>
	<line class="st1" x1="152.6" y1="139.4" x2="161.6" y2="139.4"/>
</g>
<g>
	<line class="st1" x1="152.6" y1="122.5" x2="161.6" y2="122.5"/>
	<line class="st1" x1="152.6" y1="113.5" x2="161.6" y2="113.5"/>
	<line class="st1" x1="152.6" y1="104.5" x2="161.6" y2="104.5"/>
	<line class="st1" x1="152.6" y1="95.5" x2="161.6" y2="95.5"/>
	<line class="st1" x1="152.6" y1="86.1" x2="161.6" y2="86.1"/>
	<line class="st1" x1="152.6" y1="76.6" x2="161.6" y2="76.6"/>
	<line class="st1" x1="152.6" y1="68.1" x2="161.6" y2="68.1"/>
	<line class="st1" x1="152.6" y1="59.2" x2="161.6" y2="59.2"/>
	<line class="st1" x1="152.6" y1="50.2" x2="161.6" y2="50.2"/>
	<line class="st1" x1="152.6" y1="40.2" x2="161.6" y2="40.2"/>
	<line class="st1" x1="152.6" y1="30.3" x2="161.6" y2="30.3"/>
	<line class="st1" x1="152.6" y1="21.8" x2="161.6" y2="21.8"/>
</g>
<g>
	<line class="st1" x1="34.6" y1="124.9" x2="34.6" y2="133.9"/>
	<line class="st1" x1="43.6" y1="124.9" x2="43.6" y2="133.9"/>
	<line class="st1" x1="52.6" y1="124.9" x2="52.6" y2="133.9"/>
	<line class="st1" x1="61.6" y1="124.9" x2="61.6" y2="133.9"/>
	<line class="st1" x1="70.6" y1="124.9" x2="70.6" y2="133.9"/>
	<line class="st1" x1="80" y1="124.9" x2="80" y2="133.9"/>
	<line class="st1" x1="89.5" y1="124.9" x2="89.5" y2="133.9"/>
	<line class="st1" x1="98" y1="124.9" x2="98" y2="133.9"/>
	<line class="st1" x1="106.9" y1="124.9" x2="106.9" y2="133.9"/>
	<line class="st1" x1="115.9" y1="124.9" x2="115.9" y2="133.9"/>
	<line class="st1" x1="125.9" y1="124.9" x2="125.9" y2="133.9"/>
	<line class="st1" x1="135.8" y1="124.9" x2="135.8" y2="133.9"/>
	<line class="st1" x1="146.3" y1="124.9" x2="146.3" y2="133.9"/>
</g>
<g>
	<line class="st1" x1="167.2" y1="124.9" x2="167.2" y2="133.9"/>
	<line class="st1" x1="176.2" y1="124.9" x2="176.2" y2="133.9"/>
	<line class="st1" x1="185.2" y1="124.9" x2="185.2" y2="133.9"/>
	<line class="st1" x1="194.2" y1="124.9" x2="194.2" y2="133.9"/>
	<line class="st1" x1="203.6" y1="124.9" x2="203.6" y2="133.9"/>
	<line class="st1" x1="213.1" y1="124.9" x2="213.1" y2="133.9"/>
	<line class="st1" x1="221.6" y1="124.9" x2="221.6" y2="133.9"/>
	<line class="st1" x1="230.5" y1="124.9" x2="230.5" y2="133.9"/>
	<line class="st1" x1="239.5" y1="124.9" x2="239.5" y2="133.9"/>
	<line class="st1" x1="249.5" y1="124.9" x2="249.5" y2="133.9"/>
	<line class="st1" x1="259.4" y1="124.9" x2="259.4" y2="133.9"/>
	<line class="st1" x1="269.9" y1="124.9" x2="269.9" y2="133.9"/>
	<line class="st1" x1="279.9" y1="124.9" x2="279.9" y2="133.9"/>
</g>
<rect x="126.6" y="142.9" class="st2" width="22.4" height="14"/>
<text transform="matrix(1 0 0 1 126.6728 154.5306)" class="st3 st4 st5">-60</text>
<text transform="matrix(1 0 0 1 126.6728 154.5306)" class="st6 st4 st5">-60</text>
<rect x="190.7" y="110" class="st2" width="25.9" height="12.7"/>
<text transform="matrix(1 0 0 1 190.7124 121.642)" class="st3 st4 st5">100</text>
<text transform="matrix(1 0 0 1 190.7124 121.642)" class="st6 st4 st5">100</text>
<g id="Layer_2">
</g>
<rect x="11" y="125.8" class="st2" width="22" height="11.2"/>
<text transform="matrix(1 0 0 1 1.69 135.5959)" class="st7 st4 st8">-350</text>
<rect x="281.5" y="125.2" class="st2" width="21.8" height="9.7"/>
<text transform="matrix(1 0 0 1 283.3105 133.025)" class="st7 st4 st8">350</text>
<rect x="149.3" y="12.7" class="st2" width="17.5" height="12.2"/>
<text transform="matrix(1 0 0 1 144.3472 18.4543)" class="st7 st4 st8">280</text>
<rect x="146.1" y="239.4" class="st2" width="21.9" height="12.5"/>
<text transform="matrix(1 0 0 1 141.1597 251.864)" class="st7 st4 st8">-280</text>
<line class="st2" x1="157.1" y1="149.6" x2="203.6" y2="149.9"/>
<line class="st9" x1="203.6" y1="133.9" x2="203.6" y2="149.9"/>
<line class="st9" x1="157.1" y1="149.6" x2="203.6" y2="149.9"/>
<rect x="11.6" y="7.7" class="st2" width="46.1" height="10"/>
<text transform="matrix(1 0 0 1 6.0183 12.6639)" class="st10 st4 st11">(-350, 280)</text>
<text transform="matrix(1 0 0 1 6.0183 12.6639)" class="st12 st4 st11">(-350, 280)</text>
<rect x="9.2" y="240.1" class="st2" width="50.5" height="8.9"/>
<text transform="matrix(1 0 0 1 4.0579 251.8636)" class="st13 st4 st11">(-350, -280)</text>
<text transform="matrix(1 0 0 1 4.0579 251.8636)" class="st12 st4 st11">(-350, -280)</text>
<rect x="258.2" y="8.7" class="st2" width="42.9" height="8"/>
<text transform="matrix(1 0 0 1 258.2064 11.0402)" class="st13 st14 st11">(350, 280)</text>
<text transform="matrix(1 0 0 1 258.2064 11.0402)" class="st12 st14 st11">(350, 280)</text>
<rect x="256.7" y="239.7" class="st2" width="46" height="9.6"/>
<text transform="matrix(0.9756 0 0 1 251.2837 253.6401)" class="st10 st4 st15">(350, -280)</text>
<text transform="matrix(0.9756 0 0 1 251.2837 253.6401)" class="st12 st4 st15">(350, -280)</text>
<g id="Layer_3_2_">
	<g>
		<path class="st16" d="M204.7,143.1L204.7,143.1c0.8,0.4,1.3,1.2,1.3,2.2c0,0.5-0.1,0.5-0.3,1.1c0,0-0.2,0.3-0.4,0.4l0,0l0,0
			c0,0-0.3,0.3,0.2,0.6c0.4,0.2-1.2,0.8-1.8,0.8c-0.7-0.1-2.3-0.6-1.9-0.8c0.5-0.3,0.1-0.6,0.1-0.6l0,0c-0.2-0.1-0.4-0.6-0.4-0.6
			c-0.1-0.3-0.2-0.6-0.2-1c0-1,0.5-1.7,1.3-2.1l0,0c0-0.1,0.7-0.4,1.1-0.4C204.1,142.6,204.7,142.9,204.7,143.1L204.7,143.1z
			 M200.9,149.1c0,0-0.7-1.3-1.5-1c-0.9,0.2-0.9,0.8-0.9,1.3c0,0.7,0.7,1.1,0.7,1.1C199.6,149.7,200.9,149.1,200.9,149.1z
			 M208.1,150.5c0,0,0.7-0.4,0.7-1.1c0-0.5-0.1-1.1-0.9-1.3s-1.5,1-1.5,1S207.7,149.7,208.1,150.5z M199.2,154.2c0,0-1,0.8-0.9,1.4
			c0.1,0.8,0.9,0.7,1.4,0.7c1,0,0.7-0.5,0.7-0.5S199.7,155,199.2,154.2z M206.9,155.8c0,0-0.3,0.5,0.7,0.5c0.5,0,1.3,0.1,1.4-0.7
			c0.1-0.6-0.9-1.4-0.9-1.4C207.6,155,206.9,155.8,206.9,155.8z M202.5,157.6c0,0,0.8,1.4,2.4,1.7c0.1,0,0.3-0.2,0.2-0.3
			c-0.6-0.8-0.5-1.4-0.5-1.4l-1-0.4L202.5,157.6z"/>
		<path class="st17" d="M202.1,146.6c-0.2,0-0.3-0.2-0.4-0.4c-0.4-0.9-0.4-1.2-0.3-1.3c0.4-0.6,0.8-0.1,1.3-0.8
			c0.4-0.5-0.1-0.8,0-0.8c0.1-0.1,0-0.2,0-0.2c0.4-0.3,0.9-0.3,0.9-0.3s0.6,0.1,0.9,0.3c0,0-0.1,0.2,0,0.2s-0.4,0.3,0,0.8
			c0.5,0.7,0.9,0.3,1.3,0.8c0.1,0.1,0,0.4-0.3,1.3c-0.1,0.2-0.2,0.3-0.4,0.4c-0.5,0-0.9,0.3-1.6,0.3
			C203,146.9,202.6,146.6,202.1,146.6z M203.7,148c0.7,0,1.9-0.2,1.6-0.5c-0.4-0.3,0-0.7-0.1-0.6c-0.5,0-0.6,0.3-1.5,0.3
			s-1-0.3-1.5-0.3c-0.1,0,0.3,0.3-0.1,0.6C201.8,147.8,203,148,203.7,148z M200.3,149.6c0.2-0.3,0.5-0.4,0.5-0.4s-0.8-1.2-1.4-0.9
			c-0.2,0.1-0.3,0.2-0.4,0.2L200.3,149.6z M208.3,148.5c-0.1-0.1-0.2-0.2-0.4-0.2c-0.5-0.3-1.4,0.9-1.4,0.9s0.2,0.1,0.5,0.4
			L208.3,148.5z M199.3,154.7c-0.2-0.2,0,0.1-0.2-0.2c0,0-1,0.7-0.7,1.1c0,0,0.1,0.2,0.2,0L199.3,154.7z M208.6,155.7
			c0.1,0.1,0.2,0,0.2,0c0.3-0.4-0.7-1.1-0.7-1.1c-0.2,0.3,0-0.1-0.2,0.2L208.6,155.7z M203.4,158.3c0.3,0.4,1.2,0.8,1.3,0.8
			s-0.6-0.3-0.9-0.7c-0.4-0.4-0.5-0.9-0.5-0.9l-0.4,0.1C202.9,157.5,203.1,158,203.4,158.3z"/>
		<g id="shell">
			<g>
				<path class="st18" d="M203.7,154.9h-0.9c-0.2,0-0.5-0.2-0.6-0.4l-0.9-1.7c-0.1-0.2-0.1-0.5,0-0.7l0.9-1.7
					c0.1-0.2,0.4-0.4,0.6-0.4h0.9h0.7c0.2,0,0.5,0.2,0.6,0.4l0.9,1.7c0.1,0.2,0.1,0.5,0,0.7l-0.9,1.7c-0.1,0.2-0.4,0.4-0.6,0.4
					H203.7"/>
				<path class="st18" d="M203.7,149.4h-0.9c-0.2,0-0.6-0.1-0.7-0.2l-0.8-0.9c-0.1-0.2-0.2-0.3-0.2-0.4c0,0,0,0,0.1,0
					c0.7-0.5,1.1,0.3,2.4,0.3c1.1,0,1.6-0.8,2.3-0.3c0.1,0,0,0,0,0c0.1,0,0,0.2-0.2,0.4l-0.8,0.8c-0.1,0.2-0.5,0.2-0.7,0.2
					L203.7,149.4L203.7,149.4z"/>
				<path class="st18" d="M203.7,157.2c-0.4,0-0.8,0.1-1.1,0c-0.4-0.1-0.8-0.3-0.8-0.3c-0.2-0.1-0.3-0.3-0.1-0.5l0.6-0.7
					c0.1-0.2,0.4-0.3,0.7-0.3h0.9h0.7c0.2,0,0.5,0.1,0.7,0.3l0.6,0.7c0.1,0.2,0.1,0.4-0.1,0.5c0,0-0.3,0.2-0.7,0.3
					C204.4,157.3,203.9,157.2,203.7,157.2z"/>
				<path class="st18" d="M206.3,148.7c0.1-0.2,0.3-0.3,0.3-0.2l0,0c0.3,0.3,0.1,0.7,0.3,1.1c0.2,0.3,0.8,0.4,0.9,0.7
					c0.2,0.6,0.3,1.6,0.3,1.6c0,0.2-0.2,0.4-0.4,0.4h-0.8c-0.2,0-0.5-0.2-0.6-0.4l-0.9-1.7c-0.1-0.2-0.1-0.5,0.1-0.7L206.3,148.7z"
					/>
				<path class="st18" d="M201.6,149.6c0.1,0.2,0.2,0.5,0.1,0.7l-0.9,1.7c-0.1,0.2-0.4,0.4-0.6,0.4h-0.8c-0.2,0-0.4-0.2-0.4-0.4
					c0,0,0.1-1,0.3-1.6c0.1-0.3,0.7-0.4,0.9-0.7s0-0.8,0.3-1.1l0,0c0,0,0.2,0.1,0.3,0.2L201.6,149.6z"/>
				<path class="st18" d="M201.6,154.7c0.1,0.2,0.1,0.5,0,0.7l-0.5,0.7c-0.1,0.2-0.3,0.3-0.4,0.2c0,0,0,0-0.1-0.1
					c-0.3-0.3-0.1-0.7-0.4-1.1c-0.3-0.4-0.7-0.4-0.9-0.7c-0.2-0.5-0.3-1.1-0.3-1.1c0-0.2,0.1-0.3,0.4-0.3h0.8c0.2,0,0.5,0.1,0.6,0.3
					L201.6,154.7z"/>
				<path class="st18" d="M206.4,153.2c0.1-0.2,0.4-0.3,0.6-0.3h0.8c0.2,0,0.4,0.1,0.4,0.3c0,0-0.1,0.6-0.3,1.1
					c-0.1,0.3-0.6,0.3-0.9,0.7c-0.3,0.4-0.1,0.8-0.4,1.1c-0.1,0.1-0.1,0.1-0.1,0.1c-0.1,0.1-0.3,0-0.4-0.2l-0.5-0.7
					c-0.1-0.2-0.2-0.5,0-0.7L206.4,153.2z"/>
			</g>
			<g class="st19">
				<path class="st20" d="M203.9,155.1H203c-0.2,0-0.5-0.2-0.6-0.4l-0.9-1.7c-0.1-0.2-0.1-0.5,0-0.7l0.9-1.7
					c0.1-0.2,0.4-0.4,0.6-0.4h0.9h0.7c0.2,0,0.5,0.2,0.6,0.4l0.9,1.7c0.1,0.2,0.1,0.5,0,0.7l-0.9,1.7c-0.1,0.2-0.4,0.4-0.6,0.4
					H203.9"/>
				<path class="st20" d="M203.9,149.6H203c-0.2,0-0.6-0.1-0.7-0.2l-0.8-0.9c-0.1-0.2-0.2-0.3-0.2-0.4c0,0,0,0,0.1,0
					c0.7-0.5,1.1,0.3,2.4,0.3c1.1,0,1.6-0.8,2.3-0.3c0.1,0,0,0,0,0c0.1,0,0,0.2-0.2,0.4l-0.8,0.8c-0.1,0.2-0.5,0.2-0.7,0.2
					L203.9,149.6L203.9,149.6z"/>
				<path class="st20" d="M203.9,157.3c-0.4,0-0.8,0.1-1.1,0c-0.4-0.1-0.8-0.3-0.8-0.3c-0.2-0.1-0.3-0.3-0.1-0.5l0.6-0.7
					c0.1-0.2,0.4-0.3,0.7-0.3h0.9h0.7c0.2,0,0.5,0.1,0.7,0.3l0.6,0.7c0.1,0.2,0.1,0.4-0.1,0.5c0,0-0.3,0.2-0.7,0.3
					C204.5,157.5,204.1,157.3,203.9,157.3z"/>
				<path class="st20" d="M206.5,148.9c0.1-0.2,0.3-0.3,0.3-0.2l0,0c0.3,0.3,0.1,0.7,0.3,1.1c0.2,0.3,0.8,0.4,0.9,0.7
					c0.2,0.6,0.3,1.6,0.3,1.6c0,0.2-0.2,0.4-0.4,0.4h-0.8c-0.2,0-0.5-0.2-0.6-0.4l-0.9-1.7c-0.1-0.2-0.1-0.5,0.1-0.7L206.5,148.9z"
					/>
				<path class="st20" d="M201.7,149.7c0.1,0.2,0.2,0.5,0.1,0.7l-0.9,1.7c-0.1,0.2-0.4,0.4-0.6,0.4h-0.8c-0.2,0-0.4-0.2-0.4-0.4
					c0,0,0.1-1,0.3-1.6c0.1-0.3,0.7-0.4,0.9-0.7s0-0.8,0.3-1.1l0,0c0,0,0.2,0.1,0.3,0.2L201.7,149.7z"/>
				<path class="st20" d="M201.8,154.8c0.1,0.2,0.1,0.5,0,0.7l-0.5,0.7c-0.1,0.2-0.3,0.3-0.4,0.2c0,0,0,0-0.1-0.1
					c-0.3-0.3-0.1-0.7-0.4-1.1c-0.3-0.4-0.7-0.4-0.9-0.7c-0.2-0.5-0.3-1.1-0.3-1.1c0-0.2,0.1-0.3,0.4-0.3h0.8c0.2,0,0.5,0.1,0.6,0.3
					L201.8,154.8z"/>
				<path class="st20" d="M206.6,153.4c0.1-0.2,0.4-0.3,0.6-0.3h0.8c0.2,0,0.4,0.1,0.4,0.3c0,0-0.1,0.6-0.3,1.1
					c-0.1,0.3-0.6,0.3-0.9,0.7c-0.3,0.4-0.1,0.8-0.4,1.1c-0.1,0.1-0.1,0.1-0.1,0.1c-0.1,0.1-0.3,0-0.4-0.2l-0.5-0.7
					c-0.1-0.2-0.2-0.5,0-0.7L206.6,153.4z"/>
			</g>
			<path class="st21" d="M203.7,157.6c0.2,0,0.7,0.2,1.1,0.1c0.8-0.2,1.6-0.6,2.2-1.2c0.3-0.3,0-0.7,0.4-1.1c0.5-0.7,0.9-0.5,1-0.9
				c0.3-0.7,0.4-1.4,0.4-2.2c0-0.7-0.1-1.5-0.4-2.1c-0.1-0.4-0.8-0.5-1-0.8c-0.2-0.4-0.1-0.9-0.4-1.2l0,0l-0.1-0.1
				c0,0-0.3-0.3-0.5-0.4c-0.9-0.6-2,0.2-2.7,0.2c-0.9,0-1.8-0.9-2.8-0.2c-0.2,0.1-0.6,0.4-0.6,0.4l-0.1,0.1l0,0
				c-0.3,0.3-0.1,0.8-0.4,1.2c-0.2,0.3-0.8,0.5-1,0.8c-0.3,0.6-0.4,1.4-0.4,2.1c0,0.8,0.1,1.5,0.4,2.2c0.2,0.4,0.5,0.3,1,0.9
				c0.4,0.5,0.1,0.9,0.4,1.1c0.6,0.6,1.5,1,2.3,1.2C202.9,157.8,203.3,157.6,203.7,157.6z M203.7,154.9h-0.9c-0.2,0-0.5-0.2-0.6-0.4
				l-0.9-1.7c-0.1-0.2-0.1-0.5,0-0.7l0.9-1.7c0.1-0.2,0.4-0.4,0.6-0.4h0.9h0.7c0.2,0,0.5,0.2,0.6,0.4l0.9,1.7c0.1,0.2,0.1,0.5,0,0.7
				l-0.9,1.7c-0.1,0.2-0.4,0.4-0.6,0.4H203.7 M203.7,149.4h-0.9c-0.2,0-0.6-0.1-0.7-0.2l-0.8-0.9c-0.1-0.2-0.2-0.3-0.2-0.4
				c0,0,0,0,0.1,0c0.7-0.5,1.1,0.3,2.4,0.3c1.1,0,1.6-0.8,2.3-0.3c0.1,0,0,0,0,0c0.1,0,0,0.2-0.2,0.4l-0.8,0.8
				c-0.1,0.2-0.5,0.2-0.7,0.2L203.7,149.4L203.7,149.4z M203.7,157.2c-0.4,0-0.8,0.1-1.1,0c-0.4-0.1-0.8-0.3-0.8-0.3
				c-0.2-0.1-0.3-0.3-0.1-0.5l0.6-0.7c0.1-0.2,0.4-0.3,0.7-0.3h0.9h0.7c0.2,0,0.5,0.1,0.7,0.3l0.6,0.7c0.1,0.2,0.1,0.4-0.1,0.5
				c0,0-0.3,0.2-0.7,0.3C204.4,157.3,203.9,157.2,203.7,157.2z M206.3,148.7c0.1-0.2,0.3-0.3,0.3-0.2l0,0c0.3,0.3,0.1,0.7,0.3,1.1
				c0.2,0.3,0.8,0.4,0.9,0.7c0.2,0.6,0.3,1.6,0.3,1.6c0,0.2-0.2,0.4-0.4,0.4h-0.8c-0.2,0-0.5-0.2-0.6-0.4l-0.9-1.7
				c-0.1-0.2-0.1-0.5,0.1-0.7L206.3,148.7z M201.6,149.6c0.1,0.2,0.2,0.5,0.1,0.7l-0.9,1.7c-0.1,0.2-0.4,0.4-0.6,0.4h-0.8
				c-0.2,0-0.4-0.2-0.4-0.4c0,0,0.1-1,0.3-1.6c0.1-0.3,0.7-0.4,0.9-0.7s0-0.8,0.3-1.1l0,0c0,0,0.2,0.1,0.3,0.2L201.6,149.6z
				 M201.6,154.7c0.1,0.2,0.1,0.5,0,0.7l-0.5,0.7c-0.1,0.2-0.3,0.3-0.4,0.2c0,0,0,0-0.1-0.1c-0.3-0.3-0.1-0.7-0.4-1.1
				c-0.3-0.4-0.7-0.4-0.9-0.7c-0.2-0.5-0.3-1.1-0.3-1.1c0-0.2,0.1-0.3,0.4-0.3h0.8c0.2,0,0.5,0.1,0.6,0.3L201.6,154.7z M206.4,153.2
				c0.1-0.2,0.4-0.3,0.6-0.3h0.8c0.2,0,0.4,0.1,0.4,0.3c0,0-0.1,0.6-0.3,1.1c-0.1,0.3-0.6,0.3-0.9,0.7c-0.3,0.4-0.1,0.8-0.4,1.1
				c-0.1,0.1-0.1,0.1-0.1,0.1c-0.1,0.1-0.3,0-0.4-0.2l-0.5-0.7c-0.1-0.2-0.2-0.5,0-0.7L206.4,153.2z"/>
		</g>
		<g id="eyes">
			<path id="eye_6_" class="st20" d="M204.7,143.2c0,0-0.2,0.4,0.1,0.8c0.4,0.4,0.8,0.2,0.8,0.2S205.3,143.6,204.7,143.2z"/>
			<path id="eye_7_" class="st20" d="M202.7,143.2c0,0,0.2,0.4-0.1,0.8c-0.4,0.4-0.8,0.2-0.8,0.2S202.1,143.6,202.7,143.2z"/>
			<path class="st22" d="M202.5,143.9c0.1-0.2,0.1-0.4,0-0.6c-0.2,0.2-0.4,0.4-0.5,0.5C202.1,144,202.3,144.1,202.5,143.9z"/>
			<path class="st22" d="M204.8,143.9c-0.1-0.2-0.1-0.4,0-0.6c0.2,0.2,0.4,0.4,0.5,0.5C205.2,144,205,144.1,204.8,143.9z"/>
		</g>
	</g>
</g>
<g>
	<circle class="st23" cx="51.6" cy="110" r="12"/>
	<path class="st20" d="M56.8,114.9h-3l-2.2-3.3l-2.2,3.3h-2.9l3.6-5.1l-3.5-5.1h3l2.1,3.2l2.2-3.2h2.9l-3.6,4.9L56.8,114.9z"/>
</g>
<g>
	<circle class="st24" cx="137" cy="40.2" r="12"/>
	<g class="st25">
		<path class="st20" d="M142.1,34.9l-3.8,6.2v3.9h-2.6v-3.8l-3.8-6.4h3l2.2,3.9l2.1-3.9H142.1z"/>
	</g>
</g>
</svg>
