<?xml version="1.0" encoding="utf-8"?>
<!-- Generator: Adobe Illustrator 19.0.1, SVG Export Plug-In . SVG Version: 6.00 Build 0)  -->
<svg version="1.1" id="Layer_1" xmlns="http://www.w3.org/2000/svg" xmlns:xlink="http://www.w3.org/1999/xlink" x="0px" y="0px"
	 width="43px" height="137px" viewBox="0 0 43 137" enable-background="new 0 0 43 137" xml:space="preserve">
<path fill="#FAFAFA" stroke="#E4CBA9" stroke-miterlimit="10" d="M42.5,128.5c0,4.4-3.6,8-8,8h-26c-4.4,0-8-3.6-8-8V8.5
	c0-4.4,3.6-8,8-8h26c4.4,0,8,3.6,8,8V128.5z"/>
<g>
	<path fill="#260E0D" d="M21.4,132.9c-1.1,0-2-0.9-2-2v-10c0-1.1,0.9-2,2-2s2,0.9,2,2v10C23.4,132,22.5,132.9,21.4,132.9z"/>
	<path fill="#4F1523" d="M21.4,122.9c-1.1,0-2-0.9-2-2v-10c0-1.1,0.9-2,2-2s2,0.9,2,2v10C23.4,122,22.5,122.9,21.4,122.9z"/>
	<path fill="#801517" d="M21.4,112.9c-1.1,0-2-0.9-2-2v-10c0-1.1,0.9-2,2-2s2,0.9,2,2v10C23.4,112,22.5,112.9,21.4,112.9z"/>
	<path fill="#AC1E23" d="M21.4,102.9c-1.1,0-2-0.9-2-2v-10c0-1.1,0.9-2,2-2s2,0.9,2,2v10C23.4,102,22.5,102.9,21.4,102.9z"/>
	<path fill="#ED2024" d="M21.4,92.9c-1.1,0-2-0.9-2-2v-10c0-1.1,0.9-2,2-2s2,0.9,2,2v10C23.4,92,22.5,92.9,21.4,92.9z"/>
	<path fill="#ED2224" d="M21.4,82.9c-1.1,0-2-0.9-2-2v-10c0-1.1,0.9-2,2-2s2,0.9,2,2v10C23.4,82,22.5,82.9,21.4,82.9z"/>
	<path fill="#EF3F39" d="M21.4,72.9c-1.1,0-2-0.9-2-2v-10c0-1.1,0.9-2,2-2s2,0.9,2,2v10C23.4,72,22.5,72.9,21.4,72.9z"/>
	<path fill="#F15E54" d="M21.4,62.9c-1.1,0-2-0.9-2-2v-10c0-1.1,0.9-2,2-2s2,0.9,2,2v10C23.4,62,22.5,62.9,21.4,62.9z"/>
	<path fill="#F4847D" d="M21.4,52.9c-1.1,0-2-0.9-2-2v-10c0-1.1,0.9-2,2-2s2,0.9,2,2v10C23.4,52,22.5,52.9,21.4,52.9z"/>
	<path fill="#F8ADAA" d="M21.4,42.9c-1.1,0-2-0.9-2-2v-10c0-1.1,0.9-2,2-2s2,0.9,2,2v10C23.4,42,22.5,42.9,21.4,42.9z"/>
</g>
<g id="Layer_3_2_">
	<g>
		<path fill="#8BC24C" d="M24.8,5.7L24.8,5.7c2.6,1.3,4.3,4.1,4.3,7.4c0,1.5-0.2,1.7-1,3.5c0,0-0.5,1.1-1.2,1.4l0,0l0,0
			c0,0-1,1.1,0.6,2.1c1.2,0.8-3.9,2.5-6.1,2.7c-2.2-0.2-7.5-1.9-6.3-2.7c1.6-1,0.4-2.1,0.4-2.1l0,0c-0.7-0.3-1.3-2-1.3-2
			c-0.4-1.1-0.8-1.9-0.8-3.4c0-3.3,1.7-5.8,4.3-7.1l0,0C17.7,5.1,20,4,21.3,4C22.7,4.1,24.7,5.3,24.8,5.7L24.8,5.7z M12.1,25.7
			c0,0-2.3-4.2-5.1-3.4c-2.8,0.8-3.1,2.7-3.1,4.3c0,2.3,2.4,3.7,2.4,3.7C7.7,27.8,12.1,25.7,12.1,25.7z M36,30.3
			c0,0,2.4-1.4,2.4-3.7c0-1.6-0.3-3.6-3.1-4.3c-2.8-0.8-5.1,3.4-5.1,3.4S34.6,27.8,36,30.3z M6.3,43c0,0-3.5,2.7-3.1,4.6
			C3.7,50.2,6.3,50,7.9,50c3.3-0.1,2.2-1.7,2.2-1.7S8,45.4,6.3,43z M32.1,48.2c0,0-1,1.6,2.2,1.7c1.6,0,4.3,0.2,4.7-2.4
			c0.3-1.8-3.1-4.6-3.1-4.6C34.3,45.4,32.1,48.2,32.1,48.2z M17.4,54.2c0,0,2.6,4.8,8.1,5.6c0.5,0.1,0.9-0.6,0.7-1
			c-1.8-2.8-1.6-4.6-1.6-4.6L21.3,53L17.4,54.2z"/>
		<path fill="#A3CF66" d="M16,17.5c-0.6-0.1-0.9-0.6-1.2-1.2c-1.2-2.9-1.3-4-1.1-4.3c1.5-1.8,2.6-0.3,4.4-2.8c1.3-1.8-0.2-2.7,0-2.8
			c0.3-0.2-0.1-0.7,0-0.8c1.2-0.8,3-1.1,3-1.1s1.8,0.2,3,1.1c0.1,0.1-0.3,0.6,0,0.8c0.2,0.2-1.3,1,0,2.8c1.8,2.5,2.9,0.9,4.4,2.8
			c0.2,0.4,0.2,1.4-1.1,4.3c-0.3,0.6-0.5,1-1.2,1.2c-1.7,0-3,1.1-5.2,1.1C19,18.5,17.7,17.5,16,17.5z M21.2,22.1
			c2.2,0.1,6.3-0.8,5.2-1.7c-1.4-1.2,0-2.2-0.2-2.2c-1.7,0-2.1,1.2-5,1.2s-3.3-1.2-5-1.2c-0.2-0.1,1.1,1-0.2,2.2
			C14.8,21.3,19,22.2,21.2,22.1z M10.1,27.3c0.8-0.9,1.5-1.3,1.5-1.3s-2.8-4-4.7-3.1c-0.6,0.3-0.9,0.5-1.3,0.8L10.1,27.3z
			 M36.5,23.7c-0.3-0.3-0.6-0.5-1.2-0.8C33.5,22,30.6,26,30.6,26s0.7,0.5,1.5,1.3L36.5,23.7z M6.7,44.4c-0.7-0.8,0,0.4-0.6-0.6
			c0,0-3.2,2.4-2.3,3.8c0.1,0.1,0.4,0.5,0.7,0.1L6.7,44.4z M37.7,47.8c0.4,0.4,0.6,0,0.7-0.1c0.9-1.4-2.3-3.8-2.3-3.8
			c-0.6,0.9,0.1-0.2-0.6,0.6L37.7,47.8z M20.3,56.6c1,1.2,3.9,2.7,4.4,2.5c0.3-0.1-2-1.1-3.2-2.4c-1.4-1.4-1.6-3.1-1.6-3.1l-1.3,0.3
			C18.7,53.9,19.5,55.6,20.3,56.6z"/>
		<g id="shell">
			<g>
				<path fill="#64A644" d="M21.3,45.2h-2.9c-0.8,0-1.8-0.6-2.1-1.2l-3.1-5.6c-0.4-0.6-0.4-1.7,0-2.4l3.1-5.6
					c0.4-0.6,1.3-1.3,2.1-1.3h2.9h2.3c0.8,0,1.8,0.6,2.1,1.3l3.1,5.5c0.4,0.6,0.4,1.7,0,2.4l-3.1,5.6c-0.4,0.6-1.3,1.2-2.1,1.2
					L21.3,45.2"/>
				<path fill="#64A644" d="M21.3,26.9h-2.9c-0.8,0-1.9-0.2-2.4-0.8l-2.6-2.9c-0.5-0.6-0.7-1.1-0.6-1.2c0,0,0.1,0,0.3-0.1
					c2.4-1.6,3.7,1.2,8.1,1.2c3.6,0,5.4-2.7,7.8-1.1c0.2,0.1,0.1,0.1,0.1,0.1c0.2,0.1-0.1,0.7-0.6,1.3l-2.6,2.8
					c-0.5,0.6-1.6,0.8-2.4,0.8L21.3,26.9L21.3,26.9z"/>
				<path fill="#64A644" d="M21.3,52.7c-1.5,0-2.5,0.5-3.8,0.1c-1.4-0.4-2.7-1-2.7-1c-0.7-0.4-0.9-1.1-0.5-1.8l1.9-2.4
					c0.4-0.6,1.5-1,2.3-1h2.9h2.2c0.8,0,1.8,0.4,2.3,1l1.9,2.5c0.4,0.6,0.2,1.4-0.4,1.7c0,0-1.1,0.7-2.5,1
					C23.5,53.2,22.1,52.7,21.3,52.7z"/>
				<path fill="#64A644" d="M30.1,24.6c0.5-0.6,1-0.9,1.2-0.8c0,0,0,0,0.1,0.1c0.9,0.9,0.2,2.5,0.9,3.5c0.6,0.9,2.6,1.2,3,2.3
					c0.8,2,1.1,5.3,1.1,5.3c0.1,0.7-0.5,1.4-1.3,1.4h-2.6c-0.8,0-1.7-0.6-2.1-1.3l-2.9-5.5c-0.3-0.7-0.2-1.7,0.3-2.3L30.1,24.6z"/>
				<path fill="#64A644" d="M14.2,27.3c0.5,0.6,0.6,1.6,0.3,2.2l-2.9,5.6c-0.3,0.7-1.3,1.3-2.1,1.3H6.9c-0.8,0-1.4-0.7-1.3-1.4
					c0,0,0.3-3.2,1.1-5.2c0.4-1,2.4-1.4,3-2.3c0.7-1,0-2.7,0.9-3.5c0.1-0.1,0.1-0.1,0.1-0.1c0.1-0.1,0.7,0.2,1.2,0.8L14.2,27.3z"/>
				<path fill="#64A644" d="M14.5,44.3c0.4,0.6,0.3,1.7-0.1,2.3l-1.7,2.3c-0.4,0.6-1.1,0.9-1.4,0.6c0,0,0,0-0.3-0.3
					c-0.9-0.9-0.3-2.4-1.2-3.6c-1-1.3-2.5-1.2-2.9-2.3c-0.7-1.6-1.1-3.6-1.1-3.6C5.7,39,6.2,38.6,7,38.6h2.5c0.8,0,1.8,0.3,2.1,1
					L14.5,44.3z"/>
				<path fill="#64A644" d="M30.4,39.6c0.4-0.6,1.3-1,2.1-1H35c0.8,0,1.4,0.4,1.2,1.1c0,0-0.4,2.1-1.1,3.7c-0.5,1.1-1.9,0.9-2.9,2.3
					c-0.9,1.2-0.3,2.7-1.2,3.5c-0.3,0.3-0.3,0.2-0.3,0.2c-0.3,0.3-1,0-1.4-0.6l-1.7-2.3c-0.4-0.6-0.5-1.5-0.1-2.2L30.4,39.6z"/>
			</g>
			<g opacity="0.15">
				<path fill="#FFFFFF" d="M21.9,45.7H19c-0.8,0-1.8-0.6-2.1-1.2l-3.1-5.6c-0.4-0.6-0.4-1.7,0-2.4l3.1-5.6c0.4-0.6,1.3-1.3,2.1-1.3
					h2.9h2.3c0.8,0,1.8,0.6,2.1,1.3l3.1,5.5c0.4,0.6,0.4,1.7,0,2.4l-3.1,5.6c-0.4,0.6-1.3,1.2-2.1,1.2L21.9,45.7"/>
				<path fill="#FFFFFF" d="M21.9,27.5H19c-0.8,0-1.9-0.2-2.4-0.8L14,23.8c-0.5-0.6-0.7-1.1-0.6-1.2c0,0,0.1,0,0.3-0.1
					c2.4-1.6,3.7,1.2,8.1,1.2c3.6,0,5.4-2.7,7.8-1.1c0.2,0.1,0.1,0.1,0.1,0.1c0.2,0.1-0.1,0.7-0.6,1.3l-2.6,2.8
					c-0.5,0.6-1.6,0.8-2.4,0.8L21.9,27.5L21.9,27.5z"/>
				<path fill="#FFFFFF" d="M21.9,53.3c-1.5,0-2.5,0.5-3.8,0.1c-1.4-0.4-2.7-1-2.7-1c-0.7-0.4-0.9-1.1-0.5-1.8l1.9-2.4
					c0.4-0.6,1.5-1,2.3-1H22h2.2c0.8,0,1.8,0.4,2.3,1l1.9,2.5c0.4,0.6,0.2,1.4-0.4,1.7c0,0-1.1,0.7-2.5,1
					C24.1,53.7,22.6,53.3,21.9,53.3z"/>
				<path fill="#FFFFFF" d="M30.7,25.2c0.5-0.6,1-0.9,1.2-0.8c0,0,0,0,0.1,0.1c0.9,0.9,0.2,2.5,0.9,3.5c0.6,0.9,2.6,1.2,3,2.3
					c0.8,2,1.1,5.3,1.1,5.3c0.1,0.7-0.5,1.4-1.3,1.4h-2.6c-0.8,0-1.7-0.6-2.1-1.3l-2.9-5.5c-0.3-0.7-0.2-1.7,0.3-2.3L30.7,25.2z"/>
				<path fill="#FFFFFF" d="M14.8,27.9c0.5,0.6,0.6,1.6,0.3,2.2l-2.9,5.6c-0.3,0.7-1.3,1.3-2.1,1.3H7.5c-0.8,0-1.4-0.7-1.3-1.4
					c0,0,0.3-3.2,1.1-5.2c0.4-1,2.4-1.4,3-2.3c0.7-1,0-2.7,0.9-3.5c0.1-0.1,0.1-0.1,0.1-0.1c0.1-0.1,0.7,0.2,1.2,0.8L14.8,27.9z"/>
				<path fill="#FFFFFF" d="M15,44.8c0.4,0.6,0.3,1.7-0.1,2.3l-1.7,2.3c-0.4,0.6-1.1,0.9-1.4,0.6c0,0,0,0-0.3-0.3
					c-0.9-0.9-0.3-2.4-1.2-3.6c-1-1.3-2.5-1.2-2.9-2.3c-0.7-1.6-1.1-3.6-1.1-3.6c-0.1-0.7,0.4-1.1,1.2-1.1H10c0.8,0,1.8,0.3,2.1,1
					L15,44.8z"/>
				<path fill="#FFFFFF" d="M31,40.1c0.4-0.6,1.3-1,2.1-1h2.5c0.8,0,1.4,0.4,1.2,1.1c0,0-0.4,2.1-1.1,3.7c-0.5,1.1-1.9,0.9-2.9,2.3
					c-0.9,1.2-0.3,2.7-1.2,3.5c-0.3,0.3-0.3,0.2-0.3,0.2c-0.3,0.3-1,0-1.4-0.6L28.2,47c-0.4-0.6-0.5-1.5-0.1-2.2L31,40.1z"/>
			</g>
			<path fill="#538A3E" d="M21.3,54c0.7,0,2.2,0.8,3.5,0.5c2.8-0.7,5.3-2.1,7.4-4c1-0.9,0-2.3,1.3-3.8c1.8-2.2,2.9-1.7,3.5-3.1
				c0.9-2.2,1.4-4.7,1.4-7.2s-0.5-4.9-1.4-7c-0.5-1.2-2.6-1.7-3.3-2.8c-0.8-1.2-0.3-2.9-1.3-3.9c-0.1-0.1-0.1-0.1-0.1-0.1
				c-0.1-0.1-0.3-0.4-0.4-0.4c-0.1-0.1-1.1-1.1-1.7-1.5c-3.1-2.2-6.7,0.8-8.9,0.8c-2.9,0-6.1-2.9-9.2-0.8c-0.6,0.4-1.9,1.4-2,1.5
				s-0.3,0.3-0.5,0.4c0,0,0,0-0.1,0.1c-1,1-0.5,2.7-1.3,3.9c-0.7,1.1-2.8,1.6-3.3,2.8c-0.9,2.2-1.4,4.5-1.4,7c0,2.6,0.5,5,1.4,7.2
				c0.5,1.3,1.7,0.9,3.5,3.1c1.2,1.5,0.3,2.9,1.3,3.8c2.1,1.9,4.8,3.3,7.7,4C18.8,54.9,19.9,54,21.3,54z M21.3,45.2h-2.9
				c-0.8,0-1.8-0.6-2.1-1.2l-3.1-5.6c-0.4-0.6-0.4-1.7,0-2.4l3.1-5.6c0.4-0.6,1.3-1.3,2.1-1.3h2.9h2.3c0.8,0,1.8,0.6,2.1,1.3
				l3.1,5.5c0.4,0.6,0.4,1.7,0,2.4l-3.1,5.6c-0.4,0.6-1.3,1.2-2.1,1.2L21.3,45.2 M21.3,26.9h-2.9c-0.8,0-1.9-0.2-2.4-0.8l-2.6-2.9
				c-0.5-0.6-0.7-1.1-0.6-1.2c0,0,0.1,0,0.3-0.1c2.4-1.6,3.7,1.2,8.1,1.2c3.6,0,5.4-2.7,7.8-1.1c0.2,0.1,0.1,0.1,0.1,0.1
				c0.2,0.1-0.1,0.7-0.6,1.3l-2.6,2.8c-0.5,0.6-1.6,0.8-2.4,0.8L21.3,26.9L21.3,26.9z M21.3,52.7c-1.5,0-2.5,0.5-3.8,0.1
				c-1.4-0.4-2.7-1-2.7-1c-0.7-0.4-0.9-1.1-0.5-1.8l1.9-2.4c0.4-0.6,1.5-1,2.3-1h2.9h2.2c0.8,0,1.8,0.4,2.3,1l1.9,2.5
				c0.4,0.6,0.2,1.4-0.4,1.7c0,0-1.1,0.7-2.5,1C23.5,53.2,22.1,52.7,21.3,52.7z M30.1,24.6c0.5-0.6,1-0.9,1.2-0.8c0,0,0,0,0.1,0.1
				c0.9,0.9,0.2,2.5,0.9,3.5c0.6,0.9,2.6,1.2,3,2.3c0.8,2,1.1,5.3,1.1,5.3c0.1,0.7-0.5,1.4-1.3,1.4h-2.6c-0.8,0-1.7-0.6-2.1-1.3
				l-2.9-5.5c-0.3-0.7-0.2-1.7,0.3-2.3L30.1,24.6z M14.2,27.3c0.5,0.6,0.6,1.6,0.3,2.2l-2.9,5.6c-0.3,0.7-1.3,1.3-2.1,1.3H6.9
				c-0.8,0-1.4-0.7-1.3-1.4c0,0,0.3-3.2,1.1-5.2c0.4-1,2.4-1.4,3-2.3c0.7-1,0-2.7,0.9-3.5c0.1-0.1,0.1-0.1,0.1-0.1
				c0.1-0.1,0.7,0.2,1.2,0.8L14.2,27.3z M14.5,44.3c0.4,0.6,0.3,1.7-0.1,2.3l-1.7,2.3c-0.4,0.6-1.1,0.9-1.4,0.6c0,0,0,0-0.3-0.3
				c-0.9-0.9-0.3-2.4-1.2-3.6c-1-1.3-2.5-1.2-2.9-2.3c-0.7-1.6-1.1-3.6-1.1-3.6C5.7,39,6.2,38.6,7,38.6h2.5c0.8,0,1.8,0.3,2.1,1
				L14.5,44.3z M30.4,39.6c0.4-0.6,1.3-1,2.1-1H35c0.8,0,1.4,0.4,1.2,1.1c0,0-0.4,2.1-1.1,3.7c-0.5,1.1-1.9,0.9-2.9,2.3
				c-0.9,1.2-0.3,2.7-1.2,3.5c-0.3,0.3-0.3,0.2-0.3,0.2c-0.3,0.3-1,0-1.4-0.6l-1.7-2.3c-0.4-0.6-0.5-1.5-0.1-2.2L30.4,39.6z"/>
		</g>
		<g id="eyes">
			<path id="eye_6_" fill="#FFFFFF" d="M24.6,6.3c0,0-0.8,1.4,0.4,2.7c1.2,1.3,2.6,0.5,2.6,0.5S26.5,7.4,24.6,6.3z"/>
			<path id="eye_7_" fill="#FFFFFF" d="M17.8,6.3c0,0,0.8,1.4-0.4,2.7c-1.2,1.3-2.6,0.5-2.6,0.5S15.8,7.4,17.8,6.3z"/>
			<path fill="#426932" d="M17.3,8.5c0.5-0.5,0.3-1.3,0.1-1.9c-0.8,0.5-1.4,1.2-1.8,1.8C16,8.7,16.8,9.1,17.3,8.5z"/>
			<path fill="#426932" d="M25.1,8.5c-0.5-0.5-0.3-1.3,0-1.9c0.8,0.5,1.4,1.2,1.8,1.8C26.4,8.7,25.6,9.1,25.1,8.5z"/>
		</g>
	</g>
</g>
</svg>
