<?xml version="1.0" encoding="utf-8"?>
<!-- Generator: Adobe Illustrator 15.0.0, SVG Export Plug-In . SVG Version: 6.00 Build 0)  -->
<!DOCTYPE svg PUBLIC "-//W3C//DTD SVG 1.1//EN" "http://www.w3.org/Graphics/SVG/1.1/DTD/svg11.dtd">
<svg version="1.1" id="Layer_1" xmlns="http://www.w3.org/2000/svg" xmlns:xlink="http://www.w3.org/1999/xlink" x="0px" y="0px"
	 width="43px" height="156px" viewBox="0 0 43 156" enable-background="new 0 0 43 156" xml:space="preserve">
<g id="Layer_1_1_">
	<path fill="#FAFAFA" stroke="#E4CBA9" stroke-miterlimit="10" d="M42.5,147.85c0,4.2-3.6,7.601-8,7.601h-26c-4.4,0-8-3.4-8-7.601
		V8.15c0-4.2,3.6-7.601,8-7.601h26c4.4,0,8,3.4,8,7.601V147.85z"/>
	<path fill="#ED2224" d="M21.5,151.5c-0.828,0-1.5-0.672-1.5-1.5v-6c0-0.828,0.672-1.5,1.5-1.5s1.5,0.672,1.5,1.5v6
		C23,150.828,22.328,151.5,21.5,151.5z M21.5,139.5c-0.828,0-1.5-0.672-1.5-1.5v-6c0-0.828,0.672-1.5,1.5-1.5s1.5,0.672,1.5,1.5v6
		C23,138.828,22.328,139.5,21.5,139.5z M21.5,127.5c-0.828,0-1.5-0.672-1.5-1.5v-6c0-0.828,0.672-1.5,1.5-1.5s1.5,0.672,1.5,1.5v6
		C23,126.828,22.328,127.5,21.5,127.5z M21.5,115.5c-0.828,0-1.5-0.672-1.5-1.5v-6c0-0.828,0.672-1.5,1.5-1.5s1.5,0.672,1.5,1.5v6
		C23,114.828,22.328,115.5,21.5,115.5z M21.5,103.5c-0.828,0-1.5-0.672-1.5-1.5v-6c0-0.828,0.672-1.5,1.5-1.5S23,95.172,23,96v6
		C23,102.828,22.328,103.5,21.5,103.5z M21.5,91.5c-0.828,0-1.5-0.672-1.5-1.5v-6c0-0.828,0.672-1.5,1.5-1.5S23,83.172,23,84v6
		C23,90.828,22.328,91.5,21.5,91.5z M21.5,79.5c-0.828,0-1.5-0.672-1.5-1.5v-6c0-0.828,0.672-1.5,1.5-1.5S23,71.172,23,72v6
		C23,78.828,22.328,79.5,21.5,79.5z M21.5,67.5c-0.828,0-1.5-0.672-1.5-1.5v-6c0-0.828,0.672-1.5,1.5-1.5S23,59.172,23,60v6
		C23,66.828,22.328,67.5,21.5,67.5z M21.5,55.5c-0.828,0-1.5-0.672-1.5-1.5v-6c0-0.829,0.672-1.5,1.5-1.5S23,47.171,23,48v6
		C23,54.828,22.328,55.5,21.5,55.5z M21.5,43.5c-0.828,0-1.5-0.671-1.5-1.5v-6c0-0.829,0.672-1.5,1.5-1.5S23,35.171,23,36v6
		C23,42.829,22.328,43.5,21.5,43.5z"/>
	<g id="Layer_3_2_">
		<g>
			<path fill="#8BC24C" d="M24.7,4.95L24.7,4.95c2.6,1.3,4.3,4.1,4.3,7.399c0,1.5-0.2,1.7-1,3.5c0,0-0.5,1.101-1.2,1.4l0,0l0,0
				c0,0-1,1.1,0.601,2.1c1.199,0.801-3.9,2.5-6.101,2.7c-2.2-0.2-7.5-1.899-6.3-2.7c1.6-1,0.4-2.1,0.4-2.1l0,0
				c-0.7-0.3-1.301-2-1.301-2c-0.399-1.1-0.8-1.9-0.8-3.4c0-3.3,1.7-5.8,4.3-7.1l0,0c0-0.4,2.301-1.5,3.601-1.5
				C22.6,3.35,24.7,4.55,24.7,4.95L24.7,4.95z M12,24.95c0,0-2.3-4.2-5.1-3.4C4.1,22.35,3.8,24.25,3.8,25.85
				c0,2.301,2.4,3.7,2.4,3.7C7.6,27.05,12,24.95,12,24.95z M36,29.55c0,0,2.4-1.399,2.4-3.7c0-1.6-0.301-3.6-3.101-4.3
				c-2.8-0.8-5.1,3.4-5.1,3.4S34.5,27.05,36,29.55z M6.2,42.15c0,0-3.5,2.699-3.101,4.6c0.5,2.6,3.101,2.4,4.7,2.4
				c3.3-0.101,2.2-1.7,2.2-1.7S7.9,44.65,6.2,42.15z M32.1,47.45c0,0-1,1.6,2.2,1.7c1.601,0,4.3,0.199,4.7-2.4
				c0.3-1.8-3.1-4.6-3.1-4.6C34.2,44.65,32.1,47.45,32.1,47.45z M17.4,53.45c0,0,2.6,4.8,8.1,5.6c0.5,0.101,0.9-0.6,0.7-1
				c-1.8-2.8-1.601-4.6-1.601-4.6l-3.3-1.2L17.4,53.45z"/>
			<path fill="#A3CF66" d="M15.9,16.75c-0.601-0.1-0.9-0.6-1.2-1.2c-1.2-2.899-1.3-4-1.101-4.3c1.5-1.8,2.601-0.3,4.4-2.8
				c1.3-1.8-0.2-2.7,0-2.8c0.3-0.2-0.1-0.7,0-0.801c1.2-0.8,3-1.1,3-1.1s1.8,0.2,3,1.1c0.1,0.101-0.3,0.601,0,0.801
				c0.2,0.199-1.3,1,0,2.8c1.8,2.5,2.9,0.899,4.4,2.8c0.199,0.4,0.199,1.4-1.101,4.3c-0.3,0.601-0.5,1-1.2,1.2
				c-1.699,0-3,1.1-5.199,1.1C18.9,17.75,17.6,16.75,15.9,16.75z M21.1,21.35c2.2,0.101,6.301-0.8,5.2-1.699
				c-1.399-1.2,0-2.2-0.2-2.2c-1.699,0-2.1,1.2-5,1.2c-2.899,0-3.3-1.2-5-1.2c-0.199-0.101,1.101,1-0.199,2.2
				C14.8,20.55,18.9,21.45,21.1,21.35z M10.1,26.55c0.801-0.899,1.5-1.3,1.5-1.3s-2.8-4-4.699-3.1C6.3,22.45,6,22.65,5.6,22.95
				L10.1,26.55z M36.4,22.95c-0.301-0.3-0.601-0.5-1.2-0.8c-1.8-0.9-4.7,3.1-4.7,3.1s0.7,0.5,1.5,1.3L36.4,22.95z M6.7,43.65
				C6,42.85,6.7,44.05,6.1,43.05c0,0-3.199,2.4-2.3,3.8c0.101,0.101,0.4,0.5,0.7,0.101L6.7,43.65z M37.6,47.05
				c0.4,0.4,0.601,0,0.7-0.1c0.9-1.4-2.3-3.8-2.3-3.8c-0.6,0.899,0.1-0.2-0.6,0.6L37.6,47.05z M20.3,55.85c1,1.2,3.9,2.7,4.4,2.5
				c0.3-0.1-2-1.1-3.2-2.399c-1.4-1.4-1.6-3.101-1.6-3.101L18.6,53.15C18.6,53.15,19.4,54.85,20.3,55.85z"/>
			<g id="shell">
				<g>
					<path fill="#64A644" d="M21.3,44.45H18.4c-0.801,0-1.801-0.601-2.101-1.2l-3.1-5.6c-0.4-0.601-0.4-1.7,0-2.4l3.1-5.6
						c0.4-0.601,1.3-1.301,2.101-1.301H21.3h2.3c0.801,0,1.801,0.601,2.101,1.301l3.1,5.5c0.4,0.6,0.4,1.699,0,2.399l-3.1,5.601
						c-0.4,0.6-1.3,1.199-2.101,1.199L21.3,44.45"/>
					<path fill="#64A644" d="M21.3,26.15H18.4c-0.801,0-1.9-0.2-2.4-0.801l-2.6-2.899c-0.5-0.601-0.7-1.101-0.601-1.2
						c0,0,0.101,0,0.3-0.1c2.4-1.601,3.7,1.199,8.101,1.199c3.6,0,5.399-2.699,7.8-1.1c0.2,0.1,0.1,0.1,0.1,0.1
						c0.2,0.101-0.1,0.7-0.6,1.301l-2.6,2.8c-0.5,0.6-1.601,0.8-2.4,0.8L21.3,26.15L21.3,26.15z"/>
					<path fill="#64A644" d="M21.3,51.95c-1.5,0-2.5,0.5-3.8,0.1c-1.4-0.399-2.7-1-2.7-1c-0.7-0.399-0.899-1.1-0.5-1.8l1.9-2.4
						c0.399-0.6,1.5-1,2.3-1h2.9H23.6c0.801,0,1.801,0.4,2.301,1l1.899,2.5c0.4,0.601,0.2,1.4-0.399,1.7c0,0-1.101,0.7-2.5,1
						C23.5,52.45,22,51.95,21.3,51.95z"/>
					<path fill="#64A644" d="M30.1,23.85c0.5-0.6,1-0.899,1.2-0.8c0,0,0,0,0.101,0.101c0.899,0.899,0.199,2.5,0.899,3.5
						c0.601,0.899,2.601,1.199,3,2.3c0.8,2,1.101,5.3,1.101,5.3c0.1,0.7-0.5,1.4-1.301,1.4h-2.6c-0.8,0-1.7-0.601-2.1-1.301
						l-2.9-5.5c-0.3-0.699-0.2-1.699,0.3-2.3L30.1,23.85z"/>
					<path fill="#64A644" d="M14.2,26.55c0.5,0.601,0.6,1.601,0.3,2.2l-2.9,5.6c-0.3,0.7-1.3,1.301-2.1,1.301H6.9
						c-0.801,0-1.4-0.7-1.301-1.4c0,0,0.301-3.2,1.101-5.2c0.399-1,2.399-1.399,3-2.3c0.7-1,0-2.7,0.899-3.5
						c0.101-0.1,0.101-0.1,0.101-0.1c0.1-0.101,0.7,0.199,1.2,0.8L14.2,26.55z"/>
					<path fill="#64A644" d="M14.4,43.55c0.399,0.601,0.3,1.7-0.101,2.3l-1.7,2.301c-0.399,0.6-1.1,0.899-1.399,0.6c0,0,0,0-0.3-0.3
						c-0.9-0.9-0.301-2.4-1.2-3.601c-1-1.3-2.5-1.199-2.9-2.3c-0.7-1.6-1.1-3.6-1.1-3.6C5.6,38.25,6.1,37.85,6.9,37.85h2.5
						c0.8,0,1.8,0.301,2.1,1L14.4,43.55z"/>
					<path fill="#64A644" d="M30.3,38.85c0.4-0.6,1.3-1,2.101-1h2.5c0.8,0,1.399,0.4,1.199,1.101c0,0-0.399,2.1-1.1,3.7
						c-0.4,1.1-1.9,0.899-2.9,2.3c-0.899,1.2-0.3,2.7-1.199,3.5c-0.301,0.3-0.301,0.2-0.301,0.2c-0.3,0.3-1,0-1.399-0.601l-1.7-2.3
						c-0.4-0.6-0.5-1.5-0.1-2.2L30.3,38.85z"/>
				</g>
				<g opacity="0.15">
					<path fill="#FFFFFF" d="M21.9,44.95H19c-0.8,0-1.8-0.601-2.1-1.2l-3.101-5.6c-0.399-0.601-0.399-1.7,0-2.4l3.101-5.6
						C17.3,29.55,18.2,28.85,19,28.85h2.9h2.3c0.8,0,1.8,0.601,2.1,1.301l3.101,5.5c0.399,0.6,0.399,1.699,0,2.399L26.3,43.65
						c-0.399,0.6-1.3,1.199-2.1,1.199L21.9,44.95"/>
					<path fill="#FFFFFF" d="M21.9,26.75H19c-0.8,0-1.9-0.2-2.4-0.8l-2.6-2.9c-0.5-0.6-0.7-1.1-0.6-1.2c0,0,0.1,0,0.3-0.1
						c2.399-1.6,3.7,1.2,8.1,1.2c3.601,0,5.4-2.7,7.8-1.101C29.8,21.95,29.7,21.95,29.7,21.95c0.2,0.1-0.101,0.7-0.601,1.3l-2.6,2.7
						c-0.5,0.6-1.6,0.8-2.4,0.8H21.9L21.9,26.75z"/>
					<path fill="#FFFFFF" d="M21.9,52.55c-1.5,0-2.5,0.5-3.801,0.101c-1.399-0.4-2.699-1-2.699-1c-0.7-0.4-0.9-1.101-0.5-1.801
						L16.8,47.45c0.4-0.601,1.5-1,2.3-1H22h2.2c0.8,0,1.8,0.399,2.3,1l1.9,2.5c0.399,0.6,0.199,1.399-0.4,1.7c0,0-1.1,0.699-2.5,1
						C24,52.95,22.6,52.55,21.9,52.55z"/>
					<path fill="#FFFFFF" d="M30.7,24.45c0.5-0.601,1-0.9,1.2-0.8c0,0,0,0,0.1,0.1c0.9,0.9,0.2,2.5,0.9,3.5c0.6,0.9,2.6,1.2,3,2.3
						c0.8,2,1.1,5.3,1.1,5.3c0.1,0.7-0.5,1.4-1.3,1.4H33.1c-0.8,0-1.699-0.6-2.1-1.3l-2.9-5.5c-0.3-0.7-0.199-1.7,0.301-2.3
						L30.7,24.45z"/>
					<path fill="#FFFFFF" d="M14.7,27.15c0.5,0.6,0.6,1.6,0.3,2.199l-2.9,5.601c-0.3,0.7-1.3,1.3-2.1,1.3H7.4
						c-0.801,0-1.4-0.7-1.301-1.4c0,0,0.301-3.199,1.101-5.199c0.399-1,2.399-1.4,3-2.301c0.7-1,0-2.699,0.899-3.5
						c0.101-0.1,0.101-0.1,0.101-0.1c0.1-0.1,0.7,0.2,1.2,0.8L14.7,27.15z"/>
					<path fill="#FFFFFF" d="M15,44.05c0.4,0.601,0.3,1.7-0.1,2.3l-1.7,2.301c-0.4,0.6-1.101,0.899-1.4,0.6c0,0,0,0-0.3-0.3
						c-0.9-0.9-0.3-2.4-1.2-3.601c-1-1.3-2.5-1.199-2.899-2.3c-0.7-1.6-1.101-3.6-1.101-3.6c-0.1-0.7,0.4-1.101,1.2-1.101H10
						c0.8,0,1.8,0.301,2.1,1L15,44.05z"/>
					<path fill="#FFFFFF" d="M30.9,39.35c0.399-0.6,1.3-1,2.1-1h2.5c0.8,0,1.4,0.4,1.2,1.101c0,0-0.4,2.1-1.101,3.7
						c-0.399,1.1-1.899,0.899-2.899,2.3c-0.9,1.2-0.3,2.7-1.2,3.5c-0.3,0.3-0.3,0.2-0.3,0.2c-0.3,0.3-1,0-1.4-0.601l-1.7-2.3
						c-0.399-0.6-0.5-1.5-0.1-2.2L30.9,39.35z"/>
				</g>
				<path fill="#538A3E" d="M21.3,53.15c0.7,0,2.2,0.8,3.5,0.5c2.8-0.7,5.3-2.101,7.4-4c1-0.9,0-2.301,1.3-3.801
					c1.8-2.199,2.9-1.699,3.5-3.1c0.9-2.2,1.4-4.7,1.4-7.2s-0.5-4.899-1.4-7c-0.5-1.2-2.6-1.7-3.3-2.8c-0.8-1.2-0.3-2.9-1.3-3.9
					c-0.101-0.1-0.101-0.1-0.101-0.1c-0.1-0.1-0.3-0.4-0.399-0.4c-0.101-0.1-1.101-1.1-1.7-1.5c-3.101-2.199-6.7,0.801-8.9,0.801
					c-2.899,0-6.1-2.9-9.2-0.801c-0.6,0.4-1.899,1.4-2,1.5c-0.1,0.101-0.3,0.301-0.5,0.4c0,0,0,0-0.1,0.1c-1,1-0.5,2.7-1.3,3.9
					c-0.7,1.1-2.8,1.6-3.3,2.8c-0.9,2.2-1.4,4.5-1.4,7c0,2.601,0.5,5,1.4,7.2c0.5,1.3,1.699,0.9,3.5,3.1
					c1.199,1.5,0.3,2.9,1.3,3.801c2.1,1.899,4.8,3.3,7.7,4C18.7,54.15,19.8,53.15,21.3,53.15z M21.3,44.45H18.4
					c-0.801,0-1.801-0.601-2.101-1.2l-3.1-5.6c-0.4-0.601-0.4-1.7,0-2.4l3.1-5.6c0.4-0.601,1.3-1.301,2.101-1.301H21.3h2.3
					c0.801,0,1.801,0.601,2.101,1.301l3.1,5.5c0.4,0.6,0.4,1.699,0,2.399l-3.1,5.601c-0.4,0.6-1.3,1.199-2.101,1.199L21.3,44.45
					 M21.3,26.15H18.4c-0.801,0-1.9-0.2-2.4-0.801l-2.6-2.899c-0.5-0.601-0.7-1.101-0.601-1.2c0,0,0.101,0,0.3-0.1
					c2.4-1.601,3.7,1.199,8.101,1.199c3.6,0,5.399-2.699,7.8-1.1c0.2,0.1,0.1,0.1,0.1,0.1c0.2,0.101-0.1,0.7-0.6,1.301l-2.6,2.8
					c-0.5,0.6-1.601,0.8-2.4,0.8L21.3,26.15L21.3,26.15z M21.3,51.95c-1.5,0-2.5,0.5-3.8,0.1c-1.4-0.399-2.7-1-2.7-1
					c-0.7-0.399-0.899-1.1-0.5-1.8l1.9-2.4c0.399-0.6,1.5-1,2.3-1h2.9H23.6c0.801,0,1.801,0.4,2.301,1l1.899,2.5
					c0.4,0.601,0.2,1.4-0.399,1.7c0,0-1.101,0.7-2.5,1C23.5,52.45,22,51.95,21.3,51.95z M30.1,23.85c0.5-0.6,1-0.899,1.2-0.8
					c0,0,0,0,0.101,0.101c0.899,0.899,0.199,2.5,0.899,3.5c0.601,0.899,2.601,1.199,3,2.3c0.8,2,1.101,5.3,1.101,5.3
					c0.1,0.7-0.5,1.4-1.301,1.4h-2.6c-0.8,0-1.7-0.601-2.1-1.301l-2.9-5.5c-0.3-0.699-0.2-1.699,0.3-2.3L30.1,23.85z M14.2,26.55
					c0.5,0.601,0.6,1.601,0.3,2.2l-2.9,5.6c-0.3,0.7-1.3,1.301-2.1,1.301H6.9c-0.801,0-1.4-0.7-1.301-1.4c0,0,0.301-3.2,1.101-5.2
					c0.399-1,2.399-1.399,3-2.3c0.7-1,0-2.7,0.899-3.5c0.101-0.1,0.101-0.1,0.101-0.1c0.1-0.101,0.7,0.199,1.2,0.8L14.2,26.55z
					 M14.4,43.55c0.399,0.601,0.3,1.7-0.101,2.3l-1.7,2.301c-0.399,0.6-1.1,0.899-1.399,0.6c0,0,0,0-0.3-0.3
					c-0.9-0.9-0.301-2.4-1.2-3.601c-1-1.3-2.5-1.199-2.9-2.3c-0.7-1.6-1.1-3.6-1.1-3.6C5.6,38.25,6.1,37.85,6.9,37.85h2.5
					c0.8,0,1.8,0.301,2.1,1L14.4,43.55z M30.3,38.85c0.4-0.6,1.3-1,2.101-1h2.5c0.8,0,1.399,0.4,1.199,1.101c0,0-0.399,2.1-1.1,3.7
					c-0.4,1.1-1.9,0.899-2.9,2.3c-0.899,1.2-0.3,2.7-1.199,3.5c-0.301,0.3-0.301,0.2-0.301,0.2c-0.3,0.3-1,0-1.399-0.601l-1.7-2.3
					c-0.4-0.6-0.5-1.5-0.1-2.2L30.3,38.85z"/>
			</g>
			<g id="eyes">
				<path id="eye_6_" fill="#FFFFFF" d="M24.5,5.55c0,0-0.8,1.4,0.4,2.7c1.199,1.3,2.6,0.5,2.6,0.5S26.5,6.65,24.5,5.55z"/>
				<path id="eye_7_" fill="#FFFFFF" d="M17.8,5.55c0,0,0.8,1.4-0.399,2.7c-1.2,1.3-2.601,0.5-2.601,0.5S15.8,6.65,17.8,5.55z"/>
				<path fill="#426932" d="M17.2,7.75c0.5-0.5,0.3-1.3,0-1.9c-0.8,0.5-1.4,1.2-1.8,1.801C15.9,7.95,16.7,8.15,17.2,7.75z"/>
				<path fill="#426932" d="M25.1,7.75c-0.5-0.5-0.3-1.3,0-1.9c0.801,0.5,1.4,1.2,1.801,1.801C26.3,7.95,25.6,8.15,25.1,7.75z"/>
			</g>
		</g>
	</g>
</g>
</svg>
