<?xml version="1.0" encoding="utf-8"?>
<!-- Generator: Adobe Illustrator 15.0.0, SVG Export Plug-In . SVG Version: 6.00 Build 0)  -->
<!DOCTYPE svg PUBLIC "-//W3C//DTD SVG 1.1//EN" "http://www.w3.org/Graphics/SVG/1.1/DTD/svg11.dtd">
<svg version="1.1" id="Layer_1" xmlns="http://www.w3.org/2000/svg" xmlns:xlink="http://www.w3.org/1999/xlink" x="0px" y="0px"
	 width="119px" height="99px" viewBox="0 0 119 99" enable-background="new 0 0 119 99" xml:space="preserve">
<path fill="#FAFAFA" stroke="#E4CBA9" stroke-miterlimit="10" d="M110.5,0.5c4.4,0,8,3.6,8,8v82c0,4.4-3.6,8-8,8H8.5
	c-4.4,0-8-3.6-8-8v-82c0-4.4,3.6-8,8-8H110.5z"/>
<circle fill="none" stroke="#ED2224" stroke-width="4" stroke-miterlimit="10" cx="62" cy="52" r="35"/>
<g id="Layer_3_2_">
	<g>
		<path fill="#8BC24C" d="M32.7,32L32.7,32c2.6,1.3,4.3,4.1,4.3,7.4c0,1.5-0.2,1.7-1,3.5c0,0-0.5,1.1-1.2,1.4l0,0l0,0
			c0,0-1,1.1,0.6,2.1c1.2,0.8-3.9,2.5-6.1,2.7c-2.2-0.2-7.5-1.9-6.3-2.7c1.6-1,0.4-2.1,0.4-2.1l0,0c-0.7-0.3-1.3-2-1.3-2
			c-0.4-1.1-0.8-1.9-0.8-3.4c0-3.3,1.7-5.8,4.3-7.1l0,0c0-0.4,2.3-1.5,3.6-1.5C30.6,30.5,32.7,31.6,32.7,32L32.7,32z M20,52.1
			c0,0-2.3-4.2-5.1-3.399c-2.8,0.8-3.1,2.7-3.1,4.3c0,2.3,2.4,3.7,2.4,3.7C15.6,54.1,20,52.1,20,52.1z M44,56.6
			c0,0,2.4-1.399,2.4-3.699c0-1.601-0.3-3.601-3.1-4.3c-2.8-0.8-5.1,3.4-5.1,3.4S42.5,54.1,44,56.6z M14.2,69.3
			c0,0-3.5,2.7-3.1,4.601c0.5,2.6,3.1,2.399,4.7,2.399c3.3-0.1,2.2-1.7,2.2-1.7S15.9,71.7,14.2,69.3z M40.1,74.5c0,0-1,1.6,2.2,1.7
			c1.6,0,4.3,0.2,4.7-2.4c0.3-1.8-3.1-4.6-3.1-4.6C42.2,71.7,40.1,74.5,40.1,74.5z M25.4,80.6c0,0,2.6,4.801,8.1,5.601
			c0.5,0.1,0.9-0.601,0.7-1c-1.8-2.8-1.6-4.601-1.6-4.601L29.3,79.4L25.4,80.6z"/>
		<path fill="#A3CF66" d="M23.9,43.8c-0.6-0.1-0.9-0.6-1.2-1.2c-1.2-2.9-1.3-4-1.1-4.3c1.5-1.8,2.6-0.3,4.4-2.8
			c1.3-1.8-0.2-2.7,0-2.8c0.3-0.2-0.1-0.7,0-0.8c1.2-0.8,3-1.1,3-1.1s1.8,0.2,3,1.1c0.1,0.1-0.3,0.6,0,0.8c0.2,0.2-1.3,1,0,2.8
			c1.8,2.5,2.9,0.9,4.4,2.8c0.2,0.4,0.2,1.4-1.1,4.3c-0.3,0.6-0.5,1-1.2,1.2c-1.7,0-3,1.1-5.2,1.1C26.9,44.8,25.6,43.8,23.9,43.8z
			 M29.1,48.4c2.2,0.1,6.3-0.8,5.2-1.7c-1.4-1.2,0-2.2-0.2-2.2c-1.7,0-2.1,1.2-5,1.2s-3.3-1.2-5-1.2c-0.2-0.1,1.1,1-0.2,2.2
			C22.8,47.7,26.9,48.5,29.1,48.4z M18.1,53.6c0.8-0.899,1.5-1.3,1.5-1.3s-2.8-4-4.7-3.1c-0.6,0.3-0.9,0.5-1.3,0.8L18.1,53.6z
			 M44.4,50.1c-0.3-0.3-0.6-0.5-1.2-0.8c-1.8-0.9-4.7,3.101-4.7,3.101s0.7,0.5,1.5,1.3L44.4,50.1z M14.7,70.7
			c-0.7-0.8,0,0.399-0.6-0.601c0,0-3.2,2.4-2.3,3.801c0.1,0.1,0.4,0.5,0.7,0.1L14.7,70.7z M45.6,74.1c0.4,0.4,0.6,0,0.7-0.1
			c0.9-1.4-2.3-3.8-2.3-3.8c-0.6,0.899,0.1-0.2-0.6,0.6L45.6,74.1z M28.2,82.9c1,1.199,3.9,2.699,4.4,2.5c0.3-0.101-2-1.101-3.2-2.4
			c-1.4-1.4-1.6-3.1-1.6-3.1l-1.3,0.3C26.6,80.2,27.4,81.9,28.2,82.9z"/>
		<g id="shell">
			<g>
				<path fill="#64A644" d="M29.3,71.5h-2.9c-0.8,0-1.8-0.6-2.1-1.2l-3.1-5.6c-0.4-0.601-0.4-1.7,0-2.4l3.1-5.6
					c0.4-0.601,1.3-1.3,2.1-1.3h2.9h2.3c0.8,0,1.8,0.6,2.1,1.3l3.1,5.5c0.4,0.6,0.4,1.7,0,2.399L33.7,70.2c-0.4,0.6-1.3,1.2-2.1,1.2
					L29.3,71.5"/>
				<path fill="#64A644" d="M29.3,53.2h-2.9c-0.8,0-1.9-0.2-2.4-0.8l-2.6-2.9c-0.5-0.6-0.7-1.1-0.6-1.2c0,0,0.1,0,0.3-0.1
					c2.4-1.6,3.7,1.2,8.1,1.2c3.6,0,5.4-2.7,7.8-1.1c0.2,0.1,0.1,0.1,0.1,0.1c0.2,0.1-0.1,0.7-0.6,1.3l-2.6,2.8
					c-0.5,0.6-1.6,0.8-2.4,0.8L29.3,53.2L29.3,53.2z"/>
				<path fill="#64A644" d="M29.3,79c-1.5,0-2.5,0.5-3.8,0.1c-1.4-0.399-2.7-1-2.7-1c-0.7-0.399-0.9-1.1-0.5-1.8l1.9-2.399
					c0.4-0.601,1.5-1,2.3-1h2.9h2.2c0.8,0,1.8,0.399,2.3,1l1.9,2.5C36.2,77,36,77.8,35.4,78.1c0,0-1.1,0.7-2.5,1
					C31.5,79.5,30,79,29.3,79z"/>
				<path fill="#64A644" d="M38.1,50.9c0.5-0.601,1-0.9,1.2-0.801c0,0,0,0,0.1,0.101c0.9,0.899,0.2,2.5,0.9,3.5
					c0.6,0.899,2.6,1.2,3,2.3c0.8,2,1.1,5.3,1.1,5.3c0.1,0.7-0.5,1.4-1.3,1.4h-2.6c-0.8,0-1.7-0.601-2.1-1.3l-2.9-5.5
					c-0.3-0.7-0.2-1.7,0.3-2.301L38.1,50.9z"/>
				<path fill="#64A644" d="M22.1,53.7c0.5,0.6,0.6,1.6,0.3,2.2l-2.9,5.6c-0.3,0.7-1.3,1.3-2.1,1.3h-2.6c-0.8,0-1.4-0.7-1.3-1.399
					c0,0,0.3-3.2,1.1-5.2c0.4-1,2.4-1.4,3-2.3c0.7-1,0-2.7,0.9-3.5c0.1-0.101,0.1-0.101,0.1-0.101c0.1-0.1,0.7,0.2,1.2,0.8
					L22.1,53.7z"/>
				<path fill="#64A644" d="M22.4,70.6c0.4,0.601,0.3,1.7-0.1,2.301l-1.7,2.3c-0.4,0.6-1.1,0.899-1.4,0.6c0,0,0,0-0.3-0.3
					c-0.9-0.9-0.3-2.4-1.2-3.6c-1-1.301-2.5-1.2-2.9-2.301C14.1,68,13.7,66,13.7,66c-0.1-0.7,0.4-1.1,1.2-1.1h2.5
					c0.8,0,1.8,0.3,2.1,1L22.4,70.6z"/>
				<path fill="#64A644" d="M38.3,65.9c0.4-0.601,1.3-1,2.1-1h2.5c0.8,0,1.4,0.399,1.2,1.1c0,0-0.4,2.1-1.1,3.7
					c-0.5,1.1-1.9,0.899-2.9,2.3c-0.9,1.2-0.3,2.7-1.2,3.5c-0.3,0.3-0.3,0.2-0.3,0.2c-0.3,0.3-1,0-1.4-0.601l-1.7-2.3
					c-0.4-0.6-0.5-1.5-0.1-2.2L38.3,65.9z"/>
			</g>
			<g opacity="0.15">
				<path fill="#FFFFFF" d="M29.8,72h-2.9c-0.8,0-1.8-0.6-2.1-1.2l-3.1-5.6c-0.4-0.601-0.4-1.7,0-2.4l3.1-5.6
					c0.4-0.601,1.3-1.3,2.1-1.3h2.9h2.3c0.8,0,1.8,0.6,2.1,1.3l3.1,5.5c0.4,0.6,0.4,1.7,0,2.399L34.2,70.7c-0.4,0.6-1.3,1.2-2.1,1.2
					L29.8,72"/>
				<path fill="#FFFFFF" d="M29.8,53.8h-2.9c-0.8,0-1.9-0.2-2.4-0.8l-2.6-2.9c-0.5-0.6-0.7-1.1-0.6-1.2c0,0,0.1,0,0.3-0.1
					c2.4-1.6,3.7,1.2,8.1,1.2c3.6,0,5.4-2.7,7.8-1.1c0.2,0.1,0.1,0.1,0.1,0.1c0.2,0.1-0.1,0.7-0.6,1.3l-2.6,2.8
					C33.9,53.7,32.8,53.9,32,53.9L29.8,53.8L29.8,53.8z"/>
				<path fill="#FFFFFF" d="M29.8,79.6c-1.5,0-2.5,0.5-3.8,0.101c-1.4-0.4-2.7-1-2.7-1c-0.7-0.4-0.9-1.101-0.5-1.8l1.9-2.4
					c0.4-0.6,1.5-1,2.3-1h2.9h2.2c0.8,0,1.8,0.4,2.3,1l1.9,2.5c0.4,0.6,0.2,1.4-0.4,1.7c0,0-1.1,0.7-2.5,1
					C32,80.1,30.6,79.6,29.8,79.6z"/>
				<path fill="#FFFFFF" d="M38.7,51.5c0.5-0.6,1-0.9,1.2-0.8c0,0,0,0,0.1,0.1c0.9,0.9,0.2,2.5,0.9,3.5c0.6,0.9,2.6,1.2,3,2.3
					c0.8,2,1.1,5.301,1.1,5.301c0.1,0.699-0.5,1.399-1.3,1.399H41c-0.8,0-1.7-0.6-2.1-1.3L36,56.5c-0.3-0.7-0.2-1.7,0.3-2.3
					L38.7,51.5z"/>
				<path fill="#FFFFFF" d="M22.7,54.2c0.5,0.6,0.6,1.6,0.3,2.2L20.1,62c-0.3,0.7-1.3,1.3-2.1,1.3h-2.6c-0.8,0-1.4-0.7-1.3-1.399
					c0,0,0.3-3.2,1.1-5.2c0.4-1,2.4-1.4,3-2.3c0.7-1,0-2.7,0.9-3.5c0.1-0.101,0.1-0.101,0.1-0.101c0.1-0.1,0.7,0.2,1.2,0.8
					L22.7,54.2z"/>
				<path fill="#FFFFFF" d="M23,71.2c0.4,0.6,0.3,1.7-0.1,2.3l-1.7,2.3c-0.4,0.601-1.1,0.9-1.4,0.601c0,0,0,0-0.3-0.301
					c-0.9-0.899-0.3-2.399-1.2-3.6c-1-1.3-2.5-1.2-2.9-2.3C14.7,68.6,14.3,66.6,14.3,66.6c-0.1-0.699,0.4-1.1,1.2-1.1H18
					c0.8,0,1.8,0.3,2.1,1L23,71.2z"/>
				<path fill="#FFFFFF" d="M38.9,66.4c0.4-0.601,1.3-1,2.1-1h2.5c0.8,0,1.4,0.399,1.2,1.1c0,0-0.4,2.1-1.1,3.7
					c-0.5,1.1-1.9,0.899-2.9,2.3c-0.9,1.2-0.3,2.7-1.2,3.5c-0.3,0.3-0.3,0.2-0.3,0.2c-0.3,0.3-1,0-1.4-0.601l-1.7-2.3
					c-0.4-0.6-0.5-1.5-0.1-2.2L38.9,66.4z"/>
			</g>
			<path fill="#538A3E" d="M29.3,80.4c0.7,0,2.2,0.8,3.5,0.5c2.8-0.7,5.3-2.101,7.4-4c1-0.9,0-2.301,1.3-3.801
				C43.3,70.9,44.4,71.4,45,70c0.9-2.2,1.4-4.7,1.4-7.2s-0.5-4.899-1.4-7c-0.5-1.2-2.6-1.7-3.3-2.8c-0.8-1.2-0.3-2.9-1.3-3.9
				C40.3,49,40.3,49,40.3,49c-0.1-0.1-0.3-0.4-0.4-0.4c-0.1-0.1-1.1-1.1-1.7-1.5c-3.1-2.2-6.7,0.8-8.9,0.8c-2.9,0-6.1-2.9-9.2-0.8
				c-0.6,0.4-1.9,1.4-2,1.5s-0.3,0.3-0.5,0.4c0,0,0,0-0.1,0.1c-1,1-0.5,2.7-1.3,3.9c-0.7,1.1-2.8,1.6-3.3,2.8
				c-0.9,2.2-1.4,4.5-1.4,7c0,2.601,0.5,5,1.4,7.2c0.5,1.3,1.7,0.9,3.5,3.1c1.2,1.5,0.3,2.9,1.3,3.801c2.1,1.899,4.8,3.3,7.7,4
				C26.7,81.2,27.8,80.4,29.3,80.4z M29.3,71.5h-2.9c-0.8,0-1.8-0.6-2.1-1.2l-3.1-5.6c-0.4-0.601-0.4-1.7,0-2.4l3.1-5.6
				c0.4-0.601,1.3-1.3,2.1-1.3h2.9h2.3c0.8,0,1.8,0.6,2.1,1.3l3.1,5.5c0.4,0.6,0.4,1.7,0,2.399L33.7,70.2c-0.4,0.6-1.3,1.2-2.1,1.2
				L29.3,71.5 M29.3,53.2h-2.9c-0.8,0-1.9-0.2-2.4-0.8l-2.6-2.9c-0.5-0.6-0.7-1.1-0.6-1.2c0,0,0.1,0,0.3-0.1
				c2.4-1.6,3.7,1.2,8.1,1.2c3.6,0,5.4-2.7,7.8-1.1c0.2,0.1,0.1,0.1,0.1,0.1c0.2,0.1-0.1,0.7-0.6,1.3l-2.6,2.8
				c-0.5,0.6-1.6,0.8-2.4,0.8L29.3,53.2L29.3,53.2z M29.3,79c-1.5,0-2.5,0.5-3.8,0.1c-1.4-0.399-2.7-1-2.7-1
				c-0.7-0.399-0.9-1.1-0.5-1.8l1.9-2.399c0.4-0.601,1.5-1,2.3-1h2.9h2.2c0.8,0,1.8,0.399,2.3,1l1.9,2.5C36.2,77,36,77.8,35.4,78.1
				c0,0-1.1,0.7-2.5,1C31.5,79.5,30,79,29.3,79z M38.1,50.9c0.5-0.601,1-0.9,1.2-0.801c0,0,0,0,0.1,0.101c0.9,0.899,0.2,2.5,0.9,3.5
				c0.6,0.899,2.6,1.2,3,2.3c0.8,2,1.1,5.3,1.1,5.3c0.1,0.7-0.5,1.4-1.3,1.4h-2.6c-0.8,0-1.7-0.601-2.1-1.3l-2.9-5.5
				c-0.3-0.7-0.2-1.7,0.3-2.301L38.1,50.9z M22.1,53.7c0.5,0.6,0.6,1.6,0.3,2.2l-2.9,5.6c-0.3,0.7-1.3,1.3-2.1,1.3h-2.6
				c-0.8,0-1.4-0.7-1.3-1.399c0,0,0.3-3.2,1.1-5.2c0.4-1,2.4-1.4,3-2.3c0.7-1,0-2.7,0.9-3.5c0.1-0.101,0.1-0.101,0.1-0.101
				c0.1-0.1,0.7,0.2,1.2,0.8L22.1,53.7z M22.4,70.6c0.4,0.601,0.3,1.7-0.1,2.301l-1.7,2.3c-0.4,0.6-1.1,0.899-1.4,0.6
				c0,0,0,0-0.3-0.3c-0.9-0.9-0.3-2.4-1.2-3.6c-1-1.301-2.5-1.2-2.9-2.301C14.1,68,13.7,66,13.7,66c-0.1-0.7,0.4-1.1,1.2-1.1h2.5
				c0.8,0,1.8,0.3,2.1,1L22.4,70.6z M38.3,65.9c0.4-0.601,1.3-1,2.1-1h2.5c0.8,0,1.4,0.399,1.2,1.1c0,0-0.4,2.1-1.1,3.7
				c-0.5,1.1-1.9,0.899-2.9,2.3c-0.9,1.2-0.3,2.7-1.2,3.5c-0.3,0.3-0.3,0.2-0.3,0.2c-0.3,0.3-1,0-1.4-0.601l-1.7-2.3
				c-0.4-0.6-0.5-1.5-0.1-2.2L38.3,65.9z"/>
		</g>
		<g id="eyes">
			<path id="eye_6_" fill="#FFFFFF" d="M32.5,32.6c0,0-0.8,1.4,0.4,2.7c1.2,1.3,2.6,0.5,2.6,0.5S34.5,33.7,32.5,32.6z"/>
			<path id="eye_7_" fill="#FFFFFF" d="M25.8,32.6c0,0,0.8,1.4-0.4,2.7c-1.2,1.3-2.6,0.5-2.6,0.5S23.8,33.7,25.8,32.6z"/>
			<path fill="#426932" d="M25.2,34.8c0.5-0.5,0.3-1.3,0.1-1.9c-0.8,0.5-1.4,1.2-1.8,1.8C23.9,35,24.7,35.4,25.2,34.8z"/>
			<path fill="#426932" d="M33,34.8c-0.5-0.5-0.3-1.3,0-1.9c0.8,0.5,1.4,1.2,1.8,1.8C34.3,35,33.6,35.4,33,34.8z"/>
		</g>
	</g>
</g>
</svg>
