<?xml version="1.0" encoding="utf-8"?>
<!-- Generator: Adobe Illustrator 15.0.0, SVG Export Plug-In . SVG Version: 6.00 Build 0)  -->
<!DOCTYPE svg PUBLIC "-//W3C//DTD SVG 1.1//EN" "http://www.w3.org/Graphics/SVG/1.1/DTD/svg11.dtd">
<svg version="1.1" id="Layer_1" xmlns="http://www.w3.org/2000/svg" xmlns:xlink="http://www.w3.org/1999/xlink" x="0px" y="0px"
	 width="35.85px" height="55.91px" viewBox="0 0 35.85 55.91" enable-background="new 0 0 35.85 55.91" xml:space="preserve">
<g id="Layer_3_2_">
	<g>
		<path fill="#8BC24C" d="M21.631,1.7L21.631,1.7c2.601,1.3,4.3,4.1,4.3,7.4c0,1.5-0.199,1.699-1,3.5c0,0-0.5,1.1-1.199,1.399l0,0
			l0,0c0,0-1,1.101,0.6,2.101c1.2,0.8-3.9,2.5-6.1,2.699c-2.2-0.199-7.5-1.899-6.301-2.699c1.601-1,0.4-2.101,0.4-2.101l0,0
			c-0.7-0.3-1.3-2-1.3-2c-0.4-1.1-0.8-1.899-0.8-3.399c0-3.301,1.699-5.801,4.3-7.101l0,0c0-0.399,2.3-1.5,3.6-1.5
			C19.532,0.101,21.532,1.3,21.631,1.7L21.631,1.7z M8.931,21.7c0,0-2.3-4.2-5.1-3.4c-2.8,0.801-3.1,2.7-3.1,4.301
			c0,2.3,2.399,3.699,2.399,3.699C4.532,23.8,8.931,21.7,8.931,21.7z M32.832,26.3c0,0,2.4-1.399,2.4-3.699
			c0-1.601-0.301-3.601-3.101-4.301c-2.8-0.8-5.1,3.4-5.1,3.4S31.431,23.8,32.832,26.3z M3.131,39c0,0-3.5,2.7-3.1,4.601
			c0.5,2.6,3.1,2.399,4.7,2.399c3.3-0.1,2.199-1.7,2.199-1.7S4.732,41.4,3.131,39z M28.931,44.2c0,0-1,1.6,2.2,1.7
			c1.601,0,4.3,0.2,4.7-2.4c0.3-1.8-3.1-4.6-3.1-4.6C31.131,41.4,28.931,44.2,28.931,44.2z M14.232,50.3c0,0,2.6,4.801,8.1,5.601
			c0.5,0.1,0.9-0.601,0.7-1c-1.8-2.8-1.601-4.601-1.601-4.601l-3.3-1.199L14.232,50.3z"/>
		<path fill="#A3CF66" d="M12.832,13.5c-0.6-0.1-0.9-0.6-1.2-1.2c-1.2-2.899-1.3-4-1.1-4.3c1.5-1.8,2.6-0.3,4.399-2.8
			c1.301-1.8-0.199-2.7,0-2.8c0.301-0.2-0.1-0.7,0-0.8c1.2-0.801,3-1.101,3-1.101s1.801,0.2,3,1.101c0.101,0.1-0.3,0.6,0,0.8
			c0.2,0.2-1.3,1,0,2.8c1.801,2.5,2.9,0.9,4.4,2.8c0.2,0.4,0.2,1.4-1.1,4.3c-0.301,0.601-0.5,1-1.2,1.2c-1.7,0-3,1.101-5.2,1.101
			C15.832,14.5,14.532,13.5,12.832,13.5z M18.032,18.101c2.2,0.1,6.3-0.801,5.2-1.7c-1.4-1.2,0-2.2-0.2-2.2c-1.7,0-2.101,1.2-5,1.2
			c-2.9,0-3.3-1.2-5-1.2c-0.2-0.1,1.1,1-0.2,2.2C11.631,17.3,15.832,18.2,18.032,18.101z M6.931,23.3c0.801-0.899,1.5-1.3,1.5-1.3
			s-2.8-4-4.699-3.1c-0.601,0.3-0.9,0.5-1.301,0.8L6.931,23.3z M33.332,19.7c-0.3-0.3-0.6-0.5-1.2-0.8c-1.8-0.9-4.7,3.1-4.7,3.1
			s0.7,0.5,1.5,1.3L33.332,19.7z M3.532,40.4c-0.7-0.8,0,0.399-0.601-0.601c0,0-3.199,2.4-2.3,3.801c0.101,0.1,0.4,0.5,0.7,0.1
			L3.532,40.4z M34.532,43.8c0.399,0.4,0.6,0,0.7-0.1c0.899-1.4-2.301-3.8-2.301-3.8c-0.6,0.899,0.101-0.2-0.6,0.6L34.532,43.8z
			 M17.131,52.601c1,1.199,3.9,2.699,4.4,2.5c0.3-0.101-2-1.101-3.2-2.4c-1.4-1.4-1.6-3.1-1.6-3.1l-1.301,0.3
			C15.532,49.9,16.232,51.601,17.131,52.601z"/>
		<g id="shell">
			<g>
				<path fill="#64A644" d="M18.131,41.2h-2.899c-0.801,0-1.801-0.6-2.101-1.2l-3.1-5.6c-0.4-0.601-0.4-1.7,0-2.4l3.1-5.6
					c0.4-0.601,1.3-1.3,2.101-1.3h2.899h2.3c0.801,0,1.801,0.6,2.101,1.3l3.1,5.5c0.4,0.6,0.4,1.7,0,2.399l-3.1,5.601
					c-0.4,0.6-1.3,1.2-2.101,1.2L18.131,41.2"/>
				<path fill="#64A644" d="M18.131,22.9h-2.899c-0.801,0-1.9-0.2-2.4-0.8l-2.6-2.9c-0.5-0.6-0.7-1.1-0.601-1.2c0,0,0.101,0,0.3-0.1
					c2.4-1.601,3.7,1.2,8.101,1.2c3.6,0,5.399-2.7,7.8-1.101c0.2,0.101,0.1,0.101,0.1,0.101c0.2,0.1-0.1,0.699-0.6,1.3l-2.6,2.8
					c-0.5,0.6-1.601,0.8-2.4,0.8L18.131,22.9L18.131,22.9z"/>
				<path fill="#64A644" d="M18.131,48.7c-1.5,0-2.5,0.5-3.8,0.1c-1.4-0.399-2.7-1-2.7-1c-0.7-0.399-0.899-1.1-0.5-1.8l1.9-2.399
					c0.399-0.601,1.5-1,2.3-1h2.9h2.199c0.801,0,1.801,0.399,2.301,1l1.899,2.5c0.4,0.6,0.2,1.399-0.399,1.699c0,0-1.101,0.7-2.5,1
					C20.332,49.2,18.931,48.7,18.131,48.7z"/>
				<path fill="#64A644" d="M26.931,20.601c0.5-0.601,1-0.9,1.2-0.801c0,0,0,0,0.101,0.101c0.899,0.899,0.199,2.5,0.899,3.5
					c0.601,0.899,2.601,1.2,3,2.3c0.8,2,1.101,5.3,1.101,5.3c0.1,0.7-0.5,1.4-1.301,1.4h-2.6c-0.8,0-1.7-0.601-2.1-1.3l-2.9-5.5
					c-0.3-0.7-0.2-1.7,0.3-2.301L26.931,20.601z"/>
				<path fill="#64A644" d="M11.032,23.3c0.5,0.601,0.6,1.601,0.3,2.2l-2.9,5.601c-0.3,0.699-1.3,1.3-2.1,1.3h-2.6
					c-0.801,0-1.4-0.7-1.301-1.4c0,0,0.301-3.2,1.101-5.2c0.399-1,2.399-1.399,3-2.3c0.7-1,0-2.7,0.899-3.5
					c0.101-0.1,0.101-0.1,0.101-0.1c0.1-0.101,0.7,0.2,1.2,0.8L11.032,23.3z"/>
				<path fill="#64A644" d="M11.232,40.3c0.399,0.601,0.3,1.7-0.101,2.301l-1.7,2.3c-0.399,0.6-1.1,0.899-1.399,0.6c0,0,0,0-0.3-0.3
					c-0.9-0.9-0.301-2.4-1.2-3.6c-1-1.301-2.5-1.2-2.9-2.301c-0.7-1.6-1.1-3.6-1.1-3.6c-0.101-0.7,0.399-1.1,1.2-1.1h2.5
					c0.8,0,1.8,0.3,2.1,1L11.232,40.3z"/>
				<path fill="#64A644" d="M27.232,35.601c0.399-0.601,1.3-1,2.1-1h2.5c0.8,0,1.4,0.399,1.2,1.1c0,0-0.4,2.1-1.101,3.7
					c-0.399,1.1-1.899,0.899-2.899,2.3c-0.9,1.2-0.3,2.7-1.2,3.5c-0.3,0.3-0.3,0.2-0.3,0.2c-0.3,0.3-1,0-1.4-0.601l-1.7-2.3
					c-0.399-0.6-0.5-1.5-0.1-2.2L27.232,35.601z"/>
			</g>
			<g opacity="0.15">
				<path fill="#FFFFFF" d="M18.732,41.7h-2.9c-0.8,0-1.8-0.6-2.1-1.2l-3.101-5.6c-0.399-0.601-0.399-1.7,0-2.4l3.101-5.6
					c0.399-0.601,1.3-1.3,2.1-1.3h2.9h2.3c0.8,0,1.8,0.6,2.1,1.3l3.101,5.5c0.399,0.6,0.399,1.7,0,2.399L23.131,40.4
					c-0.399,0.6-1.3,1.2-2.1,1.2L18.732,41.7"/>
				<path fill="#FFFFFF" d="M18.732,23.5h-2.9c-0.8,0-1.9-0.2-2.4-0.8l-2.6-2.9c-0.5-0.6-0.7-1.1-0.6-1.199c0,0,0.1,0,0.3-0.101
					c2.399-1.6,3.7,1.2,8.1,1.2c3.601,0,5.4-2.7,7.8-1.1c0.2,0.1,0.101,0.1,0.101,0.1c0.2,0.1-0.101,0.7-0.601,1.3l-2.6,2.8
					c-0.5,0.601-1.6,0.801-2.4,0.801L18.732,23.5L18.732,23.5z"/>
				<path fill="#FFFFFF" d="M18.732,49.3c-1.5,0-2.5,0.5-3.801,0.101c-1.399-0.4-2.699-1-2.699-1c-0.7-0.4-0.9-1.101-0.5-1.8
					l1.899-2.4c0.4-0.6,1.5-1,2.3-1h2.801h2.199c0.801,0,1.801,0.4,2.301,1l1.899,2.5c0.4,0.6,0.2,1.4-0.399,1.7
					c0,0-1.101,0.7-2.5,1C20.931,49.7,19.431,49.3,18.732,49.3z"/>
				<path fill="#FFFFFF" d="M27.532,21.2c0.5-0.6,1-0.9,1.2-0.8c0,0,0,0,0.1,0.1c0.9,0.9,0.2,2.5,0.9,3.5c0.6,0.9,2.6,1.2,3,2.3
					c0.8,2,1.1,5.301,1.1,5.301c0.1,0.699-0.5,1.399-1.3,1.399h-2.601c-0.8,0-1.699-0.6-2.1-1.3l-2.9-5.5
					c-0.3-0.7-0.199-1.7,0.301-2.3L27.532,21.2z"/>
				<path fill="#FFFFFF" d="M11.631,23.9c0.5,0.6,0.601,1.6,0.3,2.2l-2.899,5.6c-0.3,0.7-1.3,1.3-2.101,1.3h-2.6
					c-0.8,0-1.4-0.7-1.3-1.399c0,0,0.3-3.2,1.1-5.2c0.4-1,2.4-1.4,3-2.3c0.7-1,0-2.7,0.9-3.5c0.1-0.101,0.1-0.101,0.1-0.101
					c0.101-0.1,0.7,0.2,1.2,0.8L11.631,23.9z"/>
				<path fill="#FFFFFF" d="M11.832,40.9c0.4,0.6,0.3,1.7-0.1,2.3l-1.7,2.3c-0.4,0.601-1.101,0.9-1.4,0.601c0,0,0,0-0.3-0.301
					c-0.9-0.899-0.3-2.399-1.2-3.6c-1-1.3-2.5-1.2-2.899-2.3C3.532,38.3,3.131,36.3,3.131,36.3c-0.1-0.699,0.4-1.1,1.2-1.1h2.5
					c0.8,0,1.8,0.3,2.1,1L11.832,40.9z"/>
				<path fill="#FFFFFF" d="M27.832,36.101c0.4-0.601,1.3-1,2.1-1h2.5c0.801,0,1.4,0.399,1.2,1.1c0,0-0.399,2.1-1.1,3.7
					c-0.4,1.1-1.9,0.899-2.9,2.3c-0.899,1.2-0.3,2.7-1.2,3.5c-0.3,0.3-0.3,0.2-0.3,0.2c-0.3,0.3-1,0-1.399-0.601l-1.7-2.3
					c-0.4-0.6-0.5-1.5-0.101-2.2L27.832,36.101z"/>
			</g>
			<path fill="#538A3E" d="M18.131,50c0.7,0,2.2,0.8,3.5,0.5c2.8-0.7,5.3-2.1,7.4-4c1-0.899,0-2.3,1.3-3.8c1.8-2.2,2.9-1.7,3.5-3.1
				c0.9-2.2,1.4-4.7,1.4-7.2s-0.5-4.9-1.4-7c-0.5-1.2-2.6-1.7-3.3-2.8c-0.8-1.2-0.3-2.9-1.3-3.9c-0.101-0.1-0.101-0.1-0.101-0.1
				c-0.1-0.101-0.3-0.4-0.399-0.4c-0.101-0.1-1.101-1.1-1.7-1.5c-3.101-2.2-6.7,0.8-8.9,0.8c-2.899,0-6.1-2.899-9.2-0.8
				c-0.6,0.4-1.899,1.4-2,1.5c-0.1,0.1-0.3,0.3-0.5,0.4c0,0,0,0-0.1,0.1c-1,1-0.5,2.7-1.3,3.9c-0.7,1.1-2.8,1.6-3.3,2.8
				c-0.9,2.2-1.4,4.5-1.4,7c0,2.6,0.5,5,1.4,7.2c0.5,1.3,1.699,0.899,3.5,3.1c1.199,1.5,0.3,2.9,1.3,3.8c2.1,1.9,4.8,3.3,7.7,4
				C15.631,50.9,16.732,50,18.131,50z M18.131,41.2h-2.899c-0.801,0-1.801-0.6-2.101-1.2l-3.1-5.6c-0.4-0.601-0.4-1.7,0-2.4l3.1-5.6
				c0.4-0.601,1.3-1.3,2.101-1.3h2.899h2.3c0.801,0,1.801,0.6,2.101,1.3l3.1,5.5c0.4,0.6,0.4,1.7,0,2.399l-3.1,5.601
				c-0.4,0.6-1.3,1.2-2.101,1.2L18.131,41.2 M18.131,22.9h-2.899c-0.801,0-1.9-0.2-2.4-0.8l-2.6-2.9c-0.5-0.6-0.7-1.1-0.601-1.2
				c0,0,0.101,0,0.3-0.1c2.4-1.601,3.7,1.2,8.101,1.2c3.6,0,5.399-2.7,7.8-1.101c0.2,0.101,0.1,0.101,0.1,0.101
				c0.2,0.1-0.1,0.699-0.6,1.3l-2.6,2.8c-0.5,0.6-1.601,0.8-2.4,0.8L18.131,22.9L18.131,22.9z M18.131,48.7c-1.5,0-2.5,0.5-3.8,0.1
				c-1.4-0.399-2.7-1-2.7-1c-0.7-0.399-0.899-1.1-0.5-1.8l1.9-2.399c0.399-0.601,1.5-1,2.3-1h2.9h2.199c0.801,0,1.801,0.399,2.301,1
				l1.899,2.5c0.4,0.6,0.2,1.399-0.399,1.699c0,0-1.101,0.7-2.5,1C20.332,49.2,18.931,48.7,18.131,48.7z M26.931,20.601
				c0.5-0.601,1-0.9,1.2-0.801c0,0,0,0,0.101,0.101c0.899,0.899,0.199,2.5,0.899,3.5c0.601,0.899,2.601,1.2,3,2.3
				c0.8,2,1.101,5.3,1.101,5.3c0.1,0.7-0.5,1.4-1.301,1.4h-2.6c-0.8,0-1.7-0.601-2.1-1.3l-2.9-5.5c-0.3-0.7-0.2-1.7,0.3-2.301
				L26.931,20.601z M11.032,23.3c0.5,0.601,0.6,1.601,0.3,2.2l-2.9,5.601c-0.3,0.699-1.3,1.3-2.1,1.3h-2.6
				c-0.801,0-1.4-0.7-1.301-1.4c0,0,0.301-3.2,1.101-5.2c0.399-1,2.399-1.399,3-2.3c0.7-1,0-2.7,0.899-3.5
				c0.101-0.1,0.101-0.1,0.101-0.1c0.1-0.101,0.7,0.2,1.2,0.8L11.032,23.3z M11.232,40.3c0.399,0.601,0.3,1.7-0.101,2.301l-1.7,2.3
				c-0.399,0.6-1.1,0.899-1.399,0.6c0,0,0,0-0.3-0.3c-0.9-0.9-0.301-2.4-1.2-3.6c-1-1.301-2.5-1.2-2.9-2.301
				c-0.7-1.6-1.1-3.6-1.1-3.6c-0.101-0.7,0.399-1.1,1.2-1.1h2.5c0.8,0,1.8,0.3,2.1,1L11.232,40.3z M27.232,35.601
				c0.399-0.601,1.3-1,2.1-1h2.5c0.8,0,1.4,0.399,1.2,1.1c0,0-0.4,2.1-1.101,3.7c-0.399,1.1-1.899,0.899-2.899,2.3
				c-0.9,1.2-0.3,2.7-1.2,3.5c-0.3,0.3-0.3,0.2-0.3,0.2c-0.3,0.3-1,0-1.4-0.601l-1.7-2.3c-0.399-0.6-0.5-1.5-0.1-2.2L27.232,35.601z
				"/>
		</g>
		<g id="eyes">
			<path id="eye_6_" fill="#FFFFFF" d="M21.431,2.3c0,0-0.8,1.4,0.4,2.7s2.6,0.5,2.6,0.5S23.332,3.4,21.431,2.3z"/>
			<path id="eye_7_" fill="#FFFFFF" d="M14.631,2.3c0,0,0.8,1.4-0.399,2.7c-1.2,1.3-2.601,0.5-2.601,0.5S12.631,3.4,14.631,2.3z"/>
			<path fill="#426932" d="M14.131,4.5c0.5-0.5,0.3-1.3,0.101-1.899c-0.801,0.5-1.4,1.199-1.801,1.8
				C12.832,4.7,13.631,5.101,14.131,4.5z"/>
			<path fill="#426932" d="M21.931,4.5c-0.5-0.5-0.3-1.3,0-1.899c0.801,0.5,1.4,1.199,1.801,1.8C23.232,4.7,22.431,5.101,21.931,4.5
				z"/>
		</g>
	</g>
</g>
</svg>
