<?xml version="1.0" encoding="utf-8"?>
<!-- Generator: Adobe Illustrator 15.0.0, SVG Export Plug-In . SVG Version: 6.00 Build 0)  -->
<!DOCTYPE svg PUBLIC "-//W3C//DTD SVG 1.1//EN" "http://www.w3.org/Graphics/SVG/1.1/DTD/svg11.dtd">
<svg version="1.1" id="Layer_1" xmlns="http://www.w3.org/2000/svg" xmlns:xlink="http://www.w3.org/1999/xlink" x="0px" y="0px"
	 width="35.851px" height="55.91px" viewBox="0 0 35.851 55.91" enable-background="new 0 0 35.851 55.91" xml:space="preserve">
<g id="Layer_3_1_">
	<g>
		<path fill="#8BC24C" d="M14.219,54.21L14.219,54.21c-2.6-1.3-4.3-4.1-4.3-7.4c0-1.5,0.2-1.699,1-3.5c0,0,0.5-1.1,1.2-1.399l0,0
			l0,0c0,0,1-1.101-0.601-2.101c-1.2-0.8,3.9-2.5,6.101-2.699c2.199,0.199,7.5,1.899,6.3,2.699c-1.601,1-0.4,2.101-0.4,2.101l0,0
			c0.7,0.3,1.3,2,1.3,2c0.4,1.1,0.801,1.899,0.801,3.399c0,3.301-1.7,5.801-4.301,7.101l0,0c0,0.399-2.3,1.5-3.6,1.5
			C16.318,55.71,14.318,54.61,14.219,54.21L14.219,54.21z M26.919,34.11c0,0,2.3,4.199,5.1,3.399s3.101-2.7,3.101-4.3
			c0-2.3-2.4-3.7-2.4-3.7C31.318,32.11,26.919,34.11,26.919,34.11z M3.019,29.61c0,0-2.399,1.399-2.399,3.699
			c0,1.601,0.3,3.601,3.1,4.301c2.8,0.8,5.1-3.4,5.1-3.4S4.419,32.11,3.019,29.61z M32.719,16.91c0,0,3.5-2.7,3.1-4.601
			c-0.5-2.6-3.1-2.399-4.699-2.399c-3.301,0.1-2.2,1.7-2.2,1.7S31.119,14.51,32.719,16.91z M6.919,11.71c0,0,1-1.6-2.2-1.7
			c-1.6,0-4.3-0.2-4.7,2.4c-0.3,1.8,3.101,4.6,3.101,4.6C4.719,14.51,6.919,11.71,6.919,11.71z M21.619,5.61
			c0,0-2.601-4.801-8.101-5.601c-0.5-0.1-0.899,0.601-0.7,1c1.801,2.8,1.601,4.601,1.601,4.601l3.3,1.199L21.619,5.61z"/>
		<path fill="#A3CF66" d="M23.019,42.41c0.601,0.1,0.9,0.6,1.2,1.2c1.2,2.899,1.3,4,1.1,4.3c-1.5,1.8-2.6,0.3-4.399,2.8
			c-1.3,1.8,0.2,2.7,0,2.8c-0.3,0.2,0.1,0.7,0,0.8c-1.2,0.801-3,1.101-3,1.101s-1.8-0.2-3-1.101c-0.101-0.1,0.3-0.6,0-0.8
			c-0.2-0.2,1.3-1,0-2.8c-1.8-2.5-2.9-0.9-4.4-2.8c-0.2-0.4-0.2-1.4,1.101-4.3c0.3-0.601,0.5-1,1.199-1.2c1.7,0,3-1.101,5.2-1.101
			C20.019,41.41,21.318,42.41,23.019,42.41z M17.818,37.81c-2.199-0.1-6.3,0.801-5.199,1.7c1.399,1.2,0,2.2,0.199,2.2
			c1.7,0,2.101-1.2,5-1.2c2.9,0,3.301,1.2,5,1.2c0.2,0.1-1.1-1,0.2-2.2C24.219,38.51,20.019,37.71,17.818,37.81z M28.919,32.61
			c-0.8,0.899-1.5,1.3-1.5,1.3s2.8,4,4.7,3.1c0.6-0.3,0.899-0.5,1.3-0.8L28.919,32.61z M2.519,36.11c0.3,0.3,0.601,0.5,1.2,0.8
			c1.8,0.899,4.7-3.101,4.7-3.101s-0.7-0.5-1.5-1.3L2.519,36.11z M32.318,15.51c0.7,0.8,0-0.399,0.601,0.601c0,0,3.2-2.4,2.3-3.801
			c-0.1-0.1-0.4-0.5-0.7-0.1L32.318,15.51z M1.318,12.11c-0.399-0.4-0.6,0-0.699,0.1c-0.9,1.4,2.3,3.8,2.3,3.8
			c0.6-0.899-0.101,0.2,0.6-0.6L1.318,12.11z M18.719,3.31c-1-1.199-3.9-2.699-4.4-2.5c-0.3,0.101,2,1.101,3.2,2.4
			c1.4,1.4,1.601,3.1,1.601,3.1l1.3-0.3C20.318,6.01,19.619,4.31,18.719,3.31z"/>
		<g id="shell_1_">
			<g>
				<path fill="#64A644" d="M17.719,14.71h2.9c0.8,0,1.8,0.6,2.1,1.2l3.1,5.6c0.4,0.601,0.4,1.7,0,2.4l-3.1,5.6
					c-0.4,0.601-1.3,1.3-2.1,1.3h-2.9h-2.3c-0.8,0-1.8-0.6-2.101-1.3l-3.1-5.5c-0.4-0.6-0.4-1.7,0-2.399l3.1-5.601
					c0.4-0.6,1.301-1.2,2.101-1.2L17.719,14.71"/>
				<path fill="#64A644" d="M17.719,33.01h2.9c0.8,0,1.899,0.2,2.399,0.8l2.601,2.9c0.5,0.6,0.699,1.1,0.6,1.2c0,0-0.1,0-0.3,0.1
					c-2.4,1.601-3.7-1.2-8.101-1.2c-3.6,0-5.399,2.7-7.8,1.101c-0.2-0.101-0.1-0.101-0.1-0.101c-0.2-0.1,0.1-0.699,0.6-1.3
					l2.601-2.8c0.5-0.6,1.6-0.8,2.399-0.8L17.719,33.01L17.719,33.01z"/>
				<path fill="#64A644" d="M17.719,7.21c1.5,0,2.5-0.5,3.8-0.1c1.4,0.399,2.7,1,2.7,1c0.7,0.399,0.9,1.1,0.5,1.8l-1.9,2.399
					c-0.399,0.601-1.5,1-2.3,1h-2.899h-2.2c-0.8,0-1.8-0.399-2.3-1l-1.9-2.5c-0.4-0.6-0.2-1.399,0.4-1.699c0,0,1.1-0.7,2.5-1
					C15.519,6.71,16.919,7.21,17.719,7.21z"/>
				<path fill="#64A644" d="M8.919,35.31c-0.5,0.601-1,0.9-1.2,0.801c0,0,0,0-0.1-0.101c-0.9-0.899-0.2-2.5-0.9-3.5
					c-0.6-0.899-2.6-1.2-3-2.3c-0.8-2-1.1-5.3-1.1-5.3c-0.101-0.7,0.5-1.4,1.3-1.4h2.6c0.8,0,1.7,0.601,2.101,1.3l2.899,5.5
					c0.3,0.7,0.2,1.7-0.3,2.301L8.919,35.31z"/>
				<path fill="#64A644" d="M24.818,32.51c-0.5-0.6-0.6-1.6-0.3-2.2l2.9-5.6c0.3-0.7,1.3-1.3,2.1-1.3h2.601
					c0.8,0,1.399,0.7,1.3,1.399c0,0-0.3,3.2-1.101,5.2c-0.399,1-2.399,1.4-3,2.3c-0.699,1,0,2.7-0.899,3.5
					c-0.101,0.101-0.101,0.101-0.101,0.101c-0.1,0.1-0.699-0.2-1.199-0.8L24.818,32.51z"/>
				<path fill="#64A644" d="M24.519,15.61c-0.399-0.601-0.3-1.7,0.101-2.301l1.699-2.3c0.4-0.6,1.101-0.899,1.4-0.6c0,0,0,0,0.3,0.3
					c0.9,0.9,0.3,2.4,1.2,3.6c1,1.301,2.5,1.2,2.9,2.301c0.699,1.6,1.1,3.6,1.1,3.6c0.1,0.7-0.4,1.1-1.2,1.1h-2.5
					c-0.8,0-1.8-0.3-2.1-1L24.519,15.61z"/>
				<path fill="#64A644" d="M8.619,20.31c-0.4,0.601-1.301,1-2.101,1h-2.5c-0.8,0-1.399-0.399-1.2-1.1c0,0,0.4-2.1,1.101-3.7
					c0.399-1.1,1.899-0.899,2.899-2.3c0.9-1.2,0.301-2.7,1.2-3.5c0.3-0.3,0.3-0.2,0.3-0.2c0.301-0.3,1,0,1.4,0.601l1.7,2.3
					c0.399,0.6,0.5,1.5,0.1,2.2L8.619,20.31z"/>
			</g>
			<g opacity="0.15">
				<path fill="#FFFFFF" d="M17.119,14.21h2.899c0.8,0,1.8,0.6,2.101,1.2l3.1,5.6c0.4,0.601,0.4,1.7,0,2.4l-3.1,5.5
					c-0.4,0.6-1.301,1.3-2.101,1.3h-2.899h-2.301c-0.8,0-1.8-0.6-2.1-1.3l-3.1-5.5c-0.4-0.601-0.4-1.7,0-2.4l3.1-5.6
					c0.4-0.601,1.3-1.2,2.1-1.2H17.119"/>
				<path fill="#FFFFFF" d="M17.119,32.41h2.899c0.8,0,1.9,0.2,2.4,0.8l2.6,2.9c0.5,0.6,0.7,1.1,0.601,1.199
					c0,0-0.101,0-0.301,0.101c-2.399,1.6-3.699-1.2-8.1-1.2c-3.6,0-5.4,2.7-7.8,1.1c-0.2-0.1-0.101-0.1-0.101-0.1
					c-0.199-0.1,0.101-0.7,0.601-1.3l2.6-2.8c0.5-0.601,1.601-0.801,2.4-0.801L17.119,32.41L17.119,32.41z"/>
				<path fill="#FFFFFF" d="M17.119,6.61c1.5,0,2.5-0.5,3.8-0.101c1.399,0.4,2.7,1,2.7,1c0.699,0.4,0.899,1.101,0.5,1.8l-1.9,2.4
					c-0.4,0.6-1.5,1-2.3,1h-2.8h-2.2c-0.8,0-1.8-0.4-2.3-1l-1.9-2.5c-0.4-0.6-0.2-1.4,0.4-1.7c0,0,1.1-0.7,2.5-1
					C14.919,6.11,16.419,6.61,17.119,6.61z"/>
				<path fill="#FFFFFF" d="M8.318,34.71c-0.5,0.6-1,0.9-1.199,0.8c0,0,0,0-0.101-0.1c-0.899-0.9-0.2-2.5-0.899-3.5
					c-0.601-0.9-2.601-1.2-3-2.3c-0.801-2-1.101-5.301-1.101-5.301c-0.1-0.699,0.5-1.399,1.3-1.399h2.601c0.8,0,1.7,0.6,2.1,1.3
					l2.9,5.5c0.3,0.7,0.2,1.7-0.3,2.3L8.318,34.71z"/>
				<path fill="#FFFFFF" d="M24.219,32.01c-0.5-0.6-0.6-1.6-0.3-2.2l2.899-5.6c0.301-0.7,1.301-1.3,2.101-1.3h2.6
					c0.8,0,1.4,0.7,1.3,1.399c0,0-0.3,3.2-1.1,5.2c-0.4,1-2.4,1.4-3,2.3c-0.7,1,0,2.7-0.9,3.5c-0.1,0.101-0.1,0.101-0.1,0.101
					c-0.1,0.1-0.7-0.2-1.2-0.8L24.219,32.01z"/>
				<path fill="#FFFFFF" d="M24.019,15.01c-0.399-0.6-0.3-1.7,0.101-2.3l1.699-2.3c0.4-0.601,1.101-0.9,1.4-0.601c0,0,0,0,0.3,0.301
					c0.9,0.899,0.3,2.399,1.2,3.6c1,1.3,2.5,1.2,2.9,2.3c0.699,1.601,1.1,3.601,1.1,3.601c0.1,0.699-0.4,1.1-1.2,1.1h-2.5
					c-0.8,0-1.8-0.3-2.1-1L24.019,15.01z"/>
				<path fill="#FFFFFF" d="M8.019,19.81c-0.399,0.601-1.3,1-2.1,1h-2.5c-0.8,0-1.4-0.399-1.2-1.1c0,0,0.4-2.1,1.1-3.7
					c0.4-1.1,1.9-0.899,2.9-2.3c0.9-1.2,0.3-2.7,1.2-3.5c0.3-0.3,0.3-0.2,0.3-0.2c0.3-0.3,1,0,1.4,0.601l1.699,2.3
					c0.4,0.6,0.5,1.5,0.101,2.2L8.019,19.81z"/>
			</g>
			<path fill="#538A3E" d="M17.719,5.81c-0.7,0-2.2-0.8-3.5-0.5c-2.8,0.7-5.3,2.101-7.4,4c-1,0.9,0,2.301-1.3,3.801
				c-1.8,2.199-2.899,1.699-3.5,3.1c-0.899,2.2-1.399,4.7-1.399,7.2s0.5,4.899,1.399,7c0.5,1.2,2.601,1.7,3.3,2.8
				c0.801,1.2,0.301,2.9,1.301,3.9c0.1,0.1,0.1,0.1,0.1,0.1c0.1,0.1,0.3,0.4,0.4,0.4c0.1,0.1,1.1,1.1,1.699,1.5
				c3.101,2.199,6.7-0.801,8.9-0.801c2.9,0,6.1,2.9,9.2,0.801c0.6-0.4,1.899-1.4,2-1.5c0.1-0.101,0.3-0.301,0.5-0.4c0,0,0,0,0.1-0.1
				c1-1,0.5-2.7,1.3-3.9c0.7-1.1,2.801-1.6,3.301-2.8c0.899-2.2,1.399-4.5,1.399-7c0-2.601-0.5-5-1.399-7.2
				c-0.5-1.3-1.7-0.9-3.5-3.1c-1.2-1.5-0.301-2.9-1.301-3.801c-2.1-1.899-4.8-3.3-7.699-4C20.219,5.01,19.119,5.81,17.719,5.81z
				 M17.719,14.71h2.9c0.8,0,1.8,0.6,2.1,1.2l3.1,5.6c0.4,0.601,0.4,1.7,0,2.4l-3.1,5.6c-0.4,0.601-1.3,1.3-2.1,1.3h-2.9h-2.3
				c-0.8,0-1.8-0.6-2.101-1.3l-3.1-5.5c-0.4-0.6-0.4-1.7,0-2.399l3.1-5.601c0.4-0.6,1.301-1.2,2.101-1.2L17.719,14.71 M17.719,33.01
				h2.9c0.8,0,1.899,0.2,2.399,0.8l2.601,2.9c0.5,0.6,0.699,1.1,0.6,1.2c0,0-0.1,0-0.3,0.1c-2.4,1.601-3.7-1.2-8.101-1.2
				c-3.6,0-5.399,2.7-7.8,1.101c-0.2-0.101-0.1-0.101-0.1-0.101c-0.2-0.1,0.1-0.699,0.6-1.3l2.601-2.8c0.5-0.6,1.6-0.8,2.399-0.8
				L17.719,33.01L17.719,33.01z M17.719,7.21c1.5,0,2.5-0.5,3.8-0.1c1.4,0.399,2.7,1,2.7,1c0.7,0.399,0.9,1.1,0.5,1.8l-1.9,2.399
				c-0.399,0.601-1.5,1-2.3,1h-2.899h-2.2c-0.8,0-1.8-0.399-2.3-1l-1.9-2.5c-0.4-0.6-0.2-1.399,0.4-1.699c0,0,1.1-0.7,2.5-1
				C15.519,6.71,16.919,7.21,17.719,7.21z M8.919,35.31c-0.5,0.601-1,0.9-1.2,0.801c0,0,0,0-0.1-0.101c-0.9-0.899-0.2-2.5-0.9-3.5
				c-0.6-0.899-2.6-1.2-3-2.3c-0.8-2-1.1-5.3-1.1-5.3c-0.101-0.7,0.5-1.4,1.3-1.4h2.6c0.8,0,1.7,0.601,2.101,1.3l2.899,5.5
				c0.3,0.7,0.2,1.7-0.3,2.301L8.919,35.31z M24.818,32.51c-0.5-0.6-0.6-1.6-0.3-2.2l2.9-5.6c0.3-0.7,1.3-1.3,2.1-1.3h2.601
				c0.8,0,1.399,0.7,1.3,1.399c0,0-0.3,3.2-1.101,5.2c-0.399,1-2.399,1.4-3,2.3c-0.699,1,0,2.7-0.899,3.5
				c-0.101,0.101-0.101,0.101-0.101,0.101c-0.1,0.1-0.699-0.2-1.199-0.8L24.818,32.51z M24.519,15.61
				c-0.399-0.601-0.3-1.7,0.101-2.301l1.699-2.3c0.4-0.6,1.101-0.899,1.4-0.6c0,0,0,0,0.3,0.3c0.9,0.9,0.3,2.4,1.2,3.6
				c1,1.301,2.5,1.2,2.9,2.301c0.699,1.6,1.1,3.6,1.1,3.6c0.1,0.7-0.4,1.1-1.2,1.1h-2.5c-0.8,0-1.8-0.3-2.1-1L24.519,15.61z
				 M8.619,20.31c-0.4,0.601-1.301,1-2.101,1h-2.5c-0.8,0-1.399-0.399-1.2-1.1c0,0,0.4-2.1,1.101-3.7
				c0.399-1.1,1.899-0.899,2.899-2.3c0.9-1.2,0.301-2.7,1.2-3.5c0.3-0.3,0.3-0.2,0.3-0.2c0.301-0.3,1,0,1.4,0.601l1.7,2.3
				c0.399,0.6,0.5,1.5,0.1,2.2L8.619,20.31z"/>
		</g>
		<g id="eyes_1_">
			<path id="eye_2_" fill="#FFFFFF" d="M14.419,53.61c0,0,0.8-1.4-0.4-2.7s-2.6-0.5-2.6-0.5S12.519,52.51,14.419,53.61z"/>
			<path id="eye_1_" fill="#FFFFFF" d="M21.219,53.61c0,0-0.8-1.4,0.4-2.7c1.199-1.3,2.6-0.5,2.6-0.5S23.219,52.51,21.219,53.61z"/>
			<path fill="#426932" d="M21.719,51.41c-0.5,0.5-0.3,1.3-0.1,1.899c0.8-0.5,1.399-1.199,1.8-1.8
				C23.019,51.21,22.219,50.81,21.719,51.41z"/>
			<path fill="#426932" d="M13.919,51.41c0.5,0.5,0.3,1.3,0,1.899c-0.8-0.5-1.4-1.199-1.8-1.8
				C12.619,51.21,13.419,50.81,13.919,51.41z"/>
		</g>
	</g>
</g>
</svg>
