<?xml version="1.0" encoding="utf-8"?>
<!-- Generator: Adobe Illustrator 23.0.3, SVG Export Plug-In . SVG Version: 6.00 Build 0)  -->
<svg version="1.1" id="Layer_4" xmlns="http://www.w3.org/2000/svg" xmlns:xlink="http://www.w3.org/1999/xlink" x="0px" y="0px"
	 width="50px" height="40px" viewBox="0 0 50 40" enable-background="new 0 0 50 40" xml:space="preserve">
<g>
	<path fill="#6327D8" d="M0,0.1v40h50v-40H0z M37.6,29.1c-0.5-0.5-1.1-1-1.8-1.6c0-1.4,0.2-2.6,0.5-3.8c0.3,0.1,0.6,0.3,0.9,0.4
		C37.1,25.7,37.2,27.5,37.6,29.1z M37.4,22.6c0,0.2-0.1,0.5-0.1,0.7c-0.3-0.1-0.6-0.2-0.8-0.3c0.1-0.3,0.2-0.6,0.3-0.9l0,0
		c0.3-0.9,0.6-1.9,0.7-2.9h0.1C37.7,20.3,37.6,21.5,37.4,22.6z M36.1,21.9c-0.1,0.3-0.2,0.6-0.3,0.9c-0.3-0.1-0.5-0.3-0.8-0.4l0,0
		l0,0c0.7-1,1.4-2.2,1.8-3.3c0,0,0,0,0.1,0C36.8,20,36.6,20.9,36.1,21.9z M7.4,4.4L7.4,4.4C7,4,6.6,3.6,6.2,3.2h1
		c0.1,0.2,0.3,0.5,0.4,0.7c0.6,1,1.3,2.1,2.1,3C8.9,6.2,8,5.3,7.4,4.4z M9.4,7.4C8.4,6.8,7.6,6.3,6.8,5.6l0,0
		c-1-0.9-2.3-1.8-3.6-2.4h2.2c0.5,0.5,1,1,1.5,1.7C7.6,5.8,8.4,6.6,9.4,7.4z M8.2,3.7L8.2,3.7c0-0.2-0.1-0.4-0.2-0.5h0.7
		c0.4,1.1,0.8,2.3,1.5,3.3C9.5,5.6,8.9,4.6,8.2,3.7z M9.4,3.2h0.5v0.1c0.2,0.9,0.5,2,0.8,2.8C10.2,5.1,9.7,4.2,9.4,3.2z M10.6,3.2
		L10.6,3.2h0.5c0,0.9,0.1,1.8,0.2,2.7C10.9,5,10.7,4.1,10.6,3.2z M30.8,24.3c-0.3-0.3-0.7-0.6-1-0.9c0.7-0.7,1.5-1.5,2.3-2.2
		c0.2,0.2,0.5,0.4,0.7,0.5C32.1,22.5,31.4,23.3,30.8,24.3z M33.3,22.1c0.3,0.2,0.5,0.3,0.8,0.5c-0.6,0.9-1,2-1.5,3
		c-0.5-0.3-0.9-0.6-1.4-0.9C31.9,23.7,32.6,22.9,33.3,22.1z M25.2,20c-0.5,0.3-1.1,0.6-1.7,0.8c-0.7-0.8-1.6-1.7-2.4-2.4
		c-1.7-1.4-3-2.9-4.2-4.8c-0.5-0.8-1-1.7-1.7-2.4c0.8,0.6,1.6,1.5,2.2,2.2c1.5,1.8,3.2,3.2,5.3,4.4l0,0c0.9,0.5,1.9,1.1,2.7,1.9
		C25.4,19.9,25.3,20,25.2,20z M25.5,20.5L25.5,20.5c0.2-0.1,0.3-0.2,0.5-0.3c0.4,0.4,0.8,0.7,1.3,1.1c-0.5,0.4-0.9,0.7-1.5,1.1l0,0
		c-0.2,0.2-0.4,0.3-0.6,0.5c-0.4-0.6-0.8-1.2-1.2-1.8C24.5,21.1,25,20.8,25.5,20.5z M16.5,14.1L16.5,14.1c1.1,1.9,2.6,3.5,4.3,4.9
		l0,0c0.8,0.6,1.6,1.4,2.2,2.2c-0.8,0.3-1.8,0.6-2.7,0.8c-0.1-0.1-0.2-0.3-0.3-0.4l0,0c-1.6-1.9-2.8-3.9-3.5-6.2
		c-0.4-1.2-0.9-2.4-1.6-3.5C15.4,12.5,15.9,13.3,16.5,14.1z M15.7,15.5c0.7,2.4,2,4.6,3.6,6.4l0,0l0.1,0.1c-0.2,0-0.4,0.1-0.6,0.1
		c-0.3,0-0.5,0.1-0.8,0.1c-0.3-0.5-0.5-1.1-0.8-1.7l0,0c-1-1.8-1.8-3.7-2.2-5.8c-0.2-0.9-0.4-1.9-0.7-2.8
		C14.9,13.2,15.4,14.4,15.7,15.5z M19,22.9L19,22.9c0.3-0.1,0.6-0.1,0.9-0.2c0.6,0.8,1.2,1.8,1.8,2.7c-0.7,0.4-1.6,0.7-2.3,0.9
		c-0.2-1.1-0.6-2.3-1-3.3C18.5,23,18.8,22.9,19,22.9z M20.6,22.5c0.9-0.2,1.8-0.5,2.7-0.9c0.5,0.6,0.9,1.2,1.4,1.9
		c-0.7,0.6-1.6,1.1-2.4,1.6C21.8,24.3,21.2,23.3,20.6,22.5z M25,24.1c0.1,0.2,0.3,0.5,0.4,0.7l0,0c0.3,0.5,0.6,1.1,0.9,1.7
		c-0.8,0.8-1.7,1.6-2.6,2.2c0-0.1-0.1-0.2-0.1-0.3c-0.3-0.9-0.6-1.9-1-2.7C23.4,25.2,24.2,24.7,25,24.1z M25.9,24.6
		c-0.1-0.3-0.3-0.6-0.5-0.8c0.2-0.2,0.5-0.4,0.7-0.6l0,0c0.4-0.4,0.9-0.8,1.5-1.1c0.1,0.1,0.1,0.2,0.2,0.3c0.3,0.4,0.7,0.8,1,1.1
		c-0.3,0.4-0.6,0.7-0.9,1.1c-0.4,0.5-0.8,1-1.2,1.6C26.5,25.5,26.2,25.1,25.9,24.6z M28.5,24.9L28.5,24.9c0.3-0.3,0.5-0.7,0.8-1
		c0.3,0.3,0.7,0.6,1.1,0.9c-0.5,0.7-0.9,1.6-1.2,2.4c-0.2,0.4-0.4,0.8-0.6,1.2c-0.5-0.6-1-1.2-1.5-1.9C27.6,26,28.1,25.4,28.5,24.9z
		 M29.4,22.9c-0.3-0.3-0.7-0.7-1-1.1c-0.1-0.1-0.1-0.2-0.2-0.2c0.8-0.5,1.7-1,2.6-1.5c0.1,0.1,0.1,0.1,0.2,0.2l0,0
		c0.2,0.2,0.4,0.4,0.6,0.5C30.7,21.5,30,22.2,29.4,22.9z M27.7,21.1c-0.4-0.4-0.7-0.7-1.1-1.1c0.8-0.4,1.8-0.8,2.7-1
		c0.3,0.2,0.6,0.5,1,0.7C29.4,20.1,28.5,20.5,27.7,21.1z M26,19.6c-0.9-0.8-2-1.5-3-2.1l0,0c-2-1-3.6-2.5-5.1-4.3
		c-0.7-0.8-1.5-1.7-2.3-2.3c1,0.6,2,1.2,2.8,2c1.8,1.6,4,2.8,6.2,3.6c1.4,0.5,2.7,1.1,4,2C27.7,18.8,26.9,19.2,26,19.6z M15.3,6.9
		c1-0.8,2.3-1.6,3.5-2.2l0,0c0.9-0.4,1.9-1,2.8-1.7h1.2c-1.5,1-3.1,2-4.9,2.6l0,0C17.1,6.1,16.1,6.5,15.3,6.9z M18.5,4.2
		c-1.4,0.6-2.5,1.4-3.6,2.3c0.9-1,2.1-2.1,3.3-2.9c0.1-0.1,0.3-0.3,0.5-0.4h1.7C19.8,3.6,19.2,3.9,18.5,4.2z M14.4,6.2
		c0.6-0.9,1.4-1.9,2.1-2.7c0-0.1,0.1-0.2,0.2-0.3h1C16.5,4,15.3,5,14.4,6.2z M13.8,5.9c0.4-0.9,0.8-1.9,1.4-2.7h0.7
		C15.1,4,14.4,4.9,13.8,5.9z M13.1,5.8c0.2-0.9,0.4-1.8,0.7-2.6h0.5C14,4,13.5,4.8,13.1,5.8z M12.5,5.7c0-0.8,0.1-1.7,0.2-2.5h0.4
		C12.9,4,12.7,4.8,12.5,5.7z M11.9,12.5c-0.3,1.4-0.7,2.6-1.2,3.8l0,0c-1,2.4-1.7,4.9-1.7,7.5c0,0.8-0.1,1.6-0.2,2.4
		c-0.8,0.3-1.8,0.5-2.6,0.6c1-1.9,1.8-3.8,2.2-5.9l0,0c0.4-2.1,1.1-4.1,2.2-5.8C11,14.4,11.5,13.5,11.9,12.5z M11.7,3.2h0.4
		C12,4,11.9,4.8,11.9,5.8C11.8,4.8,11.7,4,11.7,3.2z M9.4,26.6c1-0.3,2-0.7,2.9-1.2c0.1,1.5-0.1,2.9-0.4,4.4
		c-0.1,0.3-0.1,0.6-0.2,0.9c-1.2,1-2.6,2-4.1,2.7c0.1-1,0.4-2.2,0.8-3.2C8.9,29,9.2,27.9,9.4,26.6z M12.1,15.9
		c-0.5,2.3-0.5,4.7-0.1,7.1l0,0c0.1,0.6,0.2,1.1,0.2,1.8c-0.8,0.5-1.8,0.9-2.7,1.2c0.1-0.7,0.1-1.5,0.1-2.2c0-2.5,0.5-5,1.6-7.3
		c0.6-1.2,1-2.6,1.4-4.1C12.4,13.8,12.3,14.9,12.1,15.9z M12.7,16.2L12.7,16.2c0.2-1.1,0.4-2.4,0.4-3.5c0.1,0.9,0.2,1.9,0.2,2.8
		c0,2.2,0.4,4.3,1.1,6.3l0,0c0.2,0.6,0.4,1.1,0.5,1.8c-0.7,0.3-1.6,0.6-2.3,1c0-0.5-0.1-1-0.2-1.6l0,0
		C12.2,20.6,12.2,18.3,12.7,16.2z M12.4,29.9L12.4,29.9c0.3-1.6,0.5-3.2,0.4-4.8c0.7-0.4,1.6-0.8,2.4-1.1c0.3,1.2,0.4,2.5,0.4,3.7
		c0,0.1,0,0.1,0,0.2c-1.1,0.6-2.2,1.4-3.2,2.1C12.4,30,12.4,30,12.4,29.9z M15.1,21.5c-0.7-2-1.1-4.1-1.1-6.1c0-0.9-0.1-2-0.2-2.9
		c0.3,0.8,0.5,1.8,0.7,2.7c0.4,2.1,1.1,4.2,2.3,6l0,0c0.3,0.5,0.5,0.9,0.8,1.5c-0.6,0.1-1.2,0.3-1.9,0.5
		C15.4,22.6,15.3,22,15.1,21.5z M17.7,23.1c0.5,1.1,0.8,2.3,1,3.4c-0.9,0.3-1.8,0.6-2.6,1c0-1.4-0.2-2.6-0.4-3.8
		C16.4,23.5,17.1,23.3,17.7,23.1z M19,27.2c0.1,0.3,0.1,0.6,0.1,0.9c0.1,1.4,0.4,2.6,0.8,3.8c-0.4,0.4-0.7,0.9-1,1.4l0,0
		c-0.3,0.5-0.7,0.9-1.1,1.5c-0.1-0.3-0.2-0.7-0.3-1l0,0c-0.6-1.8-1-3.6-1.1-5.5C17.1,27.9,18,27.5,19,27.2z M19.7,28.1L19.7,28.1
		c0-0.4-0.1-0.7-0.1-1.1c0.8-0.3,1.7-0.6,2.5-1c0.4,0.8,0.7,1.7,1,2.6c0.1,0.2,0.1,0.4,0.2,0.5c-1,0.7-1.9,1.6-2.8,2.4
		C20,30.4,19.8,29.2,19.7,28.1z M23.3,29.7c0.4,1.1,0.9,2.3,1.7,3.3c-0.9,0.9-1.8,2-2.4,3c-0.2-0.3-0.3-0.6-0.5-0.9l0,0
		c-0.5-0.9-1-2-1.5-3C21.5,31.2,22.4,30.4,23.3,29.7z M23.9,29.3c1-0.7,2-1.5,2.8-2.3c0.5,0.7,1,1.4,1.6,2c-0.7,1.4-1.7,2.5-2.8,3.6
		C24.8,31.5,24.3,30.5,23.9,29.3z M28.8,29.5c0.5,0.5,1,0.9,1.6,1.5l0,0c0.2,0.2,0.5,0.4,0.7,0.6c-0.4,1-0.9,2.1-1.6,3.1
		c-0.4,0.6-0.7,1.1-1,1.8c-0.3-0.5-0.7-1-1.1-1.5c-0.5-0.6-0.9-1.1-1.4-1.9C26.9,31.9,27.9,30.8,28.8,29.5z M30.6,30.4L30.6,30.4
		c-0.6-0.5-1.1-0.9-1.7-1.6c0.3-0.5,0.5-1,0.7-1.6l0,0c0.3-0.7,0.7-1.5,1.1-2.2c0.5,0.4,1,0.7,1.6,1c-0.3,0.7-0.5,1.6-0.6,2.4l0,0
		c-0.2,0.8-0.4,1.6-0.6,2.3C31,30.7,30.8,30.5,30.6,30.4z M32.4,28.6c0.1-0.7,0.3-1.5,0.6-2.2c0,0,0.1,0,0.1,0.1l0,0
		c0.7,0.4,1.4,0.8,2,1.4c0,0.1,0,0.2,0,0.3l0,0c0,2.1-0.3,4.1-0.9,5.9c-0.7-1-1.6-2-2.5-2.9C32,30.4,32.3,29.6,32.4,28.6z M33.4,26
		L33.4,26c-0.1,0-0.1-0.1-0.2-0.1c0.4-1,0.9-2.1,1.5-3c0.3,0.2,0.6,0.3,1,0.5c-0.3,1.2-0.5,2.5-0.5,3.7C34.6,26.8,34.1,26.3,33.4,26
		z M34.6,22L34.6,22C34.6,22.1,34.5,22.1,34.6,22c-0.3-0.1-0.5-0.2-0.7-0.4c0.9-0.9,1.8-1.9,2.4-2.9c0,0,0,0,0.1,0
		C35.8,19.9,35.2,21,34.6,22z M33.2,21.2C33.2,21.2,33.2,21.3,33.2,21.2c-0.2-0.1-0.5-0.3-0.7-0.5c0.2-0.1,0.3-0.2,0.5-0.3
		c0.8-0.6,1.7-1.2,2.5-2h0.1C34.9,19.5,34.2,20.4,33.2,21.2z M34.8,18.1c0,0,0.1,0,0.1,0.1c-0.7,0.6-1.5,1.2-2.2,1.8
		c-0.2,0.1-0.4,0.3-0.6,0.4c-0.2-0.2-0.5-0.4-0.7-0.6l0,0c0.2-0.1,0.3-0.1,0.5-0.2C32.9,19.2,33.9,18.8,34.8,18.1z M34.7,17.4
		c0.1,0,0.2-0.1,0.3-0.1C34.9,17.4,34.8,17.4,34.7,17.4C34.7,17.5,34.7,17.4,34.7,17.4z M31.7,19.1L31.7,19.1
		c-0.3,0.1-0.5,0.2-0.7,0.3c-0.3-0.2-0.6-0.5-0.8-0.7c0.5-0.1,1-0.2,1.5-0.3l0,0c0.8-0.1,1.7-0.3,2.4-0.6c0.1,0,0.2,0.1,0.2,0.1
		C33.3,18.3,32.5,18.8,31.7,19.1z M31.4,17.7c-0.7,0.1-1.4,0.3-2,0.5c-1.4-0.9-2.9-1.7-4.5-2.3l0,0c-2.2-0.8-4.3-2-6-3.5
		c-0.9-0.8-1.9-1.5-2.9-2.1c1.1,0.4,2.2,0.9,3.1,1.6c2.1,1.2,4.4,2.1,6.8,2.5l0,0c2.4,0.4,4.8,1.4,6.9,2.6c0.2,0.1,0.3,0.2,0.5,0.3
		C32.6,17.5,32,17.6,31.4,17.7z M15.6,7.4c0.8-0.4,1.7-0.8,2.6-1.1c2.1-0.7,4-1.8,5.6-3.1h5.5c-0.7,0.3-1.6,0.6-2.3,1l0,0
		c-2.2,1.2-4.7,2-7.3,2.3C18.4,6.7,17,7,15.6,7.4z M3.1,3.8C4.3,4.4,5.4,5.1,6.5,6l0,0c0.8,0.7,1.7,1.4,2.7,2
		c-1.3-0.4-2.4-1-3.4-1.7l0,0c-0.8-0.5-1.7-1-2.6-1.4V3.8z M3.1,5.6c0.7,0.3,1.6,0.7,2.3,1.2C6.6,7.5,7.7,8.1,9,8.6
		c-1.1-0.3-2.3-0.6-3.3-1C4.8,7.2,4,7,3.1,6.8V5.6z M3.1,7.4c0.7,0.2,1.5,0.4,2.2,0.7l0,0c1.1,0.4,2.3,0.8,3.5,1
		c-1.1,0-2.3-0.1-3.4-0.4C4.7,8.6,3.9,8.5,3.1,8.4V7.4z M3.1,9c0.7,0.1,1.5,0.2,2.2,0.3l0,0C6.6,9.5,7.7,9.7,9,9.7
		C7.7,9.9,6.4,10,5.1,9.9c-0.6,0-1.4,0-2,0V9z M3.1,10.5c0.6,0,1.4,0,2,0l0,0c1.4,0.1,2.7,0,4.1-0.2c-0.9,0.3-1.9,0.5-2.8,0.7
		c-1.1,0.1-2.2,0.4-3.2,0.7V10.5z M3.1,12.5c1-0.4,2.2-0.7,3.3-0.8c1-0.2,2-0.4,2.9-0.7c-1,0.5-2.1,1-3.2,1.4l0,0
		c-1,0.3-2.1,0.7-3,1.2V12.5z M3.1,14.1c1-0.5,2.1-1,3.2-1.4c1.1-0.4,2.3-0.8,3.3-1.5c-1.1,0.9-2.4,1.7-3.8,2.3
		c-0.9,0.5-1.9,1-2.8,1.7C3.1,15.2,3.1,14.1,3.1,14.1z M3.1,15.9c0.9-0.7,2-1.2,3-1.8l0,0c1.5-0.6,2.7-1.5,4-2.4
		c-0.7,0.7-1.5,1.5-2.3,2.2c-1.8,1.5-3.3,3.1-4.5,5.1l0,0c-0.1,0.1-0.1,0.2-0.2,0.4C3.1,19.5,3.1,15.9,3.1,15.9z M3.1,20.5
		c0.3-0.4,0.5-0.7,0.7-1.1l0,0c1.1-1.9,2.6-3.5,4.4-4.9c0.8-0.7,1.7-1.5,2.4-2.3c-0.5,0.8-1,1.6-1.7,2.3l0,0C7.5,16.2,6.5,18,5.6,20
		c-0.5,1.6-1.5,3.1-2.5,4.5C3.1,24.5,3.1,20.5,3.1,20.5z M3.1,25.5c1.4-1.6,2.4-3.4,3.1-5.4l0,0c0.7-2,1.8-3.7,3.2-5.3
		c0.6-0.7,1.2-1.6,1.8-2.4c-0.3,0.8-0.7,1.7-1.2,2.5c-1.1,1.9-1.9,3.8-2.3,6l0,0c-0.4,2.2-1.1,4.2-2.4,6.1c-0.1,0-0.1,0-0.2,0
		c-0.6,0.1-1.4,0.2-2,0.3V25.5z M3.1,28c0.6-0.1,1.1-0.2,1.8-0.3c-0.7,1.1-1.4,2.3-1.8,3.5V28z M3.1,33.3c0.5-2,1.4-3.7,2.4-5.4
		c0.1-0.1,0.1-0.2,0.2-0.2c1-0.1,2-0.4,2.9-0.6c-0.2,1-0.4,2.1-0.8,3c-0.4,1.2-0.8,2.5-0.9,3.8c-0.2,0.1-0.5,0.2-0.7,0.3l0,0
		c-1,0.4-2.1,0.9-3,1.5V33.3z M46.9,36.9H3.1v-0.7c1-0.6,2.1-1.1,3.2-1.7c0.1-0.1,0.3-0.1,0.4-0.2c-0.1,0.6-0.1,1.1-0.1,1.8
		c0,0.2,0,0.4,0,0.6h0.6c0-0.2,0-0.4,0-0.6c0-0.7,0-1.4,0.1-2.1c1.5-0.7,2.8-1.6,4.1-2.6c-0.2,1.8-0.1,3.4,0.2,5.2l0,0
		c0,0,0,0,0,0.1l0,0h0.5h0.1c0-0.1,0-0.1,0-0.2l0,0c-0.3-1.9-0.4-3.8-0.1-5.7c1-0.9,2.2-1.8,3.3-2.4c0.1,1.9,0.5,3.6,1.1,5.4l0,0
		c0.2,0.4,0.3,0.9,0.4,1.4c-0.5,0.5-1.1,1-1.7,1.6h0.9c0.3-0.3,0.6-0.5,0.9-0.8c0.1,0.3,0.1,0.5,0.2,0.8h0.6
		c-0.1-0.4-0.2-0.9-0.3-1.4c0.5-0.5,1-1.1,1.5-1.8c0.3-0.3,0.5-0.7,0.8-1c0.4,0.9,0.8,1.9,1.4,2.7l0,0c0.2,0.4,0.4,0.8,0.7,1.2
		c0,0.1-0.1,0.1-0.1,0.2h0.2h0.5H23c0-0.1-0.1-0.1-0.1-0.2c0.7-1.1,1.6-2.2,2.5-3.1c0.4,0.6,0.8,1.2,1.4,1.8l0,0
		c0.4,0.5,0.8,1,1.2,1.6h0.1h0.6h0.1c0.3-0.7,0.7-1.4,1.1-2c0.6-0.9,1.1-2,1.6-3c0.9,0.9,1.8,1.9,2.5,3c-0.2,0.6-0.4,1.4-0.6,2h0.6
		c0.1-0.4,0.2-0.9,0.4-1.4c0.1,0.1,0.1,0.2,0.2,0.3c0.2,0.3,0.4,0.7,0.6,1H36c-0.3-0.4-0.6-0.8-0.8-1.4c-0.1-0.2-0.3-0.5-0.4-0.7
		l0,0c0.8-2.1,1.1-4.3,1.1-6.4c0.7,0.6,1.5,1.2,2.1,2c0.4,2,0.4,3.9,0.1,5.8c0,0.2-0.1,0.5-0.1,0.7h0.5c0-0.2,0.1-0.4,0.1-0.7l0,0
		c0.2-1.7,0.2-3.4,0-5.1c0.9,0.9,2,1.9,3.1,2.6c0.3,1,0.5,2.1,0.6,3.1H43c-0.1-0.8-0.2-1.8-0.5-2.6c0.2,0.1,0.4,0.2,0.6,0.3l0,0
		c1.1,0.6,2.2,1.5,3.2,2.3L46.9,36.9L46.9,36.9z M38.3,19.4c0.1,0,0.1,0,0.2,0c0.3,1.4,0.5,2.7,0.5,3.9c0,0.2,0,0.4,0,0.6
		c-0.3-0.1-0.6-0.3-1-0.4c0-0.3,0.1-0.6,0.1-0.9l0,0C38.2,21.7,38.3,20.5,38.3,19.4z M38.2,18.5c0,0.1,0,0.1,0,0.2l0,0
		C38.2,18.6,38.2,18.6,38.2,18.5z M38.9,18.3c0.1,0.2,0.2,0.4,0.3,0.6h-0.1C39,18.8,38.9,18.5,38.9,18.3z M39,24.7
		c0.2,2.3,0.7,4.5,1.8,6.4l0,0c0.2,0.5,0.5,1,0.6,1.6c-1-0.8-2-1.7-2.9-2.7l-0.1-0.1c0-0.2-0.1-0.3-0.1-0.5l0,0
		c-0.4-1.8-0.5-3.5-0.4-5.3C38.2,24.4,38.6,24.6,39,24.7z M40.2,19.2c-0.1,0-0.2,0-0.3-0.1c-0.2-0.3-0.3-0.7-0.5-1
		C39.7,18.4,40,18.8,40.2,19.2z M39.8,17.6c0.8,0.6,1.6,1.2,2.2,2c-0.3-0.1-0.5-0.2-0.8-0.2C40.7,18.8,40.3,18.1,39.8,17.6z
		 M39.5,19.6c0.3,0.7,0.5,1.5,0.8,2.2c0.4,1.4,0.9,2.7,1.7,3.8c-0.7-0.5-1.6-0.9-2.3-1.4c0-0.3,0-0.6,0-0.9c0-1.2-0.1-2.6-0.4-3.8
		C39.3,19.6,39.4,19.6,39.5,19.6z M46.9,36.5c-1-0.9-2.2-1.8-3.4-2.5l0,0c-0.4-0.2-0.7-0.4-1.1-0.7c-0.3-0.8-0.6-1.7-0.9-2.5
		c-0.9-1.9-1.5-3.8-1.7-5.9c1.1,0.6,2.2,1.2,3.2,2.1c0.2,0.2,0.3,0.4,0.5,0.7l0,0c1.5,1.9,2.6,4.1,3.1,6.4c0.1,0.4,0.2,0.8,0.3,1.2
		V36.5z M46.9,33.2c-0.4-1.5-1.1-2.9-2-4.3c0.6,0.5,1.2,1,2,1.5V33.2z M46.9,29.7c-0.8-0.5-1.6-1.1-2.3-1.9
		c-0.4-0.4-0.8-0.7-1.2-1.1c-1-1.6-1.9-3.2-2.5-5.1l0,0c-0.2-0.6-0.4-1.2-0.6-1.9c0.2,0,0.4,0.1,0.5,0.1c0.4,0.5,0.7,1.1,1,1.8
		c1.1,2.2,2.7,4.2,4.6,5.8l0,0c0.2,0.1,0.3,0.3,0.5,0.4V29.7z M46.9,27.1L46.9,27.1c-2-1.7-3.4-3.5-4.6-5.7l0,0
		c-0.2-0.4-0.4-0.8-0.7-1.2c0.4,0.1,0.8,0.2,1.3,0.4c1.1,1.2,2.5,2.3,4.1,3.1V27.1z M46.9,22.9c-0.8-0.5-1.7-1.1-2.5-1.8
		c0.6,0.3,1.2,0.6,1.9,0.9c0.2,0.1,0.4,0.2,0.6,0.3C46.9,22.4,46.9,22.9,46.9,22.9z M46.9,21.8c-0.1,0-0.2-0.1-0.2-0.1
		c-1-0.6-2.2-1.1-3.4-1.7c-0.1-0.1-0.3-0.3-0.4-0.4l0,0c-0.8-0.9-1.7-1.7-2.6-2.4c1.2,0.6,2.4,1.4,3.4,2.2c1,0.8,2.1,1.5,3.2,2.1
		C46.9,21.5,46.9,21.8,46.9,21.8z M46.9,20.6c-1-0.5-2-1.1-2.8-1.9c-1.1-0.8-2.3-1.7-3.6-2.2c1.5,0.3,2.8,0.8,4.2,1.6
		c0.7,0.4,1.6,0.7,2.4,1L46.9,20.6L46.9,20.6z M46.9,18.4c-0.7-0.3-1.4-0.5-2.1-0.9c-2.3-1.1-4.7-1.9-7.3-2.1c-0.1,0-0.1,0-0.2,0
		l0,0c-1,0.6-2.2,1.1-3.3,1.6c-0.3-0.2-0.6-0.4-0.9-0.5l0,0c-2.2-1.4-4.6-2.3-7.1-2.7l0,0c-2.3-0.4-4.6-1.2-6.6-2.4
		c-1-0.6-2.2-1.1-3.3-1.6c1.5,0.3,2.9,0.7,4.3,1.4l0,0c2.5,1.1,5.3,1.8,8,1.8c2.2,0,4.3,0.3,6.4,1c2.1,0.7,4.3,1.1,6.6,1.1
		c2,0,3.9,0.3,5.7,0.8L46.9,18.4L46.9,18.4z M46.9,15.2c-1.9-0.5-3.8-0.8-5.7-0.8c-2.2,0-4.3-0.3-6.4-1c-2.1-0.7-4.3-1.1-6.6-1.1
		c-2.7,0-5.3-0.5-7.8-1.7c-1.5-0.6-2.9-1.1-4.5-1.4c1.2,0,2.6,0.2,3.8,0.4c2.5,0.5,5.1,0.6,7.6,0.2l0,0c2.3-0.4,4.7-0.3,7.1,0.1l0,0
		c2.4,0.5,4.9,0.5,7.3,0.1l0,0c1.7-0.3,3.3-0.3,5.1-0.2L46.9,15.2L46.9,15.2z M46.9,9.3c-1.8-0.2-3.4-0.1-5.2,0.2l0,0
		c-2.3,0.4-4.7,0.3-7.1-0.1c-2.4-0.5-4.9-0.5-7.3-0.1l0,0c-2.4,0.4-4.9,0.3-7.4-0.2c-1.4-0.3-2.6-0.4-4-0.5c1-0.1,2-0.2,3-0.2
		c2.2,0,4.5-0.4,6.6-1.1l0,0c2.5-0.9,5.2-1.2,7.9-1c2.8,0.2,5.5-0.1,8.2-1c1.8-0.6,3.5-0.9,5.3-1L46.9,9.3L46.9,9.3z M46.9,3.6
		c-1.9,0.1-3.8,0.4-5.5,1l0,0c-2.5,0.9-5.2,1.2-7.9,1l0,0c-2.8-0.2-5.5,0.1-8.2,1c-2,0.7-4.2,1-6.4,1c-1,0-2,0.1-3,0.2
		c1.4-0.4,2.7-0.7,4.1-0.8l0,0c2.7-0.3,5.2-1,7.5-2.4l0,0c1.2-0.6,2.6-1.1,3.9-1.6h15.6V3.6z"/>
</g>
</svg>
