<?xml version="1.0" encoding="utf-8"?>
<!-- Generator: Adobe Illustrator 23.0.3, SVG Export Plug-In . SVG Version: 6.00 Build 0)  -->
<svg version="1.1" id="Layer_1" xmlns="http://www.w3.org/2000/svg" xmlns:xlink="http://www.w3.org/1999/xlink" x="0px" y="0px"
	 width="50px" height="40px" viewBox="0 0 50 40" enable-background="new 0 0 50 40" xml:space="preserve">
<path fill="#6327D8" d="M23.9,2.4L23.9,2.4c-1.7,1.4-3.8,2.5-6,3.3c-1,0.3-1.8,0.8-2.7,1.2c1.4-0.4,2.9-0.8,4.5-1
	c2.7-0.2,5.3-1.1,7.6-2.4l0,0C28,3,28.9,2.6,29.8,2.3h2c-1.4,0.4-2.8,1-4.1,1.7l0,0c-2.4,1.3-5.1,2.2-7.8,2.5l0,0
	c-1.4,0.1-2.8,0.4-4.2,0.9c1.1-0.1,2.1-0.2,3.2-0.2c2.3,0,4.5-0.3,6.6-1.1C28,5.1,31,4.8,33.9,5l0,0c2.8,0.2,5.7-0.1,8.3-1.1l0,0
	C44,3.2,46,2.8,47.9,2.8v0.7c-2,0.1-3.8,0.4-5.5,1.1c-2.7,1-5.7,1.3-8.6,1.1c-2.8-0.2-5.7,0.1-8.3,1.1l0,0c-2.2,0.8-4.5,1.2-6.9,1.2
	c-1,0-2,0.1-2.9,0.2c1.4,0,2.8,0.2,4.1,0.5c2.5,0.5,5.1,0.7,7.7,0.2l0,0c2.5-0.4,5.1-0.4,7.6,0.1c2.4,0.5,4.9,0.5,7.4,0.1l0,0
	c1.7-0.3,3.6-0.3,5.4-0.2v0.7c-1.7-0.2-3.6-0.1-5.3,0.2l0,0c-2.5,0.4-5.1,0.4-7.6-0.1l0,0c-2.4-0.5-4.9-0.5-7.4-0.1l0,0
	c-2.6,0.4-5.3,0.3-7.9-0.2c-1.3-0.3-2.6-0.4-3.9-0.4c1.6,0.3,3.2,0.8,4.7,1.4c2.5,1.2,5.3,1.7,8.2,1.7c2.3,0,4.7,0.4,6.9,1.2
	c2.1,0.8,4.3,1.1,6.6,1.1c2.1,0,4,0.3,6,0.9v0.7c-2-0.7-3.9-0.9-6-0.9c-2.3,0-4.7-0.4-6.9-1.2c-2.1-0.8-4.3-1.1-6.6-1.1
	c-2.9,0-5.8-0.7-8.4-1.8l0,0c-1.4-0.7-2.9-1.1-4.5-1.4c1.2,0.4,2.4,1,3.5,1.6c2.1,1.3,4.5,2.2,6.9,2.5l0,0c2.6,0.4,5.1,1.4,7.4,2.8
	l0,0c0.3,0.2,0.7,0.4,1,0.5c1.2-0.4,2.4-1,3.5-1.6l0,0c0.1,0,0.1,0,0.2,0c2.6,0.2,5.2,1,7.6,2.2c0.7,0.3,1.4,0.7,2.2,1v0.7
	c-0.9-0.3-1.6-0.7-2.5-1.1c-1.4-0.7-2.8-1.2-4.3-1.6c1.3,0.7,2.6,1.4,3.8,2.3c1,0.8,2,1.4,2.9,2v0.8c-1.2-0.7-2.4-1.3-3.4-2.2
	c-1.1-0.9-2.3-1.6-3.6-2.2c1,0.8,2,1.6,2.7,2.5l0,0c0.1,0.1,0.3,0.3,0.4,0.4c1.2,0.4,2.4,1,3.6,1.7c0.1,0,0.2,0.1,0.2,0.1v0.8
	c-0.2-0.1-0.4-0.2-0.7-0.3c-0.7-0.3-1.3-0.8-2-1c0.8,0.7,1.6,1.3,2.6,1.8v0.8c-1.5-0.9-2.9-2-4.2-3.3c-0.4-0.1-0.9-0.3-1.3-0.4
	c0.2,0.4,0.5,0.9,0.8,1.3l0,0c1.1,2.3,2.7,4.2,4.7,5.9c0,0,0,0,0.1,0.1l0,0v0.3v0.5c-0.2-0.1-0.3-0.3-0.5-0.4l0,0
	c-2.1-1.7-3.7-3.8-4.8-6.1c-0.3-0.7-0.7-1.2-1.1-1.8c-0.2,0-0.4-0.1-0.5-0.1c0.2,0.7,0.5,1.3,0.7,2l0,0c0.5,1.8,1.4,3.7,2.6,5.3
	c0.4,0.3,0.9,0.8,1.3,1.2c0.8,0.8,1.5,1.4,2.4,2v0.8c-0.8-0.4-1.4-1-2.1-1.5c0.9,1.4,1.5,2.8,2.1,4.5v0.7l0,0V35v1.1
	c-0.1-0.4-0.2-0.9-0.3-1.3c-0.7-2.4-1.7-4.7-3.3-6.6l0,0c-0.2-0.2-0.3-0.4-0.5-0.8c-1-0.9-2.2-1.5-3.4-2.2c0.2,2.2,0.8,4.2,1.7,6.2
	c0.4,0.9,0.8,1.6,1,2.6c0.4,0.2,0.8,0.5,1.2,0.8l0,0c1.3,0.8,2.5,1.6,3.6,2.6v0.3h-0.5c-1-0.9-2.2-1.7-3.4-2.4l0,0
	c-0.2-0.1-0.4-0.2-0.7-0.3c0.2,0.9,0.4,1.8,0.5,2.7h-0.7c-0.1-1.1-0.3-2.2-0.7-3.3c-1.2-0.8-2.3-1.7-3.3-2.7c0.2,1.7,0.2,3.5,0,5.3
	l0,0c0,0.2-0.1,0.4-0.1,0.8h-0.7c0-0.2,0.1-0.5,0.1-0.8c0.3-2.1,0.2-4.1-0.1-6.1c-0.7-0.8-1.4-1.4-2.2-2.1c0,2.3-0.4,4.6-1.2,6.7
	l0,0c0.2,0.2,0.3,0.5,0.4,0.8c0.2,0.4,0.5,1,0.9,1.4h-0.8c-0.2-0.3-0.4-0.7-0.7-1.1c-0.1-0.1-0.1-0.2-0.2-0.3
	c-0.1,0.4-0.3,0.9-0.4,1.4h-0.8c0.2-0.8,0.3-1.4,0.7-2.1c-0.8-1.1-1.6-2.2-2.6-3.2c-0.4,1.1-1,2.1-1.6,3c-0.4,0.7-0.9,1.4-1.2,2.1
	h-0.1h-0.5l0,0h-0.1c-0.4-0.5-0.9-1.1-1.3-1.6l0,0c-0.5-0.5-1-1.2-1.4-1.8c-1,1-1.8,2.1-2.6,3.3c0,0.1,0.1,0.1,0.1,0.2h-0.2h-0.5
	h-0.2c0-0.1,0.1-0.1,0.1-0.2c-0.2-0.4-0.4-0.9-0.8-1.3l0,0c-0.5-0.9-1-1.8-1.4-2.8c-0.3,0.3-0.5,0.8-0.9,1.1c-0.4,0.7-1,1.3-1.5,1.8
	c0.1,0.4,0.2,1,0.3,1.4h-0.7c-0.1-0.3-0.1-0.5-0.2-0.9c-0.3,0.3-0.7,0.7-1,0.9h-1c0.7-0.5,1.2-1.1,1.7-1.6c-0.1-0.4-0.3-1-0.4-1.4
	l0,0c-0.7-1.8-1.1-3.7-1.2-5.7c-1.3,0.7-2.5,1.5-3.5,2.5c-0.3,2-0.3,4,0.1,6l0,0c0,0.1,0,0.1,0,0.2h-0.1h-0.5l0,0c0,0,0,0,0-0.1l0,0
	c-0.3-1.7-0.4-3.6-0.2-5.4c-1.3,1.1-2.7,2-4.2,2.6c-0.1,0.8-0.1,1.4-0.1,2.2c0,0.2,0,0.4,0,0.7H5.8c0-0.2,0-0.4,0-0.7
	c0-0.7,0-1.2,0.1-1.8c-0.1,0.1-0.3,0.1-0.4,0.2c-1.2,0.4-2.3,1-3.4,1.6v-0.8c1-0.5,2.1-1.1,3.2-1.5l0,0c0.2-0.1,0.5-0.2,0.8-0.3
	c0.2-1.4,0.5-2.7,1-4c0.4-1,0.7-2.1,0.9-3.2c-1,0.3-2.1,0.5-3,0.7C4.8,27.9,4.8,28,4.7,28c-1.2,1.7-2.1,3.7-2.5,5.7v-2.2
	C2.6,30.2,3.2,29,4,27.8c-0.7,0.1-1.3,0.2-1.8,0.3v-0.7c0.7,0.1,1.4-0.1,2.1-0.1c0.1,0,0.1,0,0.2,0c1.2-2,2.1-4.1,2.5-6.4l0,0
	c0.4-2.2,1.2-4.3,2.4-6.3c0.5-0.9,1-1.7,1.3-2.6c-0.5,0.9-1.2,1.7-1.8,2.5c-1.4,1.6-2.6,3.6-3.4,5.5l0,0c-0.8,2.1-1.8,3.9-3.3,5.5
	v-1c1.1-1.4,2.1-3,2.7-4.8c0.8-2.1,2-4,3.5-5.8l0,0c0.7-0.8,1.2-1.5,1.7-2.4c-0.8,0.9-1.6,1.6-2.5,2.4c-1.8,1.4-3.4,3.2-4.6,5.1l0,0
	c-0.2,0.4-0.5,0.9-0.8,1.2v-1.2c0.1-0.1,0.1-0.2,0.2-0.4l0,0c1.2-2.1,2.8-3.8,4.7-5.3c0.9-0.7,1.6-1.4,2.4-2.2
	c-1.3,1-2.6,1.8-4.1,2.5l0,0c-1.1,0.5-2.2,1.1-3.2,1.8v-0.8c1-0.7,2-1.2,2.9-1.6c1.4-0.7,2.7-1.4,3.9-2.4c-1.1,0.7-2.3,1.1-3.5,1.5
	c-1.3,0.4-2.4,0.9-3.5,1.5v-0.8c1-0.5,2.1-1,3.2-1.3l0,0c1.2-0.3,2.3-0.8,3.4-1.4c-1,0.3-2.1,0.5-3,0.8c-1.2,0.2-2.4,0.5-3.5,1v-0.7
	c1.1-0.4,2.2-0.7,3.4-0.9c1-0.2,2-0.4,2.9-0.8c-1.4,0.2-2.8,0.3-4.2,0.2l0,0c-0.7,0-1.4,0-2.1,0V9.4c0.7,0,1.4,0,2.1,0
	c1.3,0.1,2.7,0,4-0.2c-1.3,0-2.6-0.1-3.8-0.3l0,0C3.7,8.7,2.9,8.6,2.1,8.6V7.9C2.9,8,3.8,8.1,4.5,8.3c1.2,0.2,2.4,0.3,3.6,0.4
	C6.8,8.5,5.6,8.1,4.4,7.6l0,0C3.7,7.3,2.9,7.1,2.1,6.8V6.2C3,6.4,3.9,6.7,4.8,7.1C5.8,7.5,7,7.8,8.2,8C6.9,7.6,5.6,6.9,4.5,6.2
	C3.8,5.7,2.9,5.3,2.1,4.9V4.2c1,0.4,1.8,0.9,2.7,1.4l0,0C6,6.3,7.2,6.9,8.5,7.4c-1.1-0.5-2-1.2-2.8-2l0,0C4.5,4.6,3.3,3.8,2.1,3.1
	V2.4C3.6,3,4.9,3.9,6,4.9l0,0c0.9,0.8,1.7,1.4,2.7,2C7.7,6,6.8,5.1,6.1,4.1C5.5,3.5,5,2.9,4.4,2.4h0.9c0.4,0.4,0.9,0.9,1.2,1.4l0,0
	c0.8,1,1.6,1.7,2.5,2.6C8.2,5.3,7.6,4.3,6.9,3.2C6.8,2.9,6.6,2.7,6.5,2.4h0.8c0.1,0.2,0.2,0.3,0.3,0.5l0,0C8.1,4,8.9,5,9.7,5.9
	C8.9,4.8,8.3,3.6,8,2.4h0.7C9,3.5,9.5,4.6,10.1,5.5c-0.3-1-0.7-2-0.8-2.9c0-0.1,0-0.1,0-0.2h0.1H10l0,0c0,0,0,0,0,0.1
	c0.2,1,0.4,1.8,0.8,2.8c-0.1-1-0.2-2-0.2-2.8h0.7c0,0.9,0.1,1.8,0.2,2.7c0-0.9,0.1-1.8,0.2-2.7h0.2h0.3h0.1
	c-0.2,0.8-0.3,1.6-0.3,2.6c0.2-0.9,0.4-1.8,0.8-2.7h0.7c-0.3,0.9-0.5,1.8-0.8,2.7c0.4-1,0.9-1.8,1.4-2.7h0.8
	c-0.5,0.9-1.1,1.8-1.4,2.9c0.7-1,1.4-2,2.2-2.9l0,0h0.7h0.1c-0.1,0.1-0.2,0.2-0.3,0.3c-0.9,0.9-1.5,1.8-2.2,2.8
	c1.1-1.2,2.3-2.3,3.6-3.2l0,0l0,0l0,0h0.3h0.8c-0.2,0.2-0.5,0.3-0.8,0.5c-1.3,0.9-2.4,1.8-3.5,3c1.2-0.9,2.5-1.7,3.8-2.4
	c0.8-0.3,1.4-0.8,2.2-1.2h1.2c-0.9,0.7-1.8,1.2-2.9,1.7l0,0c-1.3,0.7-2.5,1.4-3.7,2.3c0.9-0.5,1.8-0.9,2.8-1.3l0,0
	c2-0.7,3.7-1.5,5.2-2.7h0.7H23.9z M18.8,11.5c-1.1-0.7-2.2-1.2-3.3-1.6c1.1,0.7,2.2,1.4,3,2.2c1.8,1.6,4,2.8,6.3,3.7l0,0
	c1.6,0.5,3.3,1.4,4.7,2.4c0.7-0.2,1.4-0.3,2.1-0.5c0.7-0.1,1.3-0.2,1.8-0.4c-0.2-0.1-0.3-0.2-0.5-0.3c-2.2-1.3-4.6-2.3-7.2-2.7l0,0
	C23.4,13.7,20.9,12.8,18.8,11.5z M35.1,17.3C35.1,17.3,35.1,17.4,35.1,17.3c0.1,0,0.2-0.1,0.3-0.1C35.3,17.3,35.2,17.3,35.1,17.3z
	 M38.8,18.7C38.8,18.7,38.9,18.7,38.8,18.7c0,0,0-0.1,0-0.2C38.8,18.6,38.8,18.6,38.8,18.7z M39.6,18.9h0.1
	c-0.1-0.2-0.2-0.4-0.3-0.7C39.5,18.5,39.6,18.7,39.6,18.9z M40.1,19.6c-0.1,0-0.2,0-0.3-0.1c0.3,1.3,0.4,2.7,0.4,4c0,0.3,0,0.7,0,1
	c0.9,0.4,1.6,0.9,2.4,1.4c-0.8-1.3-1.3-2.6-1.7-4C40.6,21.1,40.4,20.3,40.1,19.6z M39,19.3c-0.1,0-0.1,0-0.2,0c0,1.2,0,2.3-0.2,3.5
	l0,0c0,0.3-0.1,0.7-0.1,1c0.3,0.1,0.8,0.3,1.1,0.4c0-0.2,0-0.4,0-0.7C39.6,22.2,39.3,20.8,39,19.3z M38.3,19.1h-0.1
	c-0.2,1-0.4,2.1-0.8,3l0,0c-0.1,0.3-0.2,0.7-0.3,1c0.3,0.1,0.7,0.2,0.9,0.3c0-0.2,0.1-0.5,0.1-0.8C38.1,21.5,38.3,20.3,38.3,19.1z
	 M37.5,18.9C37.4,18.9,37.4,18.9,37.5,18.9c-0.5,1.2-1.2,2.4-2,3.5l0,0l0,0c0.3,0.1,0.5,0.3,0.9,0.4c0.1-0.3,0.2-0.7,0.3-1
	C37.1,21,37.3,20,37.5,18.9z M36.7,18.7L36.7,18.7c-0.8,1.1-1.6,2.1-2.6,3c0.2,0.1,0.5,0.3,0.8,0.4c0,0,0,0,0-0.1l0,0
	C35.6,21.1,36.3,19.9,36.7,18.7z M36.1,18.5C36.1,18.5,36,18.5,36.1,18.5c-0.9,0.8-1.7,1.4-2.6,2.1c-0.2,0.1-0.3,0.2-0.5,0.3
	c0.2,0.2,0.4,0.3,0.8,0.5l0,0C34.6,20.4,35.3,19.5,36.1,18.5z M35.3,18.1c0,0-0.1,0-0.1-0.1c-1,0.5-2,1.1-3,1.5
	c-0.2,0.1-0.3,0.1-0.5,0.2l0,0c0.2,0.2,0.5,0.4,0.8,0.7c0.2-0.1,0.4-0.3,0.7-0.4C33.9,19.5,34.7,18.8,35.3,18.1z M34.6,17.7
	c-0.1,0-0.2-0.1-0.2-0.1c-0.9,0.2-1.6,0.4-2.5,0.7l0,0c-0.5,0.1-1.1,0.2-1.5,0.3c0.3,0.2,0.7,0.4,0.9,0.8c0.2-0.1,0.5-0.2,0.8-0.3
	l0,0C32.8,18.7,33.7,18.3,34.6,17.7z M40.5,19c0.1,0,0.2,0,0.3,0.1c-0.3-0.4-0.7-0.8-1-1.2C40.2,18.4,40.3,18.7,40.5,19z M41.8,19.3
	c0.3,0.1,0.7,0.1,0.9,0.2c-0.7-0.8-1.5-1.4-2.3-2.1C41,18,41.4,18.7,41.8,19.3z M18.1,12.6c-0.9-0.8-1.8-1.5-2.9-2.1
	c0.9,0.8,1.7,1.5,2.4,2.4c1.5,1.7,3.3,3.3,5.3,4.3l0,0c1.1,0.7,2.2,1.3,3.2,2.2c0.9-0.4,1.7-0.8,2.6-1.1c-1.3-0.9-2.6-1.5-4.1-2
	C22.3,15.5,20,14.2,18.1,12.6z M31.2,20.2L31.2,20.2c-0.1-0.1-0.1-0.1-0.2-0.2c-1,0.4-1.8,1-2.7,1.5c0.1,0.1,0.1,0.2,0.2,0.2
	c0.3,0.4,0.7,0.8,1.1,1.2c0.8-0.8,1.5-1.5,2.4-2.2C31.6,20.6,31.4,20.4,31.2,20.2z M30.4,19.7c-0.3-0.3-0.7-0.5-1.1-0.8
	c-1,0.3-1.8,0.7-2.8,1.1c0.4,0.3,0.9,0.8,1.2,1.2C28.7,20.5,29.6,20.1,30.4,19.7z M37.8,24.2c-0.3-0.1-0.7-0.2-1-0.4
	c-0.3,1.3-0.5,2.7-0.5,4c0.7,0.5,1.3,1.1,1.8,1.6C37.7,27.7,37.6,26,37.8,24.2z M36.2,23.6c-0.3-0.1-0.7-0.3-1.1-0.5
	c-0.7,1-1.1,2.1-1.5,3.2c0.1,0,0.1,0.1,0.2,0.1l0,0c0.7,0.3,1.2,0.8,1.8,1.1C35.6,26.1,35.9,24.8,36.2,23.6z M34.6,22.7
	c-0.3-0.2-0.5-0.3-0.9-0.5c-0.8,0.8-1.5,1.7-2.2,2.6c0.4,0.3,1,0.7,1.4,1C33.5,24.8,34,23.7,34.6,22.7z M33.1,21.8
	c-0.2-0.2-0.5-0.3-0.8-0.5c-0.9,0.7-1.6,1.4-2.4,2.2c0.3,0.3,0.7,0.7,1.1,1C31.6,23.5,32.4,22.6,33.1,21.8z M39.6,24.9
	c-0.4-0.2-0.8-0.3-1.2-0.4c-0.1,1.8,0,3.7,0.4,5.4l0,0c0,0.2,0.1,0.3,0.1,0.5l0.1,0.1c0.9,1,2,2,3,2.8c-0.2-0.5-0.4-1.1-0.7-1.6l0,0
	C40.4,29.6,39.8,27.3,39.6,24.9z M17.2,13.4c-0.7-0.9-1.5-1.6-2.3-2.3c0.7,0.8,1.3,1.6,1.7,2.5c1.1,1.8,2.6,3.6,4.3,4.9
	c0.9,0.8,1.7,1.5,2.5,2.5c0.7-0.2,1.2-0.5,1.7-0.9c0.1-0.1,0.2-0.1,0.3-0.2c-0.9-0.8-1.8-1.4-2.8-2l0,0
	C20.5,16.7,18.7,15.2,17.2,13.4z M27.9,22.3c-0.1-0.1-0.1-0.2-0.2-0.3c-0.5,0.3-1,0.8-1.5,1.2l0,0c-0.2,0.2-0.4,0.4-0.8,0.7
	c0.2,0.3,0.3,0.7,0.5,0.9c0.2,0.5,0.5,1,0.9,1.5c0.4-0.5,0.9-1.1,1.3-1.6c0.3-0.4,0.7-0.8,1-1.2C28.7,23.1,28.4,22.7,27.9,22.3z
	 M27.3,21.5c-0.4-0.4-0.9-0.9-1.3-1.2c-0.2,0.1-0.3,0.2-0.5,0.3l0,0c-0.5,0.3-1.1,0.7-1.6,0.9c0.4,0.5,0.9,1.2,1.3,1.8
	c0.2-0.2,0.4-0.3,0.7-0.5l0,0C26.3,22.3,26.7,22,27.3,21.5z M33.5,26.8L33.5,26.8C33.5,26.8,33.4,26.7,33.5,26.8
	c-0.3,0.7-0.5,1.4-0.8,2.2c-0.2,1-0.4,1.8-0.8,2.7c1,0.9,1.8,2,2.6,3c0.7-2,1.1-4.1,1-6.2l0,0c0-0.1,0-0.2,0-0.3
	C34.9,27.7,34.2,27.2,33.5,26.8z M32.8,26.4c-0.5-0.3-1.1-0.7-1.6-1.1c-0.4,0.8-0.9,1.5-1.2,2.3l0,0c-0.2,0.5-0.5,1.1-0.8,1.6
	c0.5,0.5,1.1,1.1,1.7,1.6l0,0c0.2,0.1,0.3,0.3,0.5,0.4c0.3-0.8,0.5-1.6,0.7-2.4l0,0C32.3,28,32.5,27.3,32.8,26.4z M30.6,25
	c-0.4-0.3-0.8-0.7-1.2-1c-0.3,0.3-0.5,0.8-0.9,1.1l0,0c-0.3,0.5-0.9,1.2-1.4,1.7c0.4,0.7,1,1.3,1.5,2c0.2-0.4,0.4-0.9,0.7-1.3
	C29.8,26.5,30.2,25.8,30.6,25z M16.1,13.8L16.1,13.8c-0.5-0.9-1.1-1.6-1.7-2.4c0.7,1.2,1.2,2.4,1.6,3.7c0.8,2.4,2,4.6,3.7,6.5l0,0
	c0.1,0.1,0.2,0.2,0.3,0.4c1-0.2,1.8-0.5,2.8-0.9c-0.8-0.8-1.5-1.5-2.3-2.3l0,0C18.7,17.5,17.2,15.8,16.1,13.8z M25.4,25L25.4,25
	c-0.1-0.2-0.3-0.5-0.4-0.8c-0.8,0.7-1.6,1.2-2.6,1.6c0.4,0.9,0.8,1.8,1.1,2.8c0,0.1,0.1,0.2,0.1,0.3c1-0.7,2-1.5,2.7-2.3
	C26.1,26.2,25.7,25.7,25.4,25z M24.7,23.7c-0.4-0.7-0.9-1.4-1.4-2c-0.9,0.4-1.8,0.7-2.8,1c0.7,0.9,1.2,1.7,1.7,2.7
	C23,24.9,23.9,24.3,24.7,23.7z M30.5,31.3L30.5,31.3c-0.5-0.4-1.1-1-1.6-1.5c-0.9,1.4-1.8,2.7-3,3.8c0.4,0.7,1,1.3,1.4,2
	c0.4,0.4,0.9,1,1.2,1.5c0.3-0.7,0.7-1.3,1.1-1.8c0.7-1,1.2-2.1,1.6-3.3C31,31.7,30.8,31.5,30.5,31.3z M28.4,29.3
	c-0.5-0.7-1.1-1.3-1.6-2.1c-0.9,0.9-1.8,1.7-2.9,2.4c0.4,1.2,1,2.3,1.6,3.4C26.6,32,27.6,30.8,28.4,29.3z M15.3,15.4
	c-0.4-1.2-0.9-2.4-1.5-3.6c0.3,1,0.7,2,0.8,2.9c0.4,2.2,1.2,4.1,2.3,6.1l0,0c0.3,0.5,0.7,1.1,0.9,1.7c0.3-0.1,0.5-0.1,0.9-0.1
	c0.2,0,0.4-0.1,0.7-0.1l-0.1-0.1l0,0C17.4,20.1,16.2,17.8,15.3,15.4z M22.9,28.9c-0.3-1-0.7-1.8-1.1-2.7c-0.9,0.4-1.7,0.8-2.6,1.1
	c0.1,0.3,0.1,0.8,0.1,1.2l0,0c0.1,1.2,0.4,2.4,0.8,3.6c0.9-0.9,1.8-1.7,2.9-2.5C23,29.3,22.9,29.1,22.9,28.9z M21.5,25.7
	c-0.5-1-1.1-2-1.8-2.8c-0.3,0.1-0.7,0.1-1,0.2l0,0c-0.2,0-0.4,0.1-0.7,0.1c0.4,1.1,0.9,2.3,1.1,3.5C20,26.4,20.7,26,21.5,25.7z
	 M25,33.6c-0.7-1.1-1.3-2.3-1.7-3.5c-1.1,0.8-2,1.6-2.8,2.5c0.4,1.1,0.9,2.1,1.5,3l0,0c0.2,0.3,0.3,0.7,0.5,1
	C23.1,35.5,24,34.6,25,33.6z M13.9,14.9c-0.2-1-0.4-1.8-0.8-2.8c0.2,1,0.2,2.1,0.2,3c0,2.2,0.4,4.3,1.2,6.3c0.2,0.5,0.4,1.2,0.5,1.8
	c0.7-0.2,1.3-0.4,2-0.5c-0.2-0.5-0.5-1.1-0.9-1.5l0,0C15.1,19.2,14.3,17.1,13.9,14.9z M18.8,28.5c0-0.3-0.1-0.7-0.1-1
	c-1,0.3-2,0.7-2.8,1.2c0.1,2,0.4,3.9,1.2,5.8l0,0c0.1,0.3,0.2,0.7,0.3,1.1c0.4-0.4,0.9-1,1.2-1.5l0,0c0.3-0.5,0.8-1,1.1-1.4
	C19.2,31.2,18.9,29.9,18.8,28.5z M18.6,26.8c-0.2-1.2-0.7-2.4-1.1-3.6c-0.7,0.2-1.4,0.3-2.1,0.7c0.3,1.3,0.4,2.7,0.4,4
	C16.7,27.5,17.6,27.2,18.6,26.8z M12.8,15.1c0-1-0.1-2-0.2-2.8c0,1.2-0.2,2.5-0.4,3.7l0,0c-0.5,2.3-0.5,4.8-0.1,7.1l0,0
	c0.1,0.5,0.2,1.1,0.2,1.6c0.8-0.4,1.5-0.8,2.4-1.1c-0.1-0.7-0.3-1.2-0.5-1.8l0,0C13.2,19.6,12.8,17.4,12.8,15.1z M15.2,28
	c0-1.3-0.1-2.6-0.4-3.9c-0.9,0.3-1.6,0.8-2.5,1.2c0.1,1.7,0,3.4-0.4,5l0,0v0.1c1-0.9,2.2-1.6,3.4-2.2C15.2,28.2,15.2,28.2,15.2,28z
	 M11.5,15.8c0.2-1.2,0.4-2.3,0.4-3.5c-0.3,1.4-0.8,2.8-1.4,4.1c-1.1,2.4-1.6,5-1.6,7.5c0,0.8,0,1.5-0.1,2.3c1-0.3,2-0.8,2.8-1.3
	c0-0.7-0.1-1.2-0.2-1.8l0,0C11,20.8,11,18.3,11.5,15.8z M11.2,30.2c0.3-1.5,0.4-3,0.4-4.6c-1,0.5-2,1-3,1.3c-0.2,1.2-0.5,2.4-1,3.6
	c-0.4,1.1-0.8,2.3-0.9,3.5c1.5-0.8,3-1.7,4.2-2.8C11.1,30.9,11.2,30.5,11.2,30.2z M10,16.2L10,16.2c0.5-1.3,1-2.6,1.3-4
	c-0.3,1-0.9,1.8-1.3,2.7c-1.1,1.8-1.8,3.9-2.3,6.1l0,0c-0.4,2.2-1.2,4.2-2.3,6.2c1-0.1,1.8-0.4,2.7-0.7c0.1-0.9,0.2-1.6,0.2-2.5
	C8.2,21.3,8.8,18.7,10,16.2z"/>
<path fill="#6327D8" d="M50,40H0V0h50V40z M1,39h48V1H1V39z"/>
</svg>
