<?xml version="1.0" encoding="utf-8"?>
<!-- Generator: Adobe Illustrator 23.0.3, SVG Export Plug-In . SVG Version: 6.00 Build 0)  -->
<svg version="1.1" id="Layer_1" xmlns="http://www.w3.org/2000/svg" xmlns:xlink="http://www.w3.org/1999/xlink" x="0px" y="0px"
	 width="50px" height="40px" viewBox="0 0 50 40" enable-background="new 0 0 50 40" xml:space="preserve">
<path fill="none" stroke="#6327D8" stroke-width="0.75" stroke-linecap="round" stroke-linejoin="round" stroke-miterlimit="10" d="
	M28.3,38.8c0-3,2.4-5.4,5.4-5.4c1.3,0,2.5,0.5,3.5,1.3c-1.5-2.6-0.6-5.9,2-7.4c1.1-0.6,2.4-0.9,3.7-0.6c-2.6-1.5-3.5-4.8-2-7.4
	c0.6-1.1,1.6-2,2.8-2.4c-3,0-5.4-2.4-5.4-5.4c0-1.3,0.5-2.5,1.3-3.5c-2.6,1.5-5.9,0.6-7.4-2c-0.6-1.1-0.9-2.4-0.6-3.7
	c-1.5,2.6-4.8,3.5-7.4,2c-1.1-0.6-2-1.6-2.4-2.8c0,3-2.4,5.4-5.4,5.4c-1.3,0-2.5-0.5-3.5-1.3c1.5,2.6,0.6,5.9-2,7.4
	c-1.1,0.6-2.4,0.9-3.7,0.6c2.6,1.5,3.5,4.8,2,7.4c-0.6,1.1-1.6,2-2.8,2.4c3,0,5.4,2.4,5.4,5.4c0,1.3-0.5,2.5-1.3,3.5
	c2.6-1.5,5.9-0.6,7.4,2c0.6,1.1,0.9,2.4,0.6,3.7c1.5-2.6,4.8-3.5,7.4-2C27,36.5,27.9,37.5,28.3,38.8 M11.5,19.9
	c0-7.5,6.1-13.6,13.6-13.6s13.6,6.1,13.6,13.6S32.6,33.5,25,33.5S11.5,27.4,11.5,19.9"/>
</svg>
