<?xml version="1.0" encoding="utf-8"?>
<!-- Generator: Adobe Illustrator 23.0.3, SVG Export Plug-In . SVG Version: 6.00 Build 0)  -->
<svg version="1.1" id="Layer_1" xmlns="http://www.w3.org/2000/svg" xmlns:xlink="http://www.w3.org/1999/xlink" x="0px" y="0px"
	 width="50px" height="40px" viewBox="0 0 50 40" enable-background="new 0 0 50 40" xml:space="preserve">
<g>
	<g>
		<defs>
			<rect id="SVGID_1_" y="0" width="50" height="40"/>
		</defs>
		<clipPath id="SVGID_2_">
			<use xlink:href="#SVGID_1_"  overflow="visible"/>
		</clipPath>
		<g id="imagepaths" clip-path="url(#SVGID_2_)">
			<path fill="#00356A" d="M0,0h50v40H0V0z"/>
			<path fill="#FFFF00" d="M-8.5,68.5l11-41.4l11,41.4H-8.5z"/>
			<path fill="#0099FF" d="M-8.5,75.7l11-41.5l11,41.4H-8.5V75.7z"/>
			<path fill="#FFFF00" d="M0.7,52.2l11-41.4l11.1,41.4H0.7z"/>
			<path fill="#0099FF" d="M0.7,59.3l11-41.4l11.1,41.4H0.7z"/>
			<path fill="#FFFF00" d="M14.3,45L25.4,3.6l11,41.4H14.3z"/>
			<path fill="#0099FF" d="M14.3,52.2l11-41.4l11.1,41.4H14.3z"/>
			<path fill="#FFFF00" d="M27.2,59.7l11-41.4l11,41.4H27.2z"/>
			<path fill="#0099FF" d="M27.2,66.8l11-41.4l11,41.4H27.2z"/>
			<path fill="#FFFF00" d="M35.7,67.2l11-41.4l11,41.4H35.7z"/>
			<path fill="#0099FF" d="M35.7,74.3l11-41.4l11,41.4H35.7z"/>
			<path fill="#FFBF00" d="M42.8,15c0-1.1,0.9-2.2,2.2-2.2c0.5,0,1,0.2,1.4,0.5c-0.6-1-0.2-2.3,0.8-2.9c0.4-0.2,0.9-0.3,1.5-0.2
				c-1-0.6-1.4-1.9-0.8-2.9C48,6.9,48.4,6.6,49,6.4c-1.1,0-2.2-0.9-2.2-2.2c0-0.5,0.2-1,0.5-1.4C46.2,3.4,45,3,44.4,2
				c-0.2-0.4-0.3-0.9-0.2-1.5c-0.6,1-1.9,1.4-2.9,0.8c-0.4-0.2-0.7-0.6-0.9-1.1c0,1.1-0.9,2.2-2.2,2.2c-0.5,0-1-0.2-1.4-0.5
				c0.6,1,0.2,2.3-0.8,2.9C35.5,5,35,5.1,34.5,5c1,0.6,1.4,1.9,0.8,2.9c-0.2,0.4-0.6,0.7-1.1,0.9c1.1,0,2.2,0.9,2.2,2.2
				c0,0.5-0.2,1-0.5,1.4c1-0.6,2.3-0.2,2.9,0.8c0.2,0.4,0.3,0.9,0.2,1.5c0.6-1,1.9-1.4,2.9-0.8C42.4,14.2,42.7,14.5,42.8,15z"/>
			
				<path fill="none" stroke="#FFBF00" stroke-width="7.142856e-04" stroke-linecap="round" stroke-linejoin="round" stroke-miterlimit="10" d="
				M42.8,15c0-1.1,0.9-2.2,2.2-2.2c0.5,0,1,0.2,1.4,0.5c-0.6-1-0.2-2.3,0.8-2.9c0.4-0.2,0.9-0.3,1.5-0.2c-1-0.6-1.4-1.9-0.8-2.9
				C48,6.9,48.4,6.6,49,6.4c-1.1,0-2.2-0.9-2.2-2.2c0-0.5,0.2-1,0.5-1.4C46.2,3.4,45,3,44.4,2c-0.2-0.4-0.3-0.9-0.2-1.5
				c-0.6,1-1.9,1.4-2.9,0.8c-0.4-0.2-0.7-0.6-0.9-1.1c0,1.1-0.9,2.2-2.2,2.2c-0.5,0-1-0.2-1.4-0.5c0.6,1,0.2,2.3-0.8,2.9
				C35.5,5,35,5.1,34.5,5c1,0.6,1.4,1.9,0.8,2.9c-0.2,0.4-0.6,0.7-1.1,0.9c1.1,0,2.2,0.9,2.2,2.2c0,0.5-0.2,1-0.5,1.4
				c1-0.6,2.3-0.2,2.9,0.8c0.2,0.4,0.3,0.9,0.2,1.5c0.6-1,1.9-1.4,2.9-0.8C42.4,14.2,42.7,14.5,42.8,15"/>
			<circle fill="#FFFF00" cx="41.6" cy="7.6" r="5.3"/>
		</g>
	</g>
</g>
</svg>
