<?xml version="1.0" encoding="utf-8"?>
<!-- Generator: Adobe Illustrator 23.0.3, SVG Export Plug-In . SVG Version: 6.00 Build 0)  -->
<svg version="1.1" id="Layer_1" xmlns="http://www.w3.org/2000/svg" xmlns:xlink="http://www.w3.org/1999/xlink" x="0px" y="0px"
	 width="50px" height="40px" viewBox="0 0 50 40" enable-background="new 0 0 50 40" xml:space="preserve">
<path fill="none" stroke="#6327D8" stroke-width="0.75" stroke-miterlimit="10" d="M44.4,21c-2.7-3.2-6.5-5-10.4-5.1
	c2.4-3.1,3.5-7.1,2.8-11.3c-0.1-0.6-0.6-1-1.2-0.9c-4.2,0.7-7.7,3.2-9.7,6.6c-1.4-3.7-4.4-6.7-8.4-8.2c-0.6-0.2-1.2,0.1-1.4,0.6
	c-1.4,4-1,8.2,0.8,11.6c-3.9-0.6-8,0.4-11.2,3.2c-0.4,0.4-0.5,1.1-0.1,1.5c2.7,3.2,6.5,5,10.4,5.1c-2.4,3.1-3.6,7.1-2.8,11.3
	c0.1,0.6,0.6,1,1.2,0.9c4.2-0.7,7.7-3.2,9.7-6.6c1.4,3.7,4.4,6.7,8.4,8.2c0.6,0.2,1.2-0.1,1.4-0.6c1.4-4,1-8.2-0.8-11.6
	c3.9,0.6,8-0.4,11.2-3.2C44.7,22.1,44.8,21.4,44.4,21z M34.8,6c0.3,3.9-1.2,7.6-4,10.1c-1.4,0.3-2.8,0.7-4,1.4
	c0.2-1.4,0.2-2.9,0-4.2C28.1,9.8,31,7,34.8,6z M17.7,4.5c3.6,1.7,6.1,5,6.8,8.7c-0.4,1.3-0.7,2.7-0.7,4.1c-1.2-0.9-2.5-1.7-3.8-2.2
	C17.7,12.2,16.8,8.2,17.7,4.5z M18.8,17.1c0.9,1,1.9,1.9,3.1,2.6c-1.4,0.5-2.6,1.3-3.8,2.2c-3.7,0.5-7.5-0.7-10.3-3.4
	C11.2,16.2,15.2,15.8,18.8,17.1z M15.2,34c-0.3-3.9,1.2-7.6,4-10.1c1.4-0.3,2.8-0.7,4-1.4c-0.2,1.4-0.2,2.9,0,4.2
	C21.9,30.2,19,33,15.2,34z M32.3,35.5c-3.6-1.7-6.1-5-6.8-8.7c0.4-1.3,0.7-2.7,0.7-4.1c1.2,0.9,2.5,1.7,3.8,2.2
	C32.3,27.8,33.2,31.8,32.3,35.5z M31.2,22.9c-0.9-1-1.9-1.9-3.1-2.6c1.4-0.5,2.6-1.3,3.8-2.2c3.7-0.5,7.5,0.7,10.3,3.4
	C38.8,23.8,34.8,24.2,31.2,22.9z"/>
</svg>
