<?xml version="1.0" encoding="utf-8"?>
<svg xmlns="http://www.w3.org/2000/svg" version="1.1" xml:space="preserve"
     xmlns:xlink="http://www.w3.org/1999/xlink" width="920" height="300" viewBox="0 0 920 300">

<g transform="matrix(1 0 0 1 10 7)">
<g transform="matrix( 1 0 0 1 0 0)">
<path fill="none" stroke="#00a500" stroke-width="2.0999999999999996" stroke-miterlimit="10" d="M1.5,9.899999999999999C1.5,5.2608081014213335,5.2608081014213335,1.5,9.899999999999999,1.5H22.5V2.76C22.5,4.306397299526221,23.753602700473778,5.56,25.3,5.56H37.9C39.44639729952622,5.56,40.699999999999996,4.306397299526221,40.699999999999996,2.76V1.4999999999999998H53.3C57.93919189857866,1.4999999999999998,61.699999999999996,5.2608081014213335,61.699999999999996,9.899999999999999V31.599999999999998C61.699999999999996,36.23919189857866,57.93919189857866,40,53.3,40H40V41.26C40,42.80639729952622,38.74639729952622,44.059999999999995,37.2,44.059999999999995H26.000000000000004C24.45360270047378,44.059999999999995,23.200000000000003,42.80639729952622,23.200000000000003,41.26V40H9.900000000000004C5.260808101421339,40,1.5000000000000053,36.23919189857867,1.5000000000000053,31.6z"/>
<path fill="url(#cmd0_green_1456251329765)" stroke="none" d="M1.5,9.899999999999999C1.5,5.2608081014213335,5.2608081014213335,1.5,9.899999999999999,1.5H22.5V2.76C22.5,4.306397299526221,23.753602700473778,5.56,25.3,5.56H37.9C39.44639729952622,5.56,40.699999999999996,4.306397299526221,40.699999999999996,2.76V1.4999999999999998H53.3C57.93919189857866,1.4999999999999998,61.699999999999996,5.2608081014213335,61.699999999999996,9.899999999999999V31.599999999999998C61.699999999999996,36.23919189857866,57.93919189857866,40,53.3,40H40V41.26C40,42.80639729952622,38.74639729952622,44.059999999999995,37.2,44.059999999999995H26.000000000000004C24.45360270047378,44.059999999999995,23.200000000000003,42.80639729952622,23.200000000000003,41.26V40H9.900000000000004C5.260808101421339,40,1.5000000000000053,36.23919189857867,1.5000000000000053,31.6z"/>
<text transform="matrix( 1 0 0 1 14.440673828125 25)" fill="#128c12" font-family="Verdana" font-size="13">clean</text>
</g>
<linearGradient x1="20" y1="0" x2="42" y2="48" gradientUnits="userSpaceOnUse" id="cmd0_green_1456251329765">
<stop offset="0.0" stop-color="#a1ff72" stop-opacity="1"/>
<stop offset="1.0" stop-color="#00f200" stop-opacity="1"/>
</linearGradient>
</g>

<g transform="matrix(1 0 0 1 10 47)">
<g transform="matrix( 1 0 0 1 0 0)">
<path fill="none" stroke="#00a500" stroke-width="2.0999999999999996" stroke-miterlimit="10" d="M1.5,9.899999999999999C1.5,5.2608081014213335,5.2608081014213335,1.5,9.899999999999999,1.5H22.5V2.76C22.5,4.306397299526221,23.753602700473778,5.56,25.3,5.56H37.9C39.44639729952622,5.56,40.699999999999996,4.306397299526221,40.699999999999996,2.76V1.4999999999999998H53.3C56.959599999999995,1.4999999999999998,60.0725,3.8344999999999994,61.224,7.1H65.9035C69.38289392393399,7.1,72.20349999999999,9.920606076065999,72.20349999999999,13.399999999999999V14.799999999999999H68.70349999999999V13.399999999999999C68.70349999999999,11.853602700473777,67.44989729952621,10.599999999999998,65.9035,10.599999999999998H64.50349999999999C62.95710270047377,10.599999999999998,61.70349999999999,11.853602700473777,61.70349999999999,13.399999999999999V28.099999999999998C61.70349999999999,29.64639729952622,62.95710270047377,30.9,64.50349999999999,30.9H65.9035C67.44989729952621,30.9,68.70349999999999,29.64639729952622,68.70349999999999,28.099999999999998V26.7H72.20349999999999V28.099999999999998C72.20349999999999,31.579393923934,69.38289392393399,34.4,65.9035,34.4H61.70349999999999V47H65.9035C69.38289392393399,47,72.20349999999999,49.820606076066,72.20349999999999,53.3V54.699999999999996H68.70349999999999V53.3C68.70349999999999,51.75360270047378,67.44989729952621,50.5,65.9035,50.5H64.50349999999999C62.95710270047377,50.5,61.70349999999999,51.75360270047378,61.70349999999999,53.3V68C61.70349999999999,69.54639729952622,62.95710270047377,70.8,64.50349999999999,70.8H65.9035C67.44989729952621,70.8,68.70349999999999,69.54639729952622,68.70349999999999,68V66.6H72.20349999999999V68C72.20349999999999,71.479393923934,69.38289392393399,74.3,65.9035,74.3H61.224C60.0697,77.5599,56.9589,79.89999999999999,53.3035,79.89999999999999H40.0035V81.16C40.0035,82.70639729952622,38.749897299526225,83.96,37.203500000000005,83.96H26.003500000000006C24.457102700473783,83.96,23.203500000000005,82.70639729952622,23.203500000000005,81.16V79.89999999999999H9.903500000000006C5.264308101421341,79.89999999999999,1.5035000000000078,76.13919189857866,1.5035000000000078,71.5z"/>
<path fill="url(#cmd2_green_1456852977363)" stroke="none" d="M1.5,9.899999999999999C1.5,5.2608081014213335,5.2608081014213335,1.5,9.899999999999999,1.5H22.5V2.76C22.5,4.306397299526221,23.753602700473778,5.56,25.3,5.56H37.9C39.44639729952622,5.56,40.699999999999996,4.306397299526221,40.699999999999996,2.76V1.4999999999999998H53.3C56.959599999999995,1.4999999999999998,60.0725,3.8344999999999994,61.224,7.1H65.9035C69.38289392393399,7.1,72.20349999999999,9.920606076065999,72.20349999999999,13.399999999999999V14.799999999999999H68.70349999999999V13.399999999999999C68.70349999999999,11.853602700473777,67.44989729952621,10.599999999999998,65.9035,10.599999999999998H64.50349999999999C62.95710270047377,10.599999999999998,61.70349999999999,11.853602700473777,61.70349999999999,13.399999999999999V28.099999999999998C61.70349999999999,29.64639729952622,62.95710270047377,30.9,64.50349999999999,30.9H65.9035C67.44989729952621,30.9,68.70349999999999,29.64639729952622,68.70349999999999,28.099999999999998V26.7H72.20349999999999V28.099999999999998C72.20349999999999,31.579393923934,69.38289392393399,34.4,65.9035,34.4H61.70349999999999V47H65.9035C69.38289392393399,47,72.20349999999999,49.820606076066,72.20349999999999,53.3V54.699999999999996H68.70349999999999V53.3C68.70349999999999,51.75360270047378,67.44989729952621,50.5,65.9035,50.5H64.50349999999999C62.95710270047377,50.5,61.70349999999999,51.75360270047378,61.70349999999999,53.3V68C61.70349999999999,69.54639729952622,62.95710270047377,70.8,64.50349999999999,70.8H65.9035C67.44989729952621,70.8,68.70349999999999,69.54639729952622,68.70349999999999,68V66.6H72.20349999999999V68C72.20349999999999,71.479393923934,69.38289392393399,74.3,65.9035,74.3H61.224C60.0697,77.5599,56.9589,79.89999999999999,53.3035,79.89999999999999H40.0035V81.16C40.0035,82.70639729952622,38.749897299526225,83.96,37.203500000000005,83.96H26.003500000000006C24.457102700473783,83.96,23.203500000000005,82.70639729952622,23.203500000000005,81.16V79.89999999999999H9.903500000000006C5.264308101421341,79.89999999999999,1.5035000000000078,76.13919189857866,1.5035000000000078,71.5z"/>
<text transform="matrix( 1 0 0 1 21.435791015625 42)" fill="#128c12" font-family="Verdana" font-size="13">arc</text>
<text transform="matrix( 1 0 0 1 33.4609375 20)" fill="#128c12" font-family="Verdana" font-size="9">angle</text>
<text transform="matrix( 1 0 0 1 30.45068359375 65)" fill="#128c12" font-family="Verdana" font-size="9">radius</text>
</g>
<linearGradient x1="20" y1="0" x2="42" y2="48" gradientUnits="userSpaceOnUse" id="cmd2_green_1456852977363">
<stop offset="0.0" stop-color="#a1ff72" stop-opacity="1"/>
<stop offset="1.0" stop-color="#00f200" stop-opacity="1"/>
</linearGradient>
</g>

<g transform="matrix(1 0 0 1 71 56)">
<g transform="matrix( 1 0 0 1 0 0)">
<path fill="none" stroke="#cc66b9" stroke-width="2.0999999999999996" stroke-miterlimit="10" d="M1.5,5.699999999999999C1.5,4.346902362914555,2.5969023629145553,3.2499999999999996,3.9499999999999997,3.2499999999999996H4.6499999999999995C6.003097637085443,3.2499999999999996,7.1,4.346902362914555,7.1,5.699999999999999V7.449999999999999H12.7V4.299999999999999C12.7,2.753602700473777,13.953602700473779,1.4999999999999991,15.5,1.4999999999999991H68.69999999999999C70.24639729952621,1.4999999999999991,71.49999999999999,2.753602700473777,71.49999999999999,4.299999999999999V20.4C71.49999999999999,21.94639729952622,70.24639729952621,23.2,68.69999999999999,23.2H15.499999999999993C13.953602700473771,23.2,12.699999999999992,21.94639729952622,12.699999999999992,20.4V17.25H7.0999999999999925V19C7.0999999999999925,20.353097637085444,6.003097637085437,21.45,4.649999999999993,21.45H3.949999999999993C2.596902362914549,21.45,1.4999999999999933,20.353097637085444,1.4999999999999933,19z"/>
<path fill="url(#input_pink_1456251500765)" stroke="none" d="M1.5,5.699999999999999C1.5,4.346902362914555,2.5969023629145553,3.2499999999999996,3.9499999999999997,3.2499999999999996H4.6499999999999995C6.003097637085443,3.2499999999999996,7.1,4.346902362914555,7.1,5.699999999999999V7.449999999999999H12.7V4.299999999999999C12.7,2.753602700473777,13.953602700473779,1.4999999999999991,15.5,1.4999999999999991H68.69999999999999C70.24639729952621,1.4999999999999991,71.49999999999999,2.753602700473777,71.49999999999999,4.299999999999999V20.4C71.49999999999999,21.94639729952622,70.24639729952621,23.2,68.69999999999999,23.2H15.499999999999993C13.953602700473771,23.2,12.699999999999992,21.94639729952622,12.699999999999992,20.4V17.25H7.0999999999999925V19C7.0999999999999925,20.353097637085444,6.003097637085437,21.45,4.649999999999993,21.45H3.949999999999993C2.596902362914549,21.45,1.4999999999999933,20.353097637085444,1.4999999999999933,19z"/>
<text transform="matrix( 1 0 0 1 29 16)" fill="#8c2a6e" font-family="Verdana" font-size="13">180</text>
</g>
<linearGradient x1="0" y1="0" x2="90" y2="32" gradientUnits="userSpaceOnUse" id="input_pink_1456251500765">
<stop offset="0.0" stop-color="#fcc4f9" stop-opacity="1"/>
<stop offset="1.0" stop-color="#f991f3" stop-opacity="1"/>
</linearGradient>
</g>

<g transform="matrix(1 0 0 1 71 95)">
<g transform="matrix( 1 0 0 1 0 0)">
<path fill="none" stroke="#cc66b9" stroke-width="2.0999999999999996" stroke-miterlimit="10" d="M1.5,5.699999999999999C1.5,4.346902362914555,2.5969023629145553,3.2499999999999996,3.9499999999999997,3.2499999999999996H4.6499999999999995C6.003097637085443,3.2499999999999996,7.1,4.346902362914555,7.1,5.699999999999999V7.449999999999999H12.7V4.299999999999999C12.7,2.753602700473777,13.953602700473779,1.4999999999999991,15.5,1.4999999999999991H68.69999999999999C70.24639729952621,1.4999999999999991,71.49999999999999,2.753602700473777,71.49999999999999,4.299999999999999V20.4C71.49999999999999,21.94639729952622,70.24639729952621,23.2,68.69999999999999,23.2H15.499999999999993C13.953602700473771,23.2,12.699999999999992,21.94639729952622,12.699999999999992,20.4V17.25H7.0999999999999925V19C7.0999999999999925,20.353097637085444,6.003097637085437,21.45,4.649999999999993,21.45H3.949999999999993C2.596902362914549,21.45,1.4999999999999933,20.353097637085444,1.4999999999999933,19z"/>
<path fill="url(#input_pink_1456251500765)" stroke="none" d="M1.5,5.699999999999999C1.5,4.346902362914555,2.5969023629145553,3.2499999999999996,3.9499999999999997,3.2499999999999996H4.6499999999999995C6.003097637085443,3.2499999999999996,7.1,4.346902362914555,7.1,5.699999999999999V7.449999999999999H12.7V4.299999999999999C12.7,2.753602700473777,13.953602700473779,1.4999999999999991,15.5,1.4999999999999991H68.69999999999999C70.24639729952621,1.4999999999999991,71.49999999999999,2.753602700473777,71.49999999999999,4.299999999999999V20.4C71.49999999999999,21.94639729952622,70.24639729952621,23.2,68.69999999999999,23.2H15.499999999999993C13.953602700473771,23.2,12.699999999999992,21.94639729952622,12.699999999999992,20.4V17.25H7.0999999999999925V19C7.0999999999999925,20.353097637085444,6.003097637085437,21.45,4.649999999999993,21.45H3.949999999999993C2.596902362914549,21.45,1.4999999999999933,20.353097637085444,1.4999999999999933,19z"/>
<text transform="matrix( 1 0 0 1 33 16)" fill="#8c2a6e" font-family="Verdana" font-size="13">60</text>
</g>
<linearGradient x1="0" y1="0" x2="90" y2="32" gradientUnits="userSpaceOnUse" id="input_pink_1456251500765">
<stop offset="0.0" stop-color="#fcc4f9" stop-opacity="1"/>
<stop offset="1.0" stop-color="#f991f3" stop-opacity="1"/>
</linearGradient>
</g>

<g transform="matrix(1 0 0 1 10 126)">
<g transform="matrix( 1 0 0 1 0 0)">
<path fill="none" stroke="#00a500" stroke-width="2.0999999999999996" stroke-miterlimit="10" d="M1.5,9.899999999999999C1.5,5.2608081014213335,5.2608081014213335,1.5,9.899999999999999,1.5H22.5V2.76C22.5,4.306397299526221,23.753602700473778,5.56,25.3,5.56H37.9C39.44639729952622,5.56,40.699999999999996,4.306397299526221,40.699999999999996,2.76V1.4999999999999998H53.3C56.959599999999995,1.4999999999999998,60.0725,3.8344999999999994,61.224,7.1H65.9035C69.38289392393399,7.1,72.20349999999999,9.920606076065999,72.20349999999999,13.399999999999999V14.799999999999999H68.70349999999999V13.399999999999999C68.70349999999999,11.853602700473777,67.44989729952621,10.599999999999998,65.9035,10.599999999999998H64.50349999999999C62.95710270047377,10.599999999999998,61.70349999999999,11.853602700473777,61.70349999999999,13.399999999999999V28.099999999999998C61.70349999999999,29.64639729952622,62.95710270047377,30.9,64.50349999999999,30.9H65.9035C67.44989729952621,30.9,68.70349999999999,29.64639729952622,68.70349999999999,28.099999999999998V26.7H72.20349999999999V28.099999999999998C72.20349999999999,31.579393923934,69.38289392393399,34.4,65.9035,34.4H61.70349999999999V47H65.9035C69.38289392393399,47,72.20349999999999,49.820606076066,72.20349999999999,53.3V54.699999999999996H68.70349999999999V53.3C68.70349999999999,51.75360270047378,67.44989729952621,50.5,65.9035,50.5H64.50349999999999C62.95710270047377,50.5,61.70349999999999,51.75360270047378,61.70349999999999,53.3V68C61.70349999999999,69.54639729952622,62.95710270047377,70.8,64.50349999999999,70.8H65.9035C67.44989729952621,70.8,68.70349999999999,69.54639729952622,68.70349999999999,68V66.6H72.20349999999999V68C72.20349999999999,71.479393923934,69.38289392393399,74.3,65.9035,74.3H61.224C60.0697,77.5599,56.9589,79.89999999999999,53.3035,79.89999999999999H40.0035V81.16C40.0035,82.70639729952622,38.749897299526225,83.96,37.203500000000005,83.96H26.003500000000006C24.457102700473783,83.96,23.203500000000005,82.70639729952622,23.203500000000005,81.16V79.89999999999999H9.903500000000006C5.264308101421341,79.89999999999999,1.5035000000000078,76.13919189857866,1.5035000000000078,71.5z"/>
<path fill="url(#cmd2_green_1456852977363)" stroke="none" d="M1.5,9.899999999999999C1.5,5.2608081014213335,5.2608081014213335,1.5,9.899999999999999,1.5H22.5V2.76C22.5,4.306397299526221,23.753602700473778,5.56,25.3,5.56H37.9C39.44639729952622,5.56,40.699999999999996,4.306397299526221,40.699999999999996,2.76V1.4999999999999998H53.3C56.959599999999995,1.4999999999999998,60.0725,3.8344999999999994,61.224,7.1H65.9035C69.38289392393399,7.1,72.20349999999999,9.920606076065999,72.20349999999999,13.399999999999999V14.799999999999999H68.70349999999999V13.399999999999999C68.70349999999999,11.853602700473777,67.44989729952621,10.599999999999998,65.9035,10.599999999999998H64.50349999999999C62.95710270047377,10.599999999999998,61.70349999999999,11.853602700473777,61.70349999999999,13.399999999999999V28.099999999999998C61.70349999999999,29.64639729952622,62.95710270047377,30.9,64.50349999999999,30.9H65.9035C67.44989729952621,30.9,68.70349999999999,29.64639729952622,68.70349999999999,28.099999999999998V26.7H72.20349999999999V28.099999999999998C72.20349999999999,31.579393923934,69.38289392393399,34.4,65.9035,34.4H61.70349999999999V47H65.9035C69.38289392393399,47,72.20349999999999,49.820606076066,72.20349999999999,53.3V54.699999999999996H68.70349999999999V53.3C68.70349999999999,51.75360270047378,67.44989729952621,50.5,65.9035,50.5H64.50349999999999C62.95710270047377,50.5,61.70349999999999,51.75360270047378,61.70349999999999,53.3V68C61.70349999999999,69.54639729952622,62.95710270047377,70.8,64.50349999999999,70.8H65.9035C67.44989729952621,70.8,68.70349999999999,69.54639729952622,68.70349999999999,68V66.6H72.20349999999999V68C72.20349999999999,71.479393923934,69.38289392393399,74.3,65.9035,74.3H61.224C60.0697,77.5599,56.9589,79.89999999999999,53.3035,79.89999999999999H40.0035V81.16C40.0035,82.70639729952622,38.749897299526225,83.96,37.203500000000005,83.96H26.003500000000006C24.457102700473783,83.96,23.203500000000005,82.70639729952622,23.203500000000005,81.16V79.89999999999999H9.903500000000006C5.264308101421341,79.89999999999999,1.5035000000000078,76.13919189857866,1.5035000000000078,71.5z"/>
<text transform="matrix( 1 0 0 1 21.435791015625 42)" fill="#128c12" font-family="Verdana" font-size="13">arc</text>
<text transform="matrix( 1 0 0 1 33.4609375 20)" fill="#128c12" font-family="Verdana" font-size="9">angle</text>
<text transform="matrix( 1 0 0 1 30.45068359375 65)" fill="#128c12" font-family="Verdana" font-size="9">radius</text>
</g>
<linearGradient x1="20" y1="0" x2="42" y2="48" gradientUnits="userSpaceOnUse" id="cmd2_green_1456852977363">
<stop offset="0.0" stop-color="#a1ff72" stop-opacity="1"/>
<stop offset="1.0" stop-color="#00f200" stop-opacity="1"/>
</linearGradient>
</g>

<g transform="matrix(1 0 0 1 71 135)">
<g transform="matrix( 1 0 0 1 0 0)">
<path fill="none" stroke="#cc66b9" stroke-width="2.0999999999999996" stroke-miterlimit="10" d="M1.5,5.699999999999999C1.5,4.346902362914555,2.5969023629145553,3.2499999999999996,3.9499999999999997,3.2499999999999996H4.6499999999999995C6.003097637085443,3.2499999999999996,7.1,4.346902362914555,7.1,5.699999999999999V7.449999999999999H12.7V4.299999999999999C12.7,2.753602700473777,13.953602700473779,1.4999999999999991,15.5,1.4999999999999991H68.69999999999999C70.24639729952621,1.4999999999999991,71.49999999999999,2.753602700473777,71.49999999999999,4.299999999999999V20.4C71.49999999999999,21.94639729952622,70.24639729952621,23.2,68.69999999999999,23.2H15.499999999999993C13.953602700473771,23.2,12.699999999999992,21.94639729952622,12.699999999999992,20.4V17.25H7.0999999999999925V19C7.0999999999999925,20.353097637085444,6.003097637085437,21.45,4.649999999999993,21.45H3.949999999999993C2.596902362914549,21.45,1.4999999999999933,20.353097637085444,1.4999999999999933,19z"/>
<path fill="url(#input_pink_1456251500765)" stroke="none" d="M1.5,5.699999999999999C1.5,4.346902362914555,2.5969023629145553,3.2499999999999996,3.9499999999999997,3.2499999999999996H4.6499999999999995C6.003097637085443,3.2499999999999996,7.1,4.346902362914555,7.1,5.699999999999999V7.449999999999999H12.7V4.299999999999999C12.7,2.753602700473777,13.953602700473779,1.4999999999999991,15.5,1.4999999999999991H68.69999999999999C70.24639729952621,1.4999999999999991,71.49999999999999,2.753602700473777,71.49999999999999,4.299999999999999V20.4C71.49999999999999,21.94639729952622,70.24639729952621,23.2,68.69999999999999,23.2H15.499999999999993C13.953602700473771,23.2,12.699999999999992,21.94639729952622,12.699999999999992,20.4V17.25H7.0999999999999925V19C7.0999999999999925,20.353097637085444,6.003097637085437,21.45,4.649999999999993,21.45H3.949999999999993C2.596902362914549,21.45,1.4999999999999933,20.353097637085444,1.4999999999999933,19z"/>
<text transform="matrix( 1 0 0 1 25.5 16)" fill="#8c2a6e" font-family="Verdana" font-size="13">-180</text>
</g>
<linearGradient x1="0" y1="0" x2="90" y2="32" gradientUnits="userSpaceOnUse" id="input_pink_1456251500765">
<stop offset="0.0" stop-color="#fcc4f9" stop-opacity="1"/>
<stop offset="1.0" stop-color="#f991f3" stop-opacity="1"/>
</linearGradient>
</g>

<g transform="matrix(1 0 0 1 71 174)">
<g transform="matrix( 1 0 0 1 0 0)">
<path fill="none" stroke="#cc66b9" stroke-width="2.0999999999999996" stroke-miterlimit="10" d="M1.5,5.699999999999999C1.5,4.346902362914555,2.5969023629145553,3.2499999999999996,3.9499999999999997,3.2499999999999996H4.6499999999999995C6.003097637085443,3.2499999999999996,7.1,4.346902362914555,7.1,5.699999999999999V7.449999999999999H12.7V4.299999999999999C12.7,2.753602700473777,13.953602700473779,1.4999999999999991,15.5,1.4999999999999991H68.69999999999999C70.24639729952621,1.4999999999999991,71.49999999999999,2.753602700473777,71.49999999999999,4.299999999999999V20.4C71.49999999999999,21.94639729952622,70.24639729952621,23.2,68.69999999999999,23.2H15.499999999999993C13.953602700473771,23.2,12.699999999999992,21.94639729952622,12.699999999999992,20.4V17.25H7.0999999999999925V19C7.0999999999999925,20.353097637085444,6.003097637085437,21.45,4.649999999999993,21.45H3.949999999999993C2.596902362914549,21.45,1.4999999999999933,20.353097637085444,1.4999999999999933,19z"/>
<path fill="url(#input_pink_1456251500765)" stroke="none" d="M1.5,5.699999999999999C1.5,4.346902362914555,2.5969023629145553,3.2499999999999996,3.9499999999999997,3.2499999999999996H4.6499999999999995C6.003097637085443,3.2499999999999996,7.1,4.346902362914555,7.1,5.699999999999999V7.449999999999999H12.7V4.299999999999999C12.7,2.753602700473777,13.953602700473779,1.4999999999999991,15.5,1.4999999999999991H68.69999999999999C70.24639729952621,1.4999999999999991,71.49999999999999,2.753602700473777,71.49999999999999,4.299999999999999V20.4C71.49999999999999,21.94639729952622,70.24639729952621,23.2,68.69999999999999,23.2H15.499999999999993C13.953602700473771,23.2,12.699999999999992,21.94639729952622,12.699999999999992,20.4V17.25H7.0999999999999925V19C7.0999999999999925,20.353097637085444,6.003097637085437,21.45,4.649999999999993,21.45H3.949999999999993C2.596902362914549,21.45,1.4999999999999933,20.353097637085444,1.4999999999999933,19z"/>
<text transform="matrix( 1 0 0 1 33 16)" fill="#8c2a6e" font-family="Verdana" font-size="13">60</text>
</g>
<linearGradient x1="0" y1="0" x2="90" y2="32" gradientUnits="userSpaceOnUse" id="input_pink_1456251500765">
<stop offset="0.0" stop-color="#fcc4f9" stop-opacity="1"/>
<stop offset="1.0" stop-color="#f991f3" stop-opacity="1"/>
</linearGradient>
</g>

</svg>
