<?xml version="1.0" encoding="utf-8"?>
<!-- Generator: Adobe Illustrator 24.0.1, SVG Export Plug-In . SVG Version: 6.00 Build 0)  -->
<svg version="1.1" id="Layer_1" xmlns="http://www.w3.org/2000/svg" xmlns:xlink="http://www.w3.org/1999/xlink" x="0px" y="0px"
	 viewBox="0 0 531.9 404" enable-background="new 0 0 531.9 404" xml:space="preserve">
<g>
	<g transform="matrix(1 0 0 1 696.3727416992188 280.8545227050781)">
		<g transform="matrix( 1 0 0 1 0 0)">
			<path fill="none" stroke="#CC66B9" stroke-width="1.89" stroke-miterlimit="10" d="M-272.7-81.8c0-1.2,1-2.2,2.2-2.2h0.6
				c1.3,0,2.3,1,2.3,2.2v1.6h5V-83c0-1.4,1.1-2.5,2.5-2.5h47.9c1.4,0,2.5,1.1,2.5,2.5v14.5c0,1.4-1.1,2.5-2.5,2.5h-47.9
				c-1.4,0-2.5-1.1-2.5-2.5v-2.8h-5v1.6c0,1.2-1,2.2-2.2,2.2h-0.6c-1.2,0-2.2-1-2.2-2.2L-272.7-81.8
				C-272.6-81.8-272.7-81.8-272.7-81.8z"/>
			
				<linearGradient id="SVGID_1_" gradientUnits="userSpaceOnUse" x1="-1666.4009" y1="852.1316" x2="-1585.4009" y2="880.9316" gradientTransform="matrix(1 0 0 1 1392.7454 -940.0991)">
				<stop  offset="0" style="stop-color:#FCC4F9"/>
				<stop  offset="1" style="stop-color:#F991F3"/>
			</linearGradient>
			<path fill="url(#SVGID_1_)" d="M-272.7-81.8c0-1.2,1-2.2,2.2-2.2h0.6c1.3,0,2.3,1,2.3,2.2v1.6h5V-83c0-1.4,1.1-2.5,2.5-2.5h47.9
				c1.4,0,2.5,1.1,2.5,2.5v14.5c0,1.4-1.1,2.5-2.5,2.5h-47.9c-1.4,0-2.5-1.1-2.5-2.5v-2.8h-5v1.6c0,1.2-1,2.2-2.2,2.2h-0.6
				c-1.2,0-2.2-1-2.2-2.2L-272.7-81.8C-272.6-81.8-272.7-81.8-272.7-81.8z"/>
			<text transform="matrix(1 0 0 1 -240.46 -72.6641)" fill="#8C2A6E" font-family="'Verdana'" font-size="11.7px">5</text>
		</g>
	</g>
	<g transform="matrix(1 0 0 1 642.3726806640625 273.654541015625)">
		<g transform="matrix( 1 0 0 1 0 0)">
			<path fill="none" stroke="#00A500" stroke-width="1.89" stroke-miterlimit="10" d="M-272.7-78c0-4.1,3.4-7.6,7.6-7.6h11.3v1.2
				c0,1.4,1.2,2.5,2.5,2.5h11.3c1.3,0,2.5-1.2,2.5-2.5v-1.2h11.3c3.3,0,6.1,2.1,7.1,5h4.2c3.1,0,5.7,2.5,5.7,5.7v1.3h-3.2v-1.3
				c0-1.4-1.2-2.5-2.5-2.5h-1.3c-1.4,0-2.5,1.2-2.5,2.5v13.2c0,1.4,1.2,2.5,2.5,2.5h1.3c1.3,0,2.5-1.2,2.5-2.5V-63h3.2v1.3
				c0,3.1-2.5,5.7-5.7,5.7h-4.2c-1,3-3.8,5-7.1,5h-12v1.2c0,1.3-1.2,2.5-2.5,2.5h-9.9c-1.4,0-2.5-1.2-2.5-2.5V-51h-12
				c-4.1,0-7.6-3.4-7.6-7.6C-272.7-58.6-272.7-78-272.7-78z"/>
			
				<linearGradient id="SVGID_2_" gradientUnits="userSpaceOnUse" x1="-1536.0361" y1="-828.9514" x2="-1516.2362" y2="-872.1514" gradientTransform="matrix(1 0 0 -1 1284.7454 -918)">
				<stop  offset="0" style="stop-color:#A1FF72"/>
				<stop  offset="1" style="stop-color:#00F200"/>
			</linearGradient>
			<path fill="url(#SVGID_2_)" d="M-272.7-78c0-4.1,3.4-7.6,7.6-7.6h11.3v1.2c0,1.4,1.2,2.5,2.5,2.5h11.3c1.3,0,2.5-1.2,2.5-2.5
				v-1.2h11.3c3.3,0,6.1,2.1,7.1,5h4.2c3.1,0,5.7,2.5,5.7,5.7v1.3h-3.2v-1.3c0-1.4-1.2-2.5-2.5-2.5h-1.3c-1.4,0-2.5,1.2-2.5,2.5
				v13.2c0,1.4,1.2,2.5,2.5,2.5h1.3c1.3,0,2.5-1.2,2.5-2.5V-63h3.2v1.3c0,3.1-2.5,5.7-5.7,5.7h-4.2c-1,3-3.8,5-7.1,5h-12v1.2
				c0,1.3-1.2,2.5-2.5,2.5h-9.9c-1.4,0-2.5-1.2-2.5-2.5V-51h-12c-4.1,0-7.6-3.4-7.6-7.6C-272.7-58.6-272.7-78-272.7-78z"/>
			<text transform="matrix(1 0 0 1 -259.3764 -63.4695)" fill="#128C12" font-family="'Verdana'" font-size="11.7px">right</text>
		</g>
	</g>
	<g transform="matrix(1 0 0 1 696.3727416992188 245.75454711914062)">
		<g transform="matrix( 1 0 0 1 0 0)">
			<path fill="none" stroke="#CC66B9" stroke-width="1.89" stroke-miterlimit="10" d="M-272.7-81.8c0-1.2,1-2.2,2.2-2.2h0.6
				c1.3,0,2.3,1,2.3,2.2v1.6h5V-83c0-1.4,1.1-2.5,2.5-2.5h47.9c1.4,0,2.5,1.1,2.5,2.5v14.5c0,1.4-1.1,2.5-2.5,2.5h-47.9
				c-1.4,0-2.5-1.1-2.5-2.5v-2.8h-5v1.6c0,1.2-1,2.2-2.2,2.2h-0.6c-1.2,0-2.2-1-2.2-2.2L-272.7-81.8
				C-272.6-81.8-272.7-81.8-272.7-81.8z"/>
			
				<linearGradient id="SVGID_3_" gradientUnits="userSpaceOnUse" x1="-1666.4009" y1="852.1317" x2="-1585.4009" y2="880.9316" gradientTransform="matrix(1 0 0 1 1392.7454 -940.0991)">
				<stop  offset="0" style="stop-color:#FCC4F9"/>
				<stop  offset="1" style="stop-color:#F991F3"/>
			</linearGradient>
			<path fill="url(#SVGID_3_)" d="M-272.7-81.8c0-1.2,1-2.2,2.2-2.2h0.6c1.3,0,2.3,1,2.3,2.2v1.6h5V-83c0-1.4,1.1-2.5,2.5-2.5h47.9
				c1.4,0,2.5,1.1,2.5,2.5v14.5c0,1.4-1.1,2.5-2.5,2.5h-47.9c-1.4,0-2.5-1.1-2.5-2.5v-2.8h-5v1.6c0,1.2-1,2.2-2.2,2.2h-0.6
				c-1.2,0-2.2-1-2.2-2.2L-272.7-81.8C-272.6-81.8-272.7-81.8-272.7-81.8z"/>
			<text transform="matrix(1 0 0 1 -247.8981 -72.6641)" fill="#8C2A6E" font-family="'Verdana'" font-size="11.7px">900</text>
		</g>
	</g>
	<g transform="matrix(1 0 0 1 642.3726806640625 238.55453491210938)">
		<g transform="matrix( 1 0 0 1 0 0)">
			<path fill="none" stroke="#00A500" stroke-width="1.89" stroke-miterlimit="10" d="M-272.7-78c0-4.1,3.4-7.6,7.6-7.6h11.3v1.2
				c0,1.4,1.2,2.5,2.5,2.5h11.3c1.3,0,2.5-1.2,2.5-2.5v-1.2h11.3c3.3,0,6.1,2.1,7.1,5h4.2c3.1,0,5.7,2.5,5.7,5.7v1.3h-3.2v-1.3
				c0-1.4-1.2-2.5-2.5-2.5h-1.3c-1.4,0-2.5,1.2-2.5,2.5v13.2c0,1.4,1.2,2.5,2.5,2.5h1.3c1.3,0,2.5-1.2,2.5-2.5V-63h3.2v1.3
				c0,3.1-2.5,5.7-5.7,5.7h-4.2c-1,3-3.8,5-7.1,5h-12v1.2c0,1.3-1.2,2.5-2.5,2.5h-9.9c-1.4,0-2.5-1.2-2.5-2.5V-51h-12
				c-4.1,0-7.6-3.4-7.6-7.6C-272.7-58.6-272.7-78-272.7-78z"/>
			
				<linearGradient id="SVGID_4_" gradientUnits="userSpaceOnUse" x1="-1536.0363" y1="855.1404" x2="-1516.2362" y2="898.3405" gradientTransform="matrix(1 0 0 1 1284.7454 -944.1891)">
				<stop  offset="0" style="stop-color:#A1FF72"/>
				<stop  offset="1" style="stop-color:#00F200"/>
			</linearGradient>
			<path fill="url(#SVGID_4_)" d="M-272.7-78c0-4.1,3.4-7.6,7.6-7.6h11.3v1.2c0,1.4,1.2,2.5,2.5,2.5h11.3c1.3,0,2.5-1.2,2.5-2.5
				v-1.2h11.3c3.3,0,6.1,2.1,7.1,5h4.2c3.1,0,5.7,2.5,5.7,5.7v1.3h-3.2v-1.3c0-1.4-1.2-2.5-2.5-2.5h-1.3c-1.4,0-2.5,1.2-2.5,2.5
				v13.2c0,1.4,1.2,2.5,2.5,2.5h1.3c1.3,0,2.5-1.2,2.5-2.5V-63h3.2v1.3c0,3.1-2.5,5.7-5.7,5.7h-4.2c-1,3-3.8,5-7.1,5h-12v1.2
				c0,1.3-1.2,2.5-2.5,2.5h-9.9c-1.4,0-2.5-1.2-2.5-2.5V-51h-12c-4.1,0-7.6-3.4-7.6-7.6C-272.7-58.6-272.7-78-272.7-78z"/>
			<text transform="matrix(1 0 0 1 -258.4643 -63.4694)" fill="#128C12" font-family="'Verdana'" font-size="11.7px">back</text>
		</g>
	</g>
	<g transform="matrix(1 0 0 1 696.3727416992188 210.654541015625)">
		<g transform="matrix( 1 0 0 1 0 0)">
			<path fill="none" stroke="#CC66B9" stroke-width="1.89" stroke-miterlimit="10" d="M-272.7-81.8c0-1.2,1-2.2,2.2-2.2h0.6
				c1.3,0,2.3,1,2.3,2.2v1.6h5V-83c0-1.4,1.1-2.5,2.5-2.5h47.9c1.4,0,2.5,1.1,2.5,2.5v14.5c0,1.4-1.1,2.5-2.5,2.5h-47.9
				c-1.4,0-2.5-1.1-2.5-2.5v-2.8h-5v1.6c0,1.2-1,2.2-2.2,2.2h-0.6c-1.2,0-2.2-1-2.2-2.2L-272.7-81.8
				C-272.6-81.8-272.7-81.8-272.7-81.8z"/>
			
				<linearGradient id="SVGID_5_" gradientUnits="userSpaceOnUse" x1="-1666.4009" y1="852.1317" x2="-1585.4009" y2="880.9316" gradientTransform="matrix(1 0 0 1 1392.7454 -940.0992)">
				<stop  offset="0" style="stop-color:#FCC4F9"/>
				<stop  offset="1" style="stop-color:#F991F3"/>
			</linearGradient>
			<path fill="url(#SVGID_5_)" d="M-272.7-81.8c0-1.2,1-2.2,2.2-2.2h0.6c1.3,0,2.3,1,2.3,2.2v1.6h5V-83c0-1.4,1.1-2.5,2.5-2.5h47.9
				c1.4,0,2.5,1.1,2.5,2.5v14.5c0,1.4-1.1,2.5-2.5,2.5h-47.9c-1.4,0-2.5-1.1-2.5-2.5v-2.8h-5v1.6c0,1.2-1,2.2-2.2,2.2h-0.6
				c-1.2,0-2.2-1-2.2-2.2L-272.7-81.8C-272.6-81.8-272.7-81.8-272.7-81.8z"/>
			<text transform="matrix(1 0 0 1 -247.8981 -72.6642)" fill="#8C2A6E" font-family="'Verdana'" font-size="11.7px">900</text>
		</g>
	</g>
	<g transform="matrix(1 0 0 1 642.3726806640625 203.4545440673828)">
		<g transform="matrix( 1 0 0 1 0 0)">
			<path fill="none" stroke="#00A500" stroke-width="1.89" stroke-miterlimit="10" d="M-272.7-78c0-4.1,3.4-7.6,7.6-7.6h11.3v1.2
				c0,1.4,1.2,2.5,2.5,2.5h11.3c1.3,0,2.5-1.2,2.5-2.5v-1.2h11.3c3.3,0,6.1,2.1,7.1,5h4.2c3.1,0,5.7,2.5,5.7,5.7v1.3h-3.2v-1.3
				c0-1.4-1.2-2.5-2.5-2.5h-1.3c-1.4,0-2.5,1.2-2.5,2.5v13.2c0,1.4,1.2,2.5,2.5,2.5h1.3c1.3,0,2.5-1.2,2.5-2.5V-63h3.2v1.3
				c0,3.1-2.5,5.7-5.7,5.7h-4.2c-1,3-3.8,5-7.1,5h-12v1.2c0,1.3-1.2,2.5-2.5,2.5h-9.9c-1.4,0-2.5-1.2-2.5-2.5V-51h-12
				c-4.1,0-7.6-3.4-7.6-7.6C-272.7-58.6-272.7-78-272.7-78z"/>
			
				<linearGradient id="SVGID_6_" gradientUnits="userSpaceOnUse" x1="-1536.0361" y1="855.1404" x2="-1516.2362" y2="898.3405" gradientTransform="matrix(1 0 0 1 1284.7454 -944.189)">
				<stop  offset="0" style="stop-color:#A1FF72"/>
				<stop  offset="1" style="stop-color:#00F200"/>
			</linearGradient>
			<path fill="url(#SVGID_6_)" d="M-272.7-78c0-4.1,3.4-7.6,7.6-7.6h11.3v1.2c0,1.4,1.2,2.5,2.5,2.5h11.3c1.3,0,2.5-1.2,2.5-2.5
				v-1.2h11.3c3.3,0,6.1,2.1,7.1,5h4.2c3.1,0,5.7,2.5,5.7,5.7v1.3h-3.2v-1.3c0-1.4-1.2-2.5-2.5-2.5h-1.3c-1.4,0-2.5,1.2-2.5,2.5
				v13.2c0,1.4,1.2,2.5,2.5,2.5h1.3c1.3,0,2.5-1.2,2.5-2.5V-63h3.2v1.3c0,3.1-2.5,5.7-5.7,5.7h-4.2c-1,3-3.8,5-7.1,5h-12v1.2
				c0,1.3-1.2,2.5-2.5,2.5h-9.9c-1.4,0-2.5-1.2-2.5-2.5V-51h-12c-4.1,0-7.6-3.4-7.6-7.6C-272.7-58.6-272.7-78-272.7-78z"/>
			<text transform="matrix(1 0 0 1 -267.2846 -63.4694)" fill="#128C12" font-family="'Verdana'" font-size="11.7px">forward</text>
		</g>
	</g>
	<g transform="matrix(1 0 0 1 630.6726684570312 171.9545440673828)">
		<g transform="matrix( 1 0 0 1 0 0)">
			<path fill="none" stroke="#CC66B9" stroke-width="1.89" stroke-miterlimit="10" d="M-272.7-81.8c0-1.2,1-2.2,2.2-2.2h0.6
				c1.3,0,2.3,1,2.3,2.2v1.6h5V-83c0-1.4,1.1-2.5,2.5-2.5h47.9c1.4,0,2.5,1.1,2.5,2.5v14.5c0,1.4-1.1,2.5-2.5,2.5h-47.9
				c-1.4,0-2.5-1.1-2.5-2.5v-2.8h-5v1.6c0,1.2-1,2.2-2.2,2.2h-0.6c-1.2,0-2.2-1-2.2-2.2L-272.7-81.8
				C-272.6-81.8-272.7-81.8-272.7-81.8z"/>
			
				<linearGradient id="SVGID_7_" gradientUnits="userSpaceOnUse" x1="-1535.0006" y1="852.1316" x2="-1454.0006" y2="880.9316" gradientTransform="matrix(1 0 0 1 1261.3455 -940.0991)">
				<stop  offset="0" style="stop-color:#FCC4F9"/>
				<stop  offset="1" style="stop-color:#F991F3"/>
			</linearGradient>
			<path fill="url(#SVGID_7_)" d="M-272.7-81.8c0-1.2,1-2.2,2.2-2.2h0.6c1.3,0,2.3,1,2.3,2.2v1.6h5V-83c0-1.4,1.1-2.5,2.5-2.5h47.9
				c1.4,0,2.5,1.1,2.5,2.5v14.5c0,1.4-1.1,2.5-2.5,2.5h-47.9c-1.4,0-2.5-1.1-2.5-2.5v-2.8h-5v1.6c0,1.2-1,2.2-2.2,2.2h-0.6
				c-1.2,0-2.2-1-2.2-2.2L-272.7-81.8C-272.6-81.8-272.7-81.8-272.7-81.8z"/>
			<text transform="matrix(1 0 0 1 -244.1791 -72.6641)" fill="#8C2A6E" font-family="'Verdana'" font-size="11.7px">72</text>
		</g>
	</g>
	<g transform="matrix(1 0 0 1 576.6726684570312 164.75454711914062)">
		<g transform="matrix( 1 0 0 1 0 0)">
			<path fill="none" stroke="#CC7E02" stroke-width="1.89" stroke-miterlimit="10" d="M-272.7-78c0-4.2,3.4-7.6,7.6-7.6h11.3v1.1
				c0,1.4,1.1,2.5,2.5,2.5h11.3c1.4,0,2.5-1.1,2.5-2.5v-1.1h11.3c3.3,0,6.1,2.1,7.1,5h4.2c3.1,0,5.7,2.5,5.7,5.7v1.3h-3.1v-1.3
				c0-1.4-1.1-2.5-2.5-2.5h-1.3c-1.4,0-2.5,1.1-2.5,2.5v13.2c0,1.4,1.1,2.5,2.5,2.5h1.3c1.4,0,2.5-1.1,2.5-2.5V-63h3.1v7.6
				c0,2.1,1.7,3.8,3.8,3.8h53.5c1.4,0,2.5,1.1,2.5,2.5v6.3h-4.2c-1-3-3.8-5-7.1-5h-12v1.1c0,1.4-1.1,2.5-2.5,2.5h-9.9
				c-1.4,0-2.5-1.1-2.5-2.5v-1.1h-12.6c-4.2,0-7.6,3.4-7.6,7.6v22.1c0,4.2-3.4,7.6-7.6,7.6H-238v1c0,1.4-1.1,2.5-2.5,2.5h-10.1
				c-1.4,0-2.5-1.1-2.5-2.5v-1.1h-12c-4.2,0-7.6-3.4-7.6-7.6V-78z"/>
			
				<linearGradient id="SVGID_8_" gradientUnits="userSpaceOnUse" x1="-1392.6012" y1="786.1007" x2="-1372.8013" y2="829.3007" gradientTransform="matrix(1 0 0 1 1153.3455 -880.665)">
				<stop  offset="0" style="stop-color:#FFDF60"/>
				<stop  offset="1" style="stop-color:#FFBB00"/>
			</linearGradient>
			<path fill="url(#SVGID_8_)" d="M-272.7-78c0-4.2,3.4-7.6,7.6-7.6h11.3v1.1c0,1.4,1.1,2.5,2.5,2.5h11.3c1.4,0,2.5-1.1,2.5-2.5
				v-1.1h11.3c3.3,0,6.1,2.1,7.1,5h4.2c3.1,0,5.7,2.5,5.7,5.7v1.3h-3.1v-1.3c0-1.4-1.1-2.5-2.5-2.5h-1.3c-1.4,0-2.5,1.1-2.5,2.5
				v13.2c0,1.4,1.1,2.5,2.5,2.5h1.3c1.4,0,2.5-1.1,2.5-2.5V-63h3.1v7.6c0,2.1,1.7,3.8,3.8,3.8h53.5c1.4,0,2.5,1.1,2.5,2.5v6.3h-4.2
				c-1-3-3.8-5-7.1-5h-12v1.1c0,1.4-1.1,2.5-2.5,2.5h-9.9c-1.4,0-2.5-1.1-2.5-2.5v-1.1h-12.6c-4.2,0-7.6,3.4-7.6,7.6v22.1
				c0,4.2-3.4,7.6-7.6,7.6H-238v1c0,1.4-1.1,2.5-2.5,2.5h-10.1c-1.4,0-2.5-1.1-2.5-2.5v-1.1h-12c-4.2,0-7.6-3.4-7.6-7.6V-78z"/>
			<text transform="matrix(1 0 0 1 -264.6254 -64.3695)" fill="#8B6010" font-family="'Verdana'" font-size="11.7px">repeat</text>
		</g>
	</g>
	<g transform="matrix(1 0 0 1 630.6726684570312 136.85455322265625)">
		<g transform="matrix( 1 0 0 1 0 0)">
			<path fill="none" stroke="#CC66B9" stroke-width="1.89" stroke-miterlimit="10" d="M-272.7-81.8c0-1.2,1-2.2,2.2-2.2h0.6
				c1.3,0,2.3,1,2.3,2.2v1.6h5V-83c0-1.4,1.1-2.5,2.5-2.5h47.9c1.4,0,2.5,1.1,2.5,2.5v14.5c0,1.4-1.1,2.5-2.5,2.5h-47.9
				c-1.4,0-2.5-1.1-2.5-2.5v-2.8h-5v1.6c0,1.2-1,2.2-2.2,2.2h-0.6c-1.2,0-2.2-1-2.2-2.2L-272.7-81.8
				C-272.6-81.8-272.7-81.8-272.7-81.8z"/>
			
				<linearGradient id="SVGID_9_" gradientUnits="userSpaceOnUse" x1="-1535.0007" y1="852.1317" x2="-1454.0007" y2="880.9317" gradientTransform="matrix(1 0 0 1 1261.3455 -940.0991)">
				<stop  offset="0" style="stop-color:#FCC4F9"/>
				<stop  offset="1" style="stop-color:#F991F3"/>
			</linearGradient>
			<path fill="url(#SVGID_9_)" d="M-272.7-81.8c0-1.2,1-2.2,2.2-2.2h0.6c1.3,0,2.3,1,2.3,2.2v1.6h5V-83c0-1.4,1.1-2.5,2.5-2.5h47.9
				c1.4,0,2.5,1.1,2.5,2.5v14.5c0,1.4-1.1,2.5-2.5,2.5h-47.9c-1.4,0-2.5-1.1-2.5-2.5v-2.8h-5v1.6c0,1.2-1,2.2-2.2,2.2h-0.6
				c-1.2,0-2.2-1-2.2-2.2L-272.7-81.8C-272.6-81.8-272.7-81.8-272.7-81.8z"/>
			<text transform="matrix(1 0 0 1 -240.46 -72.6642)" fill="#8C2A6E" font-family="'Verdana'" font-size="11.7px">0</text>
		</g>
	</g>
	<g transform="matrix(1 0 0 1 576.6726684570312 129.65455627441406)">
		<g transform="matrix( 1 0 0 1 0 0)">
			<path fill="none" stroke="#00A500" stroke-width="1.89" stroke-miterlimit="10" d="M-272.7-78c0-4.2,3.4-7.6,7.6-7.6h11.3v1.1
				c0,1.4,1.1,2.5,2.5,2.5h11.3c1.4,0,2.5-1.1,2.5-2.5v-1.1h11.3c3.3,0,6.1,2.1,7.1,5h4.2c3.1,0,5.7,2.5,5.7,5.7v1.3h-3.1v-1.3
				c0-1.4-1.1-2.5-2.5-2.5h-1.3c-1.4,0-2.5,1.1-2.5,2.5v13.2c0,1.4,1.1,2.5,2.5,2.5h1.3c1.4,0,2.5-1.1,2.5-2.5V-63h3.1v1.3
				c0,3.1-2.5,5.7-5.7,5.7h-4.2c-1,2.9-3.8,5-7.1,5h-12v1.1c0,1.4-1.1,2.5-2.5,2.5h-9.9c-1.4,0-2.5-1.1-2.5-2.5V-51h-12
				c-4.2,0-7.6-3.4-7.6-7.6L-272.7-78L-272.7-78z"/>
			
				<linearGradient id="SVGID_10_" gradientUnits="userSpaceOnUse" x1="-1404.6427" y1="831.1395" x2="-1384.8428" y2="874.3395" gradientTransform="matrix(1 0 0 1 1153.3455 -920.1851)">
				<stop  offset="0" style="stop-color:#A1FF72"/>
				<stop  offset="1" style="stop-color:#00F200"/>
			</linearGradient>
			<path fill="url(#SVGID_10_)" d="M-272.7-78c0-4.2,3.4-7.6,7.6-7.6h11.3v1.1c0,1.4,1.1,2.5,2.5,2.5h11.3c1.4,0,2.5-1.1,2.5-2.5
				v-1.1h11.3c3.3,0,6.1,2.1,7.1,5h4.2c3.1,0,5.7,2.5,5.7,5.7v1.3h-3.1v-1.3c0-1.4-1.1-2.5-2.5-2.5h-1.3c-1.4,0-2.5,1.1-2.5,2.5
				v13.2c0,1.4,1.1,2.5,2.5,2.5h1.3c1.4,0,2.5-1.1,2.5-2.5V-63h3.1v1.3c0,3.1-2.5,5.7-5.7,5.7h-4.2c-1,2.9-3.8,5-7.1,5h-12v1.1
				c0,1.4-1.1,2.5-2.5,2.5h-9.9c-1.4,0-2.5-1.1-2.5-2.5V-51h-12c-4.2,0-7.6-3.4-7.6-7.6L-272.7-78L-272.7-78z"/>
			<text transform="matrix(1 0 0 1 -254.5338 -68.8693)" font-family="'ArialMT'" font-size="10.8px"> </text>
			<text transform="matrix(1 0 0 1 -254.5338 -68.8693)" fill="#128C12" font-family="'Verdana'" font-size="11.7px">set</text>
			<text transform="matrix(1 0 0 1 -236.858 -68.8693)" font-family="'ArialMT'" font-size="10.8px"> </text>
			<text transform="matrix(1 0 0 1 -268.9933 -57.1697)" fill="#128C12" font-family="'Verdana'" font-size="11.7px">heading</text>
			<text transform="matrix(1 0 0 1 -222.399 -57.1697)" font-family="'ArialMT'" font-size="10.8px"> </text>
		</g>
	</g>
	<g transform="matrix(1 0 0 1 564.0726928710938 85.5545425415039)">
		<g transform="matrix( 1 0 0 1 0 0)">
			<path fill="none" stroke="#BFAF00" stroke-width="1.89" stroke-miterlimit="10" d="M-268.7-48.8c0-18.1,17.8-32.8,35.9-32.8
				s35.9,14.7,35.9,32.8c0,4.2-3.4,7.6-7.6,7.6h-20.7v1.1c0,1.4-1.1,2.5-2.5,2.5h-10.1c-1.4,0-2.5-1.1-2.5-2.5v-1.1h-20.8
				C-265.3-41.3-268.7-44.7-268.7-48.8z"/>
			
				<linearGradient id="SVGID_11_" gradientUnits="userSpaceOnUse" x1="-1378.3818" y1="817.8966" x2="-1358.5819" y2="861.0966" gradientTransform="matrix(1 0 0 1 1128.1454 -906.9191)">
				<stop  offset="0" style="stop-color:#FFFF72"/>
				<stop  offset="1" style="stop-color:#FFF600"/>
			</linearGradient>
			<path fill="url(#SVGID_11_)" d="M-268.7-48.8c0-18.1,17.8-32.8,35.9-32.8s35.9,14.7,35.9,32.8c0,4.2-3.4,7.6-7.6,7.6h-20.7v1.1
				c0,1.4-1.1,2.5-2.5,2.5h-10.1c-1.4,0-2.5-1.1-2.5-2.5v-1.1h-20.8C-265.3-41.3-268.7-44.7-268.7-48.8z"/>
			<text transform="matrix(1 0 0 1 -245.4038 -53.8641)" fill="#8C7A15" font-family="'Verdana'" font-size="11.7px">star</text>
		</g>
	</g>
</g>
<g>
	<g transform="matrix(1 0 0 1 360.6726989746094 404.154541015625)">
		<g transform="matrix( 1 0 0 1 0 0)">
			<path fill="none" stroke="#BFAF00" stroke-width="1.89" stroke-miterlimit="10" d="M-297.7-74.9c0-4.2,3.4-7.6,7.6-7.6h11.3v1.1
				c0,1.4,1.1,2.5,2.5,2.5h11.3c1.4,0,2.5-1.1,2.5-2.5v-1.1h11.3c4.2,0,7.6,3.4,7.6,7.6v19.5c0,4.2-3.4,7.6-7.6,7.6h-12v1.1
				c0,1.4-1.1,2.5-2.5,2.5h-9.9c-1.4,0-2.5-1.1-2.5-2.5v-1.1h-12c-4.2,0-7.6-3.4-7.6-7.6C-297.7-55.4-297.7-74.9-297.7-74.9z"/>
			
				<linearGradient id="SVGID_12_" gradientUnits="userSpaceOnUse" x1="-1000.8674" y1="835.7236" x2="-981.0674" y2="878.9236" gradientTransform="matrix(1 0 0 1 721.3454 -920.1852)">
				<stop  offset="0" style="stop-color:#FFFF72"/>
				<stop  offset="1" style="stop-color:#FFF600"/>
			</linearGradient>
			<path fill="url(#SVGID_12_)" d="M-297.7-74.9c0-4.2,3.4-7.6,7.6-7.6h11.3v1.1c0,1.4,1.1,2.5,2.5,2.5h11.3c1.4,0,2.5-1.1,2.5-2.5
				v-1.1h11.3c4.2,0,7.6,3.4,7.6,7.6v19.5c0,4.2-3.4,7.6-7.6,7.6h-12v1.1c0,1.4-1.1,2.5-2.5,2.5h-9.9c-1.4,0-2.5-1.1-2.5-2.5v-1.1
				h-12c-4.2,0-7.6-3.4-7.6-7.6C-297.7-55.4-297.7-74.9-297.7-74.9z"/>
			<text transform="matrix(1 0 0 1 -281.1906 -60.664)" fill="#8C7A15" font-family="'Verdana'" font-size="11.7px">star</text>
		</g>
	</g>
	<g transform="matrix(1 0 0 1 414.6727294921875 376.2545471191406)">
		<g transform="matrix( 1 0 0 1 0 0)">
			<path fill="none" stroke="#CC66B9" stroke-width="1.89" stroke-miterlimit="10" d="M-297.7-78.7c0-1.2,1-2.2,2.2-2.2h0.6
				c1.3,0,2.3,1,2.3,2.2v1.6h5v-2.8c0-1.4,1.1-2.5,2.5-2.5h47.9c1.4,0,2.5,1.1,2.5,2.5v14.5c0,1.4-1.1,2.5-2.5,2.5h-47.9
				c-1.4,0-2.5-1.1-2.5-2.5v-2.8h-5v1.6c0,1.2-1,2.2-2.2,2.2h-0.6c-1.2,0-2.2-1-2.2-2.2L-297.7-78.7
				C-297.6-78.7-297.7-78.7-297.7-78.7z"/>
			
				<linearGradient id="SVGID_13_" gradientUnits="userSpaceOnUse" x1="-1127.9875" y1="855.2316" x2="-1046.9875" y2="884.0316" gradientTransform="matrix(1 0 0 1 829.3454 -940.099)">
				<stop  offset="0" style="stop-color:#FCC4F9"/>
				<stop  offset="1" style="stop-color:#F991F3"/>
			</linearGradient>
			<path fill="url(#SVGID_13_)" d="M-297.7-78.7c0-1.2,1-2.2,2.2-2.2h0.6c1.3,0,2.3,1,2.3,2.2v1.6h5v-2.8c0-1.4,1.1-2.5,2.5-2.5
				h47.9c1.4,0,2.5,1.1,2.5,2.5v14.5c0,1.4-1.1,2.5-2.5,2.5h-47.9c-1.4,0-2.5-1.1-2.5-2.5v-2.8h-5v1.6c0,1.2-1,2.2-2.2,2.2h-0.6
				c-1.2,0-2.2-1-2.2-2.2L-297.7-78.7C-297.6-78.7-297.7-78.7-297.7-78.7z"/>
			<text transform="matrix(1 0 0 1 -272.8849 -69.5641)" fill="#8C2A6E" font-family="'Verdana'" font-size="11.7px">215</text>
		</g>
	</g>
	<g transform="matrix(1 0 0 1 414.6727294921875 340.2545471191406)">
		<g transform="matrix( 1 0 0 1 0 0)">
			<path fill="none" stroke="#CC66B9" stroke-width="1.89" stroke-miterlimit="10" d="M-297.7-78.7c0-1.2,1-2.2,2.2-2.2h0.6
				c1.3,0,2.3,1,2.3,2.2v1.6h5v-2.8c0-1.4,1.1-2.5,2.5-2.5h47.9c1.4,0,2.5,1.1,2.5,2.5v14.5c0,1.4-1.1,2.5-2.5,2.5h-47.9
				c-1.4,0-2.5-1.1-2.5-2.5v-2.8h-5v1.6c0,1.2-1,2.2-2.2,2.2h-0.6c-1.2,0-2.2-1-2.2-2.2L-297.7-78.7
				C-297.6-78.7-297.7-78.7-297.7-78.7z"/>
			
				<linearGradient id="SVGID_14_" gradientUnits="userSpaceOnUse" x1="-1127.9877" y1="855.2317" x2="-1046.9877" y2="884.0317" gradientTransform="matrix(1 0 0 1 829.3454 -940.0991)">
				<stop  offset="0" style="stop-color:#FCC4F9"/>
				<stop  offset="1" style="stop-color:#F991F3"/>
			</linearGradient>
			<path fill="url(#SVGID_14_)" d="M-297.7-78.7c0-1.2,1-2.2,2.2-2.2h0.6c1.3,0,2.3,1,2.3,2.2v1.6h5v-2.8c0-1.4,1.1-2.5,2.5-2.5
				h47.9c1.4,0,2.5,1.1,2.5,2.5v14.5c0,1.4-1.1,2.5-2.5,2.5h-47.9c-1.4,0-2.5-1.1-2.5-2.5v-2.8h-5v1.6c0,1.2-1,2.2-2.2,2.2h-0.6
				c-1.2,0-2.2-1-2.2-2.2L-297.7-78.7C-297.6-78.7-297.7-78.7-297.7-78.7z"/>
			<text transform="matrix(1 0 0 1 -272.8849 -69.5641)" fill="#8C2A6E" font-family="'Verdana'" font-size="11.7px">365</text>
		</g>
	</g>
	<g transform="matrix(1 0 0 1 360.6726989746094 333.0545349121094)">
		<g transform="matrix( 1 0 0 1 0 0)">
			<path fill="none" stroke="#00A500" stroke-width="1.89" stroke-miterlimit="10" d="M-297.7-74.9c0-4.1,3.4-7.6,7.6-7.6h11.3v1.2
				c0,1.4,1.2,2.5,2.5,2.5h11.3c1.3,0,2.5-1.2,2.5-2.5v-1.2h11.3c3.3,0,6.1,2.1,7.1,5h4.2c3.1,0,5.7,2.5,5.7,5.7v1.3h-3.2v-1.3
				c0-1.4-1.2-2.5-2.5-2.5h-1.3c-1.4,0-2.5,1.2-2.5,2.5v13.2c0,1.4,1.2,2.5,2.5,2.5h1.3c1.3,0,2.5-1.2,2.5-2.5v-1.3h3.2v1.3
				c0,3.1-2.5,5.7-5.7,5.7h-3.8v11.3h3.8c3.1,0,5.7,2.5,5.7,5.7v1.3h-3.2v-1.3c0-1.3-1.2-2.5-2.5-2.5h-1.3c-1.4,0-2.5,1.2-2.5,2.5
				v13.2c0,1.4,1.2,2.5,2.5,2.5h1.3c1.3,0,2.5-1.2,2.5-2.5V-24h3.2v1.3c0,3.2-2.5,5.7-5.7,5.7h-4.2c-1.1,3-3.9,5-7.1,5h-12v1.2
				c0,1.3-1.2,2.5-2.5,2.5h-9.9c-1.4,0-2.5-1.2-2.5-2.5V-12h-12c-4.1,0-7.6-3.4-7.6-7.6C-297.7-19.6-297.7-74.9-297.7-74.9z"/>
			
				<linearGradient id="SVGID_15_" gradientUnits="userSpaceOnUse" x1="-1004.4218" y1="-761.1676" x2="-984.6218" y2="-804.3676" gradientTransform="matrix(1 0 0 -1 721.3454 -843.9999)">
				<stop  offset="0" style="stop-color:#A1FF72"/>
				<stop  offset="1" style="stop-color:#00F200"/>
			</linearGradient>
			<path fill="url(#SVGID_15_)" d="M-297.7-74.9c0-4.1,3.4-7.6,7.6-7.6h11.3v1.2c0,1.4,1.2,2.5,2.5,2.5h11.3c1.3,0,2.5-1.2,2.5-2.5
				v-1.2h11.3c3.3,0,6.1,2.1,7.1,5h4.2c3.1,0,5.7,2.5,5.7,5.7v1.3h-3.2v-1.3c0-1.4-1.2-2.5-2.5-2.5h-1.3c-1.4,0-2.5,1.2-2.5,2.5
				v13.2c0,1.4,1.2,2.5,2.5,2.5h1.3c1.3,0,2.5-1.2,2.5-2.5v-1.3h3.2v1.3c0,3.1-2.5,5.7-5.7,5.7h-3.8v11.3h3.8c3.1,0,5.7,2.5,5.7,5.7
				v1.3h-3.2v-1.3c0-1.3-1.2-2.5-2.5-2.5h-1.3c-1.4,0-2.5,1.2-2.5,2.5v13.2c0,1.4,1.2,2.5,2.5,2.5h1.3c1.3,0,2.5-1.2,2.5-2.5V-24
				h3.2v1.3c0,3.2-2.5,5.7-5.7,5.7h-4.2c-1.1,3-3.9,5-7.1,5h-12v1.2c0,1.3-1.2,2.5-2.5,2.5h-9.9c-1.4,0-2.5-1.2-2.5-2.5V-12h-12
				c-4.1,0-7.6-3.4-7.6-7.6C-297.7-19.6-297.7-74.9-297.7-74.9z"/>
			<text transform="matrix(1 0 0 1 -286.4448 -44.1696)" fill="#128C12" font-family="'Verdana'" font-size="11.7px">setxy</text>
			<text transform="matrix(1 0 0 1 -251.6259 -62.8249)" fill="#128C12" font-family="'Verdana'" font-size="8.1px">x</text>
			<text transform="matrix(1 0 0 1 -251.6259 -26.9377)" fill="#128C12" font-family="'Verdana'" font-size="8.1px">y</text>
		</g>
	</g>
	<g transform="matrix(1 0 0 1 360.6726989746094 297.95452880859375)">
		<g transform="matrix( 1 0 0 1 0 0)">
			<path fill="none" stroke="#BFAF00" stroke-width="1.89" stroke-miterlimit="10" d="M-297.7-74.9c0-4.2,3.4-7.6,7.6-7.6h11.3v1.1
				c0,1.4,1.1,2.5,2.5,2.5h11.3c1.4,0,2.5-1.1,2.5-2.5v-1.1h11.3c4.2,0,7.6,3.4,7.6,7.6v19.5c0,4.2-3.4,7.6-7.6,7.6h-12v1.1
				c0,1.4-1.1,2.5-2.5,2.5h-9.9c-1.4,0-2.5-1.1-2.5-2.5v-1.1h-12c-4.2,0-7.6-3.4-7.6-7.6C-297.7-55.4-297.7-74.9-297.7-74.9z"/>
			
				<linearGradient id="SVGID_16_" gradientUnits="userSpaceOnUse" x1="-1000.8674" y1="835.7236" x2="-981.0673" y2="878.9236" gradientTransform="matrix(1 0 0 1 721.3454 -920.1851)">
				<stop  offset="0" style="stop-color:#FFFF72"/>
				<stop  offset="1" style="stop-color:#FFF600"/>
			</linearGradient>
			<path fill="url(#SVGID_16_)" d="M-297.7-74.9c0-4.2,3.4-7.6,7.6-7.6h11.3v1.1c0,1.4,1.1,2.5,2.5,2.5h11.3c1.4,0,2.5-1.1,2.5-2.5
				v-1.1h11.3c4.2,0,7.6,3.4,7.6,7.6v19.5c0,4.2-3.4,7.6-7.6,7.6h-12v1.1c0,1.4-1.1,2.5-2.5,2.5h-9.9c-1.4,0-2.5-1.1-2.5-2.5v-1.1
				h-12c-4.2,0-7.6-3.4-7.6-7.6C-297.7-55.4-297.7-74.9-297.7-74.9z"/>
			<text transform="matrix(1 0 0 1 -281.1906 -60.664)" fill="#8C7A15" font-family="'Verdana'" font-size="11.7px">star</text>
		</g>
	</g>
	<g transform="matrix(1 0 0 1 414.6727294921875 270.0545349121094)">
		<g transform="matrix( 1 0 0 1 0 0)">
			<path fill="none" stroke="#CC66B9" stroke-width="1.89" stroke-miterlimit="10" d="M-297.7-78.7c0-1.2,1-2.2,2.2-2.2h0.6
				c1.3,0,2.3,1,2.3,2.2v1.6h5v-2.8c0-1.4,1.1-2.5,2.5-2.5h47.9c1.4,0,2.5,1.1,2.5,2.5v14.5c0,1.4-1.1,2.5-2.5,2.5h-47.9
				c-1.4,0-2.5-1.1-2.5-2.5v-2.8h-5v1.6c0,1.2-1,2.2-2.2,2.2h-0.6c-1.2,0-2.2-1-2.2-2.2L-297.7-78.7
				C-297.6-78.7-297.7-78.7-297.7-78.7z"/>
			
				<linearGradient id="SVGID_17_" gradientUnits="userSpaceOnUse" x1="-1127.9877" y1="855.2317" x2="-1046.9877" y2="884.0317" gradientTransform="matrix(1 0 0 1 829.3454 -940.0991)">
				<stop  offset="0" style="stop-color:#FCC4F9"/>
				<stop  offset="1" style="stop-color:#F991F3"/>
			</linearGradient>
			<path fill="url(#SVGID_17_)" d="M-297.7-78.7c0-1.2,1-2.2,2.2-2.2h0.6c1.3,0,2.3,1,2.3,2.2v1.6h5v-2.8c0-1.4,1.1-2.5,2.5-2.5
				h47.9c1.4,0,2.5,1.1,2.5,2.5v14.5c0,1.4-1.1,2.5-2.5,2.5h-47.9c-1.4,0-2.5-1.1-2.5-2.5v-2.8h-5v1.6c0,1.2-1,2.2-2.2,2.2h-0.6
				c-1.2,0-2.2-1-2.2-2.2L-297.7-78.7C-297.6-78.7-297.7-78.7-297.7-78.7z"/>
			<text transform="matrix(1 0 0 1 -265.4468 -69.5641)" fill="#8C2A6E" font-family="'Verdana'" font-size="11.7px">0</text>
		</g>
	</g>
	<g transform="matrix(1 0 0 1 414.6727294921875 234.05455017089844)">
		<g transform="matrix( 1 0 0 1 0 0)">
			<path fill="none" stroke="#CC66B9" stroke-width="1.89" stroke-miterlimit="10" d="M-297.7-78.7c0-1.2,1-2.2,2.2-2.2h0.6
				c1.3,0,2.3,1,2.3,2.2v1.6h5v-2.8c0-1.4,1.1-2.5,2.5-2.5h47.9c1.4,0,2.5,1.1,2.5,2.5v14.5c0,1.4-1.1,2.5-2.5,2.5h-47.9
				c-1.4,0-2.5-1.1-2.5-2.5v-2.8h-5v1.6c0,1.2-1,2.2-2.2,2.2h-0.6c-1.2,0-2.2-1-2.2-2.2L-297.7-78.7
				C-297.6-78.7-297.7-78.7-297.7-78.7z"/>
			
				<linearGradient id="SVGID_18_" gradientUnits="userSpaceOnUse" x1="-1127.9877" y1="855.2316" x2="-1046.9877" y2="884.0316" gradientTransform="matrix(1 0 0 1 829.3454 -940.0991)">
				<stop  offset="0" style="stop-color:#FCC4F9"/>
				<stop  offset="1" style="stop-color:#F991F3"/>
			</linearGradient>
			<path fill="url(#SVGID_18_)" d="M-297.7-78.7c0-1.2,1-2.2,2.2-2.2h0.6c1.3,0,2.3,1,2.3,2.2v1.6h5v-2.8c0-1.4,1.1-2.5,2.5-2.5
				h47.9c1.4,0,2.5,1.1,2.5,2.5v14.5c0,1.4-1.1,2.5-2.5,2.5h-47.9c-1.4,0-2.5-1.1-2.5-2.5v-2.8h-5v1.6c0,1.2-1,2.2-2.2,2.2h-0.6
				c-1.2,0-2.2-1-2.2-2.2L-297.7-78.7C-297.6-78.7-297.7-78.7-297.7-78.7z"/>
			<text transform="matrix(1 0 0 1 -275.5414 -69.564)" fill="#8C2A6E" font-family="'Verdana'" font-size="11.7px">-370</text>
		</g>
	</g>
	<g transform="matrix(1 0 0 1 360.6726989746094 226.8545379638672)">
		<g transform="matrix( 1 0 0 1 0 0)">
			<path fill="none" stroke="#00A500" stroke-width="1.89" stroke-miterlimit="10" d="M-297.7-74.9c0-4.1,3.4-7.6,7.6-7.6h11.3v1.2
				c0,1.4,1.2,2.5,2.5,2.5h11.3c1.3,0,2.5-1.2,2.5-2.5v-1.2h11.3c3.3,0,6.1,2.1,7.1,5h4.2c3.1,0,5.7,2.5,5.7,5.7v1.3h-3.2v-1.3
				c0-1.4-1.2-2.5-2.5-2.5h-1.3c-1.4,0-2.5,1.2-2.5,2.5v13.2c0,1.4,1.2,2.5,2.5,2.5h1.3c1.3,0,2.5-1.2,2.5-2.5v-1.3h3.2v1.3
				c0,3.1-2.5,5.7-5.7,5.7h-3.8v11.3h3.8c3.1,0,5.7,2.5,5.7,5.7v1.3h-3.2v-1.3c0-1.3-1.2-2.5-2.5-2.5h-1.3c-1.4,0-2.5,1.2-2.5,2.5
				v13.2c0,1.4,1.2,2.5,2.5,2.5h1.3c1.3,0,2.5-1.2,2.5-2.5V-24h3.2v1.3c0,3.2-2.5,5.7-5.7,5.7h-4.2c-1.1,3-3.9,5-7.1,5h-12v1.2
				c0,1.3-1.2,2.5-2.5,2.5h-9.9c-1.4,0-2.5-1.2-2.5-2.5V-12h-12c-4.1,0-7.6-3.4-7.6-7.6C-297.7-19.6-297.7-74.9-297.7-74.9z"/>
			
				<linearGradient id="SVGID_19_" gradientUnits="userSpaceOnUse" x1="-1004.4218" y1="-761.1676" x2="-984.6218" y2="-804.3676" gradientTransform="matrix(1 0 0 -1 721.3454 -843.9999)">
				<stop  offset="0" style="stop-color:#A1FF72"/>
				<stop  offset="1" style="stop-color:#00F200"/>
			</linearGradient>
			<path fill="url(#SVGID_19_)" d="M-297.7-74.9c0-4.1,3.4-7.6,7.6-7.6h11.3v1.2c0,1.4,1.2,2.5,2.5,2.5h11.3c1.3,0,2.5-1.2,2.5-2.5
				v-1.2h11.3c3.3,0,6.1,2.1,7.1,5h4.2c3.1,0,5.7,2.5,5.7,5.7v1.3h-3.2v-1.3c0-1.4-1.2-2.5-2.5-2.5h-1.3c-1.4,0-2.5,1.2-2.5,2.5
				v13.2c0,1.4,1.2,2.5,2.5,2.5h1.3c1.3,0,2.5-1.2,2.5-2.5v-1.3h3.2v1.3c0,3.1-2.5,5.7-5.7,5.7h-3.8v11.3h3.8c3.1,0,5.7,2.5,5.7,5.7
				v1.3h-3.2v-1.3c0-1.3-1.2-2.5-2.5-2.5h-1.3c-1.4,0-2.5,1.2-2.5,2.5v13.2c0,1.4,1.2,2.5,2.5,2.5h1.3c1.3,0,2.5-1.2,2.5-2.5V-24
				h3.2v1.3c0,3.2-2.5,5.7-5.7,5.7h-4.2c-1.1,3-3.9,5-7.1,5h-12v1.2c0,1.3-1.2,2.5-2.5,2.5h-9.9c-1.4,0-2.5-1.2-2.5-2.5V-12h-12
				c-4.1,0-7.6-3.4-7.6-7.6C-297.7-19.6-297.7-74.9-297.7-74.9z"/>
			<text transform="matrix(1 0 0 1 -286.4448 -44.1696)" fill="#128C12" font-family="'Verdana'" font-size="11.7px">setxy</text>
			<text transform="matrix(1 0 0 1 -251.6259 -62.8248)" fill="#128C12" font-family="'Verdana'" font-size="8.1px">x</text>
			<text transform="matrix(1 0 0 1 -251.6259 -26.9376)" fill="#128C12" font-family="'Verdana'" font-size="8.1px">y</text>
		</g>
	</g>
	<g transform="matrix(1 0 0 1 414.6727294921875 198.9545440673828)">
		<g transform="matrix( 1 0 0 1 0 0)">
			<path fill="none" stroke="#CC66B9" stroke-width="1.89" stroke-miterlimit="10" d="M-297.7-78.7c0-1.2,1-2.2,2.2-2.2h0.6
				c1.3,0,2.3,1,2.3,2.2v1.6h5v-2.8c0-1.4,1.1-2.5,2.5-2.5h47.9c1.4,0,2.5,1.1,2.5,2.5v14.5c0,1.4-1.1,2.5-2.5,2.5h-47.9
				c-1.4,0-2.5-1.1-2.5-2.5v-2.8h-5v1.6c0,1.2-1,2.2-2.2,2.2h-0.6c-1.2,0-2.2-1-2.2-2.2L-297.7-78.7
				C-297.6-78.7-297.7-78.7-297.7-78.7z"/>
			
				<linearGradient id="SVGID_20_" gradientUnits="userSpaceOnUse" x1="-1127.9875" y1="855.2316" x2="-1046.9875" y2="884.0316" gradientTransform="matrix(1 0 0 1 829.3454 -940.0991)">
				<stop  offset="0" style="stop-color:#FCC4F9"/>
				<stop  offset="1" style="stop-color:#F991F3"/>
			</linearGradient>
			<path fill="url(#SVGID_20_)" d="M-297.7-78.7c0-1.2,1-2.2,2.2-2.2h0.6c1.3,0,2.3,1,2.3,2.2v1.6h5v-2.8c0-1.4,1.1-2.5,2.5-2.5
				h47.9c1.4,0,2.5,1.1,2.5,2.5v14.5c0,1.4-1.1,2.5-2.5,2.5h-47.9c-1.4,0-2.5-1.1-2.5-2.5v-2.8h-5v1.6c0,1.2-1,2.2-2.2,2.2h-0.6
				c-1.2,0-2.2-1-2.2-2.2L-297.7-78.7C-297.6-78.7-297.7-78.7-297.7-78.7z"/>
			<text transform="matrix(1 0 0 1 -265.4468 -69.5641)" fill="#8C2A6E" font-family="'Verdana'" font-size="11.7px">0</text>
		</g>
	</g>
	<g transform="matrix(1 0 0 1 360.6726989746094 191.75454711914062)">
		<g transform="matrix( 1 0 0 1 0 0)">
			<path fill="none" stroke="#04A2B2" stroke-width="1.89" stroke-miterlimit="10" d="M-297.7-74.9c0-4.2,3.4-7.6,7.6-7.6h11.3v1.1
				c0,1.4,1.1,2.5,2.5,2.5h11.3c1.4,0,2.5-1.1,2.5-2.5v-1.1h11.3c3.3,0,6.1,2.1,7.1,5h4.2c3.1,0,5.7,2.5,5.7,5.7v1.3h-3.1v-1.3
				c0-1.4-1.1-2.5-2.5-2.5h-1.3c-1.4,0-2.5,1.1-2.5,2.5v13.2c0,1.4,1.1,2.5,2.5,2.5h1.3c1.4,0,2.5-1.1,2.5-2.5v-1.3h3.1v1.3
				c0,3.1-2.5,5.7-5.7,5.7h-4.2c-1,2.9-3.8,5-7.1,5h-12v1.1c0,1.4-1.1,2.5-2.5,2.5h-9.9c-1.4,0-2.5-1.1-2.5-2.5v-1.1h-12
				c-4.2,0-7.6-3.4-7.6-7.6L-297.7-74.9L-297.7-74.9z"/>
			
				<linearGradient id="SVGID_21_" gradientUnits="userSpaceOnUse" x1="-997.6295" y1="834.2395" x2="-977.8295" y2="877.4395" gradientTransform="matrix(1 0 0 1 721.3454 -920.1852)">
				<stop  offset="0" style="stop-color:#8EFFFF"/>
				<stop  offset="1" style="stop-color:#00F0FF"/>
			</linearGradient>
			<path fill="url(#SVGID_21_)" d="M-297.7-74.9c0-4.2,3.4-7.6,7.6-7.6h11.3v1.1c0,1.4,1.1,2.5,2.5,2.5h11.3c1.4,0,2.5-1.1,2.5-2.5
				v-1.1h11.3c3.3,0,6.1,2.1,7.1,5h4.2c3.1,0,5.7,2.5,5.7,5.7v1.3h-3.1v-1.3c0-1.4-1.1-2.5-2.5-2.5h-1.3c-1.4,0-2.5,1.1-2.5,2.5
				v13.2c0,1.4,1.1,2.5,2.5,2.5h1.3c1.4,0,2.5-1.1,2.5-2.5v-1.3h3.1v1.3c0,3.1-2.5,5.7-5.7,5.7h-4.2c-1,2.9-3.8,5-7.1,5h-12v1.1
				c0,1.4-1.1,2.5-2.5,2.5h-9.9c-1.4,0-2.5-1.1-2.5-2.5v-1.1h-12c-4.2,0-7.6-3.4-7.6-7.6L-297.7-74.9L-297.7-74.9z"/>
			<text transform="matrix(1 0 0 1 -279.5206 -65.7693)" font-family="'ArialMT'" font-size="10.8px"> </text>
			<text transform="matrix(1 0 0 1 -279.5206 -65.7693)" fill="#007E8C" font-family="'Verdana'" font-size="11.7px">set</text>
			<text transform="matrix(1 0 0 1 -261.8448 -65.7693)" font-family="'ArialMT'" font-size="10.8px"> </text>
			<text transform="matrix(1 0 0 1 -288.0758 -54.0695)" fill="#007E8C" font-family="'Verdana'" font-size="11.7px">shade</text>
			<text transform="matrix(1 0 0 1 -253.2901 -54.0695)" font-family="'ArialMT'" font-size="10.8px"> </text>
		</g>
	</g>
	<g transform="matrix(1 0 0 1 414.6727294921875 163.8545379638672)">
		<g transform="matrix( 1 0 0 1 0 0)">
			<path fill="none" stroke="#CC66B9" stroke-width="1.89" stroke-miterlimit="10" d="M-297.7-78.7c0-1.2,1-2.2,2.2-2.2h0.6
				c1.3,0,2.3,1,2.3,2.2v1.6h5v-2.8c0-1.4,1.1-2.5,2.5-2.5h47.9c1.4,0,2.5,1.1,2.5,2.5v14.5c0,1.4-1.1,2.5-2.5,2.5h-47.9
				c-1.4,0-2.5-1.1-2.5-2.5v-2.8h-5v1.6c0,1.2-1,2.2-2.2,2.2h-0.6c-1.2,0-2.2-1-2.2-2.2L-297.7-78.7
				C-297.6-78.7-297.7-78.7-297.7-78.7z"/>
			
				<linearGradient id="SVGID_22_" gradientUnits="userSpaceOnUse" x1="-1127.9877" y1="855.2316" x2="-1046.9877" y2="884.0316" gradientTransform="matrix(1 0 0 1 829.3454 -940.0991)">
				<stop  offset="0" style="stop-color:#FCC4F9"/>
				<stop  offset="1" style="stop-color:#F991F3"/>
			</linearGradient>
			<path fill="url(#SVGID_22_)" d="M-297.7-78.7c0-1.2,1-2.2,2.2-2.2h0.6c1.3,0,2.3,1,2.3,2.2v1.6h5v-2.8c0-1.4,1.1-2.5,2.5-2.5
				h47.9c1.4,0,2.5,1.1,2.5,2.5v14.5c0,1.4-1.1,2.5-2.5,2.5h-47.9c-1.4,0-2.5-1.1-2.5-2.5v-2.8h-5v1.6c0,1.2-1,2.2-2.2,2.2h-0.6
				c-1.2,0-2.2-1-2.2-2.2L-297.7-78.7C-297.6-78.7-297.7-78.7-297.7-78.7z"/>
			<text transform="matrix(1 0 0 1 -279.2606 -69.564)" fill="#8C2A6E" font-family="'Verdana'" font-size="11.7px">-9999</text>
		</g>
	</g>
	<g transform="matrix(1 0 0 1 360.6726989746094 156.654541015625)">
		<g transform="matrix( 1 0 0 1 0 0)">
			<path fill="none" stroke="#04A2B2" stroke-width="1.89" stroke-miterlimit="10" d="M-297.7-74.9c0-4.2,3.4-7.6,7.6-7.6h11.3v1.1
				c0,1.4,1.1,2.5,2.5,2.5h11.3c1.4,0,2.5-1.1,2.5-2.5v-1.1h11.3c3.3,0,6.1,2.1,7.1,5h4.2c3.1,0,5.7,2.5,5.7,5.7v1.3h-3.1v-1.3
				c0-1.4-1.1-2.5-2.5-2.5h-1.3c-1.4,0-2.5,1.1-2.5,2.5v13.2c0,1.4,1.1,2.5,2.5,2.5h1.3c1.4,0,2.5-1.1,2.5-2.5v-1.3h3.1v1.3
				c0,3.1-2.5,5.7-5.7,5.7h-4.2c-1,2.9-3.8,5-7.1,5h-12v1.1c0,1.4-1.1,2.5-2.5,2.5h-9.9c-1.4,0-2.5-1.1-2.5-2.5v-1.1h-12
				c-4.2,0-7.6-3.4-7.6-7.6L-297.7-74.9L-297.7-74.9z"/>
			
				<linearGradient id="SVGID_23_" gradientUnits="userSpaceOnUse" x1="-997.6295" y1="834.2395" x2="-977.8295" y2="877.4395" gradientTransform="matrix(1 0 0 1 721.3454 -920.1852)">
				<stop  offset="0" style="stop-color:#8EFFFF"/>
				<stop  offset="1" style="stop-color:#00F0FF"/>
			</linearGradient>
			<path fill="url(#SVGID_23_)" d="M-297.7-74.9c0-4.2,3.4-7.6,7.6-7.6h11.3v1.1c0,1.4,1.1,2.5,2.5,2.5h11.3c1.4,0,2.5-1.1,2.5-2.5
				v-1.1h11.3c3.3,0,6.1,2.1,7.1,5h4.2c3.1,0,5.7,2.5,5.7,5.7v1.3h-3.1v-1.3c0-1.4-1.1-2.5-2.5-2.5h-1.3c-1.4,0-2.5,1.1-2.5,2.5
				v13.2c0,1.4,1.1,2.5,2.5,2.5h1.3c1.4,0,2.5-1.1,2.5-2.5v-1.3h3.1v1.3c0,3.1-2.5,5.7-5.7,5.7h-4.2c-1,2.9-3.8,5-7.1,5h-12v1.1
				c0,1.4-1.1,2.5-2.5,2.5h-9.9c-1.4,0-2.5-1.1-2.5-2.5v-1.1h-12c-4.2,0-7.6-3.4-7.6-7.6L-297.7-74.9L-297.7-74.9z"/>
			<text transform="matrix(1 0 0 1 -279.5206 -65.7693)" font-family="'ArialMT'" font-size="10.8px"> </text>
			<text transform="matrix(1 0 0 1 -279.5206 -65.7693)" fill="#007E8C" font-family="'Verdana'" font-size="11.7px">set</text>
			<text transform="matrix(1 0 0 1 -261.8448 -65.7693)" font-family="'ArialMT'" font-size="10.8px"> </text>
			<text transform="matrix(1 0 0 1 -284.9337 -54.0696)" fill="#007E8C" font-family="'Verdana'" font-size="11.7px">color</text>
			<text transform="matrix(1 0 0 1 -256.4317 -54.0696)" font-family="'ArialMT'" font-size="10.8px"> </text>
		</g>
	</g>
	<g transform="matrix(1 0 0 1 414.6727294921875 128.75454711914062)">
		<g transform="matrix( 1 0 0 1 0 0)">
			<path fill="none" stroke="#CC66B9" stroke-width="1.89" stroke-miterlimit="10" d="M-297.7-78.7c0-1.2,1-2.2,2.2-2.2h0.6
				c1.3,0,2.3,1,2.3,2.2v1.6h5v-2.8c0-1.4,1.1-2.5,2.5-2.5h47.9c1.4,0,2.5,1.1,2.5,2.5v14.5c0,1.4-1.1,2.5-2.5,2.5h-47.9
				c-1.4,0-2.5-1.1-2.5-2.5v-2.8h-5v1.6c0,1.2-1,2.2-2.2,2.2h-0.6c-1.2,0-2.2-1-2.2-2.2L-297.7-78.7
				C-297.6-78.7-297.7-78.7-297.7-78.7z"/>
			
				<linearGradient id="SVGID_24_" gradientUnits="userSpaceOnUse" x1="-1127.9877" y1="855.2316" x2="-1046.9877" y2="884.0317" gradientTransform="matrix(1 0 0 1 829.3454 -940.0991)">
				<stop  offset="0" style="stop-color:#FCC4F9"/>
				<stop  offset="1" style="stop-color:#F991F3"/>
			</linearGradient>
			<path fill="url(#SVGID_24_)" d="M-297.7-78.7c0-1.2,1-2.2,2.2-2.2h0.6c1.3,0,2.3,1,2.3,2.2v1.6h5v-2.8c0-1.4,1.1-2.5,2.5-2.5
				h47.9c1.4,0,2.5,1.1,2.5,2.5v14.5c0,1.4-1.1,2.5-2.5,2.5h-47.9c-1.4,0-2.5-1.1-2.5-2.5v-2.8h-5v1.6c0,1.2-1,2.2-2.2,2.2h-0.6
				c-1.2,0-2.2-1-2.2-2.2L-297.7-78.7C-297.6-78.7-297.7-78.7-297.7-78.7z"/>
			<text transform="matrix(1 0 0 1 -271.2939 -69.5641)" fill="#8C2A6E" font-family="'Verdana'" font-size="11.7px">1.5</text>
		</g>
	</g>
	<g transform="matrix(1 0 0 1 360.6726989746094 121.55453491210938)">
		<g transform="matrix( 1 0 0 1 0 0)">
			<path fill="none" stroke="#04A2B2" stroke-width="1.89" stroke-miterlimit="10" d="M-297.7-74.9c0-4.2,3.4-7.6,7.6-7.6h11.3v1.1
				c0,1.4,1.1,2.5,2.5,2.5h11.3c1.4,0,2.5-1.1,2.5-2.5v-1.1h11.3c3.3,0,6.1,2.1,7.1,5h4.2c3.1,0,5.7,2.5,5.7,5.7v1.3h-3.1v-1.3
				c0-1.4-1.1-2.5-2.5-2.5h-1.3c-1.4,0-2.5,1.1-2.5,2.5v13.2c0,1.4,1.1,2.5,2.5,2.5h1.3c1.4,0,2.5-1.1,2.5-2.5v-1.3h3.1v1.3
				c0,3.1-2.5,5.7-5.7,5.7h-4.2c-1,2.9-3.8,5-7.1,5h-12v1.1c0,1.4-1.1,2.5-2.5,2.5h-9.9c-1.4,0-2.5-1.1-2.5-2.5v-1.1h-12
				c-4.2,0-7.6-3.4-7.6-7.6L-297.7-74.9L-297.7-74.9z"/>
			
				<linearGradient id="SVGID_25_" gradientUnits="userSpaceOnUse" x1="-997.6295" y1="834.2395" x2="-977.8295" y2="877.4395" gradientTransform="matrix(1 0 0 1 721.3454 -920.1852)">
				<stop  offset="0" style="stop-color:#8EFFFF"/>
				<stop  offset="1" style="stop-color:#00F0FF"/>
			</linearGradient>
			<path fill="url(#SVGID_25_)" d="M-297.7-74.9c0-4.2,3.4-7.6,7.6-7.6h11.3v1.1c0,1.4,1.1,2.5,2.5,2.5h11.3c1.4,0,2.5-1.1,2.5-2.5
				v-1.1h11.3c3.3,0,6.1,2.1,7.1,5h4.2c3.1,0,5.7,2.5,5.7,5.7v1.3h-3.1v-1.3c0-1.4-1.1-2.5-2.5-2.5h-1.3c-1.4,0-2.5,1.1-2.5,2.5
				v13.2c0,1.4,1.1,2.5,2.5,2.5h1.3c1.4,0,2.5-1.1,2.5-2.5v-1.3h3.1v1.3c0,3.1-2.5,5.7-5.7,5.7h-4.2c-1,2.9-3.8,5-7.1,5h-12v1.1
				c0,1.4-1.1,2.5-2.5,2.5h-9.9c-1.4,0-2.5-1.1-2.5-2.5v-1.1h-12c-4.2,0-7.6-3.4-7.6-7.6L-297.7-74.9L-297.7-74.9z"/>
			<text transform="matrix(1 0 0 1 -279.5206 -65.7692)" font-family="'ArialMT'" font-size="10.8px"> </text>
			<text transform="matrix(1 0 0 1 -279.5206 -65.7692)" fill="#007E8C" font-family="'Verdana'" font-size="11.7px">set</text>
			<text transform="matrix(1 0 0 1 -261.8448 -65.7692)" font-family="'ArialMT'" font-size="10.8px"> </text>
			<text transform="matrix(1 0 0 1 -292.6915 -54.0695)" fill="#007E8C" font-family="'Verdana'" font-size="11.7px">pensize</text>
			<text transform="matrix(1 0 0 1 -248.6739 -54.0695)" font-family="'ArialMT'" font-size="10.8px"> </text>
		</g>
	</g>
	<g transform="matrix(1 0 0 1 360.6726989746094 86.45454406738281)">
		<g transform="matrix( 1 0 0 1 0 0)">
			<path fill="none" stroke="#00A500" stroke-width="1.89" stroke-miterlimit="10" d="M-297.7-74.9c0-4.1,3.4-7.6,7.6-7.6h11.3v1.2
				c0,1.4,1.2,2.5,2.5,2.5h11.3c1.3,0,2.5-1.2,2.5-2.5v-1.2h11.3c4.1,0,7.6,3.4,7.6,7.6v19.5c0,4.1-3.4,7.6-7.6,7.6h-12v1.2
				c0,1.3-1.2,2.5-2.5,2.5h-9.9c-1.4,0-2.5-1.2-2.5-2.5v-1.2h-12c-4.1,0-7.6-3.4-7.6-7.6C-297.7-55.4-297.7-74.9-297.7-74.9z"/>
			
				<linearGradient id="SVGID_26_" gradientUnits="userSpaceOnUse" x1="-1000.8674" y1="859.7275" x2="-981.0673" y2="902.9276" gradientTransform="matrix(1 0 0 1 721.3454 -944.1891)">
				<stop  offset="0" style="stop-color:#A1FF72"/>
				<stop  offset="1" style="stop-color:#00F200"/>
			</linearGradient>
			<path fill="url(#SVGID_26_)" d="M-297.7-74.9c0-4.1,3.4-7.6,7.6-7.6h11.3v1.2c0,1.4,1.2,2.5,2.5,2.5h11.3c1.3,0,2.5-1.2,2.5-2.5
				v-1.2h11.3c4.1,0,7.6,3.4,7.6,7.6v19.5c0,4.1-3.4,7.6-7.6,7.6h-12v1.2c0,1.3-1.2,2.5-2.5,2.5h-9.9c-1.4,0-2.5-1.2-2.5-2.5v-1.2
				h-12c-4.1,0-7.6-3.4-7.6-7.6C-297.7-55.4-297.7-74.9-297.7-74.9z"/>
			<text transform="matrix(1 0 0 1 -285.5863 -60.3694)" fill="#128C12" font-family="'Verdana'" font-size="11.7px">clean</text>
		</g>
	</g>
</g>
</svg>
