<?xml version="1.0" encoding="utf-8"?>
<svg xmlns="http://www.w3.org/2000/svg" version="1.1" xml:space="preserve"
     xmlns:xlink="http://www.w3.org/1999/xlink" width="920" height="300" viewBox="0 0 920 300">
<g transform="matrix(1 0 0 1 210 -2)">
<g transform="matrix( 1 0 0 1 0 0)">
<path fill="none" stroke="#bfaf00" stroke-width="2.0999999999999996" stroke-miterlimit="10" d="M5.4998000000000005,41.8998C5.4998000000000005,21.7972,25.296499999999998,5.4998000000000005,45.3998,5.4998000000000005C65.5031,5.4998000000000005,85.2998,21.796499999999998,85.2998,41.8998C85.2998,46.538991898578665,81.53899189857866,50.2998,76.8998,50.2998H53.799800000000005V51.559799999999996C53.799800000000005,53.106197299526215,52.54619729952623,54.35979999999999,50.99980000000001,54.35979999999999H39.799800000000005C38.253402700473785,54.35979999999999,36.99980000000001,53.106197299526215,36.99980000000001,51.559799999999996V50.2998H13.89980000000001C9.260608101421344,50.2998,5.499800000000011,46.538991898578665,5.499800000000011,41.8998z"/>
<path fill="url(#hat0_yellow_1456335895987)" stroke="none" d="M5.4998000000000005,41.8998C5.4998000000000005,21.7972,25.296499999999998,5.4998000000000005,45.3998,5.4998000000000005C65.5031,5.4998000000000005,85.2998,21.796499999999998,85.2998,41.8998C85.2998,46.538991898578665,81.53899189857866,50.2998,76.8998,50.2998H53.799800000000005V51.559799999999996C53.799800000000005,53.106197299526215,52.54619729952623,54.35979999999999,50.99980000000001,54.35979999999999H39.799800000000005C38.253402700473785,54.35979999999999,36.99980000000001,53.106197299526215,36.99980000000001,51.559799999999996V50.2998H13.89980000000001C9.260608101421344,50.2998,5.499800000000011,46.538991898578665,5.499800000000011,41.8998z"/>
<text transform="matrix( 1 0 0 1 23 35)" fill="#8c7a15" font-family="Verdana" font-size="13">dashes</text>
</g>
<linearGradient x1="20" y1="0" x2="42" y2="48" gradientUnits="userSpaceOnUse" id="hat0_yellow_1456335895987">
<stop offset="0.0" stop-color="#ffff72" stop-opacity="1"/>
<stop offset="1.0" stop-color="#fff600" stop-opacity="1"/>
</linearGradient>
</g>

<g transform="matrix(1 0 0 1 224 48)">
<g transform="matrix( 1 0 0 1 0 0)">
<path fill="none" stroke="#cc7e02" stroke-width="2.0999999999999996" stroke-miterlimit="10" d="M1.5,9.899999999999999C1.5,5.2608081014213335,5.2608081014213335,1.5,9.899999999999999,1.5H22.5V2.76C22.5,4.306397299526221,23.753602700473778,5.56,25.3,5.56H37.9C39.44639729952622,5.56,40.699999999999996,4.306397299526221,40.699999999999996,2.76V1.4999999999999998H53.3C56.959599999999995,1.4999999999999998,60.0725,3.8344999999999994,61.224,7.1H65.9035C69.38289392393399,7.1,72.20349999999999,9.920606076065999,72.20349999999999,13.399999999999999V14.799999999999999H68.70349999999999V13.399999999999999C68.70349999999999,11.853602700473777,67.44989729952621,10.599999999999998,65.9035,10.599999999999998H64.50349999999999C62.95710270047377,10.599999999999998,61.70349999999999,11.853602700473777,61.70349999999999,13.399999999999999V28.099999999999998C61.70349999999999,29.64639729952622,62.95710270047377,30.9,64.50349999999999,30.9H65.9035C67.44989729952621,30.9,68.70349999999999,29.64639729952622,68.70349999999999,28.099999999999998V26.7H72.20349999999999V35.099999999999994C72.20349999999999,37.419595949289324,74.08390405071066,39.3,76.4035,39.3H135.90349999999998C137.4498972995262,39.3,138.7035,40.553602700473775,138.7035,42.099999999999994V49.099999999999994H134.03799999999998C132.89489999999998,45.81909999999999,129.7736,43.49999999999999,126.10349999999998,43.49999999999999H112.80349999999999V44.75999999999999C112.80349999999999,46.30639729952621,111.54989729952621,47.55999999999999,110.00349999999999,47.55999999999999H98.80349999999999C97.25710270047377,47.55999999999999,96.00349999999999,46.30639729952621,96.00349999999999,44.75999999999999V43.49999999999999H82.00349999999999C77.36430810142133,43.49999999999999,73.6035,47.260808101421325,73.6035,51.89999999999999V76.39999999999999C73.6035,81.03919189857865,69.84269189857865,84.79999999999998,65.20349999999999,84.79999999999998H40.00349999999999V86.05999999999999C40.00349999999999,87.60639729952621,38.74989729952621,88.85999999999999,37.20349999999999,88.85999999999999H26.003499999999992C24.45710270047377,88.85999999999999,23.20349999999999,87.60639729952621,23.20349999999999,86.05999999999999V84.79999999999998H9.903499999999992C5.264308101421327,84.79999999999998,1.5034999999999936,81.03919189857864,1.5034999999999936,76.39999999999998z"/>
<path fill="url(#repeat_orange_1456251409526)" stroke="none" d="M1.5,9.899999999999999C1.5,5.2608081014213335,5.2608081014213335,1.5,9.899999999999999,1.5H22.5V2.76C22.5,4.306397299526221,23.753602700473778,5.56,25.3,5.56H37.9C39.44639729952622,5.56,40.699999999999996,4.306397299526221,40.699999999999996,2.76V1.4999999999999998H53.3C56.959599999999995,1.4999999999999998,60.0725,3.8344999999999994,61.224,7.1H65.9035C69.38289392393399,7.1,72.20349999999999,9.920606076065999,72.20349999999999,13.399999999999999V14.799999999999999H68.70349999999999V13.399999999999999C68.70349999999999,11.853602700473777,67.44989729952621,10.599999999999998,65.9035,10.599999999999998H64.50349999999999C62.95710270047377,10.599999999999998,61.70349999999999,11.853602700473777,61.70349999999999,13.399999999999999V28.099999999999998C61.70349999999999,29.64639729952622,62.95710270047377,30.9,64.50349999999999,30.9H65.9035C67.44989729952621,30.9,68.70349999999999,29.64639729952622,68.70349999999999,28.099999999999998V26.7H72.20349999999999V35.099999999999994C72.20349999999999,37.419595949289324,74.08390405071066,39.3,76.4035,39.3H135.90349999999998C137.4498972995262,39.3,138.7035,40.553602700473775,138.7035,42.099999999999994V49.099999999999994H134.03799999999998C132.89489999999998,45.81909999999999,129.7736,43.49999999999999,126.10349999999998,43.49999999999999H112.80349999999999V44.75999999999999C112.80349999999999,46.30639729952621,111.54989729952621,47.55999999999999,110.00349999999999,47.55999999999999H98.80349999999999C97.25710270047377,47.55999999999999,96.00349999999999,46.30639729952621,96.00349999999999,44.75999999999999V43.49999999999999H82.00349999999999C77.36430810142133,43.49999999999999,73.6035,47.260808101421325,73.6035,51.89999999999999V76.39999999999999C73.6035,81.03919189857865,69.84269189857865,84.79999999999998,65.20349999999999,84.79999999999998H40.00349999999999V86.05999999999999C40.00349999999999,87.60639729952621,38.74989729952621,88.85999999999999,37.20349999999999,88.85999999999999H26.003499999999992C24.45710270047377,88.85999999999999,23.20349999999999,87.60639729952621,23.20349999999999,86.05999999999999V84.79999999999998H9.903499999999992C5.264308101421327,84.79999999999998,1.5034999999999936,81.03919189857864,1.5034999999999936,76.39999999999998z"/>
<text transform="matrix( 1 0 0 1 10.467041015625 25)" fill="#8b6010" font-family="Verdana" font-size="13">repeat</text>
</g>
<linearGradient x1="20" y1="0" x2="42" y2="48" gradientUnits="userSpaceOnUse" id="repeat_orange_1456251409526">
<stop offset="0.0" stop-color="#ffdf60" stop-opacity="1"/>
<stop offset="1.0" stop-color="#ffbb00" stop-opacity="1"/>
</linearGradient>
</g>

<g transform="matrix(1 0 0 1 285 56)">
<g transform="matrix( 1 0 0 1 0 0)">
<path fill="none" stroke="#cc66b9" stroke-width="2.0999999999999996" stroke-miterlimit="10" d="M1.5,5.699999999999999C1.5,4.346902362914555,2.5969023629145553,3.2499999999999996,3.9499999999999997,3.2499999999999996H4.6499999999999995C6.003097637085443,3.2499999999999996,7.1,4.346902362914555,7.1,5.699999999999999V7.449999999999999H12.7V4.299999999999999C12.7,2.753602700473777,13.953602700473779,1.4999999999999991,15.5,1.4999999999999991H68.69999999999999C70.24639729952621,1.4999999999999991,71.49999999999999,2.753602700473777,71.49999999999999,4.299999999999999V20.4C71.49999999999999,21.94639729952622,70.24639729952621,23.2,68.69999999999999,23.2H15.499999999999993C13.953602700473771,23.2,12.699999999999992,21.94639729952622,12.699999999999992,20.4V17.25H7.0999999999999925V19C7.0999999999999925,20.353097637085444,6.003097637085437,21.45,4.649999999999993,21.45H3.949999999999993C2.596902362914549,21.45,1.4999999999999933,20.353097637085444,1.4999999999999933,19z"/>
<path fill="url(#input_pink_1456251500765)" stroke="none" d="M1.5,5.699999999999999C1.5,4.346902362914555,2.5969023629145553,3.2499999999999996,3.9499999999999997,3.2499999999999996H4.6499999999999995C6.003097637085443,3.2499999999999996,7.1,4.346902362914555,7.1,5.699999999999999V7.449999999999999H12.7V4.299999999999999C12.7,2.753602700473777,13.953602700473779,1.4999999999999991,15.5,1.4999999999999991H68.69999999999999C70.24639729952621,1.4999999999999991,71.49999999999999,2.753602700473777,71.49999999999999,4.299999999999999V20.4C71.49999999999999,21.94639729952622,70.24639729952621,23.2,68.69999999999999,23.2H15.499999999999993C13.953602700473771,23.2,12.699999999999992,21.94639729952622,12.699999999999992,20.4V17.25H7.0999999999999925V19C7.0999999999999925,20.353097637085444,6.003097637085437,21.45,4.649999999999993,21.45H3.949999999999993C2.596902362914549,21.45,1.4999999999999933,20.353097637085444,1.4999999999999933,19z"/>
<text transform="matrix( 1 0 0 1 38.5 16)" fill="#8c2a6e" font-family="Verdana" font-size="13">3</text>
</g>
<linearGradient x1="0" y1="0" x2="90" y2="32" gradientUnits="userSpaceOnUse" id="input_pink_1456251500765">
<stop offset="0.0" stop-color="#fcc4f9" stop-opacity="1"/>
<stop offset="1.0" stop-color="#f991f3" stop-opacity="1"/>
</linearGradient>
</g>

<g transform="matrix(1 0 0 1 297 91)">
<g transform="matrix( 1 0 0 1 0 0)">
<path fill="none" stroke="#04a2b2" stroke-width="2.0999999999999996" stroke-miterlimit="10" d="M1.5,9.899999999999999C1.5,5.2608081014213335,5.2608081014213335,1.5,9.899999999999999,1.5H22.5V2.76C22.5,4.306397299526221,23.753602700473778,5.56,25.3,5.56H37.9C39.44639729952622,5.56,40.699999999999996,4.306397299526221,40.699999999999996,2.76V1.4999999999999998H53.3C57.93919189857866,1.4999999999999998,61.699999999999996,5.2608081014213335,61.699999999999996,9.899999999999999V31.599999999999998C61.699999999999996,36.23919189857866,57.93919189857866,40,53.3,40H40V41.26C40,42.80639729952622,38.74639729952622,44.059999999999995,37.2,44.059999999999995H26.000000000000004C24.45360270047378,44.059999999999995,23.200000000000003,42.80639729952622,23.200000000000003,41.26V40H9.900000000000004C5.260808101421339,40,1.5000000000000053,36.23919189857867,1.5000000000000053,31.6z"/>
<path fill="url(#cmd0_cyan_1456251695632)" stroke="none" d="M1.5,9.899999999999999C1.5,5.2608081014213335,5.2608081014213335,1.5,9.899999999999999,1.5H22.5V2.76C22.5,4.306397299526221,23.753602700473778,5.56,25.3,5.56H37.9C39.44639729952622,5.56,40.699999999999996,4.306397299526221,40.699999999999996,2.76V1.4999999999999998H53.3C57.93919189857866,1.4999999999999998,61.699999999999996,5.2608081014213335,61.699999999999996,9.899999999999999V31.599999999999998C61.699999999999996,36.23919189857866,57.93919189857866,40,53.3,40H40V41.26C40,42.80639729952622,38.74639729952622,44.059999999999995,37.2,44.059999999999995H26.000000000000004C24.45360270047378,44.059999999999995,23.200000000000003,42.80639729952622,23.200000000000003,41.26V40H9.900000000000004C5.260808101421339,40,1.5000000000000053,36.23919189857867,1.5000000000000053,31.6z"/>
<text transform="matrix( 1 0 0 1 19.46484375 20)">
<tspan x="0" y="0" fill="#007e8c" font-family="Verdana" font-size="13">pen</tspan>
<tspan x="3.8720703125" y="13" fill="#007e8c" font-family="Verdana" font-size="13">up</tspan>
</text>
</g>
<linearGradient x1="20" y1="0" x2="42" y2="48" gradientUnits="userSpaceOnUse" id="cmd0_cyan_1456251695632">
<stop offset="0.0" stop-color="#8effff" stop-opacity="1"/>
<stop offset="1.0" stop-color="#00f0ff" stop-opacity="1"/>
</linearGradient>
</g>

<g transform="matrix(1 0 0 1 297 131)">
<g transform="matrix( 1 0 0 1 0 0)">
<path fill="none" stroke="#00a500" stroke-width="2.0999999999999996" stroke-miterlimit="10" d="M1.5,9.899999999999999C1.5,5.2608081014213335,5.2608081014213335,1.5,9.899999999999999,1.5H22.5V2.76C22.5,4.306397299526221,23.753602700473778,5.56,25.3,5.56H37.9C39.44639729952622,5.56,40.699999999999996,4.306397299526221,40.699999999999996,2.76V1.4999999999999998H53.3C56.959599999999995,1.4999999999999998,60.0725,3.8344999999999994,61.224,7.1H65.9035C69.38289392393399,7.1,72.20349999999999,9.920606076065999,72.20349999999999,13.399999999999999V14.799999999999999H68.70349999999999V13.399999999999999C68.70349999999999,11.853602700473777,67.44989729952621,10.599999999999998,65.9035,10.599999999999998H64.50349999999999C62.95710270047377,10.599999999999998,61.70349999999999,11.853602700473777,61.70349999999999,13.399999999999999V28.099999999999998C61.70349999999999,29.64639729952622,62.95710270047377,30.9,64.50349999999999,30.9H65.9035C67.44989729952621,30.9,68.70349999999999,29.64639729952622,68.70349999999999,28.099999999999998V26.7H72.20349999999999V28.099999999999998C72.20349999999999,31.579393923934,69.38289392393399,34.4,65.9035,34.4H61.224C60.0697,37.6599,56.9589,40,53.3035,40H40.0035V41.26C40.0035,42.80639729952622,38.749897299526225,44.059999999999995,37.203500000000005,44.059999999999995H26.003500000000006C24.457102700473783,44.059999999999995,23.203500000000005,42.80639729952622,23.203500000000005,41.26V40H9.903500000000006C5.264308101421341,40,1.5035000000000078,36.23919189857867,1.5035000000000078,31.6z"/>
<path fill="url(#cmd_green_1456251329761)" stroke="none" d="M1.5,9.899999999999999C1.5,5.2608081014213335,5.2608081014213335,1.5,9.899999999999999,1.5H22.5V2.76C22.5,4.306397299526221,23.753602700473778,5.56,25.3,5.56H37.9C39.44639729952622,5.56,40.699999999999996,4.306397299526221,40.699999999999996,2.76V1.4999999999999998H53.3C56.959599999999995,1.4999999999999998,60.0725,3.8344999999999994,61.224,7.1H65.9035C69.38289392393399,7.1,72.20349999999999,9.920606076065999,72.20349999999999,13.399999999999999V14.799999999999999H68.70349999999999V13.399999999999999C68.70349999999999,11.853602700473777,67.44989729952621,10.599999999999998,65.9035,10.599999999999998H64.50349999999999C62.95710270047377,10.599999999999998,61.70349999999999,11.853602700473777,61.70349999999999,13.399999999999999V28.099999999999998C61.70349999999999,29.64639729952622,62.95710270047377,30.9,64.50349999999999,30.9H65.9035C67.44989729952621,30.9,68.70349999999999,29.64639729952622,68.70349999999999,28.099999999999998V26.7H72.20349999999999V28.099999999999998C72.20349999999999,31.579393923934,69.38289392393399,34.4,65.9035,34.4H61.224C60.0697,37.6599,56.9589,40,53.3035,40H40.0035V41.26C40.0035,42.80639729952622,38.749897299526225,44.059999999999995,37.203500000000005,44.059999999999995H26.003500000000006C24.457102700473783,44.059999999999995,23.203500000000005,42.80639729952622,23.203500000000005,41.26V40H9.903500000000006C5.264308101421341,40,1.5035000000000078,36.23919189857867,1.5035000000000078,31.6z"/>
<text transform="matrix( 1 0 0 1 6.512451171875 25)" fill="#128c12" font-family="Verdana" font-size="13">forward</text>
</g>
<linearGradient x1="20" y1="0" x2="42" y2="48" gradientUnits="userSpaceOnUse" id="cmd_green_1456251329761">
<stop offset="0.0" stop-color="#a1ff72" stop-opacity="1"/>
<stop offset="1.0" stop-color="#00f200" stop-opacity="1"/>
</linearGradient>
</g>

<g transform="matrix(1 0 0 1 358 139)">
<g transform="matrix( 1 0 0 1 0 0)">
<path fill="none" stroke="#cc66b9" stroke-width="2.0999999999999996" stroke-miterlimit="10" d="M1.5,5.699999999999999C1.5,4.346902362914555,2.5969023629145553,3.2499999999999996,3.9499999999999997,3.2499999999999996H4.6499999999999995C6.003097637085443,3.2499999999999996,7.1,4.346902362914555,7.1,5.699999999999999V7.449999999999999H12.7V4.299999999999999C12.7,2.753602700473777,13.953602700473779,1.4999999999999991,15.5,1.4999999999999991H68.69999999999999C70.24639729952621,1.4999999999999991,71.49999999999999,2.753602700473777,71.49999999999999,4.299999999999999V20.4C71.49999999999999,21.94639729952622,70.24639729952621,23.2,68.69999999999999,23.2H15.499999999999993C13.953602700473771,23.2,12.699999999999992,21.94639729952622,12.699999999999992,20.4V17.25H7.0999999999999925V19C7.0999999999999925,20.353097637085444,6.003097637085437,21.45,4.649999999999993,21.45H3.949999999999993C2.596902362914549,21.45,1.4999999999999933,20.353097637085444,1.4999999999999933,19z"/>
<path fill="url(#input_pink_1456251500765)" stroke="none" d="M1.5,5.699999999999999C1.5,4.346902362914555,2.5969023629145553,3.2499999999999996,3.9499999999999997,3.2499999999999996H4.6499999999999995C6.003097637085443,3.2499999999999996,7.1,4.346902362914555,7.1,5.699999999999999V7.449999999999999H12.7V4.299999999999999C12.7,2.753602700473777,13.953602700473779,1.4999999999999991,15.5,1.4999999999999991H68.69999999999999C70.24639729952621,1.4999999999999991,71.49999999999999,2.753602700473777,71.49999999999999,4.299999999999999V20.4C71.49999999999999,21.94639729952622,70.24639729952621,23.2,68.69999999999999,23.2H15.499999999999993C13.953602700473771,23.2,12.699999999999992,21.94639729952622,12.699999999999992,20.4V17.25H7.0999999999999925V19C7.0999999999999925,20.353097637085444,6.003097637085437,21.45,4.649999999999993,21.45H3.949999999999993C2.596902362914549,21.45,1.4999999999999933,20.353097637085444,1.4999999999999933,19z"/>
<text transform="matrix( 1 0 0 1 34.5 16)" fill="#8c2a6e" font-family="Verdana" font-size="13">20</text>
</g>
<linearGradient x1="0" y1="0" x2="90" y2="32" gradientUnits="userSpaceOnUse" id="input_pink_1456251500765">
<stop offset="0.0" stop-color="#fcc4f9" stop-opacity="1"/>
<stop offset="1.0" stop-color="#f991f3" stop-opacity="1"/>
</linearGradient>
</g>

<g transform="matrix(1 0 0 1 297 171)">
<g transform="matrix( 1 0 0 1 0 0)">
<path fill="none" stroke="#04a2b2" stroke-width="2.0999999999999996" stroke-miterlimit="10" d="M1.5,9.899999999999999C1.5,5.2608081014213335,5.2608081014213335,1.5,9.899999999999999,1.5H22.5V2.76C22.5,4.306397299526221,23.753602700473778,5.56,25.3,5.56H37.9C39.44639729952622,5.56,40.699999999999996,4.306397299526221,40.699999999999996,2.76V1.4999999999999998H53.3C57.93919189857866,1.4999999999999998,61.699999999999996,5.2608081014213335,61.699999999999996,9.899999999999999V31.599999999999998C61.699999999999996,36.23919189857866,57.93919189857866,40,53.3,40H40V41.26C40,42.80639729952622,38.74639729952622,44.059999999999995,37.2,44.059999999999995H26.000000000000004C24.45360270047378,44.059999999999995,23.200000000000003,42.80639729952622,23.200000000000003,41.26V40H9.900000000000004C5.260808101421339,40,1.5000000000000053,36.23919189857867,1.5000000000000053,31.6z"/>
<path fill="url(#cmd0_cyan_1456251695627)" stroke="none" d="M1.5,9.899999999999999C1.5,5.2608081014213335,5.2608081014213335,1.5,9.899999999999999,1.5H22.5V2.76C22.5,4.306397299526221,23.753602700473778,5.56,25.3,5.56H37.9C39.44639729952622,5.56,40.699999999999996,4.306397299526221,40.699999999999996,2.76V1.4999999999999998H53.3C57.93919189857866,1.4999999999999998,61.699999999999996,5.2608081014213335,61.699999999999996,9.899999999999999V31.599999999999998C61.699999999999996,36.23919189857866,57.93919189857866,40,53.3,40H40V41.26C40,42.80639729952622,38.74639729952622,44.059999999999995,37.2,44.059999999999995H26.000000000000004C24.45360270047378,44.059999999999995,23.200000000000003,42.80639729952622,23.200000000000003,41.26V40H9.900000000000004C5.260808101421339,40,1.5000000000000053,36.23919189857867,1.5000000000000053,31.6z"/>
<text transform="matrix( 1 0 0 1 19.46484375 20)">
<tspan x="0" y="0" fill="#007e8c" font-family="Verdana" font-size="13">pen</tspan>
<tspan x="-5.392333984375" y="13" fill="#007e8c" font-family="Verdana" font-size="13">down</tspan>
</text>
</g>
<linearGradient x1="20" y1="0" x2="42" y2="48" gradientUnits="userSpaceOnUse" id="cmd0_cyan_1456251695627">
<stop offset="0.0" stop-color="#8effff" stop-opacity="1"/>
<stop offset="1.0" stop-color="#00f0ff" stop-opacity="1"/>
</linearGradient>
</g>

<g transform="matrix(1 0 0 1 297 211)">
<g transform="matrix( 1 0 0 1 0 0)">
<path fill="none" stroke="#00a500" stroke-width="2.0999999999999996" stroke-miterlimit="10" d="M1.5,9.899999999999999C1.5,5.2608081014213335,5.2608081014213335,1.5,9.899999999999999,1.5H22.5V2.76C22.5,4.306397299526221,23.753602700473778,5.56,25.3,5.56H37.9C39.44639729952622,5.56,40.699999999999996,4.306397299526221,40.699999999999996,2.76V1.4999999999999998H53.3C56.959599999999995,1.4999999999999998,60.0725,3.8344999999999994,61.224,7.1H65.9035C69.38289392393399,7.1,72.20349999999999,9.920606076065999,72.20349999999999,13.399999999999999V14.799999999999999H68.70349999999999V13.399999999999999C68.70349999999999,11.853602700473777,67.44989729952621,10.599999999999998,65.9035,10.599999999999998H64.50349999999999C62.95710270047377,10.599999999999998,61.70349999999999,11.853602700473777,61.70349999999999,13.399999999999999V28.099999999999998C61.70349999999999,29.64639729952622,62.95710270047377,30.9,64.50349999999999,30.9H65.9035C67.44989729952621,30.9,68.70349999999999,29.64639729952622,68.70349999999999,28.099999999999998V26.7H72.20349999999999V28.099999999999998C72.20349999999999,31.579393923934,69.38289392393399,34.4,65.9035,34.4H61.224C60.0697,37.6599,56.9589,40,53.3035,40H40.0035V41.26C40.0035,42.80639729952622,38.749897299526225,44.059999999999995,37.203500000000005,44.059999999999995H26.003500000000006C24.457102700473783,44.059999999999995,23.203500000000005,42.80639729952622,23.203500000000005,41.26V40H9.903500000000006C5.264308101421341,40,1.5035000000000078,36.23919189857867,1.5035000000000078,31.6z"/>
<path fill="url(#cmd_green_1456251329761)" stroke="none" d="M1.5,9.899999999999999C1.5,5.2608081014213335,5.2608081014213335,1.5,9.899999999999999,1.5H22.5V2.76C22.5,4.306397299526221,23.753602700473778,5.56,25.3,5.56H37.9C39.44639729952622,5.56,40.699999999999996,4.306397299526221,40.699999999999996,2.76V1.4999999999999998H53.3C56.959599999999995,1.4999999999999998,60.0725,3.8344999999999994,61.224,7.1H65.9035C69.38289392393399,7.1,72.20349999999999,9.920606076065999,72.20349999999999,13.399999999999999V14.799999999999999H68.70349999999999V13.399999999999999C68.70349999999999,11.853602700473777,67.44989729952621,10.599999999999998,65.9035,10.599999999999998H64.50349999999999C62.95710270047377,10.599999999999998,61.70349999999999,11.853602700473777,61.70349999999999,13.399999999999999V28.099999999999998C61.70349999999999,29.64639729952622,62.95710270047377,30.9,64.50349999999999,30.9H65.9035C67.44989729952621,30.9,68.70349999999999,29.64639729952622,68.70349999999999,28.099999999999998V26.7H72.20349999999999V28.099999999999998C72.20349999999999,31.579393923934,69.38289392393399,34.4,65.9035,34.4H61.224C60.0697,37.6599,56.9589,40,53.3035,40H40.0035V41.26C40.0035,42.80639729952622,38.749897299526225,44.059999999999995,37.203500000000005,44.059999999999995H26.003500000000006C24.457102700473783,44.059999999999995,23.203500000000005,42.80639729952622,23.203500000000005,41.26V40H9.903500000000006C5.264308101421341,40,1.5035000000000078,36.23919189857867,1.5035000000000078,31.6z"/>
<text transform="matrix( 1 0 0 1 6.512451171875 25)" fill="#128c12" font-family="Verdana" font-size="13">forward</text>
</g>
<linearGradient x1="20" y1="0" x2="42" y2="48" gradientUnits="userSpaceOnUse" id="cmd_green_1456251329761">
<stop offset="0.0" stop-color="#a1ff72" stop-opacity="1"/>
<stop offset="1.0" stop-color="#00f200" stop-opacity="1"/>
</linearGradient>
</g>

<g transform="matrix(1 0 0 1 358 219)">
<g transform="matrix( 1 0 0 1 0 0)">
<path fill="none" stroke="#cc66b9" stroke-width="2.0999999999999996" stroke-miterlimit="10" d="M1.5,5.699999999999999C1.5,4.346902362914555,2.5969023629145553,3.2499999999999996,3.9499999999999997,3.2499999999999996H4.6499999999999995C6.003097637085443,3.2499999999999996,7.1,4.346902362914555,7.1,5.699999999999999V7.449999999999999H12.7V4.299999999999999C12.7,2.753602700473777,13.953602700473779,1.4999999999999991,15.5,1.4999999999999991H68.69999999999999C70.24639729952621,1.4999999999999991,71.49999999999999,2.753602700473777,71.49999999999999,4.299999999999999V20.4C71.49999999999999,21.94639729952622,70.24639729952621,23.2,68.69999999999999,23.2H15.499999999999993C13.953602700473771,23.2,12.699999999999992,21.94639729952622,12.699999999999992,20.4V17.25H7.0999999999999925V19C7.0999999999999925,20.353097637085444,6.003097637085437,21.45,4.649999999999993,21.45H3.949999999999993C2.596902362914549,21.45,1.4999999999999933,20.353097637085444,1.4999999999999933,19z"/>
<path fill="url(#input_pink_1456251500765)" stroke="none" d="M1.5,5.699999999999999C1.5,4.346902362914555,2.5969023629145553,3.2499999999999996,3.9499999999999997,3.2499999999999996H4.6499999999999995C6.003097637085443,3.2499999999999996,7.1,4.346902362914555,7.1,5.699999999999999V7.449999999999999H12.7V4.299999999999999C12.7,2.753602700473777,13.953602700473779,1.4999999999999991,15.5,1.4999999999999991H68.69999999999999C70.24639729952621,1.4999999999999991,71.49999999999999,2.753602700473777,71.49999999999999,4.299999999999999V20.4C71.49999999999999,21.94639729952622,70.24639729952621,23.2,68.69999999999999,23.2H15.499999999999993C13.953602700473771,23.2,12.699999999999992,21.94639729952622,12.699999999999992,20.4V17.25H7.0999999999999925V19C7.0999999999999925,20.353097637085444,6.003097637085437,21.45,4.649999999999993,21.45H3.949999999999993C2.596902362914549,21.45,1.4999999999999933,20.353097637085444,1.4999999999999933,19z"/>
<text transform="matrix( 1 0 0 1 34 16)" fill="#8c2a6e" font-family="Verdana" font-size="13">40</text>
</g>
<linearGradient x1="0" y1="0" x2="90" y2="32" gradientUnits="userSpaceOnUse" id="input_pink_1456251500765">
<stop offset="0.0" stop-color="#fcc4f9" stop-opacity="1"/>
<stop offset="1.0" stop-color="#f991f3" stop-opacity="1"/>
</linearGradient>
</g>

<g transform="matrix(1 0 0 1 5 7)">
<g transform="matrix( 1 0 0 1 0 0)">
<path fill="none" stroke="#00a500" stroke-width="2.0999999999999996" stroke-miterlimit="10" d="M1.5,9.899999999999999C1.5,5.2608081014213335,5.2608081014213335,1.5,9.899999999999999,1.5H22.5V2.76C22.5,4.306397299526221,23.753602700473778,5.56,25.3,5.56H37.9C39.44639729952622,5.56,40.699999999999996,4.306397299526221,40.699999999999996,2.76V1.4999999999999998H53.3C57.93919189857866,1.4999999999999998,61.699999999999996,5.2608081014213335,61.699999999999996,9.899999999999999V31.599999999999998C61.699999999999996,36.23919189857866,57.93919189857866,40,53.3,40H40V41.26C40,42.80639729952622,38.74639729952622,44.059999999999995,37.2,44.059999999999995H26.000000000000004C24.45360270047378,44.059999999999995,23.200000000000003,42.80639729952622,23.200000000000003,41.26V40H9.900000000000004C5.260808101421339,40,1.5000000000000053,36.23919189857867,1.5000000000000053,31.6z"/>
<path fill="url(#cmd0_green_1456251329765)" stroke="none" d="M1.5,9.899999999999999C1.5,5.2608081014213335,5.2608081014213335,1.5,9.899999999999999,1.5H22.5V2.76C22.5,4.306397299526221,23.753602700473778,5.56,25.3,5.56H37.9C39.44639729952622,5.56,40.699999999999996,4.306397299526221,40.699999999999996,2.76V1.4999999999999998H53.3C57.93919189857866,1.4999999999999998,61.699999999999996,5.2608081014213335,61.699999999999996,9.899999999999999V31.599999999999998C61.699999999999996,36.23919189857866,57.93919189857866,40,53.3,40H40V41.26C40,42.80639729952622,38.74639729952622,44.059999999999995,37.2,44.059999999999995H26.000000000000004C24.45360270047378,44.059999999999995,23.200000000000003,42.80639729952622,23.200000000000003,41.26V40H9.900000000000004C5.260808101421339,40,1.5000000000000053,36.23919189857867,1.5000000000000053,31.6z"/>
<text transform="matrix( 1 0 0 1 14.440673828125 25)" fill="#128c12" font-family="Verdana" font-size="13">clean</text>
</g>
<linearGradient x1="20" y1="0" x2="42" y2="48" gradientUnits="userSpaceOnUse" id="cmd0_green_1456251329765">
<stop offset="0.0" stop-color="#a1ff72" stop-opacity="1"/>
<stop offset="1.0" stop-color="#00f200" stop-opacity="1"/>
</linearGradient>
</g>

<g transform="matrix(1 0 0 1 5 47)">
<g transform="matrix( 1 0 0 1 0 0)">
<path fill="none" stroke="#cc7e02" stroke-width="2.0999999999999996" stroke-miterlimit="10" d="M1.5,9.899999999999999C1.5,5.2608081014213335,5.2608081014213335,1.5,9.899999999999999,1.5H22.5V2.76C22.5,4.306397299526221,23.753602700473778,5.56,25.3,5.56H37.9C39.44639729952622,5.56,40.699999999999996,4.306397299526221,40.699999999999996,2.76V1.4999999999999998H53.3C56.959599999999995,1.4999999999999998,60.0725,3.8344999999999994,61.224,7.1H65.9035C69.38289392393399,7.1,72.20349999999999,9.920606076065999,72.20349999999999,13.399999999999999V14.799999999999999H68.70349999999999V13.399999999999999C68.70349999999999,11.853602700473777,67.44989729952621,10.599999999999998,65.9035,10.599999999999998H64.50349999999999C62.95710270047377,10.599999999999998,61.70349999999999,11.853602700473777,61.70349999999999,13.399999999999999V28.099999999999998C61.70349999999999,29.64639729952622,62.95710270047377,30.9,64.50349999999999,30.9H65.9035C67.44989729952621,30.9,68.70349999999999,29.64639729952622,68.70349999999999,28.099999999999998V26.7H72.20349999999999V35.099999999999994C72.20349999999999,37.419595949289324,74.08390405071066,39.3,76.4035,39.3H135.90349999999998C137.4498972995262,39.3,138.7035,40.553602700473775,138.7035,42.099999999999994V49.099999999999994H134.03799999999998C132.89489999999998,45.81909999999999,129.7736,43.49999999999999,126.10349999999998,43.49999999999999H112.80349999999999V44.75999999999999C112.80349999999999,46.30639729952621,111.54989729952621,47.55999999999999,110.00349999999999,47.55999999999999H98.80349999999999C97.25710270047377,47.55999999999999,96.00349999999999,46.30639729952621,96.00349999999999,44.75999999999999V43.49999999999999H82.00349999999999C77.36430810142133,43.49999999999999,73.6035,47.260808101421325,73.6035,51.89999999999999V76.39999999999999C73.6035,81.03919189857865,69.84269189857865,84.79999999999998,65.20349999999999,84.79999999999998H40.00349999999999V86.05999999999999C40.00349999999999,87.60639729952621,38.74989729952621,88.85999999999999,37.20349999999999,88.85999999999999H26.003499999999992C24.45710270047377,88.85999999999999,23.20349999999999,87.60639729952621,23.20349999999999,86.05999999999999V84.79999999999998H9.903499999999992C5.264308101421327,84.79999999999998,1.5034999999999936,81.03919189857864,1.5034999999999936,76.39999999999998z"/>
<path fill="url(#repeat_orange_1456251409526)" stroke="none" d="M1.5,9.899999999999999C1.5,5.2608081014213335,5.2608081014213335,1.5,9.899999999999999,1.5H22.5V2.76C22.5,4.306397299526221,23.753602700473778,5.56,25.3,5.56H37.9C39.44639729952622,5.56,40.699999999999996,4.306397299526221,40.699999999999996,2.76V1.4999999999999998H53.3C56.959599999999995,1.4999999999999998,60.0725,3.8344999999999994,61.224,7.1H65.9035C69.38289392393399,7.1,72.20349999999999,9.920606076065999,72.20349999999999,13.399999999999999V14.799999999999999H68.70349999999999V13.399999999999999C68.70349999999999,11.853602700473777,67.44989729952621,10.599999999999998,65.9035,10.599999999999998H64.50349999999999C62.95710270047377,10.599999999999998,61.70349999999999,11.853602700473777,61.70349999999999,13.399999999999999V28.099999999999998C61.70349999999999,29.64639729952622,62.95710270047377,30.9,64.50349999999999,30.9H65.9035C67.44989729952621,30.9,68.70349999999999,29.64639729952622,68.70349999999999,28.099999999999998V26.7H72.20349999999999V35.099999999999994C72.20349999999999,37.419595949289324,74.08390405071066,39.3,76.4035,39.3H135.90349999999998C137.4498972995262,39.3,138.7035,40.553602700473775,138.7035,42.099999999999994V49.099999999999994H134.03799999999998C132.89489999999998,45.81909999999999,129.7736,43.49999999999999,126.10349999999998,43.49999999999999H112.80349999999999V44.75999999999999C112.80349999999999,46.30639729952621,111.54989729952621,47.55999999999999,110.00349999999999,47.55999999999999H98.80349999999999C97.25710270047377,47.55999999999999,96.00349999999999,46.30639729952621,96.00349999999999,44.75999999999999V43.49999999999999H82.00349999999999C77.36430810142133,43.49999999999999,73.6035,47.260808101421325,73.6035,51.89999999999999V76.39999999999999C73.6035,81.03919189857865,69.84269189857865,84.79999999999998,65.20349999999999,84.79999999999998H40.00349999999999V86.05999999999999C40.00349999999999,87.60639729952621,38.74989729952621,88.85999999999999,37.20349999999999,88.85999999999999H26.003499999999992C24.45710270047377,88.85999999999999,23.20349999999999,87.60639729952621,23.20349999999999,86.05999999999999V84.79999999999998H9.903499999999992C5.264308101421327,84.79999999999998,1.5034999999999936,81.03919189857864,1.5034999999999936,76.39999999999998z"/>
<text transform="matrix( 1 0 0 1 10.467041015625 25)" fill="#8b6010" font-family="Verdana" font-size="13">repeat</text>
</g>
<linearGradient x1="20" y1="0" x2="42" y2="48" gradientUnits="userSpaceOnUse" id="repeat_orange_1456251409526">
<stop offset="0.0" stop-color="#ffdf60" stop-opacity="1"/>
<stop offset="1.0" stop-color="#ffbb00" stop-opacity="1"/>
</linearGradient>
</g>

<g transform="matrix(1 0 0 1 66 55)">
<g transform="matrix( 1 0 0 1 0 0)">
<path fill="none" stroke="#cc66b9" stroke-width="2.0999999999999996" stroke-miterlimit="10" d="M1.5,5.699999999999999C1.5,4.346902362914555,2.5969023629145553,3.2499999999999996,3.9499999999999997,3.2499999999999996H4.6499999999999995C6.003097637085443,3.2499999999999996,7.1,4.346902362914555,7.1,5.699999999999999V7.449999999999999H12.7V4.299999999999999C12.7,2.753602700473777,13.953602700473779,1.4999999999999991,15.5,1.4999999999999991H68.69999999999999C70.24639729952621,1.4999999999999991,71.49999999999999,2.753602700473777,71.49999999999999,4.299999999999999V20.4C71.49999999999999,21.94639729952622,70.24639729952621,23.2,68.69999999999999,23.2H15.499999999999993C13.953602700473771,23.2,12.699999999999992,21.94639729952622,12.699999999999992,20.4V17.25H7.0999999999999925V19C7.0999999999999925,20.353097637085444,6.003097637085437,21.45,4.649999999999993,21.45H3.949999999999993C2.596902362914549,21.45,1.4999999999999933,20.353097637085444,1.4999999999999933,19z"/>
<path fill="url(#input_pink_1456251500765)" stroke="none" d="M1.5,5.699999999999999C1.5,4.346902362914555,2.5969023629145553,3.2499999999999996,3.9499999999999997,3.2499999999999996H4.6499999999999995C6.003097637085443,3.2499999999999996,7.1,4.346902362914555,7.1,5.699999999999999V7.449999999999999H12.7V4.299999999999999C12.7,2.753602700473777,13.953602700473779,1.4999999999999991,15.5,1.4999999999999991H68.69999999999999C70.24639729952621,1.4999999999999991,71.49999999999999,2.753602700473777,71.49999999999999,4.299999999999999V20.4C71.49999999999999,21.94639729952622,70.24639729952621,23.2,68.69999999999999,23.2H15.499999999999993C13.953602700473771,23.2,12.699999999999992,21.94639729952622,12.699999999999992,20.4V17.25H7.0999999999999925V19C7.0999999999999925,20.353097637085444,6.003097637085437,21.45,4.649999999999993,21.45H3.949999999999993C2.596902362914549,21.45,1.4999999999999933,20.353097637085444,1.4999999999999933,19z"/>
<text transform="matrix( 1 0 0 1 34.5 16)" fill="#8c2a6e" font-family="Verdana" font-size="13">10</text>
</g>
<linearGradient x1="0" y1="0" x2="90" y2="32" gradientUnits="userSpaceOnUse" id="input_pink_1456251500765">
<stop offset="0.0" stop-color="#fcc4f9" stop-opacity="1"/>
<stop offset="1.0" stop-color="#f991f3" stop-opacity="1"/>
</linearGradient>
</g>

<g transform="matrix(1 0 0 1 78 90)">
<g transform="matrix( 1 0 0 1 0 0)">
<path fill="none" stroke="#00a500" stroke-width="2.0999999999999996" stroke-miterlimit="10" d="M1.5,9.899999999999999C1.5,5.2608081014213335,5.2608081014213335,1.5,9.899999999999999,1.5H22.5V2.76C22.5,4.306397299526221,23.753602700473778,5.56,25.3,5.56H37.9C39.44639729952622,5.56,40.699999999999996,4.306397299526221,40.699999999999996,2.76V1.4999999999999998H53.3C56.959599999999995,1.4999999999999998,60.0725,3.8344999999999994,61.224,7.1H65.9035C69.38289392393399,7.1,72.20349999999999,9.920606076065999,72.20349999999999,13.399999999999999V14.799999999999999H68.70349999999999V13.399999999999999C68.70349999999999,11.853602700473777,67.44989729952621,10.599999999999998,65.9035,10.599999999999998H64.50349999999999C62.95710270047377,10.599999999999998,61.70349999999999,11.853602700473777,61.70349999999999,13.399999999999999V28.099999999999998C61.70349999999999,29.64639729952622,62.95710270047377,30.9,64.50349999999999,30.9H65.9035C67.44989729952621,30.9,68.70349999999999,29.64639729952622,68.70349999999999,28.099999999999998V26.7H72.20349999999999V28.099999999999998C72.20349999999999,31.579393923934,69.38289392393399,34.4,65.9035,34.4H61.70349999999999V47H65.9035C69.38289392393399,47,72.20349999999999,49.820606076066,72.20349999999999,53.3V54.699999999999996H68.70349999999999V53.3C68.70349999999999,51.75360270047378,67.44989729952621,50.5,65.9035,50.5H64.50349999999999C62.95710270047377,50.5,61.70349999999999,51.75360270047378,61.70349999999999,53.3V68C61.70349999999999,69.54639729952622,62.95710270047377,70.8,64.50349999999999,70.8H65.9035C67.44989729952621,70.8,68.70349999999999,69.54639729952622,68.70349999999999,68V66.6H72.20349999999999V68C72.20349999999999,71.479393923934,69.38289392393399,74.3,65.9035,74.3H61.224C60.0697,77.5599,56.9589,79.89999999999999,53.3035,79.89999999999999H40.0035V81.16C40.0035,82.70639729952622,38.749897299526225,83.96,37.203500000000005,83.96H26.003500000000006C24.457102700473783,83.96,23.203500000000005,82.70639729952622,23.203500000000005,81.16V79.89999999999999H9.903500000000006C5.264308101421341,79.89999999999999,1.5035000000000078,76.13919189857866,1.5035000000000078,71.5z"/>
<path fill="url(#cmd2_green_1456852977351)" stroke="none" d="M1.5,9.899999999999999C1.5,5.2608081014213335,5.2608081014213335,1.5,9.899999999999999,1.5H22.5V2.76C22.5,4.306397299526221,23.753602700473778,5.56,25.3,5.56H37.9C39.44639729952622,5.56,40.699999999999996,4.306397299526221,40.699999999999996,2.76V1.4999999999999998H53.3C56.959599999999995,1.4999999999999998,60.0725,3.8344999999999994,61.224,7.1H65.9035C69.38289392393399,7.1,72.20349999999999,9.920606076065999,72.20349999999999,13.399999999999999V14.799999999999999H68.70349999999999V13.399999999999999C68.70349999999999,11.853602700473777,67.44989729952621,10.599999999999998,65.9035,10.599999999999998H64.50349999999999C62.95710270047377,10.599999999999998,61.70349999999999,11.853602700473777,61.70349999999999,13.399999999999999V28.099999999999998C61.70349999999999,29.64639729952622,62.95710270047377,30.9,64.50349999999999,30.9H65.9035C67.44989729952621,30.9,68.70349999999999,29.64639729952622,68.70349999999999,28.099999999999998V26.7H72.20349999999999V28.099999999999998C72.20349999999999,31.579393923934,69.38289392393399,34.4,65.9035,34.4H61.70349999999999V47H65.9035C69.38289392393399,47,72.20349999999999,49.820606076066,72.20349999999999,53.3V54.699999999999996H68.70349999999999V53.3C68.70349999999999,51.75360270047378,67.44989729952621,50.5,65.9035,50.5H64.50349999999999C62.95710270047377,50.5,61.70349999999999,51.75360270047378,61.70349999999999,53.3V68C61.70349999999999,69.54639729952622,62.95710270047377,70.8,64.50349999999999,70.8H65.9035C67.44989729952621,70.8,68.70349999999999,69.54639729952622,68.70349999999999,68V66.6H72.20349999999999V68C72.20349999999999,71.479393923934,69.38289392393399,74.3,65.9035,74.3H61.224C60.0697,77.5599,56.9589,79.89999999999999,53.3035,79.89999999999999H40.0035V81.16C40.0035,82.70639729952622,38.749897299526225,83.96,37.203500000000005,83.96H26.003500000000006C24.457102700473783,83.96,23.203500000000005,82.70639729952622,23.203500000000005,81.16V79.89999999999999H9.903500000000006C5.264308101421341,79.89999999999999,1.5035000000000078,76.13919189857866,1.5035000000000078,71.5z"/>
<text transform="matrix( 1 0 0 1 13.98681640625 42)" fill="#128c12" font-family="Verdana" font-size="13">setxy</text>
<text transform="matrix( 1 0 0 1 52.673828125 20)" fill="#128c12" font-family="Verdana" font-size="9">x</text>
<text transform="matrix( 1 0 0 1 52.673828125 65)" fill="#128c12" font-family="Verdana" font-size="9">y</text>
</g>
<linearGradient x1="20" y1="0" x2="42" y2="48" gradientUnits="userSpaceOnUse" id="cmd2_green_1456852977351">
<stop offset="0.0" stop-color="#a1ff72" stop-opacity="1"/>
<stop offset="1.0" stop-color="#00f200" stop-opacity="1"/>
</linearGradient>
</g>

<g transform="matrix(1 0 0 1 139 98)">
<g transform="matrix( 1 0 0 1 0 0)">
<path fill="none" stroke="#cc66b9" stroke-width="2.0999999999999996" stroke-miterlimit="10" d="M1.5,5.699999999999999C1.5,4.346902362914555,2.5969023629145553,3.2499999999999996,3.9499999999999997,3.2499999999999996H4.6499999999999995C6.003097637085443,3.2499999999999996,7.1,4.346902362914555,7.1,5.699999999999999V7.449999999999999H12.7V4.299999999999999C12.7,2.753602700473777,13.953602700473779,1.4999999999999991,15.5,1.4999999999999991H68.69999999999999C70.24639729952621,1.4999999999999991,71.49999999999999,2.753602700473777,71.49999999999999,4.299999999999999V20.4C71.49999999999999,21.94639729952622,70.24639729952621,23.2,68.69999999999999,23.2H15.499999999999993C13.953602700473771,23.2,12.699999999999992,21.94639729952622,12.699999999999992,20.4V17.25H7.0999999999999925V19C7.0999999999999925,20.353097637085444,6.003097637085437,21.45,4.649999999999993,21.45H3.949999999999993C2.596902362914549,21.45,1.4999999999999933,20.353097637085444,1.4999999999999933,19z"/>
<path fill="url(#input_pink_1456251500765)" stroke="none" d="M1.5,5.699999999999999C1.5,4.346902362914555,2.5969023629145553,3.2499999999999996,3.9499999999999997,3.2499999999999996H4.6499999999999995C6.003097637085443,3.2499999999999996,7.1,4.346902362914555,7.1,5.699999999999999V7.449999999999999H12.7V4.299999999999999C12.7,2.753602700473777,13.953602700473779,1.4999999999999991,15.5,1.4999999999999991H68.69999999999999C70.24639729952621,1.4999999999999991,71.49999999999999,2.753602700473777,71.49999999999999,4.299999999999999V20.4C71.49999999999999,21.94639729952622,70.24639729952621,23.2,68.69999999999999,23.2H15.499999999999993C13.953602700473771,23.2,12.699999999999992,21.94639729952622,12.699999999999992,20.4V17.25H7.0999999999999925V19C7.0999999999999925,20.353097637085444,6.003097637085437,21.45,4.649999999999993,21.45H3.949999999999993C2.596902362914549,21.45,1.4999999999999933,20.353097637085444,1.4999999999999933,19z"/>
<text transform="matrix( 1 0 0 1 38 16)" fill="#8c2a6e" font-family="Verdana" font-size="13">0</text>
</g>
<linearGradient x1="0" y1="0" x2="90" y2="32" gradientUnits="userSpaceOnUse" id="input_pink_1456251500765">
<stop offset="0.0" stop-color="#fcc4f9" stop-opacity="1"/>
<stop offset="1.0" stop-color="#f991f3" stop-opacity="1"/>
</linearGradient>
</g>

<g transform="matrix(1 0 0 1 139 138)">
<g transform="matrix( 1 0 0 1 0 0)">
<path fill="none" stroke="#cc66b9" stroke-width="2.0999999999999996" stroke-miterlimit="10" d="M1.5,5.699999999999999C1.5,4.346902362914555,2.5969023629145553,3.2499999999999996,3.9499999999999997,3.2499999999999996H4.6499999999999995C6.003097637085443,3.2499999999999996,7.1,4.346902362914555,7.1,5.699999999999999V7.449999999999999H12.7V4.299999999999999C12.7,2.753602700473777,13.953602700473779,1.4999999999999991,15.5,1.4999999999999991H68.69999999999999C70.24639729952621,1.4999999999999991,71.49999999999999,2.753602700473777,71.49999999999999,4.299999999999999V20.4C71.49999999999999,21.94639729952622,70.24639729952621,23.2,68.69999999999999,23.2H15.499999999999993C13.953602700473771,23.2,12.699999999999992,21.94639729952622,12.699999999999992,20.4V17.25H7.0999999999999925V19C7.0999999999999925,20.353097637085444,6.003097637085437,21.45,4.649999999999993,21.45H3.949999999999993C2.596902362914549,21.45,1.4999999999999933,20.353097637085444,1.4999999999999933,19z"/>
<path fill="url(#input_pink_1456251500765)" stroke="none" d="M1.5,5.699999999999999C1.5,4.346902362914555,2.5969023629145553,3.2499999999999996,3.9499999999999997,3.2499999999999996H4.6499999999999995C6.003097637085443,3.2499999999999996,7.1,4.346902362914555,7.1,5.699999999999999V7.449999999999999H12.7V4.299999999999999C12.7,2.753602700473777,13.953602700473779,1.4999999999999991,15.5,1.4999999999999991H68.69999999999999C70.24639729952621,1.4999999999999991,71.49999999999999,2.753602700473777,71.49999999999999,4.299999999999999V20.4C71.49999999999999,21.94639729952622,70.24639729952621,23.2,68.69999999999999,23.2H15.499999999999993C13.953602700473771,23.2,12.699999999999992,21.94639729952622,12.699999999999992,20.4V17.25H7.0999999999999925V19C7.0999999999999925,20.353097637085444,6.003097637085437,21.45,4.649999999999993,21.45H3.949999999999993C2.596902362914549,21.45,1.4999999999999933,20.353097637085444,1.4999999999999933,19z"/>
<text transform="matrix( 1 0 0 1 38 16)" fill="#8c2a6e" font-family="Verdana" font-size="13">0</text>
</g>
<linearGradient x1="0" y1="0" x2="90" y2="32" gradientUnits="userSpaceOnUse" id="input_pink_1456251500765">
<stop offset="0.0" stop-color="#fcc4f9" stop-opacity="1"/>
<stop offset="1.0" stop-color="#f991f3" stop-opacity="1"/>
</linearGradient>
</g>

<g transform="matrix(1 0 0 1 78 169)">
<g transform="matrix( 1 0 0 1 0 0)">
<path fill="none" stroke="#bfaf00" stroke-width="2.0999999999999996" stroke-miterlimit="10" d="M1.5,9.899999999999999C1.5,5.2608081014213335,5.2608081014213335,1.5,9.899999999999999,1.5H22.5V2.76C22.5,4.306397299526221,23.753602700473778,5.56,25.3,5.56H37.9C39.44639729952622,5.56,40.699999999999996,4.306397299526221,40.699999999999996,2.76V1.4999999999999998H53.3C57.93919189857866,1.4999999999999998,61.699999999999996,5.2608081014213335,61.699999999999996,9.899999999999999V31.599999999999998C61.699999999999996,36.23919189857866,57.93919189857866,40,53.3,40H40V41.26C40,42.80639729952622,38.74639729952622,44.059999999999995,37.2,44.059999999999995H26.000000000000004C24.45360270047378,44.059999999999995,23.200000000000003,42.80639729952622,23.200000000000003,41.26V40H9.900000000000004C5.260808101421339,40,1.5000000000000053,36.23919189857867,1.5000000000000053,31.6z"/>
<path fill="url(#cmd0_yellow_1456335895980)" stroke="none" d="M1.5,9.899999999999999C1.5,5.2608081014213335,5.2608081014213335,1.5,9.899999999999999,1.5H22.5V2.76C22.5,4.306397299526221,23.753602700473778,5.56,25.3,5.56H37.9C39.44639729952622,5.56,40.699999999999996,4.306397299526221,40.699999999999996,2.76V1.4999999999999998H53.3C57.93919189857866,1.4999999999999998,61.699999999999996,5.2608081014213335,61.699999999999996,9.899999999999999V31.599999999999998C61.699999999999996,36.23919189857866,57.93919189857866,40,53.3,40H40V41.26C40,42.80639729952622,38.74639729952622,44.059999999999995,37.2,44.059999999999995H26.000000000000004C24.45360270047378,44.059999999999995,23.200000000000003,42.80639729952622,23.200000000000003,41.26V40H9.900000000000004C5.260808101421339,40,1.5000000000000053,36.23919189857867,1.5000000000000053,31.6z"/>
<text transform="matrix( 1 0 0 1 10 25)" fill="#8c7a15" font-family="Verdana" font-size="13">dashes</text>
</g>
<linearGradient x1="20" y1="0" x2="42" y2="48" gradientUnits="userSpaceOnUse" id="cmd0_yellow_1456335895980">
<stop offset="0.0" stop-color="#ffff72" stop-opacity="1"/>
<stop offset="1.0" stop-color="#fff600" stop-opacity="1"/>
</linearGradient>
</g>

<g transform="matrix(1 0 0 1 78 209)">
<g transform="matrix( 1 0 0 1 0 0)">
<path fill="none" stroke="#00a500" stroke-width="2.0999999999999996" stroke-miterlimit="10" d="M1.5,9.899999999999999C1.5,5.2608081014213335,5.2608081014213335,1.5,9.899999999999999,1.5H22.5V2.76C22.5,4.306397299526221,23.753602700473778,5.56,25.3,5.56H37.9C39.44639729952622,5.56,40.699999999999996,4.306397299526221,40.699999999999996,2.76V1.4999999999999998H53.3C56.959599999999995,1.4999999999999998,60.0725,3.8344999999999994,61.224,7.1H65.9035C69.38289392393399,7.1,72.20349999999999,9.920606076065999,72.20349999999999,13.399999999999999V14.799999999999999H68.70349999999999V13.399999999999999C68.70349999999999,11.853602700473777,67.44989729952621,10.599999999999998,65.9035,10.599999999999998H64.50349999999999C62.95710270047377,10.599999999999998,61.70349999999999,11.853602700473777,61.70349999999999,13.399999999999999V28.099999999999998C61.70349999999999,29.64639729952622,62.95710270047377,30.9,64.50349999999999,30.9H65.9035C67.44989729952621,30.9,68.70349999999999,29.64639729952622,68.70349999999999,28.099999999999998V26.7H72.20349999999999V28.099999999999998C72.20349999999999,31.579393923934,69.38289392393399,34.4,65.9035,34.4H61.224C60.0697,37.6599,56.9589,40,53.3035,40H40.0035V41.26C40.0035,42.80639729952622,38.749897299526225,44.059999999999995,37.203500000000005,44.059999999999995H26.003500000000006C24.457102700473783,44.059999999999995,23.203500000000005,42.80639729952622,23.203500000000005,41.26V40H9.903500000000006C5.264308101421341,40,1.5035000000000078,36.23919189857867,1.5035000000000078,31.6z"/>
<path fill="url(#cmd_green_1456251329752)" stroke="none" d="M1.5,9.899999999999999C1.5,5.2608081014213335,5.2608081014213335,1.5,9.899999999999999,1.5H22.5V2.76C22.5,4.306397299526221,23.753602700473778,5.56,25.3,5.56H37.9C39.44639729952622,5.56,40.699999999999996,4.306397299526221,40.699999999999996,2.76V1.4999999999999998H53.3C56.959599999999995,1.4999999999999998,60.0725,3.8344999999999994,61.224,7.1H65.9035C69.38289392393399,7.1,72.20349999999999,9.920606076065999,72.20349999999999,13.399999999999999V14.799999999999999H68.70349999999999V13.399999999999999C68.70349999999999,11.853602700473777,67.44989729952621,10.599999999999998,65.9035,10.599999999999998H64.50349999999999C62.95710270047377,10.599999999999998,61.70349999999999,11.853602700473777,61.70349999999999,13.399999999999999V28.099999999999998C61.70349999999999,29.64639729952622,62.95710270047377,30.9,64.50349999999999,30.9H65.9035C67.44989729952621,30.9,68.70349999999999,29.64639729952622,68.70349999999999,28.099999999999998V26.7H72.20349999999999V28.099999999999998C72.20349999999999,31.579393923934,69.38289392393399,34.4,65.9035,34.4H61.224C60.0697,37.6599,56.9589,40,53.3035,40H40.0035V41.26C40.0035,42.80639729952622,38.749897299526225,44.059999999999995,37.203500000000005,44.059999999999995H26.003500000000006C24.457102700473783,44.059999999999995,23.203500000000005,42.80639729952622,23.203500000000005,41.26V40H9.903500000000006C5.264308101421341,40,1.5035000000000078,36.23919189857867,1.5035000000000078,31.6z"/>
<text transform="matrix( 1 0 0 1 16.218017578125 25)" fill="#128c12" font-family="Verdana" font-size="13">right</text>
</g>
<linearGradient x1="20" y1="0" x2="42" y2="48" gradientUnits="userSpaceOnUse" id="cmd_green_1456251329752">
<stop offset="0.0" stop-color="#a1ff72" stop-opacity="1"/>
<stop offset="1.0" stop-color="#00f200" stop-opacity="1"/>
</linearGradient>
</g>

<g transform="matrix(1 0 0 1 139 217)">
<g transform="matrix( 1 0 0 1 0 0)">
<path fill="none" stroke="#cc66b9" stroke-width="2.0999999999999996" stroke-miterlimit="10" d="M1.5,5.699999999999999C1.5,4.346902362914555,2.5969023629145553,3.2499999999999996,3.9499999999999997,3.2499999999999996H4.6499999999999995C6.003097637085443,3.2499999999999996,7.1,4.346902362914555,7.1,5.699999999999999V7.449999999999999H12.7V4.299999999999999C12.7,2.753602700473777,13.953602700473779,1.4999999999999991,15.5,1.4999999999999991H68.69999999999999C70.24639729952621,1.4999999999999991,71.49999999999999,2.753602700473777,71.49999999999999,4.299999999999999V20.4C71.49999999999999,21.94639729952622,70.24639729952621,23.2,68.69999999999999,23.2H15.499999999999993C13.953602700473771,23.2,12.699999999999992,21.94639729952622,12.699999999999992,20.4V17.25H7.0999999999999925V19C7.0999999999999925,20.353097637085444,6.003097637085437,21.45,4.649999999999993,21.45H3.949999999999993C2.596902362914549,21.45,1.4999999999999933,20.353097637085444,1.4999999999999933,19z"/>
<path fill="url(#input_pink_1456251500765)" stroke="none" d="M1.5,5.699999999999999C1.5,4.346902362914555,2.5969023629145553,3.2499999999999996,3.9499999999999997,3.2499999999999996H4.6499999999999995C6.003097637085443,3.2499999999999996,7.1,4.346902362914555,7.1,5.699999999999999V7.449999999999999H12.7V4.299999999999999C12.7,2.753602700473777,13.953602700473779,1.4999999999999991,15.5,1.4999999999999991H68.69999999999999C70.24639729952621,1.4999999999999991,71.49999999999999,2.753602700473777,71.49999999999999,4.299999999999999V20.4C71.49999999999999,21.94639729952622,70.24639729952621,23.2,68.69999999999999,23.2H15.499999999999993C13.953602700473771,23.2,12.699999999999992,21.94639729952622,12.699999999999992,20.4V17.25H7.0999999999999925V19C7.0999999999999925,20.353097637085444,6.003097637085437,21.45,4.649999999999993,21.45H3.949999999999993C2.596902362914549,21.45,1.4999999999999933,20.353097637085444,1.4999999999999933,19z"/>
<text transform="matrix( 1 0 0 1 34.5 16)" fill="#8c2a6e" font-family="Verdana" font-size="13">36</text>
</g>
<linearGradient x1="0" y1="0" x2="90" y2="32" gradientUnits="userSpaceOnUse" id="input_pink_1456251500765">
<stop offset="0.0" stop-color="#fcc4f9" stop-opacity="1"/>
<stop offset="1.0" stop-color="#f991f3" stop-opacity="1"/>
</linearGradient>
</g>

</svg>
