<?xml version="1.0" encoding="utf-8"?>
<!-- Generator: Adobe Illustrator 24.0.1, SVG Export Plug-In . SVG Version: 6.00 Build 0)  -->
<svg version="1.1" id="Layer_1" xmlns="http://www.w3.org/2000/svg" xmlns:xlink="http://www.w3.org/1999/xlink" x="0px" y="0px"
	 viewBox="0 0 600 425" enable-background="new 0 0 600 425" xml:space="preserve">
<g>
	<g>
		<g transform="matrix(1 0 0 1 422.772705078125 478.8545227050781)">
			<g transform="matrix( 1 0 0 1 0 0)">
				<path fill="none" stroke="#BFAF00" stroke-width="1.89" stroke-miterlimit="10" d="M-329-99.9c0-4.2,3.4-7.6,7.6-7.6h11.3v1.1
					c0,1.4,1.1,2.5,2.5,2.5h11.3c1.4,0,2.5-1.1,2.5-2.5v-1.1h11.3c4.2,0,7.6,3.4,7.6,7.6v19.5c0,4.2-3.4,7.6-7.6,7.6h-12v1.1
					c0,1.4-1.1,2.5-2.5,2.5h-9.9c-1.4,0-2.5-1.1-2.5-2.5v-1.1h-12c-4.2,0-7.6-3.4-7.6-7.6C-329-80.4-329-99.9-329-99.9z"/>
				
					<linearGradient id="SVGID_1_" gradientUnits="userSpaceOnUse" x1="-733.6" y1="-462.7767" x2="-713.8" y2="-505.9768" gradientTransform="matrix(1 0 0 -1 422.7727 -572.2206)">
					<stop  offset="0" style="stop-color:#FFFF72"/>
					<stop  offset="1" style="stop-color:#FFF600"/>
				</linearGradient>
				<path fill="url(#SVGID_1_)" d="M-329-99.9c0-4.2,3.4-7.6,7.6-7.6h11.3v1.1c0,1.4,1.1,2.5,2.5,2.5h11.3c1.4,0,2.5-1.1,2.5-2.5
					v-1.1h11.3c4.2,0,7.6,3.4,7.6,7.6v19.5c0,4.2-3.4,7.6-7.6,7.6h-12v1.1c0,1.4-1.1,2.5-2.5,2.5h-9.9c-1.4,0-2.5-1.1-2.5-2.5v-1.1
					h-12c-4.2,0-7.6-3.4-7.6-7.6C-329-80.4-329-99.9-329-99.9z"/>
				<text transform="matrix(1 0 0 1 -312.4767 -85.6552)" fill="#8C7A15" font-family="'Verdana'" font-size="11.7px">star</text>
			</g>
		</g>
		<g transform="matrix(1 0 0 1 560.4727172851562 451.8545227050781)">
			<g transform="matrix( 1 0 0 1 0 0)">
				<path fill="none" stroke="#CC66B9" stroke-width="1.89" stroke-miterlimit="10" d="M-329-103.7c0-1.2,1-2.2,2.2-2.2h0.6
					c1.3,0,2.3,1,2.3,2.2v1.6h5v-2.8c0-1.4,1.1-2.5,2.5-2.5h47.9c1.4,0,2.5,1.1,2.5,2.5v14.5c0,1.4-1.1,2.5-2.5,2.5h-47.9
					c-1.4,0-2.5-1.1-2.5-2.5v-2.8h-5v1.6c0,1.2-1,2.2-2.2,2.2h-0.6c-1.2,0-2.2-1-2.2-2.2v-12.1H-329z"/>
				
					<linearGradient id="SVGID_2_" gradientUnits="userSpaceOnUse" x1="-890.4011" y1="-455.2762" x2="-809.4011" y2="-484.0762" gradientTransform="matrix(1 0 0 -1 560.4727 -565.1346)">
					<stop  offset="0" style="stop-color:#FCC4F9"/>
					<stop  offset="1" style="stop-color:#F991F3"/>
				</linearGradient>
				<path fill="url(#SVGID_2_)" d="M-329-103.7c0-1.2,1-2.2,2.2-2.2h0.6c1.3,0,2.3,1,2.3,2.2v1.6h5v-2.8c0-1.4,1.1-2.5,2.5-2.5h47.9
					c1.4,0,2.5,1.1,2.5,2.5v14.5c0,1.4-1.1,2.5-2.5,2.5h-47.9c-1.4,0-2.5-1.1-2.5-2.5v-2.8h-5v1.6c0,1.2-1,2.2-2.2,2.2h-0.6
					c-1.2,0-2.2-1-2.2-2.2v-12.1H-329z"/>
				<text transform="matrix(1 0 0 1 -300.452 -94.5552)" fill="#8C2A6E" font-family="'Verdana'" font-size="11.7px">25</text>
			</g>
		</g>
		<g transform="matrix(1 0 0 1 491.1727600097656 451.8545227050781)">
			<g transform="matrix( 1 0 0 1 0 0)">
				<path fill="none" stroke="#CC66B9" stroke-width="1.89" stroke-miterlimit="10" d="M-329-103.7c0-1.2,1-2.2,2.2-2.2h0.6
					c1.3,0,2.3,1,2.3,2.2v1.6h5v-2.8c0-1.4,1.1-2.5,2.5-2.5h47.9c1.4,0,2.5,1.1,2.5,2.5v14.5c0,1.4-1.1,2.5-2.5,2.5h-47.9
					c-1.4,0-2.5-1.1-2.5-2.5v-2.8h-5v1.6c0,1.2-1,2.2-2.2,2.2h-0.6c-1.2,0-2.2-1-2.2-2.2v-12.1H-329z"/>
				
					<linearGradient id="SVGID_3_" gradientUnits="userSpaceOnUse" x1="-821.1011" y1="-455.2762" x2="-740.1011" y2="-484.0762" gradientTransform="matrix(1 0 0 -1 491.1728 -565.1346)">
					<stop  offset="0" style="stop-color:#FCC4F9"/>
					<stop  offset="1" style="stop-color:#F991F3"/>
				</linearGradient>
				<path fill="url(#SVGID_3_)" d="M-329-103.7c0-1.2,1-2.2,2.2-2.2h0.6c1.3,0,2.3,1,2.3,2.2v1.6h5v-2.8c0-1.4,1.1-2.5,2.5-2.5h47.9
					c1.4,0,2.5,1.1,2.5,2.5v14.5c0,1.4-1.1,2.5-2.5,2.5h-47.9c-1.4,0-2.5-1.1-2.5-2.5v-2.8h-5v1.6c0,1.2-1,2.2-2.2,2.2h-0.6
					c-1.2,0-2.2-1-2.2-2.2v-12.1H-329z"/>
				<text transform="matrix(1 0 0 1 -303.1085 -94.5552)" fill="#8C2A6E" font-family="'Verdana'" font-size="11.7px">-25</text>
			</g>
		</g>
		<g transform="matrix(1 0 0 1 476.7727355957031 438.3545227050781)">
			<g transform="matrix( 1 0 0 1 0 0)">
				<path fill="none" stroke="#CC66B9" stroke-width="1.89" stroke-miterlimit="10" d="M-329-91.1c0-1.2,1-2.2,2.2-2.2h0.6
					c1.2,0,2.2,1,2.2,2.2v1.6h5v-2.8V-98c0-5.2,4.2-9.4,9.5-9.4h122.2c5.2,0,9.4,4.2,9.4,9.4v3.2h6.3c1.4,0,2.5,1.1,2.5,2.5v14.5
					c0,1.4-1.1,2.5-2.5,2.5h-6.3v2.5c0,1.4-1.1,2.5-2.5,2.5h-136c-1.4,0-2.5-1.1-2.5-2.5v-5v-2.8h-5v1.6c0,1.2-1,2.2-2.2,2.2h-0.6
					c-1.2,0-2.2-1-2.2-2.2v-12.1H-329z M-311.9-93.6c-1.2,0-2.2,1-2.2,2.2v12c0,1.2,1,2.2,2.2,2.2h0.6c1.2,0,2.2-1,2.2-2.2V-81h5
					v2.8c0,1.4,1.1,2.5,2.5,2.5h47.9c1.4,0,2.5-1.1,2.5-2.5v-14.4c0-1.4-1.1-2.5-2.5-2.5h-47.8c-1.4,0-2.5,1.1-2.5,2.5v2.8h-5v-1.6
					c0-1.2-1-2.2-2.2-2.2H-311.9z M-242.6-93.6c-1.2,0-2.2,1-2.2,2.2v12c0,1.2,1,2.2,2.2,2.2h0.6c1.2,0,2.2-1,2.2-2.2V-81h5v2.8
					c0,1.4,1.1,2.5,2.5,2.5h47.9c1.4,0,2.5-1.1,2.5-2.5v-14.4c0-1.4-1.1-2.5-2.5-2.5h-47.9c-1.4,0-2.5,1.1-2.5,2.5v2.8h-5v-1.6
					c0-1.2-1-2.2-2.2-2.2H-242.6z"/>
				
					<linearGradient id="SVGID_4_" gradientUnits="userSpaceOnUse" x1="-804.5186" y1="-417.5978" x2="-723.5185" y2="-446.3978" gradientTransform="matrix(1 0 0 -1 476.7727 -533.5945)">
					<stop  offset="0" style="stop-color:#FCC4F9"/>
					<stop  offset="1" style="stop-color:#F991F3"/>
				</linearGradient>
				<path fill="url(#SVGID_4_)" d="M-329-91.1c0-1.2,1-2.2,2.2-2.2h0.6c1.2,0,2.2,1,2.2,2.2v1.6h5v-2.8V-98c0-5.2,4.2-9.4,9.5-9.4
					h122.2c5.2,0,9.4,4.2,9.4,9.4v3.2h6.3c1.4,0,2.5,1.1,2.5,2.5v14.5c0,1.4-1.1,2.5-2.5,2.5h-6.3v2.5c0,1.4-1.1,2.5-2.5,2.5h-136
					c-1.4,0-2.5-1.1-2.5-2.5v-5v-2.8h-5v1.6c0,1.2-1,2.2-2.2,2.2h-0.6c-1.2,0-2.2-1-2.2-2.2v-12.1H-329z M-311.9-93.6
					c-1.2,0-2.2,1-2.2,2.2v12c0,1.2,1,2.2,2.2,2.2h0.6c1.2,0,2.2-1,2.2-2.2V-81h5v2.8c0,1.4,1.1,2.5,2.5,2.5h47.9
					c1.4,0,2.5-1.1,2.5-2.5v-14.4c0-1.4-1.1-2.5-2.5-2.5h-47.8c-1.4,0-2.5,1.1-2.5,2.5v2.8h-5v-1.6c0-1.2-1-2.2-2.2-2.2H-311.9z
					 M-242.6-93.6c-1.2,0-2.2,1-2.2,2.2v12c0,1.2,1,2.2,2.2,2.2h0.6c1.2,0,2.2-1,2.2-2.2V-81h5v2.8c0,1.4,1.1,2.5,2.5,2.5h47.9
					c1.4,0,2.5-1.1,2.5-2.5v-14.4c0-1.4-1.1-2.5-2.5-2.5h-47.9c-1.4,0-2.5,1.1-2.5,2.5v2.8h-5v-1.6c0-1.2-1-2.2-2.2-2.2H-242.6z"/>
				<text transform="matrix(1 0 0 1 -261.2235 -97.9606)" fill="#8C2A6E" font-family="'Verdana'" font-size="9px">one of</text>
			</g>
		</g>
		<g transform="matrix(1 0 0 1 422.772705078125 443.7545471191406)">
			<g transform="matrix( 1 0 0 1 0 0)">
				<path fill="none" stroke="#00A500" stroke-width="1.89" stroke-miterlimit="10" d="M-329-99.9c0-4.1,3.4-7.6,7.6-7.6h11.3v1.2
					c0,1.4,1.2,2.5,2.5,2.5h11.3c1.3,0,2.5-1.2,2.5-2.5v-1.2h11.3c3.3,0,6.1,2.1,7.1,5h4.2c3.1,0,5.7,2.5,5.7,5.7v1.3h-3.2v-1.3
					c0-1.4-1.2-2.5-2.5-2.5h-1.3c-1.4,0-2.5,1.2-2.5,2.5v13.2c0,1.4,1.2,2.5,2.5,2.5h1.3c1.3,0,2.5-1.2,2.5-2.5v-1.3h3.2v1.3
					c0,3.1-2.5,5.7-5.7,5.7h-4.2c-1,3-3.8,5-7.1,5h-12v1.2c0,1.3-1.2,2.5-2.5,2.5h-9.9c-1.4,0-2.5-1.2-2.5-2.5v-1.2h-12
					c-4.1,0-7.6-3.4-7.6-7.6C-329-80.5-329-99.9-329-99.9z"/>
				
					<linearGradient id="SVGID_5_" gradientUnits="userSpaceOnUse" x1="-730.3557" y1="759.3146" x2="-710.5557" y2="802.5146" gradientTransform="matrix(1 0 0 1 422.7727 -870.2455)">
					<stop  offset="0" style="stop-color:#A1FF72"/>
					<stop  offset="1" style="stop-color:#00F200"/>
				</linearGradient>
				<path fill="url(#SVGID_5_)" d="M-329-99.9c0-4.1,3.4-7.6,7.6-7.6h11.3v1.2c0,1.4,1.2,2.5,2.5,2.5h11.3c1.3,0,2.5-1.2,2.5-2.5
					v-1.2h11.3c3.3,0,6.1,2.1,7.1,5h4.2c3.1,0,5.7,2.5,5.7,5.7v1.3h-3.2v-1.3c0-1.4-1.2-2.5-2.5-2.5h-1.3c-1.4,0-2.5,1.2-2.5,2.5
					v13.2c0,1.4,1.2,2.5,2.5,2.5h1.3c1.3,0,2.5-1.2,2.5-2.5v-1.3h3.2v1.3c0,3.1-2.5,5.7-5.7,5.7h-4.2c-1,3-3.8,5-7.1,5h-12v1.2
					c0,1.3-1.2,2.5-2.5,2.5h-9.9c-1.4,0-2.5-1.2-2.5-2.5v-1.2h-12c-4.1,0-7.6-3.4-7.6-7.6C-329-80.5-329-99.9-329-99.9z"/>
				<text transform="matrix(1 0 0 1 -315.6493 -85.3605)" fill="#128C12" font-family="'Verdana'" font-size="11.7px">right</text>
			</g>
		</g>
		<g transform="matrix(1 0 0 1 560.4727172851562 416.7545471191406)">
			<g transform="matrix( 1 0 0 1 0 0)">
				<path fill="none" stroke="#CC66B9" stroke-width="1.89" stroke-miterlimit="10" d="M-329-103.7c0-1.2,1-2.2,2.2-2.2h0.6
					c1.3,0,2.3,1,2.3,2.2v1.6h5v-2.8c0-1.4,1.1-2.5,2.5-2.5h47.9c1.4,0,2.5,1.1,2.5,2.5v14.5c0,1.4-1.1,2.5-2.5,2.5h-47.9
					c-1.4,0-2.5-1.1-2.5-2.5v-2.8h-5v1.6c0,1.2-1,2.2-2.2,2.2h-0.6c-1.2,0-2.2-1-2.2-2.2v-12.1H-329z"/>
				
					<linearGradient id="SVGID_6_" gradientUnits="userSpaceOnUse" x1="-890.4011" y1="-420.1763" x2="-809.4011" y2="-448.9763" gradientTransform="matrix(1 0 0 -1 560.4727 -530.0345)">
					<stop  offset="0" style="stop-color:#FCC4F9"/>
					<stop  offset="1" style="stop-color:#F991F3"/>
				</linearGradient>
				<path fill="url(#SVGID_6_)" d="M-329-103.7c0-1.2,1-2.2,2.2-2.2h0.6c1.3,0,2.3,1,2.3,2.2v1.6h5v-2.8c0-1.4,1.1-2.5,2.5-2.5h47.9
					c1.4,0,2.5,1.1,2.5,2.5v14.5c0,1.4-1.1,2.5-2.5,2.5h-47.9c-1.4,0-2.5-1.1-2.5-2.5v-2.8h-5v1.6c0,1.2-1,2.2-2.2,2.2h-0.6
					c-1.2,0-2.2-1-2.2-2.2v-12.1H-329z"/>
				<text transform="matrix(1 0 0 1 -304.1711 -94.5552)" fill="#8C2A6E" font-family="'Verdana'" font-size="11.7px">270</text>
			</g>
		</g>
		<g transform="matrix(1 0 0 1 491.1727600097656 416.7545471191406)">
			<g transform="matrix( 1 0 0 1 0 0)">
				<path fill="none" stroke="#CC66B9" stroke-width="1.89" stroke-miterlimit="10" d="M-329-103.7c0-1.2,1-2.2,2.2-2.2h0.6
					c1.3,0,2.3,1,2.3,2.2v1.6h5v-2.8c0-1.4,1.1-2.5,2.5-2.5h47.9c1.4,0,2.5,1.1,2.5,2.5v14.5c0,1.4-1.1,2.5-2.5,2.5h-47.9
					c-1.4,0-2.5-1.1-2.5-2.5v-2.8h-5v1.6c0,1.2-1,2.2-2.2,2.2h-0.6c-1.2,0-2.2-1-2.2-2.2v-12.1H-329z"/>
				
					<linearGradient id="SVGID_7_" gradientUnits="userSpaceOnUse" x1="-821.1011" y1="-420.1763" x2="-740.1011" y2="-448.9763" gradientTransform="matrix(1 0 0 -1 491.1728 -530.0345)">
					<stop  offset="0" style="stop-color:#FCC4F9"/>
					<stop  offset="1" style="stop-color:#F991F3"/>
				</linearGradient>
				<path fill="url(#SVGID_7_)" d="M-329-103.7c0-1.2,1-2.2,2.2-2.2h0.6c1.3,0,2.3,1,2.3,2.2v1.6h5v-2.8c0-1.4,1.1-2.5,2.5-2.5h47.9
					c1.4,0,2.5,1.1,2.5,2.5v14.5c0,1.4-1.1,2.5-2.5,2.5h-47.9c-1.4,0-2.5-1.1-2.5-2.5v-2.8h-5v1.6c0,1.2-1,2.2-2.2,2.2h-0.6
					c-1.2,0-2.2-1-2.2-2.2v-12.1H-329z"/>
				<text transform="matrix(1 0 0 1 -306.8276 -94.5552)" fill="#8C2A6E" font-family="'Verdana'" font-size="11.7px">-270</text>
			</g>
		</g>
		<g transform="matrix(1 0 0 1 476.7727355957031 403.2545471191406)">
			<g transform="matrix( 1 0 0 1 0 0)">
				<path fill="none" stroke="#CC66B9" stroke-width="1.89" stroke-miterlimit="10" d="M-329-91.1c0-1.2,1-2.2,2.2-2.2h0.6
					c1.2,0,2.2,1,2.2,2.2v1.6h5v-2.8V-98c0-5.2,4.2-9.4,9.5-9.4h122.2c5.2,0,9.4,4.2,9.4,9.4v3.2h6.3c1.4,0,2.5,1.1,2.5,2.5v14.5
					c0,1.4-1.1,2.5-2.5,2.5h-6.3v2.5c0,1.4-1.1,2.5-2.5,2.5h-136c-1.4,0-2.5-1.1-2.5-2.5v-5v-2.8h-5v1.6c0,1.2-1,2.2-2.2,2.2h-0.6
					c-1.2,0-2.2-1-2.2-2.2v-12.1H-329z M-311.9-93.6c-1.2,0-2.2,1-2.2,2.2v12c0,1.2,1,2.2,2.2,2.2h0.6c1.2,0,2.2-1,2.2-2.2V-81h5
					v2.8c0,1.4,1.1,2.5,2.5,2.5h47.9c1.4,0,2.5-1.1,2.5-2.5v-14.4c0-1.4-1.1-2.5-2.5-2.5h-47.8c-1.4,0-2.5,1.1-2.5,2.5v2.8h-5v-1.6
					c0-1.2-1-2.2-2.2-2.2H-311.9z M-242.6-93.6c-1.2,0-2.2,1-2.2,2.2v12c0,1.2,1,2.2,2.2,2.2h0.6c1.2,0,2.2-1,2.2-2.2V-81h5v2.8
					c0,1.4,1.1,2.5,2.5,2.5h47.9c1.4,0,2.5-1.1,2.5-2.5v-14.4c0-1.4-1.1-2.5-2.5-2.5h-47.9c-1.4,0-2.5,1.1-2.5,2.5v2.8h-5v-1.6
					c0-1.2-1-2.2-2.2-2.2H-242.6z"/>
				
					<linearGradient id="SVGID_8_" gradientUnits="userSpaceOnUse" x1="-804.5186" y1="-382.4979" x2="-723.5185" y2="-411.2979" gradientTransform="matrix(1 0 0 -1 476.7727 -498.4945)">
					<stop  offset="0" style="stop-color:#FCC4F9"/>
					<stop  offset="1" style="stop-color:#F991F3"/>
				</linearGradient>
				<path fill="url(#SVGID_8_)" d="M-329-91.1c0-1.2,1-2.2,2.2-2.2h0.6c1.2,0,2.2,1,2.2,2.2v1.6h5v-2.8V-98c0-5.2,4.2-9.4,9.5-9.4
					h122.2c5.2,0,9.4,4.2,9.4,9.4v3.2h6.3c1.4,0,2.5,1.1,2.5,2.5v14.5c0,1.4-1.1,2.5-2.5,2.5h-6.3v2.5c0,1.4-1.1,2.5-2.5,2.5h-136
					c-1.4,0-2.5-1.1-2.5-2.5v-5v-2.8h-5v1.6c0,1.2-1,2.2-2.2,2.2h-0.6c-1.2,0-2.2-1-2.2-2.2v-12.1H-329z M-311.9-93.6
					c-1.2,0-2.2,1-2.2,2.2v12c0,1.2,1,2.2,2.2,2.2h0.6c1.2,0,2.2-1,2.2-2.2V-81h5v2.8c0,1.4,1.1,2.5,2.5,2.5h47.9
					c1.4,0,2.5-1.1,2.5-2.5v-14.4c0-1.4-1.1-2.5-2.5-2.5h-47.8c-1.4,0-2.5,1.1-2.5,2.5v2.8h-5v-1.6c0-1.2-1-2.2-2.2-2.2H-311.9z
					 M-242.6-93.6c-1.2,0-2.2,1-2.2,2.2v12c0,1.2,1,2.2,2.2,2.2h0.6c1.2,0,2.2-1,2.2-2.2V-81h5v2.8c0,1.4,1.1,2.5,2.5,2.5h47.9
					c1.4,0,2.5-1.1,2.5-2.5v-14.4c0-1.4-1.1-2.5-2.5-2.5h-47.9c-1.4,0-2.5,1.1-2.5,2.5v2.8h-5v-1.6c0-1.2-1-2.2-2.2-2.2H-242.6z"/>
				<text transform="matrix(1 0 0 1 -264.3725 -97.9606)" fill="#8C2A6E" font-family="'Verdana'" font-size="9px">random</text>
			</g>
		</g>
		<g transform="matrix(1 0 0 1 560.4727172851562 380.7545471191406)">
			<g transform="matrix( 1 0 0 1 0 0)">
				<path fill="none" stroke="#CC66B9" stroke-width="1.89" stroke-miterlimit="10" d="M-329-103.7c0-1.2,1-2.2,2.2-2.2h0.6
					c1.3,0,2.3,1,2.3,2.2v1.6h5v-2.8c0-1.4,1.1-2.5,2.5-2.5h47.9c1.4,0,2.5,1.1,2.5,2.5v14.5c0,1.4-1.1,2.5-2.5,2.5h-47.9
					c-1.4,0-2.5-1.1-2.5-2.5v-2.8h-5v1.6c0,1.2-1,2.2-2.2,2.2h-0.6c-1.2,0-2.2-1-2.2-2.2v-12.1H-329z"/>
				
					<linearGradient id="SVGID_9_" gradientUnits="userSpaceOnUse" x1="-890.4011" y1="-384.1763" x2="-809.4011" y2="-412.9763" gradientTransform="matrix(1 0 0 -1 560.4727 -494.0346)">
					<stop  offset="0" style="stop-color:#FCC4F9"/>
					<stop  offset="1" style="stop-color:#F991F3"/>
				</linearGradient>
				<path fill="url(#SVGID_9_)" d="M-329-103.7c0-1.2,1-2.2,2.2-2.2h0.6c1.3,0,2.3,1,2.3,2.2v1.6h5v-2.8c0-1.4,1.1-2.5,2.5-2.5h47.9
					c1.4,0,2.5,1.1,2.5,2.5v14.5c0,1.4-1.1,2.5-2.5,2.5h-47.9c-1.4,0-2.5-1.1-2.5-2.5v-2.8h-5v1.6c0,1.2-1,2.2-2.2,2.2h-0.6
					c-1.2,0-2.2-1-2.2-2.2v-12.1H-329z"/>
				<text transform="matrix(1 0 0 1 -304.1711 -94.5552)" fill="#8C2A6E" font-family="'Verdana'" font-size="11.7px">330</text>
			</g>
		</g>
		<g transform="matrix(1 0 0 1 491.1727600097656 380.7545471191406)">
			<g transform="matrix( 1 0 0 1 0 0)">
				<path fill="none" stroke="#CC66B9" stroke-width="1.89" stroke-miterlimit="10" d="M-329-103.7c0-1.2,1-2.2,2.2-2.2h0.6
					c1.3,0,2.3,1,2.3,2.2v1.6h5v-2.8c0-1.4,1.1-2.5,2.5-2.5h47.9c1.4,0,2.5,1.1,2.5,2.5v14.5c0,1.4-1.1,2.5-2.5,2.5h-47.9
					c-1.4,0-2.5-1.1-2.5-2.5v-2.8h-5v1.6c0,1.2-1,2.2-2.2,2.2h-0.6c-1.2,0-2.2-1-2.2-2.2v-12.1H-329z"/>
				
					<linearGradient id="SVGID_10_" gradientUnits="userSpaceOnUse" x1="-821.1011" y1="-384.1763" x2="-740.1011" y2="-412.9763" gradientTransform="matrix(1 0 0 -1 491.1728 -494.0346)">
					<stop  offset="0" style="stop-color:#FCC4F9"/>
					<stop  offset="1" style="stop-color:#F991F3"/>
				</linearGradient>
				<path fill="url(#SVGID_10_)" d="M-329-103.7c0-1.2,1-2.2,2.2-2.2h0.6c1.3,0,2.3,1,2.3,2.2v1.6h5v-2.8c0-1.4,1.1-2.5,2.5-2.5
					h47.9c1.4,0,2.5,1.1,2.5,2.5v14.5c0,1.4-1.1,2.5-2.5,2.5h-47.9c-1.4,0-2.5-1.1-2.5-2.5v-2.8h-5v1.6c0,1.2-1,2.2-2.2,2.2h-0.6
					c-1.2,0-2.2-1-2.2-2.2v-12.1H-329z"/>
				<text transform="matrix(1 0 0 1 -306.8276 -94.5552)" fill="#8C2A6E" font-family="'Verdana'" font-size="11.7px">-340</text>
			</g>
		</g>
		<g transform="matrix(1 0 0 1 476.7727355957031 367.2545471191406)">
			<g transform="matrix( 1 0 0 1 0 0)">
				<path fill="none" stroke="#CC66B9" stroke-width="1.89" stroke-miterlimit="10" d="M-329-91.1c0-1.2,1-2.2,2.2-2.2h0.6
					c1.2,0,2.2,1,2.2,2.2v1.6h5v-2.8V-98c0-5.2,4.2-9.4,9.5-9.4h122.2c5.2,0,9.4,4.2,9.4,9.4v3.2h6.3c1.4,0,2.5,1.1,2.5,2.5v14.5
					c0,1.4-1.1,2.5-2.5,2.5h-6.3v2.5c0,1.4-1.1,2.5-2.5,2.5h-136c-1.4,0-2.5-1.1-2.5-2.5v-5v-2.8h-5v1.6c0,1.2-1,2.2-2.2,2.2h-0.6
					c-1.2,0-2.2-1-2.2-2.2v-12.1H-329z M-311.9-93.6c-1.2,0-2.2,1-2.2,2.2v12c0,1.2,1,2.2,2.2,2.2h0.6c1.2,0,2.2-1,2.2-2.2V-81h5
					v2.8c0,1.4,1.1,2.5,2.5,2.5h47.9c1.4,0,2.5-1.1,2.5-2.5v-14.4c0-1.4-1.1-2.5-2.5-2.5h-47.8c-1.4,0-2.5,1.1-2.5,2.5v2.8h-5v-1.6
					c0-1.2-1-2.2-2.2-2.2H-311.9z M-242.6-93.6c-1.2,0-2.2,1-2.2,2.2v12c0,1.2,1,2.2,2.2,2.2h0.6c1.2,0,2.2-1,2.2-2.2V-81h5v2.8
					c0,1.4,1.1,2.5,2.5,2.5h47.9c1.4,0,2.5-1.1,2.5-2.5v-14.4c0-1.4-1.1-2.5-2.5-2.5h-47.9c-1.4,0-2.5,1.1-2.5,2.5v2.8h-5v-1.6
					c0-1.2-1-2.2-2.2-2.2H-242.6z"/>
				
					<linearGradient id="SVGID_11_" gradientUnits="userSpaceOnUse" x1="-804.5186" y1="-346.4979" x2="-723.5185" y2="-375.2979" gradientTransform="matrix(1 0 0 -1 476.7727 -462.4945)">
					<stop  offset="0" style="stop-color:#FCC4F9"/>
					<stop  offset="1" style="stop-color:#F991F3"/>
				</linearGradient>
				<path fill="url(#SVGID_11_)" d="M-329-91.1c0-1.2,1-2.2,2.2-2.2h0.6c1.2,0,2.2,1,2.2,2.2v1.6h5v-2.8V-98c0-5.2,4.2-9.4,9.5-9.4
					h122.2c5.2,0,9.4,4.2,9.4,9.4v3.2h6.3c1.4,0,2.5,1.1,2.5,2.5v14.5c0,1.4-1.1,2.5-2.5,2.5h-6.3v2.5c0,1.4-1.1,2.5-2.5,2.5h-136
					c-1.4,0-2.5-1.1-2.5-2.5v-5v-2.8h-5v1.6c0,1.2-1,2.2-2.2,2.2h-0.6c-1.2,0-2.2-1-2.2-2.2v-12.1H-329z M-311.9-93.6
					c-1.2,0-2.2,1-2.2,2.2v12c0,1.2,1,2.2,2.2,2.2h0.6c1.2,0,2.2-1,2.2-2.2V-81h5v2.8c0,1.4,1.1,2.5,2.5,2.5h47.9
					c1.4,0,2.5-1.1,2.5-2.5v-14.4c0-1.4-1.1-2.5-2.5-2.5h-47.8c-1.4,0-2.5,1.1-2.5,2.5v2.8h-5v-1.6c0-1.2-1-2.2-2.2-2.2H-311.9z
					 M-242.6-93.6c-1.2,0-2.2,1-2.2,2.2v12c0,1.2,1,2.2,2.2,2.2h0.6c1.2,0,2.2-1,2.2-2.2V-81h5v2.8c0,1.4,1.1,2.5,2.5,2.5h47.9
					c1.4,0,2.5-1.1,2.5-2.5v-14.4c0-1.4-1.1-2.5-2.5-2.5h-47.9c-1.4,0-2.5,1.1-2.5,2.5v2.8h-5v-1.6c0-1.2-1-2.2-2.2-2.2H-242.6z"/>
				<text transform="matrix(1 0 0 1 -264.3725 -97.9606)" fill="#8C2A6E" font-family="'Verdana'" font-size="9px">random</text>
			</g>
		</g>
		<g transform="matrix(1 0 0 1 422.772705078125 372.654541015625)">
			<g transform="matrix( 1 0 0 1 0 0)">
				<path fill="none" stroke="#00A500" stroke-width="1.89" stroke-miterlimit="10" d="M-329-99.9c0-4.1,3.4-7.6,7.6-7.6h11.3v1.2
					c0,1.4,1.2,2.5,2.5,2.5h11.3c1.3,0,2.5-1.2,2.5-2.5v-1.2h11.3c3.3,0,6.1,2.1,7.1,5h4.2c3.1,0,5.7,2.5,5.7,5.7v1.3h-3.2v-1.3
					c0-1.4-1.2-2.5-2.5-2.5h-1.3c-1.4,0-2.5,1.2-2.5,2.5v13.2c0,1.4,1.2,2.5,2.5,2.5h1.3c1.3,0,2.5-1.2,2.5-2.5v-1.3h3.2v1.3
					c0,3.1-2.5,5.7-5.7,5.7h-3.8v11.3h3.8c3.1,0,5.7,2.5,5.7,5.7v1.3h-3.2v-1.3c0-1.3-1.2-2.5-2.5-2.5h-1.3c-1.4,0-2.5,1.2-2.5,2.5
					v13.2c0,1.4,1.2,2.5,2.5,2.5h1.3c1.3,0,2.5-1.2,2.5-2.5V-49h3.2v1.3c0,3.2-2.5,5.7-5.7,5.7h-4.2c-1.1,3-3.9,5-7.1,5h-12v1.2
					c0,1.3-1.2,2.5-2.5,2.5h-9.9c-1.4,0-2.5-1.2-2.5-2.5V-37h-12c-4.1,0-7.6-3.4-7.6-7.6C-329-44.6-329-99.9-329-99.9z"/>
				
					<linearGradient id="SVGID_12_" gradientUnits="userSpaceOnUse" x1="-737.1545" y1="759.5308" x2="-717.3545" y2="802.7308" gradientTransform="matrix(1 0 0 1 422.7727 -867.3455)">
					<stop  offset="0" style="stop-color:#A1FF72"/>
					<stop  offset="1" style="stop-color:#00F200"/>
				</linearGradient>
				<path fill="url(#SVGID_12_)" d="M-329-99.9c0-4.1,3.4-7.6,7.6-7.6h11.3v1.2c0,1.4,1.2,2.5,2.5,2.5h11.3c1.3,0,2.5-1.2,2.5-2.5
					v-1.2h11.3c3.3,0,6.1,2.1,7.1,5h4.2c3.1,0,5.7,2.5,5.7,5.7v1.3h-3.2v-1.3c0-1.4-1.2-2.5-2.5-2.5h-1.3c-1.4,0-2.5,1.2-2.5,2.5
					v13.2c0,1.4,1.2,2.5,2.5,2.5h1.3c1.3,0,2.5-1.2,2.5-2.5v-1.3h3.2v1.3c0,3.1-2.5,5.7-5.7,5.7h-3.8v11.3h3.8
					c3.1,0,5.7,2.5,5.7,5.7v1.3h-3.2v-1.3c0-1.3-1.2-2.5-2.5-2.5h-1.3c-1.4,0-2.5,1.2-2.5,2.5v13.2c0,1.4,1.2,2.5,2.5,2.5h1.3
					c1.3,0,2.5-1.2,2.5-2.5V-49h3.2v1.3c0,3.2-2.5,5.7-5.7,5.7h-4.2c-1.1,3-3.9,5-7.1,5h-12v1.2c0,1.3-1.2,2.5-2.5,2.5h-9.9
					c-1.4,0-2.5-1.2-2.5-2.5V-37h-12c-4.1,0-7.6-3.4-7.6-7.6C-329-44.6-329-99.9-329-99.9z"/>
				<text transform="matrix(1 0 0 1 -317.7309 -69.1607)" fill="#128C12" font-family="'Verdana'" font-size="11.7px">setxy</text>
				<text transform="matrix(1 0 0 1 -282.912 -87.816)" fill="#128C12" font-family="'Verdana'" font-size="8.1px">x</text>
				<text transform="matrix(1 0 0 1 -282.912 -51.9288)" fill="#128C12" font-family="'Verdana'" font-size="8.1px">y</text>
			</g>
		</g>
		<g transform="matrix(1 0 0 1 411.07269287109375 341.154541015625)">
			<g transform="matrix( 1 0 0 1 0 0)">
				<path fill="none" stroke="#CC66B9" stroke-width="1.89" stroke-miterlimit="10" d="M-329-103.7c0-1.2,1-2.2,2.2-2.2h0.6
					c1.3,0,2.3,1,2.3,2.2v1.6h5v-2.8c0-1.4,1.1-2.5,2.5-2.5h47.9c1.4,0,2.5,1.1,2.5,2.5v14.5c0,1.4-1.1,2.5-2.5,2.5h-47.9
					c-1.4,0-2.5-1.1-2.5-2.5v-2.8h-5v1.6c0,1.2-1,2.2-2.2,2.2h-0.6c-1.2,0-2.2-1-2.2-2.2v-12.1H-329z"/>
				
					<linearGradient id="SVGID_13_" gradientUnits="userSpaceOnUse" x1="-741.001" y1="-344.5763" x2="-660.0011" y2="-373.3763" gradientTransform="matrix(1 0 0 -1 411.0727 -454.4346)">
					<stop  offset="0" style="stop-color:#FCC4F9"/>
					<stop  offset="1" style="stop-color:#F991F3"/>
				</linearGradient>
				<path fill="url(#SVGID_13_)" d="M-329-103.7c0-1.2,1-2.2,2.2-2.2h0.6c1.3,0,2.3,1,2.3,2.2v1.6h5v-2.8c0-1.4,1.1-2.5,2.5-2.5
					h47.9c1.4,0,2.5,1.1,2.5,2.5v14.5c0,1.4-1.1,2.5-2.5,2.5h-47.9c-1.4,0-2.5-1.1-2.5-2.5v-2.8h-5v1.6c0,1.2-1,2.2-2.2,2.2h-0.6
					c-1.2,0-2.2-1-2.2-2.2v-12.1H-329z"/>
				<text transform="matrix(1 0 0 1 -304.1711 -94.5552)" fill="#8C2A6E" font-family="'Verdana'" font-size="11.7px">100</text>
			</g>
		</g>
		<g transform="matrix(1 0 0 1 357.0727233886719 333.95452880859375)">
			<g transform="matrix( 1 0 0 1 0 0)">
				<path fill="none" stroke="#CC7E02" stroke-width="1.89" stroke-miterlimit="10" d="M-329-99.9c0-4.2,3.4-7.6,7.6-7.6h11.3v1.1
					c0,1.4,1.1,2.5,2.5,2.5h11.3c1.4,0,2.5-1.1,2.5-2.5v-1.1h11.3c3.3,0,6.1,2.1,7.1,5h4.2c3.1,0,5.7,2.5,5.7,5.7v1.3h-3.1v-1.3
					c0-1.4-1.1-2.5-2.5-2.5h-1.3c-1.4,0-2.5,1.1-2.5,2.5v13.2c0,1.4,1.1,2.5,2.5,2.5h1.3c1.4,0,2.5-1.1,2.5-2.5v-1.3h3.1v7.6
					c0,2.1,1.7,3.8,3.8,3.8h53.5c1.4,0,2.5,1.1,2.5,2.5v6.3h-4.2c-1-3-3.8-5-7.1-5h-12v1.1c0,1.4-1.1,2.5-2.5,2.5h-9.9
					c-1.4,0-2.5-1.1-2.5-2.5v-1.1h-12.6c-4.2,0-7.6,3.4-7.6,7.6V-40c0,4.2-3.4,7.6-7.6,7.6h-22.6v1c0,1.4-1.1,2.5-2.5,2.5h-10.1
					c-1.4,0-2.5-1.1-2.5-2.5v-1.1h-12c-4.2,0-7.6-3.4-7.6-7.6V-99.9z"/>
				
					<linearGradient id="SVGID_14_" gradientUnits="userSpaceOnUse" x1="-652.6207" y1="-271.3538" x2="-632.8207" y2="-314.5538" gradientTransform="matrix(1 0 0 -1 357.0727 -387.8005)">
					<stop  offset="0" style="stop-color:#FFDF60"/>
					<stop  offset="1" style="stop-color:#FFBB00"/>
				</linearGradient>
				<path fill="url(#SVGID_14_)" d="M-329-99.9c0-4.2,3.4-7.6,7.6-7.6h11.3v1.1c0,1.4,1.1,2.5,2.5,2.5h11.3c1.4,0,2.5-1.1,2.5-2.5
					v-1.1h11.3c3.3,0,6.1,2.1,7.1,5h4.2c3.1,0,5.7,2.5,5.7,5.7v1.3h-3.1v-1.3c0-1.4-1.1-2.5-2.5-2.5h-1.3c-1.4,0-2.5,1.1-2.5,2.5
					v13.2c0,1.4,1.1,2.5,2.5,2.5h1.3c1.4,0,2.5-1.1,2.5-2.5v-1.3h3.1v7.6c0,2.1,1.7,3.8,3.8,3.8h53.5c1.4,0,2.5,1.1,2.5,2.5v6.3
					h-4.2c-1-3-3.8-5-7.1-5h-12v1.1c0,1.4-1.1,2.5-2.5,2.5h-9.9c-1.4,0-2.5-1.1-2.5-2.5v-1.1h-12.6c-4.2,0-7.6,3.4-7.6,7.6V-40
					c0,4.2-3.4,7.6-7.6,7.6h-22.6v1c0,1.4-1.1,2.5-2.5,2.5h-10.1c-1.4,0-2.5-1.1-2.5-2.5v-1.1h-12c-4.2,0-7.6-3.4-7.6-7.6V-99.9z"/>
				<text transform="matrix(1 0 0 1 -320.8983 -86.2606)" fill="#8B6010" font-family="'Verdana'" font-size="11.7px">repeat</text>
			</g>
		</g>
		<g transform="matrix(1 0 0 1 411.07269287109375 306.0545349121094)">
			<g transform="matrix( 1 0 0 1 0 0)">
				<path fill="none" stroke="#CC66B9" stroke-width="1.89" stroke-miterlimit="10" d="M-329-103.7c0-1.2,1-2.2,2.2-2.2h0.6
					c1.3,0,2.3,1,2.3,2.2v1.6h5v-2.8c0-1.4,1.1-2.5,2.5-2.5h47.9c1.4,0,2.5,1.1,2.5,2.5v14.5c0,1.4-1.1,2.5-2.5,2.5h-47.9
					c-1.4,0-2.5-1.1-2.5-2.5v-2.8h-5v1.6c0,1.2-1,2.2-2.2,2.2h-0.6c-1.2,0-2.2-1-2.2-2.2v-12.1H-329z"/>
				
					<linearGradient id="SVGID_15_" gradientUnits="userSpaceOnUse" x1="-741.001" y1="-309.4763" x2="-660.0011" y2="-338.2762" gradientTransform="matrix(1 0 0 -1 411.0727 -419.3346)">
					<stop  offset="0" style="stop-color:#FCC4F9"/>
					<stop  offset="1" style="stop-color:#F991F3"/>
				</linearGradient>
				<path fill="url(#SVGID_15_)" d="M-329-103.7c0-1.2,1-2.2,2.2-2.2h0.6c1.3,0,2.3,1,2.3,2.2v1.6h5v-2.8c0-1.4,1.1-2.5,2.5-2.5
					h47.9c1.4,0,2.5,1.1,2.5,2.5v14.5c0,1.4-1.1,2.5-2.5,2.5h-47.9c-1.4,0-2.5-1.1-2.5-2.5v-2.8h-5v1.6c0,1.2-1,2.2-2.2,2.2h-0.6
					c-1.2,0-2.2-1-2.2-2.2v-12.1H-329z"/>
				<text transform="matrix(1 0 0 1 -304.1711 -94.5552)" fill="#8C2A6E" font-family="'Verdana'" font-size="11.7px">100</text>
			</g>
		</g>
		<g transform="matrix(1 0 0 1 357.0727233886719 298.85455322265625)">
			<g transform="matrix( 1 0 0 1 0 0)">
				<path fill="none" stroke="#04A2B2" stroke-width="1.89" stroke-miterlimit="10" d="M-329-99.9c0-4.2,3.4-7.6,7.6-7.6h11.3v1.1
					c0,1.4,1.1,2.5,2.5,2.5h11.3c1.4,0,2.5-1.1,2.5-2.5v-1.1h11.3c3.3,0,6.1,2.1,7.1,5h4.2c3.1,0,5.7,2.5,5.7,5.7v1.3h-3.1v-1.3
					c0-1.4-1.1-2.5-2.5-2.5h-1.3c-1.4,0-2.5,1.1-2.5,2.5v13.2c0,1.4,1.1,2.5,2.5,2.5h1.3c1.4,0,2.5-1.1,2.5-2.5v-1.3h3.1v1.3
					c0,3.1-2.5,5.7-5.7,5.7h-4.2c-1,2.9-3.8,5-7.1,5h-12v1.1c0,1.4-1.1,2.5-2.5,2.5h-9.9c-1.4,0-2.5-1.1-2.5-2.5v-1.1h-12
					c-4.2,0-7.6-3.4-7.6-7.6V-99.9z"/>
				
					<linearGradient id="SVGID_16_" gradientUnits="userSpaceOnUse" x1="-664.6622" y1="-281.2927" x2="-644.8622" y2="-324.4927" gradientTransform="matrix(1 0 0 -1 357.0727 -392.2206)">
					<stop  offset="0" style="stop-color:#8EFFFF"/>
					<stop  offset="1" style="stop-color:#00F0FF"/>
				</linearGradient>
				<path fill="url(#SVGID_16_)" d="M-329-99.9c0-4.2,3.4-7.6,7.6-7.6h11.3v1.1c0,1.4,1.1,2.5,2.5,2.5h11.3c1.4,0,2.5-1.1,2.5-2.5
					v-1.1h11.3c3.3,0,6.1,2.1,7.1,5h4.2c3.1,0,5.7,2.5,5.7,5.7v1.3h-3.1v-1.3c0-1.4-1.1-2.5-2.5-2.5h-1.3c-1.4,0-2.5,1.1-2.5,2.5
					v13.2c0,1.4,1.1,2.5,2.5,2.5h1.3c1.4,0,2.5-1.1,2.5-2.5v-1.3h3.1v1.3c0,3.1-2.5,5.7-5.7,5.7h-4.2c-1,2.9-3.8,5-7.1,5h-12v1.1
					c0,1.4-1.1,2.5-2.5,2.5h-9.9c-1.4,0-2.5-1.1-2.5-2.5v-1.1h-12c-4.2,0-7.6-3.4-7.6-7.6V-99.9z"/>
				<text transform="matrix(1 0 0 1 -310.8067 -90.7604)" font-family="'ArialMT'" font-size="10.8px"> </text>
				<text transform="matrix(1 0 0 1 -310.8067 -90.7604)" fill="#007E8C" font-family="'Verdana'" font-size="11.7px">set</text>
				<text transform="matrix(1 0 0 1 -293.1309 -90.7604)" font-family="'ArialMT'" font-size="10.8px"> </text>
				<text transform="matrix(1 0 0 1 -319.3619 -79.0607)" fill="#007E8C" font-family="'Verdana'" font-size="11.7px">shade</text>
				<text transform="matrix(1 0 0 1 -284.5762 -79.0607)" font-family="'ArialMT'" font-size="10.8px"> </text>
			</g>
		</g>
		<g transform="matrix(1 0 0 1 411.07269287109375 270.9545593261719)">
			<g transform="matrix( 1 0 0 1 0 0)">
				<path fill="none" stroke="#CC66B9" stroke-width="1.89" stroke-miterlimit="10" d="M-329-103.7c0-1.2,1-2.2,2.2-2.2h0.6
					c1.3,0,2.3,1,2.3,2.2v1.6h5v-2.8c0-1.4,1.1-2.5,2.5-2.5h47.9c1.4,0,2.5,1.1,2.5,2.5v14.5c0,1.4-1.1,2.5-2.5,2.5h-47.9
					c-1.4,0-2.5-1.1-2.5-2.5v-2.8h-5v1.6c0,1.2-1,2.2-2.2,2.2h-0.6c-1.2,0-2.2-1-2.2-2.2v-12.1H-329z"/>
				
					<linearGradient id="SVGID_17_" gradientUnits="userSpaceOnUse" x1="-741.001" y1="-274.3763" x2="-660.0011" y2="-303.1763" gradientTransform="matrix(1 0 0 -1 411.0727 -384.2346)">
					<stop  offset="0" style="stop-color:#FCC4F9"/>
					<stop  offset="1" style="stop-color:#F991F3"/>
				</linearGradient>
				<path fill="url(#SVGID_17_)" d="M-329-103.7c0-1.2,1-2.2,2.2-2.2h0.6c1.3,0,2.3,1,2.3,2.2v1.6h5v-2.8c0-1.4,1.1-2.5,2.5-2.5
					h47.9c1.4,0,2.5,1.1,2.5,2.5v14.5c0,1.4-1.1,2.5-2.5,2.5h-47.9c-1.4,0-2.5-1.1-2.5-2.5v-2.8h-5v1.6c0,1.2-1,2.2-2.2,2.2h-0.6
					c-1.2,0-2.2-1-2.2-2.2v-12.1H-329z"/>
				<text transform="matrix(1 0 0 1 -296.7329 -94.5552)" fill="#8C2A6E" font-family="'Verdana'" font-size="11.7px">0</text>
			</g>
		</g>
		<g transform="matrix(1 0 0 1 357.0727233886719 263.7545471191406)">
			<g transform="matrix( 1 0 0 1 0 0)">
				<path fill="none" stroke="#04A2B2" stroke-width="1.89" stroke-miterlimit="10" d="M-329-99.9c0-4.2,3.4-7.6,7.6-7.6h11.3v1.1
					c0,1.4,1.1,2.5,2.5,2.5h11.3c1.4,0,2.5-1.1,2.5-2.5v-1.1h11.3c3.3,0,6.1,2.1,7.1,5h4.2c3.1,0,5.7,2.5,5.7,5.7v1.3h-3.1v-1.3
					c0-1.4-1.1-2.5-2.5-2.5h-1.3c-1.4,0-2.5,1.1-2.5,2.5v13.2c0,1.4,1.1,2.5,2.5,2.5h1.3c1.4,0,2.5-1.1,2.5-2.5v-1.3h3.1v1.3
					c0,3.1-2.5,5.7-5.7,5.7h-4.2c-1,2.9-3.8,5-7.1,5h-12v1.1c0,1.4-1.1,2.5-2.5,2.5h-9.9c-1.4,0-2.5-1.1-2.5-2.5v-1.1h-12
					c-4.2,0-7.6-3.4-7.6-7.6V-99.9z"/>
				
					<linearGradient id="SVGID_18_" gradientUnits="userSpaceOnUse" x1="-664.6622" y1="-246.1927" x2="-644.8622" y2="-289.3927" gradientTransform="matrix(1 0 0 -1 357.0727 -357.1206)">
					<stop  offset="0" style="stop-color:#8EFFFF"/>
					<stop  offset="1" style="stop-color:#00F0FF"/>
				</linearGradient>
				<path fill="url(#SVGID_18_)" d="M-329-99.9c0-4.2,3.4-7.6,7.6-7.6h11.3v1.1c0,1.4,1.1,2.5,2.5,2.5h11.3c1.4,0,2.5-1.1,2.5-2.5
					v-1.1h11.3c3.3,0,6.1,2.1,7.1,5h4.2c3.1,0,5.7,2.5,5.7,5.7v1.3h-3.1v-1.3c0-1.4-1.1-2.5-2.5-2.5h-1.3c-1.4,0-2.5,1.1-2.5,2.5
					v13.2c0,1.4,1.1,2.5,2.5,2.5h1.3c1.4,0,2.5-1.1,2.5-2.5v-1.3h3.1v1.3c0,3.1-2.5,5.7-5.7,5.7h-4.2c-1,2.9-3.8,5-7.1,5h-12v1.1
					c0,1.4-1.1,2.5-2.5,2.5h-9.9c-1.4,0-2.5-1.1-2.5-2.5v-1.1h-12c-4.2,0-7.6-3.4-7.6-7.6V-99.9z"/>
				<text transform="matrix(1 0 0 1 -310.8067 -90.7604)" font-family="'ArialMT'" font-size="10.8px"> </text>
				<text transform="matrix(1 0 0 1 -310.8067 -90.7604)" fill="#007E8C" font-family="'Verdana'" font-size="11.7px">set</text>
				<text transform="matrix(1 0 0 1 -293.1309 -90.7604)" font-family="'ArialMT'" font-size="10.8px"> </text>
				<text transform="matrix(1 0 0 1 -323.9776 -79.0607)" fill="#007E8C" font-family="'Verdana'" font-size="11.7px">pensize</text>
				<text transform="matrix(1 0 0 1 -279.96 -79.0607)" font-family="'ArialMT'" font-size="10.8px"> </text>
			</g>
		</g>
		<g transform="matrix(1 0 0 1 411.07269287109375 235.8545379638672)">
			<g transform="matrix( 1 0 0 1 0 0)">
				<path fill="none" stroke="#CC66B9" stroke-width="1.89" stroke-miterlimit="10" d="M-329-103.7c0-1.2,1-2.2,2.2-2.2h0.6
					c1.3,0,2.3,1,2.3,2.2v1.6h5v-2.8c0-1.4,1.1-2.5,2.5-2.5h47.9c1.4,0,2.5,1.1,2.5,2.5v14.5c0,1.4-1.1,2.5-2.5,2.5h-47.9
					c-1.4,0-2.5-1.1-2.5-2.5v-2.8h-5v1.6c0,1.2-1,2.2-2.2,2.2h-0.6c-1.2,0-2.2-1-2.2-2.2v-12.1H-329z"/>
				
					<linearGradient id="SVGID_19_" gradientUnits="userSpaceOnUse" x1="-741.001" y1="-239.2763" x2="-660.0011" y2="-268.0762" gradientTransform="matrix(1 0 0 -1 411.0727 -349.1346)">
					<stop  offset="0" style="stop-color:#FCC4F9"/>
					<stop  offset="1" style="stop-color:#F991F3"/>
				</linearGradient>
				<path fill="url(#SVGID_19_)" d="M-329-103.7c0-1.2,1-2.2,2.2-2.2h0.6c1.3,0,2.3,1,2.3,2.2v1.6h5v-2.8c0-1.4,1.1-2.5,2.5-2.5
					h47.9c1.4,0,2.5,1.1,2.5,2.5v14.5c0,1.4-1.1,2.5-2.5,2.5h-47.9c-1.4,0-2.5-1.1-2.5-2.5v-2.8h-5v1.6c0,1.2-1,2.2-2.2,2.2h-0.6
					c-1.2,0-2.2-1-2.2-2.2v-12.1H-329z"/>
				<text transform="matrix(1 0 0 1 -310.5467 -94.5552)" fill="#8C2A6E" font-family="'Verdana'" font-size="11.7px">-9999</text>
			</g>
		</g>
		<g transform="matrix(1 0 0 1 357.0727233886719 228.654541015625)">
			<g transform="matrix( 1 0 0 1 0 0)">
				<path fill="none" stroke="#04A2B2" stroke-width="1.89" stroke-miterlimit="10" d="M-329-99.9c0-4.2,3.4-7.6,7.6-7.6h11.3v1.1
					c0,1.4,1.1,2.5,2.5,2.5h11.3c1.4,0,2.5-1.1,2.5-2.5v-1.1h11.3c3.3,0,6.1,2.1,7.1,5h4.2c3.1,0,5.7,2.5,5.7,5.7v1.3h-3.1v-1.3
					c0-1.4-1.1-2.5-2.5-2.5h-1.3c-1.4,0-2.5,1.1-2.5,2.5v13.2c0,1.4,1.1,2.5,2.5,2.5h1.3c1.4,0,2.5-1.1,2.5-2.5v-1.3h3.1v1.3
					c0,3.1-2.5,5.7-5.7,5.7h-4.2c-1,2.9-3.8,5-7.1,5h-12v1.1c0,1.4-1.1,2.5-2.5,2.5h-9.9c-1.4,0-2.5-1.1-2.5-2.5v-1.1h-12
					c-4.2,0-7.6-3.4-7.6-7.6V-99.9z"/>
				
					<linearGradient id="SVGID_20_" gradientUnits="userSpaceOnUse" x1="-664.6622" y1="-211.0927" x2="-644.8622" y2="-254.2927" gradientTransform="matrix(1 0 0 -1 357.0727 -322.0206)">
					<stop  offset="0" style="stop-color:#8EFFFF"/>
					<stop  offset="1" style="stop-color:#00F0FF"/>
				</linearGradient>
				<path fill="url(#SVGID_20_)" d="M-329-99.9c0-4.2,3.4-7.6,7.6-7.6h11.3v1.1c0,1.4,1.1,2.5,2.5,2.5h11.3c1.4,0,2.5-1.1,2.5-2.5
					v-1.1h11.3c3.3,0,6.1,2.1,7.1,5h4.2c3.1,0,5.7,2.5,5.7,5.7v1.3h-3.1v-1.3c0-1.4-1.1-2.5-2.5-2.5h-1.3c-1.4,0-2.5,1.1-2.5,2.5
					v13.2c0,1.4,1.1,2.5,2.5,2.5h1.3c1.4,0,2.5-1.1,2.5-2.5v-1.3h3.1v1.3c0,3.1-2.5,5.7-5.7,5.7h-4.2c-1,2.9-3.8,5-7.1,5h-12v1.1
					c0,1.4-1.1,2.5-2.5,2.5h-9.9c-1.4,0-2.5-1.1-2.5-2.5v-1.1h-12c-4.2,0-7.6-3.4-7.6-7.6V-99.9z"/>
				<text transform="matrix(1 0 0 1 -310.8067 -90.7604)" font-family="'ArialMT'" font-size="10.8px"> </text>
				<text transform="matrix(1 0 0 1 -310.8067 -90.7604)" fill="#007E8C" font-family="'Verdana'" font-size="11.7px">set</text>
				<text transform="matrix(1 0 0 1 -293.1309 -90.7604)" font-family="'ArialMT'" font-size="10.8px"> </text>
				<text transform="matrix(1 0 0 1 -316.2198 -79.0607)" fill="#007E8C" font-family="'Verdana'" font-size="11.7px">color</text>
				<text transform="matrix(1 0 0 1 -287.7178 -79.0607)" font-family="'ArialMT'" font-size="10.8px"> </text>
			</g>
		</g>
		<g transform="matrix(1 0 0 1 411.07269287109375 200.75454711914062)">
			<g transform="matrix( 1 0 0 1 0 0)">
				<path fill="none" stroke="#CC66B9" stroke-width="1.89" stroke-miterlimit="10" d="M-329-103.7c0-1.2,1-2.2,2.2-2.2h0.6
					c1.3,0,2.3,1,2.3,2.2v1.6h5v-2.8c0-1.4,1.1-2.5,2.5-2.5h47.9c1.4,0,2.5,1.1,2.5,2.5v14.5c0,1.4-1.1,2.5-2.5,2.5h-47.9
					c-1.4,0-2.5-1.1-2.5-2.5v-2.8h-5v1.6c0,1.2-1,2.2-2.2,2.2h-0.6c-1.2,0-2.2-1-2.2-2.2v-12.1H-329z"/>
				
					<linearGradient id="SVGID_21_" gradientUnits="userSpaceOnUse" x1="-741.001" y1="-204.1763" x2="-660.0011" y2="-232.9763" gradientTransform="matrix(1 0 0 -1 411.0727 -314.0346)">
					<stop  offset="0" style="stop-color:#FCC4F9"/>
					<stop  offset="1" style="stop-color:#F991F3"/>
				</linearGradient>
				<path fill="url(#SVGID_21_)" d="M-329-103.7c0-1.2,1-2.2,2.2-2.2h0.6c1.3,0,2.3,1,2.3,2.2v1.6h5v-2.8c0-1.4,1.1-2.5,2.5-2.5
					h47.9c1.4,0,2.5,1.1,2.5,2.5v14.5c0,1.4-1.1,2.5-2.5,2.5h-47.9c-1.4,0-2.5-1.1-2.5-2.5v-2.8h-5v1.6c0,1.2-1,2.2-2.2,2.2h-0.6
					c-1.2,0-2.2-1-2.2-2.2v-12.1H-329z"/>
				<text transform="matrix(1 0 0 1 -296.7329 -94.5551)" fill="#8C2A6E" font-family="'Verdana'" font-size="11.7px">0</text>
			</g>
		</g>
		<g transform="matrix(1 0 0 1 411.07269287109375 164.75454711914062)">
			<g transform="matrix( 1 0 0 1 0 0)">
				<path fill="none" stroke="#CC66B9" stroke-width="1.89" stroke-miterlimit="10" d="M-329-103.7c0-1.2,1-2.2,2.2-2.2h0.6
					c1.3,0,2.3,1,2.3,2.2v1.6h5v-2.8c0-1.4,1.1-2.5,2.5-2.5h47.9c1.4,0,2.5,1.1,2.5,2.5v14.5c0,1.4-1.1,2.5-2.5,2.5h-47.9
					c-1.4,0-2.5-1.1-2.5-2.5v-2.8h-5v1.6c0,1.2-1,2.2-2.2,2.2h-0.6c-1.2,0-2.2-1-2.2-2.2v-12.1H-329z"/>
				
					<linearGradient id="SVGID_22_" gradientUnits="userSpaceOnUse" x1="-741.001" y1="-168.1763" x2="-660.0011" y2="-196.9763" gradientTransform="matrix(1 0 0 -1 411.0727 -278.0346)">
					<stop  offset="0" style="stop-color:#FCC4F9"/>
					<stop  offset="1" style="stop-color:#F991F3"/>
				</linearGradient>
				<path fill="url(#SVGID_22_)" d="M-329-103.7c0-1.2,1-2.2,2.2-2.2h0.6c1.3,0,2.3,1,2.3,2.2v1.6h5v-2.8c0-1.4,1.1-2.5,2.5-2.5
					h47.9c1.4,0,2.5,1.1,2.5,2.5v14.5c0,1.4-1.1,2.5-2.5,2.5h-47.9c-1.4,0-2.5-1.1-2.5-2.5v-2.8h-5v1.6c0,1.2-1,2.2-2.2,2.2h-0.6
					c-1.2,0-2.2-1-2.2-2.2v-12.1H-329z"/>
				<text transform="matrix(1 0 0 1 -310.5467 -94.5551)" fill="#8C2A6E" font-family="'Verdana'" font-size="11.7px">-9999</text>
			</g>
		</g>
		<g transform="matrix(1 0 0 1 357.0727233886719 157.55453491210938)">
			<g transform="matrix( 1 0 0 1 0 0)">
				<path fill="none" stroke="#04A2B2" stroke-width="1.89" stroke-miterlimit="10" d="M-329-99.9c0-4.2,3.4-7.6,7.6-7.6h11.3v1.1
					c0,1.4,1.1,2.5,2.5,2.5h11.3c1.4,0,2.5-1.1,2.5-2.5v-1.1h11.3c3.3,0,6.1,2.1,7.1,5h4.2c3.1,0,5.7,2.5,5.7,5.7v1.3h-3.1v-1.3
					c0-1.4-1.1-2.5-2.5-2.5h-1.3c-1.4,0-2.5,1.1-2.5,2.5v13.2c0,1.4,1.1,2.5,2.5,2.5h1.3c1.4,0,2.5-1.1,2.5-2.5v-1.3h3.1v1.3
					c0,3.1-2.5,5.7-5.7,5.7h-3.8v11.3h3.8c3.1,0,5.7,2.5,5.7,5.7v1.3h-3.1v-1.3c0-1.4-1.1-2.5-2.5-2.5h-1.3c-1.4,0-2.5,1.1-2.5,2.5
					v13.2c0,1.4,1.1,2.5,2.5,2.5h1.3c1.4,0,2.5-1.1,2.5-2.5V-49h3.1v1.3c0,3.1-2.5,5.7-5.7,5.7h-4.2c-1,2.9-3.8,5-7.1,5h-12v1.1
					c0,1.4-1.1,2.5-2.5,2.5h-9.9c-1.4,0-2.5-1.1-2.5-2.5V-37h-12c-4.2,0-7.6-3.4-7.6-7.6V-99.9z"/>
				
					<linearGradient id="SVGID_23_" gradientUnits="userSpaceOnUse" x1="-671.461" y1="-107.0988" x2="-651.661" y2="-150.2989" gradientTransform="matrix(1 0 0 -1 357.0727 -214.9106)">
					<stop  offset="0" style="stop-color:#8EFFFF"/>
					<stop  offset="1" style="stop-color:#00F0FF"/>
				</linearGradient>
				<path fill="url(#SVGID_23_)" d="M-329-99.9c0-4.2,3.4-7.6,7.6-7.6h11.3v1.1c0,1.4,1.1,2.5,2.5,2.5h11.3c1.4,0,2.5-1.1,2.5-2.5
					v-1.1h11.3c3.3,0,6.1,2.1,7.1,5h4.2c3.1,0,5.7,2.5,5.7,5.7v1.3h-3.1v-1.3c0-1.4-1.1-2.5-2.5-2.5h-1.3c-1.4,0-2.5,1.1-2.5,2.5
					v13.2c0,1.4,1.1,2.5,2.5,2.5h1.3c1.4,0,2.5-1.1,2.5-2.5v-1.3h3.1v1.3c0,3.1-2.5,5.7-5.7,5.7h-3.8v11.3h3.8
					c3.1,0,5.7,2.5,5.7,5.7v1.3h-3.1v-1.3c0-1.4-1.1-2.5-2.5-2.5h-1.3c-1.4,0-2.5,1.1-2.5,2.5v13.2c0,1.4,1.1,2.5,2.5,2.5h1.3
					c1.4,0,2.5-1.1,2.5-2.5V-49h3.1v1.3c0,3.1-2.5,5.7-5.7,5.7h-4.2c-1,2.9-3.8,5-7.1,5h-12v1.1c0,1.4-1.1,2.5-2.5,2.5h-9.9
					c-1.4,0-2.5-1.1-2.5-2.5V-37h-12c-4.2,0-7.6-3.4-7.6-7.6V-99.9z"/>
				<text transform="matrix(1 0 0 1 -308.8414 -73.814)" font-family="'ArialMT'" font-size="10.8px"> </text>
				<text transform="matrix(1 0 0 1 -308.8414 -73.814)" fill="#007E8C" font-family="'Verdana'" font-size="11.7px">fill</text>
				<text transform="matrix(1 0 0 1 -295.0958 -73.814)" font-family="'ArialMT'" font-size="10.8px"> </text>
				<text transform="matrix(1 0 0 1 -321.2325 -62.1143)" fill="#007E8C" font-family="'Verdana'" font-size="11.7px">screen</text>
				<text transform="matrix(1 0 0 1 -282.7051 -62.1143)" font-family="'ArialMT'" font-size="10.8px"> </text>
				<text transform="matrix(1 0 0 1 -297.8507 -87.8164)" fill="#007E8C" font-family="'Verdana'" font-size="8.1px">color</text>
				<text transform="matrix(1 0 0 1 -302.2012 -51.9287)" fill="#007E8C" font-family="'Verdana'" font-size="8.1px">shade</text>
			</g>
		</g>
		<g transform="matrix(1 0 0 1 357.0727233886719 122.45453643798828)">
			<g transform="matrix( 1 0 0 1 0 0)">
				<path fill="none" stroke="#00A500" stroke-width="1.89" stroke-miterlimit="10" d="M-329-99.9c0-4.1,3.4-7.6,7.6-7.6h11.3v1.2
					c0,1.4,1.2,2.5,2.5,2.5h11.3c1.3,0,2.5-1.2,2.5-2.5v-1.2h11.3c4.1,0,7.6,3.4,7.6,7.6v19.5c0,4.1-3.4,7.6-7.6,7.6h-12v1.2
					c0,1.3-1.2,2.5-2.5,2.5h-9.9c-1.4,0-2.5-1.2-2.5-2.5v-1.2h-12c-4.1,0-7.6-3.4-7.6-7.6C-329-80.4-329-99.9-329-99.9z"/>
				
					<linearGradient id="SVGID_24_" gradientUnits="userSpaceOnUse" x1="-667.9" y1="-130.3807" x2="-648.1" y2="-173.5807" gradientTransform="matrix(1 0 0 -1 357.0727 -239.8245)">
					<stop  offset="0" style="stop-color:#A1FF72"/>
					<stop  offset="1" style="stop-color:#00F200"/>
				</linearGradient>
				<path fill="url(#SVGID_24_)" d="M-329-99.9c0-4.1,3.4-7.6,7.6-7.6h11.3v1.2c0,1.4,1.2,2.5,2.5,2.5h11.3c1.3,0,2.5-1.2,2.5-2.5
					v-1.2h11.3c4.1,0,7.6,3.4,7.6,7.6v19.5c0,4.1-3.4,7.6-7.6,7.6h-12v1.2c0,1.3-1.2,2.5-2.5,2.5h-9.9c-1.4,0-2.5-1.2-2.5-2.5v-1.2
					h-12c-4.1,0-7.6-3.4-7.6-7.6C-329-80.4-329-99.9-329-99.9z"/>
				<text transform="matrix(1 0 0 1 -316.8724 -85.3605)" fill="#128C12" font-family="'Verdana'" font-size="11.7px">clean</text>
			</g>
		</g>
	</g>
	<g>
		<g transform="matrix(1 0 0 1 789.07275390625 318.654541015625)">
			<g transform="matrix( 1 0 0 1 0 0)">
				<path fill="none" stroke="#04A2B2" stroke-width="1.89" stroke-miterlimit="10" d="M-423.5-97.6c0-4.2,3.4-7.6,7.6-7.6h11.3v1.1
					c0,1.4,1.1,2.5,2.5,2.5h11.3c1.4,0,2.5-1.1,2.5-2.5v-1.1h11.3c4.2,0,7.6,3.4,7.6,7.6v19.5c0,4.2-3.4,7.6-7.6,7.6h-12v1.1
					c0,1.4-1.1,2.5-2.5,2.5h-9.9c-1.4,0-2.5-1.1-2.5-2.5v-1.1h-12c-4.2,0-7.6-3.4-7.6-7.6C-423.5-78.1-423.5-97.6-423.5-97.6z"/>
				
					<linearGradient id="SVGID_25_" gradientUnits="userSpaceOnUse" x1="-1194.4346" y1="-304.8716" x2="-1174.6345" y2="-348.0716" gradientTransform="matrix(1 0 0 -1 789.0728 -412.0206)">
					<stop  offset="0" style="stop-color:#8EFFFF"/>
					<stop  offset="1" style="stop-color:#00F0FF"/>
				</linearGradient>
				<path fill="url(#SVGID_25_)" d="M-423.5-97.6c0-4.2,3.4-7.6,7.6-7.6h11.3v1.1c0,1.4,1.1,2.5,2.5,2.5h11.3c1.4,0,2.5-1.1,2.5-2.5
					v-1.1h11.3c4.2,0,7.6,3.4,7.6,7.6v19.5c0,4.2-3.4,7.6-7.6,7.6h-12v1.1c0,1.4-1.1,2.5-2.5,2.5h-9.9c-1.4,0-2.5-1.1-2.5-2.5v-1.1
					h-12c-4.2,0-7.6-3.4-7.6-7.6C-423.5-78.1-423.5-97.6-423.5-97.6z"/>
				<text transform="matrix(1 0 0 1 -407.335 -88.4656)" font-family="'ArialMT'" font-size="10.8px"> </text>
				<text transform="matrix(1 0 0 1 -407.335 -88.4656)" fill="#007E8C" font-family="'Verdana'" font-size="11.7px">end</text>
				<text transform="matrix(1 0 0 1 -385.6714 -88.4656)" font-family="'ArialMT'" font-size="10.8px"> </text>
				<text transform="matrix(1 0 0 1 -403.376 -76.7659)" fill="#007E8C" font-family="'Verdana'" font-size="11.7px">fill</text>
				<text transform="matrix(1 0 0 1 -389.6304 -76.7659)" font-family="'ArialMT'" font-size="10.8px"> </text>
			</g>
		</g>
		<g transform="matrix(1 0 0 1 908.772705078125 393.3545227050781)">
			<g transform="matrix( 1 0 0 1 0 0)">
				<path fill="none" stroke="#CC66B9" stroke-width="1.89" stroke-miterlimit="10" d="M-423.5-101.4c0-1.2,1-2.2,2.2-2.2h0.6
					c1.3,0,2.3,1,2.3,2.2v1.6h5v-2.8c0-1.4,1.1-2.5,2.5-2.5h47.9c1.4,0,2.5,1.1,2.5,2.5v14.5c0,1.4-1.1,2.5-2.5,2.5h-47.9
					c-1.4,0-2.5-1.1-2.5-2.5v-2.8h-5v1.6c0,1.2-1,2.2-2.2,2.2h-0.6c-1.2,0-2.2-1-2.2-2.2L-423.5-101.4L-423.5-101.4z"/>
				
					<linearGradient id="SVGID_26_" gradientUnits="userSpaceOnUse" x1="-1333.2355" y1="-399.071" x2="-1252.2355" y2="-427.871" gradientTransform="matrix(1 0 0 -1 908.7727 -506.6346)">
					<stop  offset="0" style="stop-color:#FCC4F9"/>
					<stop  offset="1" style="stop-color:#F991F3"/>
				</linearGradient>
				<path fill="url(#SVGID_26_)" d="M-423.5-101.4c0-1.2,1-2.2,2.2-2.2h0.6c1.3,0,2.3,1,2.3,2.2v1.6h5v-2.8c0-1.4,1.1-2.5,2.5-2.5
					h47.9c1.4,0,2.5,1.1,2.5,2.5v14.5c0,1.4-1.1,2.5-2.5,2.5h-47.9c-1.4,0-2.5-1.1-2.5-2.5v-2.8h-5v1.6c0,1.2-1,2.2-2.2,2.2h-0.6
					c-1.2,0-2.2-1-2.2-2.2L-423.5-101.4L-423.5-101.4z"/>
				<text transform="matrix(1 0 0 1 -394.9865 -92.2604)" fill="#8C2A6E" font-family="'Verdana'" font-size="11.7px">58</text>
			</g>
		</g>
		<g transform="matrix(1 0 0 1 854.772705078125 386.154541015625)">
			<g transform="matrix( 1 0 0 1 0 0)">
				<path fill="none" stroke="#00A500" stroke-width="1.89" stroke-miterlimit="10" d="M-423.5-97.6c0-4.1,3.4-7.6,7.6-7.6h11.3v1.2
					c0,1.4,1.2,2.5,2.5,2.5h11.3c1.3,0,2.5-1.2,2.5-2.5v-1.2h11.3c3.3,0,6.1,2.1,7.1,5h4.2c3.1,0,5.7,2.5,5.7,5.7v1.3h-3.2v-1.3
					c0-1.4-1.2-2.5-2.5-2.5h-1.3c-1.4,0-2.5,1.2-2.5,2.5v13.2c0,1.4,1.2,2.5,2.5,2.5h1.3c1.3,0,2.5-1.2,2.5-2.5v-1.3h3.2v1.3
					c0,3.1-2.5,5.7-5.7,5.7h-4.2c-1,3-3.8,5-7.1,5h-12v1.2c0,1.3-1.2,2.5-2.5,2.5h-9.9c-1.4,0-2.5-1.2-2.5-2.5v-1.2h-12
					c-4.1,0-7.6-3.4-7.6-7.6C-423.5-78.2-423.5-97.6-423.5-97.6z"/>
				
					<linearGradient id="SVGID_27_" gradientUnits="userSpaceOnUse" x1="-1256.8901" y1="819.2094" x2="-1237.0901" y2="862.4094" gradientTransform="matrix(1 0 0 1 854.7727 -927.8455)">
					<stop  offset="0" style="stop-color:#A1FF72"/>
					<stop  offset="1" style="stop-color:#00F200"/>
				</linearGradient>
				<path fill="url(#SVGID_27_)" d="M-423.5-97.6c0-4.1,3.4-7.6,7.6-7.6h11.3v1.2c0,1.4,1.2,2.5,2.5,2.5h11.3c1.3,0,2.5-1.2,2.5-2.5
					v-1.2h11.3c3.3,0,6.1,2.1,7.1,5h4.2c3.1,0,5.7,2.5,5.7,5.7v1.3h-3.2v-1.3c0-1.4-1.2-2.5-2.5-2.5h-1.3c-1.4,0-2.5,1.2-2.5,2.5
					v13.2c0,1.4,1.2,2.5,2.5,2.5h1.3c1.3,0,2.5-1.2,2.5-2.5v-1.3h3.2v1.3c0,3.1-2.5,5.7-5.7,5.7h-4.2c-1,3-3.8,5-7.1,5h-12v1.2
					c0,1.3-1.2,2.5-2.5,2.5h-9.9c-1.4,0-2.5-1.2-2.5-2.5v-1.2h-12c-4.1,0-7.6-3.4-7.6-7.6C-423.5-78.2-423.5-97.6-423.5-97.6z"/>
				<text transform="matrix(1 0 0 1 -405.9553 -83.0657)" fill="#128C12" font-family="'Verdana'" font-size="11.7px">left</text>
			</g>
		</g>
		<g transform="matrix(1 0 0 1 908.772705078125 358.2545471191406)">
			<g transform="matrix( 1 0 0 1 0 0)">
				<path fill="none" stroke="#BFAF00" stroke-width="1.89" stroke-miterlimit="10" d="M-423.5-101.4c0-1.2,1-2.2,2.2-2.2h0.6
					c1.3,0,2.3,1,2.3,2.2v1.6h5v-2.8c0-1.4,1.1-2.5,2.5-2.5h47.9c1.4,0,2.5,1.1,2.5,2.5v14.5c0,1.4-1.1,2.5-2.5,2.5h-47.9
					c-1.4,0-2.5-1.1-2.5-2.5v-2.8h-5v1.6c0,1.2-1,2.2-2.2,2.2h-0.6c-1.2,0-2.2-1-2.2-2.2L-423.5-101.4L-423.5-101.4z"/>
				
					<linearGradient id="SVGID_28_" gradientUnits="userSpaceOnUse" x1="-1307.3302" y1="-361.2669" x2="-1287.5302" y2="-404.4668" gradientTransform="matrix(1 0 0 -1 908.7727 -471.5346)">
					<stop  offset="0" style="stop-color:#FFFF72"/>
					<stop  offset="1" style="stop-color:#FFF600"/>
				</linearGradient>
				<path fill="url(#SVGID_28_)" d="M-423.5-101.4c0-1.2,1-2.2,2.2-2.2h0.6c1.3,0,2.3,1,2.3,2.2v1.6h5v-2.8c0-1.4,1.1-2.5,2.5-2.5
					h47.9c1.4,0,2.5,1.1,2.5,2.5v14.5c0,1.4-1.1,2.5-2.5,2.5h-47.9c-1.4,0-2.5-1.1-2.5-2.5v-2.8h-5v1.6c0,1.2-1,2.2-2.2,2.2h-0.6
					c-1.2,0-2.2-1-2.2-2.2L-423.5-101.4L-423.5-101.4z"/>
				<text transform="matrix(1 0 0 1 -401.8676 -92.2604)" fill="#8C7A15" font-family="'Verdana'" font-size="11.7px">box1</text>
			</g>
		</g>
		<g transform="matrix(1 0 0 1 854.772705078125 351.0545349121094)">
			<g transform="matrix( 1 0 0 1 0 0)">
				<path fill="none" stroke="#00A500" stroke-width="1.89" stroke-miterlimit="10" d="M-423.5-97.6c0-4.1,3.4-7.6,7.6-7.6h11.3v1.2
					c0,1.4,1.2,2.5,2.5,2.5h11.3c1.3,0,2.5-1.2,2.5-2.5v-1.2h11.3c3.3,0,6.1,2.1,7.1,5h4.2c3.1,0,5.7,2.5,5.7,5.7v1.3h-3.2v-1.3
					c0-1.4-1.2-2.5-2.5-2.5h-1.3c-1.4,0-2.5,1.2-2.5,2.5v13.2c0,1.4,1.2,2.5,2.5,2.5h1.3c1.3,0,2.5-1.2,2.5-2.5v-1.3h3.2v1.3
					c0,3.1-2.5,5.7-5.7,5.7h-4.2c-1,3-3.8,5-7.1,5h-12v1.2c0,1.3-1.2,2.5-2.5,2.5h-9.9c-1.4,0-2.5-1.2-2.5-2.5v-1.2h-12
					c-4.1,0-7.6-3.4-7.6-7.6C-423.5-78.2-423.5-97.6-423.5-97.6z"/>
				
					<linearGradient id="SVGID_29_" gradientUnits="userSpaceOnUse" x1="-1256.8901" y1="-359.7885" x2="-1237.0901" y2="-402.9885" gradientTransform="matrix(1 0 0 -1 854.7727 -468.4245)">
					<stop  offset="0" style="stop-color:#A1FF72"/>
					<stop  offset="1" style="stop-color:#00F200"/>
				</linearGradient>
				<path fill="url(#SVGID_29_)" d="M-423.5-97.6c0-4.1,3.4-7.6,7.6-7.6h11.3v1.2c0,1.4,1.2,2.5,2.5,2.5h11.3c1.3,0,2.5-1.2,2.5-2.5
					v-1.2h11.3c3.3,0,6.1,2.1,7.1,5h4.2c3.1,0,5.7,2.5,5.7,5.7v1.3h-3.2v-1.3c0-1.4-1.2-2.5-2.5-2.5h-1.3c-1.4,0-2.5,1.2-2.5,2.5
					v13.2c0,1.4,1.2,2.5,2.5,2.5h1.3c1.3,0,2.5-1.2,2.5-2.5v-1.3h3.2v1.3c0,3.1-2.5,5.7-5.7,5.7h-4.2c-1,3-3.8,5-7.1,5h-12v1.2
					c0,1.3-1.2,2.5-2.5,2.5h-9.9c-1.4,0-2.5-1.2-2.5-2.5v-1.2h-12c-4.1,0-7.6-3.4-7.6-7.6C-423.5-78.2-423.5-97.6-423.5-97.6z"/>
				<text transform="matrix(1 0 0 1 -418.0919 -83.0657)" fill="#128C12" font-family="'Verdana'" font-size="11.7px">forward</text>
			</g>
		</g>
		<g transform="matrix(1 0 0 1 908.772705078125 323.154541015625)">
			<g transform="matrix( 1 0 0 1 0 0)">
				<path fill="none" stroke="#CC66B9" stroke-width="1.89" stroke-miterlimit="10" d="M-423.5-101.4c0-1.2,1-2.2,2.2-2.2h0.6
					c1.3,0,2.3,1,2.3,2.2v1.6h5v-2.8c0-1.4,1.1-2.5,2.5-2.5h47.9c1.4,0,2.5,1.1,2.5,2.5v14.5c0,1.4-1.1,2.5-2.5,2.5h-47.9
					c-1.4,0-2.5-1.1-2.5-2.5v-2.8h-5v1.6c0,1.2-1,2.2-2.2,2.2h-0.6c-1.2,0-2.2-1-2.2-2.2L-423.5-101.4L-423.5-101.4z"/>
				
					<linearGradient id="SVGID_30_" gradientUnits="userSpaceOnUse" x1="-1333.2355" y1="-328.8711" x2="-1252.2355" y2="-357.6711" gradientTransform="matrix(1 0 0 -1 908.7727 -436.4346)">
					<stop  offset="0" style="stop-color:#FCC4F9"/>
					<stop  offset="1" style="stop-color:#F991F3"/>
				</linearGradient>
				<path fill="url(#SVGID_30_)" d="M-423.5-101.4c0-1.2,1-2.2,2.2-2.2h0.6c1.3,0,2.3,1,2.3,2.2v1.6h5v-2.8c0-1.4,1.1-2.5,2.5-2.5
					h47.9c1.4,0,2.5,1.1,2.5,2.5v14.5c0,1.4-1.1,2.5-2.5,2.5h-47.9c-1.4,0-2.5-1.1-2.5-2.5v-2.8h-5v1.6c0,1.2-1,2.2-2.2,2.2h-0.6
					c-1.2,0-2.2-1-2.2-2.2L-423.5-101.4L-423.5-101.4z"/>
				<text transform="matrix(1 0 0 1 -398.7055 -92.2604)" fill="#8C2A6E" font-family="'Verdana'" font-size="11.7px">130</text>
			</g>
		</g>
		<g transform="matrix(1 0 0 1 854.772705078125 315.9545593261719)">
			<g transform="matrix( 1 0 0 1 0 0)">
				<path fill="none" stroke="#00A500" stroke-width="1.89" stroke-miterlimit="10" d="M-423.5-97.6c0-4.1,3.4-7.6,7.6-7.6h11.3v1.2
					c0,1.4,1.2,2.5,2.5,2.5h11.3c1.3,0,2.5-1.2,2.5-2.5v-1.2h11.3c3.3,0,6.1,2.1,7.1,5h4.2c3.1,0,5.7,2.5,5.7,5.7v1.3h-3.2v-1.3
					c0-1.4-1.2-2.5-2.5-2.5h-1.3c-1.4,0-2.5,1.2-2.5,2.5v13.2c0,1.4,1.2,2.5,2.5,2.5h1.3c1.3,0,2.5-1.2,2.5-2.5v-1.3h3.2v1.3
					c0,3.1-2.5,5.7-5.7,5.7h-4.2c-1,3-3.8,5-7.1,5h-12v1.2c0,1.3-1.2,2.5-2.5,2.5h-9.9c-1.4,0-2.5-1.2-2.5-2.5v-1.2h-12
					c-4.1,0-7.6-3.4-7.6-7.6C-423.5-78.2-423.5-97.6-423.5-97.6z"/>
				
					<linearGradient id="SVGID_31_" gradientUnits="userSpaceOnUse" x1="-1256.8901" y1="889.4094" x2="-1237.0901" y2="932.6094" gradientTransform="matrix(1 0 0 1 854.7727 -998.0454)">
					<stop  offset="0" style="stop-color:#A1FF72"/>
					<stop  offset="1" style="stop-color:#00F200"/>
				</linearGradient>
				<path fill="url(#SVGID_31_)" d="M-423.5-97.6c0-4.1,3.4-7.6,7.6-7.6h11.3v1.2c0,1.4,1.2,2.5,2.5,2.5h11.3c1.3,0,2.5-1.2,2.5-2.5
					v-1.2h11.3c3.3,0,6.1,2.1,7.1,5h4.2c3.1,0,5.7,2.5,5.7,5.7v1.3h-3.2v-1.3c0-1.4-1.2-2.5-2.5-2.5h-1.3c-1.4,0-2.5,1.2-2.5,2.5
					v13.2c0,1.4,1.2,2.5,2.5,2.5h1.3c1.3,0,2.5-1.2,2.5-2.5v-1.3h3.2v1.3c0,3.1-2.5,5.7-5.7,5.7h-4.2c-1,3-3.8,5-7.1,5h-12v1.2
					c0,1.3-1.2,2.5-2.5,2.5h-9.9c-1.4,0-2.5-1.2-2.5-2.5v-1.2h-12c-4.1,0-7.6-3.4-7.6-7.6C-423.5-78.2-423.5-97.6-423.5-97.6z"/>
				<text transform="matrix(1 0 0 1 -410.1837 -83.0657)" fill="#128C12" font-family="'Verdana'" font-size="11.7px">right</text>
			</g>
		</g>
		<g transform="matrix(1 0 0 1 908.772705078125 288.0545349121094)">
			<g transform="matrix( 1 0 0 1 0 0)">
				<path fill="none" stroke="#BFAF00" stroke-width="1.89" stroke-miterlimit="10" d="M-423.5-101.4c0-1.2,1-2.2,2.2-2.2h0.6
					c1.3,0,2.3,1,2.3,2.2v1.6h5v-2.8c0-1.4,1.1-2.5,2.5-2.5h47.9c1.4,0,2.5,1.1,2.5,2.5v14.5c0,1.4-1.1,2.5-2.5,2.5h-47.9
					c-1.4,0-2.5-1.1-2.5-2.5v-2.8h-5v1.6c0,1.2-1,2.2-2.2,2.2h-0.6c-1.2,0-2.2-1-2.2-2.2L-423.5-101.4L-423.5-101.4z"/>
				
					<linearGradient id="SVGID_32_" gradientUnits="userSpaceOnUse" x1="-1307.3302" y1="-291.0669" x2="-1287.5302" y2="-334.2668" gradientTransform="matrix(1 0 0 -1 908.7727 -401.3346)">
					<stop  offset="0" style="stop-color:#FFFF72"/>
					<stop  offset="1" style="stop-color:#FFF600"/>
				</linearGradient>
				<path fill="url(#SVGID_32_)" d="M-423.5-101.4c0-1.2,1-2.2,2.2-2.2h0.6c1.3,0,2.3,1,2.3,2.2v1.6h5v-2.8c0-1.4,1.1-2.5,2.5-2.5
					h47.9c1.4,0,2.5,1.1,2.5,2.5v14.5c0,1.4-1.1,2.5-2.5,2.5h-47.9c-1.4,0-2.5-1.1-2.5-2.5v-2.8h-5v1.6c0,1.2-1,2.2-2.2,2.2h-0.6
					c-1.2,0-2.2-1-2.2-2.2L-423.5-101.4L-423.5-101.4z"/>
				<text transform="matrix(1 0 0 1 -401.8676 -92.2604)" fill="#8C7A15" font-family="'Verdana'" font-size="11.7px">box1</text>
			</g>
		</g>
		<g transform="matrix(1 0 0 1 854.772705078125 280.8545227050781)">
			<g transform="matrix( 1 0 0 1 0 0)">
				<path fill="none" stroke="#00A500" stroke-width="1.89" stroke-miterlimit="10" d="M-423.5-97.6c0-4.1,3.4-7.6,7.6-7.6h11.3v1.2
					c0,1.4,1.2,2.5,2.5,2.5h11.3c1.3,0,2.5-1.2,2.5-2.5v-1.2h11.3c3.3,0,6.1,2.1,7.1,5h4.2c3.1,0,5.7,2.5,5.7,5.7v1.3h-3.2v-1.3
					c0-1.4-1.2-2.5-2.5-2.5h-1.3c-1.4,0-2.5,1.2-2.5,2.5v13.2c0,1.4,1.2,2.5,2.5,2.5h1.3c1.3,0,2.5-1.2,2.5-2.5v-1.3h3.2v1.3
					c0,3.1-2.5,5.7-5.7,5.7h-4.2c-1,3-3.8,5-7.1,5h-12v1.2c0,1.3-1.2,2.5-2.5,2.5h-9.9c-1.4,0-2.5-1.2-2.5-2.5v-1.2h-12
					c-4.1,0-7.6-3.4-7.6-7.6C-423.5-78.2-423.5-97.6-423.5-97.6z"/>
				
					<linearGradient id="SVGID_33_" gradientUnits="userSpaceOnUse" x1="-1256.8901" y1="-289.5885" x2="-1237.0901" y2="-332.7885" gradientTransform="matrix(1 0 0 -1 854.7727 -398.2245)">
					<stop  offset="0" style="stop-color:#A1FF72"/>
					<stop  offset="1" style="stop-color:#00F200"/>
				</linearGradient>
				<path fill="url(#SVGID_33_)" d="M-423.5-97.6c0-4.1,3.4-7.6,7.6-7.6h11.3v1.2c0,1.4,1.2,2.5,2.5,2.5h11.3c1.3,0,2.5-1.2,2.5-2.5
					v-1.2h11.3c3.3,0,6.1,2.1,7.1,5h4.2c3.1,0,5.7,2.5,5.7,5.7v1.3h-3.2v-1.3c0-1.4-1.2-2.5-2.5-2.5h-1.3c-1.4,0-2.5,1.2-2.5,2.5
					v13.2c0,1.4,1.2,2.5,2.5,2.5h1.3c1.3,0,2.5-1.2,2.5-2.5v-1.3h3.2v1.3c0,3.1-2.5,5.7-5.7,5.7h-4.2c-1,3-3.8,5-7.1,5h-12v1.2
					c0,1.3-1.2,2.5-2.5,2.5h-9.9c-1.4,0-2.5-1.2-2.5-2.5v-1.2h-12c-4.1,0-7.6-3.4-7.6-7.6C-423.5-78.2-423.5-97.6-423.5-97.6z"/>
				<text transform="matrix(1 0 0 1 -418.0919 -83.0657)" fill="#128C12" font-family="'Verdana'" font-size="11.7px">forward</text>
			</g>
		</g>
		<g transform="matrix(1 0 0 1 843.0726928710938 249.3545379638672)">
			<g transform="matrix( 1 0 0 1 0 0)">
				<path fill="none" stroke="#CC66B9" stroke-width="1.89" stroke-miterlimit="10" d="M-423.5-101.4c0-1.2,1-2.2,2.2-2.2h0.6
					c1.3,0,2.3,1,2.3,2.2v1.6h5v-2.8c0-1.4,1.1-2.5,2.5-2.5h47.9c1.4,0,2.5,1.1,2.5,2.5v14.5c0,1.4-1.1,2.5-2.5,2.5h-47.9
					c-1.4,0-2.5-1.1-2.5-2.5v-2.8h-5v1.6c0,1.2-1,2.2-2.2,2.2h-0.6c-1.2,0-2.2-1-2.2-2.2L-423.5-101.4L-423.5-101.4z"/>
				
					<linearGradient id="SVGID_34_" gradientUnits="userSpaceOnUse" x1="-1267.5355" y1="-255.071" x2="-1186.5355" y2="-283.871" gradientTransform="matrix(1 0 0 -1 843.0727 -362.6346)">
					<stop  offset="0" style="stop-color:#FCC4F9"/>
					<stop  offset="1" style="stop-color:#F991F3"/>
				</linearGradient>
				<path fill="url(#SVGID_34_)" d="M-423.5-101.4c0-1.2,1-2.2,2.2-2.2h0.6c1.3,0,2.3,1,2.3,2.2v1.6h5v-2.8c0-1.4,1.1-2.5,2.5-2.5
					h47.9c1.4,0,2.5,1.1,2.5,2.5v14.5c0,1.4-1.1,2.5-2.5,2.5h-47.9c-1.4,0-2.5-1.1-2.5-2.5v-2.8h-5v1.6c0,1.2-1,2.2-2.2,2.2h-0.6
					c-1.2,0-2.2-1-2.2-2.2L-423.5-101.4L-423.5-101.4z"/>
				<text transform="matrix(1 0 0 1 -391.2673 -92.2604)" fill="#8C2A6E" font-family="'Verdana'" font-size="11.7px">5</text>
			</g>
		</g>
		<g transform="matrix(1 0 0 1 789.07275390625 242.15452575683594)">
			<g transform="matrix( 1 0 0 1 0 0)">
				<path fill="none" stroke="#CC7E02" stroke-width="1.89" stroke-miterlimit="10" d="M-423.5-97.6c0-4.2,3.4-7.6,7.6-7.6h11.3v1.1
					c0,1.4,1.1,2.5,2.5,2.5h11.3c1.4,0,2.5-1.1,2.5-2.5v-1.1h11.3c3.3,0,6.1,2.1,7.1,5h4.2c3.1,0,5.7,2.5,5.7,5.7v1.3h-3.1v-1.3
					c0-1.4-1.1-2.5-2.5-2.5h-1.3c-1.4,0-2.5,1.1-2.5,2.5v13.2c0,1.4,1.1,2.5,2.5,2.5h1.3c1.4,0,2.5-1.1,2.5-2.5v-1.3h3.1v7.6
					c0,2.1,1.7,3.8,3.8,3.8h53.5c1.4,0,2.5,1.1,2.5,2.5v6.3h-4.2c-1-3-3.8-5-7.1-5h-12v1.1c0,1.4-1.1,2.5-2.5,2.5h-9.9
					c-1.4,0-2.5-1.1-2.5-2.5v-1.1H-351c-4.2,0-7.6,3.4-7.6,7.6v22.1c0,4.2-3.4,7.6-7.6,7.6h-22.6v1c0,1.4-1.1,2.5-2.5,2.5h-10.1
					c-1.4,0-2.5-1.1-2.5-2.5v-1.1h-12c-4.2,0-7.6-3.4-7.6-7.6V-97.6z"/>
				
					<linearGradient id="SVGID_35_" gradientUnits="userSpaceOnUse" x1="-1179.1552" y1="-181.8486" x2="-1159.3552" y2="-225.0486" gradientTransform="matrix(1 0 0 -1 789.0728 -296.0005)">
					<stop  offset="0" style="stop-color:#FFDF60"/>
					<stop  offset="1" style="stop-color:#FFBB00"/>
				</linearGradient>
				<path fill="url(#SVGID_35_)" d="M-423.5-97.6c0-4.2,3.4-7.6,7.6-7.6h11.3v1.1c0,1.4,1.1,2.5,2.5,2.5h11.3c1.4,0,2.5-1.1,2.5-2.5
					v-1.1h11.3c3.3,0,6.1,2.1,7.1,5h4.2c3.1,0,5.7,2.5,5.7,5.7v1.3h-3.1v-1.3c0-1.4-1.1-2.5-2.5-2.5h-1.3c-1.4,0-2.5,1.1-2.5,2.5
					v13.2c0,1.4,1.1,2.5,2.5,2.5h1.3c1.4,0,2.5-1.1,2.5-2.5v-1.3h3.1v7.6c0,2.1,1.7,3.8,3.8,3.8h53.5c1.4,0,2.5,1.1,2.5,2.5v6.3
					h-4.2c-1-3-3.8-5-7.1-5h-12v1.1c0,1.4-1.1,2.5-2.5,2.5h-9.9c-1.4,0-2.5-1.1-2.5-2.5v-1.1H-351c-4.2,0-7.6,3.4-7.6,7.6v22.1
					c0,4.2-3.4,7.6-7.6,7.6h-22.6v1c0,1.4-1.1,2.5-2.5,2.5h-10.1c-1.4,0-2.5-1.1-2.5-2.5v-1.1h-12c-4.2,0-7.6-3.4-7.6-7.6V-97.6z"/>
				<text transform="matrix(1 0 0 1 -415.4327 -83.9658)" fill="#8B6010" font-family="'Verdana'" font-size="11.7px">repeat</text>
			</g>
		</g>
		<g transform="matrix(1 0 0 1 789.07275390625 207.05455017089844)">
			<g transform="matrix( 1 0 0 1 0 0)">
				<path fill="none" stroke="#04A2B2" stroke-width="1.89" stroke-miterlimit="10" d="M-423.5-97.6c0-4.2,3.4-7.6,7.6-7.6h11.3v1.1
					c0,1.4,1.1,2.5,2.5,2.5h11.3c1.4,0,2.5-1.1,2.5-2.5v-1.1h11.3c4.2,0,7.6,3.4,7.6,7.6v19.5c0,4.2-3.4,7.6-7.6,7.6h-12v1.1
					c0,1.4-1.1,2.5-2.5,2.5h-9.9c-1.4,0-2.5-1.1-2.5-2.5v-1.1h-12c-4.2,0-7.6-3.4-7.6-7.6C-423.5-78.1-423.5-97.6-423.5-97.6z"/>
				
					<linearGradient id="SVGID_36_" gradientUnits="userSpaceOnUse" x1="-1194.4346" y1="-193.2716" x2="-1174.6345" y2="-236.4716" gradientTransform="matrix(1 0 0 -1 789.0728 -300.4206)">
					<stop  offset="0" style="stop-color:#8EFFFF"/>
					<stop  offset="1" style="stop-color:#00F0FF"/>
				</linearGradient>
				<path fill="url(#SVGID_36_)" d="M-423.5-97.6c0-4.2,3.4-7.6,7.6-7.6h11.3v1.1c0,1.4,1.1,2.5,2.5,2.5h11.3c1.4,0,2.5-1.1,2.5-2.5
					v-1.1h11.3c4.2,0,7.6,3.4,7.6,7.6v19.5c0,4.2-3.4,7.6-7.6,7.6h-12v1.1c0,1.4-1.1,2.5-2.5,2.5h-9.9c-1.4,0-2.5-1.1-2.5-2.5v-1.1
					h-12c-4.2,0-7.6-3.4-7.6-7.6C-423.5-78.1-423.5-97.6-423.5-97.6z"/>
				<text transform="matrix(1 0 0 1 -410.1714 -88.4656)" font-family="'ArialMT'" font-size="10.8px"> </text>
				<text transform="matrix(1 0 0 1 -410.1714 -88.4656)" fill="#007E8C" font-family="'Verdana'" font-size="11.7px">start</text>
				<text transform="matrix(1 0 0 1 -382.8356 -88.4656)" font-family="'ArialMT'" font-size="10.8px"> </text>
				<text transform="matrix(1 0 0 1 -403.376 -76.7659)" fill="#007E8C" font-family="'Verdana'" font-size="11.7px">fill</text>
				<text transform="matrix(1 0 0 1 -389.6304 -76.7659)" font-family="'ArialMT'" font-size="10.8px"> </text>
			</g>
		</g>
		<g transform="matrix(1 0 0 1 926.772705078125 180.05453491210938)">
			<g transform="matrix( 1 0 0 1 0 0)">
				<path fill="none" stroke="#CC66B9" stroke-width="1.89" stroke-miterlimit="10" d="M-423.5-101.4c0-1.2,1-2.2,2.2-2.2h0.6
					c1.3,0,2.3,1,2.3,2.2v1.6h5v-2.8c0-1.4,1.1-2.5,2.5-2.5h47.9c1.4,0,2.5,1.1,2.5,2.5v14.5c0,1.4-1.1,2.5-2.5,2.5h-47.9
					c-1.4,0-2.5-1.1-2.5-2.5v-2.8h-5v1.6c0,1.2-1,2.2-2.2,2.2h-0.6c-1.2,0-2.2-1-2.2-2.2L-423.5-101.4L-423.5-101.4z"/>
				
					<linearGradient id="SVGID_37_" gradientUnits="userSpaceOnUse" x1="-1351.2355" y1="-185.771" x2="-1270.2355" y2="-214.571" gradientTransform="matrix(1 0 0 -1 926.7727 -293.3346)">
					<stop  offset="0" style="stop-color:#FCC4F9"/>
					<stop  offset="1" style="stop-color:#F991F3"/>
				</linearGradient>
				<path fill="url(#SVGID_37_)" d="M-423.5-101.4c0-1.2,1-2.2,2.2-2.2h0.6c1.3,0,2.3,1,2.3,2.2v1.6h5v-2.8c0-1.4,1.1-2.5,2.5-2.5
					h47.9c1.4,0,2.5,1.1,2.5,2.5v14.5c0,1.4-1.1,2.5-2.5,2.5h-47.9c-1.4,0-2.5-1.1-2.5-2.5v-2.8h-5v1.6c0,1.2-1,2.2-2.2,2.2h-0.6
					c-1.2,0-2.2-1-2.2-2.2L-423.5-101.4L-423.5-101.4z"/>
				<text transform="matrix(1 0 0 1 -391.2674 -92.2603)" fill="#8C2A6E" font-family="'Verdana'" font-size="11.7px">8</text>
			</g>
		</g>
		<g transform="matrix(1 0 0 1 857.4727172851562 180.05453491210938)">
			<g transform="matrix( 1 0 0 1 0 0)">
				<path fill="none" stroke="#CC66B9" stroke-width="1.89" stroke-miterlimit="10" d="M-423.5-101.4c0-1.2,1-2.2,2.2-2.2h0.6
					c1.3,0,2.3,1,2.3,2.2v1.6h5v-2.8c0-1.4,1.1-2.5,2.5-2.5h47.9c1.4,0,2.5,1.1,2.5,2.5v14.5c0,1.4-1.1,2.5-2.5,2.5h-47.9
					c-1.4,0-2.5-1.1-2.5-2.5v-2.8h-5v1.6c0,1.2-1,2.2-2.2,2.2h-0.6c-1.2,0-2.2-1-2.2-2.2L-423.5-101.4L-423.5-101.4z"/>
				
					<linearGradient id="SVGID_38_" gradientUnits="userSpaceOnUse" x1="-1281.9355" y1="-185.771" x2="-1200.9355" y2="-214.571" gradientTransform="matrix(1 0 0 -1 857.4727 -293.3346)">
					<stop  offset="0" style="stop-color:#FCC4F9"/>
					<stop  offset="1" style="stop-color:#F991F3"/>
				</linearGradient>
				<path fill="url(#SVGID_38_)" d="M-423.5-101.4c0-1.2,1-2.2,2.2-2.2h0.6c1.3,0,2.3,1,2.3,2.2v1.6h5v-2.8c0-1.4,1.1-2.5,2.5-2.5
					h47.9c1.4,0,2.5,1.1,2.5,2.5v14.5c0,1.4-1.1,2.5-2.5,2.5h-47.9c-1.4,0-2.5-1.1-2.5-2.5v-2.8h-5v1.6c0,1.2-1,2.2-2.2,2.2h-0.6
					c-1.2,0-2.2-1-2.2-2.2L-423.5-101.4L-423.5-101.4z"/>
				<text transform="matrix(1 0 0 1 -391.2673 -92.2603)" fill="#8C2A6E" font-family="'Verdana'" font-size="11.7px">2</text>
			</g>
		</g>
		<g transform="matrix(1 0 0 1 843.0726928710938 166.55455017089844)">
			<g transform="matrix( 1 0 0 1 0 0)">
				<path fill="none" stroke="#CC66B9" stroke-width="1.89" stroke-miterlimit="10" d="M-423.5-88.8c0-1.2,1-2.2,2.2-2.2h0.6
					c1.2,0,2.2,1,2.2,2.2v1.6h5V-90v-5.7c0-5.2,4.2-9.4,9.5-9.4h122.2c5.2,0,9.4,4.2,9.4,9.4v3.2h6.3c1.4,0,2.5,1.1,2.5,2.5v14.5
					c0,1.4-1.1,2.5-2.5,2.5h-6.3v2.5c0,1.4-1.1,2.5-2.5,2.5h-136c-1.4,0-2.5-1.1-2.5-2.5v-5v-2.8h-5v1.6c0,1.2-1,2.2-2.2,2.2h-0.6
					c-1.2,0-2.2-1-2.2-2.2L-423.5-88.8L-423.5-88.8z M-406.4-91.3c-1.2,0-2.2,1-2.2,2.2v12c0,1.2,1,2.2,2.2,2.2h0.6
					c1.2,0,2.2-1,2.2-2.2v-1.6h5v2.8c0,1.4,1.1,2.5,2.5,2.5h47.9c1.4,0,2.5-1.1,2.5-2.5v-14.4c0-1.4-1.1-2.5-2.5-2.5H-396
					c-1.4,0-2.5,1.1-2.5,2.5v2.8h-5v-1.6c0-1.2-1-2.2-2.2-2.2H-406.4z M-337.1-91.3c-1.2,0-2.2,1-2.2,2.2v12c0,1.2,1,2.2,2.2,2.2
					h0.6c1.2,0,2.2-1,2.2-2.2v-1.6h5v2.8c0,1.4,1.1,2.5,2.5,2.5h47.9c1.4,0,2.5-1.1,2.5-2.5v-14.4c0-1.4-1.1-2.5-2.5-2.5h-47.9
					c-1.4,0-2.5,1.1-2.5,2.5v2.8h-5v-1.6c0-1.2-1-2.2-2.2-2.2H-337.1z"/>
				
					<linearGradient id="SVGID_39_" gradientUnits="userSpaceOnUse" x1="-1265.3529" y1="-148.0927" x2="-1184.3529" y2="-176.8926" gradientTransform="matrix(1 0 0 -1 843.0727 -261.7945)">
					<stop  offset="0" style="stop-color:#FCC4F9"/>
					<stop  offset="1" style="stop-color:#F991F3"/>
				</linearGradient>
				<path fill="url(#SVGID_39_)" d="M-423.5-88.8c0-1.2,1-2.2,2.2-2.2h0.6c1.2,0,2.2,1,2.2,2.2v1.6h5V-90v-5.7
					c0-5.2,4.2-9.4,9.5-9.4h122.2c5.2,0,9.4,4.2,9.4,9.4v3.2h6.3c1.4,0,2.5,1.1,2.5,2.5v14.5c0,1.4-1.1,2.5-2.5,2.5h-6.3v2.5
					c0,1.4-1.1,2.5-2.5,2.5h-136c-1.4,0-2.5-1.1-2.5-2.5v-5v-2.8h-5v1.6c0,1.2-1,2.2-2.2,2.2h-0.6c-1.2,0-2.2-1-2.2-2.2L-423.5-88.8
					L-423.5-88.8z M-406.4-91.3c-1.2,0-2.2,1-2.2,2.2v12c0,1.2,1,2.2,2.2,2.2h0.6c1.2,0,2.2-1,2.2-2.2v-1.6h5v2.8
					c0,1.4,1.1,2.5,2.5,2.5h47.9c1.4,0,2.5-1.1,2.5-2.5v-14.4c0-1.4-1.1-2.5-2.5-2.5H-396c-1.4,0-2.5,1.1-2.5,2.5v2.8h-5v-1.6
					c0-1.2-1-2.2-2.2-2.2H-406.4z M-337.1-91.3c-1.2,0-2.2,1-2.2,2.2v12c0,1.2,1,2.2,2.2,2.2h0.6c1.2,0,2.2-1,2.2-2.2v-1.6h5v2.8
					c0,1.4,1.1,2.5,2.5,2.5h47.9c1.4,0,2.5-1.1,2.5-2.5v-14.4c0-1.4-1.1-2.5-2.5-2.5h-47.9c-1.4,0-2.5,1.1-2.5,2.5v2.8h-5v-1.6
					c0-1.2-1-2.2-2.2-2.2H-337.1z"/>
				<text transform="matrix(1 0 0 1 -358.9069 -95.6658)" fill="#8C2A6E" font-family="'Verdana'" font-size="9px">random</text>
			</g>
		</g>
		<g transform="matrix(1 0 0 1 789.07275390625 171.9545440673828)">
			<g transform="matrix( 1 0 0 1 0 0)">
				<path fill="none" stroke="#BFAF00" stroke-width="1.89" stroke-miterlimit="10" d="M-423.5-97.6c0-4.2,3.4-7.6,7.6-7.6h11.3v1.1
					c0,1.4,1.1,2.5,2.5,2.5h11.3c1.4,0,2.5-1.1,2.5-2.5v-1.1h11.3c3.3,0,6.1,2.1,7.1,5h4.2c3.1,0,5.7,2.5,5.7,5.7v1.3h-3.1v-1.3
					c0-1.4-1.1-2.5-2.5-2.5h-1.3c-1.4,0-2.5,1.1-2.5,2.5v13.2c0,1.4,1.1,2.5,2.5,2.5h1.3c1.4,0,2.5-1.1,2.5-2.5v-1.3h3.1v1.3
					c0,3.1-2.5,5.7-5.7,5.7h-4.2c-1,2.9-3.8,5-7.1,5h-12v1.1c0,1.4-1.1,2.5-2.5,2.5h-9.9c-1.4,0-2.5-1.1-2.5-2.5v-1.1h-12
					c-4.2,0-7.6-3.4-7.6-7.6V-97.6z"/>
				
					<linearGradient id="SVGID_40_" gradientUnits="userSpaceOnUse" x1="-1191.1967" y1="-156.6874" x2="-1171.3966" y2="-199.8875" gradientTransform="matrix(1 0 0 -1 789.0728 -265.3206)">
					<stop  offset="0" style="stop-color:#FFFF72"/>
					<stop  offset="1" style="stop-color:#FFF600"/>
				</linearGradient>
				<path fill="url(#SVGID_40_)" d="M-423.5-97.6c0-4.2,3.4-7.6,7.6-7.6h11.3v1.1c0,1.4,1.1,2.5,2.5,2.5h11.3c1.4,0,2.5-1.1,2.5-2.5
					v-1.1h11.3c3.3,0,6.1,2.1,7.1,5h4.2c3.1,0,5.7,2.5,5.7,5.7v1.3h-3.1v-1.3c0-1.4-1.1-2.5-2.5-2.5h-1.3c-1.4,0-2.5,1.1-2.5,2.5
					v13.2c0,1.4,1.1,2.5,2.5,2.5h1.3c1.4,0,2.5-1.1,2.5-2.5v-1.3h3.1v1.3c0,3.1-2.5,5.7-5.7,5.7h-4.2c-1,2.9-3.8,5-7.1,5h-12v1.1
					c0,1.4-1.1,2.5-2.5,2.5h-9.9c-1.4,0-2.5-1.1-2.5-2.5v-1.1h-12c-4.2,0-7.6-3.4-7.6-7.6V-97.6z"/>
				<text transform="matrix(1 0 0 1 -417.8971 -88.6604)" fill="#8C7A15" font-family="'Verdana'" font-size="11.7px">store in</text>
				<text transform="matrix(1 0 0 1 -409.9676 -77.0604)" fill="#8C7A15" font-family="'Verdana'" font-size="11.7px">box1</text>
			</g>
		</g>
		<g transform="matrix(1 0 0 1 776.4727172851562 127.85453796386719)">
			<g transform="matrix( 1 0 0 1 0 0)">
				<path fill="none" stroke="#BFAF00" stroke-width="1.89" stroke-miterlimit="10" d="M-419.5-68.4c0-18.1,17.8-32.8,35.9-32.8
					s35.9,14.7,35.9,32.8c0,4.2-3.4,7.6-7.6,7.6H-376v1.1c0,1.4-1.1,2.5-2.5,2.5h-10.1c-1.4,0-2.5-1.1-2.5-2.5v-1.1h-20.8
					C-416.1-60.9-419.5-64.3-419.5-68.4z"/>
				
					<linearGradient id="SVGID_41_" gradientUnits="userSpaceOnUse" x1="-1177.5358" y1="-99.3445" x2="-1157.7358" y2="-142.5446" gradientTransform="matrix(1 0 0 -1 776.4727 -207.9545)">
					<stop  offset="0" style="stop-color:#FFFF72"/>
					<stop  offset="1" style="stop-color:#FFF600"/>
				</linearGradient>
				<path fill="url(#SVGID_41_)" d="M-419.5-68.4c0-18.1,17.8-32.8,35.9-32.8s35.9,14.7,35.9,32.8c0,4.2-3.4,7.6-7.6,7.6H-376v1.1
					c0,1.4-1.1,2.5-2.5,2.5h-10.1c-1.4,0-2.5-1.1-2.5-2.5v-1.1h-20.8C-416.1-60.9-419.5-64.3-419.5-68.4z"/>
				<text transform="matrix(1 0 0 1 -396.2112 -73.4604)" fill="#8C7A15" font-family="'Verdana'" font-size="11.7px">star</text>
			</g>
		</g>
	</g>
</g>
</svg>
