<?xml version="1.0" encoding="utf-8"?>
<!-- Generator: Adobe Illustrator 24.0.1, SVG Export Plug-In . SVG Version: 6.00 Build 0)  -->
<svg version="1.1" id="Layer_1" xmlns="http://www.w3.org/2000/svg" xmlns:xlink="http://www.w3.org/1999/xlink" x="0px" y="0px"
	 viewBox="0 0 613.7 365.5" style="enable-background:new 0 0 613.7 365.5;" xml:space="preserve">
<style type="text/css">
	.st0{fill:none;stroke:#CC66B9;stroke-width:1.89;stroke-miterlimit:10;}
	.st1{fill:url(#SVGID_1_);}
	.st2{fill:#8C2A6E;}
	.st3{font-family:'Verdana';}
	.st4{font-size:11.7px;}
	.st5{fill:url(#SVGID_2_);}
	.st6{font-size:16.2px;}
	.st7{fill:none;stroke:#04A2B2;stroke-width:1.89;stroke-miterlimit:10;}
	.st8{fill:url(#SVGID_3_);}
	.st9{fill:#007E8C;}
	.st10{fill:url(#SVGID_4_);}
	.st11{font-family:'ArialMT';}
	.st12{font-size:10.8px;}
	.st13{fill:url(#SVGID_5_);}
	.st14{fill:url(#SVGID_6_);}
	.st15{fill:url(#SVGID_7_);}
	.st16{fill:url(#SVGID_8_);}
	.st17{fill:url(#SVGID_9_);}
	.st18{fill:none;stroke:#00A500;stroke-width:1.89;stroke-miterlimit:10;}
	.st19{fill:url(#SVGID_10_);}
	.st20{fill:#128C12;}
	.st21{fill:url(#SVGID_11_);}
	.st22{fill:none;stroke:#CC7E02;stroke-width:1.89;stroke-miterlimit:10;}
	.st23{fill:url(#SVGID_12_);}
	.st24{fill:#8B6010;}
	.st25{fill:url(#SVGID_13_);}
	.st26{fill:url(#SVGID_14_);}
	.st27{fill:url(#SVGID_15_);}
	.st28{fill:url(#SVGID_16_);}
	.st29{fill:url(#SVGID_17_);}
	.st30{fill:url(#SVGID_18_);}
	.st31{fill:url(#SVGID_19_);}
	.st32{fill:url(#SVGID_20_);}
	.st33{fill:url(#SVGID_21_);}
	.st34{font-size:8.1px;}
	.st35{fill:none;stroke:#BFAF00;stroke-width:1.89;stroke-miterlimit:10;}
	.st36{fill:url(#SVGID_22_);}
	.st37{fill:#8C7A15;}
	.st38{fill:url(#SVGID_23_);}
	.st39{fill:url(#SVGID_24_);}
	.st40{fill:url(#SVGID_25_);}
	.st41{fill:url(#SVGID_26_);}
	.st42{fill:url(#SVGID_27_);}
	.st43{fill:url(#SVGID_28_);}
	.st44{fill:url(#SVGID_29_);}
	.st45{fill:url(#SVGID_30_);}
	.st46{fill:url(#SVGID_31_);}
	.st47{fill:url(#SVGID_32_);}
	.st48{fill:url(#SVGID_33_);}
	.st49{fill:url(#SVGID_34_);}
	.st50{fill:url(#SVGID_35_);}
	.st51{fill:url(#SVGID_36_);}
	.st52{fill:url(#SVGID_37_);}
	.st53{fill:url(#SVGID_38_);}
	.st54{fill:url(#SVGID_39_);}
	.st55{fill:url(#SVGID_40_);}
	.st56{fill:url(#SVGID_41_);}
	.st57{fill:url(#SVGID_42_);}
	.st58{fill:url(#SVGID_43_);}
	.st59{fill:url(#SVGID_44_);}
</style>
<g>
	<g>
		<g transform="matrix(1 0 0 1 931.272705078125 407.7545166015625)">
			<g transform="matrix( 1 0 0 1 0 0)">
				<path class="st0" d="M-381.5-70.4c0-1.2,1-2.2,2.2-2.2h0.6c1.3,0,2.3,1,2.3,2.2v1.6h5v-2.8c0-1.4,1.1-2.5,2.5-2.5h47.9
					c1.4,0,2.5,1.1,2.5,2.5v14.5c0,1.4-1.1,2.5-2.5,2.5h-47.9c-1.4,0-2.5-1.1-2.5-2.5v-2.8h-5v1.6c0,1.2-1,2.2-2.2,2.2h-0.6
					c-1.2,0-2.2-1-2.2-2.2v-12.1H-381.5z"/>
				
					<linearGradient id="SVGID_1_" gradientUnits="userSpaceOnUse" x1="-1313.715" y1="-354.841" x2="-1232.7151" y2="-383.641" gradientTransform="matrix(1 0 0 -1 931.2727 -431.4536)">
					<stop  offset="0" style="stop-color:#FCC4F9"/>
					<stop  offset="1" style="stop-color:#F991F3"/>
				</linearGradient>
				<path class="st1" d="M-381.5-70.4c0-1.2,1-2.2,2.2-2.2h0.6c1.3,0,2.3,1,2.3,2.2v1.6h5v-2.8c0-1.4,1.1-2.5,2.5-2.5h47.9
					c1.4,0,2.5,1.1,2.5,2.5v14.5c0,1.4-1.1,2.5-2.5,2.5h-47.9c-1.4,0-2.5-1.1-2.5-2.5v-2.8h-5v1.6c0,1.2-1,2.2-2.2,2.2h-0.6
					c-1.2,0-2.2-1-2.2-2.2v-12.1H-381.5z"/>
				<text transform="matrix(1 0 0 1 -358.813 -61.3096)" class="st2 st3 st4">0.25</text>
			</g>
		</g>
		<g transform="matrix(1 0 0 1 902.4727172851562 403.2545471191406)">
			<g transform="matrix( 1 0 0 1 0 0)">
				<path class="st0" d="M-381.5-70.4c0-2.1,1.7-3.8,3.8-3.8h26.5c4.2,0,7.6,3.4,7.6,7.6v1.3h-3.1v-1.3c0-1.4-1.1-2.5-2.5-2.5h-1.3
					c-1.4,0-2.5,1.1-2.5,2.5v13.2c0,1.4,1.1,2.5,2.5,2.5h1.3c1.4,0,2.5-1.1,2.5-2.5v-1.3h3.1v1.3c0,4.2-3.4,7.6-7.6,7.6h-26.5
					c-2.1,0-3.8-1.7-3.8-3.8h6.3c1.4,0,2.5-1.1,2.5-2.5v-15.8c0-1.4-1.1-2.5-2.5-2.5H-381.5z"/>
				
					<linearGradient id="SVGID_2_" gradientUnits="userSpaceOnUse" x1="-1288.1027" y1="-350.2861" x2="-1207.1027" y2="-379.0861" gradientTransform="matrix(1 0 0 -1 902.4727 -417.9337)">
					<stop  offset="0" style="stop-color:#FCC4F9"/>
					<stop  offset="1" style="stop-color:#F991F3"/>
				</linearGradient>
				<path class="st5" d="M-381.5-70.4c0-2.1,1.7-3.8,3.8-3.8h26.5c4.2,0,7.6,3.4,7.6,7.6v1.3h-3.1v-1.3c0-1.4-1.1-2.5-2.5-2.5h-1.3
					c-1.4,0-2.5,1.1-2.5,2.5v13.2c0,1.4,1.1,2.5,2.5,2.5h1.3c1.4,0,2.5-1.1,2.5-2.5v-1.3h3.1v1.3c0,4.2-3.4,7.6-7.6,7.6h-26.5
					c-2.1,0-3.8-1.7-3.8-3.8h6.3c1.4,0,2.5-1.1,2.5-2.5v-15.8c0-1.4-1.1-2.5-2.5-2.5H-381.5z"/>
				<text transform="matrix(1 0 0 1 -369.6618 -54.8147)" class="st2 st3 st6">+</text>
			</g>
		</g>
		<g transform="matrix(1 0 0 1 847.5726928710938 407.7545166015625)">
			<g transform="matrix( 1 0 0 1 0 0)">
				<path class="st7" d="M-381.5-70.4c0-1.2,1-2.2,2.2-2.2h0.6c1.3,0,2.3,1,2.3,2.2v1.6h5v-2.8c0-1.4,1.1-2.5,2.5-2.5h47.9
					c1.4,0,2.5,1.1,2.5,2.5v14.5c0,1.4-1.1,2.5-2.5,2.5h-47.9c-1.4,0-2.5-1.1-2.5-2.5v-2.8h-5v1.6c0,1.2-1,2.2-2.2,2.2h-0.6
					c-1.2,0-2.2-1-2.2-2.2v-12.1H-381.5z"/>
				
					<linearGradient id="SVGID_3_" gradientUnits="userSpaceOnUse" x1="-1204.1097" y1="-352.1369" x2="-1184.3097" y2="-395.3368" gradientTransform="matrix(1 0 0 -1 847.5727 -431.4536)">
					<stop  offset="0" style="stop-color:#8EFFFF"/>
					<stop  offset="1" style="stop-color:#00F0FF"/>
				</linearGradient>
				<path class="st8" d="M-381.5-70.4c0-1.2,1-2.2,2.2-2.2h0.6c1.3,0,2.3,1,2.3,2.2v1.6h5v-2.8c0-1.4,1.1-2.5,2.5-2.5h47.9
					c1.4,0,2.5,1.1,2.5,2.5v14.5c0,1.4-1.1,2.5-2.5,2.5h-47.9c-1.4,0-2.5-1.1-2.5-2.5v-2.8h-5v1.6c0,1.2-1,2.2-2.2,2.2h-0.6
					c-1.2,0-2.2-1-2.2-2.2v-12.1H-381.5z"/>
				<text transform="matrix(1 0 0 1 -364.6757 -61.1147)" class="st9 st3 st4">shade</text>
			</g>
		</g>
		<g transform="matrix(1 0 0 1 793.5726928710938 400.5545349121094)">
			<g transform="matrix( 1 0 0 1 0 0)">
				<path class="st7" d="M-381.5-66.6c0-4.2,3.4-7.6,7.6-7.6h11.3v1.1c0,1.4,1.1,2.5,2.5,2.5h11.3c1.4,0,2.5-1.1,2.5-2.5v-1.1h11.3
					c3.3,0,6.1,2.1,7.1,5h4.2c3.1,0,5.7,2.5,5.7,5.7v1.3h-3.1v-1.3c0-1.4-1.1-2.5-2.5-2.5h-1.3c-1.4,0-2.5,1.1-2.5,2.5v13.2
					c0,1.4,1.1,2.5,2.5,2.5h1.3c1.4,0,2.5-1.1,2.5-2.5v-1.3h3.1v1.3c0,3.1-2.5,5.7-5.7,5.7h-4.2c-1,2.9-3.8,5-7.1,5h-12v1.1
					c0,1.4-1.1,2.5-2.5,2.5h-9.9c-1.4,0-2.5-1.1-2.5-2.5v-1.1h-12c-4.2,0-7.6-3.4-7.6-7.6V-66.6z"/>
				
					<linearGradient id="SVGID_4_" gradientUnits="userSpaceOnUse" x1="-1153.6761" y1="-326.6574" x2="-1133.8761" y2="-369.8574" gradientTransform="matrix(1 0 0 -1 793.5727 -404.3397)">
					<stop  offset="0" style="stop-color:#8EFFFF"/>
					<stop  offset="1" style="stop-color:#00F0FF"/>
				</linearGradient>
				<path class="st10" d="M-381.5-66.6c0-4.2,3.4-7.6,7.6-7.6h11.3v1.1c0,1.4,1.1,2.5,2.5,2.5h11.3c1.4,0,2.5-1.1,2.5-2.5v-1.1h11.3
					c3.3,0,6.1,2.1,7.1,5h4.2c3.1,0,5.7,2.5,5.7,5.7v1.3h-3.1v-1.3c0-1.4-1.1-2.5-2.5-2.5h-1.3c-1.4,0-2.5,1.1-2.5,2.5v13.2
					c0,1.4,1.1,2.5,2.5,2.5h1.3c1.4,0,2.5-1.1,2.5-2.5v-1.3h3.1v1.3c0,3.1-2.5,5.7-5.7,5.7h-4.2c-1,2.9-3.8,5-7.1,5h-12v1.1
					c0,1.4-1.1,2.5-2.5,2.5h-9.9c-1.4,0-2.5-1.1-2.5-2.5v-1.1h-12c-4.2,0-7.6-3.4-7.6-7.6V-66.6z"/>
				<text transform="matrix(1 0 0 1 -363.3206 -57.5148)" class="st11 st12"> </text>
				<text transform="matrix(1 0 0 1 -363.3206 -57.5148)" class="st9 st3 st4">set</text>
				<text transform="matrix(1 0 0 1 -345.6449 -57.5148)" class="st11 st12"> </text>
				<text transform="matrix(1 0 0 1 -371.8759 -45.8151)" class="st9 st3 st4">shade</text>
				<text transform="matrix(1 0 0 1 -337.0902 -45.8151)" class="st11 st12"> </text>
			</g>
		</g>
		<g transform="matrix(1 0 0 1 931.272705078125 372.654541015625)">
			<g transform="matrix( 1 0 0 1 0 0)">
				<path class="st0" d="M-381.5-70.4c0-1.2,1-2.2,2.2-2.2h0.6c1.3,0,2.3,1,2.3,2.2v1.6h5v-2.8c0-1.4,1.1-2.5,2.5-2.5h47.9
					c1.4,0,2.5,1.1,2.5,2.5v14.5c0,1.4-1.1,2.5-2.5,2.5h-47.9c-1.4,0-2.5-1.1-2.5-2.5v-2.8h-5v1.6c0,1.2-1,2.2-2.2,2.2h-0.6
					c-1.2,0-2.2-1-2.2-2.2v-12.1H-381.5z"/>
				
					<linearGradient id="SVGID_5_" gradientUnits="userSpaceOnUse" x1="-1313.715" y1="-319.741" x2="-1232.7151" y2="-348.541" gradientTransform="matrix(1 0 0 -1 931.2727 -396.3537)">
					<stop  offset="0" style="stop-color:#FCC4F9"/>
					<stop  offset="1" style="stop-color:#F991F3"/>
				</linearGradient>
				<path class="st13" d="M-381.5-70.4c0-1.2,1-2.2,2.2-2.2h0.6c1.3,0,2.3,1,2.3,2.2v1.6h5v-2.8c0-1.4,1.1-2.5,2.5-2.5h47.9
					c1.4,0,2.5,1.1,2.5,2.5v14.5c0,1.4-1.1,2.5-2.5,2.5h-47.9c-1.4,0-2.5-1.1-2.5-2.5v-2.8h-5v1.6c0,1.2-1,2.2-2.2,2.2h-0.6
					c-1.2,0-2.2-1-2.2-2.2v-12.1H-381.5z"/>
				<text transform="matrix(1 0 0 1 -349.2468 -61.3096)" class="st2 st3 st4">1</text>
			</g>
		</g>
		<g transform="matrix(1 0 0 1 902.4727172851562 368.154541015625)">
			<g transform="matrix( 1 0 0 1 0 0)">
				<path class="st0" d="M-381.5-70.4c0-2.1,1.7-3.8,3.8-3.8h26.5c4.2,0,7.6,3.4,7.6,7.6v1.3h-3.1v-1.3c0-1.4-1.1-2.5-2.5-2.5h-1.3
					c-1.4,0-2.5,1.1-2.5,2.5v13.2c0,1.4,1.1,2.5,2.5,2.5h1.3c1.4,0,2.5-1.1,2.5-2.5v-1.3h3.1v1.3c0,4.2-3.4,7.6-7.6,7.6h-26.5
					c-2.1,0-3.8-1.7-3.8-3.8h6.3c1.4,0,2.5-1.1,2.5-2.5v-15.8c0-1.4-1.1-2.5-2.5-2.5H-381.5z"/>
				
					<linearGradient id="SVGID_6_" gradientUnits="userSpaceOnUse" x1="-1288.1027" y1="-315.1861" x2="-1207.1027" y2="-343.9861" gradientTransform="matrix(1 0 0 -1 902.4727 -382.8336)">
					<stop  offset="0" style="stop-color:#FCC4F9"/>
					<stop  offset="1" style="stop-color:#F991F3"/>
				</linearGradient>
				<path class="st14" d="M-381.5-70.4c0-2.1,1.7-3.8,3.8-3.8h26.5c4.2,0,7.6,3.4,7.6,7.6v1.3h-3.1v-1.3c0-1.4-1.1-2.5-2.5-2.5h-1.3
					c-1.4,0-2.5,1.1-2.5,2.5v13.2c0,1.4,1.1,2.5,2.5,2.5h1.3c1.4,0,2.5-1.1,2.5-2.5v-1.3h3.1v1.3c0,4.2-3.4,7.6-7.6,7.6h-26.5
					c-2.1,0-3.8-1.7-3.8-3.8h6.3c1.4,0,2.5-1.1,2.5-2.5v-15.8c0-1.4-1.1-2.5-2.5-2.5H-381.5z"/>
				<text transform="matrix(1 0 0 1 -366.7111 -54.8148)" class="st2 st3 st6">-</text>
			</g>
		</g>
		<g transform="matrix(1 0 0 1 847.5726928710938 372.654541015625)">
			<g transform="matrix( 1 0 0 1 0 0)">
				<path class="st7" d="M-381.5-70.4c0-1.2,1-2.2,2.2-2.2h0.6c1.3,0,2.3,1,2.3,2.2v1.6h5v-2.8c0-1.4,1.1-2.5,2.5-2.5h47.9
					c1.4,0,2.5,1.1,2.5,2.5v14.5c0,1.4-1.1,2.5-2.5,2.5h-47.9c-1.4,0-2.5-1.1-2.5-2.5v-2.8h-5v1.6c0,1.2-1,2.2-2.2,2.2h-0.6
					c-1.2,0-2.2-1-2.2-2.2v-12.1H-381.5z"/>
				
					<linearGradient id="SVGID_7_" gradientUnits="userSpaceOnUse" x1="-1204.1097" y1="-317.0369" x2="-1184.3097" y2="-360.2368" gradientTransform="matrix(1 0 0 -1 847.5727 -396.3537)">
					<stop  offset="0" style="stop-color:#8EFFFF"/>
					<stop  offset="1" style="stop-color:#00F0FF"/>
				</linearGradient>
				<path class="st15" d="M-381.5-70.4c0-1.2,1-2.2,2.2-2.2h0.6c1.3,0,2.3,1,2.3,2.2v1.6h5v-2.8c0-1.4,1.1-2.5,2.5-2.5h47.9
					c1.4,0,2.5,1.1,2.5,2.5v14.5c0,1.4-1.1,2.5-2.5,2.5h-47.9c-1.4,0-2.5-1.1-2.5-2.5v-2.8h-5v1.6c0,1.2-1,2.2-2.2,2.2h-0.6
					c-1.2,0-2.2-1-2.2-2.2v-12.1H-381.5z"/>
				<text transform="matrix(1 0 0 1 -369.2918 -61.1147)" class="st9 st3 st4">pensize</text>
			</g>
		</g>
		<g transform="matrix(1 0 0 1 793.5726928710938 365.45452880859375)">
			<g transform="matrix( 1 0 0 1 0 0)">
				<path class="st7" d="M-381.5-66.6c0-4.2,3.4-7.6,7.6-7.6h11.3v1.1c0,1.4,1.1,2.5,2.5,2.5h11.3c1.4,0,2.5-1.1,2.5-2.5v-1.1h11.3
					c3.3,0,6.1,2.1,7.1,5h4.2c3.1,0,5.7,2.5,5.7,5.7v1.3h-3.1v-1.3c0-1.4-1.1-2.5-2.5-2.5h-1.3c-1.4,0-2.5,1.1-2.5,2.5v13.2
					c0,1.4,1.1,2.5,2.5,2.5h1.3c1.4,0,2.5-1.1,2.5-2.5v-1.3h3.1v1.3c0,3.1-2.5,5.7-5.7,5.7h-4.2c-1,2.9-3.8,5-7.1,5h-12v1.1
					c0,1.4-1.1,2.5-2.5,2.5h-9.9c-1.4,0-2.5-1.1-2.5-2.5v-1.1h-12c-4.2,0-7.6-3.4-7.6-7.6V-66.6z"/>
				
					<linearGradient id="SVGID_8_" gradientUnits="userSpaceOnUse" x1="-1153.6761" y1="-291.5574" x2="-1133.8761" y2="-334.7574" gradientTransform="matrix(1 0 0 -1 793.5727 -369.2397)">
					<stop  offset="0" style="stop-color:#8EFFFF"/>
					<stop  offset="1" style="stop-color:#00F0FF"/>
				</linearGradient>
				<path class="st16" d="M-381.5-66.6c0-4.2,3.4-7.6,7.6-7.6h11.3v1.1c0,1.4,1.1,2.5,2.5,2.5h11.3c1.4,0,2.5-1.1,2.5-2.5v-1.1h11.3
					c3.3,0,6.1,2.1,7.1,5h4.2c3.1,0,5.7,2.5,5.7,5.7v1.3h-3.1v-1.3c0-1.4-1.1-2.5-2.5-2.5h-1.3c-1.4,0-2.5,1.1-2.5,2.5v13.2
					c0,1.4,1.1,2.5,2.5,2.5h1.3c1.4,0,2.5-1.1,2.5-2.5v-1.3h3.1v1.3c0,3.1-2.5,5.7-5.7,5.7h-4.2c-1,2.9-3.8,5-7.1,5h-12v1.1
					c0,1.4-1.1,2.5-2.5,2.5h-9.9c-1.4,0-2.5-1.1-2.5-2.5v-1.1h-12c-4.2,0-7.6-3.4-7.6-7.6V-66.6z"/>
				<text transform="matrix(1 0 0 1 -363.3206 -57.5148)" class="st11 st12"> </text>
				<text transform="matrix(1 0 0 1 -363.3206 -57.5148)" class="st9 st3 st4">set</text>
				<text transform="matrix(1 0 0 1 -345.6449 -57.5148)" class="st11 st12"> </text>
				<text transform="matrix(1 0 0 1 -376.4915 -45.8151)" class="st9 st3 st4">pensize</text>
				<text transform="matrix(1 0 0 1 -332.474 -45.8151)" class="st11 st12"> </text>
			</g>
		</g>
		<g transform="matrix(1 0 0 1 847.5726928710938 337.5545349121094)">
			<g transform="matrix( 1 0 0 1 0 0)">
				<path class="st0" d="M-381.5-70.4c0-1.2,1-2.2,2.2-2.2h0.6c1.3,0,2.3,1,2.3,2.2v1.6h5v-2.8c0-1.4,1.1-2.5,2.5-2.5h47.9
					c1.4,0,2.5,1.1,2.5,2.5v14.5c0,1.4-1.1,2.5-2.5,2.5h-47.9c-1.4,0-2.5-1.1-2.5-2.5v-2.8h-5v1.6c0,1.2-1,2.2-2.2,2.2h-0.6
					c-1.2,0-2.2-1-2.2-2.2v-12.1H-381.5z"/>
				
					<linearGradient id="SVGID_9_" gradientUnits="userSpaceOnUse" x1="-1230.015" y1="-284.641" x2="-1149.015" y2="-313.441" gradientTransform="matrix(1 0 0 -1 847.5727 -361.2537)">
					<stop  offset="0" style="stop-color:#FCC4F9"/>
					<stop  offset="1" style="stop-color:#F991F3"/>
				</linearGradient>
				<path class="st17" d="M-381.5-70.4c0-1.2,1-2.2,2.2-2.2h0.6c1.3,0,2.3,1,2.3,2.2v1.6h5v-2.8c0-1.4,1.1-2.5,2.5-2.5h47.9
					c1.4,0,2.5,1.1,2.5,2.5v14.5c0,1.4-1.1,2.5-2.5,2.5h-47.9c-1.4,0-2.5-1.1-2.5-2.5v-2.8h-5v1.6c0,1.2-1,2.2-2.2,2.2h-0.6
					c-1.2,0-2.2-1-2.2-2.2v-12.1H-381.5z"/>
				<text transform="matrix(1 0 0 1 -349.2469 -61.3096)" class="st2 st3 st4">0</text>
			</g>
		</g>
		<g transform="matrix(1 0 0 1 793.5726928710938 330.35455322265625)">
			<g transform="matrix( 1 0 0 1 0 0)">
				<path class="st18" d="M-381.5-66.6c0-4.1,3.4-7.6,7.6-7.6h11.3v1.2c0,1.4,1.2,2.5,2.5,2.5h11.3c1.3,0,2.5-1.2,2.5-2.5v-1.2h11.3
					c3.3,0,6.1,2.1,7.1,5h4.2c3.1,0,5.7,2.5,5.7,5.7v1.3h-3.2v-1.3c0-1.4-1.2-2.5-2.5-2.5h-1.3c-1.4,0-2.5,1.2-2.5,2.5v13.2
					c0,1.4,1.2,2.5,2.5,2.5h1.3c1.3,0,2.5-1.2,2.5-2.5v-1.3h3.2v1.3c0,3.1-2.5,5.7-5.7,5.7h-4.2c-1,3-3.8,5-7.1,5h-12v1.2
					c0,1.3-1.2,2.5-2.5,2.5h-9.9c-1.4,0-2.5-1.2-2.5-2.5v-1.2h-12c-4.1,0-7.6-3.4-7.6-7.6C-381.5-47.2-381.5-66.6-381.5-66.6z"/>
				
					<linearGradient id="SVGID_10_" gradientUnits="userSpaceOnUse" x1="-1153.6696" y1="-280.4585" x2="-1133.8696" y2="-323.6585" gradientTransform="matrix(1 0 0 -1 793.5727 -358.1436)">
					<stop  offset="0" style="stop-color:#A1FF72"/>
					<stop  offset="1" style="stop-color:#00F200"/>
				</linearGradient>
				<path class="st19" d="M-381.5-66.6c0-4.1,3.4-7.6,7.6-7.6h11.3v1.2c0,1.4,1.2,2.5,2.5,2.5h11.3c1.3,0,2.5-1.2,2.5-2.5v-1.2h11.3
					c3.3,0,6.1,2.1,7.1,5h4.2c3.1,0,5.7,2.5,5.7,5.7v1.3h-3.2v-1.3c0-1.4-1.2-2.5-2.5-2.5h-1.3c-1.4,0-2.5,1.2-2.5,2.5v13.2
					c0,1.4,1.2,2.5,2.5,2.5h1.3c1.3,0,2.5-1.2,2.5-2.5v-1.3h3.2v1.3c0,3.1-2.5,5.7-5.7,5.7h-4.2c-1,3-3.8,5-7.1,5h-12v1.2
					c0,1.3-1.2,2.5-2.5,2.5h-9.9c-1.4,0-2.5-1.2-2.5-2.5v-1.2h-12c-4.1,0-7.6-3.4-7.6-7.6C-381.5-47.2-381.5-66.6-381.5-66.6z"/>
				<text transform="matrix(1 0 0 1 -376.0714 -52.1149)" class="st20 st3 st4">forward</text>
			</g>
		</g>
		<g transform="matrix(1 0 0 1 781.8726806640625 298.85455322265625)">
			<g transform="matrix( 1 0 0 1 0 0)">
				<path class="st0" d="M-381.5-70.4c0-1.2,1-2.2,2.2-2.2h0.6c1.3,0,2.3,1,2.3,2.2v1.6h5v-2.8c0-1.4,1.1-2.5,2.5-2.5h47.9
					c1.4,0,2.5,1.1,2.5,2.5v14.5c0,1.4-1.1,2.5-2.5,2.5h-47.9c-1.4,0-2.5-1.1-2.5-2.5v-2.8h-5v1.6c0,1.2-1,2.2-2.2,2.2h-0.6
					c-1.2,0-2.2-1-2.2-2.2v-12.1H-381.5z"/>
				
					<linearGradient id="SVGID_11_" gradientUnits="userSpaceOnUse" x1="-1164.3149" y1="-245.941" x2="-1083.3151" y2="-274.741" gradientTransform="matrix(1 0 0 -1 781.8727 -322.5537)">
					<stop  offset="0" style="stop-color:#FCC4F9"/>
					<stop  offset="1" style="stop-color:#F991F3"/>
				</linearGradient>
				<path class="st21" d="M-381.5-70.4c0-1.2,1-2.2,2.2-2.2h0.6c1.3,0,2.3,1,2.3,2.2v1.6h5v-2.8c0-1.4,1.1-2.5,2.5-2.5h47.9
					c1.4,0,2.5,1.1,2.5,2.5v14.5c0,1.4-1.1,2.5-2.5,2.5h-47.9c-1.4,0-2.5-1.1-2.5-2.5v-2.8h-5v1.6c0,1.2-1,2.2-2.2,2.2h-0.6
					c-1.2,0-2.2-1-2.2-2.2v-12.1H-381.5z"/>
				<text transform="matrix(1 0 0 1 -352.966 -61.3096)" class="st2 st3 st4">90</text>
			</g>
		</g>
		<g transform="matrix(1 0 0 1 727.8727416992188 291.654541015625)">
			<g transform="matrix( 1 0 0 1 0 0)">
				<path class="st22" d="M-381.5-66.6c0-4.2,3.4-7.6,7.6-7.6h11.3v1.1c0,1.4,1.1,2.5,2.5,2.5h11.3c1.4,0,2.5-1.1,2.5-2.5v-1.1h11.3
					c3.3,0,6.1,2.1,7.1,5h4.2c3.1,0,5.7,2.5,5.7,5.7v1.3h-3.1v-1.3c0-1.4-1.1-2.5-2.5-2.5h-1.3c-1.4,0-2.5,1.1-2.5,2.5v13.2
					c0,1.4,1.1,2.5,2.5,2.5h1.3c1.4,0,2.5-1.1,2.5-2.5v-1.3h3.1v7.6c0,2.1,1.7,3.8,3.8,3.8h53.5c1.4,0,2.5,1.1,2.5,2.5v6.3h-4.2
					c-1-3-3.8-5-7.1-5h-12v1.1c0,1.4-1.1,2.5-2.5,2.5h-9.9c-1.4,0-2.5-1.1-2.5-2.5v-1.1H-309c-4.2,0-7.6,3.4-7.6,7.6v22.1
					c0,4.2-3.4,7.6-7.6,7.6h-22.6v1c0,1.4-1.1,2.5-2.5,2.5h-10.1c-1.4,0-2.5-1.1-2.5-2.5V0.8h-12c-4.2,0-7.6-3.4-7.6-7.6V-66.6z"/>
				
					<linearGradient id="SVGID_12_" gradientUnits="userSpaceOnUse" x1="-1075.9347" y1="-172.7186" x2="-1056.1348" y2="-215.9186" gradientTransform="matrix(1 0 0 -1 727.8727 -255.9197)">
					<stop  offset="0" style="stop-color:#FFDF60"/>
					<stop  offset="1" style="stop-color:#FFBB00"/>
				</linearGradient>
				<path class="st23" d="M-381.5-66.6c0-4.2,3.4-7.6,7.6-7.6h11.3v1.1c0,1.4,1.1,2.5,2.5,2.5h11.3c1.4,0,2.5-1.1,2.5-2.5v-1.1h11.3
					c3.3,0,6.1,2.1,7.1,5h4.2c3.1,0,5.7,2.5,5.7,5.7v1.3h-3.1v-1.3c0-1.4-1.1-2.5-2.5-2.5h-1.3c-1.4,0-2.5,1.1-2.5,2.5v13.2
					c0,1.4,1.1,2.5,2.5,2.5h1.3c1.4,0,2.5-1.1,2.5-2.5v-1.3h3.1v7.6c0,2.1,1.7,3.8,3.8,3.8h53.5c1.4,0,2.5,1.1,2.5,2.5v6.3h-4.2
					c-1-3-3.8-5-7.1-5h-12v1.1c0,1.4-1.1,2.5-2.5,2.5h-9.9c-1.4,0-2.5-1.1-2.5-2.5v-1.1H-309c-4.2,0-7.6,3.4-7.6,7.6v22.1
					c0,4.2-3.4,7.6-7.6,7.6h-22.6v1c0,1.4-1.1,2.5-2.5,2.5h-10.1c-1.4,0-2.5-1.1-2.5-2.5V0.8h-12c-4.2,0-7.6-3.4-7.6-7.6V-66.6z"/>
				<text transform="matrix(1 0 0 1 -373.4123 -53.0149)" class="st24 st3 st4">repeat</text>
			</g>
		</g>
		<g transform="matrix(1 0 0 1 781.8726806640625 263.7545471191406)">
			<g transform="matrix( 1 0 0 1 0 0)">
				<path class="st0" d="M-381.5-70.4c0-1.2,1-2.2,2.2-2.2h0.6c1.3,0,2.3,1,2.3,2.2v1.6h5v-2.8c0-1.4,1.1-2.5,2.5-2.5h47.9
					c1.4,0,2.5,1.1,2.5,2.5v14.5c0,1.4-1.1,2.5-2.5,2.5h-47.9c-1.4,0-2.5-1.1-2.5-2.5v-2.8h-5v1.6c0,1.2-1,2.2-2.2,2.2h-0.6
					c-1.2,0-2.2-1-2.2-2.2v-12.1H-381.5z"/>
				
					<linearGradient id="SVGID_13_" gradientUnits="userSpaceOnUse" x1="-1164.3149" y1="-210.841" x2="-1083.3151" y2="-239.641" gradientTransform="matrix(1 0 0 -1 781.8727 -287.4537)">
					<stop  offset="0" style="stop-color:#FCC4F9"/>
					<stop  offset="1" style="stop-color:#F991F3"/>
				</linearGradient>
				<path class="st25" d="M-381.5-70.4c0-1.2,1-2.2,2.2-2.2h0.6c1.3,0,2.3,1,2.3,2.2v1.6h5v-2.8c0-1.4,1.1-2.5,2.5-2.5h47.9
					c1.4,0,2.5,1.1,2.5,2.5v14.5c0,1.4-1.1,2.5-2.5,2.5h-47.9c-1.4,0-2.5-1.1-2.5-2.5v-2.8h-5v1.6c0,1.2-1,2.2-2.2,2.2h-0.6
					c-1.2,0-2.2-1-2.2-2.2v-12.1H-381.5z"/>
				<text transform="matrix(1 0 0 1 -352.966 -61.3095)" class="st2 st3 st4">30</text>
			</g>
		</g>
		<g transform="matrix(1 0 0 1 727.8727416992188 256.5545349121094)">
			<g transform="matrix( 1 0 0 1 0 0)">
				<path class="st7" d="M-381.5-66.6c0-4.2,3.4-7.6,7.6-7.6h11.3v1.1c0,1.4,1.1,2.5,2.5,2.5h11.3c1.4,0,2.5-1.1,2.5-2.5v-1.1h11.3
					c3.3,0,6.1,2.1,7.1,5h4.2c3.1,0,5.7,2.5,5.7,5.7v1.3h-3.1v-1.3c0-1.4-1.1-2.5-2.5-2.5h-1.3c-1.4,0-2.5,1.1-2.5,2.5v13.2
					c0,1.4,1.1,2.5,2.5,2.5h1.3c1.4,0,2.5-1.1,2.5-2.5v-1.3h3.1v1.3c0,3.1-2.5,5.7-5.7,5.7h-4.2c-1,2.9-3.8,5-7.1,5h-12v1.1
					c0,1.4-1.1,2.5-2.5,2.5h-9.9c-1.4,0-2.5-1.1-2.5-2.5v-1.1h-12c-4.2,0-7.6-3.4-7.6-7.6V-66.6z"/>
				
					<linearGradient id="SVGID_14_" gradientUnits="userSpaceOnUse" x1="-1087.9762" y1="-182.6574" x2="-1068.1761" y2="-225.8574" gradientTransform="matrix(1 0 0 -1 727.8727 -260.3397)">
					<stop  offset="0" style="stop-color:#8EFFFF"/>
					<stop  offset="1" style="stop-color:#00F0FF"/>
				</linearGradient>
				<path class="st26" d="M-381.5-66.6c0-4.2,3.4-7.6,7.6-7.6h11.3v1.1c0,1.4,1.1,2.5,2.5,2.5h11.3c1.4,0,2.5-1.1,2.5-2.5v-1.1h11.3
					c3.3,0,6.1,2.1,7.1,5h4.2c3.1,0,5.7,2.5,5.7,5.7v1.3h-3.1v-1.3c0-1.4-1.1-2.5-2.5-2.5h-1.3c-1.4,0-2.5,1.1-2.5,2.5v13.2
					c0,1.4,1.1,2.5,2.5,2.5h1.3c1.4,0,2.5-1.1,2.5-2.5v-1.3h3.1v1.3c0,3.1-2.5,5.7-5.7,5.7h-4.2c-1,2.9-3.8,5-7.1,5h-12v1.1
					c0,1.4-1.1,2.5-2.5,2.5h-9.9c-1.4,0-2.5-1.1-2.5-2.5v-1.1h-12c-4.2,0-7.6-3.4-7.6-7.6V-66.6z"/>
				<text transform="matrix(1 0 0 1 -363.3206 -57.5147)" class="st11 st12"> </text>
				<text transform="matrix(1 0 0 1 -363.3206 -57.5147)" class="st9 st3 st4">set</text>
				<text transform="matrix(1 0 0 1 -345.6449 -57.5147)" class="st11 st12"> </text>
				<text transform="matrix(1 0 0 1 -371.8759 -45.8151)" class="st9 st3 st4">shade</text>
				<text transform="matrix(1 0 0 1 -337.0902 -45.8151)" class="st11 st12"> </text>
			</g>
		</g>
		<g transform="matrix(1 0 0 1 781.8726806640625 228.654541015625)">
			<g transform="matrix( 1 0 0 1 0 0)">
				<path class="st0" d="M-381.5-70.4c0-1.2,1-2.2,2.2-2.2h0.6c1.3,0,2.3,1,2.3,2.2v1.6h5v-2.8c0-1.4,1.1-2.5,2.5-2.5h47.9
					c1.4,0,2.5,1.1,2.5,2.5v14.5c0,1.4-1.1,2.5-2.5,2.5h-47.9c-1.4,0-2.5-1.1-2.5-2.5v-2.8h-5v1.6c0,1.2-1,2.2-2.2,2.2h-0.6
					c-1.2,0-2.2-1-2.2-2.2v-12.1H-381.5z"/>
				
					<linearGradient id="SVGID_15_" gradientUnits="userSpaceOnUse" x1="-1164.3149" y1="-175.741" x2="-1083.3151" y2="-204.541" gradientTransform="matrix(1 0 0 -1 781.8727 -252.3537)">
					<stop  offset="0" style="stop-color:#FCC4F9"/>
					<stop  offset="1" style="stop-color:#F991F3"/>
				</linearGradient>
				<path class="st27" d="M-381.5-70.4c0-1.2,1-2.2,2.2-2.2h0.6c1.3,0,2.3,1,2.3,2.2v1.6h5v-2.8c0-1.4,1.1-2.5,2.5-2.5h47.9
					c1.4,0,2.5,1.1,2.5,2.5v14.5c0,1.4-1.1,2.5-2.5,2.5h-47.9c-1.4,0-2.5-1.1-2.5-2.5v-2.8h-5v1.6c0,1.2-1,2.2-2.2,2.2h-0.6
					c-1.2,0-2.2-1-2.2-2.2v-12.1H-381.5z"/>
				<text transform="matrix(1 0 0 1 -352.966 -61.3096)" class="st2 st3 st4">98</text>
			</g>
		</g>
		<g transform="matrix(1 0 0 1 727.8727416992188 221.4545440673828)">
			<g transform="matrix( 1 0 0 1 0 0)">
				<path class="st7" d="M-381.5-66.6c0-4.2,3.4-7.6,7.6-7.6h11.3v1.1c0,1.4,1.1,2.5,2.5,2.5h11.3c1.4,0,2.5-1.1,2.5-2.5v-1.1h11.3
					c3.3,0,6.1,2.1,7.1,5h4.2c3.1,0,5.7,2.5,5.7,5.7v1.3h-3.1v-1.3c0-1.4-1.1-2.5-2.5-2.5h-1.3c-1.4,0-2.5,1.1-2.5,2.5v13.2
					c0,1.4,1.1,2.5,2.5,2.5h1.3c1.4,0,2.5-1.1,2.5-2.5v-1.3h3.1v1.3c0,3.1-2.5,5.7-5.7,5.7h-4.2c-1,2.9-3.8,5-7.1,5h-12v1.1
					c0,1.4-1.1,2.5-2.5,2.5h-9.9c-1.4,0-2.5-1.1-2.5-2.5v-1.1h-12c-4.2,0-7.6-3.4-7.6-7.6V-66.6z"/>
				
					<linearGradient id="SVGID_16_" gradientUnits="userSpaceOnUse" x1="-1087.9762" y1="-147.5574" x2="-1068.1761" y2="-190.7574" gradientTransform="matrix(1 0 0 -1 727.8727 -225.2397)">
					<stop  offset="0" style="stop-color:#8EFFFF"/>
					<stop  offset="1" style="stop-color:#00F0FF"/>
				</linearGradient>
				<path class="st28" d="M-381.5-66.6c0-4.2,3.4-7.6,7.6-7.6h11.3v1.1c0,1.4,1.1,2.5,2.5,2.5h11.3c1.4,0,2.5-1.1,2.5-2.5v-1.1h11.3
					c3.3,0,6.1,2.1,7.1,5h4.2c3.1,0,5.7,2.5,5.7,5.7v1.3h-3.1v-1.3c0-1.4-1.1-2.5-2.5-2.5h-1.3c-1.4,0-2.5,1.1-2.5,2.5v13.2
					c0,1.4,1.1,2.5,2.5,2.5h1.3c1.4,0,2.5-1.1,2.5-2.5v-1.3h3.1v1.3c0,3.1-2.5,5.7-5.7,5.7h-4.2c-1,2.9-3.8,5-7.1,5h-12v1.1
					c0,1.4-1.1,2.5-2.5,2.5h-9.9c-1.4,0-2.5-1.1-2.5-2.5v-1.1h-12c-4.2,0-7.6-3.4-7.6-7.6V-66.6z"/>
				<text transform="matrix(1 0 0 1 -363.3206 -57.5148)" class="st11 st12"> </text>
				<text transform="matrix(1 0 0 1 -363.3206 -57.5148)" class="st9 st3 st4">set</text>
				<text transform="matrix(1 0 0 1 -345.6449 -57.5148)" class="st11 st12"> </text>
				<text transform="matrix(1 0 0 1 -368.7337 -45.8151)" class="st9 st3 st4">color</text>
				<text transform="matrix(1 0 0 1 -340.2318 -45.8151)" class="st11 st12"> </text>
			</g>
		</g>
		<g transform="matrix(1 0 0 1 781.8726806640625 193.55453491210938)">
			<g transform="matrix( 1 0 0 1 0 0)">
				<path class="st0" d="M-381.5-70.4c0-1.2,1-2.2,2.2-2.2h0.6c1.3,0,2.3,1,2.3,2.2v1.6h5v-2.8c0-1.4,1.1-2.5,2.5-2.5h47.9
					c1.4,0,2.5,1.1,2.5,2.5v14.5c0,1.4-1.1,2.5-2.5,2.5h-47.9c-1.4,0-2.5-1.1-2.5-2.5v-2.8h-5v1.6c0,1.2-1,2.2-2.2,2.2h-0.6
					c-1.2,0-2.2-1-2.2-2.2v-12.1H-381.5z"/>
				
					<linearGradient id="SVGID_17_" gradientUnits="userSpaceOnUse" x1="-1164.3149" y1="-140.641" x2="-1083.3151" y2="-169.441" gradientTransform="matrix(1 0 0 -1 781.8727 -217.2537)">
					<stop  offset="0" style="stop-color:#FCC4F9"/>
					<stop  offset="1" style="stop-color:#F991F3"/>
				</linearGradient>
				<path class="st29" d="M-381.5-70.4c0-1.2,1-2.2,2.2-2.2h0.6c1.3,0,2.3,1,2.3,2.2v1.6h5v-2.8c0-1.4,1.1-2.5,2.5-2.5h47.9
					c1.4,0,2.5,1.1,2.5,2.5v14.5c0,1.4-1.1,2.5-2.5,2.5h-47.9c-1.4,0-2.5-1.1-2.5-2.5v-2.8h-5v1.6c0,1.2-1,2.2-2.2,2.2h-0.6
					c-1.2,0-2.2-1-2.2-2.2v-12.1H-381.5z"/>
				<text transform="matrix(1 0 0 1 -352.966 -61.3096)" class="st2 st3 st4">90</text>
			</g>
		</g>
		<g transform="matrix(1 0 0 1 727.8727416992188 186.3545379638672)">
			<g transform="matrix( 1 0 0 1 0 0)">
				<path class="st7" d="M-381.5-66.6c0-4.2,3.4-7.6,7.6-7.6h11.3v1.1c0,1.4,1.1,2.5,2.5,2.5h11.3c1.4,0,2.5-1.1,2.5-2.5v-1.1h11.3
					c3.3,0,6.1,2.1,7.1,5h4.2c3.1,0,5.7,2.5,5.7,5.7v1.3h-3.1v-1.3c0-1.4-1.1-2.5-2.5-2.5h-1.3c-1.4,0-2.5,1.1-2.5,2.5v13.2
					c0,1.4,1.1,2.5,2.5,2.5h1.3c1.4,0,2.5-1.1,2.5-2.5v-1.3h3.1v1.3c0,3.1-2.5,5.7-5.7,5.7h-4.2c-1,2.9-3.8,5-7.1,5h-12v1.1
					c0,1.4-1.1,2.5-2.5,2.5h-9.9c-1.4,0-2.5-1.1-2.5-2.5v-1.1h-12c-4.2,0-7.6-3.4-7.6-7.6V-66.6z"/>
				
					<linearGradient id="SVGID_18_" gradientUnits="userSpaceOnUse" x1="-1087.9762" y1="-112.4574" x2="-1068.1761" y2="-155.6574" gradientTransform="matrix(1 0 0 -1 727.8727 -190.1397)">
					<stop  offset="0" style="stop-color:#8EFFFF"/>
					<stop  offset="1" style="stop-color:#00F0FF"/>
				</linearGradient>
				<path class="st30" d="M-381.5-66.6c0-4.2,3.4-7.6,7.6-7.6h11.3v1.1c0,1.4,1.1,2.5,2.5,2.5h11.3c1.4,0,2.5-1.1,2.5-2.5v-1.1h11.3
					c3.3,0,6.1,2.1,7.1,5h4.2c3.1,0,5.7,2.5,5.7,5.7v1.3h-3.1v-1.3c0-1.4-1.1-2.5-2.5-2.5h-1.3c-1.4,0-2.5,1.1-2.5,2.5v13.2
					c0,1.4,1.1,2.5,2.5,2.5h1.3c1.4,0,2.5-1.1,2.5-2.5v-1.3h3.1v1.3c0,3.1-2.5,5.7-5.7,5.7h-4.2c-1,2.9-3.8,5-7.1,5h-12v1.1
					c0,1.4-1.1,2.5-2.5,2.5h-9.9c-1.4,0-2.5-1.1-2.5-2.5v-1.1h-12c-4.2,0-7.6-3.4-7.6-7.6V-66.6z"/>
				<text transform="matrix(1 0 0 1 -363.3206 -57.5148)" class="st11 st12"> </text>
				<text transform="matrix(1 0 0 1 -363.3206 -57.5148)" class="st9 st3 st4">set</text>
				<text transform="matrix(1 0 0 1 -345.6449 -57.5148)" class="st11 st12"> </text>
				<text transform="matrix(1 0 0 1 -376.4915 -45.8151)" class="st9 st3 st4">pensize</text>
				<text transform="matrix(1 0 0 1 -332.474 -45.8151)" class="st11 st12"> </text>
			</g>
		</g>
		<g transform="matrix(1 0 0 1 781.8726806640625 158.4545440673828)">
			<g transform="matrix( 1 0 0 1 0 0)">
				<path class="st0" d="M-381.5-70.4c0-1.2,1-2.2,2.2-2.2h0.6c1.3,0,2.3,1,2.3,2.2v1.6h5v-2.8c0-1.4,1.1-2.5,2.5-2.5h47.9
					c1.4,0,2.5,1.1,2.5,2.5v14.5c0,1.4-1.1,2.5-2.5,2.5h-47.9c-1.4,0-2.5-1.1-2.5-2.5v-2.8h-5v1.6c0,1.2-1,2.2-2.2,2.2h-0.6
					c-1.2,0-2.2-1-2.2-2.2v-12.1H-381.5z"/>
				
					<linearGradient id="SVGID_19_" gradientUnits="userSpaceOnUse" x1="-1164.3149" y1="-105.541" x2="-1083.3151" y2="-134.341" gradientTransform="matrix(1 0 0 -1 781.8727 -182.1537)">
					<stop  offset="0" style="stop-color:#FCC4F9"/>
					<stop  offset="1" style="stop-color:#F991F3"/>
				</linearGradient>
				<path class="st31" d="M-381.5-70.4c0-1.2,1-2.2,2.2-2.2h0.6c1.3,0,2.3,1,2.3,2.2v1.6h5v-2.8c0-1.4,1.1-2.5,2.5-2.5h47.9
					c1.4,0,2.5,1.1,2.5,2.5v14.5c0,1.4-1.1,2.5-2.5,2.5h-47.9c-1.4,0-2.5-1.1-2.5-2.5v-2.8h-5v1.6c0,1.2-1,2.2-2.2,2.2h-0.6
					c-1.2,0-2.2-1-2.2-2.2v-12.1H-381.5z"/>
				<text transform="matrix(1 0 0 1 -359.3415 -61.3096)" class="st2 st3 st4">-130</text>
			</g>
		</g>
		<g transform="matrix(1 0 0 1 781.8726806640625 122.45453643798828)">
			<g transform="matrix( 1 0 0 1 0 0)">
				<path class="st0" d="M-381.5-70.4c0-1.2,1-2.2,2.2-2.2h0.6c1.3,0,2.3,1,2.3,2.2v1.6h5v-2.8c0-1.4,1.1-2.5,2.5-2.5h47.9
					c1.4,0,2.5,1.1,2.5,2.5v14.5c0,1.4-1.1,2.5-2.5,2.5h-47.9c-1.4,0-2.5-1.1-2.5-2.5v-2.8h-5v1.6c0,1.2-1,2.2-2.2,2.2h-0.6
					c-1.2,0-2.2-1-2.2-2.2v-12.1H-381.5z"/>
				
					<linearGradient id="SVGID_20_" gradientUnits="userSpaceOnUse" x1="-1164.3149" y1="-69.541" x2="-1083.3151" y2="-98.341" gradientTransform="matrix(1 0 0 -1 781.8727 -146.1537)">
					<stop  offset="0" style="stop-color:#FCC4F9"/>
					<stop  offset="1" style="stop-color:#F991F3"/>
				</linearGradient>
				<path class="st32" d="M-381.5-70.4c0-1.2,1-2.2,2.2-2.2h0.6c1.3,0,2.3,1,2.3,2.2v1.6h5v-2.8c0-1.4,1.1-2.5,2.5-2.5h47.9
					c1.4,0,2.5,1.1,2.5,2.5v14.5c0,1.4-1.1,2.5-2.5,2.5h-47.9c-1.4,0-2.5-1.1-2.5-2.5v-2.8h-5v1.6c0,1.2-1,2.2-2.2,2.2h-0.6
					c-1.2,0-2.2-1-2.2-2.2v-12.1H-381.5z"/>
				<text transform="matrix(1 0 0 1 -355.6225 -61.3096)" class="st2 st3 st4">-30</text>
			</g>
		</g>
		<g transform="matrix(1 0 0 1 727.8727416992188 115.25454711914062)">
			<g transform="matrix( 1 0 0 1 0 0)">
				<path class="st18" d="M-381.5-66.6c0-4.1,3.4-7.6,7.6-7.6h11.3v1.2c0,1.4,1.2,2.5,2.5,2.5h11.3c1.3,0,2.5-1.2,2.5-2.5v-1.2h11.3
					c3.3,0,6.1,2.1,7.1,5h4.2c3.1,0,5.7,2.5,5.7,5.7v1.3h-3.2v-1.3c0-1.4-1.2-2.5-2.5-2.5h-1.3c-1.4,0-2.5,1.2-2.5,2.5v13.2
					c0,1.4,1.2,2.5,2.5,2.5h1.3c1.3,0,2.5-1.2,2.5-2.5v-1.3h3.2v1.3c0,3.1-2.5,5.7-5.7,5.7h-3.8v11.3h3.8c3.1,0,5.7,2.5,5.7,5.7v1.3
					h-3.2v-1.3c0-1.3-1.2-2.5-2.5-2.5h-1.3c-1.4,0-2.5,1.2-2.5,2.5v13.2c0,1.4,1.2,2.5,2.5,2.5h1.3c1.3,0,2.5-1.2,2.5-2.5v-1.3h3.2
					v1.3c0,3.2-2.5,5.7-5.7,5.7h-4.2c-1.1,3-3.9,5-7.1,5h-12v1.2c0,1.3-1.2,2.5-2.5,2.5h-9.9c-1.4,0-2.5-1.2-2.5-2.5v-1.2h-12
					c-4.1,0-7.6-3.4-7.6-7.6C-381.5-11.3-381.5-66.6-381.5-66.6z"/>
				
					<linearGradient id="SVGID_21_" gradientUnits="userSpaceOnUse" x1="-1094.7686" y1="1050.1764" x2="-1074.9685" y2="1093.3765" gradientTransform="matrix(1 0 0 1 727.8727 -1124.7455)">
					<stop  offset="0" style="stop-color:#A1FF72"/>
					<stop  offset="1" style="stop-color:#00F200"/>
				</linearGradient>
				<path class="st33" d="M-381.5-66.6c0-4.1,3.4-7.6,7.6-7.6h11.3v1.2c0,1.4,1.2,2.5,2.5,2.5h11.3c1.3,0,2.5-1.2,2.5-2.5v-1.2h11.3
					c3.3,0,6.1,2.1,7.1,5h4.2c3.1,0,5.7,2.5,5.7,5.7v1.3h-3.2v-1.3c0-1.4-1.2-2.5-2.5-2.5h-1.3c-1.4,0-2.5,1.2-2.5,2.5v13.2
					c0,1.4,1.2,2.5,2.5,2.5h1.3c1.3,0,2.5-1.2,2.5-2.5v-1.3h3.2v1.3c0,3.1-2.5,5.7-5.7,5.7h-3.8v11.3h3.8c3.1,0,5.7,2.5,5.7,5.7v1.3
					h-3.2v-1.3c0-1.3-1.2-2.5-2.5-2.5h-1.3c-1.4,0-2.5,1.2-2.5,2.5v13.2c0,1.4,1.2,2.5,2.5,2.5h1.3c1.3,0,2.5-1.2,2.5-2.5v-1.3h3.2
					v1.3c0,3.2-2.5,5.7-5.7,5.7h-4.2c-1.1,3-3.9,5-7.1,5h-12v1.2c0,1.3-1.2,2.5-2.5,2.5h-9.9c-1.4,0-2.5-1.2-2.5-2.5v-1.2h-12
					c-4.1,0-7.6-3.4-7.6-7.6C-381.5-11.3-381.5-66.6-381.5-66.6z"/>
				<text transform="matrix(1 0 0 1 -370.2448 -35.9151)" class="st20 st3 st4">setxy</text>
				<text transform="matrix(1 0 0 1 -335.426 -54.5704)" class="st20 st3 st34">x</text>
				<text transform="matrix(1 0 0 1 -335.426 -18.6832)" class="st20 st3 st34">y</text>
			</g>
		</g>
		<g transform="matrix(1 0 0 1 715.272705078125 71.15454864501953)">
			<g transform="matrix( 1 0 0 1 0 0)">
				<path class="st35" d="M-377.5-37.4c0-18.1,17.8-32.8,35.9-32.8s35.9,14.7,35.9,32.8c0,4.2-3.4,7.6-7.6,7.6H-334v1.1
					c0,1.4-1.1,2.5-2.5,2.5h-10.1c-1.4,0-2.5-1.1-2.5-2.5v-1.1h-20.8C-374.1-29.9-377.5-33.3-377.5-37.4z"/>
				
					<linearGradient id="SVGID_22_" gradientUnits="userSpaceOnUse" x1="-1074.3153" y1="15.9855" x2="-1054.5154" y2="-27.2145" gradientTransform="matrix(1 0 0 -1 715.2727 -61.6736)">
					<stop  offset="0" style="stop-color:#FFFF72"/>
					<stop  offset="1" style="stop-color:#FFF600"/>
				</linearGradient>
				<path class="st36" d="M-377.5-37.4c0-18.1,17.8-32.8,35.9-32.8s35.9,14.7,35.9,32.8c0,4.2-3.4,7.6-7.6,7.6H-334v1.1
					c0,1.4-1.1,2.5-2.5,2.5h-10.1c-1.4,0-2.5-1.1-2.5-2.5v-1.1h-20.8C-374.1-29.9-377.5-33.3-377.5-37.4z"/>
				<text transform="matrix(1 0 0 1 -352.3283 -41.5096)" class="st37 st3 st4">dot</text>
			</g>
		</g>
	</g>
	<g>
		<g transform="matrix(1 0 0 1 339.0727233886719 226.8545379638672)">
			<g transform="matrix( 1 0 0 1 0 0)">
				<path class="st35" d="M-338.1-66.2c0-4.2,3.4-7.6,7.6-7.6h11.3v1.1c0,1.4,1.1,2.5,2.5,2.5h11.3c1.4,0,2.5-1.1,2.5-2.5v-1.1h11.3
					c4.2,0,7.6,3.4,7.6,7.6v19.5c0,4.2-3.4,7.6-7.6,7.6h-12v1.1c0,1.4-1.1,2.5-2.5,2.5h-9.9c-1.4,0-2.5-1.1-2.5-2.5v-1.1h-12
					c-4.2,0-7.6-3.4-7.6-7.6C-338.1-46.7-338.1-66.2-338.1-66.2z"/>
				
					<linearGradient id="SVGID_23_" gradientUnits="userSpaceOnUse" x1="-659.014" y1="-154.8415" x2="-639.214" y2="-198.0415" gradientTransform="matrix(1 0 0 -1 339.0727 -230.6397)">
					<stop  offset="0" style="stop-color:#FFFF72"/>
					<stop  offset="1" style="stop-color:#FFF600"/>
				</linearGradient>
				<path class="st38" d="M-338.1-66.2c0-4.2,3.4-7.6,7.6-7.6h11.3v1.1c0,1.4,1.1,2.5,2.5,2.5h11.3c1.4,0,2.5-1.1,2.5-2.5v-1.1h11.3
					c4.2,0,7.6,3.4,7.6,7.6v19.5c0,4.2-3.4,7.6-7.6,7.6h-12v1.1c0,1.4-1.1,2.5-2.5,2.5h-9.9c-1.4,0-2.5-1.1-2.5-2.5v-1.1h-12
					c-4.2,0-7.6-3.4-7.6-7.6C-338.1-46.7-338.1-66.2-338.1-66.2z"/>
				<text transform="matrix(1 0 0 1 -319.7282 -51.0095)" class="st37 st3 st4">dot</text>
			</g>
		</g>
		<g transform="matrix(1 0 0 1 339.0727233886719 191.75454711914062)">
			<g transform="matrix( 1 0 0 1 0 0)">
				<path class="st35" d="M-338.1-66.2c0-4.2,3.4-7.6,7.6-7.6h11.3v1.1c0,1.4,1.1,2.5,2.5,2.5h11.3c1.4,0,2.5-1.1,2.5-2.5v-1.1h11.3
					c4.2,0,7.6,3.4,7.6,7.6v19.5c0,4.2-3.4,7.6-7.6,7.6h-12v1.1c0,1.4-1.1,2.5-2.5,2.5h-9.9c-1.4,0-2.5-1.1-2.5-2.5v-1.1h-12
					c-4.2,0-7.6-3.4-7.6-7.6C-338.1-46.7-338.1-66.2-338.1-66.2z"/>
				
					<linearGradient id="SVGID_24_" gradientUnits="userSpaceOnUse" x1="-659.014" y1="-119.7415" x2="-639.214" y2="-162.9415" gradientTransform="matrix(1 0 0 -1 339.0727 -195.5397)">
					<stop  offset="0" style="stop-color:#FFFF72"/>
					<stop  offset="1" style="stop-color:#FFF600"/>
				</linearGradient>
				<path class="st39" d="M-338.1-66.2c0-4.2,3.4-7.6,7.6-7.6h11.3v1.1c0,1.4,1.1,2.5,2.5,2.5h11.3c1.4,0,2.5-1.1,2.5-2.5v-1.1h11.3
					c4.2,0,7.6,3.4,7.6,7.6v19.5c0,4.2-3.4,7.6-7.6,7.6h-12v1.1c0,1.4-1.1,2.5-2.5,2.5h-9.9c-1.4,0-2.5-1.1-2.5-2.5v-1.1h-12
					c-4.2,0-7.6-3.4-7.6-7.6C-338.1-46.7-338.1-66.2-338.1-66.2z"/>
				<text transform="matrix(1 0 0 1 -321.599 -51.0096)" class="st37 st3 st4">star</text>
			</g>
		</g>
		<g transform="matrix(1 0 0 1 393.0727233886719 163.8545379638672)">
			<g transform="matrix( 1 0 0 1 0 0)">
				<path class="st0" d="M-338.1-70c0-1.2,1-2.2,2.2-2.2h0.6c1.3,0,2.3,1,2.3,2.2v1.6h5v-2.8c0-1.4,1.1-2.5,2.5-2.5h47.9
					c1.4,0,2.5,1.1,2.5,2.5v14.5c0,1.4-1.1,2.5-2.5,2.5h-47.9c-1.4,0-2.5-1.1-2.5-2.5v-2.8h-5v1.6c0,1.2-1,2.2-2.2,2.2h-0.6
					c-1.2,0-2.2-1-2.2-2.2V-70H-338.1z"/>
				
					<linearGradient id="SVGID_25_" gradientUnits="userSpaceOnUse" x1="-732.115" y1="-111.341" x2="-651.1151" y2="-140.141" gradientTransform="matrix(1 0 0 -1 393.0727 -187.5537)">
					<stop  offset="0" style="stop-color:#FCC4F9"/>
					<stop  offset="1" style="stop-color:#F991F3"/>
				</linearGradient>
				<path class="st40" d="M-338.1-70c0-1.2,1-2.2,2.2-2.2h0.6c1.3,0,2.3,1,2.3,2.2v1.6h5v-2.8c0-1.4,1.1-2.5,2.5-2.5h47.9
					c1.4,0,2.5,1.1,2.5,2.5v14.5c0,1.4-1.1,2.5-2.5,2.5h-47.9c-1.4,0-2.5-1.1-2.5-2.5v-2.8h-5v1.6c0,1.2-1,2.2-2.2,2.2h-0.6
					c-1.2,0-2.2-1-2.2-2.2V-70H-338.1z"/>
				<text transform="matrix(1 0 0 1 -309.5659 -60.9096)" class="st2 st3 st4">40</text>
			</g>
		</g>
		<g transform="matrix(1 0 0 1 393.0727233886719 127.85453796386719)">
			<g transform="matrix( 1 0 0 1 0 0)">
				<path class="st0" d="M-338.1-70c0-1.2,1-2.2,2.2-2.2h0.6c1.3,0,2.3,1,2.3,2.2v1.6h5v-2.8c0-1.4,1.1-2.5,2.5-2.5h47.9
					c1.4,0,2.5,1.1,2.5,2.5v14.5c0,1.4-1.1,2.5-2.5,2.5h-47.9c-1.4,0-2.5-1.1-2.5-2.5v-2.8h-5v1.6c0,1.2-1,2.2-2.2,2.2h-0.6
					c-1.2,0-2.2-1-2.2-2.2V-70H-338.1z"/>
				
					<linearGradient id="SVGID_26_" gradientUnits="userSpaceOnUse" x1="-732.115" y1="-75.341" x2="-651.1151" y2="-104.141" gradientTransform="matrix(1 0 0 -1 393.0727 -151.5537)">
					<stop  offset="0" style="stop-color:#FCC4F9"/>
					<stop  offset="1" style="stop-color:#F991F3"/>
				</linearGradient>
				<path class="st41" d="M-338.1-70c0-1.2,1-2.2,2.2-2.2h0.6c1.3,0,2.3,1,2.3,2.2v1.6h5v-2.8c0-1.4,1.1-2.5,2.5-2.5h47.9
					c1.4,0,2.5,1.1,2.5,2.5v14.5c0,1.4-1.1,2.5-2.5,2.5h-47.9c-1.4,0-2.5-1.1-2.5-2.5v-2.8h-5v1.6c0,1.2-1,2.2-2.2,2.2h-0.6
					c-1.2,0-2.2-1-2.2-2.2V-70H-338.1z"/>
				<text transform="matrix(1 0 0 1 -309.5659 -60.9096)" class="st2 st3 st4">80</text>
			</g>
		</g>
		<g transform="matrix(1 0 0 1 339.0727233886719 120.654541015625)">
			<g transform="matrix( 1 0 0 1 0 0)">
				<path class="st7" d="M-338.1-66.2c0-4.2,3.4-7.6,7.6-7.6h11.3v1.1c0,1.4,1.1,2.5,2.5,2.5h11.3c1.4,0,2.5-1.1,2.5-2.5v-1.1h11.3
					c3.3,0,6.1,2.1,7.1,5h4.2c3.1,0,5.7,2.5,5.7,5.7v1.3h-3.1v-1.3c0-1.4-1.1-2.5-2.5-2.5h-1.3c-1.4,0-2.5,1.1-2.5,2.5v13.2
					c0,1.4,1.1,2.5,2.5,2.5h1.3c1.4,0,2.5-1.1,2.5-2.5v-1.3h3.1v1.3c0,3.1-2.5,5.7-5.7,5.7h-3.8v11.3h3.8c3.1,0,5.7,2.5,5.7,5.7v1.3
					h-3.1v-1.3c0-1.4-1.1-2.5-2.5-2.5h-1.3c-1.4,0-2.5,1.1-2.5,2.5V-14c0,1.4,1.1,2.5,2.5,2.5h1.3c1.4,0,2.5-1.1,2.5-2.5v-1.3h3.1
					v1.3c0,3.1-2.5,5.7-5.7,5.7h-4.2c-1,2.9-3.8,5-7.1,5h-12v1.1c0,1.4-1.1,2.5-2.5,2.5h-9.9c-1.4,0-2.5-1.1-2.5-2.5v-1.1h-12
					c-4.2,0-7.6-3.4-7.6-7.6V-66.2z"/>
				
					<linearGradient id="SVGID_27_" gradientUnits="userSpaceOnUse" x1="-662.5749" y1="-14.2636" x2="-642.7749" y2="-57.4636" gradientTransform="matrix(1 0 0 -1 339.0727 -88.4297)">
					<stop  offset="0" style="stop-color:#8EFFFF"/>
					<stop  offset="1" style="stop-color:#00F0FF"/>
				</linearGradient>
				<path class="st42" d="M-338.1-66.2c0-4.2,3.4-7.6,7.6-7.6h11.3v1.1c0,1.4,1.1,2.5,2.5,2.5h11.3c1.4,0,2.5-1.1,2.5-2.5v-1.1h11.3
					c3.3,0,6.1,2.1,7.1,5h4.2c3.1,0,5.7,2.5,5.7,5.7v1.3h-3.1v-1.3c0-1.4-1.1-2.5-2.5-2.5h-1.3c-1.4,0-2.5,1.1-2.5,2.5v13.2
					c0,1.4,1.1,2.5,2.5,2.5h1.3c1.4,0,2.5-1.1,2.5-2.5v-1.3h3.1v1.3c0,3.1-2.5,5.7-5.7,5.7h-3.8v11.3h3.8c3.1,0,5.7,2.5,5.7,5.7v1.3
					h-3.1v-1.3c0-1.4-1.1-2.5-2.5-2.5h-1.3c-1.4,0-2.5,1.1-2.5,2.5V-14c0,1.4,1.1,2.5,2.5,2.5h1.3c1.4,0,2.5-1.1,2.5-2.5v-1.3h3.1
					v1.3c0,3.1-2.5,5.7-5.7,5.7h-4.2c-1,2.9-3.8,5-7.1,5h-12v1.1c0,1.4-1.1,2.5-2.5,2.5h-9.9c-1.4,0-2.5-1.1-2.5-2.5v-1.1h-12
					c-4.2,0-7.6-3.4-7.6-7.6V-66.2z"/>
				<text transform="matrix(1 0 0 1 -317.9553 -40.1684)" class="st11 st12"> </text>
				<text transform="matrix(1 0 0 1 -317.9553 -40.1684)" class="st9 st3 st4">fill</text>
				<text transform="matrix(1 0 0 1 -304.2097 -40.1684)" class="st11 st12"> </text>
				<text transform="matrix(1 0 0 1 -330.3464 -28.4686)" class="st9 st3 st4">screen</text>
				<text transform="matrix(1 0 0 1 -291.819 -28.4686)" class="st11 st12"> </text>
				<text transform="matrix(1 0 0 1 -306.9646 -54.1707)" class="st9 st3 st34">color</text>
				<text transform="matrix(1 0 0 1 -311.3151 -18.283)" class="st9 st3 st34">shade</text>
			</g>
		</g>
		<g transform="matrix(1 0 0 1 339.0727233886719 85.5545425415039)">
			<g transform="matrix( 1 0 0 1 0 0)">
				<path class="st18" d="M-338.1-66.2c0-4.1,3.4-7.6,7.6-7.6h11.3v1.2c0,1.4,1.2,2.5,2.5,2.5h11.3c1.3,0,2.5-1.2,2.5-2.5v-1.2h11.3
					c4.1,0,7.6,3.4,7.6,7.6v19.5c0,4.1-3.4,7.6-7.6,7.6h-12v1.2c0,1.3-1.2,2.5-2.5,2.5h-9.9c-1.4,0-2.5-1.2-2.5-2.5v-1.2h-12
					c-4.1,0-7.6-3.4-7.6-7.6C-338.1-46.7-338.1-66.2-338.1-66.2z"/>
				
					<linearGradient id="SVGID_28_" gradientUnits="userSpaceOnUse" x1="-659.014" y1="-37.5454" x2="-639.214" y2="-80.7455" gradientTransform="matrix(1 0 0 -1 339.0727 -113.3437)">
					<stop  offset="0" style="stop-color:#A1FF72"/>
					<stop  offset="1" style="stop-color:#00F200"/>
				</linearGradient>
				<path class="st43" d="M-338.1-66.2c0-4.1,3.4-7.6,7.6-7.6h11.3v1.2c0,1.4,1.2,2.5,2.5,2.5h11.3c1.3,0,2.5-1.2,2.5-2.5v-1.2h11.3
					c4.1,0,7.6,3.4,7.6,7.6v19.5c0,4.1-3.4,7.6-7.6,7.6h-12v1.2c0,1.3-1.2,2.5-2.5,2.5h-9.9c-1.4,0-2.5-1.2-2.5-2.5v-1.2h-12
					c-4.1,0-7.6-3.4-7.6-7.6C-338.1-46.7-338.1-66.2-338.1-66.2z"/>
				<text transform="matrix(1 0 0 1 -325.9863 -51.7148)" class="st20 st3 st4">clean</text>
			</g>
		</g>
	</g>
	<g>
		<g transform="matrix(1 0 0 1 619.8726806640625 380.7545471191406)">
			<g transform="matrix( 1 0 0 1 0 0)">
				<path class="st0" d="M-361.7-77c0-1.2,1-2.2,2.2-2.2h0.6c1.3,0,2.3,1,2.3,2.2v1.6h5v-2.8c0-1.4,1.1-2.5,2.5-2.5h47.9
					c1.4,0,2.5,1.1,2.5,2.5v14.5c0,1.4-1.1,2.5-2.5,2.5h-47.9c-1.4,0-2.5-1.1-2.5-2.5v-2.8h-5v1.6c0,1.2-1,2.2-2.2,2.2h-0.6
					c-1.2,0-2.2-1-2.2-2.2V-77H-361.7z"/>
				
					<linearGradient id="SVGID_29_" gradientUnits="userSpaceOnUse" x1="-982.465" y1="-321.241" x2="-901.465" y2="-350.041" gradientTransform="matrix(1 0 0 -1 619.8727 -404.4537)">
					<stop  offset="0" style="stop-color:#FCC4F9"/>
					<stop  offset="1" style="stop-color:#F991F3"/>
				</linearGradient>
				<path class="st44" d="M-361.7-77c0-1.2,1-2.2,2.2-2.2h0.6c1.3,0,2.3,1,2.3,2.2v1.6h5v-2.8c0-1.4,1.1-2.5,2.5-2.5h47.9
					c1.4,0,2.5,1.1,2.5,2.5v14.5c0,1.4-1.1,2.5-2.5,2.5h-47.9c-1.4,0-2.5-1.1-2.5-2.5v-2.8h-5v1.6c0,1.2-1,2.2-2.2,2.2h-0.6
					c-1.2,0-2.2-1-2.2-2.2V-77H-361.7z"/>
				<text transform="matrix(1 0 0 1 -333.1159 -67.9096)" class="st2 st3 st4">30</text>
			</g>
		</g>
		<g transform="matrix(1 0 0 1 565.8727416992188 373.5545349121094)">
			<g transform="matrix( 1 0 0 1 0 0)">
				<path class="st18" d="M-361.7-73.2c0-4.1,3.4-7.6,7.6-7.6h11.3v1.2c0,1.4,1.2,2.5,2.5,2.5h11.3c1.3,0,2.5-1.2,2.5-2.5v-1.2h11.3
					c3.3,0,6.1,2.1,7.1,5h4.2c3.1,0,5.7,2.5,5.7,5.7v1.3h-3.2v-1.3c0-1.4-1.2-2.5-2.5-2.5h-1.3c-1.4,0-2.5,1.2-2.5,2.5v13.2
					c0,1.4,1.2,2.5,2.5,2.5h1.3c1.3,0,2.5-1.2,2.5-2.5v-1.3h3.2v1.3c0,3.1-2.5,5.7-5.7,5.7h-4.2c-1,3-3.8,5-7.1,5h-12v1.2
					c0,1.3-1.2,2.5-2.5,2.5h-9.9c-1.4,0-2.5-1.2-2.5-2.5v-1.2h-12c-4.1,0-7.6-3.4-7.6-7.6C-361.7-53.8-361.7-73.2-361.7-73.2z"/>
				
					<linearGradient id="SVGID_30_" gradientUnits="userSpaceOnUse" x1="-906.1196" y1="856.1603" x2="-886.3196" y2="899.3603" gradientTransform="matrix(1 0 0 1 565.8727 -940.4454)">
					<stop  offset="0" style="stop-color:#A1FF72"/>
					<stop  offset="1" style="stop-color:#00F200"/>
				</linearGradient>
				<path class="st45" d="M-361.7-73.2c0-4.1,3.4-7.6,7.6-7.6h11.3v1.2c0,1.4,1.2,2.5,2.5,2.5h11.3c1.3,0,2.5-1.2,2.5-2.5v-1.2h11.3
					c3.3,0,6.1,2.1,7.1,5h4.2c3.1,0,5.7,2.5,5.7,5.7v1.3h-3.2v-1.3c0-1.4-1.2-2.5-2.5-2.5h-1.3c-1.4,0-2.5,1.2-2.5,2.5v13.2
					c0,1.4,1.2,2.5,2.5,2.5h1.3c1.3,0,2.5-1.2,2.5-2.5v-1.3h3.2v1.3c0,3.1-2.5,5.7-5.7,5.7h-4.2c-1,3-3.8,5-7.1,5h-12v1.2
					c0,1.3-1.2,2.5-2.5,2.5h-9.9c-1.4,0-2.5-1.2-2.5-2.5v-1.2h-12c-4.1,0-7.6-3.4-7.6-7.6C-361.7-53.8-361.7-73.2-361.7-73.2z"/>
				<text transform="matrix(1 0 0 1 -348.3132 -58.7149)" class="st20 st3 st4">right</text>
			</g>
		</g>
		<g transform="matrix(1 0 0 1 619.8726806640625 345.654541015625)">
			<g transform="matrix( 1 0 0 1 0 0)">
				<path class="st0" d="M-361.7-77c0-1.2,1-2.2,2.2-2.2h0.6c1.3,0,2.3,1,2.3,2.2v1.6h5v-2.8c0-1.4,1.1-2.5,2.5-2.5h47.9
					c1.4,0,2.5,1.1,2.5,2.5v14.5c0,1.4-1.1,2.5-2.5,2.5h-47.9c-1.4,0-2.5-1.1-2.5-2.5v-2.8h-5v1.6c0,1.2-1,2.2-2.2,2.2h-0.6
					c-1.2,0-2.2-1-2.2-2.2V-77H-361.7z"/>
				
					<linearGradient id="SVGID_31_" gradientUnits="userSpaceOnUse" x1="-982.465" y1="-286.141" x2="-901.465" y2="-314.941" gradientTransform="matrix(1 0 0 -1 619.8727 -369.3537)">
					<stop  offset="0" style="stop-color:#FCC4F9"/>
					<stop  offset="1" style="stop-color:#F991F3"/>
				</linearGradient>
				<path class="st46" d="M-361.7-77c0-1.2,1-2.2,2.2-2.2h0.6c1.3,0,2.3,1,2.3,2.2v1.6h5v-2.8c0-1.4,1.1-2.5,2.5-2.5h47.9
					c1.4,0,2.5,1.1,2.5,2.5v14.5c0,1.4-1.1,2.5-2.5,2.5h-47.9c-1.4,0-2.5-1.1-2.5-2.5v-2.8h-5v1.6c0,1.2-1,2.2-2.2,2.2h-0.6
					c-1.2,0-2.2-1-2.2-2.2V-77H-361.7z"/>
				<text transform="matrix(1 0 0 1 -336.835 -67.9096)" class="st2 st3 st4">650</text>
			</g>
		</g>
		<g transform="matrix(1 0 0 1 565.8727416992188 338.4545593261719)">
			<g transform="matrix( 1 0 0 1 0 0)">
				<path class="st18" d="M-361.7-73.2c0-4.1,3.4-7.6,7.6-7.6h11.3v1.2c0,1.4,1.2,2.5,2.5,2.5h11.3c1.3,0,2.5-1.2,2.5-2.5v-1.2h11.3
					c3.3,0,6.1,2.1,7.1,5h4.2c3.1,0,5.7,2.5,5.7,5.7v1.3h-3.2v-1.3c0-1.4-1.2-2.5-2.5-2.5h-1.3c-1.4,0-2.5,1.2-2.5,2.5v13.2
					c0,1.4,1.2,2.5,2.5,2.5h1.3c1.3,0,2.5-1.2,2.5-2.5v-1.3h3.2v1.3c0,3.1-2.5,5.7-5.7,5.7h-4.2c-1,3-3.8,5-7.1,5h-12v1.2
					c0,1.3-1.2,2.5-2.5,2.5h-9.9c-1.4,0-2.5-1.2-2.5-2.5v-1.2h-12c-4.1,0-7.6-3.4-7.6-7.6C-361.7-53.8-361.7-73.2-361.7-73.2z"/>
				
					<linearGradient id="SVGID_32_" gradientUnits="userSpaceOnUse" x1="-906.1196" y1="-281.9585" x2="-886.3196" y2="-325.1585" gradientTransform="matrix(1 0 0 -1 565.8727 -366.2437)">
					<stop  offset="0" style="stop-color:#A1FF72"/>
					<stop  offset="1" style="stop-color:#00F200"/>
				</linearGradient>
				<path class="st47" d="M-361.7-73.2c0-4.1,3.4-7.6,7.6-7.6h11.3v1.2c0,1.4,1.2,2.5,2.5,2.5h11.3c1.3,0,2.5-1.2,2.5-2.5v-1.2h11.3
					c3.3,0,6.1,2.1,7.1,5h4.2c3.1,0,5.7,2.5,5.7,5.7v1.3h-3.2v-1.3c0-1.4-1.2-2.5-2.5-2.5h-1.3c-1.4,0-2.5,1.2-2.5,2.5v13.2
					c0,1.4,1.2,2.5,2.5,2.5h1.3c1.3,0,2.5-1.2,2.5-2.5v-1.3h3.2v1.3c0,3.1-2.5,5.7-5.7,5.7h-4.2c-1,3-3.8,5-7.1,5h-12v1.2
					c0,1.3-1.2,2.5-2.5,2.5h-9.9c-1.4,0-2.5-1.2-2.5-2.5v-1.2h-12c-4.1,0-7.6-3.4-7.6-7.6C-361.7-53.8-361.7-73.2-361.7-73.2z"/>
				<text transform="matrix(1 0 0 1 -347.4012 -58.7149)" class="st20 st3 st4">back</text>
			</g>
		</g>
		<g transform="matrix(1 0 0 1 619.8726806640625 310.5545349121094)">
			<g transform="matrix( 1 0 0 1 0 0)">
				<path class="st0" d="M-361.7-77c0-1.2,1-2.2,2.2-2.2h0.6c1.3,0,2.3,1,2.3,2.2v1.6h5v-2.8c0-1.4,1.1-2.5,2.5-2.5h47.9
					c1.4,0,2.5,1.1,2.5,2.5v14.5c0,1.4-1.1,2.5-2.5,2.5h-47.9c-1.4,0-2.5-1.1-2.5-2.5v-2.8h-5v1.6c0,1.2-1,2.2-2.2,2.2h-0.6
					c-1.2,0-2.2-1-2.2-2.2V-77H-361.7z"/>
				
					<linearGradient id="SVGID_33_" gradientUnits="userSpaceOnUse" x1="-982.465" y1="-251.041" x2="-901.465" y2="-279.841" gradientTransform="matrix(1 0 0 -1 619.8727 -334.2537)">
					<stop  offset="0" style="stop-color:#FCC4F9"/>
					<stop  offset="1" style="stop-color:#F991F3"/>
				</linearGradient>
				<path class="st48" d="M-361.7-77c0-1.2,1-2.2,2.2-2.2h0.6c1.3,0,2.3,1,2.3,2.2v1.6h5v-2.8c0-1.4,1.1-2.5,2.5-2.5h47.9
					c1.4,0,2.5,1.1,2.5,2.5v14.5c0,1.4-1.1,2.5-2.5,2.5h-47.9c-1.4,0-2.5-1.1-2.5-2.5v-2.8h-5v1.6c0,1.2-1,2.2-2.2,2.2h-0.6
					c-1.2,0-2.2-1-2.2-2.2V-77H-361.7z"/>
				<text transform="matrix(1 0 0 1 -336.835 -67.9096)" class="st2 st3 st4">650</text>
			</g>
		</g>
		<g transform="matrix(1 0 0 1 565.8727416992188 303.3545227050781)">
			<g transform="matrix( 1 0 0 1 0 0)">
				<path class="st18" d="M-361.7-73.2c0-4.1,3.4-7.6,7.6-7.6h11.3v1.2c0,1.4,1.2,2.5,2.5,2.5h11.3c1.3,0,2.5-1.2,2.5-2.5v-1.2h11.3
					c3.3,0,6.1,2.1,7.1,5h4.2c3.1,0,5.7,2.5,5.7,5.7v1.3h-3.2v-1.3c0-1.4-1.2-2.5-2.5-2.5h-1.3c-1.4,0-2.5,1.2-2.5,2.5v13.2
					c0,1.4,1.2,2.5,2.5,2.5h1.3c1.3,0,2.5-1.2,2.5-2.5v-1.3h3.2v1.3c0,3.1-2.5,5.7-5.7,5.7h-4.2c-1,3-3.8,5-7.1,5h-12v1.2
					c0,1.3-1.2,2.5-2.5,2.5h-9.9c-1.4,0-2.5-1.2-2.5-2.5v-1.2h-12c-4.1,0-7.6-3.4-7.6-7.6C-361.7-53.8-361.7-73.2-361.7-73.2z"/>
				
					<linearGradient id="SVGID_34_" gradientUnits="userSpaceOnUse" x1="-906.1196" y1="-246.8584" x2="-886.3196" y2="-290.0585" gradientTransform="matrix(1 0 0 -1 565.8727 -331.1436)">
					<stop  offset="0" style="stop-color:#A1FF72"/>
					<stop  offset="1" style="stop-color:#00F200"/>
				</linearGradient>
				<path class="st49" d="M-361.7-73.2c0-4.1,3.4-7.6,7.6-7.6h11.3v1.2c0,1.4,1.2,2.5,2.5,2.5h11.3c1.3,0,2.5-1.2,2.5-2.5v-1.2h11.3
					c3.3,0,6.1,2.1,7.1,5h4.2c3.1,0,5.7,2.5,5.7,5.7v1.3h-3.2v-1.3c0-1.4-1.2-2.5-2.5-2.5h-1.3c-1.4,0-2.5,1.2-2.5,2.5v13.2
					c0,1.4,1.2,2.5,2.5,2.5h1.3c1.3,0,2.5-1.2,2.5-2.5v-1.3h3.2v1.3c0,3.1-2.5,5.7-5.7,5.7h-4.2c-1,3-3.8,5-7.1,5h-12v1.2
					c0,1.3-1.2,2.5-2.5,2.5h-9.9c-1.4,0-2.5-1.2-2.5-2.5v-1.2h-12c-4.1,0-7.6-3.4-7.6-7.6C-361.7-53.8-361.7-73.2-361.7-73.2z"/>
				<text transform="matrix(1 0 0 1 -356.2214 -58.7149)" class="st20 st3 st4">forward</text>
			</g>
		</g>
		<g transform="matrix(1 0 0 1 554.1726684570312 271.85455322265625)">
			<g transform="matrix( 1 0 0 1 0 0)">
				<path class="st0" d="M-361.7-77c0-1.2,1-2.2,2.2-2.2h0.6c1.3,0,2.3,1,2.3,2.2v1.6h5v-2.8c0-1.4,1.1-2.5,2.5-2.5h47.9
					c1.4,0,2.5,1.1,2.5,2.5v14.5c0,1.4-1.1,2.5-2.5,2.5h-47.9c-1.4,0-2.5-1.1-2.5-2.5v-2.8h-5v1.6c0,1.2-1,2.2-2.2,2.2h-0.6
					c-1.2,0-2.2-1-2.2-2.2V-77H-361.7z"/>
				
					<linearGradient id="SVGID_35_" gradientUnits="userSpaceOnUse" x1="-916.765" y1="-212.341" x2="-835.765" y2="-241.141" gradientTransform="matrix(1 0 0 -1 554.1727 -295.5537)">
					<stop  offset="0" style="stop-color:#FCC4F9"/>
					<stop  offset="1" style="stop-color:#F991F3"/>
				</linearGradient>
				<path class="st50" d="M-361.7-77c0-1.2,1-2.2,2.2-2.2h0.6c1.3,0,2.3,1,2.3,2.2v1.6h5v-2.8c0-1.4,1.1-2.5,2.5-2.5h47.9
					c1.4,0,2.5,1.1,2.5,2.5v14.5c0,1.4-1.1,2.5-2.5,2.5h-47.9c-1.4,0-2.5-1.1-2.5-2.5v-2.8h-5v1.6c0,1.2-1,2.2-2.2,2.2h-0.6
					c-1.2,0-2.2-1-2.2-2.2V-77H-361.7z"/>
				<text transform="matrix(1 0 0 1 -333.1159 -67.9096)" class="st2 st3 st4">12</text>
			</g>
		</g>
		<g transform="matrix(1 0 0 1 500.1726989746094 264.654541015625)">
			<g transform="matrix( 1 0 0 1 0 0)">
				<path class="st22" d="M-361.7-73.2c0-4.2,3.4-7.6,7.6-7.6h11.3v1.1c0,1.4,1.1,2.5,2.5,2.5h11.3c1.4,0,2.5-1.1,2.5-2.5v-1.1h11.3
					c3.3,0,6.1,2.1,7.1,5h4.2c3.1,0,5.7,2.5,5.7,5.7v1.3h-3.1v-1.3c0-1.4-1.1-2.5-2.5-2.5h-1.3c-1.4,0-2.5,1.1-2.5,2.5v13.2
					c0,1.4,1.1,2.5,2.5,2.5h1.3c1.4,0,2.5-1.1,2.5-2.5v-1.3h3.1v7.6c0,2.1,1.7,3.8,3.8,3.8h53.5c1.4,0,2.5,1.1,2.5,2.5v6.3h-4.2
					c-1-3-3.8-5-7.1-5h-12v1.1c0,1.4-1.1,2.5-2.5,2.5h-9.9c-1.4,0-2.5-1.1-2.5-2.5V-43h-12.6c-4.2,0-7.6,3.4-7.6,7.6v22.1
					c0,4.2-3.4,7.6-7.6,7.6H-327v1c0,1.4-1.1,2.5-2.5,2.5h-10.1c-1.4,0-2.5-1.1-2.5-2.5v-1.1h-12c-4.2,0-7.6-3.4-7.6-7.6V-73.2z"/>
				
					<linearGradient id="SVGID_36_" gradientUnits="userSpaceOnUse" x1="-828.3846" y1="-139.1186" x2="-808.5847" y2="-182.3186" gradientTransform="matrix(1 0 0 -1 500.1727 -228.9197)">
					<stop  offset="0" style="stop-color:#FFDF60"/>
					<stop  offset="1" style="stop-color:#FFBB00"/>
				</linearGradient>
				<path class="st51" d="M-361.7-73.2c0-4.2,3.4-7.6,7.6-7.6h11.3v1.1c0,1.4,1.1,2.5,2.5,2.5h11.3c1.4,0,2.5-1.1,2.5-2.5v-1.1h11.3
					c3.3,0,6.1,2.1,7.1,5h4.2c3.1,0,5.7,2.5,5.7,5.7v1.3h-3.1v-1.3c0-1.4-1.1-2.5-2.5-2.5h-1.3c-1.4,0-2.5,1.1-2.5,2.5v13.2
					c0,1.4,1.1,2.5,2.5,2.5h1.3c1.4,0,2.5-1.1,2.5-2.5v-1.3h3.1v7.6c0,2.1,1.7,3.8,3.8,3.8h53.5c1.4,0,2.5,1.1,2.5,2.5v6.3h-4.2
					c-1-3-3.8-5-7.1-5h-12v1.1c0,1.4-1.1,2.5-2.5,2.5h-9.9c-1.4,0-2.5-1.1-2.5-2.5V-43h-12.6c-4.2,0-7.6,3.4-7.6,7.6v22.1
					c0,4.2-3.4,7.6-7.6,7.6H-327v1c0,1.4-1.1,2.5-2.5,2.5h-10.1c-1.4,0-2.5-1.1-2.5-2.5v-1.1h-12c-4.2,0-7.6-3.4-7.6-7.6V-73.2z"/>
				<text transform="matrix(1 0 0 1 -353.5622 -59.615)" class="st24 st3 st4">repeat</text>
			</g>
		</g>
		<g transform="matrix(1 0 0 1 554.1726684570312 236.75453186035156)">
			<g transform="matrix( 1 0 0 1 0 0)">
				<path class="st0" d="M-361.7-77c0-1.2,1-2.2,2.2-2.2h0.6c1.3,0,2.3,1,2.3,2.2v1.6h5v-2.8c0-1.4,1.1-2.5,2.5-2.5h47.9
					c1.4,0,2.5,1.1,2.5,2.5v14.5c0,1.4-1.1,2.5-2.5,2.5h-47.9c-1.4,0-2.5-1.1-2.5-2.5v-2.8h-5v1.6c0,1.2-1,2.2-2.2,2.2h-0.6
					c-1.2,0-2.2-1-2.2-2.2V-77H-361.7z"/>
				
					<linearGradient id="SVGID_37_" gradientUnits="userSpaceOnUse" x1="-916.765" y1="-177.241" x2="-835.765" y2="-206.041" gradientTransform="matrix(1 0 0 -1 554.1727 -260.4537)">
					<stop  offset="0" style="stop-color:#FCC4F9"/>
					<stop  offset="1" style="stop-color:#F991F3"/>
				</linearGradient>
				<path class="st52" d="M-361.7-77c0-1.2,1-2.2,2.2-2.2h0.6c1.3,0,2.3,1,2.3,2.2v1.6h5v-2.8c0-1.4,1.1-2.5,2.5-2.5h47.9
					c1.4,0,2.5,1.1,2.5,2.5v14.5c0,1.4-1.1,2.5-2.5,2.5h-47.9c-1.4,0-2.5-1.1-2.5-2.5v-2.8h-5v1.6c0,1.2-1,2.2-2.2,2.2h-0.6
					c-1.2,0-2.2-1-2.2-2.2V-77H-361.7z"/>
				<text transform="matrix(1 0 0 1 -339.4915 -67.9096)" class="st2 st3 st4">-230</text>
			</g>
		</g>
		<g transform="matrix(1 0 0 1 554.1726684570312 200.75454711914062)">
			<g transform="matrix( 1 0 0 1 0 0)">
				<path class="st0" d="M-361.7-77c0-1.2,1-2.2,2.2-2.2h0.6c1.3,0,2.3,1,2.3,2.2v1.6h5v-2.8c0-1.4,1.1-2.5,2.5-2.5h47.9
					c1.4,0,2.5,1.1,2.5,2.5v14.5c0,1.4-1.1,2.5-2.5,2.5h-47.9c-1.4,0-2.5-1.1-2.5-2.5v-2.8h-5v1.6c0,1.2-1,2.2-2.2,2.2h-0.6
					c-1.2,0-2.2-1-2.2-2.2V-77H-361.7z"/>
				
					<linearGradient id="SVGID_38_" gradientUnits="userSpaceOnUse" x1="-916.765" y1="-141.241" x2="-835.765" y2="-170.041" gradientTransform="matrix(1 0 0 -1 554.1727 -224.4537)">
					<stop  offset="0" style="stop-color:#FCC4F9"/>
					<stop  offset="1" style="stop-color:#F991F3"/>
				</linearGradient>
				<path class="st53" d="M-361.7-77c0-1.2,1-2.2,2.2-2.2h0.6c1.3,0,2.3,1,2.3,2.2v1.6h5v-2.8c0-1.4,1.1-2.5,2.5-2.5h47.9
					c1.4,0,2.5,1.1,2.5,2.5v14.5c0,1.4-1.1,2.5-2.5,2.5h-47.9c-1.4,0-2.5-1.1-2.5-2.5v-2.8h-5v1.6c0,1.2-1,2.2-2.2,2.2h-0.6
					c-1.2,0-2.2-1-2.2-2.2V-77H-361.7z"/>
				<text transform="matrix(1 0 0 1 -339.4915 -67.9095)" class="st2 st3 st4">-200</text>
			</g>
		</g>
		<g transform="matrix(1 0 0 1 500.1726989746094 193.55453491210938)">
			<g transform="matrix( 1 0 0 1 0 0)">
				<path class="st18" d="M-361.7-73.2c0-4.1,3.4-7.6,7.6-7.6h11.3v1.2c0,1.4,1.2,2.5,2.5,2.5h11.3c1.3,0,2.5-1.2,2.5-2.5v-1.2h11.3
					c3.3,0,6.1,2.1,7.1,5h4.2c3.1,0,5.7,2.5,5.7,5.7v1.3h-3.2v-1.3c0-1.4-1.2-2.5-2.5-2.5h-1.3c-1.4,0-2.5,1.2-2.5,2.5v13.2
					c0,1.4,1.2,2.5,2.5,2.5h1.3c1.3,0,2.5-1.2,2.5-2.5v-1.3h3.2v1.3c0,3.1-2.5,5.7-5.7,5.7h-3.8v11.3h3.8c3.1,0,5.7,2.5,5.7,5.7v1.3
					h-3.2v-1.3c0-1.3-1.2-2.5-2.5-2.5h-1.3c-1.4,0-2.5,1.2-2.5,2.5V-21c0,1.4,1.2,2.5,2.5,2.5h1.3c1.3,0,2.5-1.2,2.5-2.5v-1.3h3.2
					v1.3c0,3.2-2.5,5.7-5.7,5.7h-4.2c-1.1,3-3.9,5-7.1,5h-12v1.2c0,1.3-1.2,2.5-2.5,2.5h-9.9c-1.4,0-2.5-1.2-2.5-2.5v-1.2h-12
					c-4.1,0-7.6-3.4-7.6-7.6C-361.7-17.9-361.7-73.2-361.7-73.2z"/>
				
					<linearGradient id="SVGID_39_" gradientUnits="userSpaceOnUse" x1="-847.2184" y1="965.2764" x2="-827.4185" y2="1008.4764" gradientTransform="matrix(1 0 0 1 500.1727 -1046.4454)">
					<stop  offset="0" style="stop-color:#A1FF72"/>
					<stop  offset="1" style="stop-color:#00F200"/>
				</linearGradient>
				<path class="st54" d="M-361.7-73.2c0-4.1,3.4-7.6,7.6-7.6h11.3v1.2c0,1.4,1.2,2.5,2.5,2.5h11.3c1.3,0,2.5-1.2,2.5-2.5v-1.2h11.3
					c3.3,0,6.1,2.1,7.1,5h4.2c3.1,0,5.7,2.5,5.7,5.7v1.3h-3.2v-1.3c0-1.4-1.2-2.5-2.5-2.5h-1.3c-1.4,0-2.5,1.2-2.5,2.5v13.2
					c0,1.4,1.2,2.5,2.5,2.5h1.3c1.3,0,2.5-1.2,2.5-2.5v-1.3h3.2v1.3c0,3.1-2.5,5.7-5.7,5.7h-3.8v11.3h3.8c3.1,0,5.7,2.5,5.7,5.7v1.3
					h-3.2v-1.3c0-1.3-1.2-2.5-2.5-2.5h-1.3c-1.4,0-2.5,1.2-2.5,2.5V-21c0,1.4,1.2,2.5,2.5,2.5h1.3c1.3,0,2.5-1.2,2.5-2.5v-1.3h3.2
					v1.3c0,3.2-2.5,5.7-5.7,5.7h-4.2c-1.1,3-3.9,5-7.1,5h-12v1.2c0,1.3-1.2,2.5-2.5,2.5h-9.9c-1.4,0-2.5-1.2-2.5-2.5v-1.2h-12
					c-4.1,0-7.6-3.4-7.6-7.6C-361.7-17.9-361.7-73.2-361.7-73.2z"/>
				<text transform="matrix(1 0 0 1 -350.3948 -42.5151)" class="st20 st3 st4">setxy</text>
				<text transform="matrix(1 0 0 1 -315.5759 -61.1703)" class="st20 st3 st34">x</text>
				<text transform="matrix(1 0 0 1 -315.5759 -25.2831)" class="st20 st3 st34">y</text>
			</g>
		</g>
		<g transform="matrix(1 0 0 1 554.1726684570312 165.654541015625)">
			<g transform="matrix( 1 0 0 1 0 0)">
				<path class="st0" d="M-361.7-77c0-1.2,1-2.2,2.2-2.2h0.6c1.3,0,2.3,1,2.3,2.2v1.6h5v-2.8c0-1.4,1.1-2.5,2.5-2.5h47.9
					c1.4,0,2.5,1.1,2.5,2.5v14.5c0,1.4-1.1,2.5-2.5,2.5h-47.9c-1.4,0-2.5-1.1-2.5-2.5v-2.8h-5v1.6c0,1.2-1,2.2-2.2,2.2h-0.6
					c-1.2,0-2.2-1-2.2-2.2V-77H-361.7z"/>
				
					<linearGradient id="SVGID_40_" gradientUnits="userSpaceOnUse" x1="-916.765" y1="-106.141" x2="-835.765" y2="-134.941" gradientTransform="matrix(1 0 0 -1 554.1727 -189.3537)">
					<stop  offset="0" style="stop-color:#FCC4F9"/>
					<stop  offset="1" style="stop-color:#F991F3"/>
				</linearGradient>
				<path class="st55" d="M-361.7-77c0-1.2,1-2.2,2.2-2.2h0.6c1.3,0,2.3,1,2.3,2.2v1.6h5v-2.8c0-1.4,1.1-2.5,2.5-2.5h47.9
					c1.4,0,2.5,1.1,2.5,2.5v14.5c0,1.4-1.1,2.5-2.5,2.5h-47.9c-1.4,0-2.5-1.1-2.5-2.5v-2.8h-5v1.6c0,1.2-1,2.2-2.2,2.2h-0.6
					c-1.2,0-2.2-1-2.2-2.2V-77H-361.7z"/>
				<text transform="matrix(1 0 0 1 -333.1159 -67.9096)" class="st2 st3 st4">18</text>
			</g>
		</g>
		<g transform="matrix(1 0 0 1 500.1726989746094 158.4545440673828)">
			<g transform="matrix( 1 0 0 1 0 0)">
				<path class="st7" d="M-361.7-73.2c0-4.2,3.4-7.6,7.6-7.6h11.3v1.1c0,1.4,1.1,2.5,2.5,2.5h11.3c1.4,0,2.5-1.1,2.5-2.5v-1.1h11.3
					c3.3,0,6.1,2.1,7.1,5h4.2c3.1,0,5.7,2.5,5.7,5.7v1.3h-3.1v-1.3c0-1.4-1.1-2.5-2.5-2.5h-1.3c-1.4,0-2.5,1.1-2.5,2.5v13.2
					c0,1.4,1.1,2.5,2.5,2.5h1.3c1.4,0,2.5-1.1,2.5-2.5v-1.3h3.1v1.3c0,3.1-2.5,5.7-5.7,5.7h-4.2c-1,2.9-3.8,5-7.1,5h-12v1.1
					c0,1.4-1.1,2.5-2.5,2.5h-9.9c-1.4,0-2.5-1.1-2.5-2.5v-1.1h-12c-4.2,0-7.6-3.4-7.6-7.6V-73.2z"/>
				
					<linearGradient id="SVGID_41_" gradientUnits="userSpaceOnUse" x1="-840.4261" y1="-77.9574" x2="-820.6261" y2="-121.1574" gradientTransform="matrix(1 0 0 -1 500.1727 -162.2397)">
					<stop  offset="0" style="stop-color:#8EFFFF"/>
					<stop  offset="1" style="stop-color:#00F0FF"/>
				</linearGradient>
				<path class="st56" d="M-361.7-73.2c0-4.2,3.4-7.6,7.6-7.6h11.3v1.1c0,1.4,1.1,2.5,2.5,2.5h11.3c1.4,0,2.5-1.1,2.5-2.5v-1.1h11.3
					c3.3,0,6.1,2.1,7.1,5h4.2c3.1,0,5.7,2.5,5.7,5.7v1.3h-3.1v-1.3c0-1.4-1.1-2.5-2.5-2.5h-1.3c-1.4,0-2.5,1.1-2.5,2.5v13.2
					c0,1.4,1.1,2.5,2.5,2.5h1.3c1.4,0,2.5-1.1,2.5-2.5v-1.3h3.1v1.3c0,3.1-2.5,5.7-5.7,5.7h-4.2c-1,2.9-3.8,5-7.1,5h-12v1.1
					c0,1.4-1.1,2.5-2.5,2.5h-9.9c-1.4,0-2.5-1.1-2.5-2.5v-1.1h-12c-4.2,0-7.6-3.4-7.6-7.6V-73.2z"/>
				<text transform="matrix(1 0 0 1 -343.4706 -64.1148)" class="st11 st12"> </text>
				<text transform="matrix(1 0 0 1 -343.4706 -64.1148)" class="st9 st3 st4">set</text>
				<text transform="matrix(1 0 0 1 -325.7948 -64.1148)" class="st11 st12"> </text>
				<text transform="matrix(1 0 0 1 -348.8837 -52.4151)" class="st9 st3 st4">color</text>
				<text transform="matrix(1 0 0 1 -320.3817 -52.4151)" class="st11 st12"> </text>
			</g>
		</g>
		<g transform="matrix(1 0 0 1 554.1726684570312 130.55453491210938)">
			<g transform="matrix( 1 0 0 1 0 0)">
				<path class="st0" d="M-361.7-77c0-1.2,1-2.2,2.2-2.2h0.6c1.3,0,2.3,1,2.3,2.2v1.6h5v-2.8c0-1.4,1.1-2.5,2.5-2.5h47.9
					c1.4,0,2.5,1.1,2.5,2.5v14.5c0,1.4-1.1,2.5-2.5,2.5h-47.9c-1.4,0-2.5-1.1-2.5-2.5v-2.8h-5v1.6c0,1.2-1,2.2-2.2,2.2h-0.6
					c-1.2,0-2.2-1-2.2-2.2V-77H-361.7z"/>
				
					<linearGradient id="SVGID_42_" gradientUnits="userSpaceOnUse" x1="-916.765" y1="-71.041" x2="-835.765" y2="-99.841" gradientTransform="matrix(1 0 0 -1 554.1727 -154.2537)">
					<stop  offset="0" style="stop-color:#FCC4F9"/>
					<stop  offset="1" style="stop-color:#F991F3"/>
				</linearGradient>
				<path class="st57" d="M-361.7-77c0-1.2,1-2.2,2.2-2.2h0.6c1.3,0,2.3,1,2.3,2.2v1.6h5v-2.8c0-1.4,1.1-2.5,2.5-2.5h47.9
					c1.4,0,2.5,1.1,2.5,2.5v14.5c0,1.4-1.1,2.5-2.5,2.5h-47.9c-1.4,0-2.5-1.1-2.5-2.5v-2.8h-5v1.6c0,1.2-1,2.2-2.2,2.2h-0.6
					c-1.2,0-2.2-1-2.2-2.2V-77H-361.7z"/>
				<text transform="matrix(1 0 0 1 -329.3968 -67.9095)" class="st2 st3 st4">8</text>
			</g>
		</g>
		<g transform="matrix(1 0 0 1 500.1726989746094 123.35454559326172)">
			<g transform="matrix( 1 0 0 1 0 0)">
				<path class="st7" d="M-361.7-73.2c0-4.2,3.4-7.6,7.6-7.6h11.3v1.1c0,1.4,1.1,2.5,2.5,2.5h11.3c1.4,0,2.5-1.1,2.5-2.5v-1.1h11.3
					c3.3,0,6.1,2.1,7.1,5h4.2c3.1,0,5.7,2.5,5.7,5.7v1.3h-3.1v-1.3c0-1.4-1.1-2.5-2.5-2.5h-1.3c-1.4,0-2.5,1.1-2.5,2.5v13.2
					c0,1.4,1.1,2.5,2.5,2.5h1.3c1.4,0,2.5-1.1,2.5-2.5v-1.3h3.1v1.3c0,3.1-2.5,5.7-5.7,5.7h-4.2c-1,2.9-3.8,5-7.1,5h-12v1.1
					c0,1.4-1.1,2.5-2.5,2.5h-9.9c-1.4,0-2.5-1.1-2.5-2.5v-1.1h-12c-4.2,0-7.6-3.4-7.6-7.6V-73.2z"/>
				
					<linearGradient id="SVGID_43_" gradientUnits="userSpaceOnUse" x1="-840.4261" y1="-42.8574" x2="-820.6261" y2="-86.0574" gradientTransform="matrix(1 0 0 -1 500.1727 -127.1397)">
					<stop  offset="0" style="stop-color:#8EFFFF"/>
					<stop  offset="1" style="stop-color:#00F0FF"/>
				</linearGradient>
				<path class="st58" d="M-361.7-73.2c0-4.2,3.4-7.6,7.6-7.6h11.3v1.1c0,1.4,1.1,2.5,2.5,2.5h11.3c1.4,0,2.5-1.1,2.5-2.5v-1.1h11.3
					c3.3,0,6.1,2.1,7.1,5h4.2c3.1,0,5.7,2.5,5.7,5.7v1.3h-3.1v-1.3c0-1.4-1.1-2.5-2.5-2.5h-1.3c-1.4,0-2.5,1.1-2.5,2.5v13.2
					c0,1.4,1.1,2.5,2.5,2.5h1.3c1.4,0,2.5-1.1,2.5-2.5v-1.3h3.1v1.3c0,3.1-2.5,5.7-5.7,5.7h-4.2c-1,2.9-3.8,5-7.1,5h-12v1.1
					c0,1.4-1.1,2.5-2.5,2.5h-9.9c-1.4,0-2.5-1.1-2.5-2.5v-1.1h-12c-4.2,0-7.6-3.4-7.6-7.6V-73.2z"/>
				<text transform="matrix(1 0 0 1 -343.4706 -64.1148)" class="st11 st12"> </text>
				<text transform="matrix(1 0 0 1 -343.4706 -64.1148)" class="st9 st3 st4">set</text>
				<text transform="matrix(1 0 0 1 -325.7948 -64.1148)" class="st11 st12"> </text>
				<text transform="matrix(1 0 0 1 -356.6415 -52.4151)" class="st9 st3 st4">pensize</text>
				<text transform="matrix(1 0 0 1 -312.6239 -52.4151)" class="st11 st12"> </text>
			</g>
		</g>
		<g transform="matrix(1 0 0 1 487.5727233886719 79.2545394897461)">
			<g transform="matrix( 1 0 0 1 0 0)">
				<path class="st35" d="M-357.7-44c0-18.1,17.8-32.8,35.9-32.8s35.9,14.7,35.9,32.8c0,4.2-3.4,7.6-7.6,7.6h-20.7v1.1
					c0,1.4-1.1,2.5-2.5,2.5h-10.1c-1.4,0-2.5-1.1-2.5-2.5v-1.1h-20.8C-354.3-36.5-357.7-39.9-357.7-44z"/>
				
					<linearGradient id="SVGID_44_" gradientUnits="userSpaceOnUse" x1="-826.7653" y1="14.4855" x2="-806.9653" y2="-28.7145" gradientTransform="matrix(1 0 0 -1 487.5727 -69.7736)">
					<stop  offset="0" style="stop-color:#FFFF72"/>
					<stop  offset="1" style="stop-color:#FFF600"/>
				</linearGradient>
				<path class="st59" d="M-357.7-44c0-18.1,17.8-32.8,35.9-32.8s35.9,14.7,35.9,32.8c0,4.2-3.4,7.6-7.6,7.6h-20.7v1.1
					c0,1.4-1.1,2.5-2.5,2.5h-10.1c-1.4,0-2.5-1.1-2.5-2.5v-1.1h-20.8C-354.3-36.5-357.7-39.9-357.7-44z"/>
				<text transform="matrix(1 0 0 1 -333.349 -48.1095)" class="st37 st3 st4">star</text>
			</g>
		</g>
	</g>
</g>
</svg>
