<?xml version="1.0" encoding="utf-8"?>
<svg xmlns="http://www.w3.org/2000/svg" version="1.1" xml:space="preserve"
     xmlns:xlink="http://www.w3.org/1999/xlink" width="920" height="300" viewBox="0 0 920 300">

<g transform="matrix(1 0 0 1 16 9)">
<g transform="matrix( 1 0 0 1 0 0)">
<path fill="none" stroke="#00a500" stroke-width="2.0999999999999996" stroke-miterlimit="10" d="M1.5,9.899999999999999C1.5,5.2608081014213335,5.2608081014213335,1.5,9.899999999999999,1.5H22.5V2.76C22.5,4.306397299526221,23.753602700473778,5.56,25.3,5.56H37.9C39.44639729952622,5.56,40.699999999999996,4.306397299526221,40.699999999999996,2.76V1.4999999999999998H53.3C57.93919189857866,1.4999999999999998,61.699999999999996,5.2608081014213335,61.699999999999996,9.899999999999999V31.599999999999998C61.699999999999996,36.23919189857866,57.93919189857866,40,53.3,40H40V41.26C40,42.80639729952622,38.74639729952622,44.059999999999995,37.2,44.059999999999995H26.000000000000004C24.45360270047378,44.059999999999995,23.200000000000003,42.80639729952622,23.200000000000003,41.26V40H9.900000000000004C5.260808101421339,40,1.5000000000000053,36.23919189857867,1.5000000000000053,31.6z"/>
<path fill="url(#cmd0_green_1456251329765)" stroke="none" d="M1.5,9.899999999999999C1.5,5.2608081014213335,5.2608081014213335,1.5,9.899999999999999,1.5H22.5V2.76C22.5,4.306397299526221,23.753602700473778,5.56,25.3,5.56H37.9C39.44639729952622,5.56,40.699999999999996,4.306397299526221,40.699999999999996,2.76V1.4999999999999998H53.3C57.93919189857866,1.4999999999999998,61.699999999999996,5.2608081014213335,61.699999999999996,9.899999999999999V31.599999999999998C61.699999999999996,36.23919189857866,57.93919189857866,40,53.3,40H40V41.26C40,42.80639729952622,38.74639729952622,44.059999999999995,37.2,44.059999999999995H26.000000000000004C24.45360270047378,44.059999999999995,23.200000000000003,42.80639729952622,23.200000000000003,41.26V40H9.900000000000004C5.260808101421339,40,1.5000000000000053,36.23919189857867,1.5000000000000053,31.6z"/>
<text transform="matrix( 1 0 0 1 14.440673828125 25)" fill="#128c12" font-family="Verdana" font-size="13">clean</text>
</g>
<linearGradient x1="20" y1="0" x2="42" y2="48" gradientUnits="userSpaceOnUse" id="cmd0_green_1456251329765">
<stop offset="0.0" stop-color="#a1ff72" stop-opacity="1"/>
<stop offset="1.0" stop-color="#00f200" stop-opacity="1"/>
</linearGradient>
</g>

<g transform="matrix(1 0 0 1 16 49)">
<g transform="matrix( 1 0 0 1 0 0)">
<path fill="none" stroke="#bfaf00" stroke-width="2.0999999999999996" stroke-miterlimit="10" d="M1.5,9.899999999999999C1.5,5.2608081014213335,5.2608081014213335,1.5,9.899999999999999,1.5H22.5V2.76C22.5,4.306397299526221,23.753602700473778,5.56,25.3,5.56H37.9C39.44639729952622,5.56,40.699999999999996,4.306397299526221,40.699999999999996,2.76V1.4999999999999998H53.3C56.959599999999995,1.4999999999999998,60.0725,3.8344999999999994,61.224,7.1H65.9035C69.38289392393399,7.1,72.20349999999999,9.920606076065999,72.20349999999999,13.399999999999999V14.799999999999999H68.70349999999999V13.399999999999999C68.70349999999999,11.853602700473777,67.44989729952621,10.599999999999998,65.9035,10.599999999999998H64.50349999999999C62.95710270047377,10.599999999999998,61.70349999999999,11.853602700473777,61.70349999999999,13.399999999999999V28.099999999999998C61.70349999999999,29.64639729952622,62.95710270047377,30.9,64.50349999999999,30.9H65.9035C67.44989729952621,30.9,68.70349999999999,29.64639729952622,68.70349999999999,28.099999999999998V26.7H72.20349999999999V28.099999999999998C72.20349999999999,31.579393923934,69.38289392393399,34.4,65.9035,34.4H61.224C60.0697,37.6599,56.9589,40,53.3035,40H40.0035V41.26C40.0035,42.80639729952622,38.749897299526225,44.059999999999995,37.203500000000005,44.059999999999995H26.003500000000006C24.457102700473783,44.059999999999995,23.203500000000005,42.80639729952622,23.203500000000005,41.26V40H9.903500000000006C5.264308101421341,40,1.5035000000000078,36.23919189857867,1.5035000000000078,31.6z"/>
<path fill="url(#cmd_yellow_1456335703721)" stroke="none" d="M1.5,9.899999999999999C1.5,5.2608081014213335,5.2608081014213335,1.5,9.899999999999999,1.5H22.5V2.76C22.5,4.306397299526221,23.753602700473778,5.56,25.3,5.56H37.9C39.44639729952622,5.56,40.699999999999996,4.306397299526221,40.699999999999996,2.76V1.4999999999999998H53.3C56.959599999999995,1.4999999999999998,60.0725,3.8344999999999994,61.224,7.1H65.9035C69.38289392393399,7.1,72.20349999999999,9.920606076065999,72.20349999999999,13.399999999999999V14.799999999999999H68.70349999999999V13.399999999999999C68.70349999999999,11.853602700473777,67.44989729952621,10.599999999999998,65.9035,10.599999999999998H64.50349999999999C62.95710270047377,10.599999999999998,61.70349999999999,11.853602700473777,61.70349999999999,13.399999999999999V28.099999999999998C61.70349999999999,29.64639729952622,62.95710270047377,30.9,64.50349999999999,30.9H65.9035C67.44989729952621,30.9,68.70349999999999,29.64639729952622,68.70349999999999,28.099999999999998V26.7H72.20349999999999V28.099999999999998C72.20349999999999,31.579393923934,69.38289392393399,34.4,65.9035,34.4H61.224C60.0697,37.6599,56.9589,40,53.3035,40H40.0035V41.26C40.0035,42.80639729952622,38.749897299526225,44.059999999999995,37.203500000000005,44.059999999999995H26.003500000000006C24.457102700473783,44.059999999999995,23.203500000000005,42.80639729952622,23.203500000000005,41.26V40H9.903500000000006C5.264308101421341,40,1.5035000000000078,36.23919189857867,1.5035000000000078,31.6z"/>
<text transform="matrix( 1 0 0 1 6.779052734375 20)">
<tspan x="0" y="0" fill="#8c7a15" font-family="Verdana" font-size="13">store in</tspan>
<tspan x="8.810546875" y="13" fill="#8c7a15" font-family="Verdana" font-size="13">box1</tspan>
</text>
</g>
<linearGradient x1="20" y1="0" x2="42" y2="48" gradientUnits="userSpaceOnUse" id="cmd_yellow_1456335703721">
<stop offset="0.0" stop-color="#ffff72" stop-opacity="1"/>
<stop offset="1.0" stop-color="#fff600" stop-opacity="1"/>
</linearGradient>
</g>

<g transform="matrix(1 0 0 1 77 58)">
<g transform="matrix( 1 0 0 1 0 0)">
<path fill="none" stroke="#cc66b9" stroke-width="2.0999999999999996" stroke-miterlimit="10" d="M1.5,5.699999999999999C1.5,4.346902362914555,2.5969023629145553,3.2499999999999996,3.9499999999999997,3.2499999999999996H4.6499999999999995C6.003097637085443,3.2499999999999996,7.1,4.346902362914555,7.1,5.699999999999999V7.449999999999999H12.7V4.299999999999999C12.7,2.753602700473777,13.953602700473779,1.4999999999999991,15.5,1.4999999999999991H68.69999999999999C70.24639729952621,1.4999999999999991,71.49999999999999,2.753602700473777,71.49999999999999,4.299999999999999V20.4C71.49999999999999,21.94639729952622,70.24639729952621,23.2,68.69999999999999,23.2H15.499999999999993C13.953602700473771,23.2,12.699999999999992,21.94639729952622,12.699999999999992,20.4V17.25H7.0999999999999925V19C7.0999999999999925,20.353097637085444,6.003097637085437,21.45,4.649999999999993,21.45H3.949999999999993C2.596902362914549,21.45,1.4999999999999933,20.353097637085444,1.4999999999999933,19z"/>
<path fill="url(#input_pink_1456251500765)" stroke="none" d="M1.5,5.699999999999999C1.5,4.346902362914555,2.5969023629145553,3.2499999999999996,3.9499999999999997,3.2499999999999996H4.6499999999999995C6.003097637085443,3.2499999999999996,7.1,4.346902362914555,7.1,5.699999999999999V7.449999999999999H12.7V4.299999999999999C12.7,2.753602700473777,13.953602700473779,1.4999999999999991,15.5,1.4999999999999991H68.69999999999999C70.24639729952621,1.4999999999999991,71.49999999999999,2.753602700473777,71.49999999999999,4.299999999999999V20.4C71.49999999999999,21.94639729952622,70.24639729952621,23.2,68.69999999999999,23.2H15.499999999999993C13.953602700473771,23.2,12.699999999999992,21.94639729952622,12.699999999999992,20.4V17.25H7.0999999999999925V19C7.0999999999999925,20.353097637085444,6.003097637085437,21.45,4.649999999999993,21.45H3.949999999999993C2.596902362914549,21.45,1.4999999999999933,20.353097637085444,1.4999999999999933,19z"/>
<text transform="matrix( 1 0 0 1 37.5 16)" fill="#8c2a6e" font-family="Verdana" font-size="13">0</text>
</g>
<linearGradient x1="0" y1="0" x2="90" y2="32" gradientUnits="userSpaceOnUse" id="input_pink_1456251500765">
<stop offset="0.0" stop-color="#fcc4f9" stop-opacity="1"/>
<stop offset="1.0" stop-color="#f991f3" stop-opacity="1"/>
</linearGradient>
</g>

<g transform="matrix(1 0 0 1 16 89)">
<g transform="matrix( 1 0 0 1 0 0)">
<path fill="none" stroke="#cc7e02" stroke-width="2.0999999999999996" stroke-miterlimit="10" d="M1.5,9.899999999999999C1.5,5.2608081014213335,5.2608081014213335,1.5,9.899999999999999,1.5H22.5V2.76C22.5,4.306397299526221,23.753602700473778,5.56,25.3,5.56H37.9C39.44639729952622,5.56,40.699999999999996,4.306397299526221,40.699999999999996,2.76V1.4999999999999998H53.3C56.959599999999995,1.4999999999999998,60.0725,3.8344999999999994,61.224,7.1H65.9035C69.38289392393399,7.1,72.20349999999999,9.920606076065999,72.20349999999999,13.399999999999999V14.799999999999999H68.70349999999999V13.399999999999999C68.70349999999999,11.853602700473777,67.44989729952621,10.599999999999998,65.9035,10.599999999999998H64.50349999999999C62.95710270047377,10.599999999999998,61.70349999999999,11.853602700473777,61.70349999999999,13.399999999999999V28.099999999999998C61.70349999999999,29.64639729952622,62.95710270047377,30.9,64.50349999999999,30.9H65.9035C67.44989729952621,30.9,68.70349999999999,29.64639729952622,68.70349999999999,28.099999999999998V26.7H72.20349999999999V35.099999999999994C72.20349999999999,37.419595949289324,74.08390405071066,39.3,76.4035,39.3H135.90349999999998C137.4498972995262,39.3,138.7035,40.553602700473775,138.7035,42.099999999999994V49.099999999999994H134.03799999999998C132.89489999999998,45.81909999999999,129.7736,43.49999999999999,126.10349999999998,43.49999999999999H112.80349999999999V44.75999999999999C112.80349999999999,46.30639729952621,111.54989729952621,47.55999999999999,110.00349999999999,47.55999999999999H98.80349999999999C97.25710270047377,47.55999999999999,96.00349999999999,46.30639729952621,96.00349999999999,44.75999999999999V43.49999999999999H82.00349999999999C77.36430810142133,43.49999999999999,73.6035,47.260808101421325,73.6035,51.89999999999999V76.39999999999999C73.6035,81.03919189857865,69.84269189857865,84.79999999999998,65.20349999999999,84.79999999999998H40.00349999999999V86.05999999999999C40.00349999999999,87.60639729952621,38.74989729952621,88.85999999999999,37.20349999999999,88.85999999999999H26.003499999999992C24.45710270047377,88.85999999999999,23.20349999999999,87.60639729952621,23.20349999999999,86.05999999999999V84.79999999999998H9.903499999999992C5.264308101421327,84.79999999999998,1.5034999999999936,81.03919189857864,1.5034999999999936,76.39999999999998z"/>
<path fill="url(#repeat_orange_1456251409526)" stroke="none" d="M1.5,9.899999999999999C1.5,5.2608081014213335,5.2608081014213335,1.5,9.899999999999999,1.5H22.5V2.76C22.5,4.306397299526221,23.753602700473778,5.56,25.3,5.56H37.9C39.44639729952622,5.56,40.699999999999996,4.306397299526221,40.699999999999996,2.76V1.4999999999999998H53.3C56.959599999999995,1.4999999999999998,60.0725,3.8344999999999994,61.224,7.1H65.9035C69.38289392393399,7.1,72.20349999999999,9.920606076065999,72.20349999999999,13.399999999999999V14.799999999999999H68.70349999999999V13.399999999999999C68.70349999999999,11.853602700473777,67.44989729952621,10.599999999999998,65.9035,10.599999999999998H64.50349999999999C62.95710270047377,10.599999999999998,61.70349999999999,11.853602700473777,61.70349999999999,13.399999999999999V28.099999999999998C61.70349999999999,29.64639729952622,62.95710270047377,30.9,64.50349999999999,30.9H65.9035C67.44989729952621,30.9,68.70349999999999,29.64639729952622,68.70349999999999,28.099999999999998V26.7H72.20349999999999V35.099999999999994C72.20349999999999,37.419595949289324,74.08390405071066,39.3,76.4035,39.3H135.90349999999998C137.4498972995262,39.3,138.7035,40.553602700473775,138.7035,42.099999999999994V49.099999999999994H134.03799999999998C132.89489999999998,45.81909999999999,129.7736,43.49999999999999,126.10349999999998,43.49999999999999H112.80349999999999V44.75999999999999C112.80349999999999,46.30639729952621,111.54989729952621,47.55999999999999,110.00349999999999,47.55999999999999H98.80349999999999C97.25710270047377,47.55999999999999,96.00349999999999,46.30639729952621,96.00349999999999,44.75999999999999V43.49999999999999H82.00349999999999C77.36430810142133,43.49999999999999,73.6035,47.260808101421325,73.6035,51.89999999999999V76.39999999999999C73.6035,81.03919189857865,69.84269189857865,84.79999999999998,65.20349999999999,84.79999999999998H40.00349999999999V86.05999999999999C40.00349999999999,87.60639729952621,38.74989729952621,88.85999999999999,37.20349999999999,88.85999999999999H26.003499999999992C24.45710270047377,88.85999999999999,23.20349999999999,87.60639729952621,23.20349999999999,86.05999999999999V84.79999999999998H9.903499999999992C5.264308101421327,84.79999999999998,1.5034999999999936,81.03919189857864,1.5034999999999936,76.39999999999998z"/>
<text transform="matrix( 1 0 0 1 10.467041015625 25)" fill="#8b6010" font-family="Verdana" font-size="13">repeat</text>
</g>
<linearGradient x1="20" y1="0" x2="42" y2="48" gradientUnits="userSpaceOnUse" id="repeat_orange_1456251409526">
<stop offset="0.0" stop-color="#ffdf60" stop-opacity="1"/>
<stop offset="1.0" stop-color="#ffbb00" stop-opacity="1"/>
</linearGradient>
</g>

<g transform="matrix(1 0 0 1 77 98)">
<g transform="matrix( 1 0 0 1 0 0)">
<path fill="none" stroke="#cc66b9" stroke-width="2.0999999999999996" stroke-miterlimit="10" d="M1.5,5.699999999999999C1.5,4.346902362914555,2.5969023629145553,3.2499999999999996,3.9499999999999997,3.2499999999999996H4.6499999999999995C6.003097637085443,3.2499999999999996,7.1,4.346902362914555,7.1,5.699999999999999V7.449999999999999H12.7V4.299999999999999C12.7,2.753602700473777,13.953602700473779,1.4999999999999991,15.5,1.4999999999999991H68.69999999999999C70.24639729952621,1.4999999999999991,71.49999999999999,2.753602700473777,71.49999999999999,4.299999999999999V20.4C71.49999999999999,21.94639729952622,70.24639729952621,23.2,68.69999999999999,23.2H15.499999999999993C13.953602700473771,23.2,12.699999999999992,21.94639729952622,12.699999999999992,20.4V17.25H7.0999999999999925V19C7.0999999999999925,20.353097637085444,6.003097637085437,21.45,4.649999999999993,21.45H3.949999999999993C2.596902362914549,21.45,1.4999999999999933,20.353097637085444,1.4999999999999933,19z"/>
<path fill="url(#input_pink_1456251500765)" stroke="none" d="M1.5,5.699999999999999C1.5,4.346902362914555,2.5969023629145553,3.2499999999999996,3.9499999999999997,3.2499999999999996H4.6499999999999995C6.003097637085443,3.2499999999999996,7.1,4.346902362914555,7.1,5.699999999999999V7.449999999999999H12.7V4.299999999999999C12.7,2.753602700473777,13.953602700473779,1.4999999999999991,15.5,1.4999999999999991H68.69999999999999C70.24639729952621,1.4999999999999991,71.49999999999999,2.753602700473777,71.49999999999999,4.299999999999999V20.4C71.49999999999999,21.94639729952622,70.24639729952621,23.2,68.69999999999999,23.2H15.499999999999993C13.953602700473771,23.2,12.699999999999992,21.94639729952622,12.699999999999992,20.4V17.25H7.0999999999999925V19C7.0999999999999925,20.353097637085444,6.003097637085437,21.45,4.649999999999993,21.45H3.949999999999993C2.596902362914549,21.45,1.4999999999999933,20.353097637085444,1.4999999999999933,19z"/>
<text transform="matrix( 1 0 0 1 37.5 16)" fill="#8c2a6e" font-family="Verdana" font-size="13">9</text>
</g>
<linearGradient x1="0" y1="0" x2="90" y2="32" gradientUnits="userSpaceOnUse" id="input_pink_1456251500765">
<stop offset="0.0" stop-color="#fcc4f9" stop-opacity="1"/>
<stop offset="1.0" stop-color="#f991f3" stop-opacity="1"/>
</linearGradient>
</g>

<g transform="matrix(1 0 0 1 89 133)">
<g transform="matrix( 1 0 0 1 0 0)">
<path fill="none" stroke="#bfaf00" stroke-width="2.0999999999999996" stroke-miterlimit="10" d="M1.5,9.899999999999999C1.5,5.2608081014213335,5.2608081014213335,1.5,9.899999999999999,1.5H22.5V2.76C22.5,4.306397299526221,23.753602700473778,5.56,25.3,5.56H37.9C39.44639729952622,5.56,40.699999999999996,4.306397299526221,40.699999999999996,2.76V1.4999999999999998H53.3C57.93919189857866,1.4999999999999998,61.699999999999996,5.2608081014213335,61.699999999999996,9.899999999999999V31.599999999999998C61.699999999999996,36.23919189857866,57.93919189857866,40,53.3,40H40V41.26C40,42.80639729952622,38.74639729952622,44.059999999999995,37.2,44.059999999999995H26.000000000000004C24.45360270047378,44.059999999999995,23.200000000000003,42.80639729952622,23.200000000000003,41.26V40H9.900000000000004C5.260808101421339,40,1.5000000000000053,36.23919189857867,1.5000000000000053,31.6z"/>
<path fill="url(#cmd0_yellow_1456335895980)" stroke="none" d="M1.5,9.899999999999999C1.5,5.2608081014213335,5.2608081014213335,1.5,9.899999999999999,1.5H22.5V2.76C22.5,4.306397299526221,23.753602700473778,5.56,25.3,5.56H37.9C39.44639729952622,5.56,40.699999999999996,4.306397299526221,40.699999999999996,2.76V1.4999999999999998H53.3C57.93919189857866,1.4999999999999998,61.699999999999996,5.2608081014213335,61.699999999999996,9.899999999999999V31.599999999999998C61.699999999999996,36.23919189857866,57.93919189857866,40,53.3,40H40V41.26C40,42.80639729952622,38.74639729952622,44.059999999999995,37.2,44.059999999999995H26.000000000000004C24.45360270047378,44.059999999999995,23.200000000000003,42.80639729952622,23.200000000000003,41.26V40H9.900000000000004C5.260808101421339,40,1.5000000000000053,36.23919189857867,1.5000000000000053,31.6z"/>
<text transform="matrix( 1 0 0 1 10 25)" fill="#8c7a15" font-family="Verdana" font-size="13">square</text>
</g>
<linearGradient x1="20" y1="0" x2="42" y2="48" gradientUnits="userSpaceOnUse" id="cmd0_yellow_1456335895980">
<stop offset="0.0" stop-color="#ffff72" stop-opacity="1"/>
<stop offset="1.0" stop-color="#fff600" stop-opacity="1"/>
</linearGradient>
</g>

<g transform="matrix(1 0 0 1 89 173)">
<g transform="matrix( 1 0 0 1 0 0)">
<path fill="none" stroke="#bfaf00" stroke-width="2.0999999999999996" stroke-miterlimit="10" d="M1.5,9.899999999999999C1.5,5.2608081014213335,5.2608081014213335,1.5,9.899999999999999,1.5H22.5V2.76C22.5,4.306397299526221,23.753602700473778,5.56,25.3,5.56H37.9C39.44639729952622,5.56,40.699999999999996,4.306397299526221,40.699999999999996,2.76V1.4999999999999998H53.3C56.959599999999995,1.4999999999999998,60.0725,3.8344999999999994,61.224,7.1H65.9035C69.38289392393399,7.1,72.20349999999999,9.920606076065999,72.20349999999999,13.399999999999999V14.799999999999999H68.70349999999999V13.399999999999999C68.70349999999999,11.853602700473777,67.44989729952621,10.599999999999998,65.9035,10.599999999999998H64.50349999999999C62.95710270047377,10.599999999999998,61.70349999999999,11.853602700473777,61.70349999999999,13.399999999999999V28.099999999999998C61.70349999999999,29.64639729952622,62.95710270047377,30.9,64.50349999999999,30.9H65.9035C67.44989729952621,30.9,68.70349999999999,29.64639729952622,68.70349999999999,28.099999999999998V26.7H72.20349999999999V28.099999999999998C72.20349999999999,31.579393923934,69.38289392393399,34.4,65.9035,34.4H61.224C60.0697,37.6599,56.9589,40,53.3035,40H40.0035V41.26C40.0035,42.80639729952622,38.749897299526225,44.059999999999995,37.203500000000005,44.059999999999995H26.003500000000006C24.457102700473783,44.059999999999995,23.203500000000005,42.80639729952622,23.203500000000005,41.26V40H9.903500000000006C5.264308101421341,40,1.5035000000000078,36.23919189857867,1.5035000000000078,31.6z"/>
<path fill="url(#cmd_yellow_1456335703721)" stroke="none" d="M1.5,9.899999999999999C1.5,5.2608081014213335,5.2608081014213335,1.5,9.899999999999999,1.5H22.5V2.76C22.5,4.306397299526221,23.753602700473778,5.56,25.3,5.56H37.9C39.44639729952622,5.56,40.699999999999996,4.306397299526221,40.699999999999996,2.76V1.4999999999999998H53.3C56.959599999999995,1.4999999999999998,60.0725,3.8344999999999994,61.224,7.1H65.9035C69.38289392393399,7.1,72.20349999999999,9.920606076065999,72.20349999999999,13.399999999999999V14.799999999999999H68.70349999999999V13.399999999999999C68.70349999999999,11.853602700473777,67.44989729952621,10.599999999999998,65.9035,10.599999999999998H64.50349999999999C62.95710270047377,10.599999999999998,61.70349999999999,11.853602700473777,61.70349999999999,13.399999999999999V28.099999999999998C61.70349999999999,29.64639729952622,62.95710270047377,30.9,64.50349999999999,30.9H65.9035C67.44989729952621,30.9,68.70349999999999,29.64639729952622,68.70349999999999,28.099999999999998V26.7H72.20349999999999V28.099999999999998C72.20349999999999,31.579393923934,69.38289392393399,34.4,65.9035,34.4H61.224C60.0697,37.6599,56.9589,40,53.3035,40H40.0035V41.26C40.0035,42.80639729952622,38.749897299526225,44.059999999999995,37.203500000000005,44.059999999999995H26.003500000000006C24.457102700473783,44.059999999999995,23.203500000000005,42.80639729952622,23.203500000000005,41.26V40H9.903500000000006C5.264308101421341,40,1.5035000000000078,36.23919189857867,1.5035000000000078,31.6z"/>
<text transform="matrix( 1 0 0 1 6.779052734375 20)">
<tspan x="0" y="0" fill="#8c7a15" font-family="Verdana" font-size="13">store in</tspan>
<tspan x="8.810546875" y="13" fill="#8c7a15" font-family="Verdana" font-size="13">box1</tspan>
</text>
</g>
<linearGradient x1="20" y1="0" x2="42" y2="48" gradientUnits="userSpaceOnUse" id="cmd_yellow_1456335703721">
<stop offset="0.0" stop-color="#ffff72" stop-opacity="1"/>
<stop offset="1.0" stop-color="#fff600" stop-opacity="1"/>
</linearGradient>
</g>

<g transform="matrix(1 0 0 1 150 182)">
<g transform="matrix( 1 0 0 1 0 0)">
<path fill="none" stroke="#bfaf00" stroke-width="2.0999999999999996" stroke-miterlimit="10" d="M1.5,5.699999999999999C1.5,4.346902362914555,2.5969023629145553,3.2499999999999996,3.9499999999999997,3.2499999999999996H4.6499999999999995C6.003097637085443,3.2499999999999996,7.1,4.346902362914555,7.1,5.699999999999999V7.449999999999999H12.7V4.299999999999999C12.7,2.753602700473777,13.953602700473779,1.4999999999999991,15.5,1.4999999999999991H68.69999999999999C70.24639729952621,1.4999999999999991,71.49999999999999,2.753602700473777,71.49999999999999,4.299999999999999V20.4C71.49999999999999,21.94639729952622,70.24639729952621,23.2,68.69999999999999,23.2H15.499999999999993C13.953602700473771,23.2,12.699999999999992,21.94639729952622,12.699999999999992,20.4V17.25H7.0999999999999925V19C7.0999999999999925,20.353097637085444,6.003097637085437,21.45,4.649999999999993,21.45H3.949999999999993C2.596902362914549,21.45,1.4999999999999933,20.353097637085444,1.4999999999999933,19z"/>
<path fill="url(#input_yellow_1456335703699)" stroke="none" d="M1.5,5.699999999999999C1.5,4.346902362914555,2.5969023629145553,3.2499999999999996,3.9499999999999997,3.2499999999999996H4.6499999999999995C6.003097637085443,3.2499999999999996,7.1,4.346902362914555,7.1,5.699999999999999V7.449999999999999H12.7V4.299999999999999C12.7,2.753602700473777,13.953602700473779,1.4999999999999991,15.5,1.4999999999999991H68.69999999999999C70.24639729952621,1.4999999999999991,71.49999999999999,2.753602700473777,71.49999999999999,4.299999999999999V20.4C71.49999999999999,21.94639729952622,70.24639729952621,23.2,68.69999999999999,23.2H15.499999999999993C13.953602700473771,23.2,12.699999999999992,21.94639729952622,12.699999999999992,20.4V17.25H7.0999999999999925V19C7.0999999999999925,20.353097637085444,6.003097637085437,21.45,4.649999999999993,21.45H3.949999999999993C2.596902362914549,21.45,1.4999999999999933,20.353097637085444,1.4999999999999933,19z"/>
<text transform="matrix( 1 0 0 1 23.589599609375 16)" fill="#8c7a15" font-family="Verdana" font-size="13">box1</text>
</g>
<linearGradient x1="20" y1="0" x2="42" y2="48" gradientUnits="userSpaceOnUse" id="input_yellow_1456335703699">
<stop offset="0.0" stop-color="#ffff72" stop-opacity="1"/>
<stop offset="1.0" stop-color="#fff600" stop-opacity="1"/>
</linearGradient>
</g>

<g transform="matrix(1 0 0 1 211 177)">
<g transform="matrix( 1 0 0 1 0 0)">
<path fill="none" stroke="#cc66b9" stroke-width="2.0999999999999996" stroke-miterlimit="10" d="M1.5,5.699999999999999C1.5,3.3804040507106667,3.3804040507106667,1.5,5.699999999999999,1.5H35.099999999999994C39.73919189857866,1.5,43.49999999999999,5.2608081014213335,43.49999999999999,9.899999999999999V11.299999999999999H39.99999999999999V9.899999999999999C39.99999999999999,8.353602700473777,38.746397299526215,7.099999999999999,37.199999999999996,7.099999999999999H35.8C34.25360270047378,7.099999999999999,33,8.353602700473777,33,9.899999999999999V24.599999999999998C33,26.14639729952622,34.25360270047378,27.4,35.8,27.4H37.199999999999996C38.746397299526215,27.4,39.99999999999999,26.14639729952622,39.99999999999999,24.599999999999998V23.2H43.49999999999999V24.599999999999998C43.49999999999999,29.239191898578664,39.73919189857866,33,35.099999999999994,33H5.699999999999996C3.380404050710663,33,1.4999999999999964,31.119595949289334,1.4999999999999964,28.8H8.499999999999996C10.046397299526218,28.8,11.299999999999997,27.546397299526223,11.299999999999997,26V8.5C11.299999999999997,6.953602700473779,10.046397299526218,5.7,8.499999999999996,5.7H1.4999999999999964z"/>
<path fill="url(#math_pink_1456251500762)" stroke="none" d="M1.5,5.699999999999999C1.5,3.3804040507106667,3.3804040507106667,1.5,5.699999999999999,1.5H35.099999999999994C39.73919189857866,1.5,43.49999999999999,5.2608081014213335,43.49999999999999,9.899999999999999V11.299999999999999H39.99999999999999V9.899999999999999C39.99999999999999,8.353602700473777,38.746397299526215,7.099999999999999,37.199999999999996,7.099999999999999H35.8C34.25360270047378,7.099999999999999,33,8.353602700473777,33,9.899999999999999V24.599999999999998C33,26.14639729952622,34.25360270047378,27.4,35.8,27.4H37.199999999999996C38.746397299526215,27.4,39.99999999999999,26.14639729952622,39.99999999999999,24.599999999999998V23.2H43.49999999999999V24.599999999999998C43.49999999999999,29.239191898578664,39.73919189857866,33,35.099999999999994,33H5.699999999999996C3.380404050710663,33,1.4999999999999964,31.119595949289334,1.4999999999999964,28.8H8.499999999999996C10.046397299526218,28.8,11.299999999999997,27.546397299526223,11.299999999999997,26V8.5C11.299999999999997,6.953602700473779,10.046397299526218,5.7,8.499999999999996,5.7H1.4999999999999964z"/>
<text transform="matrix( 1 0 0 1 14.634765625 23)" fill="#8c2a6e" font-family="Verdana" font-size="18">+</text>
</g>
<linearGradient x1="0" y1="0" x2="90" y2="32" gradientUnits="userSpaceOnUse" id="math_pink_1456251500762">
<stop offset="0.0" stop-color="#fcc4f9" stop-opacity="1"/>
<stop offset="1.0" stop-color="#f991f3" stop-opacity="1"/>
</linearGradient>
</g>

<g transform="matrix(1 0 0 1 243 182)">
<g transform="matrix( 1 0 0 1 0 0)">
<path fill="none" stroke="#cc66b9" stroke-width="2.0999999999999996" stroke-miterlimit="10" d="M1.5,5.699999999999999C1.5,4.346902362914555,2.5969023629145553,3.2499999999999996,3.9499999999999997,3.2499999999999996H4.6499999999999995C6.003097637085443,3.2499999999999996,7.1,4.346902362914555,7.1,5.699999999999999V7.449999999999999H12.7V4.299999999999999C12.7,2.753602700473777,13.953602700473779,1.4999999999999991,15.5,1.4999999999999991H68.69999999999999C70.24639729952621,1.4999999999999991,71.49999999999999,2.753602700473777,71.49999999999999,4.299999999999999V20.4C71.49999999999999,21.94639729952622,70.24639729952621,23.2,68.69999999999999,23.2H15.499999999999993C13.953602700473771,23.2,12.699999999999992,21.94639729952622,12.699999999999992,20.4V17.25H7.0999999999999925V19C7.0999999999999925,20.353097637085444,6.003097637085437,21.45,4.649999999999993,21.45H3.949999999999993C2.596902362914549,21.45,1.4999999999999933,20.353097637085444,1.4999999999999933,19z"/>
<path fill="url(#input_pink_1456251500765)" stroke="none" d="M1.5,5.699999999999999C1.5,4.346902362914555,2.5969023629145553,3.2499999999999996,3.9499999999999997,3.2499999999999996H4.6499999999999995C6.003097637085443,3.2499999999999996,7.1,4.346902362914555,7.1,5.699999999999999V7.449999999999999H12.7V4.299999999999999C12.7,2.753602700473777,13.953602700473779,1.4999999999999991,15.5,1.4999999999999991H68.69999999999999C70.24639729952621,1.4999999999999991,71.49999999999999,2.753602700473777,71.49999999999999,4.299999999999999V20.4C71.49999999999999,21.94639729952622,70.24639729952621,23.2,68.69999999999999,23.2H15.499999999999993C13.953602700473771,23.2,12.699999999999992,21.94639729952622,12.699999999999992,20.4V17.25H7.0999999999999925V19C7.0999999999999925,20.353097637085444,6.003097637085437,21.45,4.649999999999993,21.45H3.949999999999993C2.596902362914549,21.45,1.4999999999999933,20.353097637085444,1.4999999999999933,19z"/>
<text transform="matrix( 1 0 0 1 33 16)" fill="#8c2a6e" font-family="Verdana" font-size="13">30</text>
</g>
<linearGradient x1="0" y1="0" x2="90" y2="32" gradientUnits="userSpaceOnUse" id="input_pink_1456251500765">
<stop offset="0.0" stop-color="#fcc4f9" stop-opacity="1"/>
<stop offset="1.0" stop-color="#f991f3" stop-opacity="1"/>
</linearGradient>
</g>

<g transform="matrix(1 0 0 1 280 5)">
<g transform="matrix( 1 0 0 1 0 0)">
<path fill="none" stroke="#bfaf00" stroke-width="2.0999999999999996" stroke-miterlimit="10" d="M5.4998000000000005,41.8998C5.4998000000000005,21.7972,25.296499999999998,5.4998000000000005,45.3998,5.4998000000000005C65.5031,5.4998000000000005,85.2998,21.796499999999998,85.2998,41.8998C85.2998,46.538991898578665,81.53899189857866,50.2998,76.8998,50.2998H53.799800000000005V51.559799999999996C53.799800000000005,53.106197299526215,52.54619729952623,54.35979999999999,50.99980000000001,54.35979999999999H39.799800000000005C38.253402700473785,54.35979999999999,36.99980000000001,53.106197299526215,36.99980000000001,51.559799999999996V50.2998H13.89980000000001C9.260608101421344,50.2998,5.499800000000011,46.538991898578665,5.499800000000011,41.8998z"/>
<path fill="url(#hat0_yellow_1456335895987)" stroke="none" d="M5.4998000000000005,41.8998C5.4998000000000005,21.7972,25.296499999999998,5.4998000000000005,45.3998,5.4998000000000005C65.5031,5.4998000000000005,85.2998,21.796499999999998,85.2998,41.8998C85.2998,46.538991898578665,81.53899189857866,50.2998,76.8998,50.2998H53.799800000000005V51.559799999999996C53.799800000000005,53.106197299526215,52.54619729952623,54.35979999999999,50.99980000000001,54.35979999999999H39.799800000000005C38.253402700473785,54.35979999999999,36.99980000000001,53.106197299526215,36.99980000000001,51.559799999999996V50.2998H13.89980000000001C9.260608101421344,50.2998,5.499800000000011,46.538991898578665,5.499800000000011,41.8998z"/>
<text transform="matrix( 1 0 0 1 22 35)" fill="#8c7a15" font-family="Verdana" font-size="13">square</text>
</g>
<linearGradient x1="20" y1="0" x2="42" y2="48" gradientUnits="userSpaceOnUse" id="hat0_yellow_1456335895987">
<stop offset="0.0" stop-color="#ffff72" stop-opacity="1"/>
<stop offset="1.0" stop-color="#fff600" stop-opacity="1"/>
</linearGradient>
</g>

<g transform="matrix(1 0 0 1 293 56)">
<g transform="matrix( 1 0 0 1 0 0)">
<path fill="none" stroke="#cc7e02" stroke-width="2.0999999999999996" stroke-miterlimit="10" d="M1.5,9.899999999999999C1.5,5.2608081014213335,5.2608081014213335,1.5,9.899999999999999,1.5H22.5V2.76C22.5,4.306397299526221,23.753602700473778,5.56,25.3,5.56H37.9C39.44639729952622,5.56,40.699999999999996,4.306397299526221,40.699999999999996,2.76V1.4999999999999998H53.3C56.959599999999995,1.4999999999999998,60.0725,3.8344999999999994,61.224,7.1H65.9035C69.38289392393399,7.1,72.20349999999999,9.920606076065999,72.20349999999999,13.399999999999999V14.799999999999999H68.70349999999999V13.399999999999999C68.70349999999999,11.853602700473777,67.44989729952621,10.599999999999998,65.9035,10.599999999999998H64.50349999999999C62.95710270047377,10.599999999999998,61.70349999999999,11.853602700473777,61.70349999999999,13.399999999999999V28.099999999999998C61.70349999999999,29.64639729952622,62.95710270047377,30.9,64.50349999999999,30.9H65.9035C67.44989729952621,30.9,68.70349999999999,29.64639729952622,68.70349999999999,28.099999999999998V26.7H72.20349999999999V35.099999999999994C72.20349999999999,37.419595949289324,74.08390405071066,39.3,76.4035,39.3H135.90349999999998C137.4498972995262,39.3,138.7035,40.553602700473775,138.7035,42.099999999999994V49.099999999999994H134.03799999999998C132.89489999999998,45.81909999999999,129.7736,43.49999999999999,126.10349999999998,43.49999999999999H112.80349999999999V44.75999999999999C112.80349999999999,46.30639729952621,111.54989729952621,47.55999999999999,110.00349999999999,47.55999999999999H98.80349999999999C97.25710270047377,47.55999999999999,96.00349999999999,46.30639729952621,96.00349999999999,44.75999999999999V43.49999999999999H82.00349999999999C77.36430810142133,43.49999999999999,73.6035,47.260808101421325,73.6035,51.89999999999999V76.39999999999999C73.6035,81.03919189857865,69.84269189857865,84.79999999999998,65.20349999999999,84.79999999999998H40.00349999999999V86.05999999999999C40.00349999999999,87.60639729952621,38.74989729952621,88.85999999999999,37.20349999999999,88.85999999999999H26.003499999999992C24.45710270047377,88.85999999999999,23.20349999999999,87.60639729952621,23.20349999999999,86.05999999999999V84.79999999999998H9.903499999999992C5.264308101421327,84.79999999999998,1.5034999999999936,81.03919189857864,1.5034999999999936,76.39999999999998z"/>
<path fill="url(#repeat_orange_1456251409526)" stroke="none" d="M1.5,9.899999999999999C1.5,5.2608081014213335,5.2608081014213335,1.5,9.899999999999999,1.5H22.5V2.76C22.5,4.306397299526221,23.753602700473778,5.56,25.3,5.56H37.9C39.44639729952622,5.56,40.699999999999996,4.306397299526221,40.699999999999996,2.76V1.4999999999999998H53.3C56.959599999999995,1.4999999999999998,60.0725,3.8344999999999994,61.224,7.1H65.9035C69.38289392393399,7.1,72.20349999999999,9.920606076065999,72.20349999999999,13.399999999999999V14.799999999999999H68.70349999999999V13.399999999999999C68.70349999999999,11.853602700473777,67.44989729952621,10.599999999999998,65.9035,10.599999999999998H64.50349999999999C62.95710270047377,10.599999999999998,61.70349999999999,11.853602700473777,61.70349999999999,13.399999999999999V28.099999999999998C61.70349999999999,29.64639729952622,62.95710270047377,30.9,64.50349999999999,30.9H65.9035C67.44989729952621,30.9,68.70349999999999,29.64639729952622,68.70349999999999,28.099999999999998V26.7H72.20349999999999V35.099999999999994C72.20349999999999,37.419595949289324,74.08390405071066,39.3,76.4035,39.3H135.90349999999998C137.4498972995262,39.3,138.7035,40.553602700473775,138.7035,42.099999999999994V49.099999999999994H134.03799999999998C132.89489999999998,45.81909999999999,129.7736,43.49999999999999,126.10349999999998,43.49999999999999H112.80349999999999V44.75999999999999C112.80349999999999,46.30639729952621,111.54989729952621,47.55999999999999,110.00349999999999,47.55999999999999H98.80349999999999C97.25710270047377,47.55999999999999,96.00349999999999,46.30639729952621,96.00349999999999,44.75999999999999V43.49999999999999H82.00349999999999C77.36430810142133,43.49999999999999,73.6035,47.260808101421325,73.6035,51.89999999999999V76.39999999999999C73.6035,81.03919189857865,69.84269189857865,84.79999999999998,65.20349999999999,84.79999999999998H40.00349999999999V86.05999999999999C40.00349999999999,87.60639729952621,38.74989729952621,88.85999999999999,37.20349999999999,88.85999999999999H26.003499999999992C24.45710270047377,88.85999999999999,23.20349999999999,87.60639729952621,23.20349999999999,86.05999999999999V84.79999999999998H9.903499999999992C5.264308101421327,84.79999999999998,1.5034999999999936,81.03919189857864,1.5034999999999936,76.39999999999998z"/>
<text transform="matrix( 1 0 0 1 10.467041015625 25)" fill="#8b6010" font-family="Verdana" font-size="13">repeat</text>
</g>
<linearGradient x1="20" y1="0" x2="42" y2="48" gradientUnits="userSpaceOnUse" id="repeat_orange_1456251409526">
<stop offset="0.0" stop-color="#ffdf60" stop-opacity="1"/>
<stop offset="1.0" stop-color="#ffbb00" stop-opacity="1"/>
</linearGradient>
</g>

<g transform="matrix(1 0 0 1 354 65)">
<g transform="matrix( 1 0 0 1 0 0)">
<path fill="none" stroke="#cc66b9" stroke-width="2.0999999999999996" stroke-miterlimit="10" d="M1.5,5.699999999999999C1.5,4.346902362914555,2.5969023629145553,3.2499999999999996,3.9499999999999997,3.2499999999999996H4.6499999999999995C6.003097637085443,3.2499999999999996,7.1,4.346902362914555,7.1,5.699999999999999V7.449999999999999H12.7V4.299999999999999C12.7,2.753602700473777,13.953602700473779,1.4999999999999991,15.5,1.4999999999999991H68.69999999999999C70.24639729952621,1.4999999999999991,71.49999999999999,2.753602700473777,71.49999999999999,4.299999999999999V20.4C71.49999999999999,21.94639729952622,70.24639729952621,23.2,68.69999999999999,23.2H15.499999999999993C13.953602700473771,23.2,12.699999999999992,21.94639729952622,12.699999999999992,20.4V17.25H7.0999999999999925V19C7.0999999999999925,20.353097637085444,6.003097637085437,21.45,4.649999999999993,21.45H3.949999999999993C2.596902362914549,21.45,1.4999999999999933,20.353097637085444,1.4999999999999933,19z"/>
<path fill="url(#input_pink_1456251500765)" stroke="none" d="M1.5,5.699999999999999C1.5,4.346902362914555,2.5969023629145553,3.2499999999999996,3.9499999999999997,3.2499999999999996H4.6499999999999995C6.003097637085443,3.2499999999999996,7.1,4.346902362914555,7.1,5.699999999999999V7.449999999999999H12.7V4.299999999999999C12.7,2.753602700473777,13.953602700473779,1.4999999999999991,15.5,1.4999999999999991H68.69999999999999C70.24639729952621,1.4999999999999991,71.49999999999999,2.753602700473777,71.49999999999999,4.299999999999999V20.4C71.49999999999999,21.94639729952622,70.24639729952621,23.2,68.69999999999999,23.2H15.499999999999993C13.953602700473771,23.2,12.699999999999992,21.94639729952622,12.699999999999992,20.4V17.25H7.0999999999999925V19C7.0999999999999925,20.353097637085444,6.003097637085437,21.45,4.649999999999993,21.45H3.949999999999993C2.596902362914549,21.45,1.4999999999999933,20.353097637085444,1.4999999999999933,19z"/>
<text transform="matrix( 1 0 0 1 37.5 16)" fill="#8c2a6e" font-family="Verdana" font-size="13">4</text>
</g>
<linearGradient x1="0" y1="0" x2="90" y2="32" gradientUnits="userSpaceOnUse" id="input_pink_1456251500765">
<stop offset="0.0" stop-color="#fcc4f9" stop-opacity="1"/>
<stop offset="1.0" stop-color="#f991f3" stop-opacity="1"/>
</linearGradient>
</g>

<g transform="matrix(1 0 0 1 366 100)">
<g transform="matrix( 1 0 0 1 0 0)">
<path fill="none" stroke="#00a500" stroke-width="2.0999999999999996" stroke-miterlimit="10" d="M1.5,9.899999999999999C1.5,5.2608081014213335,5.2608081014213335,1.5,9.899999999999999,1.5H22.5V2.76C22.5,4.306397299526221,23.753602700473778,5.56,25.3,5.56H37.9C39.44639729952622,5.56,40.699999999999996,4.306397299526221,40.699999999999996,2.76V1.4999999999999998H53.3C56.959599999999995,1.4999999999999998,60.0725,3.8344999999999994,61.224,7.1H65.9035C69.38289392393399,7.1,72.20349999999999,9.920606076065999,72.20349999999999,13.399999999999999V14.799999999999999H68.70349999999999V13.399999999999999C68.70349999999999,11.853602700473777,67.44989729952621,10.599999999999998,65.9035,10.599999999999998H64.50349999999999C62.95710270047377,10.599999999999998,61.70349999999999,11.853602700473777,61.70349999999999,13.399999999999999V28.099999999999998C61.70349999999999,29.64639729952622,62.95710270047377,30.9,64.50349999999999,30.9H65.9035C67.44989729952621,30.9,68.70349999999999,29.64639729952622,68.70349999999999,28.099999999999998V26.7H72.20349999999999V28.099999999999998C72.20349999999999,31.579393923934,69.38289392393399,34.4,65.9035,34.4H61.224C60.0697,37.6599,56.9589,40,53.3035,40H40.0035V41.26C40.0035,42.80639729952622,38.749897299526225,44.059999999999995,37.203500000000005,44.059999999999995H26.003500000000006C24.457102700473783,44.059999999999995,23.203500000000005,42.80639729952622,23.203500000000005,41.26V40H9.903500000000006C5.264308101421341,40,1.5035000000000078,36.23919189857867,1.5035000000000078,31.6z"/>
<path fill="url(#cmd_green_1456251329761)" stroke="none" d="M1.5,9.899999999999999C1.5,5.2608081014213335,5.2608081014213335,1.5,9.899999999999999,1.5H22.5V2.76C22.5,4.306397299526221,23.753602700473778,5.56,25.3,5.56H37.9C39.44639729952622,5.56,40.699999999999996,4.306397299526221,40.699999999999996,2.76V1.4999999999999998H53.3C56.959599999999995,1.4999999999999998,60.0725,3.8344999999999994,61.224,7.1H65.9035C69.38289392393399,7.1,72.20349999999999,9.920606076065999,72.20349999999999,13.399999999999999V14.799999999999999H68.70349999999999V13.399999999999999C68.70349999999999,11.853602700473777,67.44989729952621,10.599999999999998,65.9035,10.599999999999998H64.50349999999999C62.95710270047377,10.599999999999998,61.70349999999999,11.853602700473777,61.70349999999999,13.399999999999999V28.099999999999998C61.70349999999999,29.64639729952622,62.95710270047377,30.9,64.50349999999999,30.9H65.9035C67.44989729952621,30.9,68.70349999999999,29.64639729952622,68.70349999999999,28.099999999999998V26.7H72.20349999999999V28.099999999999998C72.20349999999999,31.579393923934,69.38289392393399,34.4,65.9035,34.4H61.224C60.0697,37.6599,56.9589,40,53.3035,40H40.0035V41.26C40.0035,42.80639729952622,38.749897299526225,44.059999999999995,37.203500000000005,44.059999999999995H26.003500000000006C24.457102700473783,44.059999999999995,23.203500000000005,42.80639729952622,23.203500000000005,41.26V40H9.903500000000006C5.264308101421341,40,1.5035000000000078,36.23919189857867,1.5035000000000078,31.6z"/>
<text transform="matrix( 1 0 0 1 6.512451171875 25)" fill="#128c12" font-family="Verdana" font-size="13">forward</text>
</g>
<linearGradient x1="20" y1="0" x2="42" y2="48" gradientUnits="userSpaceOnUse" id="cmd_green_1456251329761">
<stop offset="0.0" stop-color="#a1ff72" stop-opacity="1"/>
<stop offset="1.0" stop-color="#00f200" stop-opacity="1"/>
</linearGradient>
</g>

<g transform="matrix(1 0 0 1 427 109)">
<g transform="matrix( 1 0 0 1 0 0)">
<path fill="none" stroke="#bfaf00" stroke-width="2.0999999999999996" stroke-miterlimit="10" d="M1.5,5.699999999999999C1.5,4.346902362914555,2.5969023629145553,3.2499999999999996,3.9499999999999997,3.2499999999999996H4.6499999999999995C6.003097637085443,3.2499999999999996,7.1,4.346902362914555,7.1,5.699999999999999V7.449999999999999H12.7V4.299999999999999C12.7,2.753602700473777,13.953602700473779,1.4999999999999991,15.5,1.4999999999999991H68.69999999999999C70.24639729952621,1.4999999999999991,71.49999999999999,2.753602700473777,71.49999999999999,4.299999999999999V20.4C71.49999999999999,21.94639729952622,70.24639729952621,23.2,68.69999999999999,23.2H15.499999999999993C13.953602700473771,23.2,12.699999999999992,21.94639729952622,12.699999999999992,20.4V17.25H7.0999999999999925V19C7.0999999999999925,20.353097637085444,6.003097637085437,21.45,4.649999999999993,21.45H3.949999999999993C2.596902362914549,21.45,1.4999999999999933,20.353097637085444,1.4999999999999933,19z"/>
<path fill="url(#input_yellow_1456335703699)" stroke="none" d="M1.5,5.699999999999999C1.5,4.346902362914555,2.5969023629145553,3.2499999999999996,3.9499999999999997,3.2499999999999996H4.6499999999999995C6.003097637085443,3.2499999999999996,7.1,4.346902362914555,7.1,5.699999999999999V7.449999999999999H12.7V4.299999999999999C12.7,2.753602700473777,13.953602700473779,1.4999999999999991,15.5,1.4999999999999991H68.69999999999999C70.24639729952621,1.4999999999999991,71.49999999999999,2.753602700473777,71.49999999999999,4.299999999999999V20.4C71.49999999999999,21.94639729952622,70.24639729952621,23.2,68.69999999999999,23.2H15.499999999999993C13.953602700473771,23.2,12.699999999999992,21.94639729952622,12.699999999999992,20.4V17.25H7.0999999999999925V19C7.0999999999999925,20.353097637085444,6.003097637085437,21.45,4.649999999999993,21.45H3.949999999999993C2.596902362914549,21.45,1.4999999999999933,20.353097637085444,1.4999999999999933,19z"/>
<text transform="matrix( 1 0 0 1 23.589599609375 16)" fill="#8c7a15" font-family="Verdana" font-size="13">box1</text>
</g>
<linearGradient x1="20" y1="0" x2="42" y2="48" gradientUnits="userSpaceOnUse" id="input_yellow_1456335703699">
<stop offset="0.0" stop-color="#ffff72" stop-opacity="1"/>
<stop offset="1.0" stop-color="#fff600" stop-opacity="1"/>
</linearGradient>
</g>

<g transform="matrix(1 0 0 1 366 140)">
<g transform="matrix( 1 0 0 1 0 0)">
<path fill="none" stroke="#00a500" stroke-width="2.0999999999999996" stroke-miterlimit="10" d="M1.5,9.899999999999999C1.5,5.2608081014213335,5.2608081014213335,1.5,9.899999999999999,1.5H22.5V2.76C22.5,4.306397299526221,23.753602700473778,5.56,25.3,5.56H37.9C39.44639729952622,5.56,40.699999999999996,4.306397299526221,40.699999999999996,2.76V1.4999999999999998H53.3C56.959599999999995,1.4999999999999998,60.0725,3.8344999999999994,61.224,7.1H65.9035C69.38289392393399,7.1,72.20349999999999,9.920606076065999,72.20349999999999,13.399999999999999V14.799999999999999H68.70349999999999V13.399999999999999C68.70349999999999,11.853602700473777,67.44989729952621,10.599999999999998,65.9035,10.599999999999998H64.50349999999999C62.95710270047377,10.599999999999998,61.70349999999999,11.853602700473777,61.70349999999999,13.399999999999999V28.099999999999998C61.70349999999999,29.64639729952622,62.95710270047377,30.9,64.50349999999999,30.9H65.9035C67.44989729952621,30.9,68.70349999999999,29.64639729952622,68.70349999999999,28.099999999999998V26.7H72.20349999999999V28.099999999999998C72.20349999999999,31.579393923934,69.38289392393399,34.4,65.9035,34.4H61.224C60.0697,37.6599,56.9589,40,53.3035,40H40.0035V41.26C40.0035,42.80639729952622,38.749897299526225,44.059999999999995,37.203500000000005,44.059999999999995H26.003500000000006C24.457102700473783,44.059999999999995,23.203500000000005,42.80639729952622,23.203500000000005,41.26V40H9.903500000000006C5.264308101421341,40,1.5035000000000078,36.23919189857867,1.5035000000000078,31.6z"/>
<path fill="url(#cmd_green_1456251329752)" stroke="none" d="M1.5,9.899999999999999C1.5,5.2608081014213335,5.2608081014213335,1.5,9.899999999999999,1.5H22.5V2.76C22.5,4.306397299526221,23.753602700473778,5.56,25.3,5.56H37.9C39.44639729952622,5.56,40.699999999999996,4.306397299526221,40.699999999999996,2.76V1.4999999999999998H53.3C56.959599999999995,1.4999999999999998,60.0725,3.8344999999999994,61.224,7.1H65.9035C69.38289392393399,7.1,72.20349999999999,9.920606076065999,72.20349999999999,13.399999999999999V14.799999999999999H68.70349999999999V13.399999999999999C68.70349999999999,11.853602700473777,67.44989729952621,10.599999999999998,65.9035,10.599999999999998H64.50349999999999C62.95710270047377,10.599999999999998,61.70349999999999,11.853602700473777,61.70349999999999,13.399999999999999V28.099999999999998C61.70349999999999,29.64639729952622,62.95710270047377,30.9,64.50349999999999,30.9H65.9035C67.44989729952621,30.9,68.70349999999999,29.64639729952622,68.70349999999999,28.099999999999998V26.7H72.20349999999999V28.099999999999998C72.20349999999999,31.579393923934,69.38289392393399,34.4,65.9035,34.4H61.224C60.0697,37.6599,56.9589,40,53.3035,40H40.0035V41.26C40.0035,42.80639729952622,38.749897299526225,44.059999999999995,37.203500000000005,44.059999999999995H26.003500000000006C24.457102700473783,44.059999999999995,23.203500000000005,42.80639729952622,23.203500000000005,41.26V40H9.903500000000006C5.264308101421341,40,1.5035000000000078,36.23919189857867,1.5035000000000078,31.6z"/>
<text transform="matrix( 1 0 0 1 16.218017578125 25)" fill="#128c12" font-family="Verdana" font-size="13">right</text>
</g>
<linearGradient x1="20" y1="0" x2="42" y2="48" gradientUnits="userSpaceOnUse" id="cmd_green_1456251329752">
<stop offset="0.0" stop-color="#a1ff72" stop-opacity="1"/>
<stop offset="1.0" stop-color="#00f200" stop-opacity="1"/>
</linearGradient>
</g>

<g transform="matrix(1 0 0 1 427 149)">
<g transform="matrix( 1 0 0 1 0 0)">
<path fill="none" stroke="#cc66b9" stroke-width="2.0999999999999996" stroke-miterlimit="10" d="M1.5,5.699999999999999C1.5,4.346902362914555,2.5969023629145553,3.2499999999999996,3.9499999999999997,3.2499999999999996H4.6499999999999995C6.003097637085443,3.2499999999999996,7.1,4.346902362914555,7.1,5.699999999999999V7.449999999999999H12.7V4.299999999999999C12.7,2.753602700473777,13.953602700473779,1.4999999999999991,15.5,1.4999999999999991H68.69999999999999C70.24639729952621,1.4999999999999991,71.49999999999999,2.753602700473777,71.49999999999999,4.299999999999999V20.4C71.49999999999999,21.94639729952622,70.24639729952621,23.2,68.69999999999999,23.2H15.499999999999993C13.953602700473771,23.2,12.699999999999992,21.94639729952622,12.699999999999992,20.4V17.25H7.0999999999999925V19C7.0999999999999925,20.353097637085444,6.003097637085437,21.45,4.649999999999993,21.45H3.949999999999993C2.596902362914549,21.45,1.4999999999999933,20.353097637085444,1.4999999999999933,19z"/>
<path fill="url(#input_pink_1456251500765)" stroke="none" d="M1.5,5.699999999999999C1.5,4.346902362914555,2.5969023629145553,3.2499999999999996,3.9499999999999997,3.2499999999999996H4.6499999999999995C6.003097637085443,3.2499999999999996,7.1,4.346902362914555,7.1,5.699999999999999V7.449999999999999H12.7V4.299999999999999C12.7,2.753602700473777,13.953602700473779,1.4999999999999991,15.5,1.4999999999999991H68.69999999999999C70.24639729952621,1.4999999999999991,71.49999999999999,2.753602700473777,71.49999999999999,4.299999999999999V20.4C71.49999999999999,21.94639729952622,70.24639729952621,23.2,68.69999999999999,23.2H15.499999999999993C13.953602700473771,23.2,12.699999999999992,21.94639729952622,12.699999999999992,20.4V17.25H7.0999999999999925V19C7.0999999999999925,20.353097637085444,6.003097637085437,21.45,4.649999999999993,21.45H3.949999999999993C2.596902362914549,21.45,1.4999999999999933,20.353097637085444,1.4999999999999933,19z"/>
<text transform="matrix( 1 0 0 1 33 16)" fill="#8c2a6e" font-family="Verdana" font-size="13">90</text>
</g>
<linearGradient x1="0" y1="0" x2="90" y2="32" gradientUnits="userSpaceOnUse" id="input_pink_1456251500765">
<stop offset="0.0" stop-color="#fcc4f9" stop-opacity="1"/>
<stop offset="1.0" stop-color="#f991f3" stop-opacity="1"/>
</linearGradient>
</g>

</svg>
