<?xml version="1.0" encoding="utf-8"?>
<!-- Generator: Adobe Illustrator 23.1.1, SVG Export Plug-In . SVG Version: 6.00 Build 0)  -->
<svg version="1.1" id="Layer_1" xmlns="http://www.w3.org/2000/svg" xmlns:xlink="http://www.w3.org/1999/xlink" x="0px" y="0px"
	 width="46px" height="46px" viewBox="0 0 46 46" style="enable-background:new 0 0 46 46;" xml:space="preserve">
<style type="text/css">
	.st0{fill:#FC9F33;}
</style>
<g id="imagepaths_1_">
	<path class="st0" d="M23,41c-0.3,0-0.5-0.1-0.7-0.3L17.6,36h-6.7c-0.5,0-1-0.5-1-1v-6.7l-4.7-4.7c-0.4-0.4-0.4-1,0-1.4l4.7-4.8
		v-6.7c0-0.5,0.5-1,1-1h6.7l4.7-4.7c0.4-0.4,1-0.4,1.4,0l4.7,4.7H35c0.6,0,1.1,0.4,1.1,1v6.7l4.7,4.7c0.4,0.4,0.4,1,0,1.4L36,28.4
		v6.7c0,0.5-0.5,1-1,1h-6.7l-4.7,4.7C23.5,40.9,23.3,41,23,41z M20.3,36l2.7,2.7l2.7-2.7H20.3z M30.3,34.1h3.8v-3.8l-1.9,1.9l0,0
		L30.3,34.1z M24,34.1h3.6l2.5-2.5l-6.2-6.2L24,34.1L24,34.1z M18.4,34.1H22v-8.7l-6.2,6.2L18.4,34.1z M11.9,34.1h3.8l-1.9-1.9l0,0
		l-1.9-1.9C11.9,30.3,11.9,34.1,11.9,34.1z M11.9,27.6l2.5,2.6l6.2-6.2h-8.7V27.6z M25.3,24l6.2,6.2l2.5-2.5v-3.6L25.3,24L25.3,24z
		 M7.3,23l2.7,2.7v-5.4L7.3,23z M36,23v2.7l2.7-2.7L36,20.3V23z M25.3,22h8.7v-3.6l-2.5-2.6L25.3,22z M11.9,22h8.7l-6.2-6.2
		l-2.5,2.5V22z M24,11.9v8.7l6.2-6.2l-2.5-2.5H24z M15.8,14.4l6.2,6.2v-8.7h-3.6L15.8,14.4z M32.2,13.8L32.2,13.8l1.9,1.9v-3.8h-3.8
		L32.2,13.8z M11.9,11.9v3.8l3.8-3.8H11.9z M23,9.9h2.7L23,7.2l-2.7,2.7H23z"/>
</g>
</svg>
