<?xml version="1.0" encoding="utf-8"?>
<!-- Generator: Adobe Illustrator 23.1.1, SVG Export Plug-In . SVG Version: 6.00 Build 0)  -->
<svg version="1.1" id="Layer_1" xmlns="http://www.w3.org/2000/svg" xmlns:xlink="http://www.w3.org/1999/xlink" x="0px" y="0px"
	 width="46px" height="46px" viewBox="0 0 46 46" style="enable-background:new 0 0 46 46;" xml:space="preserve">
<style type="text/css">
	.st0{fill:#FC9F33;}
</style>
<path class="st0" d="M10.6,18.8c0-1.9,1.5-3.4,3.4-3.4h5.1v0.5c0,0.6,0.5,1.2,1.2,1.2h5.1c0.6,0,1.2-0.5,1.2-1.2v-0.5h5.1
	c1.5,0,2.8,1,3.2,2.2h1.9c1.4,0,2.6,1.2,2.6,2.6v0.5H38v-0.5c0-0.6-0.5-1.2-1.2-1.2h-0.6c-0.6,0-1.2,0.5-1.2,1.2v6
	c0,0.6,0.5,1.2,1.2,1.2h0.5c0.6,0,1.2-0.5,1.2-1.2v-0.5h1.4v0.5c0,1.4-1.2,2.6-2.6,2.6h-1.9c-0.5,1.4-1.7,2.2-3.2,2.2h-5.4v0.5
	c0,0.6-0.5,1.2-1.2,1.2h-4.6c-0.6,0-1.2-0.5-1.2-1.2v-0.5h-5.4c-1.9,0-3.4-1.5-3.4-3.4L10.6,18.8z"/>
</svg>
