<?xml version="1.0" encoding="UTF-8" standalone="no"?>
<!-- Generator: Adobe Illustrator 24.0.1, SVG Export Plug-In . SVG Version: 6.00 Build 0)  -->

<svg
   version="1.1"
   id="Layer_1"
   x="0px"
   y="0px"
   viewBox="0 0 46 46"
   enable-background="new 0 0 46 46"
   xml:space="preserve"
   sodipodi:docname="loadOff.svg"
   inkscape:version="1.2.2 (b0a8486541, 2022-12-01)"
   xmlns:inkscape="http://www.inkscape.org/namespaces/inkscape"
   xmlns:sodipodi="http://sodipodi.sourceforge.net/DTD/sodipodi-0.dtd"
   xmlns="http://www.w3.org/2000/svg"
   xmlns:svg="http://www.w3.org/2000/svg"><defs
   id="defs15" /><sodipodi:namedview
   id="namedview13"
   pagecolor="#ffffff"
   bordercolor="#000000"
   borderopacity="0.25"
   inkscape:showpageshadow="2"
   inkscape:pageopacity="0.0"
   inkscape:pagecheckerboard="0"
   inkscape:deskcolor="#d1d1d1"
   showgrid="false"
   inkscape:zoom="17.804348"
   inkscape:cx="22.971917"
   inkscape:cy="23.056166"
   inkscape:window-width="1920"
   inkscape:window-height="1019"
   inkscape:window-x="0"
   inkscape:window-y="37"
   inkscape:window-maximized="1"
   inkscape:current-layer="g8" />
<g
   id="g10"
   transform="matrix(1,0,0,-1,0,47.175)">
	<path
   fill="#fc9f33"
   d="M 26.4,32.6 H 6.6 C 4.6,32.6 3,31 3,29 V 5.6 C 3,3.6 4.6,2 6.6,2 h 19.8 c 2,0 3.6,1.6 3.6,3.6 V 29 c 0,2 -1.6,3.6 -3.6,3.6 z"
   id="path2" />
	<g
   id="g8">
		<path
   fill="none"
   stroke="#ffffff"
   stroke-width="2.25"
   stroke-miterlimit="10"
   d="m 23.3,24.85 c -0.6,0.6 -1.9,0.6 -2.4,0 l -2.7,-2.7 v 12.2 c 0,1 -0.8,1.7 -1.7,1.7 -1,0 -1.7,-0.8 -1.7,-1.7 v -12.2 l -2.7,2.7 c -0.6,0.6 -1.8,0.6 -2.4,0 -0.4,-0.4 -0.5,-0.8 -0.5,-1.3 0,-0.5 0.2,-0.9 0.5,-1.3 l 5.7,-5.7 c 0.6,-0.6 1.9,-0.6 2.4,0 l 5.7,5.7 c 0.4,0.4 0.5,0.8 0.5,1.3 -0.2,0.5 -0.4,0.9 -0.7,1.3 z"
   id="path4" />
		<path
   fill="#fc9f33"
   d="m 23.3,24.85 c -0.6,0.6 -1.9,0.6 -2.4,0 l -2.7,-2.7 v 12.2 c 0,1 -0.8,1.7 -1.7,1.7 -1,0 -1.7,-0.8 -1.7,-1.7 v -12.2 l -2.7,2.7 c -0.6,0.6 -1.8,0.6 -2.4,0 -0.4,-0.4 -0.5,-0.8 -0.5,-1.3 0,-0.5 0.2,-0.9 0.5,-1.3 l 5.7,-5.7 c 0.6,-0.6 1.9,-0.6 2.4,0 l 5.7,5.7 c 0.4,0.4 0.5,0.8 0.5,1.3 -0.2,0.5 -0.4,0.9 -0.7,1.3 z"
   id="path6" />
	</g>
</g>
</svg>
