<?xml version="1.0" encoding="utf-8"?>
<!-- Generator: Adobe Illustrator 23.1.1, SVG Export Plug-In . SVG Version: 6.00 Build 0)  -->
<svg version="1.1" id="Layer_1" xmlns="http://www.w3.org/2000/svg" xmlns:xlink="http://www.w3.org/1999/xlink" x="0px" y="0px"
	 width="46px" height="46px" viewBox="0 0 46 46" style="enable-background:new 0 0 46 46;" xml:space="preserve">
<style type="text/css">
	.st0{fill:#D3BD99;}
	.st1{fill:#FC9F33;}
</style>
<g>
	<g>
		<g>
			<g>
				<g>
					<path class="st0" d="M33,33.7h-18c-1.3,0-2.2-1-2.2-2.2c0-1.3,1-2.2,2.2-2.2h18c1.3,0,2.2,1,2.2,2.2
						C35.2,32.7,34.2,33.7,33,33.7z"/>
					<path class="st0" d="M33,25.6h-18c-1.3,0-2.2-1-2.2-2.2c0-1.3,1-2.2,2.2-2.2h18c1.3,0,2.2,1,2.2,2.2
						C35.2,24.6,34.2,25.6,33,25.6z"/>
					<path class="st0" d="M33,17.5h-18c-1.3,0-2.2-1-2.2-2.2s1-2.2,2.2-2.2h18c1.3,0,2.2,1,2.2,2.2S34.2,17.5,33,17.5z"/>
				</g>
			</g>
		</g>
	</g>
	<g>
		<g>
			<g>
				<g>
					<g>
						<path class="st1" d="M32,32.8h-18c-1.3,0-2.2-1-2.2-2.3c0-1.3,1-2.2,2.2-2.2h18c1.3,0,2.2,1,2.2,2.2
							C34.3,31.8,33.3,32.8,32,32.8z"/>
						<path class="st1" d="M32,24.7h-18c-1.3,0-2.2-1-2.2-2.2c0-1.3,1-2.2,2.2-2.2h18c1.3,0,2.2,1,2.2,2.2
							C34.3,23.7,33.3,24.7,32,24.7z"/>
						<path class="st1" d="M32,16.6h-18c-1.3,0-2.2-1-2.2-2.3s1-2.2,2.2-2.2h18c1.3,0,2.2,1,2.2,2.2S33.3,16.6,32,16.6z"/>
					</g>
				</g>
			</g>
		</g>
	</g>
</g>
</svg>
