<?xml version="1.0" encoding="utf-8"?>
<!-- Generator: Adobe Illustrator 23.1.1, SVG Export Plug-In . SVG Version: 6.00 Build 0)  -->
<svg version="1.1" id="Layer_1" xmlns="http://www.w3.org/2000/svg" xmlns:xlink="http://www.w3.org/1999/xlink" x="0px" y="0px"
	 width="46px" height="46px" viewBox="0 0 46 46" style="enable-background:new 0 0 46 46;" xml:space="preserve">
<style type="text/css">
	.st0{fill:#D3BD99;}
	.st1{fill:#FC9F33;}
</style>
<g>
	<path class="st0" d="M15.7,35.3c-0.4,0-0.8-0.1-1.1-0.3c-0.7-0.4-1.1-1.2-1.1-2V12.3c0-0.8,0.4-1.5,1.1-2c0.7-0.4,1.5-0.4,2.2,0
		l18,10.4c0.7,0.4,1.1,1.2,1.1,2s-0.5,1.5-1.1,2l-18,10.4C16.4,35.2,16.1,35.3,15.7,35.3z"/>
	<path class="st1" d="M15.7,33.5c-0.4,0-0.8-0.1-1.1-0.3c-0.7-0.4-1.1-1.2-1.1-2V10.5c0-0.8,0.4-1.5,1.1-2c0.7-0.4,1.5-0.4,2.2,0
		l18,10.3c0.7,0.4,1.1,1.2,1.1,2s-0.5,1.5-1.1,2l-18,10.4C16.4,33.4,16.1,33.5,15.7,33.5z"/>
</g>
</svg>
