<?xml version="1.0" encoding="utf-8"?>
<!-- Generator: Adobe Illustrator 24.0.1, SVG Export Plug-In . SVG Version: 6.00 Build 0)  -->
<svg version="1.1" id="Layer_1" xmlns="http://www.w3.org/2000/svg" xmlns:xlink="http://www.w3.org/1999/xlink" x="0px" y="0px"
	 viewBox="0 0 46 46" enable-background="new 0 0 46 46" xml:space="preserve">
<g>
	<path fill="#FC9F33" d="M26.4,32.6H6.6C4.6,32.6,3,31,3,29V5.6C3,3.6,4.6,2,6.6,2h19.8c2,0,3.6,1.6,3.6,3.6V29
		C30,31,28.4,32.6,26.4,32.6z"/>
	<g>
		<path fill="none" stroke="#FFFFFF" stroke-width="2.25" stroke-miterlimit="10" d="M23.3,35.3c-0.6-0.6-1.9-0.6-2.4,0L18.2,38
			V25.8c0-1-0.8-1.7-1.7-1.7c-1,0-1.7,0.8-1.7,1.7V38l-2.7-2.7c-0.6-0.6-1.8-0.6-2.4,0c-0.4,0.4-0.5,0.8-0.5,1.3s0.2,0.9,0.5,1.3
			l5.7,5.7c0.6,0.6,1.9,0.6,2.4,0l5.7-5.7c0.4-0.4,0.5-0.8,0.5-1.3C23.8,36.1,23.6,35.7,23.3,35.3z"/>
		<path fill="#FC9F33" d="M23.3,35.3c-0.6-0.6-1.9-0.6-2.4,0L18.2,38V25.8c0-1-0.8-1.7-1.7-1.7c-1,0-1.7,0.8-1.7,1.7V38l-2.7-2.7
			c-0.6-0.6-1.8-0.6-2.4,0c-0.4,0.4-0.5,0.8-0.5,1.3s0.2,0.9,0.5,1.3l5.7,5.7c0.6,0.6,1.9,0.6,2.4,0l5.7-5.7
			c0.4-0.4,0.5-0.8,0.5-1.3C23.8,36.1,23.6,35.7,23.3,35.3z"/>
	</g>
</g>
</svg>
