<?xml version="1.0" encoding="utf-8"?>
<!-- Generator: Adobe Illustrator 23.1.1, SVG Export Plug-In . SVG Version: 6.00 Build 0)  -->
<svg version="1.1" id="Layer_1" xmlns="http://www.w3.org/2000/svg" xmlns:xlink="http://www.w3.org/1999/xlink" x="0px" y="0px"
	 width="46px" height="46px" viewBox="0 0 46 46" style="enable-background:new 0 0 46 46;" xml:space="preserve">
<style type="text/css">
	.st0{fill:url(#SVGID_1_);}
	.st1{fill:#AE0000;}
	.st2{fill:#FF6666;}
	.st3{fill:#FF0000;}
</style>
<g id="on_states_11_">
	<g>
		<g>
			
				<linearGradient id="SVGID_1_" gradientUnits="userSpaceOnUse" x1="23.5" y1="581.7" x2="23.5" y2="558.5255" gradientTransform="matrix(1 0 0 1 0 -548)">
				<stop  offset="0" style="stop-color:#F9F5F2"/>
				<stop  offset="1" style="stop-color:#E4CBA9"/>
			</linearGradient>
			<path class="st0" d="M14.5,33.7c-1.5,0-2.7-1.2-2.7-2.7V13c0-1.5,1.2-2.7,2.7-2.7h18c1.5,0,2.7,1.2,2.7,2.7v18
				c0,1.5-1.2,2.7-2.7,2.7H14.5z"/>
			<path class="st1" d="M32.5,32.8h-18c-1,0-1.8-0.8-1.8-1.8V13c0-1,0.8-1.8,1.8-1.8h18c1,0,1.8,0.8,1.8,1.8v18
				C34.3,32,33.5,32.8,32.5,32.8z"/>
			<g>
				<path class="st2" d="M32.5,12.1h-18c-0.5,0-0.9,0.4-0.9,0.9v0.9c0-0.5,0.4-0.9,0.9-0.9h18c0.5,0,0.9,0.4,0.9,0.9V13
					C33.4,12.5,33,12.1,32.5,12.1z"/>
				<path class="st3" d="M32.5,13h-18c-0.5,0-0.9,0.4-0.9,0.9v16.2c0,0.5,0.4,0.9,0.9,0.9h18c0.5,0,0.9-0.4,0.9-0.9V13.9
					C33.4,13.4,33,13,32.5,13z"/>
			</g>
		</g>
	</g>
</g>
</svg>
