<svg version="1.1" viewBox="0.0 0.0 224.16797900262466 233.83202099737534" fill="none" stroke="none" stroke-linecap="square" stroke-miterlimit="10" xmlns:xlink="http://www.w3.org/1999/xlink" xmlns="http://www.w3.org/2000/svg"><clipPath id="p.0"><path d="m0 0l224.16798 0l0 233.83202l-224.16798 0l0 -233.83202z" clip-rule="nonzero"/></clipPath><g clip-path="url(#p.0)"><path fill="#000000" fill-opacity="0.0" d="m0 0l224.16798 0l0 233.83202l-224.16798 0z" fill-rule="evenodd"/><path fill="#000000" fill-opacity="0.0" d="m12.149365 46.164707l0 0c0 -18.409859 14.92414 -33.334 33.334 -33.334l133.332 0l0 0c8.840729 0 17.319351 3.5119658 23.570694 9.763303c6.251343 6.251337 9.763306 14.729971 9.763306 23.570696l0 141.332c0 18.409866 -14.924149 33.334 -33.334 33.334l-133.332 0c-18.409859 0 -33.334 -14.924133 -33.334 -33.334z" fill-rule="evenodd"/><path stroke="#f1c232" stroke-width="16.0" stroke-linejoin="round" stroke-linecap="butt" d="m12.149365 46.164707l0 0c0 -18.409859 14.92414 -33.334 33.334 -33.334l133.332 0l0 0c8.840729 0 17.319351 3.5119658 23.570694 9.763303c6.251343 6.251337 9.763306 14.729971 9.763306 23.570696l0 141.332c0 18.409866 -14.924149 33.334 -33.334 33.334l-133.332 0c-18.409859 0 -33.334 -14.924133 -33.334 -33.334z" fill-rule="evenodd"/><path fill="#f1c232" d="m33.719162 148.16122l0 0c0 8.134216 27.074432 14.728317 60.472443 14.728317c33.398003 0 60.472443 -6.594101 60.472443 -14.728317l0 34.70085c0 8.134232 -27.07444 14.728317 -60.472443 14.728317c-33.39801 0 -60.472443 -6.5940857 -60.472443 -14.728317z" fill-rule="evenodd"/><path fill="#f6da84" d="m33.719162 148.16122l0 0c0 -8.134216 27.074432 -14.728317 60.472443 -14.728317c33.398003 0 60.472443 6.594101 60.472443 14.728317l0 0c0 8.134216 -27.07444 14.728317 -60.472443 14.728317c-33.39801 0 -60.472443 -6.594101 -60.472443 -14.728317z" fill-rule="evenodd"/><path fill="#000000" fill-opacity="0.0" d="m154.66405 148.16122l0 0c0 8.134216 -27.07444 14.728317 -60.472443 14.728317c-33.39801 0 -60.472443 -6.594101 -60.472443 -14.728317l0 0c0 -8.134216 27.074432 -14.728317 60.472443 -14.728317c33.398003 0 60.472443 6.594101 60.472443 14.728317l0 34.70085c0 8.134232 -27.07444 14.728317 -60.472443 14.728317c-33.39801 0 -60.472443 -6.5940857 -60.472443 -14.728317l0 -34.70085" fill-rule="evenodd"/><path stroke="#f1c232" stroke-width="1.0" stroke-linejoin="round" stroke-linecap="butt" d="m154.66405 148.16122l0 0c0 8.134216 -27.07444 14.728317 -60.472443 14.728317c-33.39801 0 -60.472443 -6.594101 -60.472443 -14.728317l0 0c0 -8.134216 27.074432 -14.728317 60.472443 -14.728317c33.398003 0 60.472443 6.594101 60.472443 14.728317l0 34.70085c0 8.134232 -27.07444 14.728317 -60.472443 14.728317c-33.39801 0 -60.472443 -6.5940857 -60.472443 -14.728317l0 -34.70085" fill-rule="evenodd"/><path fill="#f1c232" d="m33.719162 100.161224l0 0c0 8.134224 27.074432 14.72831 60.472443 14.72831c33.398003 0 60.472443 -6.5940857 60.472443 -14.72831l0 34.70085c0 8.134232 -27.07444 14.728317 -60.472443 14.728317c-33.39801 0 -60.472443 -6.5940857 -60.472443 -14.728317z" fill-rule="evenodd"/><path fill="#f6da84" d="m33.719162 100.161224l0 0c0 -8.134224 27.074432 -14.72831 60.472443 -14.72831c33.398003 0 60.472443 6.5940857 60.472443 14.72831l0 0c0 8.134224 -27.07444 14.72831 -60.472443 14.72831c-33.39801 0 -60.472443 -6.5940857 -60.472443 -14.72831z" fill-rule="evenodd"/><path fill="#000000" fill-opacity="0.0" d="m154.66405 100.161224l0 0c0 8.134224 -27.07444 14.72831 -60.472443 14.72831c-33.39801 0 -60.472443 -6.5940857 -60.472443 -14.72831l0 0c0 -8.134224 27.074432 -14.72831 60.472443 -14.72831c33.398003 0 60.472443 6.5940857 60.472443 14.72831l0 34.70085c0 8.134232 -27.07444 14.728317 -60.472443 14.728317c-33.39801 0 -60.472443 -6.5940857 -60.472443 -14.728317l0 -34.70085" fill-rule="evenodd"/><path stroke="#f1c232" stroke-width="1.0" stroke-linejoin="round" stroke-linecap="butt" d="m154.66405 100.161224l0 0c0 8.134224 -27.07444 14.72831 -60.472443 14.72831c-33.39801 0 -60.472443 -6.5940857 -60.472443 -14.72831l0 0c0 -8.134224 27.074432 -14.72831 60.472443 -14.72831c33.398003 0 60.472443 6.5940857 60.472443 14.72831l0 34.70085c0 8.134232 -27.07444 14.728317 -60.472443 14.728317c-33.39801 0 -60.472443 -6.5940857 -60.472443 -14.728317l0 -34.70085" fill-rule="evenodd"/><path fill="#f1c232" d="m33.719162 52.161224l0 0c0 8.134224 27.074432 14.72831 60.472443 14.72831c33.398003 0 60.472443 -6.5940857 60.472443 -14.72831l0 34.70086c0 8.134216 -27.07444 14.72831 -60.472443 14.72831c-33.39801 0 -60.472443 -6.5940933 -60.472443 -14.72831z" fill-rule="evenodd"/><path fill="#f6da84" d="m33.719162 52.161224l0 0c0 -8.13422 27.074432 -14.728313 60.472443 -14.728313c33.398003 0 60.472443 6.5940933 60.472443 14.728313l0 0c0 8.134224 -27.07444 14.72831 -60.472443 14.72831c-33.39801 0 -60.472443 -6.5940857 -60.472443 -14.72831z" fill-rule="evenodd"/><path fill="#000000" fill-opacity="0.0" d="m154.66405 52.161224l0 0c0 8.134224 -27.07444 14.72831 -60.472443 14.72831c-33.39801 0 -60.472443 -6.5940857 -60.472443 -14.72831l0 0c0 -8.13422 27.074432 -14.728313 60.472443 -14.728313c33.398003 0 60.472443 6.5940933 60.472443 14.728313l0 34.70086c0 8.134216 -27.07444 14.72831 -60.472443 14.72831c-33.39801 0 -60.472443 -6.5940933 -60.472443 -14.72831l0 -34.70086" fill-rule="evenodd"/><path stroke="#f1c232" stroke-width="1.0" stroke-linejoin="round" stroke-linecap="butt" d="m154.66405 52.161224l0 0c0 8.134224 -27.07444 14.72831 -60.472443 14.72831c-33.39801 0 -60.472443 -6.5940857 -60.472443 -14.72831l0 0c0 -8.13422 27.074432 -14.728313 60.472443 -14.728313c33.398003 0 60.472443 6.5940933 60.472443 14.728313l0 34.70086c0 8.134216 -27.07444 14.72831 -60.472443 14.72831c-33.39801 0 -60.472443 -6.5940933 -60.472443 -14.72831l0 -34.70086" fill-rule="evenodd"/><path fill="#000000" fill-opacity="0.0" d="m54.125984 94.48819l202.23624 0l0 129.29134l-202.23624 0z" fill-rule="evenodd"/><path fill="#4b3900" d="m110.07911 140.55943l-21.0625 0l0 -7.1875q0 -3.15625 -0.234375 -3.515625q-0.234375 -0.375 -0.765625 -0.375q-0.640625 0 -1.09375 0.71875q-0.4375 0.703125 -0.4375 2.9375q0 3.125 0.75 4.53125q0.703125 1.34375 4.5625 3.65625q12.8125 7.59375 16.265625 12.671875q3.5625 5.21875 3.5625 16.328125q0 8.09375 -2.03125 12.21875q-2.03125 4.109375 -7.65625 6.796875q-5.625 2.6875 -12.859375 2.6875q-7.953125 0 -13.765625 -3.109375q-5.8125 -3.109375 -7.625 -7.96875q-1.8125 -4.875 -1.8125 -13.28125l0 -6.5625l21.046875 0l0 10.59375q0 3.484375 0.3125 3.96875q0.3125 0.484375 1.140625 0.484375q0.8125 0 1.296875 -0.78125q0.5 -0.796875 0.5 -3.140625q0 -5.609375 -1.25 -7.03125q-1.59375 -1.75 -8.359375 -6.1875q-7.0625 -4.6875 -9.53125 -6.953125q-2.46875 -2.28125 -4.109375 -6.3125q-1.625 -4.046875 -1.625 -10.125q0 -8.71875 2.359375 -13.0q2.375 -4.296875 7.53125 -6.65625q5.171875 -2.359375 12.21875 -2.359375q7.65625 0 13.265625 2.578125q5.625 2.5625 7.515625 6.625q1.890625 4.0625 1.890625 13.03125l0 4.71875zm50.01806 46.21875l0 12.421875l-15.953125 0q-5.4375 0 -8.03125 -0.96875q-2.59375 -0.96875 -3.578125 -3.046875q-0.96875 -2.078125 -0.96875 -4.703125q-5.0625076 -0.140625 -10.125008 -3.625q-5.0625 -3.5 -6.65625 -8.78125q-1.59375 -5.296875 -1.59375 -15.234375l0 -22.171875q0 -7.5 0.921875 -11.640625q0.9375 -4.15625 3.921875 -7.890625q3.0 -3.75 7.640625 -5.640625q4.6562576 -1.890625 10.187508 -1.890625q6.640625 0 11.9375 2.3125q5.296875 2.296875 7.984375 5.9375q2.6875 3.640625 3.46875 7.46875q0.796875 3.8125 0.796875 10.953125l0 23.28125q0 9.8125 -1.046875 13.65625q-1.046875 3.828125 -4.09375 6.15625q-3.03125 2.328125 -6.28125 3.109375q0 -0.0625 0.25 0.125q0.25 0.171875 2.890625 0.171875l8.328125 0zm-22.421875 -51.375q0 -4.640625 -0.25 -5.28125q-0.25 -0.640625 -0.71875 -0.640625q-0.46875 0 -0.796875 0.484375q-0.328125 0.484375 -0.328125 5.4375l0 33.46875q0 5.921875 0.234375 6.609375q0.234375 0.671875 0.765625 0.671875q0.53125 0 0.8125 -0.890625q0.28125 -0.890625 0.28125 -6.921875l0 -32.9375zm47.97087 -20.296875l0 57.328125l11.328125 0l0 18.09375l-33.71875 0l0 -75.421875l22.390625 0z" fill-rule="nonzero"/></g></svg>