<?xml version="1.0" standalone="no"?>
<!DOCTYPE svg PUBLIC "-//W3C//DTD SVG 20010904//EN"
 "http://www.w3.org/TR/2001/REC-SVG-20010904/DTD/svg10.dtd">
<svg version="1.0" xmlns="http://www.w3.org/2000/svg"
 width="86.000000pt" height="86.000000pt" viewBox="0 0 86.000000 86.000000"
 preserveAspectRatio="xMidYMid meet">
<metadata>
Created by potrace 1.14, written by Peter Selinger 2001-2017
</metadata>
<g transform="translate(0.000000,86.000000) scale(0.100000,-0.100000)"
fill="#000000" stroke="none">
<path d="M377 765 c-26 -52 -47 -100 -47 -105 0 -6 38 -10 93 -10 l92 0 53
105 52 105 -98 0 -97 0 -48 -95z"/>
<path d="M100 604 c-62 -27 -80 -51 -80 -108 l0 -51 271 0 c231 0 273 -2 280
-15 17 -31 89 -242 85 -249 -6 -8 -363 -8 -371 1 -4 3 19 55 50 113 30 59 53
110 50 113 -7 7 -170 6 -182 -1 -20 -13 -115 -220 -115 -252 0 -72 40 -128
102 -145 54 -14 528 -10 566 5 17 7 44 29 59 49 43 57 38 101 -34 301 -69 190
-79 208 -124 235 -28 18 -52 19 -277 19 -195 0 -252 -3 -280 -15z m18 -82 c4
-28 -24 -40 -45 -19 -14 13 -14 19 -3 32 18 22 44 15 48 -13z"/>
</g>
</svg>
