<?xml version="1.0" encoding="utf-8"?>
<!-- Generator: Adobe Illustrator 20.1.0, SVG Export Plug-In . SVG Version: 6.00 Build 0)  -->
<svg version="1.1" id="Layer_2" xmlns="http://www.w3.org/2000/svg" xmlns:xlink="http://www.w3.org/1999/xlink" x="0px" y="0px"
	 width="128px" height="128px" viewBox="0 0 128 128" enable-background="new 0 0 128 128" xml:space="preserve">
<g>
	<path fill="#8BBD4E" d="M126.8,16.2C126.8,16.2,126.9,16.2,126.8,16.2c2.4,7.6,0.4,16.1-6.2,22.7c-3,3-3.7,3-8.8,4.9
		c0,0-3.1,1.2-5.2,0.4l0,0l0,0c0,0-4,0.2-2.8,5.3c0.9,4-12.4-2.7-17.1-6.5c-3.8-4.7-10.8-18.3-6.8-17.4c5,1.1,4.9-3.2,4.9-3.2l0,0
		c-0.8-2,1.3-6.3,1.3-6.3c1.4-2.8,2.2-5.2,5.2-8.2c6.4-6.4,14.6-7.9,22-5.4c0,0,0,0,0-0.1c0.8-0.8,7.3,1.6,9.9,4.2
		C125.7,9.1,127.5,15.4,126.8,16.2L126.8,16.2z M63.3,30.5c0,0,3.6-12.6-3.3-16.5c-7-4-11.4-0.8-14.5,2.3C41,20.8,43.1,28,43.1,28
		C50.9,25.9,63.3,30.5,63.3,30.5z M100.8,85.8c0,0,7.3,2,11.7-2.4c3.1-3.1,6.4-7.5,2.3-14.5c-3.9-6.9-16.5-3.3-16.5-3.3
		S103,78,100.8,85.8z M18.7,52.6c0,0-12-1.4-15,2.8c-4.2,6,1.4,10.8,4.5,13.8c6.5,6.2,7.7,1,7.7,1S17.2,60.6,18.7,52.6z M58.6,113
		c0,0-5.2,1.2,1,7.7c3.1,3.2,7.9,8.8,13.8,4.5c4.2-3,2.8-15,2.8-15C68.2,111.7,58.6,113,58.6,113z M18.4,96.1c0,0-4.3,14.4,4.9,26.5
		c0.8,1,2.9,0.5,3.2-0.6c1.8-9,5.7-12.1,5.7-12.1l-4-8.7L18.4,96.1z"/>
	<path fill="#A2C766" d="M86.9,22c-1-1.5-0.7-2.9,0-4.6c3.3-8,5.3-10.1,6.4-10.5c6.5-0.7,5.6,4.5,13.9,3.1c6-1,4.7-5.6,5.5-5.4
		c1.1,0.2,1.1-1.7,1.6-1.5c3.9,0.7,7.9,3.8,7.9,3.8s3.1,4,3.8,7.9c0.1,0.4-1.8,0.5-1.5,1.6c0.2,0.8-4.5-0.5-5.4,5.5
		c-1.3,8.3,3.8,7.4,3.1,13.9c-0.3,1.1-2.5,3.1-10.5,6.4c-1.7,0.6-3.1,1-4.6,0c-3.3-3.3-7.9-3.8-12.1-8C90.7,29.9,90.2,25.3,86.9,22z
		 M87.9,41.1c4.1,4.4,13.8,10.8,13.5,6.8c-0.4-4.9,4.3-4.3,3.8-4.6c-3.3-3.3-6.3-1.8-11.9-7.5c-5.7-5.7-4.1-8.6-7.4-11.9
		c-0.4-0.6,0.2,4.2-4.6,3.8C77.2,27.3,83.5,37,87.9,41.1z M56.4,29.8c3.2-0.1,5.5,0.4,5.5,0.4s2.4-13.1-3-15.1
		c-1.7-0.6-2.7-0.7-4.1-0.9L56.4,29.8z M114.6,74c0-1.2-0.2-2.2-0.8-3.9c-1.7-5.3-15-3.1-15-3.1s0.5,2.3,0.3,5.5L114.6,74z
		 M16.7,56.3c0-2.9-0.7,0.8-0.1-2.3c0,0-10.9-1.5-11.8,3c-0.1,0.4-0.3,1.7,1.2,1.6L16.7,56.3z M70.2,122.8c-0.1,1.5,1.2,1.3,1.6,1.2
		c4.5-0.9,3-11.8,3-11.8c-3,0.6,0.6-0.2-2.3-0.1L70.2,122.8z M19.5,106.2c-0.3,4.3,2.3,12.9,3.6,13.4c0.8,0.3-1.6-6-1.5-10.7
		c0.1-5.3,2.9-9,2.9-9l-3-2C21.5,97.9,19.7,102.7,19.5,106.2z"/>
	<g id="shell_3_">
		<g enable-background="new    ">
			<path fill="#89B11A" d="M43.6,86.1L38,80.5c-1.6-1.6-2.3-4.5-1.7-6.4l4.9-16.8c0.6-1.9,2.6-4,4.6-4.6l16.8-5c1.9-0.6,5,0,6.6,1.6
				l5.6,5.6l4.4,4.4c1.6,1.6,2.2,4.6,1.6,6.6L76,82.6c-0.6,1.9-2.7,4.1-4.6,4.6l-16.8,4.9c-1.9,0.6-4.9-0.2-6.5-1.7L43.6,86.1"/>
			<path fill="#89B11A" d="M79,50.7l-5.6-5.6c-1.6-1.6-3.1-4.1-3-6.1L71,28.3c0.2-2.1,0.7-3.5,1.3-3.4c0,0,0.2,0.3,0.7,0.4
				c7.7,1.6,5,9.5,13.4,17.9c7.1,7.1,15.6,5.1,17.3,12.9c0.1,0.5-0.1,0.4-0.1,0.4c0.1,0.6-1.6,1.1-3.6,1.3l-10.5,0.3
				c-2.1,0.2-4.6-1.5-6.2-3L79,50.7L79,50.7z"/>
			<path fill="#89B11A" d="M29,100.7c-2.8-2.8-5.8-3.9-7.6-7.1c-2-3.4-3.3-7.3-3.3-7.3c-0.6-2,0.4-4,2.5-4.3l8.3-1.1
				c2-0.3,4.7,0.9,6.3,2.5l5.6,5.6l4.3,4.3c1.6,1.5,2.8,4.3,2.5,6.3l-1.2,8.5c-0.3,2-2.2,3.1-4.2,2.5c0,0-3.4-0.8-6.8-2.8
				C32.3,105.9,30.4,102.2,29,100.7z"/>
			<path fill="#89B11A" d="M100.5,63.3c2.1-0.2,3.8,0.1,3.8,0.7c0,0,0,0,0,0.5c0,3.4-4.4,5.2-5.1,8.6c-0.6,2.9,2.6,7.4,1.4,10.2
				c-2.3,5.4-8,12.4-8,12.4c-1.2,1.5-3.7,1.7-5.3,0.1l-5.1-5.1c-1.6-1.6-2.2-4.6-1.6-6.5L85.8,68c0.6-1.9,2.8-3.7,4.9-3.8
				L100.5,63.3z"/>
			<path fill="#89B11A" d="M64.3,37.7c-0.2,2.1-1.9,4.2-3.8,4.8l-16.3,5.2c-1.9,0.6-4.9,0-6.5-1.6L32.6,41c-1.6-1.6-1.4-4,0.1-5.3
				c0,0,6.9-5.6,12.3-7.9c2.8-1.2,7.3,2,10.2,1.3c3.3-0.7,5.2-5.2,8.6-5.1c0.5,0,0.5,0,0.5,0c0.5,0,0.9,1.7,0.7,3.8L64.3,37.7z"/>
			<path fill="#89B11A" d="M31.9,71.1c-0.5,2-2.6,3.8-4.7,4.1l-7.7,1.1c-2,0.3-3.8-0.4-3.9-1.5c0,0,0,0,0-1
				c-0.1-3.4,4.1-5.1,4.6-9.2c0.6-4.6-2.3-7.2-1.1-10.1c1.8-4.4,5-9.1,5-9.1c1.1-1.6,3-1.3,4.5,0.2l4.9,4.9c1.6,1.6,2.8,4.1,2.2,6
				L31.9,71.1z"/>
			<path fill="#89B11A" d="M72,92.8c2-0.5,4.5,0.7,6,2.2l4.9,4.9c1.6,1.6,1.9,3.4,0.2,4.5c0,0-4.9,3.4-9.3,5.2
				c-2.9,1.2-5.4-1.8-10-1.2c-4.1,0.5-5.7,4.7-9.1,4.5c-1,0-1-0.1-1-0.1c-1.1-0.1-1.8-1.9-1.5-3.9l1.1-7.7c0.3-2,2-3.9,3.9-4.5
				L72,92.8z"/>
		</g>
		<g opacity="0.15">
			<path fill="#F3E400" d="M43.7,88.3l-5.6-5.6c-1.6-1.6-2.3-4.5-1.7-6.4l4.9-16.8c0.6-1.9,2.6-4,4.6-4.6l16.8-5
				c1.9-0.6,5,0,6.6,1.6l5.6,5.6l4.4,4.4c1.6,1.6,2.1,4.6,1.6,6.6l-4.8,16.7c-0.6,1.9-2.7,4.1-4.6,4.6l-16.8,4.9
				c-1.9,0.6-4.9-0.2-6.5-1.7L43.7,88.3"/>
			<path fill="#F3E400" d="M79.1,52.9l-5.6-5.6c-1.6-1.6-3.1-4.1-3-6.1l0.6-10.6c0.2-2.1,0.7-3.5,1.3-3.4c0,0,0.2,0.3,0.7,0.4
				c7.7,1.6,4.9,9.5,13.4,17.9c7.1,7.1,15.6,5.1,17.3,12.9c0.1,0.5-0.1,0.4-0.1,0.4c0.1,0.6-1.6,1.1-3.6,1.3l-10.5,0.3
				c-2.1,0.2-4.6-1.5-6.2-3L79.1,52.9L79.1,52.9z"/>
			<path fill="#F3E400" d="M29,102.9c-2.8-2.8-5.8-3.9-7.6-7.1c-2-3.4-3.3-7.3-3.3-7.3c-0.6-2,0.4-4,2.5-4.3l8.3-1.1
				c2-0.3,4.7,0.9,6.3,2.5l5.6,5.6l4.3,4.3c1.6,1.6,2.8,4.3,2.5,6.3l-1.2,8.5c-0.3,2-2.2,3.1-4.2,2.5c0,0-3.4-0.8-6.8-2.8
				C32.3,108.1,30.4,104.3,29,102.9z"/>
			<path fill="#F3E400" d="M100.6,65.5c2.1-0.2,3.8,0.2,3.8,0.7c0,0,0,0,0,0.5c0,3.4-4.4,5.2-5.1,8.6c-0.6,2.9,2.6,7.4,1.4,10.2
				c-2.3,5.4-8,12.4-8,12.4c-1.2,1.5-3.7,1.7-5.3,0.1l-5.1-5.1c-1.6-1.6-2.2-4.6-1.6-6.5l5.2-16.2c0.6-1.9,2.8-3.7,4.9-3.9
				L100.6,65.5z"/>
			<path fill="#F3E400" d="M64.4,39.9c-0.2,2.1-1.9,4.2-3.8,4.8L44.3,50c-1.9,0.6-4.9,0-6.5-1.6l-5.1-5.1c-1.6-1.6-1.4-4,0.1-5.3
				c0,0,6.9-5.6,12.3-7.9c2.8-1.2,7.3,2,10.2,1.3c3.4-0.7,5.2-5.2,8.6-5.2c0.5,0,0.5,0,0.5,0c0.6,0,0.9,1.7,0.7,3.8L64.4,39.9z"/>
			<path fill="#F3E400" d="M32,73.3c-0.5,2-2.6,3.8-4.7,4.1l-7.7,1.1c-2,0.3-3.8-0.4-3.9-1.5c0,0,0,0,0-1c-0.1-3.4,4.1-5.1,4.6-9.2
				c0.6-4.6-2.3-7.2-1.1-10.1c1.8-4.4,5-9.1,5-9.1c1.1-1.6,3-1.3,4.5,0.2l4.9,4.9c1.6,1.6,2.8,4.1,2.2,6L32,73.3z"/>
			<path fill="#F3E400" d="M72.1,95c2-0.5,4.5,0.7,6,2.2l4.9,4.9c1.6,1.6,1.9,3.4,0.2,4.5c0,0-4.9,3.4-9.3,5.2
				c-2.9,1.2-5.4-1.8-10-1.2c-4.1,0.5-5.7,4.7-9.1,4.5c-1,0-1-0.1-1-0.1c-1.1-0.1-1.8-1.9-1.5-3.9l1.1-7.7c0.3-2,2-3.9,3.9-4.5
				L72.1,95z"/>
		</g>
		<path fill="#458B2B" d="M26.4,103.3c1.4,1.4,2.8,5.9,5.9,7.8c6.8,4.1,14.4,6.2,22.2,6.6c3.8,0.2,4.4-4.4,9.8-4.9
			c7.7-0.8,9.1,2.3,12.7,0.7c6.1-2.6,11.8-6.4,16.7-11.4c4.8-4.8,8.5-10.4,11-16.3c1.4-3.3-1.6-8.3-0.9-11.8
			c0.8-3.8,5.2-6.2,5.1-10.1c0-0.5,0-0.5,0-0.5c0-0.5,0.1-1.3,0-1.7s-0.1-4.3-0.5-6.2C106.7,45.5,94,44.2,89.7,40
			c-5.7-5.7-6.1-17.6-16.4-19.4c-1.9-0.3-6.3-0.9-6.7-1c-0.4-0.1-1.2,0-1.8-0.1c0,0,0,0-0.5,0c-3.9-0.1-6.3,4.4-10.1,5.1
			c-3.5,0.7-8.5-2.4-11.8-0.9c-5.9,2.5-11.4,6.1-16.3,11c-5,5-8.8,10.7-11.3,16.8c-1.5,3.6,1.6,5.1,0.8,12.7c-0.6,5.4-5,6.1-4.8,9.9
			c0.4,7.9,2.9,15.8,7.1,22.6C19.8,99.9,23.6,100.5,26.4,103.3z M43.6,86.1L38,80.5c-1.6-1.6-2.3-4.5-1.7-6.4l4.9-16.8
			c0.6-1.9,2.6-4,4.6-4.6l16.8-5c1.9-0.6,5,0,6.6,1.6l5.6,5.6l4.4,4.4c1.6,1.6,2.2,4.6,1.6,6.6L76,82.6c-0.6,1.9-2.7,4.1-4.6,4.6
			l-16.8,4.9c-1.9,0.6-4.9-0.2-6.5-1.7L43.6,86.1 M79,50.7l-5.6-5.6c-1.6-1.6-3.1-4.1-3-6.1L71,28.3c0.2-2.1,0.7-3.5,1.3-3.4
			c0,0,0.2,0.3,0.7,0.4c7.7,1.6,5,9.5,13.4,17.9c7.1,7.1,15.6,5.1,17.3,12.9c0.1,0.5-0.1,0.4-0.1,0.4c0.1,0.6-1.6,1.1-3.6,1.3
			l-10.5,0.3c-2.1,0.2-4.6-1.5-6.2-3L79,50.7L79,50.7z M29,100.7c-2.8-2.8-5.8-3.9-7.6-7.1c-2-3.4-3.3-7.3-3.3-7.3
			c-0.6-2,0.4-4,2.5-4.3l8.3-1.1c2-0.3,4.7,0.9,6.3,2.5l5.6,5.6l4.3,4.3c1.6,1.5,2.8,4.3,2.5,6.3l-1.2,8.5c-0.3,2-2.2,3.1-4.2,2.5
			c0,0-3.4-0.8-6.8-2.8C32.3,105.9,30.4,102.2,29,100.7z M100.5,63.3c2.1-0.2,3.8,0.1,3.8,0.7c0,0,0,0,0,0.5c0,3.4-4.4,5.2-5.1,8.6
			c-0.6,2.9,2.6,7.4,1.4,10.2c-2.3,5.4-8,12.4-8,12.4c-1.2,1.5-3.7,1.7-5.3,0.1l-5.1-5.1c-1.6-1.6-2.2-4.6-1.6-6.5L85.8,68
			c0.6-1.9,2.8-3.7,4.9-3.8L100.5,63.3z M64.3,37.7c-0.2,2.1-1.9,4.2-3.8,4.8l-16.3,5.2c-1.9,0.6-4.9,0-6.5-1.6L32.6,41
			c-1.6-1.6-1.4-4,0.1-5.3c0,0,6.9-5.6,12.3-7.9c2.8-1.2,7.3,2,10.2,1.3c3.3-0.7,5.2-5.2,8.6-5.1c0.5,0,0.5,0,0.5,0
			c0.5,0,0.9,1.7,0.7,3.8L64.3,37.7z M31.9,71.1c-0.5,2-2.6,3.8-4.7,4.1l-7.7,1.1c-2,0.3-3.8-0.4-3.9-1.5c0,0,0,0,0-1
			c-0.1-3.4,4.1-5.1,4.6-9.2c0.6-4.6-2.3-7.2-1.1-10.1c1.8-4.4,5-9.1,5-9.1c1.1-1.6,3-1.3,4.5,0.2l4.9,4.9c1.6,1.6,2.8,4.1,2.2,6
			L31.9,71.1z M72,92.8c2-0.5,4.5,0.7,6,2.2l4.9,4.9c1.6,1.6,1.9,3.4,0.2,4.5c0,0-4.9,3.4-9.3,5.2c-2.9,1.2-5.4-1.8-10-1.2
			c-4.1,0.5-5.7,4.7-9.1,4.5c-1,0-1-0.1-1-0.1c-1.1-0.1-1.8-1.9-1.5-3.9l1.1-7.7c0.3-2,2-3.9,3.9-4.5L72,92.8z"/>
	</g>
	<g id="eyes_3_">
		<path id="eye_6_" fill="#FFFFFF" d="M125.2,17c0,0-4.2,1.2-4.4,6.1c-0.3,4.9,4,5.9,4,5.9S127,22.9,125.2,17z"/>
		<path id="eye_5_" fill="#FFFFFF" d="M112.2,3.9c0,0-1.2,4.2-6.1,4.4c-4.9,0.3-5.9-4-5.9-4S106.2,2.2,112.2,3.9z"/>
		<path fill="#31601E" d="M106.9,7.1c1.9-0.1,3.1-2.1,3.8-3.6c-2.6-0.5-5-0.3-7,0C104,5,104.8,7.2,106.9,7.1z"/>
		<path fill="#31601E" d="M122,22.3c0.1-1.9,2.1-3.1,3.6-3.8c0.5,2.6,0.3,5,0,7C124.1,25.2,121.9,24.4,122,22.3z"/>
	</g>
</g>
<path fill="#FFCC00" d="M29,100.7c-2.8-2.8-5.8-3.9-7.6-7.1c-2-3.4-3.3-7.3-3.3-7.3c-0.6-2,0.4-4,2.5-4.3l8.3-1.1
	c2-0.3,4.7,0.9,6.3,2.5l5.6,5.6l4.3,4.3c1.6,1.5,2.8,4.3,2.5,6.3l-1.2,8.5c-0.3,2-2.2,3.1-4.2,2.5c0,0-3.4-0.8-6.8-2.8
	C32.3,105.9,30.4,102.2,29,100.7z"/>
</svg>
