<?xml version="1.0" encoding="utf-8"?>
<!-- Generator: Adobe Illustrator 15.0.0, SVG Export Plug-In . SVG Version: 6.00 Build 0)  -->
<!DOCTYPE svg PUBLIC "-//W3C//DTD SVG 1.1//EN" "http://www.w3.org/Graphics/SVG/1.1/DTD/svg11.dtd">
<svg version="1.1" id="Layer_1" xmlns="http://www.w3.org/2000/svg" xmlns:xlink="http://www.w3.org/1999/xlink" x="0px" y="0px"
	 width="87px" height="60px" viewBox="0 0 87 60" enable-background="new 0 0 87 60" xml:space="preserve">
<path fill="#FFAA00" d="M20.683,21.035c0-3.062,2.481-5.545,5.545-5.545h8.317v0.83c0,1.023,0.827,1.852,1.847,1.852h8.317
	c1.021,0,1.85-0.828,1.85-1.852v-0.83h8.315c2.416,0,4.471,1.541,5.231,3.696h3.089c2.298,0,4.158,1.862,4.158,4.159v0.923H65.04
	v-0.923c0-1.021-0.826-1.849-1.846-1.849h-0.926c-1.019,0-1.846,0.827-1.846,1.849v9.703c0,1.021,0.827,1.849,1.846,1.849h0.926
	c1.02,0,1.846-0.828,1.846-1.849v-0.925h2.312v0.925c0,2.298-1.86,4.159-4.158,4.159h-3.089c-0.763,2.151-2.813,3.695-5.227,3.695
	h-8.781v0.832c0,1.022-0.828,1.849-1.849,1.849h-7.393c-1.021,0-1.849-0.826-1.849-1.849v-0.832h-8.78
	c-3.062,0-5.543-2.481-5.543-5.543L20.683,21.035z"/>
</svg>
