<?xml version="1.0" encoding="UTF-8" standalone="no"?>
<!-- Generator: Adobe Illustrator 23.1.1, SVG Export Plug-In . SVG Version: 6.00 Build 0)  -->

<svg
   version="1.1"
   id="Layer_1"
   x="0px"
   y="0px"
   width="49.8px"
   height="21.4px"
   viewBox="0 0 49.8 21.4"
   enable-background="new 0 0 49.8 21.4"
   xml:space="preserve"
   sodipodi:docname="arg.svg"
   inkscape:version="1.2.2 (b0a8486541, 2022-12-01)"
   xmlns:inkscape="http://www.inkscape.org/namespaces/inkscape"
   xmlns:sodipodi="http://sodipodi.sourceforge.net/DTD/sodipodi-0.dtd"
   xmlns="http://www.w3.org/2000/svg"
   xmlns:svg="http://www.w3.org/2000/svg"><defs
   id="defs538" /><sodipodi:namedview
   id="namedview536"
   pagecolor="#ffffff"
   bordercolor="#000000"
   borderopacity="0.25"
   inkscape:showpageshadow="2"
   inkscape:pageopacity="0.0"
   inkscape:pagecheckerboard="0"
   inkscape:deskcolor="#d1d1d1"
   showgrid="false"
   inkscape:zoom="35.261045"
   inkscape:cx="24.9"
   inkscape:cy="10.705865"
   inkscape:window-width="1920"
   inkscape:window-height="1019"
   inkscape:window-x="0"
   inkscape:window-y="37"
   inkscape:window-maximized="1"
   inkscape:current-layer="g531" />
<g
   transform="matrix(1 0 0 1 0 0)"
   id="g533">
	<g
   transform="matrix( 1 0 0 1 0 0)"
   id="g531">
		<path
   fill="none"
   stroke="#BFAF00"
   stroke-width="1.89"
   stroke-miterlimit="10"
   d="M0.9,3.5C0.9,2.1,2,1,3.4,1h42.8    c1.4,0,2.5,1.1,2.5,2.5V18c0,1.4-1.1,2.5-2.5,2.5H3.5C2.1,20.5,1,19.4,1,18V3.5H0.9z"
   id="path520" />
		
			<linearGradient
   id="SVGID_1_"
   gradientUnits="userSpaceOnUse"
   x1="19.3654"
   y1="588.0636"
   x2="39.1654"
   y2="631.2636"
   gradientTransform="matrix(1 0 0 1 0 -589.28)">
			<stop
   offset="0"
   style="stop-color:#FFFF72"
   id="stop522" />
			<stop
   offset="1"
   style="stop-color:#FFF600"
   id="stop524" />
		</linearGradient>
		<path
   fill="url(#SVGID_1_)"
   d="M0.9,3.5C0.9,2.1,2,1,3.4,1h42.8c1.4,0,2.5,1.1,2.5,2.5V18c0,1.4-1.1,2.5-2.5,2.5H3.5    C2.1,20.5,1,19.4,1,18V3.5H0.9z"
   id="path527" />
		<text
   x="25.200001"
   y="14.8"
   alignment-baseline="middle"
   text-anchor="middle"
   fill="#8c7a15"
   font-family="Verdana"
   font-size="11.7px"
   id="text529">i</text>
	</g>
</g>
</svg>
