<?xml version="1.0" encoding="utf-8"?>
<!-- Generator: Adobe Illustrator 23.1.1, SVG Export Plug-In . SVG Version: 6.00 Build 0)  -->
<svg version="1.1" id="Layer_1" xmlns="http://www.w3.org/2000/svg" xmlns:xlink="http://www.w3.org/1999/xlink" x="0px" y="0px"
	 width="35.9px" height="30.2px" viewBox="0 0 35.9 30.2" enable-background="new 0 0 35.9 30.2" xml:space="preserve">
<g transform="matrix(1 0 0 1 0 0)">
	<g transform="matrix( 1 0 0 1 0 0)">
		<path fill="none" stroke="#CC66B9" stroke-width="1.89" stroke-miterlimit="10" d="M0.9,3.5C0.9,2.1,2,1,3.4,1h20.2
			c1.4,0,2.5,1.1,2.5,2.5V6h6.3C33.8,6,35,7.1,35,8.5v13.2c0,1.4-1.1,2.5-2.5,2.5h-6.3v2.5c0,1.4-1.1,2.5-2.5,2.5H3.5
			c-1.4,0-2.5-1.1-2.5-2.5v-1.3h6.3c1.4,0,2.5-1.1,2.5-2.5V7.2c0-1.4-1.1-2.5-2.5-2.5H0.9V3.5z"/>
		
			<linearGradient id="SVGID_1_" gradientUnits="userSpaceOnUse" x1="-3.733" y1="589.2149" x2="77.267" y2="618.015" gradientTransform="matrix(1 0 0 1 0 -580.26)">
			<stop  offset="0" style="stop-color:#FCC4F9"/>
			<stop  offset="1" style="stop-color:#F991F3"/>
		</linearGradient>
		<path fill="url(#SVGID_1_)" d="M0.9,3.5C0.9,2.1,2,1,3.4,1h20.2c1.4,0,2.5,1.1,2.5,2.5V6h6.3C33.8,6,35,7.1,35,8.5v13.2
			c0,1.4-1.1,2.5-2.5,2.5h-6.3v2.5c0,1.4-1.1,2.5-2.5,2.5H3.5c-1.4,0-2.5-1.1-2.5-2.5v-1.3h6.3c1.4,0,2.5-1.1,2.5-2.5V7.2
			c0-1.4-1.1-2.5-2.5-2.5H0.9V3.5z"/>
		<text transform="matrix(1 0 0 1 14.8577 20.2948)" fill="#8C2A6E" font-family="'Verdana'" font-size="18px">)</text>
	</g>
</g>
</svg>
