<?xml version="1.0" encoding="UTF-8" standalone="no"?>
<!-- Generator: Adobe Illustrator 23.1.1, SVG Export Plug-In . SVG Version: 6.00 Build 0)  -->

<svg
   version="1.1"
   id="Layer_1"
   x="0px"
   y="0px"
   width="65.5px"
   height="76.1px"
   viewBox="0 0 65.5 76.1"
   enable-background="new 0 0 65.5 76.1"
   xml:space="preserve"
   sodipodi:docname="fillscreen.svg"
   inkscape:version="1.2.2 (b0a8486541, 2022-12-01)"
   xmlns:inkscape="http://www.inkscape.org/namespaces/inkscape"
   xmlns:sodipodi="http://sodipodi.sourceforge.net/DTD/sodipodi-0.dtd"
   xmlns="http://www.w3.org/2000/svg"
   xmlns:svg="http://www.w3.org/2000/svg"><defs
   id="defs601" /><sodipodi:namedview
   id="namedview599"
   pagecolor="#ffffff"
   bordercolor="#000000"
   borderopacity="0.25"
   inkscape:showpageshadow="2"
   inkscape:pageopacity="0.0"
   inkscape:pagecheckerboard="0"
   inkscape:deskcolor="#d1d1d1"
   showgrid="false"
   inkscape:zoom="10.762155"
   inkscape:cx="32.707204"
   inkscape:cy="38.235837"
   inkscape:window-width="1920"
   inkscape:window-height="1019"
   inkscape:window-x="0"
   inkscape:window-y="37"
   inkscape:window-maximized="1"
   inkscape:current-layer="g594"
   showguides="true"><sodipodi:guide
     position="53.613798,31.31343"
     orientation="1,0"
     id="guide279"
     inkscape:locked="false" /><sodipodi:guide
     position="19.234066,39.954822"
     orientation="0,-1"
     id="guide281"
     inkscape:locked="false" /></sodipodi:namedview>
<g
   transform="matrix(1 0 0 1 0 0)"
   id="g596">
	<g
   transform="matrix( 1 0 0 1 0 0)"
   id="g594">
		<path
   fill="none"
   stroke="#04A2B2"
   stroke-width="1.89"
   stroke-miterlimit="10"
   d="M0.9,8.5c0-4.2,3.4-7.6,7.6-7.6h11.3V2    c0,1.4,1.1,2.5,2.5,2.5h11.3c1.4,0,2.5-1.1,2.5-2.5V0.9h11.3c3.3,0,6.1,2.1,7.1,5h4.2c3.1,0,5.7,2.5,5.7,5.7v1.3h-3.1v-1.3    c0-1.4-1.1-2.5-2.5-2.5h-1.3c-1.4,0-2.5,1.1-2.5,2.5v13.2c0,1.4,1.1,2.5,2.5,2.5h1.3c1.4,0,2.5-1.1,2.5-2.5v-1.3h3.1v1.3    c0,3.1-2.5,5.7-5.7,5.7h-3.8v11.3h3.8c3.1,0,5.7,2.5,5.7,5.7v1.3h-3.1v-1.3c0-1.4-1.1-2.5-2.5-2.5h-1.3c-1.4,0-2.5,1.1-2.5,2.5    v13.2c0,1.4,1.1,2.5,2.5,2.5h1.3c1.4,0,2.5-1.1,2.5-2.5v-1.3h3.1v1.3c0,3.1-2.5,5.7-5.7,5.7h-4.2c-1,2.9-3.8,5-7.1,5h-12v1.1    c0,1.4-1.1,2.5-2.5,2.5H23c-1.4,0-2.5-1.1-2.5-2.5v-1.1h-12c-4.2,0-7.6-3.4-7.6-7.6L0.9,8.5z"
   id="path571" />
		
			<linearGradient
   id="SVGID_1_"
   gradientUnits="userSpaceOnUse"
   x1="15.5256"
   y1="533.8995"
   x2="35.3256"
   y2="577.0995"
   gradientTransform="matrix(1 0 0 1 0 -533.356)">
			<stop
   offset="0"
   style="stop-color:#8EFFFF"
   id="stop573" />
			<stop
   offset="1"
   style="stop-color:#00F0FF"
   id="stop575" />
		</linearGradient>
		<path
   fill="url(#SVGID_1_)"
   d="M0.9,8.5c0-4.2,3.4-7.6,7.6-7.6h11.3V2c0,1.4,1.1,2.5,2.5,2.5h11.3c1.4,0,2.5-1.1,2.5-2.5V0.9h11.3    c3.3,0,6.1,2.1,7.1,5h4.2c3.1,0,5.7,2.5,5.7,5.7v1.3h-3.1v-1.3c0-1.4-1.1-2.5-2.5-2.5h-1.3c-1.4,0-2.5,1.1-2.5,2.5v13.2    c0,1.4,1.1,2.5,2.5,2.5h1.3c1.4,0,2.5-1.1,2.5-2.5v-1.3h3.1v1.3c0,3.1-2.5,5.7-5.7,5.7h-3.8v11.3h3.8c3.1,0,5.7,2.5,5.7,5.7v1.3    h-3.1v-1.3c0-1.4-1.1-2.5-2.5-2.5h-1.3c-1.4,0-2.5,1.1-2.5,2.5v13.2c0,1.4,1.1,2.5,2.5,2.5h1.3c1.4,0,2.5-1.1,2.5-2.5v-1.3h3.1    v1.3c0,3.1-2.5,5.7-5.7,5.7h-4.2c-1,2.9-3.8,5-7.1,5h-12v1.1c0,1.4-1.1,2.5-2.5,2.5H23c-1.4,0-2.5-1.1-2.5-2.5v-1.1h-12    c-4.2,0-7.6-3.4-7.6-7.6L0.9,8.5z"
   id="path578" />
		<text
   transform="matrix(1 0 0 1 21.0724 34.5412)"
   font-family="'ArialMT'"
   font-size="10.8px"
   id="text580"> </text>
		<text
   fill="#007e8c"
   font-family="Verdana"
   font-size="9.74688px"
   id="text582"
   x="1.2746284"
   y="31.383524"
   transform="scale(0.91146291,1.0971374)"
   style="stroke-width:0.833067">заповнення</text>
		<text
   transform="matrix(1 0 0 1 34.818 34.5412)"
   font-family="'ArialMT'"
   font-size="10.8px"
   id="text584"> </text>
		<text
   fill="#007e8c"
   font-family="Verdana"
   font-size="11.7px"
   id="text586"
   x="6.2210422"
   y="42.74778">екрану</text>
		<text
   transform="matrix(1 0 0 1 47.2087 46.2409)"
   font-family="'ArialMT'"
   font-size="10.8px"
   id="text588"> </text>
		<text
   transform="translate(32.0631,20.5388)"
   fill="#007e8c"
   font-family="Verdana"
   font-size="8.1px"
   id="text590">колір</text>
		<text
   fill="#007e8c"
   font-family="Verdana"
   font-size="8.1px"
   id="text592"
   x="20.529537"
   y="56.326923">відтінок</text>
	</g>
</g>
</svg>
