<?xml version="1.0" encoding="UTF-8" standalone="no"?>
<!-- Generator: Adobe Illustrator 23.1.1, SVG Export Plug-In . SVG Version: 6.00 Build 0)  -->

<svg
   version="1.1"
   id="Layer_1"
   x="0px"
   y="0px"
   width="115.9px"
   height="38.4px"
   viewBox="0 0 115.9 38.4"
   enable-background="new 0 0 115.9 38.4"
   xml:space="preserve"
   sodipodi:docname="forever.svg"
   inkscape:version="1.2.2 (b0a8486541, 2022-12-01)"
   xmlns:inkscape="http://www.inkscape.org/namespaces/inkscape"
   xmlns:sodipodi="http://sodipodi.sourceforge.net/DTD/sodipodi-0.dtd"
   xmlns="http://www.w3.org/2000/svg"
   xmlns:svg="http://www.w3.org/2000/svg"><defs
   id="defs638" /><sodipodi:namedview
   id="namedview636"
   pagecolor="#ffffff"
   bordercolor="#000000"
   borderopacity="0.25"
   inkscape:showpageshadow="2"
   inkscape:pageopacity="0.0"
   inkscape:pagecheckerboard="0"
   inkscape:deskcolor="#d1d1d1"
   showgrid="false"
   inkscape:zoom="15.150992"
   inkscape:cx="57.950001"
   inkscape:cy="19.239664"
   inkscape:window-width="1920"
   inkscape:window-height="1019"
   inkscape:window-x="0"
   inkscape:window-y="37"
   inkscape:window-maximized="1"
   inkscape:current-layer="g631" />
<g
   transform="matrix(1 0 0 1 0 0)"
   id="g633">
	<g
   transform="matrix( 1 0 0 1 0 0)"
   id="g631">
		<path
   fill="none"
   stroke="#CC7E02"
   stroke-width="1.89"
   stroke-miterlimit="10"
   d="M0.9,8.5c0-4.2,3.4-7.6,7.6-7.6h11.3V2    c0,1.4,1.1,2.5,2.5,2.5h11.3c1.4,0,2.5-1.1,2.5-2.5V0.9h11.3c3.3,0,6.1,2.1,7.1,5h57.8c1.4,0,2.5,1.1,2.5,2.5v6.3h-4.2    c-1-3-3.8-5-7.1-5h-12v1.1c0,1.4-1.1,2.5-2.5,2.5h-9.9c-1.4,0-2.5-1.1-2.5-2.5v-1H63.9c-4.2,0-7.6,3.4-7.6,7.6V30    c0,4.2-3.4,7.6-7.6,7.6H8.5c-4.2,0-7.6-3.4-7.6-7.6L0.9,8.5z"
   id="path620" />
		
			<linearGradient
   id="SVGID_1_"
   gradientUnits="userSpaceOnUse"
   x1="43.2271"
   y1="559.017"
   x2="63.0271"
   y2="602.217"
   gradientTransform="matrix(1 0 0 1 0 -571.17)">
			<stop
   offset="0"
   style="stop-color:#FFDF60"
   id="stop622" />
			<stop
   offset="1"
   style="stop-color:#FFBB00"
   id="stop624" />
		</linearGradient>
		<path
   fill="url(#SVGID_1_)"
   d="M0.9,8.5c0-4.2,3.4-7.6,7.6-7.6h11.3V2c0,1.4,1.1,2.5,2.5,2.5h11.3c1.4,0,2.5-1.1,2.5-2.5V0.9h11.3    c3.3,0,6.1,2.1,7.1,5h57.8c1.4,0,2.5,1.1,2.5,2.5v6.3h-4.2c-1-3-3.8-5-7.1-5h-12v1.1c0,1.4-1.1,2.5-2.5,2.5h-9.9    c-1.4,0-2.5-1.1-2.5-2.5v-1H63.9c-4.2,0-7.6,3.4-7.6,7.6V30c0,4.2-3.4,7.6-7.6,7.6H8.5c-4.2,0-7.6-3.4-7.6-7.6L0.9,8.5z"
   id="path627" />
		<text
   transform="translate(6.9643,22.0947)"
   fill="#8b6010"
   font-family="Verdana"
   font-size="11.7px"
   id="text629">завжди</text>
	</g>
</g>
</svg>
