<?xml version="1.0" encoding="UTF-8" standalone="no"?>
<!-- Generator: Adobe Illustrator 23.1.1, SVG Export Plug-In . SVG Version: 6.00 Build 0)  -->

<svg
   version="1.1"
   id="Layer_1"
   x="0px"
   y="0px"
   width="64.9px"
   height="21.4px"
   viewBox="0 0 64.9 21.4"
   enable-background="new 0 0 64.9 21.4"
   xml:space="preserve"
   sodipodi:docname="heading.svg"
   inkscape:version="1.2.2 (b0a8486541, 2022-12-01)"
   xmlns:inkscape="http://www.inkscape.org/namespaces/inkscape"
   xmlns:sodipodi="http://sodipodi.sourceforge.net/DTD/sodipodi-0.dtd"
   xmlns="http://www.w3.org/2000/svg"
   xmlns:svg="http://www.w3.org/2000/svg"><defs
   id="defs1118" /><sodipodi:namedview
   id="namedview1116"
   pagecolor="#ffffff"
   bordercolor="#000000"
   borderopacity="0.25"
   inkscape:showpageshadow="2"
   inkscape:pageopacity="0.0"
   inkscape:pagecheckerboard="0"
   inkscape:deskcolor="#d1d1d1"
   showgrid="false"
   inkscape:zoom="27.05701"
   inkscape:cx="32.450001"
   inkscape:cy="10.736589"
   inkscape:window-width="1920"
   inkscape:window-height="1019"
   inkscape:window-x="0"
   inkscape:window-y="37"
   inkscape:window-maximized="1"
   inkscape:current-layer="g1111" />
<g
   transform="matrix(1 0 0 1 0 0)"
   id="g1113">
	<g
   transform="matrix( 1 0 0 1 0 0)"
   id="g1111">
		<path
   fill="none"
   stroke="#00A500"
   stroke-width="1.89"
   stroke-miterlimit="10"
   d="M0.9,4.7c0-1.3,1-2.2,2.2-2.2h0.6    c1.3,0,2.2,1,2.2,2.2v1.6h5V3.5c0-1.3,1.2-2.5,2.5-2.5h47.9c1.4,0,2.5,1.2,2.5,2.5V18c0,1.3-1.2,2.5-2.5,2.5H13.5    c-1.4,0-2.5-1.2-2.5-2.5v-2.8H6v1.5c0,1.3-1,2.2-2.2,2.2H3.2c-1.3,0-2.2-1-2.2-2.2v-12H0.9z"
   id="path1100" />
		
			<linearGradient
   id="SVGID_1_"
   gradientUnits="userSpaceOnUse"
   x1="25.8535"
   y1="-557.8099"
   x2="45.6535"
   y2="-601.0099"
   gradientTransform="matrix(1 0 0 -1 0 -562)">
			<stop
   offset="0"
   style="stop-color:#A1FF72"
   id="stop1102" />
			<stop
   offset="1"
   style="stop-color:#00F200"
   id="stop1104" />
		</linearGradient>
		<path
   fill="url(#SVGID_1_)"
   d="M0.9,4.7c0-1.3,1-2.2,2.2-2.2h0.6c1.3,0,2.2,1,2.2,2.2v1.6h5V3.5c0-1.3,1.2-2.5,2.5-2.5h47.9    c1.4,0,2.5,1.2,2.5,2.5V18c0,1.3-1.2,2.5-2.5,2.5H13.5c-1.4,0-2.5-1.2-2.5-2.5v-2.8H6v1.5c0,1.3-1,2.2-2.2,2.2H3.2    c-1.3,0-2.2-1-2.2-2.2v-12H0.9z"
   id="path1107" />
		<text
   transform="translate(14.5475,14.1227)"
   fill="#128c12"
   font-family="Verdana"
   font-size="11.7px"
   id="text1109">напрям</text>
	</g>
</g>
</svg>
