<?xml version="1.0" encoding="utf-8"?>
<!-- Generator: Adobe Illustrator 23.1.1, SVG Export Plug-In . SVG Version: 6.00 Build 0)  -->
<svg version="1.1" id="Layer_1" xmlns="http://www.w3.org/2000/svg" xmlns:xlink="http://www.w3.org/1999/xlink" x="0px" y="0px"
	 width="124.7px" height="42.2px" viewBox="0 0 124.7 42.2" enable-background="new 0 0 124.7 42.2" xml:space="preserve">
<g transform="matrix(1 0 0 1 0 0)">
	<g transform="matrix( 1 0 0 1 0 0)">
		<path fill="none" stroke="#CC7E02" stroke-width="1.89" stroke-miterlimit="10" d="M62.1,0.9c-1.4,0-2.5,1.1-2.5,2.5V11h-4.2
			c-1-3-3.8-5-7.1-5h-12v1.1c0,1.4-1.1,2.5-2.5,2.5H23.6c-1.4,0-2.5-1.1-2.5-2.5V6H8.5c-4.2,0-7.6,3.4-7.6,7.6v20.2
			c0,4.2,3.4,7.6,7.6,7.6h49.1c4.2,0,7.6-3.4,7.6-7.6V12.9c0-4.2,3.4-7.6,7.6-7.6h12.6v1.1c0,1.4,1.1,2.5,2.5,2.5H98
			c1.4,0,2.5-1.1,2.5-2.5v-1h12c3.1,0,5.7,1.8,6.9,4.4h4.5V3.5c0-1.4-1.1-2.5-2.5-2.5H62.1V0.9z"/>
		
			<linearGradient id="SVGID_1_" gradientUnits="userSpaceOnUse" x1="47.0861" y1="553.3795" x2="66.8861" y2="596.5795" gradientTransform="matrix(1 0 0 1 0 -567.59)">
			<stop  offset="0" style="stop-color:#FFDF60"/>
			<stop  offset="1" style="stop-color:#FFBB00"/>
		</linearGradient>
		<path fill="url(#SVGID_1_)" d="M62.1,0.9c-1.4,0-2.5,1.1-2.5,2.5V11h-4.2c-1-3-3.8-5-7.1-5h-12v1.1c0,1.4-1.1,2.5-2.5,2.5H23.6
			c-1.4,0-2.5-1.1-2.5-2.5V6H8.5c-4.2,0-7.6,3.4-7.6,7.6v20.2c0,4.2,3.4,7.6,7.6,7.6h49.1c4.2,0,7.6-3.4,7.6-7.6V12.9
			c0-4.2,3.4-7.6,7.6-7.6h12.6v1.1c0,1.4,1.1,2.5,2.5,2.5H98c1.4,0,2.5-1.1,2.5-2.5v-1h12c3.1,0,5.7,1.8,6.9,4.4h4.5V3.5
			c0-1.4-1.1-2.5-2.5-2.5H62.1V0.9z"/>
		<g>
			<path fill="#CC7E02" d="M51.7,24.9c0,0.3-0.1,0.5-0.4,0.7l-6.9,5.3c-0.3,0.2-0.6,0.2-0.9,0.1c-0.3-0.2-0.5-0.5-0.5-0.8V19.5
				c0-0.3,0.2-0.7,0.5-0.8c0.3-0.2,0.7-0.1,0.9,0.1l6.9,5.3C51.6,24.3,51.7,24.6,51.7,24.9z"/>
			<path fill="#CC7E02" d="M38.2,25.2c0,1.4-1.2,2.6-2.6,2.6c-1.4,0-2.6-1.2-2.6-2.6s1.2-2.6,2.6-2.6C37,22.5,38.2,23.7,38.2,25.2z"
				/>
			<path fill="#CC7E02" d="M28.3,25.2c0,1.4-1.2,2.6-2.6,2.6s-2.6-1.2-2.6-2.6s1.2-2.6,2.6-2.6C27.1,22.5,28.3,23.7,28.3,25.2z"/>
			<path fill="#CC7E02" d="M18.4,25.2c0,1.4-1.2,2.6-2.6,2.6s-2.6-1.2-2.6-2.6s1.2-2.6,2.6-2.6C17.2,22.5,18.4,23.7,18.4,25.2z"/>
		</g>
	</g>
</g>
</svg>
