<?xml version="1.0" encoding="UTF-8" standalone="no"?>
<!-- Generator: Adobe Illustrator 23.1.1, SVG Export Plug-In . SVG Version: 6.00 Build 0)  -->

<svg
   version="1.1"
   id="Layer_1"
   x="0px"
   y="0px"
   width="65.5px"
   height="40.2px"
   viewBox="0 0 65.5 40.2"
   enable-background="new 0 0 65.5 40.2"
   xml:space="preserve"
   sodipodi:docname="left.svg"
   inkscape:version="1.2.2 (b0a8486541, 2022-12-01)"
   xmlns:inkscape="http://www.inkscape.org/namespaces/inkscape"
   xmlns:sodipodi="http://sodipodi.sourceforge.net/DTD/sodipodi-0.dtd"
   xmlns="http://www.w3.org/2000/svg"
   xmlns:svg="http://www.w3.org/2000/svg"><defs
   id="defs669" /><sodipodi:namedview
   id="namedview667"
   pagecolor="#ffffff"
   bordercolor="#000000"
   borderopacity="0.25"
   inkscape:showpageshadow="2"
   inkscape:pageopacity="0.0"
   inkscape:pagecheckerboard="0"
   inkscape:deskcolor="#d1d1d1"
   showgrid="false"
   inkscape:zoom="20.373134"
   inkscape:cx="32.739195"
   inkscape:cy="20.149085"
   inkscape:window-width="1920"
   inkscape:window-height="1019"
   inkscape:window-x="0"
   inkscape:window-y="37"
   inkscape:window-maximized="1"
   inkscape:current-layer="g662"
   showguides="true"><sodipodi:guide
     position="30.481319,21.891575"
     orientation="0,-1"
     id="guide367"
     inkscape:locked="false" /></sodipodi:namedview>
<g
   transform="matrix(1 0 0 1 0 0)"
   id="g664">
	<g
   transform="matrix( 1 0 0 1 0 0)"
   id="g662">
		<path
   fill="none"
   stroke="#00A500"
   stroke-width="1.89"
   stroke-miterlimit="10"
   d="M0.9,8.5c0-4.1,3.4-7.6,7.6-7.6h11.3v1.2    c0,1.4,1.2,2.5,2.5,2.5h11.3c1.3,0,2.5-1.2,2.5-2.5V0.9h11.3c3.3,0,6.1,2.1,7.1,5h4.2c3.1,0,5.7,2.5,5.7,5.7v1.3h-3.2v-1.3    c0-1.4-1.2-2.5-2.5-2.5h-1.3c-1.4,0-2.5,1.2-2.5,2.5v13.2c0,1.4,1.2,2.5,2.5,2.5h1.3c1.3,0,2.5-1.2,2.5-2.5v-1.3h3.2v1.3    c0,3.1-2.5,5.7-5.7,5.7h-4.2c-1,3-3.8,5-7.1,5h-12v1.2c0,1.3-1.2,2.5-2.5,2.5H23c-1.4,0-2.5-1.2-2.5-2.5v-1.2h-12    c-4.1,0-7.6-3.4-7.6-7.6C0.9,27.9,0.9,8.5,0.9,8.5z"
   id="path651" />
		
			<linearGradient
   id="SVGID_1_"
   gradientUnits="userSpaceOnUse"
   x1="22.3308"
   y1="-519.4244"
   x2="42.1308"
   y2="-562.6244"
   gradientTransform="matrix(1 0 0 -1 0 -522)">
			<stop
   offset="0"
   style="stop-color:#A1FF72"
   id="stop653" />
			<stop
   offset="1"
   style="stop-color:#00F200"
   id="stop655" />
		</linearGradient>
		<path
   fill="url(#SVGID_1_)"
   d="M0.9,8.5c0-4.1,3.4-7.6,7.6-7.6h11.3v1.2c0,1.4,1.2,2.5,2.5,2.5h11.3c1.3,0,2.5-1.2,2.5-2.5V0.9    h11.3c3.3,0,6.1,2.1,7.1,5h4.2c3.1,0,5.7,2.5,5.7,5.7v1.3h-3.2v-1.3c0-1.4-1.2-2.5-2.5-2.5h-1.3c-1.4,0-2.5,1.2-2.5,2.5v13.2    c0,1.4,1.2,2.5,2.5,2.5h1.3c1.3,0,2.5-1.2,2.5-2.5v-1.3h3.2v1.3c0,3.1-2.5,5.7-5.7,5.7h-4.2c-1,3-3.8,5-7.1,5h-12v1.2    c0,1.3-1.2,2.5-2.5,2.5H23c-1.4,0-2.5-1.2-2.5-2.5v-1.2h-12c-4.1,0-7.6-3.4-7.6-7.6C0.9,27.9,0.9,8.5,0.9,8.5z"
   id="path658" />
		<text
   fill="#128c12"
   font-family="Verdana"
   font-size="11.6206px"
   id="text660"
   x="6.3835554"
   y="21.49272"
   transform="scale(0.99321779,1.0068285)"
   style="stroke-width:0.993218">ліворуч</text>
	</g>
</g>
</svg>
