<?xml version="1.0" encoding="UTF-8" standalone="no"?>
<!-- Generator: Adobe Illustrator 23.1.1, SVG Export Plug-In . SVG Version: 6.00 Build 0)  -->

<svg
   version="1.1"
   id="Layer_1"
   x="0px"
   y="0px"
   width="64.9px"
   height="21.4px"
   viewBox="0 0 64.9 21.4"
   enable-background="new 0 0 64.9 21.4"
   xml:space="preserve"
   sodipodi:docname="number.svg"
   inkscape:version="1.2.2 (b0a8486541, 2022-12-01)"
   xmlns:inkscape="http://www.inkscape.org/namespaces/inkscape"
   xmlns:sodipodi="http://sodipodi.sourceforge.net/DTD/sodipodi-0.dtd"
   xmlns="http://www.w3.org/2000/svg"
   xmlns:svg="http://www.w3.org/2000/svg"><defs
   id="defs507" /><sodipodi:namedview
   id="namedview505"
   pagecolor="#ffffff"
   bordercolor="#000000"
   borderopacity="0.25"
   inkscape:showpageshadow="2"
   inkscape:pageopacity="0.0"
   inkscape:pagecheckerboard="0"
   inkscape:deskcolor="#d1d1d1"
   showgrid="false"
   inkscape:zoom="27.05701"
   inkscape:cx="32.450001"
   inkscape:cy="10.736589"
   inkscape:window-width="1920"
   inkscape:window-height="1019"
   inkscape:window-x="0"
   inkscape:window-y="37"
   inkscape:window-maximized="1"
   inkscape:current-layer="g500" />
<g
   transform="matrix(1 0 0 1 0 0)"
   id="g502">
	<g
   transform="matrix( 1 0 0 1 0 0)"
   id="g500">
		<path
   fill="none"
   stroke="#CC66B9"
   stroke-width="1.89"
   stroke-miterlimit="10"
   d="M0.9,4.7c0-1.2,1-2.2,2.2-2.2h0.6    C5,2.5,6,3.5,6,4.7v1.6h5V3.5C11,2.1,12.1,1,13.5,1h47.9c1.4,0,2.5,1.1,2.5,2.5V18c0,1.4-1.1,2.5-2.5,2.5H13.5    c-1.4,0-2.5-1.1-2.5-2.5v-2.8H6v1.6C6,18,5,19,3.8,19H3.2C2,19,1,18,1,16.8V4.7H0.9z"
   id="path489" />
		
			<linearGradient
   id="SVGID_1_"
   gradientUnits="userSpaceOnUse"
   x1="-1.455573e-02"
   y1="587.7769"
   x2="80.9854"
   y2="616.5769"
   gradientTransform="matrix(1 0 0 1 0 -589.28)">
			<stop
   offset="0"
   style="stop-color:#FCC4F9"
   id="stop491" />
			<stop
   offset="1"
   style="stop-color:#F991F3"
   id="stop493" />
		</linearGradient>
		<path
   fill="url(#SVGID_1_)"
   d="M0.9,4.7c0-1.2,1-2.2,2.2-2.2h0.6C5,2.5,6,3.5,6,4.7v1.6h5V3.5C11,2.1,12.1,1,13.5,1h47.9    c1.4,0,2.5,1.1,2.5,2.5V18c0,1.4-1.1,2.5-2.5,2.5H13.5c-1.4,0-2.5-1.1-2.5-2.5v-2.8H6v1.6C6,18,5,19,3.8,19H3.2C2,19,1,18,1,16.8    V4.7H0.9z"
   id="path496" />
		<text
   x="36.900002"
   y="14.8"
   alignment-baseline="middle"
   text-anchor="middle"
   fill="#8c2a6e"
   font-family="Verdana"
   font-size="11.7px"
   id="text498">0</text>
	</g>
</g>
</svg>
