<?xml version="1.0" encoding="utf-8"?>
<!-- Generator: Adobe Illustrator 23.1.1, SVG Export Plug-In . SVG Version: 6.00 Build 0)  -->
<svg version="1.1" id="Layer_1" xmlns="http://www.w3.org/2000/svg" xmlns:xlink="http://www.w3.org/1999/xlink" x="0px" y="0px"
	 width="72.9px" height="29.4px" viewBox="0 0 72.9 29.4" enable-background="new 0 0 72.9 29.4" xml:space="preserve">
<g>
	<path opacity="0.55" fill="#D855BF" enable-background="new    " d="M65.4,4.9c1.4,0,2.5,1.1,2.5,2.5V22c0,1.4-1.1,2.5-2.5,2.5
		H17.5c-1.4,0-2.5-1.1-2.5-2.5v-2.8h-5v1.6C10,22,9,23,7.8,23H7.2C6,23,5,22,5,20.8v-12c0-1.2,1-2.2,2.2-2.2h0.6
		c1.2,0,2.2,1,2.2,2.2v1.6h5V7.5C15,6.1,16.1,5,17.5,5L65.4,4.9 M65.4,3.6H17.5c-2.1,0-3.9,1.7-3.9,3.9V9h-2.3V8.7
		c0-2-1.6-3.6-3.6-3.6H7.2c-2,0-3.6,1.6-3.6,3.6v12c0,2,1.6,3.6,3.6,3.6h0.6c2,0,3.6-1.6,3.6-3.6v-0.2h2.3V22c0,2.1,1.7,3.9,3.9,3.9
		h47.9c2.1,0,3.9-1.7,3.9-3.9V7.5C69.3,5.3,67.6,3.6,65.4,3.6L65.4,3.6z"/>
	<path opacity="0.75" fill="#00C8F8" enable-background="new    " d="M65.4,4.9c1.4,0,2.5,1.1,2.5,2.5V22c0,1.4-1.1,2.5-2.5,2.5
		H17.5c-1.4,0-2.5-1.1-2.5-2.5v-2.8h-5v1.6C10,22,9,23,7.8,23H7.2C6,23,5,22,5,20.8v-12c0-1.2,1-2.2,2.2-2.2h0.6
		c1.2,0,2.2,1,2.2,2.2v1.6h5V7.5C15,6.1,16.1,5,17.5,5L65.4,4.9 M65.4,0H17.5c-2.3,0-4.4,1.1-5.8,2.8c-1.1-0.8-2.5-1.2-4-1.2H7.2
		C3.2,1.6,0,4.8,0,8.7v12c0,3.9,3.2,7.2,7.2,7.2h0.6c1.5,0,2.8-0.4,4-1.2c1.4,1.7,3.5,2.8,5.8,2.8h47.9c4.1,0,7.5-3.4,7.5-7.5V7.5
		C72.9,3.4,69.5,0,65.4,0L65.4,0z"/>
</g>
</svg>
