<?xml version="1.0" encoding="utf-8"?>
<!-- Generator: Adobe Illustrator 23.1.1, SVG Export Plug-In . SVG Version: 6.00 Build 0)  -->
<svg version="1.1" id="Layer_1" xmlns="http://www.w3.org/2000/svg" xmlns:xlink="http://www.w3.org/1999/xlink" x="0px" y="0px"
	 width="78px" height="50px" viewBox="0 0 78 50" enable-background="new 0 0 78 50" xml:space="preserve">
<g transform="matrix(1 0 0 1 0 0)">
	<g transform="matrix( 1 0 0 1 0 0)">
		<path fill="none" stroke="#BFAF00" stroke-width="1.89" stroke-miterlimit="10" d="M4.9,37.7c0-18.1,17.8-32.8,35.9-32.8
			s35.9,14.7,35.9,32.8c0,4.2-3.4,7.6-7.6,7.6H48.4v1.1c0,1.4-1.1,2.5-2.5,2.5H35.8c-1.4,0-2.5-1.1-2.5-2.5v-1.1H12.5
			C8.3,45.2,4.9,41.8,4.9,37.7z"/>
		
			<linearGradient id="SVGID_1_" gradientUnits="userSpaceOnUse" x1="23.3877" y1="1291.4601" x2="43.1877" y2="1334.66" gradientTransform="matrix(1 0 0 1 0 -1294.004)">
			<stop  offset="0" style="stop-color:#FFFF72"/>
			<stop  offset="1" style="stop-color:#FFF600"/>
		</linearGradient>
		<path fill="url(#SVGID_1_)" d="M4.9,37.7c0-18.1,17.8-32.8,35.9-32.8s35.9,14.7,35.9,32.8c0,4.2-3.4,7.6-7.6,7.6H48.4v1.1
			c0,1.4-1.1,2.5-2.5,2.5H35.8c-1.4,0-2.5-1.1-2.5-2.5v-1.1H12.5C8.3,45.2,4.9,41.8,4.9,37.7z"/>
		<g>
			<path stroke="#BFAF00" fill="#ffaa00" d="M37.6,36.3c-0.3,0-0.6-0.1-0.9-0.2c-0.6-0.3-0.9-1-0.9-1.6V17.9c0-0.6,0.3-1.2,0.9-1.6
				c0.6-0.3,1.2-0.3,1.8,0l14.4,8.2c0.6,0.3,0.9,1,0.9,1.6s-0.4,1.2-0.9,1.6L38.5,36C38.2,36.2,37.9,36.3,37.6,36.3z"/>
		</g>
	</g>
</g>
</svg>
