<?xml version="1.0" encoding="utf-8"?>
<!-- Generator: Adobe Illustrator 23.1.1, SVG Export Plug-In . SVG Version: 6.00 Build 0)  -->
<svg version="1.1" id="Layer_1" xmlns="http://www.w3.org/2000/svg" xmlns:xlink="http://www.w3.org/1999/xlink" x="0px" y="0px"
	 width="56.1px" height="40.2px" viewBox="0 0 56.1 40.2" enable-background="new 0 0 56.1 40.2" xml:space="preserve">
<g transform="matrix(1 0 0 1 0 0)">
	<g transform="matrix( 1 0 0 1 0 0)">
		<path fill="none" stroke="#BFAF00" stroke-width="1.89" stroke-miterlimit="10" d="M0.9,8.5c0-4.2,3.4-7.6,7.6-7.6h11.3V2
			c0,1.4,1.1,2.5,2.5,2.5h11.3c1.4,0,2.5-1.1,2.5-2.5V0.9h11.3c4.2,0,7.6,3.4,7.6,7.6V28c0,4.2-3.4,7.6-7.6,7.6h-12v1.1
			c0,1.4-1.1,2.5-2.5,2.5H23c-1.4,0-2.5-1.1-2.5-2.5v-1.1h-12c-4.2,0-7.6-3.4-7.6-7.6C0.9,28,0.9,8.5,0.9,8.5z"/>
		
			<linearGradient id="SVGID_1_" gradientUnits="userSpaceOnUse" x1="19.0865" y1="568.2774" x2="38.8865" y2="611.4774" gradientTransform="matrix(1 0 0 1 0 -569.366)">
			<stop  offset="0" style="stop-color:#FFFF72"/>
			<stop  offset="1" style="stop-color:#FFF600"/>
		</linearGradient>
		<path fill="url(#SVGID_1_)" d="M0.9,8.5c0-4.2,3.4-7.6,7.6-7.6h11.3V2c0,1.4,1.1,2.5,2.5,2.5h11.3c1.4,0,2.5-1.1,2.5-2.5V0.9h11.3
			c4.2,0,7.6,3.4,7.6,7.6V28c0,4.2-3.4,7.6-7.6,7.6h-12v1.1c0,1.4-1.1,2.5-2.5,2.5H23c-1.4,0-2.5-1.1-2.5-2.5v-1.1h-12
			c-4.2,0-7.6-3.4-7.6-7.6C0.9,28,0.9,8.5,0.9,8.5z"/>
		<text x="28.8px" y="20.7px" alignment-baseline="middle" text-anchor="middle" fill="#8c7a15" font-family="Verdana" font-size="11.7px">i</text>
	</g>
</g>
</svg>
