<?xml version="1.0" encoding="utf-8"?>
<!-- Generator: Adobe Illustrator 23.1.1, SVG Export Plug-In . SVG Version: 6.00 Build 0)  -->
<svg version="1.1" id="Layer_1" xmlns="http://www.w3.org/2000/svg" xmlns:xlink="http://www.w3.org/1999/xlink" x="0px" y="0px"
	 width="65.5px" height="76.1px" viewBox="0 0 65.5 76.1" enable-background="new 0 0 65.5 76.1" xml:space="preserve">
<g transform="matrix(1 0 0 1 0 0)">
	<g transform="matrix( 1 0 0 1 0 0)">
		<path fill="none" stroke="#BFAF00" stroke-width="1.89" stroke-miterlimit="10" d="M0.9,8.5c0-4.2,3.4-7.6,7.6-7.6h11.3V2
			c0,1.4,1.1,2.5,2.5,2.5h11.3c1.4,0,2.5-1.1,2.5-2.5V0.9h11.3c3.3,0,6.1,2.1,7.1,5h4.2c3.1,0,5.7,2.5,5.7,5.7v1.3h-3.1v-1.3
			c0-1.4-1.1-2.5-2.5-2.5h-1.3c-1.4,0-2.5,1.1-2.5,2.5v13.2c0,1.4,1.1,2.5,2.5,2.5h1.3c1.4,0,2.5-1.1,2.5-2.5v-1.3h3.1v1.3
			c0,3.1-2.5,5.7-5.7,5.7h-3.8v11.3h3.8c3.1,0,5.7,2.5,5.7,5.7v1.3h-3.1v-1.3c0-1.4-1.1-2.5-2.5-2.5h-1.3c-1.4,0-2.5,1.1-2.5,2.5
			v13.2c0,1.4,1.1,2.5,2.5,2.5h1.3c1.4,0,2.5-1.1,2.5-2.5v-1.3h3.1v1.3c0,3.1-2.5,5.7-5.7,5.7h-4.2c-1,2.9-3.8,5-7.1,5h-12v1.1
			c0,1.4-1.1,2.5-2.5,2.5H23c-1.4,0-2.5-1.1-2.5-2.5v-1.1h-12c-4.2,0-7.6-3.4-7.6-7.6L0.9,8.5z"/>
		
			<linearGradient id="SVGID_1_" gradientUnits="userSpaceOnUse" x1="15.5256" y1="533.8995" x2="35.3256" y2="577.0995" gradientTransform="matrix(1 0 0 1 0 -533.356)">
			<stop  offset="0" style="stop-color:#FFFF72"/>
			<stop  offset="1" style="stop-color:#FFF600"/>
		</linearGradient>
		<path fill="url(#SVGID_1_)" d="M0.9,8.5c0-4.2,3.4-7.6,7.6-7.6h11.3V2c0,1.4,1.1,2.5,2.5,2.5h11.3c1.4,0,2.5-1.1,2.5-2.5V0.9h11.3
			c3.3,0,6.1,2.1,7.1,5h4.2c3.1,0,5.7,2.5,5.7,5.7v1.3h-3.1v-1.3c0-1.4-1.1-2.5-2.5-2.5h-1.3c-1.4,0-2.5,1.1-2.5,2.5v13.2
			c0,1.4,1.1,2.5,2.5,2.5h1.3c1.4,0,2.5-1.1,2.5-2.5v-1.3h3.1v1.3c0,3.1-2.5,5.7-5.7,5.7h-3.8v11.3h3.8c3.1,0,5.7,2.5,5.7,5.7v1.3
			h-3.1v-1.3c0-1.4-1.1-2.5-2.5-2.5h-1.3c-1.4,0-2.5,1.1-2.5,2.5v13.2c0,1.4,1.1,2.5,2.5,2.5h1.3c1.4,0,2.5-1.1,2.5-2.5v-1.3h3.1
			v1.3c0,3.1-2.5,5.7-5.7,5.7h-4.2c-1,2.9-3.8,5-7.1,5h-12v1.1c0,1.4-1.1,2.5-2.5,2.5H23c-1.4,0-2.5-1.1-2.5-2.5v-1.1h-12
			c-4.2,0-7.6-3.4-7.6-7.6L0.9,8.5z"/>
			<text x="28.8px" y="38.7px" alignment-baseline="middle" text-anchor="middle" fill="#8c7a15" font-family="Verdana" font-size="11.7px">i</text>
	</g>
</g>
</svg>
