<?xml version="1.0" encoding="utf-8"?>
<!-- Generator: Adobe Illustrator 23.1.1, SVG Export Plug-In . SVG Version: 6.00 Build 0)  -->
<svg version="1.1" id="Layer_1" xmlns="http://www.w3.org/2000/svg" xmlns:xlink="http://www.w3.org/1999/xlink" x="0px" y="0px"
	 width="78px" height="74px" viewBox="0 0 78 74" enable-background="new 0 0 78 74" xml:space="preserve">
<g transform="matrix(1 0 0 1 0 0)">
	<g transform="matrix( 1 0 0 1 0 0)">
		<path fill="none" stroke="#BFAF00" stroke-width="1.89" stroke-miterlimit="10" d="M4.9,37.7c0-18.1,17.8-32.8,35.9-32.8
			s35.9,14.7,35.9,32.8c0,4.2-3.4,7.6-7.6,7.6H68v16.4c0,4.2-3.4,7.6-7.6,7.6h-12v1.1c0,1.4-1.1,2.5-2.5,2.5H35.8
			c-1.4,0-2.5-1.1-2.5-2.5v-1.1h-12c-4.2,0-7.6-3.4-7.6-7.6V45.3h-1.3C8.3,45.3,4.9,41.9,4.9,37.7z"/>
		
			<linearGradient id="SVGID_1_" gradientUnits="userSpaceOnUse" x1="22.4959" y1="525.9397" x2="42.2959" y2="569.1397" gradientTransform="matrix(1 0 0 1 0 -528)">
			<stop  offset="0" style="stop-color:#FFFF72"/>
			<stop  offset="1" style="stop-color:#FFF600"/>
		</linearGradient>
		<path fill="url(#SVGID_1_)" d="M4.9,37.7c0-18.1,17.8-32.8,35.9-32.8s35.9,14.7,35.9,32.8c0,4.2-3.4,7.6-7.6,7.6H68v16.4
			c0,4.2-3.4,7.6-7.6,7.6h-12v1.1c0,1.4-1.1,2.5-2.5,2.5H35.8c-1.4,0-2.5-1.1-2.5-2.5v-1.1h-12c-4.2,0-7.6-3.4-7.6-7.6V45.3h-1.3
			C8.3,45.3,4.9,41.9,4.9,37.7z"/>
		<text x="39.6px" y="30.6px" alignment-baseline="middle" text-anchor="middle" fill="#8C7A15" font-family="'Verdana'" font-size="11.7px">i</text>
	</g>
</g>
</svg>
