<?xml version="1.0" encoding="UTF-8"?>
<!-- Generator: Adobe Illustrator 19.2.0, SVG Export Plug-In . SVG Version: 6.00 Build 0)  -->
<svg version="1.1" id="Layer_1" xmlns="http://www.w3.org/2000/svg" xmlns:xlink="http://www.w3.org/1999/xlink" x="0px" y="0px" width="120px" height="120px" viewBox="0 0 120 120" enable-background="new 0 0 120 120" xml:space="preserve">
<g>
	<path fill="#8AC24D" d="M65,16.4L65,16.4c3.5,1.9,5.8,5.6,5.8,10.2c0,2.1-0.2,2.4-1.4,4.8c0,0-0.7,1.5-1.7,2l0,0l0,0   c0,0-1.3,1.5,0.9,2.9c1.7,1.1-5.3,3.4-8.3,3.7c-3-0.3-10.3-2.7-8.6-3.7c2.2-1.4,0.6-2.9,0.6-2.9l0,0c-1-0.4-1.8-2.7-1.8-2.7   c-0.5-1.5-1.1-2.6-1.1-4.7c0-4.6,2.4-7.9,5.9-9.7l0,0c0-0.6,3.1-2,5-2C62.1,14.3,64.9,15.9,65,16.4L65,16.4z M47.6,43.9   c0,0-3.2-5.7-7-4.7c-3.9,1.1-4.3,3.7-4.3,6c0,3.2,3.3,5,3.3,5C41.6,46.7,47.6,43.9,47.6,43.9z M80.4,50.2c0,0,3.3-1.9,3.3-5   c0-2.2-0.4-4.9-4.3-6c-3.8-1-7,4.7-7,4.7S78.4,46.7,80.4,50.2z M39.7,67.5c0,0-4.7,3.8-4.3,6.3c0.6,3.6,4.3,3.3,6.5,3.3   c4.5-0.1,3.1-2.3,3.1-2.3S42,70.9,39.7,67.5z M75.1,74.7c0,0-1.4,2.2,3.1,2.3c2.2,0,5.9,0.3,6.5-3.3c0.4-2.5-4.3-6.3-4.3-6.3   C78,70.9,75.1,74.7,75.1,74.7z M54.9,83c0,0,3.6,6.6,11.1,7.6c0.6,0.1,1.2-0.9,0.9-1.3c-2.5-3.8-2.3-6.3-2.3-6.3l-4.5-1.7L54.9,83z   "/>
	<path fill="#A3D165" d="M52.9,32.5c-0.9-0.2-1.2-0.8-1.6-1.6c-1.7-4-1.7-5.4-1.5-5.9c2-2.5,3.6-0.4,6-3.8c1.8-2.4-0.3-3.7,0-3.9   c0.5-0.3-0.2-1,0-1.1c1.6-1.1,4.1-1.5,4.1-1.5s2.5,0.3,4.1,1.5c0.2,0.1-0.5,0.8,0,1.1c0.3,0.2-1.7,1.4,0,3.9c2.5,3.4,4,1.3,6,3.8   c0.3,0.5,0.2,2-1.5,5.9c-0.4,0.8-0.7,1.4-1.6,1.6c-2.3,0-4.1,1.5-7.1,1.5C57.1,34,55.3,32.5,52.9,32.5z M60.1,38.9   c3,0.1,8.7-1.1,7.2-2.4c-1.9-1.6,0-3-0.3-3c-2.3,0-2.9,1.6-6.9,1.6s-4.5-1.6-6.9-1.6c-0.3-0.1,1.6,1.4-0.3,3   C51.4,37.9,57.1,39.1,60.1,38.9z M44.9,46.1c1.1-1.2,2.1-1.8,2.1-1.8s-3.8-5.5-6.4-4.3c-0.8,0.4-1.2,0.7-1.8,1.1L44.9,46.1z    M81.1,41.2c-0.4-0.4-0.9-0.7-1.7-1.1C77,38.8,73,44.2,73,44.2s1,0.6,2.1,1.8L81.1,41.2z M40.3,69.5c-1-1,0,0.5-0.8-0.8   c0,0-4.4,3.3-3.1,5.2c0.1,0.2,0.5,0.7,1,0.1L40.3,69.5z M82.7,74.1c0.5,0.6,0.9,0,1-0.1c1.3-1.9-3.1-5.2-3.1-5.2   c-0.9,1.3,0.2-0.3-0.8,0.8L82.7,74.1z M58.9,86.1c1.4,1.6,5.4,3.8,6,3.5c0.4-0.2-2.7-1.6-4.3-3.3c-1.9-1.9-2.2-4.2-2.2-4.2   l-1.8,0.4C56.6,82.5,57.7,84.8,58.9,86.1z"/>
	<g id="shell_1_">
		<path fill="#528918" d="M60.3,82.7c1,0,3.1,1.1,4.9,0.7c3.9-0.9,7.3-2.9,10.2-5.5c1.4-1.3,0-3.1,1.7-5.2c2.4-3,4-2.4,4.7-4.2    c1.2-3.1,1.9-6.4,1.9-9.9c0-3.4-0.7-6.7-1.9-9.6c-0.7-1.7-3.5-2.4-4.5-3.8c-1.1-1.6-0.3-4-1.7-5.4c-0.2-0.2-0.2-0.2-0.2-0.2    c-0.2-0.2-0.4-0.5-0.6-0.6s-1.5-1.5-2.3-2c-4.3-3-9.2,1.1-12.2,1.1c-4,0-8.4-4-12.6-1.1c-0.8,0.6-2.5,1.9-2.7,2s-0.4,0.4-0.6,0.6    c0,0,0,0-0.2,0.2c-1.4,1.4-0.7,3.8-1.8,5.4c-1,1.5-3.8,2.2-4.5,3.8c-1.2,3-1.9,6.2-1.9,9.6c0,3.5,0.7,6.9,1.9,9.9    c0.7,1.8,2.4,1.2,4.8,4.2c1.7,2.1,0.4,3.9,1.8,5.2c2.9,2.6,6.6,4.6,10.5,5.5C56.8,83.8,58.3,82.7,60.3,82.7z"/>
		<path fill="#63A51E" d="M60.3,70.5h-4c-1.1,0-2.4-0.8-2.9-1.7l-4.2-7.6c-0.5-0.9-0.5-2.3,0-3.2l4.2-7.7c0.5-0.9,1.8-1.8,2.9-1.8h4    h3.1c1.1,0,2.4,0.9,2.9,1.8l4.2,7.6c0.5,0.9,0.5,2.4,0,3.3l-4.2,7.7c-0.5,0.9-1.8,1.7-2.9,1.7L60.3,70.5 M60.3,45.5h3.1    c1.1,0,2.6-0.3,3.3-1.1l3.6-3.8c0.7-0.8,1.1-1.6,0.8-1.7c0,0,0.1,0-0.1-0.2c-3.3-2.1-5.7,1.6-10.7,1.6c-6,0-7.8-3.7-11.1-1.6    c-0.2,0.2-0.4,0.1-0.4,0.1c-0.3,0.2,0.1,0.9,0.8,1.7l3.5,4c0.7,0.8,2.1,1.1,3.2,1.1L60.3,45.5L60.3,45.5z M65,81    c1.9-0.5,3.4-1.4,3.4-1.4c1-0.5,1.2-1.5,0.6-2.4l-2.6-3.4c-0.6-0.8-2-1.4-3.1-1.4h-3h-3.9c-1.1,0-2.5,0.5-3.1,1.4l-2.6,3.3    c-0.6,0.8-0.3,1.9,0.7,2.4c0,0,1.8,0.9,3.8,1.4c1.7,0.5,3.2-0.2,5.2-0.2C61.3,80.9,63.3,81.5,65,81z M69.2,46.1    c-0.7,0.8-0.8,2.2-0.4,3.1l3.9,7.6c0.5,0.9,1.8,1.7,2.9,1.7h3.6c1.1,0,1.9-0.9,1.8-1.9c0,0-0.5-4.5-1.6-7.2    c-0.6-1.4-3.3-1.9-4.1-3.1c-0.9-1.4,0-3.7-1.2-4.8C74,41.3,74,41.3,74,41.3c-0.2-0.2-0.9,0.3-1.6,1.1L69.2,46.1z M47.3,42.3    c-0.7-0.8-1.4-1.3-1.6-1.1c0,0,0,0-0.2,0.2c-1.2,1.2-0.3,3.4-1.2,4.9c-0.8,1.3-3.5,1.7-4.1,3.1c-1.1,2.7-1.6,7.2-1.6,7.2    c-0.1,1,0.7,1.9,1.8,1.9H44c1.1,0,2.4-0.8,2.9-1.7l3.9-7.6c0.5-0.9,0.3-2.3-0.4-3.1L47.3,42.3z M47,62.8c-0.5-0.9-1.8-1.3-2.9-1.3    h-3.5c-1.1,0-1.9,0.5-1.7,1.5c0,0,0.5,2.8,1.5,5c0.6,1.5,2.5,1.3,4,3.2c1.3,1.6,0.4,3.7,1.6,4.9c0.4,0.4,0.4,0.4,0.4,0.4    c0.4,0.4,1.3,0,1.9-0.8l2.3-3.1c0.6-0.8,0.7-2.2,0.2-3.1L47,62.8z M68.8,69.5c-0.5,0.9-0.4,2.1,0.2,3l2.3,3.1    c0.6,0.8,1.5,1.2,1.9,0.8c0,0,0,0,0.4-0.3c1.3-1.2,0.4-3.2,1.6-4.8c1.4-1.8,3.4-1.6,4-3.1c0.9-2.2,1.5-5.1,1.5-5.1    c0.2-1-0.6-1.5-1.7-1.5h-3.5c-1.1,0-2.4,0.5-2.9,1.3L68.8,69.5z"/>
		<path opacity="0.15" fill="#FFFFFF" enable-background="new    " d="M56.3,70.5c-0.6,0-1.4-0.3-1.9-0.7c-0.1-0.1-0.1-0.2-0.2-0.2    L50,61.9c-0.5-0.9-0.5-2.3,0-3.2l4.2-7.7c0.5-0.9,1.8-1.8,2.9-1.8h4h3.1c0.6,0,1.3,0.3,1.9,0.7c0.1,0.1,0.2,0.2,0.2,0.3l4.2,7.6    c0.5,0.9,0.5,2.4,0,3.3l-4.2,7.7c-0.5,0.9-1.8,1.7-2.9,1.7h-3.1l0,0C60.3,70.5,56.3,70.5,56.3,70.5z M60.3,45.5h3.1    c1.1,0,2.6-0.3,3.3-1.1l3.6-3.8c0.5-0.6,0.8-1.2,0.9-1.5c-3-1.4-5.4,1.9-10,1.9c-6,0-7.8-3.7-11.1-1.6c-0.2,0.2-0.4,0.1-0.4,0.1    c-0.3,0.2,0.1,0.9,0.8,1.7l3.2,3.6c0.8,0.5,1.9,0.7,2.7,0.7C56.4,45.5,60.3,45.5,60.3,45.5z M60.3,80.9c1,0,3,0.7,4.7,0.2    c1.9-0.5,3.4-1.4,3.4-1.4c1-0.5,1.2-1.5,0.6-2.4L66.6,74c-0.7-0.5-1.6-0.7-2.4-0.7h-3h-3.9c-1.1,0-2.5,0.5-3.1,1.4L51.6,78    c-0.4,0.5-0.4,1.1-0.1,1.7c0.1,0,1.9,0.9,3.7,1.4C56.9,81.5,58.3,80.9,60.3,80.9z M79.4,49.4c0-0.1-0.1-0.2-0.2-0.3    c-1-0.7-2.5-1.2-3.1-2.1l0,0c-0.3-0.2-0.6-0.4-0.8-0.7c-0.8-1.2-0.2-3.1-0.8-4.3c-0.3,0.1-0.9,0.5-1.4,1.1L70,46.9    c-0.7,0.8-0.8,2.2-0.4,3.1l3.9,7.6c0.1,0.1,0.1,0.2,0.2,0.3c0.6,0.4,1.2,0.7,1.9,0.7h3.6c1.1,0,1.9-0.9,1.8-1.9    C81,56.6,80.5,52.1,79.4,49.4z M50.5,46.1l-3.2-3.7c0,0,0-0.1-0.1-0.1c-0.3-0.3-0.6-0.4-0.7-0.3c0,0,0,0-0.2,0.2    c-1.2,1.2-0.3,3.4-1.2,4.9c-0.8,1.3-3.5,1.7-4.1,3.1c-1.1,2.7-1.6,7.2-1.6,7.2c0,0.3,0,0.7,0.2,1c0.2,0.1,0.5,0.2,0.8,0.2H44    c1.1,0,2.4-0.8,2.9-1.7l3.9-7.6C51.4,48.2,51.2,46.9,50.5,46.1z M47,62.8L47,62.8c-0.6-0.4-1.4-0.6-2.1-0.6h-3.5    c-1.1,0-1.9,0.5-1.7,1.5c0,0,0.5,2.8,1.5,5c0,0.1,0.1,0.2,0.2,0.3c0.8,0.5,1.9,0.9,2.9,2c0.3,0.2,0.6,0.5,0.9,0.9    c1.2,1.5,0.5,3.4,1.4,4.6c0.5,0.2,1.2-0.2,1.7-0.9l2.3-3.1c0.6-0.8,0.7-2.2,0.2-3.1L47,62.8z M80.7,62.4c-0.3-0.1-0.5-0.1-0.9-0.1    h-3.5c-1.1,0-2.4,0.5-2.9,1.3l-3.9,6.6c-0.5,0.9-0.4,2.1,0.2,3l2.3,3.1c0.4,0.3,0.9,0.3,1.1,0.1c0,0,0,0,0.4-0.3    c1.3-1.2,0.4-3.2,1.6-4.8c1.4-1.8,3.4-1.6,4-3.1c0.9-2.2,1.5-5.1,1.5-5.1C80.8,62.8,80.8,62.6,80.7,62.4z"/>
	</g>
	<g id="eyes_1_">
		<path fill="#FFFFFF" d="M64.7,17.2c0,0-1,1.9,0.6,3.7c1.6,1.8,3.5,0.7,3.5,0.7S67.4,18.7,64.7,17.2z M55.5,17.2c0,0,1,1.9-0.6,3.7    c-1.6,1.8-3.5,0.7-3.5,0.7S52.8,18.7,55.5,17.2z"/>
		<path fill="#406813" d="M54.7,20.2c0.6-0.7,0.4-1.8,0.1-2.6c-1.1,0.7-1.9,1.7-2.5,2.5C53,20.5,54,21,54.7,20.2z M65.5,20.2    c-0.6-0.7-0.4-1.8-0.1-2.6c1.1,0.7,1.9,1.7,2.5,2.5C67.2,20.5,66.2,21,65.5,20.2z"/>
	</g>
</g>
</svg>