<svg width="144" height="144" viewBox="0 0 144 144" fill="none" xmlns="http://www.w3.org/2000/svg">
<path opacity="0.8" fill-rule="evenodd" clip-rule="evenodd" d="M89.8973 0.678833H54.8888V0.678952H89.8971C89.8971 24.2779 80.5224 46.9103 63.8354 63.5973C61.0151 66.4177 58.0248 69.0292 54.8888 71.4219V143.282C54.9804 119.809 64.3448 97.3167 80.9498 80.7118C83.7704 77.8911 86.761 75.2794 89.8973 72.8865V0.678833ZM89.8973 143.359C89.8969 143.45 89.8966 143.54 89.8966 143.63H54.8888V143.63H89.8973V143.359Z" fill="#F2994A"/>
<path opacity="0.8" fill-rule="evenodd" clip-rule="evenodd" d="M89.8973 0.91999C89.8975 0.839412 89.8976 0.758823 89.8976 0.678223H54.8891C54.8891 0.678425 54.8891 0.678627 54.8891 0.67883H89.8973V0.91999ZM54.8888 71.4215V0.865439C54.8394 15.112 49.1587 28.7643 39.0812 38.8418C28.9596 48.9634 15.2317 54.6497 0.917603 54.6497V89.6582C20.5277 89.6582 39.4704 83.1849 54.8888 71.4215Z" fill="#F2994A"/>
<path opacity="0.8" fill-rule="evenodd" clip-rule="evenodd" d="M54.8896 143.63H89.8981C89.8981 129.316 95.5844 115.588 105.706 105.466C115.828 95.3447 129.555 89.6584 143.87 89.6584V54.6499C124.259 54.6499 105.316 61.1234 89.8979 72.887V143.63L54.8896 143.63Z" fill="#F2994A"/>
<path fill-rule="evenodd" clip-rule="evenodd" d="M54.8888 71.4219V0.678952H89.8971C89.8971 24.2779 80.5224 46.9103 63.8354 63.5973C61.0151 66.4177 58.0248 69.0292 54.8888 71.4219Z" fill="#F2994A"/>
<path fill-rule="evenodd" clip-rule="evenodd" d="M80.9504 80.7115C64.2634 97.3985 54.8888 120.031 54.8888 143.63L89.8971 143.63V72.887C86.7611 75.2796 83.7708 77.8911 80.9504 80.7115Z" fill="#F2994A"/>
</svg>
