<?xml version="1.0" encoding="utf-8"?>
<!-- Generator: Adobe Illustrator 23.1.1, SVG Export Plug-In . SVG Version: 6.00 Build 0)  -->
<svg version="1.1" id="Layer_1" xmlns="http://www.w3.org/2000/svg" xmlns:xlink="http://www.w3.org/1999/xlink" x="0px" y="0px"
	 width="36px" height="36px" viewBox="0 0 36 36" enable-background="new 0 0 36 36" xml:space="preserve">
<g>
	<title>zoom-in</title>
	<circle opacity="0.15" fill="#231F20" enable-background="new    " cx="18" cy="18" r="18"/>
	<circle fill="#FFFFFF" cx="18" cy="18" r="16"/>
</g>
<g>
	<g opacity="0.75">
		<path fill="#A08E78" d="M28.5,26.1l-6.1-5.8l-0.1-0.1l0.1-0.1c0.3-0.3,0.3-0.7,0.1-1c-0.1-0.1-0.2-0.1-0.3-0.2
			c0.8-1.2,1.3-2.7,1.3-4.2c0-4.3-3.5-7.8-7.8-7.8s-7.8,3.5-7.8,7.8s3.5,7.8,7.8,7.8c1.3,0,2.6-0.3,3.7-0.9c0,0.1,0.1,0.2,0.1,0.2
			c0.3,0.3,0.7,0.3,1,0.1l0.2-0.2c0,0,0,0.1,0.1,0.1l5.1,6.6c0.3,0.3,1.2-0.1,1.6-0.4l1-0.9C28.7,26.9,28.8,26.5,28.5,26.1z
			 M9.4,14.8c0-3.4,2.8-6.2,6.2-6.2s6.2,2.8,6.2,6.2S19.1,21,15.7,21S9.4,18.2,9.4,14.8z"/>
		
			<line fill="none" stroke="#A08E78" stroke-width="1.5" stroke-linecap="round" stroke-linejoin="round" x1="13.7" y1="14.8" x2="17.7" y2="14.8"/>
		
			<line fill="none" stroke="#A08E78" stroke-width="1.5" stroke-linecap="round" stroke-linejoin="round" x1="15.7" y1="12.8" x2="15.7" y2="16.8"/>
	</g>
</g>
</svg>
