<svg xmlns="http://www.w3.org/2000/svg" version="1.1" width="40.8" height="34.5" viewBox="0 0 40.8 34.5"><g><path fill="none" stroke="#cc66b9" stroke-width="3" stroke-miterlimit="10" d="M1.5,4.3C1.5,2.753602700473778,2.753602700473778,1.5,4.3,1.5H26.7C28.246397299526222,1.5,29.5,2.753602700473778,29.5,4.3V7.1H36.5C38.04639729952622,7.1,39.3,8.353602700473777,39.3,9.899999999999999V24.599999999999998C39.3,26.14639729952622,38.04639729952622,27.4,36.5,27.4H29.5V30.2C29.5,31.746397299526222,28.246397299526222,33,26.7,33H4.300000000000001C2.753602700473779,33,1.5000000000000009,31.746397299526222,1.5000000000000009,30.2V28.8H8.5C10.046397299526221,28.8,11.3,27.546397299526223,11.3,26V8.5C11.3,6.953602700473779,10.046397299526221,5.7,8.5,5.7H1.5z"/><path fill="url(#bracket2_pink)" stroke="none" d="M1.5,4.3C1.5,2.753602700473778,2.753602700473778,1.5,4.3,1.5H26.7C28.246397299526222,1.5,29.5,2.753602700473778,29.5,4.3V7.1H36.5C38.04639729952622,7.1,39.3,8.353602700473777,39.3,9.899999999999999V24.599999999999998C39.3,26.14639729952622,38.04639729952622,27.4,36.5,27.4H29.5V30.2C29.5,31.746397299526222,28.246397299526222,33,26.7,33H4.300000000000001C2.753602700473779,33,1.5000000000000009,31.746397299526222,1.5000000000000009,30.2V28.8H8.5C10.046397299526221,28.8,11.3,27.546397299526223,11.3,26V8.5C11.3,6.953602700473779,10.046397299526221,5.7,8.5,5.7H1.5z"/></g><linearGradient x1="0" y1="0" x2="90" y2="32" gradientUnits="userSpaceOnUse" id="bracket2_pink"><stop offset="0.0" stop-color="#fcc4f9" stop-opacity="1"/><stop offset="1.0" stop-color="#f991f3" stop-opacity="1"/></linearGradient></svg>