<svg xmlns="http://www.w3.org/2000/svg" version="1.1" width="43.599999999999994" height="34.5" viewBox="0 0 43.599999999999994 34.5"><g><path fill="none" stroke="#cc66b9" stroke-width="3" stroke-miterlimit="10" d="M1.5,10.6C1.5,9.246902362914556,2.5969023629145553,8.15,3.9499999999999997,8.15H4.6499999999999995C6.003097637085443,8.15,7.1,9.246902362914556,7.1,10.6V12.35H12.7V5.7C12.7,3.3804040507106676,14.580404050710666,1.5000000000000009,16.9,1.5000000000000009H33.699999999999996C38.33919189857866,1.5000000000000009,42.099999999999994,5.2608081014213335,42.099999999999994,9.899999999999999V11.299999999999999H38.599999999999994V9.899999999999999C38.599999999999994,8.353602700473777,37.34639729952622,7.099999999999999,35.8,7.099999999999999H34.4C32.85360270047378,7.099999999999999,31.599999999999998,8.353602700473777,31.599999999999998,9.899999999999999V24.599999999999998C31.599999999999998,26.14639729952622,32.85360270047378,27.4,34.4,27.4H35.8C37.34639729952622,27.4,38.599999999999994,26.14639729952622,38.599999999999994,24.599999999999998V23.2H42.099999999999994V24.599999999999998C42.099999999999994,29.239191898578664,38.33919189857866,33,33.699999999999996,33H16.9C14.580404050710666,33,12.7,31.119595949289334,12.7,28.8V22.150000000000002H7.1V23.900000000000002C7.1,25.253097637085446,6.003097637085444,26.35,4.65,26.35H3.95C2.5969023629145562,26.35,1.5000000000000004,25.253097637085446,1.5000000000000004,23.900000000000002z"/><path fill="url(#bracket1_pink)" stroke="none" d="M1.5,10.6C1.5,9.246902362914556,2.5969023629145553,8.15,3.9499999999999997,8.15H4.6499999999999995C6.003097637085443,8.15,7.1,9.246902362914556,7.1,10.6V12.35H12.7V5.7C12.7,3.3804040507106676,14.580404050710666,1.5000000000000009,16.9,1.5000000000000009H33.699999999999996C38.33919189857866,1.5000000000000009,42.099999999999994,5.2608081014213335,42.099999999999994,9.899999999999999V11.299999999999999H38.599999999999994V9.899999999999999C38.599999999999994,8.353602700473777,37.34639729952622,7.099999999999999,35.8,7.099999999999999H34.4C32.85360270047378,7.099999999999999,31.599999999999998,8.353602700473777,31.599999999999998,9.899999999999999V24.599999999999998C31.599999999999998,26.14639729952622,32.85360270047378,27.4,34.4,27.4H35.8C37.34639729952622,27.4,38.599999999999994,26.14639729952622,38.599999999999994,24.599999999999998V23.2H42.099999999999994V24.599999999999998C42.099999999999994,29.239191898578664,38.33919189857866,33,33.699999999999996,33H16.9C14.580404050710666,33,12.7,31.119595949289334,12.7,28.8V22.150000000000002H7.1V23.900000000000002C7.1,25.253097637085446,6.003097637085444,26.35,4.65,26.35H3.95C2.5969023629145562,26.35,1.5000000000000004,25.253097637085446,1.5000000000000004,23.900000000000002z"/></g><linearGradient x1="0" y1="0" x2="90" y2="32" gradientUnits="userSpaceOnUse" id="bracket1_pink"><stop offset="0.0" stop-color="#fcc4f9" stop-opacity="1"/><stop offset="1.0" stop-color="#f991f3" stop-opacity="1"/></linearGradient></svg>