<svg xmlns="http://www.w3.org/2000/svg" version="1.1" width="73.70349999999999" height="45.559999999999995" viewBox="0 0 73.70349999999999 45.559999999999995"><g><path fill="none" stroke="#04a2b2" stroke-width="3" stroke-miterlimit="10" d="M1.5,9.899999999999999C1.5,5.2608081014213335,5.2608081014213335,1.5,9.899999999999999,1.5H22.5V2.76C22.5,4.306397299526221,23.753602700473778,5.56,25.3,5.56H37.9C39.44639729952622,5.56,40.699999999999996,4.306397299526221,40.699999999999996,2.76V1.4999999999999998H53.3C56.959599999999995,1.4999999999999998,60.0725,3.8344999999999994,61.224,7.1H65.9035C69.38289392393399,7.1,72.20349999999999,9.920606076065999,72.20349999999999,13.399999999999999V14.799999999999999H68.70349999999999V13.399999999999999C68.70349999999999,11.853602700473777,67.44989729952621,10.599999999999998,65.9035,10.599999999999998H64.50349999999999C62.95710270047377,10.599999999999998,61.70349999999999,11.853602700473777,61.70349999999999,13.399999999999999V28.099999999999998C61.70349999999999,29.64639729952622,62.95710270047377,30.9,64.50349999999999,30.9H65.9035C67.44989729952621,30.9,68.70349999999999,29.64639729952622,68.70349999999999,28.099999999999998V26.7H72.20349999999999V28.099999999999998C72.20349999999999,31.579393923934,69.38289392393399,34.4,65.9035,34.4H61.224C60.0697,37.6599,56.9589,40,53.3035,40H40.0035V41.26C40.0035,42.80639729952622,38.749897299526225,44.059999999999995,37.203500000000005,44.059999999999995H26.003500000000006C24.457102700473783,44.059999999999995,23.203500000000005,42.80639729952622,23.203500000000005,41.26V40H9.903500000000006C5.264308101421341,40,1.5035000000000078,36.23919189857867,1.5035000000000078,31.6z"/><path fill="url(#cmd_cyan)" stroke="none" d="M1.5,9.899999999999999C1.5,5.2608081014213335,5.2608081014213335,1.5,9.899999999999999,1.5H22.5V2.76C22.5,4.306397299526221,23.753602700473778,5.56,25.3,5.56H37.9C39.44639729952622,5.56,40.699999999999996,4.306397299526221,40.699999999999996,2.76V1.4999999999999998H53.3C56.959599999999995,1.4999999999999998,60.0725,3.8344999999999994,61.224,7.1H65.9035C69.38289392393399,7.1,72.20349999999999,9.920606076065999,72.20349999999999,13.399999999999999V14.799999999999999H68.70349999999999V13.399999999999999C68.70349999999999,11.853602700473777,67.44989729952621,10.599999999999998,65.9035,10.599999999999998H64.50349999999999C62.95710270047377,10.599999999999998,61.70349999999999,11.853602700473777,61.70349999999999,13.399999999999999V28.099999999999998C61.70349999999999,29.64639729952622,62.95710270047377,30.9,64.50349999999999,30.9H65.9035C67.44989729952621,30.9,68.70349999999999,29.64639729952622,68.70349999999999,28.099999999999998V26.7H72.20349999999999V28.099999999999998C72.20349999999999,31.579393923934,69.38289392393399,34.4,65.9035,34.4H61.224C60.0697,37.6599,56.9589,40,53.3035,40H40.0035V41.26C40.0035,42.80639729952622,38.749897299526225,44.059999999999995,37.203500000000005,44.059999999999995H26.003500000000006C24.457102700473783,44.059999999999995,23.203500000000005,42.80639729952622,23.203500000000005,41.26V40H9.903500000000006C5.264308101421341,40,1.5035000000000078,36.23919189857867,1.5035000000000078,31.6z"/></g><linearGradient x1="20" y1="0" x2="42" y2="48" gradientUnits="userSpaceOnUse" id="cmd_cyan"><stop offset="0.0" stop-color="#8effff" stop-opacity="1"/><stop offset="1.0" stop-color="#00f0ff" stop-opacity="1"/></linearGradient></svg>