<svg xmlns="http://www.w3.org/2000/svg" version="1.1" width="63.199999999999996" height="45.559999999999995" viewBox="0 0 63.199999999999996 45.559999999999995"><g><path fill="none" stroke="#04a2b2" stroke-width="3" stroke-miterlimit="10" d="M1.5,9.899999999999999C1.5,5.2608081014213335,5.2608081014213335,1.5,9.899999999999999,1.5H22.5V2.76C22.5,4.306397299526221,23.753602700473778,5.56,25.3,5.56H37.9C39.44639729952622,5.56,40.699999999999996,4.306397299526221,40.699999999999996,2.76V1.4999999999999998H53.3C57.93919189857866,1.4999999999999998,61.699999999999996,5.2608081014213335,61.699999999999996,9.899999999999999V31.599999999999998C61.699999999999996,36.23919189857866,57.93919189857866,40,53.3,40H40V41.26C40,42.80639729952622,38.74639729952622,44.059999999999995,37.2,44.059999999999995H26.000000000000004C24.45360270047378,44.059999999999995,23.200000000000003,42.80639729952622,23.200000000000003,41.26V40H9.900000000000004C5.260808101421339,40,1.5000000000000053,36.23919189857867,1.5000000000000053,31.6z"/><path fill="url(#cmd0_cyan)" stroke="none" d="M1.5,9.899999999999999C1.5,5.2608081014213335,5.2608081014213335,1.5,9.899999999999999,1.5H22.5V2.76C22.5,4.306397299526221,23.753602700473778,5.56,25.3,5.56H37.9C39.44639729952622,5.56,40.699999999999996,4.306397299526221,40.699999999999996,2.76V1.4999999999999998H53.3C57.93919189857866,1.4999999999999998,61.699999999999996,5.2608081014213335,61.699999999999996,9.899999999999999V31.599999999999998C61.699999999999996,36.23919189857866,57.93919189857866,40,53.3,40H40V41.26C40,42.80639729952622,38.74639729952622,44.059999999999995,37.2,44.059999999999995H26.000000000000004C24.45360270047378,44.059999999999995,23.200000000000003,42.80639729952622,23.200000000000003,41.26V40H9.900000000000004C5.260808101421339,40,1.5000000000000053,36.23919189857867,1.5000000000000053,31.6z"/></g><linearGradient x1="20" y1="0" x2="42" y2="48" gradientUnits="userSpaceOnUse" id="cmd0_cyan"><stop offset="0.0" stop-color="#8effff" stop-opacity="1"/><stop offset="1.0" stop-color="#00f0ff" stop-opacity="1"/></linearGradient></svg>