<svg xmlns="http://www.w3.org/2000/svg" version="1.1" width="73.70349999999999" height="85.46" viewBox="0 0 73.70349999999999 85.46"><g><path fill="none" stroke="#04a2b2" stroke-width="3" stroke-miterlimit="10" d="M1.5,9.899999999999999C1.5,5.2608081014213335,5.2608081014213335,1.5,9.899999999999999,1.5H22.5V2.76C22.5,4.306397299526221,23.753602700473778,5.56,25.3,5.56H37.9C39.44639729952622,5.56,40.699999999999996,4.306397299526221,40.699999999999996,2.76V1.4999999999999998H53.3C56.959599999999995,1.4999999999999998,60.0725,3.8344999999999994,61.224,7.1H65.9035C69.38289392393399,7.1,72.20349999999999,9.920606076065999,72.20349999999999,13.399999999999999V14.799999999999999H68.70349999999999V13.399999999999999C68.70349999999999,11.853602700473777,67.44989729952621,10.599999999999998,65.9035,10.599999999999998H64.50349999999999C62.95710270047377,10.599999999999998,61.70349999999999,11.853602700473777,61.70349999999999,13.399999999999999V28.099999999999998C61.70349999999999,29.64639729952622,62.95710270047377,30.9,64.50349999999999,30.9H65.9035C67.44989729952621,30.9,68.70349999999999,29.64639729952622,68.70349999999999,28.099999999999998V26.7H72.20349999999999V28.099999999999998C72.20349999999999,31.579393923934,69.38289392393399,34.4,65.9035,34.4H61.70349999999999V47H65.9035C69.38289392393399,47,72.20349999999999,49.820606076066,72.20349999999999,53.3V54.699999999999996H68.70349999999999V53.3C68.70349999999999,51.75360270047378,67.44989729952621,50.5,65.9035,50.5H64.50349999999999C62.95710270047377,50.5,61.70349999999999,51.75360270047378,61.70349999999999,53.3V68C61.70349999999999,69.54639729952622,62.95710270047377,70.8,64.50349999999999,70.8H65.9035C67.44989729952621,70.8,68.70349999999999,69.54639729952622,68.70349999999999,68V66.6H72.20349999999999V68C72.20349999999999,71.479393923934,69.38289392393399,74.3,65.9035,74.3H61.224C60.0697,77.5599,56.9589,79.89999999999999,53.3035,79.89999999999999H40.0035V81.16C40.0035,82.70639729952622,38.749897299526225,83.96,37.203500000000005,83.96H26.003500000000006C24.457102700473783,83.96,23.203500000000005,82.70639729952622,23.203500000000005,81.16V79.89999999999999H9.903500000000006C5.264308101421341,79.89999999999999,1.5035000000000078,76.13919189857866,1.5035000000000078,71.5z"/><path fill="url(#cmd2_cyan)" stroke="none" d="M1.5,9.899999999999999C1.5,5.2608081014213335,5.2608081014213335,1.5,9.899999999999999,1.5H22.5V2.76C22.5,4.306397299526221,23.753602700473778,5.56,25.3,5.56H37.9C39.44639729952622,5.56,40.699999999999996,4.306397299526221,40.699999999999996,2.76V1.4999999999999998H53.3C56.959599999999995,1.4999999999999998,60.0725,3.8344999999999994,61.224,7.1H65.9035C69.38289392393399,7.1,72.20349999999999,9.920606076065999,72.20349999999999,13.399999999999999V14.799999999999999H68.70349999999999V13.399999999999999C68.70349999999999,11.853602700473777,67.44989729952621,10.599999999999998,65.9035,10.599999999999998H64.50349999999999C62.95710270047377,10.599999999999998,61.70349999999999,11.853602700473777,61.70349999999999,13.399999999999999V28.099999999999998C61.70349999999999,29.64639729952622,62.95710270047377,30.9,64.50349999999999,30.9H65.9035C67.44989729952621,30.9,68.70349999999999,29.64639729952622,68.70349999999999,28.099999999999998V26.7H72.20349999999999V28.099999999999998C72.20349999999999,31.579393923934,69.38289392393399,34.4,65.9035,34.4H61.70349999999999V47H65.9035C69.38289392393399,47,72.20349999999999,49.820606076066,72.20349999999999,53.3V54.699999999999996H68.70349999999999V53.3C68.70349999999999,51.75360270047378,67.44989729952621,50.5,65.9035,50.5H64.50349999999999C62.95710270047377,50.5,61.70349999999999,51.75360270047378,61.70349999999999,53.3V68C61.70349999999999,69.54639729952622,62.95710270047377,70.8,64.50349999999999,70.8H65.9035C67.44989729952621,70.8,68.70349999999999,69.54639729952622,68.70349999999999,68V66.6H72.20349999999999V68C72.20349999999999,71.479393923934,69.38289392393399,74.3,65.9035,74.3H61.224C60.0697,77.5599,56.9589,79.89999999999999,53.3035,79.89999999999999H40.0035V81.16C40.0035,82.70639729952622,38.749897299526225,83.96,37.203500000000005,83.96H26.003500000000006C24.457102700473783,83.96,23.203500000000005,82.70639729952622,23.203500000000005,81.16V79.89999999999999H9.903500000000006C5.264308101421341,79.89999999999999,1.5035000000000078,76.13919189857866,1.5035000000000078,71.5z"/></g><linearGradient x1="20" y1="0" x2="42" y2="48" gradientUnits="userSpaceOnUse" id="cmd2_cyan"><stop offset="0.0" stop-color="#8effff" stop-opacity="1"/><stop offset="1.0" stop-color="#00f0ff" stop-opacity="1"/></linearGradient></svg>