<svg xmlns="http://www.w3.org/2000/svg" version="1.1" width="187.8" height="33.8" viewBox="0 0 187.8 33.8"><g><path fill="none" stroke="#cc66b9" stroke-width="3" stroke-miterlimit="10" d="M1.5,16.9C1.5,8.394814852605778,8.394814852605778,1.5,16.9,1.5H170.9C179.40518514739423,1.5,186.3,8.394814852605778,186.3,16.9C186.3,25.40518514739422,179.40518514739423,32.3,170.9,32.3H16.900000000000006C8.394814852605785,32.3,1.500000000000007,25.40518514739422,1.500000000000007,16.9zM12.7,8.149999999999999C11.346902362914555,8.149999999999999,10.25,9.246902362914554,10.25,10.599999999999998V23.9C10.25,25.253097637085443,11.346902362914555,26.349999999999998,12.7,26.349999999999998H13.399999999999999C14.753097637085443,26.349999999999998,15.849999999999998,25.253097637085443,15.849999999999998,23.9V22.15H21.449999999999996V25.299999999999997C21.449999999999996,26.84639729952622,22.703602700473773,28.099999999999998,24.249999999999996,28.099999999999998H77.44999999999999C78.99639729952621,28.099999999999998,80.24999999999999,26.84639729952622,80.24999999999999,25.299999999999997V9.2C80.24999999999999,7.653602700473778,78.99639729952621,6.3999999999999995,77.44999999999999,6.3999999999999995H24.249999999999993C22.70360270047377,6.3999999999999995,21.449999999999992,7.653602700473778,21.449999999999992,9.2V12.35H15.849999999999993V10.6C15.849999999999993,9.246902362914556,14.753097637085437,8.15,13.399999999999993,8.15zM105.8,8.149999999999999C104.44690236291456,8.149999999999999,103.35,9.246902362914554,103.35,10.599999999999998V23.9C103.35,25.253097637085443,104.44690236291456,26.349999999999998,105.8,26.349999999999998H106.5C107.85309763708544,26.349999999999998,108.95,25.253097637085443,108.95,23.9V22.15H114.55V25.299999999999997C114.55,26.84639729952622,115.80360270047377,28.099999999999998,117.35,28.099999999999998H170.54999999999998C172.09639729952622,28.099999999999998,173.35,26.84639729952622,173.35,25.299999999999997V9.2C173.35,7.653602700473778,172.09639729952622,6.3999999999999995,170.54999999999998,6.3999999999999995H117.35C115.80360270047377,6.3999999999999995,114.55,7.653602700473778,114.55,9.2V12.35H108.95V10.6C108.95,9.246902362914556,107.85309763708544,8.15,106.5,8.15z"/><path fill="url(#comp_pink2)" stroke="none" d="M1.5,16.9C1.5,8.394814852605778,8.394814852605778,1.5,16.9,1.5H170.9C179.40518514739423,1.5,186.3,8.394814852605778,186.3,16.9C186.3,25.40518514739422,179.40518514739423,32.3,170.9,32.3H16.900000000000006C8.394814852605785,32.3,1.500000000000007,25.40518514739422,1.500000000000007,16.9zM12.7,8.149999999999999C11.346902362914555,8.149999999999999,10.25,9.246902362914554,10.25,10.599999999999998V23.9C10.25,25.253097637085443,11.346902362914555,26.349999999999998,12.7,26.349999999999998H13.399999999999999C14.753097637085443,26.349999999999998,15.849999999999998,25.253097637085443,15.849999999999998,23.9V22.15H21.449999999999996V25.299999999999997C21.449999999999996,26.84639729952622,22.703602700473773,28.099999999999998,24.249999999999996,28.099999999999998H77.44999999999999C78.99639729952621,28.099999999999998,80.24999999999999,26.84639729952622,80.24999999999999,25.299999999999997V9.2C80.24999999999999,7.653602700473778,78.99639729952621,6.3999999999999995,77.44999999999999,6.3999999999999995H24.249999999999993C22.70360270047377,6.3999999999999995,21.449999999999992,7.653602700473778,21.449999999999992,9.2V12.35H15.849999999999993V10.6C15.849999999999993,9.246902362914556,14.753097637085437,8.15,13.399999999999993,8.15zM105.8,8.149999999999999C104.44690236291456,8.149999999999999,103.35,9.246902362914554,103.35,10.599999999999998V23.9C103.35,25.253097637085443,104.44690236291456,26.349999999999998,105.8,26.349999999999998H106.5C107.85309763708544,26.349999999999998,108.95,25.253097637085443,108.95,23.9V22.15H114.55V25.299999999999997C114.55,26.84639729952622,115.80360270047377,28.099999999999998,117.35,28.099999999999998H170.54999999999998C172.09639729952622,28.099999999999998,173.35,26.84639729952622,173.35,25.299999999999997V9.2C173.35,7.653602700473778,172.09639729952622,6.3999999999999995,170.54999999999998,6.3999999999999995H117.35C115.80360270047377,6.3999999999999995,114.55,7.653602700473778,114.55,9.2V12.35H108.95V10.6C108.95,9.246902362914556,107.85309763708544,8.15,106.5,8.15z"/></g><linearGradient x1="0" y1="0" x2="150" y2="45" gradientUnits="userSpaceOnUse" id="comp_pink2"><stop offset="0.0" stop-color="#fcc4f9" stop-opacity="1"/><stop offset="1.0" stop-color="#f991f3" stop-opacity="1"/></linearGradient></svg>