<svg xmlns="http://www.w3.org/2000/svg" version="1.1" width="129.70350000000002" height="43.599999999999994" viewBox="0 0 129.70350000000002 43.599999999999994"><g><path fill="none" stroke="#cc7e02" stroke-width="3" stroke-miterlimit="10" d="M1.5,9.899999999999999C1.5,5.2608081014213335,5.2608081014213335,1.5,9.899999999999999,1.5H22.5V2.76C22.5,4.306397299526221,23.753602700473778,5.56,25.3,5.56H37.9C39.44639729952622,5.56,40.699999999999996,4.306397299526221,40.699999999999996,2.76V1.4999999999999998H53.3C56.959599999999995,1.4999999999999998,60.0725,3.8344999999999994,61.224,7.1H125.40350000000001C126.94989729952623,7.1,128.20350000000002,8.353602700473777,128.20350000000002,9.899999999999999V16.9H123.53800000000003C122.39490000000002,13.6191,119.27360000000003,11.299999999999999,115.60350000000003,11.299999999999999H102.30350000000003V12.559999999999999C102.30350000000003,14.10639729952622,101.04989729952625,15.36,99.50350000000003,15.36H88.30350000000003C86.75710270047381,15.36,85.50350000000003,14.10639729952622,85.50350000000003,12.559999999999999V11.299999999999999H71.50350000000003C66.86430810142137,11.299999999999999,63.10350000000003,15.06080810142133,63.10350000000003,19.699999999999996V33.699999999999996C63.10350000000003,38.33919189857866,59.3426918985787,42.099999999999994,54.703500000000034,42.099999999999994H9.903500000000037C5.2643081014213715,42.099999999999994,1.503500000000038,38.33919189857866,1.503500000000038,33.699999999999996z"/><path fill="url(#forever_orange1)" stroke="none" d="M1.5,9.899999999999999C1.5,5.2608081014213335,5.2608081014213335,1.5,9.899999999999999,1.5H22.5V2.76C22.5,4.306397299526221,23.753602700473778,5.56,25.3,5.56H37.9C39.44639729952622,5.56,40.699999999999996,4.306397299526221,40.699999999999996,2.76V1.4999999999999998H53.3C56.959599999999995,1.4999999999999998,60.0725,3.8344999999999994,61.224,7.1H125.40350000000001C126.94989729952623,7.1,128.20350000000002,8.353602700473777,128.20350000000002,9.899999999999999V16.9H123.53800000000003C122.39490000000002,13.6191,119.27360000000003,11.299999999999999,115.60350000000003,11.299999999999999H102.30350000000003V12.559999999999999C102.30350000000003,14.10639729952622,101.04989729952625,15.36,99.50350000000003,15.36H88.30350000000003C86.75710270047381,15.36,85.50350000000003,14.10639729952622,85.50350000000003,12.559999999999999V11.299999999999999H71.50350000000003C66.86430810142137,11.299999999999999,63.10350000000003,15.06080810142133,63.10350000000003,19.699999999999996V33.699999999999996C63.10350000000003,38.33919189857866,59.3426918985787,42.099999999999994,54.703500000000034,42.099999999999994H9.903500000000037C5.2643081014213715,42.099999999999994,1.503500000000038,38.33919189857866,1.503500000000038,33.699999999999996z"/></g><linearGradient x1="20" y1="0" x2="64" y2="64" gradientUnits="userSpaceOnUse" id="forever_orange1"><stop offset="0.0" stop-color="#ffdf60" stop-opacity="1"/><stop offset="1.0" stop-color="#ffbb00" stop-opacity="1"/></linearGradient></svg>