<?xml version="1.0" encoding="UTF-8" standalone="no"?>
<!-- Generator: Adobe Illustrator 23.1.1, SVG Export Plug-In . SVG Version: 6.00 Build 0)  -->

<svg
   version="1.1"
   id="Layer_1"
   x="0px"
   y="0px"
   width="119.5634"
   height="40.189999"
   viewBox="0 0 119.5634 40.189998"
   enable-background="new 0 0 65.5 40.2"
   xml:space="preserve"
   sodipodi:docname="forward100.svg"
   inkscape:version="1.2.2 (b0a8486541, 2022-12-01)"
   xmlns:inkscape="http://www.inkscape.org/namespaces/inkscape"
   xmlns:sodipodi="http://sodipodi.sourceforge.net/DTD/sodipodi-0.dtd"
   xmlns="http://www.w3.org/2000/svg"
   xmlns:svg="http://www.w3.org/2000/svg"><defs
   id="defs373"><linearGradient
     id="SVGID_1_-5"
     gradientUnits="userSpaceOnUse"
     x1="-0.01455573"
     y1="587.77692"
     x2="80.985397"
     y2="616.5769"
     gradientTransform="translate(54.673394,-581.44325)">
			<stop
   offset="0"
   style="stop-color:#FCC4F9"
   id="stop491" />
			<stop
   offset="1"
   style="stop-color:#F991F3"
   id="stop493" />
		</linearGradient></defs><sodipodi:namedview
   id="namedview371"
   pagecolor="#ffffff"
   bordercolor="#000000"
   borderopacity="0.25"
   inkscape:showpageshadow="2"
   inkscape:pageopacity="0.0"
   inkscape:pagecheckerboard="0"
   inkscape:deskcolor="#d1d1d1"
   showgrid="false"
   inkscape:zoom="7.2029906"
   inkscape:cx="32.764169"
   inkscape:cy="20.338774"
   inkscape:window-width="1920"
   inkscape:window-height="1019"
   inkscape:window-x="0"
   inkscape:window-y="37"
   inkscape:window-maximized="1"
   inkscape:current-layer="g366"
   showguides="true"><sodipodi:guide
     position="32.195184,22.03291"
     orientation="0,-1"
     id="guide442"
     inkscape:locked="false" /></sodipodi:namedview>
<g
   id="g368"
   transform="translate(0.04499999,0.04499999)">
	<g
   id="g366">
		<path
   fill="none"
   stroke="#00a500"
   stroke-width="1.89"
   stroke-miterlimit="10"
   d="M 0.9,8.5 C 0.9,4.4 4.3,0.9 8.5,0.9 h 11.3 v 1.2 c 0,1.4 1.2,2.5 2.5,2.5 h 11.3 c 1.3,0 2.5,-1.2 2.5,-2.5 V 0.9 h 11.3 c 3.3,0 6.1,2.1 7.1,5 h 4.2 c 3.1,0 5.7,2.5 5.7,5.7 v 1.3 H 61.2 V 11.6 C 61.2,10.2 60,9.1 58.7,9.1 h -1.3 c -1.4,0 -2.5,1.2 -2.5,2.5 v 13.2 c 0,1.4 1.2,2.5 2.5,2.5 h 1.3 c 1.3,0 2.5,-1.2 2.5,-2.5 v -1.3 h 3.2 v 1.3 c 0,3.1 -2.5,5.7 -5.7,5.7 h -4.2 c -1,3 -3.8,5 -7.1,5 h -12 v 1.2 c 0,1.3 -1.2,2.5 -2.5,2.5 H 23 c -1.4,0 -2.5,-1.2 -2.5,-2.5 v -1.2 h -12 c -4.1,0 -7.6,-3.4 -7.6,-7.6 0,0 0,-19.4 0,-19.4 z"
   id="path355" />
		
			<linearGradient
   id="SVGID_1_"
   gradientUnits="userSpaceOnUse"
   x1="22.330799"
   y1="590.79437"
   x2="42.130798"
   y2="633.99438"
   gradientTransform="translate(0,-593.37)">
			<stop
   offset="0"
   style="stop-color:#A1FF72"
   id="stop357" />
			<stop
   offset="1"
   style="stop-color:#00F200"
   id="stop359" />
		</linearGradient>
		<path
   fill="url(#SVGID_1_)"
   d="M 0.9,8.5 C 0.9,4.4 4.3,0.9 8.5,0.9 h 11.3 v 1.2 c 0,1.4 1.2,2.5 2.5,2.5 h 11.3 c 1.3,0 2.5,-1.2 2.5,-2.5 V 0.9 h 11.3 c 3.3,0 6.1,2.1 7.1,5 h 4.2 c 3.1,0 5.7,2.5 5.7,5.7 v 1.3 H 61.2 V 11.6 C 61.2,10.2 60,9.1 58.7,9.1 h -1.3 c -1.4,0 -2.5,1.2 -2.5,2.5 v 13.2 c 0,1.4 1.2,2.5 2.5,2.5 h 1.3 c 1.3,0 2.5,-1.2 2.5,-2.5 v -1.3 h 3.2 v 1.3 c 0,3.1 -2.5,5.7 -5.7,5.7 h -4.2 c -1,3 -3.8,5 -7.1,5 h -12 v 1.2 c 0,1.3 -1.2,2.5 -2.5,2.5 H 23 c -1.4,0 -2.5,-1.2 -2.5,-2.5 v -1.2 h -12 c -4.1,0 -7.6,-3.4 -7.6,-7.6 0,0 0,-19.4 0,-19.4 z"
   id="path362"
   style="fill:url(#SVGID_1_)" />
		<text
   fill="#128c12"
   font-family="Verdana"
   font-size="11.7px"
   id="text364"
   x="6.2198954"
   y="21.655138">вперед</text>
	<path
   fill="none"
   stroke="#cc66b9"
   stroke-width="1.89"
   stroke-miterlimit="10"
   d="m 55.573394,12.536751 c 0,-1.2 1,-2.2 2.2,-2.2 h 0.6 c 1.3,0 2.3,1 2.3,2.2 v 1.6 h 5 v -2.8 c 0,-1.4000002 1.1,-2.5000002 2.5,-2.5000002 H 116.0734 c 1.4,0 2.5,1.1 2.5,2.5000002 v 14.5 c 0,1.4 -1.1,2.5 -2.5,2.5 H 68.173394 c -1.4,0 -2.5,-1.1 -2.5,-2.5 v -2.8 h -5 v 1.6 c 0,1.2 -1,2.2 -2.2,2.2 h -0.6 c -1.2,0 -2.2,-1 -2.2,-2.2 v -12.1 z"
   id="path489" /><path
   fill="url(#SVGID_1_)"
   d="m 55.573394,12.536751 c 0,-1.2 1,-2.2 2.2,-2.2 h 0.6 c 1.3,0 2.3,1 2.3,2.2 v 1.6 h 5 v -2.8 c 0,-1.4000002 1.1,-2.5000002 2.5,-2.5000002 H 116.0734 c 1.4,0 2.5,1.1 2.5,2.5000002 v 14.5 c 0,1.4 -1.1,2.5 -2.5,2.5 H 68.173394 c -1.4,0 -2.5,-1.1 -2.5,-2.5 v -2.8 h -5 v 1.6 c 0,1.2 -1,2.2 -2.2,2.2 h -0.6 c -1.2,0 -2.2,-1 -2.2,-2.2 v -12.1 z"
   id="path496"
   style="fill:url(#SVGID_1_-5)" /><text
   x="91.573395"
   y="22.636751"
   alignment-baseline="middle"
   text-anchor="middle"
   fill="#8c2a6e"
   font-family="Verdana"
   font-size="11.7px"
   id="text498">100</text></g>
</g>
</svg>
