<svg xmlns="http://www.w3.org/2000/svg" version="1.1" width="86.7998" height="55.85979999999999" viewBox="0 0 86.7998 55.85979999999999"><g><path fill="none" stroke="#bfaf00" stroke-width="3" stroke-miterlimit="10" d="M5.4998000000000005,41.8998C5.4998000000000005,21.7972,25.296499999999998,5.4998000000000005,45.3998,5.4998000000000005C65.5031,5.4998000000000005,85.2998,21.796499999999998,85.2998,41.8998C85.2998,46.538991898578665,81.53899189857866,50.2998,76.8998,50.2998H53.799800000000005V51.559799999999996C53.799800000000005,53.106197299526215,52.54619729952623,54.35979999999999,50.99980000000001,54.35979999999999H39.799800000000005C38.253402700473785,54.35979999999999,36.99980000000001,53.106197299526215,36.99980000000001,51.559799999999996V50.2998H13.89980000000001C9.260608101421344,50.2998,5.499800000000011,46.538991898578665,5.499800000000011,41.8998z"/><path fill="url(#hat0_yellow)" stroke="none" d="M5.4998000000000005,41.8998C5.4998000000000005,21.7972,25.296499999999998,5.4998000000000005,45.3998,5.4998000000000005C65.5031,5.4998000000000005,85.2998,21.796499999999998,85.2998,41.8998C85.2998,46.538991898578665,81.53899189857866,50.2998,76.8998,50.2998H53.799800000000005V51.559799999999996C53.799800000000005,53.106197299526215,52.54619729952623,54.35979999999999,50.99980000000001,54.35979999999999H39.799800000000005C38.253402700473785,54.35979999999999,36.99980000000001,53.106197299526215,36.99980000000001,51.559799999999996V50.2998H13.89980000000001C9.260608101421344,50.2998,5.499800000000011,46.538991898578665,5.499800000000011,41.8998z"/></g><linearGradient x1="20" y1="0" x2="42" y2="48" gradientUnits="userSpaceOnUse" id="hat0_yellow"><stop offset="0.0" stop-color="#ffff72" stop-opacity="1"/><stop offset="1.0" stop-color="#fff600" stop-opacity="1"/></linearGradient></svg>