<svg xmlns="http://www.w3.org/2000/svg" version="1.1" width="86.7998" height="82.4598" viewBox="0 0 86.7998 82.4598"><g><path fill="none" stroke="#bfaf00" stroke-width="3" stroke-miterlimit="10" d="M5.4998000000000005,41.8998C5.4998000000000005,21.7972,25.296499999999998,5.4998000000000005,45.3998,5.4998000000000005C65.5031,5.4998000000000005,85.2998,21.796499999999998,85.2998,41.8998C85.2998,46.538991898578665,81.53899189857866,50.2998,76.8998,50.2998H75.4998V68.4998C75.4998,73.13899189857865,71.73899189857865,76.8998,67.09979999999999,76.8998H53.79979999999999V78.1598C53.79979999999999,79.70619729952622,52.54619729952621,80.9598,50.99979999999999,80.9598H39.79979999999999C38.25340270047377,80.9598,36.99979999999999,79.70619729952622,36.99979999999999,78.1598V76.8998H23.699799999999996C19.06060810142133,76.8998,15.299799999999998,73.13899189857865,15.299799999999998,68.4998V50.29979999999999H13.899799999999997C9.260608101421333,50.29979999999999,5.499799999999999,46.53899189857866,5.499799999999999,41.89979999999999z"/><path fill="url(#hat1_yellow)" stroke="none" d="M5.4998000000000005,41.8998C5.4998000000000005,21.7972,25.296499999999998,5.4998000000000005,45.3998,5.4998000000000005C65.5031,5.4998000000000005,85.2998,21.796499999999998,85.2998,41.8998C85.2998,46.538991898578665,81.53899189857866,50.2998,76.8998,50.2998H75.4998V68.4998C75.4998,73.13899189857865,71.73899189857865,76.8998,67.09979999999999,76.8998H53.79979999999999V78.1598C53.79979999999999,79.70619729952622,52.54619729952621,80.9598,50.99979999999999,80.9598H39.79979999999999C38.25340270047377,80.9598,36.99979999999999,79.70619729952622,36.99979999999999,78.1598V76.8998H23.699799999999996C19.06060810142133,76.8998,15.299799999999998,73.13899189857865,15.299799999999998,68.4998V50.29979999999999H13.899799999999997C9.260608101421333,50.29979999999999,5.499799999999999,46.53899189857866,5.499799999999999,41.89979999999999z"/></g><linearGradient x1="20" y1="0" x2="42" y2="48" gradientUnits="userSpaceOnUse" id="hat1_yellow"><stop offset="0.0" stop-color="#ffff72" stop-opacity="1"/><stop offset="1.0" stop-color="#fff600" stop-opacity="1"/></linearGradient></svg>