<svg xmlns="http://www.w3.org/2000/svg" version="1.1" width="86.7998" height="108.3598" viewBox="0 0 86.7998 108.3598"><g><path fill="none" stroke="#bfaf00" stroke-width="3" stroke-miterlimit="10" d="M5.4998000000000005,41.8998C5.4998000000000005,21.7972,25.296499999999998,5.4998000000000005,45.3998,5.4998000000000005C65.5031,5.4998000000000005,85.2998,21.796499999999998,85.2998,41.8998C85.2998,46.538991898578665,81.53899189857866,50.2998,76.8998,50.2998H75.4998V94.3998C75.4998,99.03899189857866,71.73899189857865,102.7998,67.09979999999999,102.7998H53.79979999999999V104.05980000000001C53.79979999999999,105.60619729952623,52.54619729952621,106.8598,50.99979999999999,106.8598H39.79979999999999C38.25340270047377,106.8598,36.99979999999999,105.60619729952623,36.99979999999999,104.05980000000001V102.7998H23.699799999999996C19.06060810142133,102.7998,15.299799999999998,99.03899189857866,15.299799999999998,94.3998V50.299800000000005H13.899799999999997C9.260608101421333,50.299800000000005,5.499799999999999,46.53899189857867,5.499799999999999,41.899800000000006z"/><path fill="url(#hat2_yellow)" stroke="none" d="M5.4998000000000005,41.8998C5.4998000000000005,21.7972,25.296499999999998,5.4998000000000005,45.3998,5.4998000000000005C65.5031,5.4998000000000005,85.2998,21.796499999999998,85.2998,41.8998C85.2998,46.538991898578665,81.53899189857866,50.2998,76.8998,50.2998H75.4998V94.3998C75.4998,99.03899189857866,71.73899189857865,102.7998,67.09979999999999,102.7998H53.79979999999999V104.05980000000001C53.79979999999999,105.60619729952623,52.54619729952621,106.8598,50.99979999999999,106.8598H39.79979999999999C38.25340270047377,106.8598,36.99979999999999,105.60619729952623,36.99979999999999,104.05980000000001V102.7998H23.699799999999996C19.06060810142133,102.7998,15.299799999999998,99.03899189857866,15.299799999999998,94.3998V50.299800000000005H13.899799999999997C9.260608101421333,50.299800000000005,5.499799999999999,46.53899189857867,5.499799999999999,41.899800000000006z"/></g><linearGradient x1="20" y1="0" x2="42" y2="48" gradientUnits="userSpaceOnUse" id="hat2_yellow"><stop offset="0.0" stop-color="#ffff72" stop-opacity="1"/><stop offset="1.0" stop-color="#fff600" stop-opacity="1"/></linearGradient></svg>