<?xml version="1.0" encoding="utf-8"?>
<!-- Generator: Adobe Illustrator 15.0.0, SVG Export Plug-In . SVG Version: 6.00 Build 0)  -->
<!DOCTYPE svg PUBLIC "-//W3C//DTD SVG 1.1//EN" "http://www.w3.org/Graphics/SVG/1.1/DTD/svg11.dtd">
<svg version="1.1" id="Layer_1" xmlns="http://www.w3.org/2000/svg" xmlns:xlink="http://www.w3.org/1999/xlink" x="0px" y="0px"
	 width="140.2px" height="47.8px" viewBox="0 0 140.2 47.8" enable-background="new 0 0 140.2 47.8" xml:space="preserve">
<g>
	<path fill="none" stroke="#CC7E02" stroke-width="3" stroke-miterlimit="10" d="M70.1,1.5c-1.546,0-2.8,1.253-2.8,2.8v8.4h-4.666
		C61.491,9.419,58.37,7.1,54.7,7.1H41.4v1.26c0,1.546-1.253,2.8-2.8,2.8H27.4c-1.546,0-2.8-1.254-2.8-2.8V7.1h-14
		c-4.639,0-8.4,3.761-8.4,8.4v22.4c0,4.639,3.761,8.4,8.4,8.4h54.6c4.639,0,8.4-3.762,8.4-8.4V14.8c0-4.639,3.761-8.4,8.4-8.4h14
		v1.26c0,1.546,1.253,2.8,2.799,2.8H110c1.546,0,2.799-1.253,2.799-2.8V6.4H126.1c3.391,0,6.312,2.007,7.639,4.9h4.961v-7
		c0-1.546-1.254-2.8-2.8-2.8H70.1z"/>
	
		<linearGradient id="SVGID_1_" gradientUnits="userSpaceOnUse" x1="28.5229" y1="54.4995" x2="50.5231" y2="6.4991" gradientTransform="matrix(1 0 0 -1 24.9448 39.1592)">
		<stop  offset="0" style="stop-color:#FFDF60"/>
		<stop  offset="1" style="stop-color:#FFBB00"/>
	</linearGradient>
	<path fill="url(#SVGID_1_)" d="M70.1,1.5c-1.546,0-2.8,1.253-2.8,2.8v8.4h-4.666C61.491,9.419,58.37,7.1,54.7,7.1H41.4v1.26
		c0,1.546-1.253,2.8-2.8,2.8H27.4c-1.546,0-2.8-1.254-2.8-2.8V7.1h-14c-4.639,0-8.4,3.761-8.4,8.4v22.4c0,4.639,3.761,8.4,8.4,8.4
		h54.6c4.639,0,8.4-3.762,8.4-8.4V14.8c0-4.639,3.761-8.4,8.4-8.4h14v1.26c0,1.546,1.253,2.8,2.799,2.8H110
		c1.546,0,2.799-1.253,2.799-2.8V6.4H126.1c3.391,0,6.312,2.007,7.639,4.9h4.961v-7c0-1.546-1.254-2.8-2.8-2.8H70.1z"/>
</g>
<g>
	<g>
		<path fill="#CC7E02" d="M58.588,28.082c0,0.312-0.145,0.604-0.391,0.793l-7.681,5.912c-0.302,0.232-0.709,0.272-1.052,0.104
			c-0.342-0.168-0.559-0.521-0.559-0.896V22.169c0-0.383,0.217-0.729,0.559-0.896c0.343-0.167,0.75-0.128,1.052,0.104l7.681,5.909
			C58.445,27.478,58.588,27.771,58.588,28.082z"/>
		<path fill="#CC7E02" d="M43.6,28.4c0,1.6-1.301,2.9-2.9,2.9c-1.599,0-2.9-1.306-2.9-2.9s1.301-2.897,2.9-2.897
			C42.299,25.502,43.6,26.801,43.6,28.4z"/>
		<path fill="#CC7E02" d="M32.6,28.4c0,1.6-1.301,2.9-2.9,2.9c-1.599,0-2.9-1.306-2.9-2.9s1.301-2.897,2.9-2.897
			C31.299,25.502,32.6,26.801,32.6,28.4z"/>
		<path fill="#CC7E02" d="M21.6,28.4c0,1.6-1.301,2.9-2.9,2.9c-1.599,0-2.9-1.306-2.9-2.9s1.301-2.897,2.9-2.897
			C20.299,25.502,21.6,26.801,21.6,28.4z"/>
	</g>
</g>
</svg>
