<svg xmlns="http://www.w3.org/2000/svg" version="1.1" width="140.2035" height="93.85999999999999" viewBox="0 0 140.2035 93.85999999999999"><g><path fill="none" stroke="#cc7e02" stroke-width="3" stroke-miterlimit="10" d="M1.5,9.899999999999999C1.5,5.2608081014213335,5.2608081014213335,1.5,9.899999999999999,1.5H22.5V2.76C22.5,4.306397299526221,23.753602700473778,5.56,25.3,5.56H37.9C39.44639729952622,5.56,40.699999999999996,4.306397299526221,40.699999999999996,2.76V1.4999999999999998H53.3C56.959599999999995,1.4999999999999998,60.0725,3.8344999999999994,61.224,7.1H75.70349999999999C77.24989729952621,7.1,78.50349999999999,8.353602700473777,78.50349999999999,9.899999999999999C69.22511620284266,9.899999999999999,61.70349999999999,17.421616202842664,61.70349999999999,26.699999999999996C61.70349999999999,35.97838379715733,69.22511620284266,43.49999999999999,78.50349999999999,43.49999999999999H135.90349999999998C137.4498972995262,43.49999999999999,138.7035,44.75360270047377,138.7035,46.29999999999999V53.29999999999999H134.03799999999998C132.89489999999998,50.01909999999999,129.7736,47.69999999999999,126.10349999999998,47.69999999999999H112.80349999999999V48.95999999999999C112.80349999999999,50.506397299526206,111.54989729952621,51.759999999999984,110.00349999999999,51.759999999999984H98.80349999999999C97.25710270047377,51.759999999999984,96.00349999999999,50.506397299526206,96.00349999999999,48.95999999999999V47.69999999999999H82.00349999999999C77.36430810142133,47.69999999999999,73.6035,51.46080810142132,73.6035,56.09999999999999V79.89999999999998C73.6035,84.53919189857864,69.84269189857865,88.29999999999998,65.20349999999999,88.29999999999998H40.00349999999999V89.55999999999999C40.00349999999999,91.10639729952621,38.74989729952621,92.35999999999999,37.20349999999999,92.35999999999999H26.003499999999992C24.45710270047377,92.35999999999999,23.20349999999999,91.10639729952621,23.20349999999999,89.55999999999999V88.29999999999998H9.903499999999992C5.264308101421327,88.29999999999998,1.5034999999999936,84.53919189857864,1.5034999999999936,79.89999999999998z"/><path fill="url(#if_orange2)" stroke="none" d="M1.5,9.899999999999999C1.5,5.2608081014213335,5.2608081014213335,1.5,9.899999999999999,1.5H22.5V2.76C22.5,4.306397299526221,23.753602700473778,5.56,25.3,5.56H37.9C39.44639729952622,5.56,40.699999999999996,4.306397299526221,40.699999999999996,2.76V1.4999999999999998H53.3C56.959599999999995,1.4999999999999998,60.0725,3.8344999999999994,61.224,7.1H75.70349999999999C77.24989729952621,7.1,78.50349999999999,8.353602700473777,78.50349999999999,9.899999999999999C69.22511620284266,9.899999999999999,61.70349999999999,17.421616202842664,61.70349999999999,26.699999999999996C61.70349999999999,35.97838379715733,69.22511620284266,43.49999999999999,78.50349999999999,43.49999999999999H135.90349999999998C137.4498972995262,43.49999999999999,138.7035,44.75360270047377,138.7035,46.29999999999999V53.29999999999999H134.03799999999998C132.89489999999998,50.01909999999999,129.7736,47.69999999999999,126.10349999999998,47.69999999999999H112.80349999999999V48.95999999999999C112.80349999999999,50.506397299526206,111.54989729952621,51.759999999999984,110.00349999999999,51.759999999999984H98.80349999999999C97.25710270047377,51.759999999999984,96.00349999999999,50.506397299526206,96.00349999999999,48.95999999999999V47.69999999999999H82.00349999999999C77.36430810142133,47.69999999999999,73.6035,51.46080810142132,73.6035,56.09999999999999V79.89999999999998C73.6035,84.53919189857864,69.84269189857865,88.29999999999998,65.20349999999999,88.29999999999998H40.00349999999999V89.55999999999999C40.00349999999999,91.10639729952621,38.74989729952621,92.35999999999999,37.20349999999999,92.35999999999999H26.003499999999992C24.45710270047377,92.35999999999999,23.20349999999999,91.10639729952621,23.20349999999999,89.55999999999999V88.29999999999998H9.903499999999992C5.264308101421327,88.29999999999998,1.5034999999999936,84.53919189857864,1.5034999999999936,79.89999999999998z"/></g><linearGradient x1="20" y1="0" x2="64" y2="98" gradientUnits="userSpaceOnUse" id="if_orange2"><stop offset="0.0" stop-color="#ffdf60" stop-opacity="1"/><stop offset="1.0" stop-color="#ffbb00" stop-opacity="1"/></linearGradient></svg>