<svg xmlns="http://www.w3.org/2000/svg" version="1.1" width="72.99999999999999" height="24.7" viewBox="0 0 72.99999999999999 24.7"><g><path fill="none" stroke="#04a2b2" stroke-width="3" stroke-miterlimit="10" d="M1.5,5.699999999999999C1.5,4.346902362914555,2.5969023629145553,3.2499999999999996,3.9499999999999997,3.2499999999999996H4.6499999999999995C6.003097637085443,3.2499999999999996,7.1,4.346902362914555,7.1,5.699999999999999V7.449999999999999H12.7V4.299999999999999C12.7,2.753602700473777,13.953602700473779,1.4999999999999991,15.5,1.4999999999999991H68.69999999999999C70.24639729952621,1.4999999999999991,71.49999999999999,2.753602700473777,71.49999999999999,4.299999999999999V20.4C71.49999999999999,21.94639729952622,70.24639729952621,23.2,68.69999999999999,23.2H15.499999999999993C13.953602700473771,23.2,12.699999999999992,21.94639729952622,12.699999999999992,20.4V17.25H7.0999999999999925V19C7.0999999999999925,20.353097637085444,6.003097637085437,21.45,4.649999999999993,21.45H3.949999999999993C2.596902362914549,21.45,1.4999999999999933,20.353097637085444,1.4999999999999933,19z"/><path fill="url(#input_cyan)" stroke="none" d="M1.5,5.699999999999999C1.5,4.346902362914555,2.5969023629145553,3.2499999999999996,3.9499999999999997,3.2499999999999996H4.6499999999999995C6.003097637085443,3.2499999999999996,7.1,4.346902362914555,7.1,5.699999999999999V7.449999999999999H12.7V4.299999999999999C12.7,2.753602700473777,13.953602700473779,1.4999999999999991,15.5,1.4999999999999991H68.69999999999999C70.24639729952621,1.4999999999999991,71.49999999999999,2.753602700473777,71.49999999999999,4.299999999999999V20.4C71.49999999999999,21.94639729952622,70.24639729952621,23.2,68.69999999999999,23.2H15.499999999999993C13.953602700473771,23.2,12.699999999999992,21.94639729952622,12.699999999999992,20.4V17.25H7.0999999999999925V19C7.0999999999999925,20.353097637085444,6.003097637085437,21.45,4.649999999999993,21.45H3.949999999999993C2.596902362914549,21.45,1.4999999999999933,20.353097637085444,1.4999999999999933,19z"/></g><linearGradient x1="20" y1="0" x2="42" y2="48" gradientUnits="userSpaceOnUse" id="input_cyan"><stop offset="0.0" stop-color="#8effff" stop-opacity="1"/><stop offset="1.0" stop-color="#00f0ff" stop-opacity="1"/></linearGradient></svg>