<?xml version="1.0" encoding="utf-8"?>
<!-- Generator: Adobe Illustrator 15.0.0, SVG Export Plug-In . SVG Version: 6.00 Build 0)  -->
<!DOCTYPE svg PUBLIC "-//W3C//DTD SVG 1.1//EN" "http://www.w3.org/Graphics/SVG/1.1/DTD/svg11.dtd">
<svg version="1.1" id="Layer_1" xmlns="http://www.w3.org/2000/svg" xmlns:xlink="http://www.w3.org/1999/xlink" x="0px" y="0px"
	 width="81px" height="32.7px" viewBox="0 0 81 32.7" enable-background="new 0 0 81 32.7" xml:space="preserve">
<g>
	<path opacity="0.55" fill="#D855BF" enable-background="new    " d="M72.7,5.5c1.546,0,2.8,1.253,2.8,2.799v16.1
		c0,1.547-1.254,2.801-2.8,2.801H19.5c-1.547,0-2.8-1.254-2.8-2.801V21.25H11.1V23c0,1.352-1.097,2.449-2.449,2.449h-0.7
		C6.597,25.45,5.5,24.352,5.5,23V9.699c0-1.354,1.097-2.449,2.45-2.449h0.7c1.353,0,2.449,1.096,2.449,2.449v1.75H16.7v-3.15
		c0-1.546,1.253-2.799,2.8-2.799H72.7 M72.7,4H19.5c-2.371,0-4.3,1.928-4.3,4.299v1.65H12.6v-0.25c0-2.178-1.771-3.949-3.949-3.949
		h-0.7C5.771,5.75,4,7.521,4,9.699V23c0,2.178,1.771,3.949,3.95,3.949h0.7c2.178,0,3.949-1.771,3.949-3.949v-0.25H15.2v1.648
		c0,2.371,1.929,4.301,4.3,4.301h53.2c2.371,0,4.3-1.93,4.3-4.301v-16.1C77,5.928,75.071,4,72.7,4L72.7,4z"/>
	<path opacity="0.75" fill="#00C8F8" enable-background="new    " d="M72.7,5.5c1.546,0,2.8,1.253,2.8,2.799v16.1
		c0,1.547-1.254,2.801-2.8,2.801H19.5c-1.547,0-2.8-1.254-2.8-2.801V21.25H11.1V23c0,1.352-1.097,2.449-2.449,2.449h-0.7
		C6.597,25.45,5.5,24.352,5.5,23V9.699c0-1.354,1.097-2.449,2.45-2.449h0.7c1.353,0,2.449,1.096,2.449,2.449v1.75H16.7v-3.15
		c0-1.546,1.253-2.799,2.8-2.799H72.7 M72.7,0H19.5c-2.602,0-4.927,1.203-6.449,3.082C11.789,2.24,10.276,1.75,8.65,1.75h-0.7
		C3.566,1.75,0,5.316,0,9.699V23c0,4.383,3.566,7.949,7.95,7.949h0.7c1.626,0,3.139-0.49,4.4-1.332
		c1.522,1.879,3.848,3.082,6.449,3.082h53.2c4.576,0,8.3-3.723,8.3-8.301v-16.1C81,3.723,77.276,0,72.7,0L72.7,0z"/>
</g>
</svg>
