<svg xmlns="http://www.w3.org/2000/svg" version="1.1" width="56.19999999999999" height="24.7" viewBox="0 0 56.19999999999999 24.7"><g><path fill="none" stroke="#bfaf00" stroke-width="3" stroke-miterlimit="10" d="M1.5,4.3C1.5,2.753602700473778,2.753602700473778,1.5,4.3,1.5H51.89999999999999C53.44639729952621,1.5,54.69999999999999,2.753602700473778,54.69999999999999,4.3V20.4C54.69999999999999,21.94639729952622,53.44639729952621,23.2,51.89999999999999,23.2H4.299999999999997C2.7536027004737753,23.2,1.4999999999999973,21.94639729952622,1.4999999999999973,20.4V4.300000000000001z"/><path fill="url(#local_yellow)" stroke="none" d="M1.5,4.3C1.5,2.753602700473778,2.753602700473778,1.5,4.3,1.5H51.89999999999999C53.44639729952621,1.5,54.69999999999999,2.753602700473778,54.69999999999999,4.3V20.4C54.69999999999999,21.94639729952622,53.44639729952621,23.2,51.89999999999999,23.2H4.299999999999997C2.7536027004737753,23.2,1.4999999999999973,21.94639729952622,1.4999999999999973,20.4V4.300000000000001z"/></g><linearGradient x1="20" y1="0" x2="42" y2="48" gradientUnits="userSpaceOnUse" id="local_yellow"><stop offset="0.0" stop-color="#ffff72" stop-opacity="1"/><stop offset="1.0" stop-color="#fff600" stop-opacity="1"/></linearGradient></svg>