<svg xmlns="http://www.w3.org/2000/svg" version="1.1" width="44.99999999999999" height="34.5" viewBox="0 0 44.99999999999999 34.5"><g><path fill="none" stroke="#cc66b9" stroke-width="3" stroke-miterlimit="10" d="M1.5,5.699999999999999C1.5,3.3804040507106667,3.3804040507106667,1.5,5.699999999999999,1.5H35.099999999999994C39.73919189857866,1.5,43.49999999999999,5.2608081014213335,43.49999999999999,9.899999999999999V11.299999999999999H39.99999999999999V9.899999999999999C39.99999999999999,8.353602700473777,38.746397299526215,7.099999999999999,37.199999999999996,7.099999999999999H35.8C34.25360270047378,7.099999999999999,33,8.353602700473777,33,9.899999999999999V24.599999999999998C33,26.14639729952622,34.25360270047378,27.4,35.8,27.4H37.199999999999996C38.746397299526215,27.4,39.99999999999999,26.14639729952622,39.99999999999999,24.599999999999998V23.2H43.49999999999999V24.599999999999998C43.49999999999999,29.239191898578664,39.73919189857866,33,35.099999999999994,33H5.699999999999996C3.380404050710663,33,1.4999999999999964,31.119595949289334,1.4999999999999964,28.8H8.499999999999996C10.046397299526218,28.8,11.299999999999997,27.546397299526223,11.299999999999997,26V8.5C11.299999999999997,6.953602700473779,10.046397299526218,5.7,8.499999999999996,5.7H1.4999999999999964z"/><path fill="url(#math_pink)" stroke="none" d="M1.5,5.699999999999999C1.5,3.3804040507106667,3.3804040507106667,1.5,5.699999999999999,1.5H35.099999999999994C39.73919189857866,1.5,43.49999999999999,5.2608081014213335,43.49999999999999,9.899999999999999V11.299999999999999H39.99999999999999V9.899999999999999C39.99999999999999,8.353602700473777,38.746397299526215,7.099999999999999,37.199999999999996,7.099999999999999H35.8C34.25360270047378,7.099999999999999,33,8.353602700473777,33,9.899999999999999V24.599999999999998C33,26.14639729952622,34.25360270047378,27.4,35.8,27.4H37.199999999999996C38.746397299526215,27.4,39.99999999999999,26.14639729952622,39.99999999999999,24.599999999999998V23.2H43.49999999999999V24.599999999999998C43.49999999999999,29.239191898578664,39.73919189857866,33,35.099999999999994,33H5.699999999999996C3.380404050710663,33,1.4999999999999964,31.119595949289334,1.4999999999999964,28.8H8.499999999999996C10.046397299526218,28.8,11.299999999999997,27.546397299526223,11.299999999999997,26V8.5C11.299999999999997,6.953602700473779,10.046397299526218,5.7,8.499999999999996,5.7H1.4999999999999964z"/></g><linearGradient x1="0" y1="0" x2="90" y2="32" gradientUnits="userSpaceOnUse" id="math_pink"><stop offset="0.0" stop-color="#fcc4f9" stop-opacity="1"/><stop offset="1.0" stop-color="#f991f3" stop-opacity="1"/></linearGradient></svg>