<svg xmlns="http://www.w3.org/2000/svg" version="1.1" width="180.79999999999998" height="44.29999999999999" viewBox="0 0 180.79999999999998 44.29999999999999"><g><path fill="none" stroke="#cc66b9" stroke-width="3" stroke-miterlimit="10" d="M1.5,19.7C1.5,18.346902362914555,2.5969023629145553,17.25,3.9499999999999997,17.25H4.6499999999999995C6.003097637085443,17.25,7.1,18.346902362914555,7.1,19.7V21.45H12.7V18.3V12C12.7,6.2010101267766675,17.40101012677667,1.5,23.2,1.5H158.99999999999997C164.7989898732233,1.5,169.49999999999997,6.2010101267766675,169.49999999999997,12V15.5H176.49999999999997C178.0463972995262,15.5,179.29999999999998,16.753602700473778,179.29999999999998,18.3V34.4C179.29999999999998,35.94639729952622,178.0463972995262,37.199999999999996,176.49999999999997,37.199999999999996H169.49999999999997V39.99999999999999C169.49999999999997,41.54639729952621,168.2463972995262,42.79999999999999,166.69999999999996,42.79999999999999H15.499999999999972C13.95360270047375,42.79999999999999,12.69999999999997,41.54639729952621,12.69999999999997,39.99999999999999V34.39999999999999V31.249999999999993H7.099999999999971V32.99999999999999C7.099999999999971,34.35309763708544,6.003097637085416,35.449999999999996,4.649999999999972,35.449999999999996H3.9499999999999718C2.596902362914528,35.449999999999996,1.499999999999972,34.35309763708544,1.499999999999972,32.99999999999999zM20.4,16.9C19.046902362914555,16.9,17.95,17.996902362914554,17.95,19.349999999999998V32.65C17.95,34.003097637085446,19.046902362914555,35.1,20.4,35.1H21.099999999999998C22.453097637085442,35.1,23.549999999999997,34.003097637085446,23.549999999999997,32.65V30.9H29.15V34.05C29.15,35.59639729952622,30.403602700473776,36.849999999999994,31.95,36.849999999999994H85.14999999999999C86.69639729952621,36.849999999999994,87.94999999999999,35.59639729952622,87.94999999999999,34.05V17.95C87.94999999999999,16.403602700473776,86.69639729952621,15.149999999999999,85.14999999999999,15.149999999999999H31.949999999999996C30.403602700473773,15.149999999999999,29.149999999999995,16.403602700473776,29.149999999999995,17.95V21.099999999999998H23.549999999999997V19.349999999999998C23.549999999999997,17.996902362914554,22.453097637085442,16.9,21.099999999999998,16.9zM97.39999999999999,16.9C96.04690236291455,16.9,94.94999999999999,17.996902362914554,94.94999999999999,19.349999999999998V32.65C94.94999999999999,34.003097637085446,96.04690236291455,35.1,97.39999999999999,35.1H98.1C99.45309763708543,35.1,100.55,34.003097637085446,100.55,32.65V30.9H106.14999999999999V34.05C106.14999999999999,35.59639729952622,107.40360270047377,36.849999999999994,108.94999999999999,36.849999999999994H162.14999999999998C163.6963972995262,36.849999999999994,164.95,35.59639729952622,164.95,34.05V17.95C164.95,16.403602700473776,163.6963972995262,15.149999999999999,162.14999999999998,15.149999999999999H108.94999999999999C107.40360270047377,15.149999999999999,106.14999999999999,16.403602700473776,106.14999999999999,17.95V21.099999999999998H100.55V19.349999999999998C100.55,17.996902362914554,99.45309763708543,16.9,98.1,16.9z"/><path fill="url(#random_pink2)" stroke="none" d="M1.5,19.7C1.5,18.346902362914555,2.5969023629145553,17.25,3.9499999999999997,17.25H4.6499999999999995C6.003097637085443,17.25,7.1,18.346902362914555,7.1,19.7V21.45H12.7V18.3V12C12.7,6.2010101267766675,17.40101012677667,1.5,23.2,1.5H158.99999999999997C164.7989898732233,1.5,169.49999999999997,6.2010101267766675,169.49999999999997,12V15.5H176.49999999999997C178.0463972995262,15.5,179.29999999999998,16.753602700473778,179.29999999999998,18.3V34.4C179.29999999999998,35.94639729952622,178.0463972995262,37.199999999999996,176.49999999999997,37.199999999999996H169.49999999999997V39.99999999999999C169.49999999999997,41.54639729952621,168.2463972995262,42.79999999999999,166.69999999999996,42.79999999999999H15.499999999999972C13.95360270047375,42.79999999999999,12.69999999999997,41.54639729952621,12.69999999999997,39.99999999999999V34.39999999999999V31.249999999999993H7.099999999999971V32.99999999999999C7.099999999999971,34.35309763708544,6.003097637085416,35.449999999999996,4.649999999999972,35.449999999999996H3.9499999999999718C2.596902362914528,35.449999999999996,1.499999999999972,34.35309763708544,1.499999999999972,32.99999999999999zM20.4,16.9C19.046902362914555,16.9,17.95,17.996902362914554,17.95,19.349999999999998V32.65C17.95,34.003097637085446,19.046902362914555,35.1,20.4,35.1H21.099999999999998C22.453097637085442,35.1,23.549999999999997,34.003097637085446,23.549999999999997,32.65V30.9H29.15V34.05C29.15,35.59639729952622,30.403602700473776,36.849999999999994,31.95,36.849999999999994H85.14999999999999C86.69639729952621,36.849999999999994,87.94999999999999,35.59639729952622,87.94999999999999,34.05V17.95C87.94999999999999,16.403602700473776,86.69639729952621,15.149999999999999,85.14999999999999,15.149999999999999H31.949999999999996C30.403602700473773,15.149999999999999,29.149999999999995,16.403602700473776,29.149999999999995,17.95V21.099999999999998H23.549999999999997V19.349999999999998C23.549999999999997,17.996902362914554,22.453097637085442,16.9,21.099999999999998,16.9zM97.39999999999999,16.9C96.04690236291455,16.9,94.94999999999999,17.996902362914554,94.94999999999999,19.349999999999998V32.65C94.94999999999999,34.003097637085446,96.04690236291455,35.1,97.39999999999999,35.1H98.1C99.45309763708543,35.1,100.55,34.003097637085446,100.55,32.65V30.9H106.14999999999999V34.05C106.14999999999999,35.59639729952622,107.40360270047377,36.849999999999994,108.94999999999999,36.849999999999994H162.14999999999998C163.6963972995262,36.849999999999994,164.95,35.59639729952622,164.95,34.05V17.95C164.95,16.403602700473776,163.6963972995262,15.149999999999999,162.14999999999998,15.149999999999999H108.94999999999999C107.40360270047377,15.149999999999999,106.14999999999999,16.403602700473776,106.14999999999999,17.95V21.099999999999998H100.55V19.349999999999998C100.55,17.996902362914554,99.45309763708543,16.9,98.1,16.9z"/></g><linearGradient x1="0" y1="0" x2="150" y2="45" gradientUnits="userSpaceOnUse" id="random_pink2"><stop offset="0.0" stop-color="#fcc4f9" stop-opacity="1"/><stop offset="1.0" stop-color="#f991f3" stop-opacity="1"/></linearGradient></svg>