<svg xmlns="http://www.w3.org/2000/svg" version="1.1" width="140.2035" height="90.35999999999999" viewBox="0 0 140.2035 90.35999999999999"><g><path fill="none" stroke="#cc7e02" stroke-width="3" stroke-miterlimit="10" d="M1.5,9.899999999999999C1.5,5.2608081014213335,5.2608081014213335,1.5,9.899999999999999,1.5H22.5V2.76C22.5,4.306397299526221,23.753602700473778,5.56,25.3,5.56H37.9C39.44639729952622,5.56,40.699999999999996,4.306397299526221,40.699999999999996,2.76V1.4999999999999998H53.3C56.959599999999995,1.4999999999999998,60.0725,3.8344999999999994,61.224,7.1H65.9035C69.38289392393399,7.1,72.20349999999999,9.920606076065999,72.20349999999999,13.399999999999999V14.799999999999999H68.70349999999999V13.399999999999999C68.70349999999999,11.853602700473777,67.44989729952621,10.599999999999998,65.9035,10.599999999999998H64.50349999999999C62.95710270047377,10.599999999999998,61.70349999999999,11.853602700473777,61.70349999999999,13.399999999999999V28.099999999999998C61.70349999999999,29.64639729952622,62.95710270047377,30.9,64.50349999999999,30.9H65.9035C67.44989729952621,30.9,68.70349999999999,29.64639729952622,68.70349999999999,28.099999999999998V26.7H72.20349999999999V35.099999999999994C72.20349999999999,37.419595949289324,74.08390405071066,39.3,76.4035,39.3H135.90349999999998C137.4498972995262,39.3,138.7035,40.553602700473775,138.7035,42.099999999999994V49.099999999999994H134.03799999999998C132.89489999999998,45.81909999999999,129.7736,43.49999999999999,126.10349999999998,43.49999999999999H112.80349999999999V44.75999999999999C112.80349999999999,46.30639729952621,111.54989729952621,47.55999999999999,110.00349999999999,47.55999999999999H98.80349999999999C97.25710270047377,47.55999999999999,96.00349999999999,46.30639729952621,96.00349999999999,44.75999999999999V43.49999999999999H82.00349999999999C77.36430810142133,43.49999999999999,73.6035,47.260808101421325,73.6035,51.89999999999999V76.39999999999999C73.6035,81.03919189857865,69.84269189857865,84.79999999999998,65.20349999999999,84.79999999999998H40.00349999999999V86.05999999999999C40.00349999999999,87.60639729952621,38.74989729952621,88.85999999999999,37.20349999999999,88.85999999999999H26.003499999999992C24.45710270047377,88.85999999999999,23.20349999999999,87.60639729952621,23.20349999999999,86.05999999999999V84.79999999999998H9.903499999999992C5.264308101421327,84.79999999999998,1.5034999999999936,81.03919189857864,1.5034999999999936,76.39999999999998z"/><path fill="url(#repeat_orange2)" stroke="none" d="M1.5,9.899999999999999C1.5,5.2608081014213335,5.2608081014213335,1.5,9.899999999999999,1.5H22.5V2.76C22.5,4.306397299526221,23.753602700473778,5.56,25.3,5.56H37.9C39.44639729952622,5.56,40.699999999999996,4.306397299526221,40.699999999999996,2.76V1.4999999999999998H53.3C56.959599999999995,1.4999999999999998,60.0725,3.8344999999999994,61.224,7.1H65.9035C69.38289392393399,7.1,72.20349999999999,9.920606076065999,72.20349999999999,13.399999999999999V14.799999999999999H68.70349999999999V13.399999999999999C68.70349999999999,11.853602700473777,67.44989729952621,10.599999999999998,65.9035,10.599999999999998H64.50349999999999C62.95710270047377,10.599999999999998,61.70349999999999,11.853602700473777,61.70349999999999,13.399999999999999V28.099999999999998C61.70349999999999,29.64639729952622,62.95710270047377,30.9,64.50349999999999,30.9H65.9035C67.44989729952621,30.9,68.70349999999999,29.64639729952622,68.70349999999999,28.099999999999998V26.7H72.20349999999999V35.099999999999994C72.20349999999999,37.419595949289324,74.08390405071066,39.3,76.4035,39.3H135.90349999999998C137.4498972995262,39.3,138.7035,40.553602700473775,138.7035,42.099999999999994V49.099999999999994H134.03799999999998C132.89489999999998,45.81909999999999,129.7736,43.49999999999999,126.10349999999998,43.49999999999999H112.80349999999999V44.75999999999999C112.80349999999999,46.30639729952621,111.54989729952621,47.55999999999999,110.00349999999999,47.55999999999999H98.80349999999999C97.25710270047377,47.55999999999999,96.00349999999999,46.30639729952621,96.00349999999999,44.75999999999999V43.49999999999999H82.00349999999999C77.36430810142133,43.49999999999999,73.6035,47.260808101421325,73.6035,51.89999999999999V76.39999999999999C73.6035,81.03919189857865,69.84269189857865,84.79999999999998,65.20349999999999,84.79999999999998H40.00349999999999V86.05999999999999C40.00349999999999,87.60639729952621,38.74989729952621,88.85999999999999,37.20349999999999,88.85999999999999H26.003499999999992C24.45710270047377,88.85999999999999,23.20349999999999,87.60639729952621,23.20349999999999,86.05999999999999V84.79999999999998H9.903499999999992C5.264308101421327,84.79999999999998,1.5034999999999936,81.03919189857864,1.5034999999999936,76.39999999999998z"/></g><linearGradient x1="20" y1="0" x2="64" y2="98" gradientUnits="userSpaceOnUse" id="repeat_orange2"><stop offset="0.0" stop-color="#ffdf60" stop-opacity="1"/><stop offset="1.0" stop-color="#ffbb00" stop-opacity="1"/></linearGradient></svg>