<svg xmlns="http://www.w3.org/2000/svg" version="1.1" width="63.199999999999996" height="42.9" viewBox="0 0 63.199999999999996 42.9"><g><path fill="none" stroke="#cc7e02" stroke-width="3" stroke-miterlimit="10" d="M1.5,9.899999999999999C1.5,5.2608081014213335,5.2608081014213335,1.5,9.899999999999999,1.5H22.5V2.76C22.5,4.306397299526221,23.753602700473778,5.56,25.3,5.56H37.9C39.44639729952622,5.56,40.699999999999996,4.306397299526221,40.699999999999996,2.76V1.4999999999999998H53.3C57.93919189857866,1.4999999999999998,61.699999999999996,5.2608081014213335,61.699999999999996,9.899999999999999V11.299999999999999C61.699999999999996,27.923770969906883,48.22377096990688,41.4,31.599999999999998,41.4C14.976229030093112,41.4,1.5,27.923770969906887,1.5,11.3z"/><path fill="url(#stopall_orange)" stroke="none" d="M1.5,9.899999999999999C1.5,5.2608081014213335,5.2608081014213335,1.5,9.899999999999999,1.5H22.5V2.76C22.5,4.306397299526221,23.753602700473778,5.56,25.3,5.56H37.9C39.44639729952622,5.56,40.699999999999996,4.306397299526221,40.699999999999996,2.76V1.4999999999999998H53.3C57.93919189857866,1.4999999999999998,61.699999999999996,5.2608081014213335,61.699999999999996,9.899999999999999V11.299999999999999C61.699999999999996,27.923770969906883,48.22377096990688,41.4,31.599999999999998,41.4C14.976229030093112,41.4,1.5,27.923770969906887,1.5,11.3z"/></g><linearGradient x1="20" y1="0" x2="42" y2="48" gradientUnits="userSpaceOnUse" id="stopall_orange"><stop offset="0.0" stop-color="#ffdf60" stop-opacity="1"/><stop offset="1.0" stop-color="#ffbb00" stop-opacity="1"/></linearGradient></svg>