<?xml version="1.0" encoding="utf-8"?>
<!-- Generator: Adobe Illustrator 15.0.0, SVG Export Plug-In . SVG Version: 6.00 Build 0)  -->
<!DOCTYPE svg PUBLIC "-//W3C//DTD SVG 1.1//EN" "http://www.w3.org/Graphics/SVG/1.1/DTD/svg11.dtd">
<svg version="1.1" id="Layer_1" xmlns="http://www.w3.org/2000/svg" xmlns:xlink="http://www.w3.org/1999/xlink" x="0px" y="0px"
	 width="63.2px" height="66.561px" viewBox="0 0 63.2 66.561" enable-background="new 0 0 63.2 66.561" xml:space="preserve">
<g>
	<path fill="none" stroke="#CC7E02" stroke-width="3" stroke-miterlimit="10" d="M1.5,9.9c0-4.64,3.761-8.4,8.4-8.4h12.6v1.26
		c0,1.547,1.253,2.801,2.8,2.801h12.6c1.546,0,2.8-1.254,2.8-2.801V1.5h12.6c4.64,0,8.4,3.761,8.4,8.4v42.7
		c0,4.639-3.761,8.399-8.4,8.399H40v1.26c0,1.547-1.254,2.801-2.801,2.801H26c-1.546,0-2.8-1.254-2.8-2.801V61H9.9
		c-4.639,0-8.4-3.761-8.4-8.399V9.9z"/>
	
		<linearGradient id="SVGID_1_" gradientUnits="userSpaceOnUse" x1="273.7495" y1="-279.4709" x2="295.7495" y2="-327.4708" gradientTransform="matrix(1 0 0 -1 -256 -278.4399)">
		<stop  offset="0" style="stop-color:#FFDF60"/>
		<stop  offset="1" style="stop-color:#FFBB00"/>
	</linearGradient>
	<path fill="url(#SVGID_1_)" d="M1.5,9.9c0-4.64,3.761-8.4,8.4-8.4h12.6v1.26c0,1.547,1.253,2.801,2.8,2.801h12.6
		c1.546,0,2.8-1.254,2.8-2.801V1.5h12.6c4.64,0,8.4,3.761,8.4,8.4v42.7c0,4.639-3.761,8.399-8.4,8.399H40v1.26
		c0,1.547-1.254,2.801-2.801,2.801H26c-1.546,0-2.8-1.254-2.8-2.801V61H9.9c-4.639,0-8.4-3.761-8.4-8.399V9.9z"/>
</g>
<g>
	<path fill="#CC7E02" d="M31.418,53.169c-0.311,0-0.603-0.146-0.792-0.392l-5.912-7.681c-0.232-0.301-0.273-0.709-0.104-1.051
		c0.168-0.342,0.516-0.561,0.897-0.561h11.824c0.381,0,0.729,0.219,0.896,0.561s0.128,0.75-0.104,1.051l-5.912,7.681
		C32.021,53.024,31.729,53.169,31.418,53.169z"/>
	<path fill="#CC7E02" d="M31.1,38.179c-1.599,0-2.9-1.301-2.9-2.898c0-1.601,1.301-2.9,2.9-2.9c1.6,0,2.898,1.3,2.898,2.9
		C33.999,36.88,32.7,38.179,31.1,38.179z"/>
	<path fill="#CC7E02" d="M31.1,27.179c-1.599,0-2.9-1.301-2.9-2.898c0-1.601,1.301-2.9,2.9-2.9c1.6,0,2.898,1.301,2.898,2.9
		C33.999,25.879,32.7,27.179,31.1,27.179z"/>
	<path fill="#CC7E02" d="M31.1,16.179c-1.599,0-2.9-1.301-2.9-2.898c0-1.601,1.301-2.9,2.9-2.9c1.6,0,2.898,1.301,2.898,2.9
		C33.999,14.879,32.7,16.179,31.1,16.179z"/>
</g>
</svg>
