<?xml version="1.0" encoding="utf-8"?>
<!-- Generator: Adobe Illustrator 23.1.1, SVG Export Plug-In . SVG Version: 6.00 Build 0)  -->
<svg version="1.1" id="Layer_1" xmlns="http://www.w3.org/2000/svg" xmlns:xlink="http://www.w3.org/1999/xlink" x="0px" y="0px"
	 width="56.1px" height="59.1px" viewBox="0 0 56.1 59.1" enable-background="new 0 0 56.1 59.1" xml:space="preserve">
<g transform="matrix(1 0 0 1 0 0)">
	<g transform="matrix( 1 0 0 1 0 0)">
		<path fill="none" stroke="#CC7E02" stroke-width="1.89" stroke-miterlimit="10" d="M0.9,8.5c0-4.2,3.4-7.6,7.6-7.6h11.3V2
			c0,1.4,1.1,2.5,2.5,2.5h11.3c1.4,0,2.5-1.1,2.5-2.5V0.9h11.3c4.2,0,7.6,3.4,7.6,7.6v38.4c0,4.2-3.4,7.6-7.6,7.6h-12v1.1
			c0,1.4-1.1,2.5-2.5,2.5H23c-1.4,0-2.5-1.1-2.5-2.5v-1.1h-12c-4.2,0-7.6-3.4-7.6-7.6C0.9,46.9,0.9,8.5,0.9,8.5z"/>
		
			<linearGradient id="SVGID_1_" gradientUnits="userSpaceOnUse" x1="15.5071" y1="552.0179" x2="35.3071" y2="595.2179" gradientTransform="matrix(1 0 0 1 0 -551.466)">
			<stop  offset="0" style="stop-color:#FFDF60"/>
			<stop  offset="1" style="stop-color:#FFBB00"/>
		</linearGradient>
		<path fill="url(#SVGID_1_)" d="M0.9,8.5c0-4.2,3.4-7.6,7.6-7.6h11.3V2c0,1.4,1.1,2.5,2.5,2.5h11.3c1.4,0,2.5-1.1,2.5-2.5V0.9h11.3
			c4.2,0,7.6,3.4,7.6,7.6v38.4c0,4.2-3.4,7.6-7.6,7.6h-12v1.1c0,1.4-1.1,2.5-2.5,2.5H23c-1.4,0-2.5-1.1-2.5-2.5v-1.1h-12
			c-4.2,0-7.6-3.4-7.6-7.6C0.9,46.9,0.9,8.5,0.9,8.5z"/>
		<g>
			<path fill="#CC7E02" d="M27.9,47.4c-0.3,0-0.5-0.1-0.7-0.4l-5.3-6.9c-0.2-0.3-0.2-0.6-0.1-0.9c0.2-0.3,0.5-0.5,0.8-0.5h10.6
				c0.3,0,0.7,0.2,0.8,0.5c0.2,0.3,0.1,0.7-0.1,0.9L28.6,47C28.4,47.3,28.2,47.4,27.9,47.4z"/>
			<path fill="#CC7E02" d="M27.6,34c-1.4,0-2.6-1.2-2.6-2.6s1.2-2.6,2.6-2.6s2.6,1.2,2.6,2.6S29,34,27.6,34z"/>
			<path fill="#CC7E02" d="M27.6,24.1c-1.4,0-2.6-1.2-2.6-2.6s1.2-2.6,2.6-2.6s2.6,1.2,2.6,2.6S29,24.1,27.6,24.1z"/>
			<path fill="#CC7E02" d="M27.6,14.2c-1.4,0-2.6-1.2-2.6-2.6S26.2,9,27.6,9s2.6,1.2,2.6,2.6S29,14.2,27.6,14.2z"/>
		</g>
	</g>
</g>
</svg>
